<?xml version="1.0" encoding="UTF-8"?>
<svg width="116px" height="43px" viewBox="0 0 116 43" version="1.1" xmlns="http://www.w3.org/2000/svg" xmlns:xlink="http://www.w3.org/1999/xlink">
    <title>Oakley_logo</title>
    <defs>
        <filter color-interpolation-filters="auto" id="filter-1">
            <feColorMatrix in="SourceGraphic" type="matrix" values="0 0 0 0 0.592157 0 0 0 0 0.592157 0 0 0 0 0.592157 0 0 0 1.000000 0"></feColorMatrix>
        </filter>
    </defs>
    <g id="Page-1" stroke="none" stroke-width="1" fill="none" fill-rule="evenodd">
        <g id="Group-7" transform="translate(-249.785000, -48.000000)">
            <g id="Oakley_logo" transform="translate(-0.000000, 48.000000)" filter="url(#filter-1)">
                <g transform="translate(250.759247, 0.000000)">
                    <g id="g4" transform="translate(19.000000, 0.000000)" fill="#000000">
                        <path d="M37.5586168,0.000124982467 C44.1595049,-0.00723663169 49.3458693,0.309368039 54.963708,1.27878992 C61.0970916,2.33722443 66.8172385,3.76491449 71.4235593,6.44273862 C71.7638456,6.64057706 72.0238422,6.76969433 72.4657696,7.05743882 C74.2612806,8.2271425 76.4962725,10.100753 76.9261899,12.6148737 C77.2735933,14.6475853 76.336805,16.3033005 75.3261767,17.4835854 C74.2770717,18.7085864 72.9904334,19.6409922 71.6172778,20.4343765 C66.0158975,23.6720096 58.6305715,25.3954533 50.9638976,26.2868431 C47.4011217,26.7010652 43.6650888,27 39.279843,27 C35.0164775,27 31.2517538,26.825377 27.6198086,26.4589844 C20.233504,25.7140163 12.4972159,24.1433113 6.67565029,21.1473303 C5.22598593,20.40155 3.86951109,19.5872291 2.65155282,18.491774 C1.49520195,17.4518644 0.392918796,16.1620905 0.0821239225,14.3854025 C-0.440248999,11.4004539 1.63354058,9.22937502 3.35461112,7.89355383 C5.19907439,6.46168996 7.57262734,5.26554464 9.85121149,4.40188251 C14.5871969,2.60624319 20.3142386,1.41318875 25.9957753,0.713221062 C29.782295,0.24679478 33.1422336,0.0051013665 37.5586168,0.000124982467 Z M37.7285375,2.68049183 C32.6044477,2.68049183 27.7381304,3.62413312 23.4747649,5.21333822 C21.386919,5.99151627 19.5313575,6.94727288 17.8990951,8.33620295 C16.4747854,9.54841178 14.7904791,11.4920971 15.1841437,14.1639651 C15.5237628,16.4685607 17.3301719,18.1123863 18.8688,19.2049761 C20.5864677,20.4244496 22.6469572,21.3464999 24.7353813,22.032606 C29.2471781,23.5152098 34.3016537,24.1536894 39.5222692,24.0981891 C44.4819985,24.0453961 49.698833,23.1729577 53.8000621,21.5410669 C55.8224306,20.7362216 57.7627301,19.7509325 59.3511779,18.3935204 C60.8139644,17.1436119 62.3668267,15.124798 61.9693812,12.6148737 C61.6133037,10.3667035 59.9232148,8.72285537 58.2847249,7.57386279 C56.4827641,6.31010181 54.5724898,5.47838622 52.418455,4.7460298 C49.1199014,3.62478739 45.3720808,2.95964053 41.7766107,2.7789711 C40.6487727,2.72213965 39.1650797,2.61350787 37.7768004,2.68049183 C37.7607869,2.68137171 37.744551,2.68049183 37.7285375,2.68049183 L37.7285375,2.68049183 Z" id="path6"></path>
                    </g>
                    <g id="g16" transform="translate(0.000000, 32.000000)" fill="#000000">
                        <path d="M5.2904878,0.00176261823 C7.53068536,-0.00283632894 9.52379142,-0.0225461026 11.3467801,0.336171777 C11.9579273,0.456182399 12.6446823,0.683501788 12.8608703,1.12346773 C13.0636903,1.53649699 12.9849626,2.22130213 12.9849626,3.22409161 C12.9849626,5.08535123 12.9849626,6.79243662 12.9849626,8.73779128 C12.9849626,9.09059623 13.0314431,9.53581811 12.9353621,9.78832221 C12.6366888,10.5708002 11.012307,10.7558531 10.1800983,10.8384152 C7.93921756,11.0611356 5.27336219,11.0464628 2.98201555,10.8384152 C2.0835271,10.7567291 0.476268645,10.5712382 0.127550806,9.83562567 C-0.0799458624,9.39828769 0.0281387224,8.36549556 0.0281387224,7.71156907 C0.0281387224,6.12252332 0.0281387224,4.95986567 0.0281387224,3.31979351 C0.0281387224,2.54498041 -0.0926225216,1.52182416 0.226738115,1.05207455 C0.550325497,0.576193021 1.612491,0.311863057 2.48562354,0.192728425 C3.4597106,0.0597969517 4.20273865,0.00395259308 5.2904878,0.00176261823 Z M5.09188089,1.36239399 C5.00203979,1.53824897 5.04207544,2.03953421 5.04207544,2.34109375 C5.04207544,4.18330059 5.04207544,5.73139381 5.04207544,7.54447399 C5.04207544,8.16073291 4.91575134,9.22987863 5.11656727,9.57326668 C5.32451127,9.9284806 5.8991755,9.92431965 6.48185596,9.93132757 C6.94310861,9.93680251 7.64655647,9.9635202 7.87183104,9.59713741 C8.07576693,9.26513722 7.94634564,8.27526859 7.94634564,7.61608616 C7.94634564,5.92761556 7.94634564,5.08951218 7.94634564,3.46279887 C7.94634564,3.016044 8.06264944,1.7537425 7.92143153,1.41013544 C7.74129385,0.97148348 6.54769389,1.00061015 6.13426541,1.02820383 C5.83757342,1.0479136 5.24601133,1.06061546 5.09188089,1.36239399 L5.09188089,1.36239399 Z" id="path18"></path>
                    </g>
                    <g id="g20" transform="translate(21.000000, 32.000000)" fill="#000000">
                        <path d="M3.83107009,0.000158992842 C5.74738624,-0.000292560565 7.86657326,0.000384769546 9.86143408,0.000158992842 C11.2459465,3.6615798 12.6356662,7.31758196 14,11 C12.1869636,11 10.3739271,11 8.56067374,11 C8.26168329,10.097119 7.98872974,9.16759627 7.68583375,8.26832766 C6.6669229,8.22904251 5.48810206,8.22633319 4.46962516,8.26832766 C4.17844578,9.13847108 3.95604723,10.0799599 3.71303612,11 C2.4751983,11 1.23764254,11 0,11 C0.921077184,8.26471523 1.89492249,5.52559226 2.83776219,2.78105065 C3.15432755,1.85965593 3.51906118,0.813632456 3.83107009,0.000158992842 L3.83107009,0.000158992842 Z M4.70612704,6.9886253 C5.53453454,6.94821127 6.52632362,6.94821127 7.35473112,6.9886253 C6.88346316,5.54342862 6.42955313,4.07994403 5.91206965,2.68261201 C5.53258178,4.14135529 5.08800164,5.53259134 4.70612704,6.9886253 L4.70612704,6.9886253 Z" id="path22"></path>
                    </g>
                    <g id="g24" transform="translate(43.000000, 32.000000)" fill="#000000">
                        <path d="M5.33861137,4.45084609 C6.49870258,3.24458291 7.71157604,1.88798692 8.92198931,0.550745163 C9.06848241,0.388709809 9.32903885,0.071165527 9.45831063,0.035607769 C9.74883666,-0.0445097112 10.2663711,0.035607769 10.604088,0.035607769 C11.7176593,0.035607769 12.8972083,0.0558621881 13.9922164,0.0110774169 C14.0394073,0.14318124 13.8591425,0.212271314 13.7971904,0.28091129 C12.5333239,1.68139185 11.174852,3.16784117 9.87251709,4.5489675 C11.1627747,6.69301029 12.5427174,8.87756192 13.7730358,11 C11.8959112,11 10.0187865,11 8.14188556,11 C7.14729801,9.46606532 6.30479491,7.77909726 5.33861137,6.21703144 C5.33861137,7.81127928 5.33861137,9.40552712 5.33861137,11 C3.56727488,11 1.79593839,11 0.0246018957,11 C0.00805152951,7.45930248 0.0570316673,3.64179457 0,0.060138121 C1.69059754,0.00320069833 3.61558406,0.0515862552 5.26525299,0.035607769 C5.39899784,0.0214296756 5.33861137,0.331997436 5.33861137,0.501684458 C5.33861137,1.74845648 5.33861137,3.18922083 5.33861137,4.45084609 Z" id="path26"></path>
                    </g>
                    <g id="g28" transform="translate(65.000000, 32.000000)" fill="#000000">
                        <path d="M0.0504619011,0.0201204969 C1.87519202,0.0201204969 3.70038509,0.0201204969 5.52534669,0.0201204969 C5.52511521,3.17255388 5.52534669,6.45570012 5.52534669,9.52609992 C7.34174365,9.54232634 9.22550031,9.49342171 11,9.55066492 C11,10.0338517 11,10.5168132 11,11 C7.33317902,11 3.66658951,11 0,11 C0.0583321058,7.63279188 0.0090275878,3.64762749 0.0252309505,0.0692504996 C-0.0254624271,0.047389902 0.0363418278,-0.0384749192 0.0504619011,0.0201204969 Z" id="path30"></path>
                    </g>
                    <g id="g32" transform="translate(84.000000, 32.000000)" fill="#000000">
                        <path d="M0.0254405697,0.0158563993 C3.35043659,0.0158563993 6.67500398,0.0158563993 10,0.0158563993 C10,0.482772684 10,0.949688969 10,1.41660525 C8.38036645,1.41660525 6.76094721,1.41660525 5.14131366,1.41660525 C5.08666148,2.48976871 5.13338373,3.66889578 5.11795253,4.78309196 C6.36380801,4.79932468 7.67181695,4.75040105 8.87888009,4.8076665 C8.88766731,5.28157187 8.86194863,5.73496089 8.90224122,6.08554265 C7.64845582,6.08554265 6.39488474,6.08554265 5.14131366,6.08554265 C5.14131366,7.248437 5.14131366,8.4115568 5.14131366,9.57490206 C6.70629503,9.63194205 8.37265084,9.58301842 9.97685319,9.5994766 C9.97685319,10.0661674 9.97685319,10.5330837 9.97685319,11 C6.65185717,11 3.32707546,11 0.00229376228,11 C0.00229376228,7.35507698 0.00229376228,3.7099285 0.00229376228,0.0650054819 C-0.0077793854,0.0178854899 0.0181536118,-0.023823594 0.0254405697,0.0158563993 Z" id="path34"></path>
                    </g>
                    <g id="g36" transform="translate(101.000000, 32.000000)" fill="#000000">
                        <path d="M13.9764688,0.000848504446 C13.9965459,-0.00365499954 13.9984888,0.010531038 14,0.0253926012 C12.612953,2.31722578 11.0536315,4.64238489 9.59987664,6.94637753 C9.61520432,8.26455314 9.56922128,9.77570391 9.62362375,10.9713842 C7.94491904,11.0285787 6.16453354,10.9794905 4.44696993,10.9959283 C4.44567463,10.0360064 4.44696993,9.02226769 4.44696993,7.97722959 C4.44696993,7.64261924 4.50655359,7.26207316 4.44696993,6.97092162 C4.39472629,6.71557295 4.06550501,6.36722691 3.88222051,6.08755932 C2.56166538,4.06976436 1.2480185,2.01233856 0,0.0253926012 C1.81168851,0.0253926012 3.62337702,0.0253926012 5.43506554,0.0253926012 C6.2366384,1.34086612 6.96437934,2.73334955 7.71759445,4.09948748 C8.50686199,2.76307267 9.23935235,1.36721161 10.0234387,0.0253926012 C11.3334156,0.00917998682 12.7057826,0.0580430051 13.9764688,0.000848504446 Z" id="path38"></path>
                    </g>
                </g>
            </g>
        </g>
    </g>
</svg>