<?xml version="1.0" encoding="UTF-8"?>
<svg width="171px" height="37px" viewBox="0 0 171 37" version="1.1" xmlns="http://www.w3.org/2000/svg" xmlns:xlink="http://www.w3.org/1999/xlink">
    <title>WestRock_logo</title>
    <defs>
        <filter color-interpolation-filters="auto" id="filter-1">
            <feColorMatrix in="SourceGraphic" type="matrix" values="0 0 0 0 0.592157 0 0 0 0 0.592157 0 0 0 0 0.592157 0 0 0 1.000000 0"></feColorMatrix>
        </filter>
    </defs>
    <g id="Page-1" stroke="none" stroke-width="1" fill="none" fill-rule="evenodd">
        <g id="Group-7" transform="translate(-451.785000, -51.000000)">
            <g id="WestRock_logo" transform="translate(-0.000000, 48.000000)" filter="url(#filter-1)">
                <g transform="translate(452.733494, 3.000000)">
                    <g id="Group" fill-rule="nonzero">
                        <polygon id="Path" fill="#FF8200" points="19 15.8219048 38 18.5 19 21.1780952 0 18.5"></polygon>
                        <path d="M19,24.6666667 L38,20.7904762 L19,29.1066667 L0,20.7904762 L19,24.6666667 Z M38,16.2095238 L19,7.92857143 L0,16.2095238 L19,12.3333333 L38,16.2095238 Z" id="Shape" fill="#0085CA"></path>
                        <path d="M19,32.8419048 L38,23.0809524 L19,37 L0,23.0457143 L19,32.8419048 Z M38,13.9542857 L19,0 L0,13.9542857 L19,4.19333333 L38,13.9542857 Z" id="Shape" fill="#004B87"></path>
                    </g>
                    <path d="M95.7256318,23.7704918 C95.7256318,25.6098361 94.8792002,26.7639344 94.0680367,27.4852459 C93.2921411,28.2065574 91.9166898,29 89.1305193,29 C86.3443488,29 83.7345182,27.4491803 82.7117467,26.295082 L84.6867537,23.7704918 C85.8153291,24.9967213 87.89614,25.8622951 89.3068592,25.8622951 C90.6823105,25.8622951 91.7756179,25.5016393 91.7756179,24.3836066 C91.7756179,23.2655738 90.1532908,22.8688525 89.3068592,22.6163934 C88.4604277,22.3278689 87.6492641,22.1114754 86.8381005,21.7868852 C86.026937,21.4622951 83.5229103,20.5245902 83.5229103,17.495082 C83.5229103,14.4655738 86.026937,12.5540984 89.730075,12.5540984 C93.397945,12.5540984 95.6198278,14.6819672 95.6198278,14.6819672 L94.0680367,17.2786885 C92.7983893,16.2327869 91.1407942,15.5836066 89.8006109,15.5836066 C88.4956956,15.5836066 87.4023882,15.9081967 87.4023882,16.9901639 C87.4023882,18.0721311 88.6367676,18.3606557 89.8006109,18.757377 C90.9644543,19.1180328 92.2693696,19.5508197 92.7278534,19.7672131 C93.2216051,19.9114754 95.7256318,20.9213115 95.7256318,23.7704918 Z M102.39128,8.73114754 L98.5823382,8.73114754 L98.5470703,8.73114754 L98.5470703,12.842623 L96.2899195,12.842623 L96.2899195,15.8360656 L98.4765343,15.8360656 L98.4765343,23.7704918 C98.4765343,25.6098361 98.7234102,26.8721311 99.6756457,27.8098361 C100.592613,28.7114754 101.791725,29 103.167176,29 C104.366287,29 105.777006,28.7114754 106.517634,28.495082 L106.129686,25.5737705 C105.600666,25.7180328 104.965843,25.8262295 104.331019,25.8262295 C103.660928,25.8262295 103.131908,25.5016393 102.885032,25.104918 C102.638156,24.7081967 102.497084,23.9508197 102.497084,23.0131148 L102.497084,15.8360656 L106.552902,15.8360656 L106.552902,12.842623 L102.461816,12.842623 L102.461816,8.73114754 L102.39128,8.73114754 Z M148.557067,25.5016393 C146.264649,25.5016393 144.289642,24.0590164 144.289642,20.704918 C144.289642,17.3508197 146.299917,15.9081967 148.5218,15.9081967 C150.743682,15.9081967 152.224938,17.6754098 152.224938,17.6754098 L154.058873,15.1508197 C153.847265,14.8622951 152.048598,12.5540984 148.098584,12.5540984 C144.14857,12.5540984 140.339628,15.3672131 140.339628,20.7770492 C140.339628,26.1868852 143.831158,29 147.957512,29 C152.083866,29 153.847265,26.8360656 154.164676,26.4754098 L152.401277,23.7704918 C152.366009,23.7704918 150.849486,25.5016393 148.557067,25.5016393 Z M163.722299,19.0819672 L169.682588,12.8786885 L164.956679,12.8786885 L159.384338,19.2262295 L159.384338,7 L155.363788,7 L155.363788,28.7114754 L159.384338,28.7114754 L159.384338,23.7344262 L161.077201,22.0393443 L165.379894,28.6754098 L170,28.6754098 L163.722299,19.0819672 Z M81.8653152,21.7508197 L71.2496529,21.7508197 C71.3554568,24.4557377 73.0130519,25.8983607 75.4818106,25.8983607 C77.9505693,25.8983607 79.7492363,24.6 80.1019161,24.2754098 L81.4773674,26.7639344 C81.4773674,26.7639344 79.4318245,29 74.9527909,29 C70.4737573,29 67.229103,26.042623 67.229103,20.7770492 C67.229103,15.5114754 70.5442933,12.5540984 74.9527909,12.5540984 C79.3260205,12.5540984 81.9005832,15.8360656 81.9005832,20.4885246 L81.9005832,21.7508197 L81.8653152,21.7508197 Z M78.0211052,19.0459016 C78.0211052,17.0262295 77.0336018,15.3311475 74.741183,15.3311475 C72.4487642,15.3311475 71.3554568,17.1704918 71.1791169,19.0459016 L78.0211052,19.0459016 Z M139.24632,20.7770492 C139.24632,25.8262295 136.072202,29 131.416829,29 C126.726187,29 123.587337,25.8622951 123.587337,20.7770492 C123.587337,15.6918033 126.761455,12.5540984 131.416829,12.5540984 C136.10747,12.5540984 139.24632,15.6918033 139.24632,20.7770492 Z M135.155235,20.7770492 C135.155235,17.8918033 133.885587,15.6557377 131.416829,15.6557377 C128.94807,15.6557377 127.678423,17.8557377 127.678423,20.7770492 C127.678423,23.6622951 128.912802,25.8983607 131.416829,25.8983607 C133.885587,25.8983607 135.155235,23.6622951 135.155235,20.7770492 Z M55.7670092,16.8819672 L62.1505137,29 L62.4679256,29 L68.6750903,7.03606557 L64.5134685,7.03606557 L60.7750625,19.4065574 L55.9786171,9.12786885 L55.6612052,9.12786885 L50.8294918,19.4065574 L47.0910858,7.03606557 L43,7.03606557 L49.2071647,29 L49.5245765,29 L55.7670092,16.8819672 Z M124.045821,28.7114754 L119.214107,28.7114754 L112.618995,20.3803279 L112.618995,28.7114754 L108.563177,28.7114754 L108.563177,7.03606557 L114.80561,7.03606557 C114.80561,7.03606557 118.790891,6.78360656 120.871702,8.47868852 C121.96501,9.38032787 123.164121,11.2557377 123.164121,13.7081967 C123.164121,16.1245902 121.96501,18.0360656 120.871702,18.9377049 C119.954735,19.6590164 118.720355,20.0918033 117.309636,20.2721311 L124.045821,28.7114754 Z M115.475701,17.1704918 C116.498473,17.1704918 117.2391,17.0262295 117.909192,16.6295082 C118.014996,16.5934426 119.425715,15.8 119.425715,13.8163934 C119.425715,10.7508197 117.274368,10.2098361 115.510969,10.2098361 L112.618995,10.2098361 L112.618995,17.1704918 L115.475701,17.1704918 L115.475701,17.1704918 Z" id="Shape" fill="#004B87" fill-rule="nonzero"></path>
                </g>
            </g>
        </g>
    </g>
</svg>