<?xml version="1.0" encoding="UTF-8"?>
<svg width="192px" height="34px" viewBox="0 0 192 34" version="1.1" xmlns="http://www.w3.org/2000/svg" xmlns:xlink="http://www.w3.org/1999/xlink">
    <title>Group 11</title>
    <defs>
        <filter color-interpolation-filters="auto" id="filter-1">
            <feColorMatrix in="SourceGraphic" type="matrix" values="0 0 0 0 0.592157 0 0 0 0 0.592157 0 0 0 0 0.592157 0 0 0 1.000000 0"></feColorMatrix>
        </filter>
    </defs>
    <g id="Page-1" stroke="none" stroke-width="1" fill="none" fill-rule="evenodd">
        <g id="Group-7" transform="translate(-1033.785000, -53.000000)">
            <g id="Heineken_logo" transform="translate(-0.000000, 48.000000)" filter="url(#filter-1)">
                <g transform="translate(1034.681987, 5.000000)" id="Group-11" fill-rule="nonzero">
                    <path d="M17.9492537,0 L21.8497512,11.9209877 L21.961194,11.9209877 L18.0606965,0 L17.9492537,0 Z M34.9721393,13.5160494 L34.8606965,13.6 L24.7751244,20.9876543 L28.6199005,32.9646091 L28.6477612,33.0485597 L28.7313433,32.9925926 L24.9144279,21.0156379 L35,13.6 L34.9721393,13.5160494 Z M17.1134328,26.6123457 L7,33.9440329 L7.08358209,34 L17.1691542,26.6403292 L17.1134328,26.6123457 Z" id="path4051" fill="#000000"></path>
                    <path d="M75.9770505,18.4697029 C75.9770505,19.6290176 75.4791885,19.9741054 73.6110845,20.6304489 C72.1152558,21.1954457 70.9636695,21.4458035 70.6205484,21.4458035 C69.9970995,21.4458035 69.7178931,20.9755368 69.7178931,20.0045543 C69.7178931,17.6870527 70.3704961,14.8677077 72.8003768,14.8677077 C75.0429985,14.8677077 75.9770505,17.3115159 75.9770505,18.4697029 M51.6816075,28.5877684 C51.6816075,28.3994361 51.6524534,28.2753849 51.5593846,28.180655 C51.3093323,27.9291694 50.3752803,27.7735415 49.9076937,27.3032748 C49.5668152,26.9581869 49.3470382,26.363869 49.3470382,24.9857732 L49.3470382,19.6910432 C49.3470382,19.282802 49.4412284,19.0335719 49.8460216,19.0335719 L55.203645,19.0335719 C55.6084382,19.0335719 55.701507,19.282802 55.701507,19.6910432 L55.701507,24.9857732 C55.701507,26.363869 55.4839727,26.9581869 55.1408516,27.3032748 C54.673265,27.7735415 53.739213,27.9291694 53.490282,28.180655 C53.3960919,28.2753849 53.3658165,28.3994361 53.3658165,28.5877684 C53.3658165,29.4008675 53.490282,30.2173498 53.6147475,30.341401 C53.739213,30.4677077 53.9264719,30.4981566 54.3312651,30.4981566 L63.0830966,30.4981566 C63.4878898,30.4981566 63.6740274,30.4677528 63.7996143,30.341401 C63.9240798,30.2173498 64.0496666,29.4008675 64.0496666,28.5877684 C64.0496666,28.3994361 64.0171934,28.2753849 63.9240798,28.180655 C63.7065455,27.9618738 62.7399755,27.7735415 62.2723888,27.3032748 C61.9315103,26.9581869 61.7442514,26.3007157 61.7442514,25.2350033 L61.7442514,10.6071134 C61.7442514,9.8560399 61.9315103,9.35306875 62.2107167,9.07338972 C62.7097001,8.5715463 63.7065455,8.47681631 63.9240798,8.2569074 C64.0171486,8.16330514 64.0496666,7.97610063 64.0496666,7.81934504 C64.0496666,7.25547604 63.9240798,6.40967252 63.7996143,6.2844936 C63.6740274,6.15931468 63.5506833,6.12661028 63.0830966,6.12661028 L54.6418683,6.12661028 C54.2998684,6.12661028 54.1754029,6.15926957 54.0823341,6.25404468 C53.9892653,6.34764693 53.8950752,7.0051182 53.8950752,7.85092171 C53.8950752,8.00654956 53.9264719,8.1948818 53.9892653,8.2569074 C54.1440062,8.41479072 54.9233173,8.66514856 55.2350417,8.97865973 C55.5770415,9.32374756 55.701507,9.69928432 55.701507,10.763869 L55.701507,14.9297332 C55.701507,15.0864888 55.5456448,15.30527 55.3281105,15.30527 L49.7215561,15.30527 C49.5029005,15.30527 49.3470382,15.0864888 49.3470382,14.9297332 L49.3470382,10.763869 C49.3470382,9.69928432 49.4715038,9.32374756 49.8146249,8.97865973 C50.1263493,8.66514856 50.9045391,8.41479072 51.0604013,8.2569074 C51.1231947,8.19483669 51.1545914,8.00654956 51.1545914,7.85092171 C51.1545914,7.0051182 51.0604013,6.34764693 50.9673325,6.25404468 C50.8742637,6.15931468 50.7486769,6.12661028 50.406677,6.12661028 L41.96657,6.12661028 C41.4989833,6.12661028 41.3745178,6.15926957 41.248931,6.2844936 C41.1255868,6.40967252 41,7.25547604 41,7.81934504 C41,7.97610063 41.0313967,8.16330514 41.1255868,8.2569074 C41.3431211,8.47681631 42.3399665,8.5715463 42.8378285,9.07338972 C43.1181563,9.35306875 43.3054152,9.8560399 43.3054152,10.6071134 L43.3054152,25.2350033 C43.3054152,26.3007157 43.1181563,26.9581869 42.7761564,27.3032748 C42.3085698,27.7735415 41.3431211,27.9618738 41.1255868,28.180655 C41.0313967,28.2753849 41,28.3994361 41,28.5877684 C41,29.4008675 41.1255868,30.2173498 41.248931,30.341401 C41.3745178,30.4677077 41.4989833,30.4981566 41.96657,30.4981566 L50.7184015,30.4981566 C51.1231947,30.4981566 51.3093323,30.4677528 51.4349191,30.341401 C51.5593846,30.2173498 51.6816075,29.4008675 51.6816075,28.5877684 M80.6181563,28.1490783 C81.5208115,27.2412492 81.7405885,26.7078291 81.7405885,26.269139 C81.7405885,25.7988723 81.6150016,25.4233355 81.2416051,25.0477987 C80.8356906,24.6406853 80.4948121,24.577532 80.1819663,24.577532 C79.7457764,24.577532 79.5585175,24.7027109 79.2793111,24.9857732 C77.9090692,26.363869 76.1643094,27.1149425 74.0461532,27.1149425 C71.8977215,27.1149425 70.557755,25.6748211 70.557755,24.7647365 C70.557755,24.5155064 70.7764106,24.2955975 71.3359447,24.1388419 C77.317017,22.2589026 79.8085698,21.0071134 80.7426218,20.0665799 C81.2718805,19.5658642 81.4894148,18.9704186 81.4894148,18.4381262 C81.4894148,16.0574713 78.0649314,11.8295814 72.8003768,11.8295814 C70.6205484,11.8295814 68.4093233,12.7047061 66.7587537,14.3658642 C65.1081841,16.0270223 64.079942,18.3749729 64.079942,21.5709824 C64.079942,24.6406853 65.0453907,26.7709824 66.727357,28.4625895 C68.4093233,30.1541965 70.8380827,31 73.486619,31 C76.1957061,31 78.7500523,30.0290176 80.6181563,28.1490783 M90.3668331,12.8930384 C90.3668331,12.4870527 90.1481775,12.3291694 89.8061777,12.3291694 L83.79483,12.3291694 C83.4517089,12.3291694 83.3283647,12.3291694 83.2330533,12.455476 C83.1097091,12.580655 82.9863649,13.4264585 82.9863649,13.9914552 C82.9863649,14.1470831 83.0480818,14.2711342 83.1097091,14.3658642 C83.3283647,14.6477987 83.79483,14.741401 84.2007446,15.0864888 C84.479951,15.3684233 84.6055378,15.963869 84.6055378,16.8716981 L84.6055378,25.2350033 C84.6055378,26.3007157 84.479951,26.9897636 84.1682265,27.3032748 C83.7006399,27.7735415 82.9224501,27.9923227 82.7049158,28.2111039 C82.6431989,28.2753398 82.611847,28.3994361 82.611847,28.619345 C82.611847,29.4335719 82.7363125,30.2173498 82.860778,30.341401 C82.9549682,30.4350033 83.1097091,30.4981566 83.4517089,30.4981566 L91.4578686,30.4981566 C91.7998684,30.4981566 91.9557306,30.4350033 92.0487994,30.341401 C92.173265,30.2173498 92.2663338,29.4335719 92.2663338,28.619345 C92.2663338,28.3994361 92.2361032,28.2753849 92.173265,28.2111039 C91.9557306,27.9923227 91.239213,27.7735415 90.7716263,27.3032748 C90.4610232,26.9897636 90.3668331,26.3007157 90.3668331,25.2350033 L90.3668331,12.8930384 L90.3668331,12.8930384 Z M87.0342972,5 C85.3220554,5 83.9192955,6.34764693 83.9192955,8.03925396 C83.9192955,9.76130991 85.3220554,11.1089568 87.0342972,11.1089568 C88.7790569,11.1089568 90.1806955,9.76130991 90.1806955,8.03925396 C90.1806955,6.34764693 88.7790569,5 87.0342972,5 M111.172757,17.1852093 C111.172757,13.6768163 109.366325,11.891607 106.531651,11.891607 C105.191684,11.891607 103.75977,12.3291694 102.326735,13.2076773 C101.828873,13.5211885 101.673011,13.6147907 101.548545,13.6147907 C101.049562,13.6147907 101.392683,12.3291694 100.488906,12.3291694 L95.0079389,12.3291694 C94.6648177,12.3291694 94.5717489,12.3291694 94.4472834,12.455476 C94.2914212,12.6122316 94.1669557,13.4264585 94.1669557,13.9914552 C94.1669557,14.1470831 94.1983524,14.2711342 94.2914212,14.3658642 C94.5403522,14.6173498 95.0079389,14.7109521 95.3813354,15.0864888 C95.6627844,15.3684233 95.7850073,15.963869 95.7850073,16.8716981 L95.7850073,25.2350033 C95.7850073,26.3007157 95.6919385,26.9897636 95.3813354,27.3032748 C94.9451455,27.7408371 94.1983524,27.9923227 93.9796968,28.2111039 C93.9180696,28.2753398 93.8855067,28.3994361 93.8855067,28.619345 C93.8855067,29.4335719 93.9796968,30.2173498 94.1052836,30.341401 C94.1983524,30.4350033 94.38449,30.4981566 94.7276112,30.4981566 L102.576787,30.4981566 C102.950184,30.4981566 103.073528,30.4350033 103.166597,30.341401 C103.32358,30.1846454 103.449167,29.4335719 103.449167,28.619345 C103.449167,28.3994361 103.416694,28.2753849 103.353856,28.2111039 C103.106046,27.9618738 102.389528,27.7408371 101.953339,27.3032748 C101.641614,26.9897636 101.486873,26.3007157 101.486873,25.2350033 L101.486873,19.0651486 C101.486873,16.527738 102.886269,15.7450878 103.915633,15.7450878 C104.97415,15.7450878 105.566202,16.527738 105.566202,18.1866406 L105.566202,26.8657124 C105.566202,29.1832141 107.030634,30.7169378 109.678049,30.7169378 C112.604671,30.7169378 113.850447,28.5877684 113.850447,28.1490783 C113.850447,27.7735415 113.259516,27.0213403 112.88612,27.0213403 C112.448808,27.0213403 111.826481,27.5852093 111.514756,27.5852093 C111.297222,27.5852093 111.172757,27.4284537 111.172757,26.927738 L111.172757,17.1852093 L111.172757,17.1852093 Z M168.886628,28.1490783 C169.789283,27.2412492 170.006818,26.7078291 170.006818,26.269139 C170.006818,25.7988723 169.883473,25.4233355 169.510077,25.0477987 C169.104162,24.6406853 168.75992,24.577532 168.450438,24.577532 C168.014248,24.577532 167.826989,24.7027109 167.546661,24.9857732 C166.17642,26.363869 164.432781,27.1149425 162.314625,27.1149425 C160.166193,27.1149425 158.826227,25.6748211 158.826227,24.7647365 C158.826227,24.5155064 159.043761,24.2955975 159.604416,24.1388419 C165.584367,22.2589026 168.07592,21.0071134 169.011094,20.0665799 C169.540352,19.5658642 169.757887,18.9704186 169.757887,18.4381262 C169.757887,16.0574713 166.332282,11.8295814 161.068848,11.8295814 C158.886778,11.8295814 156.676674,12.7047061 155.024983,14.3658642 C153.375534,16.0270223 152.347292,18.3749729 152.347292,21.5709824 C152.347292,24.6406853 153.312741,26.7709824 154.994707,28.4625895 C156.676674,30.1541965 159.106554,31 161.752848,31 C164.463057,31 167.018524,30.0290176 168.886628,28.1490783 M164.245522,18.4697029 C164.245522,19.6290176 163.74766,19.9741054 161.878435,20.6304489 C160.383728,21.1954457 159.23102,21.4458035 158.886778,21.4458035 C158.265571,21.4458035 157.984122,20.9755368 157.984122,20.0045543 C157.984122,17.6870527 158.638968,14.8677077 161.068848,14.8677077 C163.310349,14.8677077 164.245522,17.3115159 164.245522,18.4697029 M130.607317,28.1490783 C131.509972,27.2412492 131.729749,26.7078291 131.729749,26.269139 C131.729749,25.7988723 131.604162,25.4233355 131.230766,25.0477987 C130.825973,24.6406853 130.483973,24.577532 130.172248,24.577532 C129.733816,24.577532 129.548799,24.7027109 129.268472,24.9857732 C127.89823,26.363869 126.15347,27.1149425 124.035314,27.1149425 C121.886882,27.1149425 120.546916,25.6748211 120.546916,24.7647365 C120.546916,24.5155064 120.765571,24.2955975 121.326227,24.1388419 C127.306178,22.2589026 129.79773,21.0071134 130.731782,20.0665799 C131.262162,19.5658642 131.479697,18.9704186 131.479697,18.4381262 C131.479697,16.0574713 128.054092,11.8295814 122.789537,11.8295814 C120.609709,11.8295814 118.398484,12.7047061 116.747914,14.3658642 C115.097345,16.0270223 114.069103,18.3749729 114.069103,21.5709824 C114.069103,24.6406853 115.034551,26.7709824 116.715396,28.4625895 C118.398484,30.1541965 120.828365,31 123.47578,31 C126.184867,31 128.739213,30.0290176 130.607317,28.1490783 M125.967332,18.4697029 C125.967332,19.6290176 125.468349,19.9741054 123.600245,20.6304489 C122.104416,21.1954457 120.95283,21.4458035 120.609709,21.4458035 C119.98626,21.4458035 119.707054,20.9755368 119.707054,20.0045543 C119.707054,17.6870527 120.360778,14.8677077 122.789537,14.8677077 C125.032159,14.8677077 125.967332,17.3115159 125.967332,18.4697029 M188.320067,17.1852093 C188.320067,13.6768163 186.514756,11.891607 183.681204,11.891607 C182.341237,11.891607 180.908202,12.3291694 179.476288,13.2076773 C178.977305,13.5211885 178.820321,13.6147907 178.698098,13.6147907 C178.199115,13.6147907 178.541115,12.3291694 177.638459,12.3291694 L172.157492,12.3291694 C171.814371,12.3291694 171.720181,12.3291694 171.595715,12.455476 C171.439853,12.6122316 171.315387,13.4264585 171.315387,13.9914552 C171.315387,14.1470831 171.346784,14.2711342 171.439853,14.3658642 C171.689905,14.6173498 172.157492,14.7109521 172.530888,15.0864888 C172.810095,15.3684233 172.935682,15.963869 172.935682,16.8716981 L172.935682,25.2350033 C172.935682,26.3007157 172.841491,26.9897636 172.530888,27.3032748 C172.093577,27.7408371 171.346784,27.9923227 171.12925,28.2111039 C171.066456,28.2753398 171.03506,28.3994361 171.03506,28.619345 C171.03506,29.4335719 171.12925,30.2173498 171.251473,30.341401 C171.346784,30.4350033 171.534043,30.4981566 171.876043,30.4981566 L179.724098,30.4981566 C180.098616,30.4981566 180.223081,30.4350033 180.317271,30.341401 C180.473133,30.1846454 180.596478,29.4335719 180.596478,28.619345 C180.596478,28.3994361 180.566247,28.2753849 180.503409,28.2111039 C180.254478,27.9618738 179.53796,27.7408371 179.10177,27.3032748 C178.790046,26.9897636 178.633062,26.3007157 178.633062,25.2350033 L178.633062,19.0651486 C178.633062,16.527738 180.035822,15.7450878 181.064064,15.7450878 C182.123703,15.7450878 182.714634,16.527738 182.714634,18.1866406 L182.714634,26.8657124 C182.714634,29.1832141 184.179066,30.7169378 186.826481,30.7169378 C189.754224,30.7169378 191,28.5877684 191,28.1490783 C191,27.7735415 190.407948,27.0213403 190.034551,27.0213403 C189.598361,27.0213403 188.976034,27.5852093 188.664309,27.5852093 C188.445654,27.5852093 188.320067,27.4284537 188.320067,26.927738 L188.320067,17.1852093 Z M139.420821,5.56386901 L133.441991,5.56386901 C133.067473,5.56386901 132.911611,5.56386901 132.819663,5.72175233 C132.694076,5.87738018 132.599886,6.6611581 132.599886,7.19345044 C132.599886,7.38065496 132.63236,7.50583388 132.694076,7.6310128 C132.911611,7.85092171 133.753715,8.06970288 134.127112,8.44636738 C134.437715,8.75987855 134.594698,9.38577315 134.594698,11.7653004 L134.594698,24.2955975 C134.594698,26.3954457 134.377164,27.0529169 134.127112,27.3032748 C133.690922,27.7408371 132.944129,27.9923227 132.725473,28.2111039 C132.663846,28.2753398 132.632404,28.3994361 132.632404,28.619345 C132.632404,29.4335719 132.725473,30.2173498 132.849939,30.341401 C132.944129,30.4350033 133.067473,30.4981566 133.473388,30.4981566 L141.291167,30.4981566 C141.69596,30.4981566 141.819304,30.4350033 141.913495,30.341401 C142.03796,30.2173498 142.193822,29.4335719 142.193822,28.619345 C142.193822,28.3994361 142.163592,28.2753849 142.069357,28.2111039 C141.851823,27.9923227 141.103908,27.7408371 140.697994,27.3032748 C140.357115,26.9897636 140.231528,26.3007157 140.231528,25.2350033 L140.231528,24.5155064 C140.231528,24.108393 140.357115,23.9820863 141.042236,23.2930384 C141.352839,23.0122316 141.632046,22.7934504 141.851823,22.7934504 C142.163547,22.7934504 142.411357,23.0122316 145.838083,29.9658642 C146.055617,30.4045543 146.148686,30.4981566 146.709341,30.4981566 L151.785516,30.4981566 C152.160033,30.4981566 152.28562,30.4350033 152.378689,30.341401 C152.503155,30.2173498 152.62762,29.4335719 152.62762,28.619345 C152.62762,28.3994361 152.59739,28.2753849 152.53343,28.2111039 C152.315896,27.9923227 151.008447,27.8355671 150.728119,27.3032748 C146.212601,19.6290176 146.087014,19.377532 146.087014,18.908393 C146.087014,18.5012795 148.080704,16.4972891 149.731274,15.1812188 C150.790913,14.3354153 151.474913,14.8981566 151.474913,13.8967252 C151.474913,12.7374105 151.320172,12.3291694 151.101516,12.3291694 L143.565186,12.3291694 C142.91034,12.3291694 142.848668,12.7047061 142.848668,14.1155064 C142.848668,14.5846454 144.156116,14.6477987 144.156116,15.30527 C144.156116,15.869139 140.979443,18.9399696 140.450184,18.9399696 C140.262925,18.9399696 140.231528,18.8147907 140.231528,18.2813706 L140.231528,6.44124919 C140.231528,5.93940577 139.888407,5.56386901 139.420821,5.56386901" id="path50" fill="#00A650"></path>
                    <polygon id="path3239" fill="#FF0000" points="17.5 0 21.665231 12.5584488 35 12.6048592 24.2394841 20.4128488 28.3155943 33 17.5 25.2671607 6.68440569 33 10.7605235 20.4128488 0 12.6048592 13.3347766 12.5584488"></polygon>
                    <path d="M187.5,4 C188.100086,4 188.6758,4.15078881 189.227157,4.45234588 C189.778493,4.75088017 190.211047,5.1803805 190.524809,5.74085716 C190.841593,6.30135437 191,6.88773018 191,7.5 C191,8.10922649 190.844646,8.6910373 190.533939,9.24542729 C190.226274,9.79677395 189.795252,10.2277959 189.240862,10.5385138 C188.689516,10.8461679 188.109226,11 187.5,11 C186.890774,11 186.308963,10.8461679 185.754573,10.5385138 C185.203226,10.2277959 184.772204,9.79677395 184.461486,9.24542729 C184.153832,8.6910373 184,8.10922649 184,7.5 C184,6.88773018 184.156875,6.30135437 184.470626,5.74085716 C184.787431,5.1803805 185.221496,4.75088017 185.772853,4.45234588 C186.3242,4.15078881 186.899914,4 187.5,4 M187.505146,4.68537659 C187.023847,4.68537659 186.562361,4.80571153 186.120677,5.04634029 C185.678993,5.28698961 185.330213,5.63272638 185.074327,6.08355059 C184.821494,6.53438508 184.695082,7.00652289 184.695082,7.49999486 C184.695082,7.9904235 184.81845,8.45800659 185.065197,8.90274414 C185.314976,9.34747141 185.662234,9.69472984 186.106972,9.94450915 C186.551699,10.1942987 187.017761,10.3191781 187.505146,10.3191781 C187.995564,10.3191781 188.461626,10.1942987 188.90331,9.94450915 C189.348047,9.69472984 189.695306,9.34747141 189.945085,8.90274414 C190.194864,8.45800659 190.319764,7.9904235 190.319764,7.49999486 C190.319764,7.00652289 190.191821,6.53438508 189.935955,6.08355059 C189.683122,5.63272638 189.334332,5.28698961 188.889604,5.04634029 C188.44791,4.80571153 187.986424,4.68537659 187.505146,4.68537659 M185.919632,9.37336028 L185.919632,5.65861526 L186.673545,5.65861526 C187.380246,5.65861526 187.776239,5.66169971 187.861534,5.66786863 C188.111314,5.68925419 188.30474,5.73953084 188.441834,5.81864716 C188.58194,5.89483324 188.6977,6.01360539 188.789082,6.17505614 C188.883466,6.33345328 188.93072,6.51013097 188.93073,6.70507893 C188.93072,6.97313879 188.842412,7.20312617 188.665714,7.39502051 C188.49208,7.5838818 188.246865,7.70116313 187.930071,7.74684394 C188.042777,7.78951226 188.129594,7.83670445 188.190512,7.88849248 C188.251482,7.9372269 188.335214,8.03166268 188.441834,8.17178956 C188.469183,8.20828896 188.560626,8.3591189 188.71597,8.62413543 L189.154611,9.37348366 L188.222498,9.37348366 L187.911801,8.77034897 C187.701616,8.36521585 187.527981,8.11086125 187.390918,8.00728519 C187.253835,7.90067608 187.0802,7.84737667 186.870025,7.84737667 L186.673545,7.84737667 L186.673545,9.37348366 L185.919632,9.37348366 M186.673545,7.26251225 L186.979688,7.26251225 C187.415275,7.26252253 187.684857,7.24575336 187.788433,7.2122356 C187.895042,7.17871784 187.978805,7.12083286 188.039734,7.03861152 C188.1006,6.95327489 188.131136,6.85736884 188.131136,6.75074945 C188.131136,6.64718367 188.100703,6.5558015 188.039734,6.47660293 C187.981849,6.39435074 187.898085,6.33647605 187.788433,6.30296857 C187.67877,6.26646916 187.409188,6.24806524 186.979688,6.24806524 L186.673545,6.24806524 L186.673545,7.26240943" id="path4083" fill="#00A650"></path>
                </g>
            </g>
        </g>
    </g>
</svg>