<?xml version="1.0" encoding="UTF-8"?>
<svg width="133px" height="43px" viewBox="0 0 133 43" version="1.1" xmlns="http://www.w3.org/2000/svg" xmlns:xlink="http://www.w3.org/1999/xlink">
    <title>Group 12</title>
    <defs>
        <filter color-interpolation-filters="auto" id="filter-1">
            <feColorMatrix in="SourceGraphic" type="matrix" values="0 0 0 0 0.592157 0 0 0 0 0.592157 0 0 0 0 0.592157 0 0 0 1.000000 0"></feColorMatrix>
        </filter>
    </defs>
    <g id="Page-1" stroke="none" stroke-width="1" fill="none" fill-rule="evenodd">
        <g id="Group-7" transform="translate(-1311.785000, -48.000000)">
            <g id="Coca-Cola_logo" transform="translate(-0.000000, 48.000000)" filter="url(#filter-1)">
                <g transform="translate(1312.656234, 0.000000)" id="Group-12" fill-rule="nonzero">
                    <path d="M50.5040277,37.5101295 C45.6102659,34.3623674 38.9688025,33.8099988 28.2580268,36.7771947 C16.8395233,39.4564695 13.0324238,41.1739828 8.03262615,37.7261524 C6.11181478,36.032441 5.42315689,33.3053982 5.93738985,29.3772616 C7.13008812,22.9737259 10.3532504,16.8113282 16.0785308,9.97574676 C19.2740744,6.41990491 22.2384762,3.36833535 26.1525979,2.14294714 C29.1525094,1.37422739 28.8720486,3.72831879 28.5090606,4.06499276 C28.1260163,4.06499276 27.4825675,4.12523623 26.9852674,4.44927056 C26.5816734,4.76181432 25.4738038,5.77101549 25.4142922,7.12854536 C25.3284771,9.2066987 27.4822387,8.77416046 28.4112446,7.63314594 C29.412585,6.34735011 30.8924844,3.88508312 29.7283912,1.59025028 C29.2404617,0.773434241 28.3974353,0.208918494 27.3507213,0.0166975174 C23.7665438,-0.187834794 20.4286326,1.51818793 17.347838,3.40428445 C10.6105312,8.07750306 5.22111331,14.552937 2.171554,21.6409829 C0.41349539,25.9176123 -1.17654976,32.0437326 1.2067096,37.0298233 C3.05058331,40.4894726 6.87823233,42.3271445 11.445009,41.9428667 C14.6479505,41.6068493 18.520973,40.5731896 21.1258392,39.949087 C23.7308697,39.3238354 37.0647596,34.7473018 41.4459324,42.7127355 C41.4459324,42.7127355 42.9028162,39.8888436 46.5437105,39.8286001 C49.5370461,39.5528262 53.8554194,40.6938407 57,43 C55.9522997,41.4267755 52.9819796,39.1081408 50.5040277,37.5101295 Z" id="Path" fill="#E61A27"></path>
                    <path d="M29.7969951,10.7730661 C27.2956729,9.13785101 22.2682955,12.2640314 18.2416118,17.6264133 C14.5593753,22.4364398 12.9693786,28.0268614 14.6998583,30.6120227 C17.2737304,33.6539204 22.0522947,29.2293269 24.0843511,26.8610333 L24.34652,26.5841984 C25.7284304,25.1052266 26.7959031,23.3255973 27.8294092,21.6179286 C27.8294092,21.6179286 28.7791532,20.0548384 28.8244969,19.9825492 C29.4114914,19.8747725 30.1185231,19.7063715 30.9152527,19.477839 C30.9038756,19.513655 27.8670033,24.5998592 28.1768242,27.1243961 C28.2732826,27.894605 28.1997434,30.7081345 30.9564742,31.5616402 C34.6307963,32.1752772 37.5647797,29.3372679 40.1531618,26.8122381 C40.1531618,26.8122381 40.5942321,26.3918105 40.8437048,26.1517774 C40.7805534,26.4034754 40.6982753,26.739456 40.6982753,26.739456 C39.6225583,30.4669513 41.0725667,31.2491536 41.9796052,31.5376533 C44.7208367,32.3318491 47.9956397,28.3636635 48.0063573,28.3636635 C47.9212761,29.6136099 47.6731225,30.6475101 48.9955091,31.4773576 C50.243532,31.9225935 51.5067245,31.2437319 52.4670212,30.6064367 C55.9255073,28.1778473 58.7117527,24.3764198 60.9621183,21.0907102 L59.5266199,21.0907102 C59.5096366,21.0907102 55.9845365,26.1818432 53.6954227,27.2883612 C53.6917952,27.2883612 53.275128,27.5014501 53.0352187,27.3328848 C52.737929,27.0803654 52.8551631,26.5551185 53.0386813,26.1831575 C53.0502233,26.1590064 61.8772362,10.9045011 61.8772362,10.9045011 L57.709575,10.9045011 C57.709575,10.9045011 57.2543244,11.638401 57.217225,11.6865391 C57.1891944,11.6625522 57.1224155,11.5363747 57.0762474,11.4759146 C54.494131,7.91698456 48.6467749,13.3912505 44.2444808,19.7395588 C42.5496165,22.1806345 40.391752,24.9291038 38.1542475,26.9129501 C38.1542475,26.9129501 34.8393772,29.9405543 33.4231704,27.7653058 C32.905428,26.85134 33.064708,25.5151394 33.3567213,24.6376468 C35.0057473,19.9602053 37.8472296,15.7153491 41.080811,13.1541747 C41.9934556,12.4452474 42.9857402,12.2402088 43.4779253,12.5408663 C43.9471911,12.8178655 44.0228738,13.5026416 43.7260788,13.9717001 C42.973044,13.9477132 42.3695608,14.1757529 41.8791896,14.6807917 C40.912957,15.6908693 40.5772488,16.6649666 40.8844317,17.5789325 C42.3768158,19.6950352 45.353175,15.5106391 45.2092294,12.9616225 C45.1577849,12.0476566 44.6685678,11.1821574 43.9381224,10.7609084 C42.8497092,10.1119483 41.1893061,10.2800208 40.1147433,10.7973816 C38.676112,11.3382365 36.3991998,13.2258067 35.0700529,14.6929494 C33.3967886,16.5328745 30.5269459,18.5766881 29.6296357,18.3478269 C29.9229681,17.5661175 32.3469588,12.6244918 29.7969951,10.7730661 L29.7969951,10.7730661 Z M49.8901811,18.0834784 C50.7009261,16.9654598 53.0606112,13.9713715 53.6358988,13.466497 C55.5706724,11.7704932 56.3439882,12.5167151 56.410932,13.0454122 C54.6052642,16.2677045 52.4741113,19.9592195 50.4704153,23.2779521 C50.4745374,23.266123 49.8433534,24.227734 49.8433534,24.227734 C48.9584097,25.5739565 48.0673652,26.7284483 46.6138941,27.533816 C46.4066323,27.5944404 46.0649883,27.6185915 45.8376103,27.4495333 C45.5638994,27.2691389 45.455899,26.9684814 45.4867327,26.6558305 C45.5739574,25.6220946 46.6302179,22.4604267 49.8901811,18.0834784 L49.8901811,18.0834784 Z M27.2175169,20.0191867 C27.2175169,20.0191867 27.181077,20.1277848 27.1632693,20.1632723 C27.1586525,20.1632723 25.3460596,23.1087296 25.3460596,23.1087296 C24.2522051,24.5638789 22.8864535,26.3919748 21.1792227,27.2693032 C20.6731873,27.4375399 19.9735755,27.546138 19.6170918,27.1015593 C18.8614187,26.1995869 19.2508797,24.9489833 19.5672961,23.9392343 L19.6794187,23.5784453 C20.5866221,21.125869 22.0259129,18.9611353 23.427115,16.9531378 C23.444593,16.9413086 23.4838359,16.9293152 23.4980161,16.9293152 C23.5014787,16.9413086 23.5070848,16.9413086 23.5093932,16.9654598 C24.3885659,18.6484844 26.0370972,19.4297009 27.2699507,19.7909828 C27.2773705,19.7909828 27.285451,19.8029762 27.285451,19.8271274 C27.2856148,19.8629434 27.2654987,19.91141 27.2175169,20.0191867 L27.2175169,20.0191867 Z M28.9346408,16.5447036 C28.9265614,16.5686905 28.1273584,18.3962936 28.1273584,18.3962936 C28.0117733,18.4924054 27.8290794,18.4444316 27.6196741,18.3962936 L27.2608819,18.3358335 C26.1342151,17.9873666 25.2843922,17.2418018 25.0223881,16.3521514 C24.6611227,14.6206602 26.1455923,13.2619513 26.7995306,12.7692345 C27.4270871,12.3359921 28.4027182,12.1076238 28.9692669,12.5526955 C29.3186605,12.9616225 29.4510642,13.4904839 29.4510642,14.0679762 C29.451229,14.8491927 29.2091762,15.7268496 28.9346408,16.5447036 Z M81.6223476,22.123296 C81.2203553,21.2577969 80.2664891,20.70462 79.2498014,20.7645872 C75.9482869,21.0654089 72.7189924,23.7706689 71.0233037,27.654079 C70.1335783,29.6502474 69.6479887,31.2972917 69.3295936,33.9184333 C70.3563394,32.7404475 72.450393,30.8047392 74.8267315,29.7465235 C74.8267315,29.7465235 75.1500732,27.2336514 76.7989343,24.9971214 C77.4228633,24.0709978 78.6713809,22.5801968 80.0734075,22.9768018 C81.2985113,23.3857288 80.8678288,26.7645929 79.2397433,30.034366 C78.0350854,32.4394614 76.1916587,34.8448854 74.3264671,36.5037589 C72.6774411,37.898448 70.2376214,39.5818012 68.1030059,38.2833882 C66.7585245,37.4901782 66.0727632,35.830319 66.2175332,33.6902293 C66.8599295,27.6184273 69.6339734,22.4481047 73.6036064,16.5565328 C77.6967391,11.0857171 82.2086826,5.47065145 88.2868792,2.47623457 C89.5266578,1.85109706 90.6747598,1.70684719 91.6672092,2.09162303 C91.6672092,2.09162303 85.9614904,5.21780345 83.241694,11.0014344 C82.5498319,12.4685771 81.5875566,14.4519306 82.5565923,16.207573 C83.0629575,17.1212102 83.9619166,17.1934994 84.6859315,17.1453614 C88.0197637,16.3756454 90.1736709,13.2736162 91.9335003,10.4362641 C92.9538155,8.28401667 93.8606891,6.14376271 93.8606891,3.76298278 C93.8606891,3.47448306 93.8456845,3.08987152 93.8212814,2.8010432 C95.4139163,1.95969519 98.6801452,3.45033188 98.6801452,3.45033188 C101.232417,4.29233707 106.666898,8.44075286 108.500102,9.23396282 C109.39428,8.2000626 110.863745,6.63713668 111.691308,5.85542728 L110.49341,5.12185593 C108.575785,3.95553499 106.54884,2.84918125 104.553883,1.75514954 C100.022978,-0.709420174 96.3348052,0.15607901 94.4579066,0.829518865 C93.7202062,1.09386742 93.0461518,1.32239995 93.0461518,1.32239995 C91.6531939,-0.19255221 89.368532,-0.0486309336 87.6852098,0.360460366 C81.6315812,2.09178732 76.0111085,6.31199946 69.9853457,13.6347337 C65.5551857,19.3702266 62.8071939,24.3241744 61.3425106,29.2176621 C60.2135354,32.5120792 59.8704074,37.3575932 62.625984,40.2314185 C64.9688507,42.6716727 68.0754699,42.1429756 70.2691147,41.2656473 C75.0222865,38.9330054 79.2943206,33.9067684 81.4230003,28.1231375 C81.9367854,26.4039683 82.5067967,23.9752146 81.6223476,22.123296 L81.6223476,22.123296 Z M92.552153,4.00367305 C91.9229476,11.1939866 86.3136871,15.4146916 84.9256759,15.7508365 C84.0845918,15.918909 82.6494231,15.5464552 83.9307531,12.5288729 C85.8173799,8.46441115 89.0387598,5.01391498 92.4947726,3.24627911 C92.5790294,3.54693658 92.576721,3.73883161 92.552153,4.00367305 L92.552153,4.00367305 Z M125.82584,4.91714599 C122.808589,6.62481465 119.680699,7.73067551 115.894585,7.34606397 C114.845414,8.52470694 113.823615,9.73900163 112.88195,10.9892767 C118.196065,12.3359921 123.829728,9.34206807 126.971798,6.49272252 C130.295737,3.61889721 132,0 132,0 C132,0 129.508571,2.83735211 125.82584,4.91714599 Z M68.8039367,10.9048297 L64.8460106,10.9048297 L62.6134527,14.519291 L66.5705544,14.519291 L68.8039367,10.9048297 Z" id="Shape" fill="#979797"></path>
                    <path d="M115.768149,37.8061026 C115.337606,38.0978629 114.732745,37.8735597 114.958776,37.2049701 C115.522268,35.5025921 117.761889,32.0333696 117.761889,32.0333696 L124,21.0132715 L119.727104,21.0132715 C119.523927,21.3455725 119.089714,22.1085356 119.089714,22.1085356 C118.892042,21.7805545 118.300859,21.0513199 118.05748,20.8936431 C117.013569,20.2365179 115.482066,20.5472193 114.425477,21.1428688 C109.831634,23.8183904 106.479876,29.1044686 103.836402,33.2268287 C103.836402,33.2268287 101.053807,37.8092595 99.5092922,38.1500342 C98.3034064,38.2473984 98.4278483,36.6294248 98.4800605,36.2524293 C98.9463008,33.5282257 100.029079,30.9384378 101.119864,28.591562 C103.338801,27.0594882 105.870844,25.0532209 108.172019,22.8523914 C113.166045,18.0974963 117.376219,12.7107309 117.991589,11.5069705 C117.991589,11.5069705 117.325508,11.6408878 116.538988,11.6649796 C112.696968,17.003063 104.834773,24.7612945 102.451193,25.9162066 C103.507115,23.3863991 110.329402,11.3122421 116.134802,5.53651841 L117.048433,4.66073911 C118.461166,3.28667447 119.924777,1.87622286 121.065439,1.64510751 C121.185877,1.63297853 121.341013,1.64510751 121.474963,1.92523726 C121.525841,2.99508034 121.125992,3.78562442 120.667258,4.68532939 L120.024364,5.9987491 C120.024364,5.9987491 120.934992,5.82844484 121.53318,5.63338415 C122.226953,4.33292417 122.995623,2.87329202 122.712209,1.13485932 C122.617794,0.575430587 122.211105,0.149919153 121.679808,0.0525549589 C119.947964,-0.275758432 118.06065,1.00060972 116.541824,2.03456429 L116.480604,2.0707851 C108.673457,8.16285938 102.081203,16.9422519 96.3175065,28.9318382 C95.8998086,29.2475242 94.2859001,29.6248519 94.0116607,29.4422525 C94.5808241,28.2752114 95.2974496,26.7062522 95.6559291,25.0038742 C95.7179833,24.5172194 95.7757003,24.0191002 95.7757003,23.5327777 C95.7757003,22.4861957 95.5234802,21.5015878 94.5823254,20.8210353 C93.4786956,20.2737356 92.1146718,20.529275 91.194869,20.9423252 C87.0751068,22.6447032 83.9959194,26.8522985 81.7738133,30.3173672 C80.5787704,32.5188614 79.3872304,34.8767031 79.0572758,37.5766488 C78.8249063,39.692077 79.2979859,41.0541788 80.5057066,41.7352297 C81.747457,42.3671 83.3104878,41.7103071 83.9245237,41.394455 C88.0983331,39.2055883 91.0147118,34.8162244 93.3133846,30.8033574 C93.4047977,30.7913946 94.6598931,30.7551738 95.6093885,30.5115972 C95.6218994,30.5115972 95.6272374,30.5115972 95.6482557,30.5242246 C95.5938749,30.7059933 95.1032801,32.1656254 95.1032801,32.1656254 C93.6463419,36.4210721 92.9725872,39.3154138 94.3487883,41.0297547 C96.3153379,43.4495706 99.5711795,40.9450179 102.219658,37.6369614 C101.651161,41.6008139 103.713628,42.2213861 105.286001,41.9176629 C107.092077,41.4315066 109.104667,39.5098099 110.038648,38.525202 C109.73872,39.6801141 109.820124,41.747691 111.463225,41.9540499 C112.589208,42.1614057 113.43211,41.5513011 114.407128,41.0282593 C117.905014,39.1311529 122.092168,32.8096248 123.179284,30.9819692 L121.753873,30.9819692 C120.208357,33.3085747 118.241808,36.3584333 115.768149,37.8061026 L115.768149,37.8061026 Z M84.3710801,37.3827512 C84.1492198,37.0542716 84.0756556,36.6953865 84.0683159,36.307259 C84.0257788,33.9228331 86.60136,29.6530975 88.4191131,27.3269905 L88.4229498,27.3269905 C89.1846145,28.9884955 90.9097868,30.0565109 91.9511957,30.5066127 C90.6579003,33.3765303 86.2218621,39.5227696 84.3710801,37.3827512 L84.3710801,37.3827512 Z M92.681333,29.2235985 C92.5582255,29.3093321 90.3828269,28.5792668 89.9622932,26.5729995 C89.6056486,24.8456989 90.7998576,23.4960584 91.9551992,22.8158382 C92.4511321,22.4263815 93.1981173,22.2931288 93.7460956,22.4868603 C94.2547062,22.8279672 94.3924931,23.4364104 94.3924931,24.0918741 C94.3924931,24.4939583 94.3389463,24.9070085 94.2917385,25.2838378 L94.2813961,25.3692392 C93.9170464,26.7173418 93.3792341,28.0128669 92.681333,29.2235985 L92.681333,29.2235985 Z M110.129394,36.6167973 C110.127559,36.6167973 109.716534,36.9814977 109.716534,36.9814977 C109.129688,37.5042072 108.525828,38.0634698 107.796859,37.7836723 C107.595516,37.7108984 107.453893,37.4435622 107.419863,37.2362064 C107.386667,35.7405196 108.062757,34.3546583 108.718663,33.0050177 L108.88681,32.6522802 C110.773123,29.5151926 112.965703,25.8186763 116.185847,23.2533125 C116.728487,22.8633573 117.317334,22.5357085 117.938877,22.791248 C118.081835,22.924833 118.248313,23.1559483 118.248313,23.3867314 C118.248313,23.4600037 118.182923,23.6543998 118.14539,23.7150448 C117.245939,25.1627141 116.389525,26.6823266 115.556631,28.1414603 C113.928877,31.0233407 112.240237,34.0019208 110.129394,36.6167973 L110.129394,36.6167973 Z" id="Shape" fill="#E61A27"></path>
                </g>
            </g>
        </g>
    </g>
</svg>