<?xml version="1.0" encoding="UTF-8"?>
<svg width="99px" height="98px" viewBox="0 0 99 98" version="1.1" xmlns="http://www.w3.org/2000/svg" xmlns:xlink="http://www.w3.org/1999/xlink">
    <title>Group 13</title>
    <g id="Page-1" stroke="none" stroke-width="1" fill="none" fill-rule="evenodd">
        <g id="Group-7" transform="translate(-1530.785000, 0.000000)" fill-rule="nonzero">
            <g id="Group-13" transform="translate(1531.630481, 0.000000)">
                <rect id="Rectangle" fill="#D8D8D8" x="0" y="0" width="98" height="98"></rect>
                <path d="M74,70 C52.2835987,73.7300735 30.5388725,78.689959 8.85934236,84.9267103 C5.89401924,85.780093 2.94041676,86.654626 0,87.5493588 L0,95 C3.66489911,94.0192397 7.32979822,93.0018821 10.9924997,91.9486402 C32.6705647,85.7097501 53.6910528,78.3641479 74,70 Z" id="Path" fill="#FFFFFF"></path>
                <path d="M80,55 C59.1993421,59.395179 38.3843073,64.9212246 17.6406695,71.620738 C11.7074062,73.5365791 5.82628958,75.5337496 0,77.6103131 L0,84 C6.57973531,82.1132052 13.1553281,80.1097413 19.724098,77.9883982 C40.4670048,71.2888848 60.5751359,63.5967164 80,55 Z" id="Path" fill="#FFFFFF"></path>
                <path d="M86,42 C65.9663097,46.9120853 45.9343272,52.8801163 25.9855378,59.9401792 C17.2,63.0494066 8.53669026,66.3322838 0,69.7829983 L0,75 C9.37398902,72.1678372 18.7389512,69.1002664 28.0856158,65.7931703 C48.0344052,58.7323807 67.3530248,50.7754904 86,42 Z" id="Path" fill="#FFFFFF"></path>
                <path d="M92,28 C72.6405644,33.5259686 53.2943557,40.0509448 34.0422045,47.6037673 C22.4660277,52.1455175 11.1161768,56.9845298 0,62.1030571 L0,66 C12.0731629,62.078655 24.1304047,57.7636719 36.1533546,53.0476561 C55.4033014,45.4940941 74.0352609,37.1187479 92,28 Z" id="Path" fill="#FFFFFF"></path>
                <path d="M97,16 C78.4378051,21.9369362 59.8999904,28.7814111 41.4628665,36.5563789 C27.2759625,42.5394652 13.4493995,48.945393 0,55.7446843 L0,58 C14.5513897,53.0348744 29.0791305,47.5089401 43.5464081,41.4089079 C61.9820692,33.6336985 79.8138299,25.1391753 97,16 Z" id="Path" fill="#FFFFFF"></path>
                <path d="M98,5.94730304 L98,5 C81.62812,11.0882353 65.2876,17.8822468 49.03283,25.3920471 C32.14547,33.1958802 15.79025,41.5699512 0,50.4583351 L0,51 C17.082135,44.7119983 34.134135,37.658144 51.093525,29.8228074 C67.223835,22.3689318 82.86684,14.3936611 98,5.94730304 Z" id="Path" fill="#FFFFFF"></path>
                <path d="M6,42 C23.2938418,34.930087 40.5537502,27.0795057 57.713323,18.4367938 C69.4118111,12.5431266 80.844935,6.38923665 92,0 L86.1700418,0 C75.9912342,4.54938623 65.832689,9.37192098 55.7102743,14.4705309 C38.5533868,23.1134867 21.9711705,32.312251 6,42 Z" id="Path" fill="#FFFFFF"></path>
                <path d="M15,33 C31.78296,25.3106916 48.5357141,16.9001953 65.1904831,7.76137804 C69.8372862,5.21090175 74.4398855,2.62328379 79,0 L71.0300525,0 C68.4347975,1.38604821 65.8407703,2.79079024 63.2496902,4.21348817 C46.5954123,13.3527974 30.501295,22.9692909 15,33 Z" id="Path" fill="#FFFFFF"></path>
                <path d="M66,0 L59.1940181,0 C46.789327,7.76862489 34.7183079,15.7785872 23,24 C37.3681569,16.5329847 51.7182512,8.53373183 66,0 Z" id="Path" fill="#FFFFFF"></path>
                <path d="M57,0 L52.5986921,0 C45.6182913,4.93850254 38.7513095,9.94029621 32,15 C40.340928,10.1711679 48.6781004,5.17142418 57,0 Z" id="Path" fill="#FFFFFF"></path>
                <path d="M34.9618888,94.3434129 L40.2740223,70.8241354 L46.8206032,70.8248604 L43.9667888,83.3340757 L49.2545727,77.0617045 L56.5744358,77.0617045 L50.0059648,84.9033165 L52.713928,94.3436546 L46.1821044,94.3436546 L43.4825036,85.3992478 L41.3444179,94.3436546 L34.9618888,94.3436546 L34.9618888,94.3434129 Z M11.3234115,82.521541 L15.9360493,94.3431712 L22.2101123,94.3431712 L27.6169383,70.8238937 L21.1549658,70.8246188 L18.4197016,82.7881162 L13.8931481,70.8171266 L7.34164802,70.8171266 L2,94.3434129 L8.58863925,94.3434129 C9.33658803,90.5738997 10.3376244,86.5926732 11.3234115,82.521541 Z M31.826948,94.3434129 L35.7462389,77.07113 L29.3159946,77.07113 L25.3974415,94.3434129 L31.826948,94.3434129 Z M29.6455742,73.287116 C29.6455742,73.8292086 29.7751924,75.7455046 33.2943148,75.7455046 C36.2174885,75.7455046 37.3446997,73.904855 37.3446997,72.5306515 C37.3446997,71.6054931 36.5751069,70 33.6944833,70 C31.0411221,70.0002417 29.6455742,71.7434935 29.6455742,73.287116 Z M91.4916659,76.8381487 C88.7423823,76.0335895 85.3354153,77.3683988 83.6538218,79.655435 C83.8171359,78.9465819 83.9917638,78.1222048 84.1892656,77.1728781 L77.6643287,77.1728781 L73.8458792,94.3434129 L80.3393339,94.3434129 L82.5054585,84.6045976 C82.9036595,82.8122844 84.3702884,82.0463944 85.6691761,82.3762902 C86.2292153,82.5251663 86.999546,82.9411009 86.7444908,84.4344536 L84.5404892,94.3431712 L90.9574519,94.3431712 L93.8988263,81.1190608 C94.5220759,78.2046183 92.0861388,77.0131264 91.4916659,76.8381487 Z M69.6575136,92.7857728 C72.4764024,90.5207297 73.8704747,86.6910378 73.8257109,83.0878018 C73.7779956,79.6244997 70.7930873,76.3393171 65.6002419,76.3393171 C55.701296,76.3393171 54.2614761,83.9211211 53.9754306,85.3049919 C53.2506016,88.805513 54.0568417,93.3491334 58.7066186,94.5531928 C61.7746598,95.3490514 66.5722556,95.262771 69.6575136,92.7857728 Z M62.3956958,82.7750654 C62.8610425,81.5151775 64.127956,81.2362765 64.700539,81.2307178 C66.1194527,81.2188754 66.5078154,82.0456693 66.3843461,82.8246102 C66.0429607,84.9840383 65.2817304,87.7242281 65.0006039,88.5976666 C64.9971606,88.6092673 64.994947,88.6203847 64.9915036,88.6300519 C64.6823383,89.5839705 63.7676321,90.1393556 62.6908417,90.1393556 C61.6007697,90.1393556 60.9418566,89.4657881 61.0358113,88.6073338 C61.195682,87.158209 62.1293267,83.4950359 62.3956958,82.7750654 Z" id="Shape" fill="#979797"></path>
            </g>
        </g>
    </g>
</svg>