<svg id="Layer_1" data-name="Layer 1" xmlns="http://www.w3.org/2000/svg" xmlns:xlink="http://www.w3.org/1999/xlink" viewBox="0 0 269.98 304.62"><defs><style>.cls-1{fill:url(#linear-gradient);}.cls-2{fill:url(#linear-gradient-2);}.cls-3{mask:url(#mask);}.cls-4{fill:#141517;opacity:0.85;}.cls-5{fill:#46c777;}.cls-6{mask:url(#mask-2);}.cls-7{fill:#369156;}.cls-8{fill:#fff;}</style><linearGradient id="linear-gradient" x1="-248.1" y1="4341.82" x2="-248.1" y2="4543.33" gradientTransform="matrix(0, -1.33, -1.04, 0, 5570.23, 233.3)" gradientUnits="userSpaceOnUse"><stop offset="0" stop-color="#8a8a8a"/><stop offset="0.12" stop-color="#828282"/><stop offset="0.31" stop-color="#6c6c6c"/><stop offset="0.54" stop-color="#484848"/><stop offset="0.8" stop-color="#161616"/><stop offset="0.9"/></linearGradient><linearGradient id="linear-gradient-2" x1="-229.9" y1="4216.79" x2="-229.9" y2="4424.75" gradientTransform="matrix(0, -1.33, -1.07, 0, 5606.42, 219.98)" gradientUnits="userSpaceOnUse"><stop offset="0.55" stop-color="#8a8a8a"/><stop offset="0.6" stop-color="#828282"/><stop offset="0.67" stop-color="#6c6c6c"/><stop offset="0.76" stop-color="#484848"/><stop offset="0.86" stop-color="#161616"/><stop offset="0.9"/></linearGradient><mask id="mask" x="-13.25" y="31.62" width="285.46" height="285.69" maskUnits="userSpaceOnUse"><g transform="translate(-824.9 -387.66)"><rect class="cls-1" x="849.7" y="457.75" width="209.37" height="208.74" transform="translate(-9.62 1107.58) rotate(-60)"/></g></mask><mask id="mask-2" x="40.93" y="5.86" width="232.39" height="262.67" maskUnits="userSpaceOnUse"><g transform="translate(-824.9 -387.66)"><rect class="cls-2" x="870.74" y="454.94" width="222.57" height="139.84" transform="translate(36.48 1112.89) rotate(-60)"/></g></mask></defs><g id="_01" data-name="01"><g class="cls-3"><rect class="cls-4" x="859.22" y="469.39" width="188.74" height="188.22" transform="translate(-836.11 719.92) rotate(-60)"/></g><g id="_01-2" data-name="01"><circle class="cls-5" cx="1000.78" cy="481.77" r="94.11" transform="translate(-897.95 -189.71) rotate(-10.9)"/><g class="cls-6"><path class="cls-7" d="M1047.24,454.3,1029,456.8l-24,41.56,2.06-19.57-7.68-17.87-13.55-10-16.91,2.71-13.22,9.71-37.1,64.27a94.05,94.05,0,0,0,82.18,48.25,95.19,95.19,0,0,0,15.57-1.3l34.3-59.41-2-31.83Z" transform="translate(-824.9 -387.66)"/></g><g id="_01-3" data-name="01"><path class="cls-8" d="M980.23,448.27c-16.18,0-29.34,15-29.34,33.42s13.16,33.41,29.34,33.41,29.34-15,29.34-33.41S996.41,448.27,980.23,448.27ZM1003,481.69c0,14.78-10.2,26.81-22.74,26.81s-22.74-12-22.74-26.81,10.2-26.82,22.74-26.82S1003,466.9,1003,481.69Z" transform="translate(-824.9 -387.66)"/><polygon class="cls-8" points="204.09 69.14 206.66 75.15 219.21 69.8 219.21 127.51 225.74 127.51 225.74 62.38 220.14 62.38 204.09 69.14"/></g></g></g></svg>