<?xml version="1.0" encoding="utf-8"?>
<!-- Generator: Adobe Illustrator 24.3.0, SVG Export Plug-In . SVG Version: 6.00 Build 0)  -->
<svg version="1.1" id="Layer_1" xmlns="http://www.w3.org/2000/svg" xmlns:xlink="http://www.w3.org/1999/xlink" x="0px" y="0px"
	 viewBox="0 0 960 300" style="enable-background:new 0 0 960 300;" xml:space="preserve">
<style type="text/css">
	.st0{fill:#FFFFFF;}
</style>
<g>
	<path d="M152.84,301.5c-0.31,0-0.62-0.02-0.93-0.04c-0.23-0.02-0.45-0.06-0.68-0.1l-0.14-0.02c-0.36-0.06-0.63-0.13-0.89-0.2
		c-0.35-0.1-0.62-0.19-0.88-0.29c-0.31-0.12-0.55-0.23-0.79-0.35l-0.1-0.04c-0.22-0.11-0.43-0.24-0.64-0.36l-0.09-0.05
		c-0.26-0.16-0.45-0.3-0.64-0.44l-0.15-0.1c-0.24-0.19-0.46-0.38-0.68-0.59l-46.23-43.93c-1.75-1.67-2.72-3.88-2.72-6.23
		s0.97-4.56,2.72-6.23c1.76-1.67,4.1-2.59,6.59-2.59s4.83,0.92,6.59,2.59l30.34,28.83v-90.52c0-25.42,21.78-46.11,48.54-46.11
		h215.79c16.5,0,29.93-12.77,29.93-28.46V8.32c0-4.86,4.18-8.82,9.31-8.82s9.31,3.96,9.31,8.82v97.93
		c0,25.42-21.78,46.11-48.54,46.11H192.07c-16.5,0-29.93,12.77-29.93,28.46v90.52l30.34-28.83c1.76-1.67,4.1-2.59,6.59-2.59
		c2.49,0,4.83,0.92,6.59,2.59c1.75,1.67,2.72,3.88,2.72,6.23c0,2.35-0.97,4.56-2.72,6.23l-46.23,43.93
		c-0.22,0.21-0.45,0.4-0.68,0.59l-0.14,0.1c-0.2,0.15-0.39,0.29-0.59,0.42l-0.14,0.08c-0.21,0.13-0.42,0.25-0.64,0.36l-0.1,0.04
		c-0.24,0.12-0.48,0.23-0.72,0.33c-0.32,0.12-0.58,0.21-0.86,0.29c-0.34,0.09-0.61,0.16-0.88,0.21l-0.23,0.03
		c-0.22,0.04-0.45,0.07-0.68,0.1C153.46,301.48,153.15,301.5,152.84,301.5z"/>
	<path class="st0" d="M447.1,0c4.86,0,8.81,3.73,8.81,8.32v97.93c0,25.15-21.55,45.61-48.04,45.61H192.07
		c-16.78,0-30.43,12.99-30.43,28.96v89.35v2.33l1.69-1.6l29.49-28.03c1.67-1.58,3.88-2.45,6.25-2.45c2.36,0,4.58,0.87,6.25,2.45
		c1.65,1.57,2.56,3.65,2.56,5.87c0,2.21-0.91,4.3-2.56,5.86l-46.23,43.94c-0.2,0.19-0.42,0.38-0.68,0.58l-0.1,0.07
		c-0.18,0.14-0.36,0.27-0.58,0.41l-0.1,0.06c-0.2,0.12-0.4,0.24-0.61,0.35l-0.09,0.04c-0.26,0.13-0.48,0.23-0.66,0.3l-0.06,0.02
		l-0.03,0.01c-0.27,0.11-0.52,0.19-0.75,0.25l-0.06,0.02l-0.02,0.01c-0.29,0.08-0.53,0.14-0.76,0.18l-0.08,0.01l-0.14,0.02
		c-0.21,0.04-0.43,0.07-0.64,0.09c-0.3,0.03-0.6,0.04-0.89,0.04c-0.28,0-0.58-0.01-0.89-0.04c-0.22-0.02-0.43-0.06-0.65-0.09
		l-0.14-0.02l-0.07-0.01c-0.23-0.04-0.47-0.1-0.74-0.18c-0.03-0.01-0.07-0.02-0.1-0.02c-0.23-0.07-0.48-0.15-0.76-0.26l-0.05-0.02
		c-0.21-0.08-0.43-0.18-0.69-0.31l-0.09-0.04c-0.21-0.11-0.41-0.22-0.61-0.34c-0.03-0.02-0.07-0.04-0.14-0.08
		c-0.19-0.12-0.37-0.25-0.56-0.4l-0.13-0.09c-0.22-0.17-0.44-0.36-0.64-0.56l-46.23-43.93c-1.65-1.57-2.56-3.65-2.56-5.87
		c0-2.21,0.91-4.3,2.56-5.87c1.67-1.58,3.88-2.45,6.25-2.45c2.36,0,4.58,0.87,6.25,2.45l29.49,28.03l1.69,1.6v-2.33v-89.35
		c0-25.15,21.55-45.61,48.04-45.61h215.79c16.78,0,30.43-12.99,30.43-28.96V8.32C438.29,3.73,442.24,0,447.1,0 M447.1-1
		c-5.42,0-9.81,4.17-9.81,9.32v97.93c0,15.42-13.2,27.96-29.43,27.96H192.07c-27.04,0-49.04,20.91-49.04,46.61v89.35l-29.49-28.03
		c-1.91-1.82-4.42-2.73-6.94-2.73c-2.51,0-5.02,0.91-6.94,2.73c-1.92,1.82-2.87,4.21-2.87,6.59c0,2.39,0.96,4.77,2.87,6.59
		l46.23,43.93c0.23,0.22,0.47,0.42,0.72,0.62c0.05,0.04,0.1,0.07,0.15,0.11c0.2,0.15,0.4,0.3,0.62,0.43
		c0.05,0.03,0.1,0.06,0.15,0.09c0.22,0.13,0.44,0.27,0.67,0.38c0.03,0.02,0.07,0.03,0.1,0.05c0.25,0.12,0.5,0.24,0.76,0.34
		c0.02,0.01,0.04,0.01,0.06,0.02c0.27,0.11,0.55,0.2,0.84,0.29c0.03,0.01,0.06,0.01,0.09,0.02c0.28,0.08,0.55,0.15,0.84,0.2
		c0.08,0.01,0.16,0.02,0.23,0.03c0.24,0.04,0.47,0.08,0.72,0.1c0.32,0.03,0.65,0.05,0.98,0.05c0.33,0,0.66-0.02,0.98-0.05
		c0.24-0.02,0.48-0.06,0.72-0.1c0.08-0.01,0.16-0.02,0.23-0.03c0.29-0.05,0.56-0.12,0.84-0.2c0.03-0.01,0.06-0.01,0.09-0.02
		c0.29-0.08,0.56-0.18,0.84-0.29c0.02-0.01,0.04-0.01,0.06-0.02c0.26-0.1,0.51-0.22,0.76-0.34c0.03-0.02,0.07-0.03,0.1-0.05
		c0.23-0.12,0.45-0.25,0.67-0.38c0.05-0.03,0.1-0.06,0.15-0.09c0.21-0.14,0.42-0.28,0.62-0.43c0.05-0.04,0.1-0.07,0.15-0.11
		c0.25-0.19,0.49-0.4,0.72-0.62l46.23-43.93c3.83-3.64,3.83-9.54,0-13.18c-1.91-1.82-4.42-2.73-6.94-2.73s-5.02,0.91-6.94,2.73
		l-29.49,28.03v-89.35c0-15.42,13.2-27.96,29.43-27.96h215.79c27.04,0,49.04-20.91,49.04-46.61V8.32C456.91,3.17,452.51-1,447.1-1
		L447.1-1z"/>
</g>
<g>
	<path d="M806.75,301.5c-0.31,0-0.62-0.02-0.93-0.04c-0.23-0.02-0.46-0.06-0.68-0.1l-0.13-0.02c-0.36-0.06-0.63-0.13-0.89-0.2
		c-0.35-0.1-0.62-0.19-0.88-0.29c-0.31-0.12-0.55-0.23-0.78-0.35l-0.1-0.04c-0.22-0.11-0.43-0.24-0.64-0.36l-0.09-0.05
		c-0.26-0.16-0.45-0.3-0.64-0.44l-0.15-0.1c-0.24-0.19-0.46-0.38-0.68-0.59l-46.23-43.93c-1.75-1.67-2.72-3.88-2.72-6.23
		s0.97-4.56,2.72-6.23c1.76-1.67,4.1-2.59,6.59-2.59c2.49,0,4.83,0.92,6.59,2.59l30.34,28.83v-90.52c0-15.7-13.42-28.46-29.93-28.46
		H551.72c-26.77,0-48.54-20.68-48.54-46.11V8.9c0-4.86,4.18-8.82,9.31-8.82s9.31,3.96,9.31,8.82v97.35
		c0,15.69,13.42,28.46,29.93,28.46h215.79c26.77,0,48.54,20.68,48.54,46.11v90.52l30.34-28.83c1.76-1.67,4.1-2.59,6.59-2.59
		c2.49,0,4.83,0.92,6.59,2.59c1.75,1.67,2.72,3.88,2.72,6.23s-0.97,4.56-2.72,6.23l-46.23,43.93c-0.22,0.21-0.44,0.4-0.68,0.59
		l-0.14,0.1c-0.2,0.15-0.39,0.29-0.59,0.42l-0.15,0.08c-0.21,0.13-0.42,0.25-0.64,0.36l-0.1,0.04c-0.24,0.12-0.48,0.23-0.72,0.33
		c-0.32,0.12-0.58,0.21-0.86,0.29c-0.34,0.09-0.61,0.16-0.88,0.21l-0.23,0.03c-0.22,0.04-0.45,0.07-0.68,0.1
		C807.37,301.48,807.06,301.5,806.75,301.5z"/>
	<path class="st0" d="M512.49,0.58c4.86,0,8.81,3.73,8.81,8.32v97.35c0,15.97,13.65,28.96,30.43,28.96h215.79
		c26.49,0,48.04,20.46,48.04,45.61v89.35v2.33l1.69-1.6l29.49-28.03c1.67-1.58,3.88-2.45,6.25-2.45c2.36,0,4.58,0.87,6.25,2.45
		c1.65,1.57,2.56,3.65,2.56,5.87c0,2.21-0.91,4.3-2.56,5.86L813,298.54c-0.2,0.19-0.42,0.38-0.68,0.58l-0.1,0.07
		c-0.18,0.14-0.36,0.27-0.58,0.41c-0.04,0.02-0.07,0.04-0.11,0.06c-0.2,0.12-0.4,0.24-0.61,0.35l-0.09,0.04
		c-0.26,0.13-0.48,0.23-0.66,0.3l-0.06,0.02l-0.03,0.01c-0.27,0.11-0.52,0.19-0.75,0.25l-0.06,0.02l-0.02,0.01
		c-0.29,0.08-0.53,0.14-0.76,0.18l-0.08,0.01l-0.14,0.02c-0.21,0.04-0.43,0.07-0.64,0.09c-0.3,0.03-0.6,0.04-0.89,0.04
		c-0.29,0-0.58-0.01-0.89-0.04c-0.22-0.02-0.43-0.06-0.65-0.09l-0.14-0.02l-0.07-0.01c-0.23-0.04-0.47-0.1-0.74-0.18
		c-0.03-0.01-0.07-0.02-0.09-0.02c-0.23-0.07-0.48-0.15-0.76-0.26l-0.05-0.02c-0.21-0.08-0.43-0.18-0.69-0.31l-0.09-0.04
		c-0.21-0.11-0.41-0.22-0.6-0.34c-0.04-0.02-0.07-0.04-0.14-0.08c-0.19-0.12-0.37-0.25-0.56-0.4l-0.13-0.09
		c-0.22-0.17-0.44-0.36-0.64-0.56l-46.23-43.93c-1.65-1.57-2.56-3.65-2.56-5.87c0-2.21,0.91-4.3,2.56-5.87
		c1.67-1.58,3.88-2.45,6.25-2.45c2.36,0,4.58,0.87,6.25,2.45l29.49,28.03l1.69,1.6v-2.33v-89.35c0-15.97-13.65-28.96-30.43-28.96
		H551.72c-26.49,0-48.04-20.46-48.04-45.61V8.9C503.68,4.31,507.63,0.58,512.49,0.58 M512.49-0.42c-5.42,0-9.81,4.17-9.81,9.32
		v97.35c0,25.7,22,46.61,49.04,46.61h215.79c16.22,0,29.43,12.54,29.43,27.96v89.35l-29.49-28.03c-1.91-1.82-4.43-2.73-6.94-2.73
		c-2.51,0-5.02,0.91-6.94,2.73c-1.92,1.82-2.87,4.21-2.87,6.59c0,2.39,0.96,4.77,2.87,6.59l46.23,43.93
		c0.23,0.22,0.47,0.42,0.72,0.62c0.05,0.04,0.1,0.07,0.15,0.11c0.2,0.15,0.4,0.3,0.62,0.43c0.05,0.03,0.1,0.06,0.15,0.09
		c0.22,0.13,0.44,0.27,0.67,0.38c0.03,0.02,0.07,0.03,0.1,0.05c0.25,0.12,0.5,0.24,0.76,0.34c0.02,0.01,0.04,0.01,0.06,0.02
		c0.27,0.11,0.55,0.2,0.84,0.29c0.03,0.01,0.06,0.01,0.09,0.02c0.28,0.08,0.55,0.15,0.84,0.2c0.08,0.01,0.16,0.02,0.23,0.03
		c0.24,0.04,0.47,0.08,0.72,0.1c0.32,0.03,0.65,0.05,0.98,0.05s0.66-0.02,0.98-0.05c0.24-0.02,0.48-0.06,0.72-0.1
		c0.08-0.01,0.16-0.02,0.23-0.03c0.29-0.05,0.56-0.12,0.84-0.2c0.03-0.01,0.06-0.01,0.09-0.02c0.29-0.08,0.56-0.18,0.84-0.29
		c0.02-0.01,0.04-0.01,0.06-0.02c0.26-0.1,0.51-0.22,0.76-0.34c0.03-0.02,0.07-0.03,0.1-0.05c0.23-0.12,0.45-0.25,0.67-0.38
		c0.05-0.03,0.1-0.06,0.15-0.09c0.21-0.14,0.42-0.28,0.62-0.43c0.05-0.04,0.1-0.07,0.15-0.11c0.25-0.19,0.49-0.4,0.72-0.62
		l46.23-43.93c3.83-3.64,3.83-9.54,0-13.18c-1.91-1.82-4.42-2.73-6.93-2.73s-5.02,0.91-6.93,2.73l-29.49,28.03v-89.35
		c0-25.7-22-46.61-49.04-46.61H551.72c-16.22,0-29.43-12.55-29.43-27.96V8.9C522.3,3.75,517.9-0.42,512.49-0.42L512.49-0.42z"/>
</g>
<g>
	<path d="M479.79,301.5c-0.31,0-0.62-0.02-0.93-0.04c-0.23-0.02-0.45-0.06-0.68-0.1l-0.13-0.02c-0.36-0.06-0.63-0.13-0.89-0.2
		c-0.35-0.1-0.62-0.19-0.88-0.29c-0.31-0.12-0.55-0.23-0.78-0.35l-0.1-0.04c-0.22-0.11-0.43-0.24-0.64-0.36l-0.09-0.05
		c-0.26-0.16-0.45-0.3-0.64-0.45l-0.15-0.1c-0.24-0.19-0.46-0.38-0.68-0.59l-46.23-43.94c-1.75-1.67-2.72-3.88-2.72-6.23
		s0.97-4.56,2.72-6.23c1.76-1.67,4.1-2.59,6.59-2.59s4.83,0.92,6.59,2.59l30.34,28.83V9.93c0-4.86,4.18-8.82,9.31-8.82
		s9.31,3.96,9.31,8.82v261.41l30.34-28.83c1.76-1.67,4.1-2.59,6.59-2.59c2.49,0,4.83,0.92,6.59,2.59c1.75,1.67,2.72,3.88,2.72,6.23
		s-0.97,4.56-2.72,6.23l-46.23,43.93c-0.22,0.21-0.44,0.4-0.68,0.59l-0.14,0.1c-0.2,0.15-0.39,0.29-0.59,0.42l-0.14,0.08
		c-0.21,0.13-0.42,0.25-0.64,0.36l-0.1,0.04c-0.24,0.12-0.48,0.23-0.72,0.33c-0.32,0.12-0.58,0.21-0.86,0.29l-0.1,0.03
		c-0.25,0.07-0.51,0.13-0.79,0.19l-0.23,0.03c-0.22,0.04-0.45,0.07-0.68,0.1C480.42,301.48,480.1,301.5,479.79,301.5z"/>
	<path class="st0" d="M479.79,1.61c4.86,0,8.81,3.73,8.81,8.32v260.24v2.33l1.69-1.6l29.49-28.03c1.67-1.58,3.88-2.45,6.25-2.45
		c2.36,0,4.58,0.87,6.25,2.45c1.65,1.57,2.56,3.65,2.56,5.87c0,2.21-0.91,4.3-2.56,5.86l-46.23,43.94c-0.2,0.19-0.42,0.38-0.68,0.58
		l-0.1,0.07c-0.18,0.14-0.36,0.27-0.58,0.41c-0.04,0.02-0.07,0.04-0.11,0.06c-0.2,0.12-0.4,0.24-0.61,0.35l-0.09,0.04
		c-0.26,0.13-0.48,0.23-0.66,0.3l-0.06,0.02l-0.03,0.01c-0.27,0.11-0.52,0.19-0.75,0.25l-0.06,0.02l-0.02,0.01
		c-0.29,0.08-0.53,0.14-0.76,0.18l-0.08,0.01l-0.14,0.02c-0.21,0.04-0.43,0.07-0.64,0.09c-0.3,0.03-0.6,0.04-0.89,0.04
		c-0.29,0-0.58-0.01-0.89-0.04c-0.22-0.02-0.43-0.06-0.65-0.09l-0.14-0.02l-0.07-0.01c-0.23-0.04-0.47-0.1-0.74-0.18
		c-0.03-0.01-0.07-0.02-0.09-0.02c-0.23-0.07-0.48-0.15-0.76-0.26l-0.05-0.02c-0.21-0.08-0.43-0.18-0.69-0.31l-0.09-0.04
		c-0.21-0.11-0.41-0.22-0.61-0.35l-0.14-0.08c-0.19-0.12-0.37-0.25-0.56-0.4l-0.13-0.09c-0.22-0.17-0.44-0.36-0.64-0.56
		l-46.23-43.93c-1.65-1.57-2.56-3.65-2.56-5.87c0-2.21,0.91-4.3,2.56-5.87c1.67-1.58,3.88-2.45,6.25-2.45
		c2.36,0,4.58,0.87,6.25,2.45l29.49,28.03l1.69,1.6v-2.33V9.93C470.98,5.35,474.93,1.61,479.79,1.61 M479.79,0.61
		c-5.42,0-9.81,4.17-9.81,9.32v260.24l-29.49-28.03c-1.91-1.82-4.42-2.73-6.94-2.73c-2.51,0-5.02,0.91-6.94,2.73
		c-1.92,1.82-2.87,4.21-2.87,6.59c0,2.39,0.96,4.77,2.87,6.59l46.23,43.93c0.23,0.22,0.47,0.42,0.72,0.62
		c0.05,0.04,0.1,0.07,0.15,0.11c0.2,0.15,0.4,0.3,0.62,0.43c0.05,0.03,0.1,0.06,0.15,0.09c0.22,0.13,0.44,0.27,0.67,0.38
		c0.03,0.02,0.07,0.03,0.1,0.05c0.25,0.12,0.5,0.24,0.76,0.34c0.02,0.01,0.04,0.01,0.06,0.02c0.27,0.11,0.55,0.2,0.84,0.29
		c0.03,0.01,0.06,0.01,0.09,0.02c0.28,0.08,0.55,0.15,0.84,0.2c0.08,0.01,0.16,0.02,0.23,0.03c0.24,0.04,0.47,0.08,0.72,0.1
		c0.32,0.03,0.65,0.05,0.98,0.05c0.33,0,0.66-0.02,0.98-0.05c0.24-0.02,0.48-0.06,0.72-0.1c0.08-0.01,0.16-0.02,0.23-0.03
		c0.29-0.05,0.56-0.12,0.84-0.2c0.03-0.01,0.06-0.01,0.09-0.02c0.29-0.08,0.56-0.18,0.84-0.29c0.02-0.01,0.04-0.01,0.06-0.02
		c0.26-0.1,0.52-0.22,0.76-0.34c0.03-0.02,0.07-0.03,0.1-0.05c0.23-0.12,0.45-0.25,0.67-0.38c0.05-0.03,0.1-0.06,0.15-0.09
		c0.21-0.14,0.42-0.28,0.62-0.43c0.05-0.04,0.1-0.07,0.15-0.11c0.25-0.19,0.49-0.4,0.72-0.62l46.23-43.93
		c3.83-3.64,3.83-9.54,0-13.18c-1.91-1.82-4.43-2.73-6.94-2.73c-2.51,0-5.02,0.91-6.93,2.73l-29.49,28.03V9.93
		C489.6,4.79,485.21,0.61,479.79,0.61L479.79,0.61z"/>
</g>
</svg>
