<?xml version="1.0" encoding="UTF-8"?>
<svg width="711px" height="358px" viewBox="0 0 711 358" version="1.1" xmlns="http://www.w3.org/2000/svg" xmlns:xlink="http://www.w3.org/1999/xlink">
    <title>4572</title>
    <defs>
        <path d="M22.7764621,71 C13.5666222,71 2.51297125,70.0277386 0.652924956,68.2879024 C0.407639304,68.0587424 0.189339461,67.4669311 0,66.5680899 C1.75890436,61.7334812 5.80545943,53.5495767 5.80633701,48.4947074 C5.80655641,48.1576419 5.78856587,47.834593 5.75082962,47.5273406 C5.40769298,44.7380406 4.27494716,35.4357017 4.27648294,24.6375931 C4.27757993,16.5667112 4.91229494,7.66039634 6.98383978,0.0137940976 C7.24952934,0.00711953422 7.52816331,0.00222485444 7.8190835,0 C6.98054883,4.18717606 7.39301486,9.00087114 7.44983864,13.2045111 C7.57138448,22.0665514 12.402722,57.3950151 18.81613,58.7788745 C19.2503163,58.8723184 19.7303566,58.9145907 20.244184,58.9145907 C24.5020182,58.9145907 31.1299963,55.9688834 34.1434117,54.5138286 C35.4834875,61.8736471 36.6278614,68.370222 35.6092019,69.5182469 C34.7123077,70.5283309 29.1918447,71 22.7764621,71 L22.7764621,71 Z M33.0674897,48.5320849 L30.4818981,43.493902 C30.4818981,43.493902 28.6924976,44.2283265 27.2343863,44.5914227 C27.2247328,44.5938701 27.2148599,44.5949825 27.2056453,44.5949825 C25.8344151,44.5985423 28.4136442,18.8293881 29.1865792,5.17367652 C37.2191358,11.448656 33.2693348,25.8817318 31.7254393,32.5918928 C31.0295126,35.6165824 31.9215801,41.9449584 33.0674897,48.5320849 L33.0674897,48.5320849 Z" id="path-1"></path>
    </defs>
    <g id="Page-1" stroke="none" stroke-width="1" fill="none" fill-rule="evenodd">
        <g id="2--channels" transform="translate(-364.000000, -666.000000)">
            <g id="4572" transform="translate(364.000000, 666.000000)">
                <path d="M85.4573001,354 L82,354 L82,274.62998 L103.201702,336.586223 C95.4398617,341.14183 89.2749999,347.132062 85.4573001,354 M125.097936,328.577713 L117.002631,216.396191 C121.895965,215.233342 127.10963,214.605136 132.515849,214.605136 L132.567939,214.605136 C132.568829,214.605136 132.569275,214.605136 132.569942,214.605136 C135.378345,214.605136 137.655386,212.330675 137.655386,209.526025 L137.655386,199.606165 C137.655386,168.995611 170.344914,143.949802 210.298311,143.949802 C214.432112,143.949802 218.485775,144.217792 222.434813,144.732386 C224.683137,145.025103 226.906975,145.167229 229.106327,145.167006 C256.923223,145.16411 280.223435,122.416599 280.223435,93.7991501 L280.223435,93.7989273 C280.223435,42.209417 320.980442,0 370.795304,0 C394.643128,0 416.414034,9.67347871 432.633137,25.4169406 L419.902277,25.4169406 C399.593894,25.4169406 382.978552,42.0445687 382.978552,62.3672501 L382.978552,82.6215417 C340.140176,96.0918786 308.694795,137.886947 308.694795,187.00195 C308.694795,220.236712 281.948635,246.654772 250.015746,246.659227 C247.489164,246.659227 244.935868,246.494379 242.35586,246.153544 C237.821367,245.556525 233.166667,245.24465 228.422925,245.24465 C182.555988,245.24465 145.028778,274.331471 145.028778,309.88302 L145.028778,321.402355 C145.028778,324.659223 142.414488,327.301252 139.190257,327.301252 C139.189589,327.301252 139.189144,327.301252 139.188253,327.301252 L139.128372,327.301252 C134.294919,327.301252 129.59414,327.744561 125.097936,328.577713 M570.891749,248.508202 L570.891749,152.975248 C590.786084,162.93142 604,180.142923 604,199.606165 L604,245.471874 C601.689346,245.322619 599.354204,245.24465 596.996802,245.24465 C587.889974,245.24465 579.112604,246.391906 570.891749,248.508202" id="Fill-4" fill="#F4E9C7"></path>
                <path d="M680,354 L539,354 L603.968698,354 L603.968698,246 C646.391222,248.766616 680,276.536968 680,310.097705 L680,354" id="Fill-5" fill="#F4E9C7"></path>
                <path d="M604,354 L538.667558,354 C556.534108,353.072353 570.862551,338.194405 570.862551,320.135316 L570.862551,248.655318 C579.090656,246.541973 587.875767,245.396318 596.990626,245.396318 C599.350107,245.396318 601.687308,245.474178 604,245.623225 L604,354 M418.175847,354 L316.058676,354 L340.023336,336.196738 L382.661093,339.671522 C382.661093,339.671522 382.823739,332.14134 382.995297,321.082985 C384.931453,339.02862 399.890427,353.228073 418.175847,354 M315.994063,354 L238.218089,354 C239.722007,352.832099 283.328956,318.974089 286.330109,311.58628 L315.994063,354 M203.625739,354 L85,354 C88.8210667,347.14164 94.9913652,341.159761 102.76005,336.610508 L102.822881,336.795148 L125.03453,333.57619 L124.675595,328.613166 C129.175764,327.781176 133.880689,327.338486 138.718404,327.338486 L138.778338,327.338486 C138.77923,327.338486 138.779675,327.338486 138.780344,327.338486 C142.007418,327.338486 144.624013,324.700141 144.624013,321.447815 L144.624013,309.944545 C144.624013,274.442575 182.184319,245.396318 228.091705,245.396318 C232.839631,245.396318 237.498436,245.707758 242.036928,246.303944 C244.619211,246.644304 247.174758,246.808922 249.703569,246.808922 C281.66462,246.804473 308.434367,220.423255 308.434367,187.234842 C308.434367,138.188334 339.907479,96.4515515 382.783635,83 L382.783635,242.875876 C382.634357,240.101833 382.453886,237.82387 382.233312,236.175461 C379.662168,216.890632 373.401412,208.982273 373.401412,208.982273 C372.89565,208.00791 372.227242,206.882276 371.039703,206.882276 C370.937214,206.882276 370.830269,206.891174 370.718867,206.908971 C367.71103,207.393928 364.776719,207.556322 362.194435,207.556322 C356.987535,207.556322 353.219941,206.897848 353.219941,206.897848 C348.663626,211.513838 336.899642,221.59783 331.699427,235.347919 C330.883969,237.505756 330.171,239.694736 329.589485,241.888166 C326.563824,245.703309 323.814438,249.680847 322.038701,253.344719 C322.038701,253.344719 304.218939,257.073105 298.281247,258.316641 C292.459411,259.535708 280.205262,264.738985 280.205262,264.738985 L279.639343,270.667474 C279.639343,270.667474 295.779172,272.72298 303.445814,272.72298 C304.259044,272.72298 304.976468,272.700734 305.569124,272.649569 C312.097243,272.082303 323.121522,270.175843 328.009814,269.299361 C328.04769,271.548405 328.110075,273.950944 328.208108,276.391302 C328.542312,284.671165 329.297613,293.382595 330.937441,297.969665 C331.772952,300.301018 332.091559,302.845931 332.093787,305.488724 C332.093787,306.191689 332.071507,306.901328 332.031403,307.617641 C312.901561,294.283547 287.455262,277.948503 277.215249,277.648186 C277.157321,277.645961 277.099392,277.645961 277.041463,277.645961 C259.707412,277.645961 204.906854,352.25371 203.625739,354" id="Fill-6" fill="#F0E1B3"></path>
                <path d="M592.585211,334.109504 C625.601396,342.57397 637,353.988883 637,353.988883 L476,354 C476,354 519.701682,315.424088 592.585211,334.109504" id="Fill-7" fill="#E8CD66"></path>
                <path d="M459.583602,334.109504 C492.599332,342.57397 504,353.988883 504,353.988883 L343,354 C343,354 386.701079,315.424088 459.583602,334.109504" id="Fill-8" fill="#E8CD66"></path>
                <path d="M708.811456,354 L2.69660658,354 C1.21360655,354 0,354.872017 0,355.939262 L0,356.060738 C0,357.127983 1.21360655,358 2.69660658,358 L708.811456,358 C710.015935,358 711,357.127983 711,356.060738 L711,355.939262 C711,354.872017 710.015935,354 708.811456,354" id="Fill-9" fill="#CB812C"></path>
                <path d="M261.597742,124 C242.17281,116.501747 253.018683,96 253.018683,96 C273.408559,108.926128 261.597742,124 261.597742,124" id="Fill-10" fill="#F4E9C7"></path>
                <path d="M240.843656,135 C236.035876,135 230.183308,132.87211 224,125.802469 C224,125.802469 230.868882,121 238.519713,121 C243.592523,121 249.009215,123.109008 253,130.125335 C253,130.125335 248.11994,135 240.843656,135" id="Fill-11" fill="#F4E9C7"></path>
                <path d="M69.177399,298 C49.0828755,293.425546 56.2377881,271 56.2377881,271 C78.1612175,280.91504 69.177399,298 69.177399,298" id="Fill-12" fill="#F4E9C7"></path>
                <path d="M48.2588803,311 C44.0072866,311 38.8725179,309.331734 33,304.371721 C33,304.371721 40.4550808,297 49.1424888,297 C53.3756605,297 57.9003341,298.74888 62,303.955214 C62,303.955214 56.995486,311 48.2588803,311" id="Fill-13" fill="#F4E9C7"></path>
                <path d="M240.61984,349.226082 C253.53792,351.257362 258,353.995888 258,353.995888 L195,354 C195,354 212.10016,344.742054 240.61984,349.226082" id="Fill-14" fill="#E8CD66"></path>
                <path d="M537.212623,355 L518.787377,355 C500.204763,355 485,339.703027 485,321.004992 L485,59.9965693 C485,41.2983112 500.204763,26 518.787377,26 L537.212623,26 C555.795237,26 571,41.2983112 571,59.9965693 L571,321.004992 C571,339.703027 555.795237,355 537.212623,355" id="Fill-15" fill="#2F2C60"></path>
                <path d="M525.95379,355 L420.048444,355 C399.671465,355 383,338.353189 383,318.006343 L383,62.9934339 C383,42.6470341 399.671465,26 420.048444,26 L525.95379,26 C546.328535,26 563,42.6470341 563,62.9934339 L563,318.006343 C563,338.353189 546.328535,355 525.95379,355" id="Fill-16" fill="#373481"></path>
                <path d="M522.821009,347 L420.829041,346.886862 C403.30547,346.866899 388.982298,332.491543 389,314.9399 L389.279082,63.8782178 C389.296801,46.3256882 403.655409,31.9820504 421.178981,32 L441.889662,32.0244157 L473.528213,32.0599049 L523.170948,32.115135 C531.633735,32.1231201 539.345701,35.4795141 545.059909,40.9251146 C547.445258,43.1957599 549.482883,45.8332751 551.077546,48.7436138 C552.818386,51.9077005 554.034316,55.3942955 554.614596,59.0838446 C554.869299,60.7052588 555.002188,62.3685947 555,64.0605437 L554.718692,315.124001 C554.700974,332.675643 540.349009,347.017728 522.821009,347" id="Fill-17" fill="#E1E5F1"></path>
                <path d="M503.385923,39 L442.598457,38.9340162 C438.965624,38.9300836 435.99777,36.0167029 436,32.4599096 C436.004464,28.9031163 438.981245,25.9960714 442.614077,26 L503.401543,26.0662023 C507.034376,26.0701349 510.00223,28.9835156 510,32.5403089 C509.995536,36.0971021 507.018755,39.0039286 503.385923,39" id="Fill-18" fill="#373481"></path>
                <polygon id="Fill-19" fill="#CDD2EA" points="405 153 542 153 542 57 405 57"></polygon>
                <polygon id="Fill-20" fill="#CDD2EA" points="405 293 542 293 542 197 405 197"></polygon>
                <path d="M539.41799,300 L407.58201,300 C406.160904,300 405,301.233976 405,302.739284 L405,303.260716 C405,304.768384 406.160904,306 407.58201,306 L539.41799,306 C540.839096,306 542,304.768384 542,303.260716 L542,302.739284 C542,301.233976 540.839096,300 539.41799,300" id="Fill-21" fill="#CDD2EA"></path>
                <path d="M539.41799,312 L407.58201,312 C406.160904,312 405,313.231616 405,314.736925 L405,315.260716 C405,316.766024 406.160904,318 407.58201,318 L539.41799,318 C540.839096,318 542,316.766024 542,315.260716 L542,314.736925 C542,313.231616 540.839096,312 539.41799,312" id="Fill-22" fill="#CDD2EA"></path>
                <path d="M539.41799,159 L407.58201,159 C406.160904,159 405,160.232372 405,161.73892 L405,162.260844 C405,163.767392 406.160904,165 407.58201,165 L539.41799,165 C540.839096,165 542,163.767392 542,162.260844 L542,161.73892 C542,160.232372 540.839096,159 539.41799,159" id="Fill-23" fill="#CDD2EA"></path>
                <path d="M539.41799,170 L407.58201,170 C406.160904,170 405,171.231616 405,172.739284 L405,173.260716 C405,174.766024 406.160904,176 407.58201,176 L539.41799,176 C540.839096,176 542,174.766024 542,173.260716 L542,172.739284 C542,171.231616 540.839096,170 539.41799,170" id="Fill-24" fill="#CDD2EA"></path>
                <path d="M405,94.9035515 C405,94.9035515 430.09287,79.6584236 435.065631,82.3096535 C440.036168,84.9611058 460.254131,96.2291665 465.887406,94.9035515 C471.522905,93.5777142 486.768108,89.6008694 498.036882,96.5605146 C509.305656,103.520382 524.221714,87.6123357 529.854988,85.6238021 C535.490487,83.6354909 542,84.2981872 542,84.2981872 L542,153 L405,153 L405,94.9035515" id="Fill-25" fill="#E8CD66"></path>
                <polyline id="Fill-26" fill="#E1E5F1" points="405 221.145424 542 240 542 220.808816 405 197 405 221.145424"></polyline>
                <path d="M542,152 L405,152 L405,122.705516 C405,122.705516 411.760819,121.229178 425.160141,121.229178 C436.884825,121.229178 453.691244,122.359615 475.499334,126.598589 C483.018522,128.060125 489.843836,128.67356 495.995292,128.67356 C528.084721,128.67356 542,112 542,112 L542,152" id="Fill-27" fill="#E3BE5A"></path>
                <polyline id="Fill-28" fill="#575BA0" points="405 211.323133 413.85356 211.323133 413.85356 252.5389 420.814535 252.5389 420.814535 233.924896 426.779179 233.924896 426.779179 271.815301 438.710691 271.815301 438.710691 248.881224 453.86916 248.881224 453.86916 261.843672 464.893299 261.843672 464.893299 217.304772 473.402146 217.304772 473.402146 261.843672 479.591409 261.843672 479.591409 208 489.089916 208 489.089916 262.508299 504.530827 262.508299 504.530827 242.234959 515.935262 242.234959 515.935262 274.808351 519.911691 274.808351 519.911691 208 536.815964 208 536.815964 262.508299 542 262.508299 542 294 405 294 405 211.323133"></polyline>
                <path d="M412.898522,183.069007 C410.481394,182.600723 410.000043,184.669152 410.000043,184.669152 C410.000043,184.669152 409.518692,182.600723 407.099489,183.069007 C404.682361,183.537291 404.748754,186.267197 405.354592,187.436857 C405.958356,188.606517 410.000043,192 410.000043,192 C410.000043,192 414.04173,188.606517 414.645493,187.436857 C415.251332,186.267197 415.317725,183.537291 412.898522,183.069007" id="Fill-29" fill="#C2541E"></path>
                <path d="M480.65336,181 L470.34445,181 C469.602156,181 469,181.642899 469,182.435418 L469,189.579778 C469,190.374635 469.602156,191.017534 470.34445,191.017534 L472.354556,191.017534 C472.735557,191.017534 473.002695,191.419638 472.877884,191.805377 L472.485936,193 L476.924373,191.34249 C477.502442,191.127411 478.111167,191.017534 478.722082,191.017534 L480.65336,191.017534 C481.397844,191.017534 482,190.374635 482,189.579778 L482,182.435418 C482,181.642899 481.397844,181 480.65336,181" id="Fill-30" fill="#CDD2EA"></path>
                <path d="M542,185.117968 L536.479761,181 L536.479761,183.892409 C529.400945,184.172037 530.013323,193 530.013323,193 C531.618326,187.512288 536.479761,187.34189 536.479761,187.34189 L536.479761,190.49645 L542,185.117968" id="Fill-31" fill="#CDD2EA"></path>
                <path d="M412.898522,323.068494 C410.481394,322.602283 410.000043,324.668731 410.000043,324.668731 C410.000043,324.668731 409.518692,322.602283 407.099489,323.068494 C404.682361,323.536805 404.748754,326.266868 405.354592,327.436595 C405.958356,328.608422 410.000043,332 410.000043,332 C410.000043,332 414.04173,328.608422 414.645493,327.436595 C415.251332,326.266868 415.317725,323.536805 412.898522,323.068494" id="Fill-32" fill="#C2541E"></path>
                <path d="M480.65336,324 L470.34445,324 C469.602156,324 469,324.642899 469,325.435418 L469,332.579778 C469,333.374635 469.602156,334.017534 470.34445,334.017534 L472.354556,334.017534 C472.735557,334.017534 473.002695,334.419638 472.877884,334.805377 L472.485936,336 L476.924373,334.34249 C477.502442,334.127411 478.111167,334.017534 478.722082,334.017534 L480.65336,334.017534 C481.397844,334.017534 482,333.374635 482,332.579778 L482,325.435418 C482,324.642899 481.397844,324 480.65336,324" id="Fill-33" fill="#CDD2EA"></path>
                <path d="M542,327.117968 L536.479761,323 L536.479761,325.892409 C529.400945,326.172037 530.013323,335 530.013323,335 C531.618326,329.514473 536.479761,329.34189 536.479761,329.34189 L536.479761,332.498635 L542,327.117968" id="Fill-34" fill="#CDD2EA"></path>
                <path d="M441,32.5 C441,31.11935 442.120728,30 443.50111,30 C444.879272,30 446,31.11935 446,32.5 C446,33.88065 444.879272,35 443.50111,35 C442.120728,35 441,33.88065 441,32.5" id="Fill-35" fill="#2F2C60"></path>
                <path d="M493.422315,35 L452.577685,35 C451.158356,35 450,33.8748779 450,32.5 C450,31.1251221 451.158356,30 452.577685,30 L493.422315,30 C494.841644,30 496,31.1251221 496,32.5 C496,33.8748779 494.841644,35 493.422315,35" id="Fill-36" fill="#2F2C60"></path>
                <path d="M254.23044,218.915197 L254.23044,190.409292 C254.23044,187.984745 252.27311,186 249.877106,186 L169.352889,186 C166.958889,186 165,187.984745 165,190.409292 L165,218.915197 C165,221.339744 166.958889,223.324489 169.352889,223.324489 L225.698842,223.324489 L260,241 L242.778165,223.324489 L249.877106,223.324489 C252.27311,223.324489 254.23044,221.339744 254.23044,218.915197" id="Fill-37" fill="#E1E5F1"></path>
                <path d="M198,203.497771 C198,205.59039 197.485175,207.571581 196.569187,209.303173 C194.480914,213.285612 190.306818,216 185.497326,216 C183.39724,216 181.412154,215.478517 179.673784,214.555892 C179.44891,214.442236 179.235179,214.321893 179.021226,214.190408 C177.666857,213.368069 176.476741,212.291674 175.522643,211.030308 C175.473167,210.96568 175.423913,210.898823 175.374659,210.827509 C175.347023,210.789624 175.319611,210.751738 175.292198,210.713853 C173.850019,208.679176 173,206.189873 173,203.497771 C173,196.593689 178.593542,191 185.497326,191 C192.401332,191 198,196.593689 198,203.497771" id="Fill-38" fill="#CDD2EA"></path>
                <path d="M182.228291,201.354616 C182.228291,201.354616 177.368602,194.103738 186.981905,194 C186.981905,194 189.674384,194.291764 190.590444,194.002161 C190.590444,194.002161 191.720651,198.702804 190.226062,200.889954 C188.731251,203.079265 182.228291,201.354616 182.228291,201.354616" id="Fill-39" fill="#C4541C"></path>
                <path d="M189,208.525385 C188.319423,206.574828 188.750681,205.111338 188.750681,205.111338 L182.283786,204 C182.060857,205.742468 181.859066,207.052748 182.13059,208.907265 C182.133641,208.927845 183.330657,211.086492 184.957405,210.997311 C186.759358,210.898983 189.008258,208.550539 189,208.525385" id="Fill-40" fill="#C68B92"></path>
                <path d="M197,209.076037 C194.916345,213.193548 190.75148,216 185.952623,216 C183.857182,216 181.876486,215.460829 180.14196,214.506912 C179.917584,214.389401 179.704326,214.264977 179.490846,214.129032 C178.139472,213.278802 176.951988,212.165899 176,210.861751 C176.968444,210.398618 177.925991,210 178.87798,209.66129 C179.682311,209.37788 180.470186,209.138249 181.252724,208.935484 C181.274517,208.928571 181.290973,208.928571 181.307428,208.923963 C181.362133,208.912442 181.389485,208.90553 181.389485,208.90553 C181.772637,208.804147 182.150008,208.718894 182.527601,208.640553 L182.527601,208.645161 C183.107555,209.529954 184.349521,210.652074 186.77897,210.029954 C188.108551,209.68894 189.454588,208 189.454588,208 C192.874273,208.06682 195.572351,208.675115 197,209.076037" id="Fill-41" fill="#EACF65"></path>
                <path d="M188.148929,204.981477 C187.516143,205.465169 185.661009,205.944599 185.124545,206 C185.124545,206 182.373769,205.403376 181.873728,205.111456 C181.099421,204.655465 181.149666,203.732828 181.110172,202.450087 C181.062998,200.930826 180.905679,199.737578 181.080551,198.861819 C181.288335,197.815596 181.972244,197.218972 183.8864,197.059162 C187.400512,196.76298 188.864214,197.617431 188.925211,198.761671 C188.940789,199.068506 188.95549,199.362557 188.965802,199.639561 C189.105348,203.208652 188.814846,204.472216 188.148929,204.981477" id="Fill-42" fill="#DCABB0"></path>
                <path d="M175.087851,210.559029 C175.140324,210.624846 175.192798,210.686549 175.245509,210.746195 C176.261971,211.910325 177.529877,212.903743 178.972774,213.66269 C179.200712,213.784039 179.428413,213.895105 179.667986,214 L181,209 C181,209 180.970795,209.00617 180.912386,209.016454 C180.894816,209.020568 180.877246,209.020568 180.853977,209.026738 C180.211239,209.137803 177.471468,209.633484 175,210.454134 L175.087851,210.559029" id="Fill-43" fill="#EACF65"></path>
                <path d="M205.531582,199 L246.468418,199 C247.311347,199 248,198.325055 248,197.501096 C248,196.674945 247.311347,196 246.468418,196 L205.531582,196 C204.690889,196 204,196.674945 204,197.501096 C204,198.325055 204.690889,199 205.531582,199" id="Fill-44" fill="#CDD2EA"></path>
                <path d="M246.468418,202 L205.531582,202 C204.690889,202 204,202.674945 204,203.501096 C204,204.325055 204.690889,205 205.531582,205 L246.468418,205 C247.311347,205 248,204.325055 248,203.501096 C248,202.674945 247.311347,202 246.468418,202" id="Fill-45" fill="#CDD2EA"></path>
                <path d="M246.468418,209 L205.531582,209 C204.690889,209 204,209.674453 204,210.5 C204,211.325547 204.690889,212 205.531582,212 L246.468418,212 C247.311347,212 248,211.325547 248,210.5 C248,209.674453 247.311347,209 246.468418,209" id="Fill-46" fill="#CDD2EA"></path>
                <path d="M139,102.333528 L139,73.4651489 C139,71.0093608 141.041456,69 143.536743,69 L227.463925,69 C229.958989,69 232,71.0093608 232,73.4651489 L232,102.333528 C232,104.789316 229.958989,106.798677 227.463925,106.798677 L168.737333,106.798677 L141.406257,129 L150.936021,106.798677 L143.536743,106.798677 C141.041456,106.798677 139,104.789316 139,102.333528" id="Fill-47" fill="#E1E5F1"></path>
                <path d="M171,86.9984439 C171,89.7987825 170.117461,92.386378 168.615589,94.5040271 C168.586912,94.542263 168.558457,94.5833889 168.530002,94.6216249 C168.479095,94.6978745 168.428188,94.7643428 168.377503,94.8343679 C167.920228,95.4374733 167.409155,96.0027873 166.853623,96.5171942 C166.720241,96.6441287 166.580413,96.7679509 166.437473,96.8853264 C165.948631,97.304588 165.427777,97.6887259 164.878691,98.0284034 C164.834231,98.0601925 164.786658,98.0886472 164.738864,98.1173242 C164.516562,98.2569298 164.294482,98.3807521 164.059509,98.5014621 C163.738727,98.6697447 163.41172,98.8284683 163.07849,98.9714085 C162.907095,99.0443236 162.732365,99.1110142 162.557636,99.1777048 C161.13846,99.7112297 159.601686,100 158.001556,100 C155.699841,100 153.534397,99.4000068 151.657946,98.3489629 C151.49611,98.2600421 151.337386,98.1648968 151.181552,98.0695292 C151.115084,98.0315156 151.051506,97.9903897 150.987927,97.945707 C150.721165,97.7776467 150.460849,97.5933583 150.20698,97.4028455 C149.117923,96.586997 148.162246,95.6026437 147.374853,94.4913559 C147.047846,94.0278562 146.749295,93.5421262 146.485867,93.0372783 C145.533303,91.233742 145,89.1765591 145,86.9984439 C145,79.8165324 150.822979,74 158.001556,74 C165.183468,74 171,79.8165324 171,86.9984439" id="Fill-48" fill="#CDD2EA"></path>
                <path d="M167.68085,93.2964757 C166.705369,91.119763 163.353498,91.072496 164.468831,88.6150525 C165.586991,86.157609 165.121109,78.7821862 159.582508,78.0627997 C159.333907,78.0314356 159.094659,78.0093482 158.864763,78.0029429 C154.164836,77.8609209 153.879043,82.9052401 153.866646,83.1890631 L153.866646,83.2016529 C153.866646,83.2016529 153.869691,83.2270534 153.879043,83.2774127 L153.888395,83.3246797 C154.018895,84.2554425 154.773832,90.2868474 152.667576,92.4447858 C152.611679,92.5046427 152.549692,92.5614073 152.48727,92.6150796 C151.866094,93.1482693 151.925036,93.6845513 152.189079,94.3849426 L152.189079,94.3880348 C152.397225,94.9559017 152.742178,95.6339847 152.959459,96.5110752 C152.996869,96.6656869 153.034061,96.8264831 153.058856,96.9936847 C153.13672,97.4069399 153.176958,97.8579645 153.161515,98.3595692 C154.997421,99.4038612 157.116074,100 159.368055,100 C160.933609,100 162.437177,99.7130847 163.825688,99.1829873 C163.996642,99.1167251 164.167596,99.0504629 164.335287,98.9780163 C164.661317,98.8359943 164.981258,98.6782903 165.295108,98.5110887 C165.525004,98.3911542 165.742285,98.2681274 165.959784,98.1294186 C166.006546,98.1009258 166.053091,98.072654 166.09659,98.041069 C166.633812,97.7035736 167.143411,97.3219034 167.62169,96.9053351 C167.714997,96.6310097 167.798734,96.334376 167.867246,96.0251525 C168.050598,95.1703703 168.090835,94.2082434 167.68085,93.2964757" id="Fill-49" fill="#373482"></path>
                <path d="M162.771682,92.4762817 C162.1609,92.347174 161.569254,92.2372341 161.006425,92.149106 L160.98076,92.1458012 L160.971079,92.1458012 C160.80088,92.1176002 160.633832,92.0924837 160.470161,92.0704517 C160.458455,92.0673672 159.983877,91.9157868 159.756044,87 L155.490025,88.2714685 C155.490025,88.2714685 155.811288,90.1071774 155.18182,91.8060673 C154.565184,91.8375731 154.086554,91.8847216 153.768443,91.9257012 C153.742778,91.9287857 153.717113,91.9287857 153.6946,91.9318702 C153.472621,91.9600712 153.340919,91.9790187 153.305573,91.9790187 C153.305573,91.9790187 153.000069,92.6210321 152.582,93.621727 L152.578848,93.6278959 C152.250831,94.4177443 151.848971,95.4279129 151.469399,96.5198204 C151.305504,96.9917465 151.147911,97.4764511 151,97.96402 C151.064388,98.0083044 151.128775,98.0490636 151.19609,98.0867384 C151.353907,98.1812558 151.514651,98.2755529 151.678547,98.363681 C153.578883,99.4053555 155.77189,100 158.102902,100 C159.7234,100 161.279735,99.7138039 162.716975,99.1850352 C162.81986,98.6185916 162.919593,98.0741802 163.022479,97.5487162 L163.022479,97.5425472 C163.543433,94.8017626 164,92.7593933 164,92.7593933 C163.581931,92.6556224 163.17039,92.561105 162.771682,92.4762817" id="Fill-50" fill="#945C2E"></path>
                <path d="M166.838889,96.0716001 C166.433185,94.796551 166.08928,93.8736084 165.888055,93.5898275 C165.872659,93.5682165 165.857047,93.5494434 165.844687,93.5337263 L165.844687,93.5306702 C165.426623,93.0567562 164.327254,92.7325911 163.29272,92.5330714 C163.243281,92.5236848 163.199913,92.5142982 163.159798,92.5049116 C163.10689,92.4957433 163.060703,92.4863567 163.020371,92.4769701 C162.92106,92.4581969 162.865549,92.4488103 162.865549,92.4488103 C162.035276,92.3053918 161.326216,92.2368478 161.162069,92.2213491 L161.13735,92.2180747 L161.128026,92.2180747 C161.016571,92.392709 160.74097,92.6234447 160.363021,92.8790657 C158.997375,93.8050644 156.318341,95.0927745 155.364471,95.5446409 L155.361652,95.5446409 C155.144597,95.6476752 155.017746,95.7070509 155.017746,95.7070509 C154.661482,95.2610784 154.45722,94.6219166 154.339477,93.9982537 L154.339477,93.9951976 C154.324082,93.9048243 154.308469,93.8111766 154.296109,93.7208033 L154.296109,93.7177472 C154.156683,92.8041912 154.190726,92 154.190726,92 C154.166007,92.0030561 154.141287,92.0030561 154.119603,92.0061122 C153.884334,92.0218293 153.670532,92.0434403 153.475377,92.0746562 L153.475377,92.068544 C153.475377,92.068544 152.936535,92.0218293 151.685379,92.5330714 C150.818244,92.8823401 149.610456,93.5027287 148,94.5907007 C148.76804,95.6819472 149.700227,96.6485484 150.762517,97.4496835 C151.010146,97.6367605 151.264063,97.8177254 151.524269,97.9827549 C151.586284,98.0266317 151.6483,98.0670159 151.713135,98.104344 C151.865138,98.1979917 152.019961,98.2914211 152.177819,98.3787383 C154.008149,99.4108273 156.120368,100 158.365509,100 C159.926309,100 161.425311,99.7164375 162.809605,99.1925344 C162.980039,99.1270465 163.150474,99.0615586 163.317656,98.9899585 C163.642697,98.8495962 163.961665,98.693735 164.274563,98.5284872 C164.50376,98.4099542 164.720382,98.288365 164.93722,98.151277 C164.98384,98.1231172 165.030243,98.0951757 165.073611,98.0639598 C165.609201,97.7304082 166.117252,97.353198 166.594079,96.9414975 C166.733506,96.8262388 166.869897,96.7046496 167,96.5800044 C166.944273,96.40537 166.891581,96.2337917 166.838889,96.0716001" id="Fill-51" fill="#EACF65"></path>
                <path d="M154.566017,88.996441 C154.566017,88.996441 159.764486,89.2141112 159.86254,86.2448515 C159.96082,83.2755918 160.697804,81.3039869 157.382838,81.0395259 C154.067872,80.7748588 153.385313,81.890006 153.089575,82.8736441 C152.793837,83.8574884 153.216416,88.863283 154.566017,88.996441" id="Fill-52" fill="#A36D3C"></path>
                <path d="M156,79.3985856 C156,79.3985856 156.075638,80.4964992 158.009006,82.0777595 C159.942374,83.6585635 160.043598,87 160.043598,87 C160.043598,87 162.027017,81.2329297 160.281285,79.7632636 C158.536002,78.2935975 156,79.3985856 156,79.3985856" id="Fill-53" fill="#373482"></path>
                <path d="M158,78.0274753 C158,78.0274753 155.485841,77.5602245 153.47254,80.4794763 C152.605315,81.7371313 153.064131,83.8499917 153.78807,85 C153.78807,85 154.250533,82.2013978 155.698411,81.3672954 C157.146288,80.5331931 158,78.0274753 158,78.0274753" id="Fill-54" fill="#373482"></path>
                <path d="M180.600918,82 L223.399306,82 C224.28036,82 225,81.3249317 225,80.499895 C225,79.6750683 224.28036,79 223.399306,79 L180.600918,79 C179.720312,79 179,79.6750683 179,80.499895 C179,81.3249317 179.720312,82 180.600918,82" id="Fill-55" fill="#CDD2EA"></path>
                <path d="M223.399306,86 L180.600918,86 C179.720312,86 179,86.6749055 179,87.5 C179,88.3250945 179.720312,89 180.600918,89 L223.399306,89 C224.28036,89 225,88.3250945 225,87.5 C225,86.6749055 224.28036,86 223.399306,86" id="Fill-56" fill="#CDD2EA"></path>
                <path d="M223.399306,92 L180.600918,92 C179.720312,92 179,92.6751155 179,93.5 C179,94.3250945 179.720312,95 180.600918,95 L223.399306,95 C224.28036,95 225,94.3250945 225,93.5 C225,92.6751155 224.28036,92 223.399306,92" id="Fill-57" fill="#CDD2EA"></path>
                <path d="M282.241118,264.337054 L280.654167,264.904292 C280.654167,264.904292 276.503016,257.816004 268.014777,260.682735 C268.014777,260.682735 264.626832,262.113919 266.637546,263.985803 C268.64826,265.857688 268.150986,264.88902 270.927069,267.583399 C273.703151,270.275596 277.493239,271.626058 280.105004,270.718477 L283,269.688723 L282.241118,264.337054" id="Fill-58" fill="#A16D3C"></path>
                <path d="M355,325.174784 C355,325.174784 294.400704,279.500456 277.161593,279.002453 C259.920267,278.50445 204,354 204,354 L238.363074,354 C238.363074,354 283.184763,319.707669 286.220707,312.324988 L315.725385,354 L355,325.174784" id="Fill-59" fill="#2F2C60"></path>
                <path d="M352,195.532503 C352,195.532503 354.73533,211.506951 355.758555,214.82108 L371.784584,221 L372,207.504572 C372,207.504572 368.506227,198.818136 368.53091,186 L352,195.532503" id="Fill-60" fill="#935C2F"></path>
                <path d="M348.393478,199.995352 C348.393478,199.995352 368.463987,200.61145 368.641967,187.65765 C368.819947,174.703851 371.530887,166.05824 358.722833,165.117229 C345.91478,164.175993 343.357944,169.082518 342.283552,173.390707 C341.20916,177.701145 343.175623,199.500674 348.393478,199.995352" id="Fill-61" fill="#A16D3C"></path>
                <path d="M368.900929,187 C368.900929,187 363.423781,169.005926 344.625077,169.943908 C333.524541,170.495662 335.073772,157.552895 335.073772,157.552895 C335.073772,157.552895 349.93542,154.113629 362.011651,157.471741 C382.679486,163.219637 370.75178,184.165364 368.900929,187" id="Fill-62" fill="#575BA1"></path>
                <path d="M366,226.053446 L330.820308,270.04222 C330.820308,270.04222 314.495791,273.162184 305.925865,273.923983 C299.741795,274.46975 280,271.897825 280,271.897825 L280.565833,265.837544 C280.565833,265.837544 292.818132,260.518596 298.639088,259.272429 C304.575884,258.001248 322.392954,254.189979 322.392954,254.189979 C328.612667,241.071119 346.799534,224 346.799534,224 L366,226.053446" id="Fill-63" fill="#E0BD5B"></path>
                <path d="M383.285829,339 L330.415599,334.648496 C330.415599,334.648496 330.267559,333.579002 330.024508,331.785372 C329.947173,331.230572 329.905192,330.651263 329.889725,330.045216 C329.768199,324.720028 331.845181,317.538821 332.737841,310.482389 C333.330002,305.823406 333.405127,301.217898 331.991011,297.231805 C330.364779,292.637437 329.61574,283.912149 329.284307,275.619114 C328.86891,265.231654 329.107542,255.525996 329.103123,255.456925 C328.57283,248.841659 330.132776,241.495573 332.746679,234.51044 C337.90378,220.738477 349.57023,210.638444 354.08877,206.01511 C354.08877,206.01511 362.451936,207.492349 371.442615,206.026251 C372.821377,205.80344 373.557159,207.04227 374.102919,208.102852 C374.102919,208.102852 380.311768,216.023791 382.861595,235.339298 C385.146274,252.627222 383.285829,339 383.285829,339" id="Fill-64" fill="#E6CA66"></path>
                <path d="M330.146003,332 C330.027474,331.464073 329.98564,330.890806 330.004233,330.284594 C330.020502,330.882021 330.06466,331.453091 330.146003,332 M330.973383,321.951365 C331.552085,318.57107 332.305094,314.898651 333,311 C332.497994,314.714151 331.642725,318.463445 330.973383,321.951365" id="Fill-65" fill="#4F3D56"></path>
                <path d="M328.762192,333 L328.762192,333 C328.68256,332.44205 328.639331,331.859452 328.623405,331.249964 C328.691661,328.686532 329.062518,325.838522 329.572163,322.74851 C330.22742,319.190179 331.064693,315.365197 331.556136,311.576067 C331.808683,309.635566 331.970223,307.704029 331.967947,305.824029 C331.965672,303.162002 331.640319,300.59857 330.787119,298.25025 C329.112572,293.629797 328.34128,284.85497 328,276.514851 C328.548323,273.471895 329.831535,270.330346 331.565237,267.291871 C338.181517,266.272324 359.973375,239 367.45423,239 C369.17428,239 370.13669,240.44081 369.984251,243.976734 C369.877317,246.414684 347.289139,299.245149 349.971599,304.311514 C362.962986,328.818737 351.684824,331.431466 351.684824,331.431466 L328.762192,333" id="Fill-66" fill="#E1BC5A"></path>
                <path d="M263.352086,257.098241 L269.739052,252.545123 C269.795021,252.504909 269.85099,252.475866 269.911265,252.455759 L269.91557,252.45129 L270.983294,252 L277,271.206651 L271.857277,275.525187 L270.933782,275.942966 L270.93163,275.942966 L270.918714,275.949668 L270.918714,275.947434 C270.501096,276.123929 269.969387,275.844665 269.747662,275.279435 L263.093766,258.356045 C262.902179,257.871243 263.011965,257.339525 263.352086,257.098241" id="Fill-67" fill="#3A3581"></path>
                <path d="M278.692045,269.669433 L272.386335,274.835478 C271.940859,275.199345 271.248145,274.933526 270.980859,274.295124 L264.096031,257.790362 C263.900021,257.317553 264.01139,256.801166 264.363316,256.563672 L270.974177,252.123183 C271.424108,251.820323 272.06782,252.099215 272.321741,252.704935 L278.903646,268.48632 C279.088519,268.928625 279.001651,269.416687 278.692045,269.669433" id="Fill-68" fill="#595A9F"></path>
                <polyline id="Fill-69" fill="#E1E5F1" points="278 269.002816 271.516273 274 265 259.295224 271.795243 255 278 269.002816"></polyline>
                <path d="M275.029174,271.651005 C274.93695,271.387847 275.070432,271.10562 275.330114,271.023622 C275.589797,270.939717 275.876176,271.086551 275.970826,271.349709 C276.06305,271.612866 275.929568,271.893186 275.669886,271.977091 C275.410203,272.059089 275.123824,271.914162 275.029174,271.651005" id="Fill-70" fill="#3A3581"></path>
                <polyline id="Fill-71" fill="#CDD2EA" points="266 257.657675 270.908978 254 276 266.883751 271 271 266 257.657675"></polyline>
                <path d="M269,265.517199 C269,265.517199 270.151909,264.930146 271.831117,265.517199 C273.510325,266.106544 271.186139,262.178338 272.04611,260.781796 C272.908345,259.385253 273.426591,259 273.426591,259 L277,267.677368 L271.530127,272 L269,265.517199" id="Fill-72" fill="#A7ACD5"></path>
                <path d="M281,273.304052 L277.694697,273.200689 C277.694697,273.200689 274.400376,266.771488 266.858576,269.820707 C266.858576,269.820707 263.834388,271.307072 265.501315,272.965021 C267.170438,274.622969 266.781708,273.740246 269.078948,276.130007 C271.376189,278.521835 274.622193,279.615419 276.943592,278.650005 L279.517555,277.562623 L281,273.304052" id="Fill-73" fill="#A16D3C"></path>
                <path d="M365.117007,209 C365.117007,209 352.041889,214.529672 345.25173,226.344583 C338.461571,238.159493 324.654246,263.699403 324.654246,263.699403 L300.849742,267.575299 L278,272.969014 L278.293773,278.603441 C278.293773,278.603441 300.575999,283.513504 307.99599,283.856741 C326.465845,284.712603 338.523886,281.454086 338.523886,281.454086 C338.523886,281.454086 351.839364,270.978689 358.364682,261.040435 C363.857344,252.680176 379,230.951529 379,230.951529 L365.117007,209" id="Fill-74" fill="#E6CA66"></path>
                <path d="M191.793643,353.986742 L181.683329,354 L180,325 C180,325 193.839439,327.932262 191.793643,353.986742" id="Fill-75" fill="#272253"></path>
                <path d="M383.186962,319.107991 C383.186962,319.107991 388.408177,354 372.388039,354 C356.367901,354 191,354 191,354 L191.505736,332.570001 C191.505736,332.570001 262.470186,326.381766 286.326574,323.531949 C381.652483,312.143739 383.186962,319.107991 383.186962,319.107991" id="Fill-76" fill="#373481"></path>
                <path d="M197.006716,342.796387 C212.387021,340.355204 230.646375,338.273591 249.711684,337.02159 C252.626554,336.830974 255.626497,336.651189 258.62644,336.486566 C261.935333,336.30678 265.286761,336.14649 268.588937,336.005694 C269.721752,335.955874 271.038145,336.241798 272.309762,336.519057 C273.494068,336.776822 274.716433,337.043251 275.694772,337.008594 C288.247519,336.560213 299.752524,336.675016 309.900838,336.774656 C312.562728,336.802815 315.16641,336.828808 317.723078,336.843971 C340.798012,336.984767 353.87239,336.986933 354,336.980435 C353.87239,336.989099 340.871891,337.695244 317.765614,337.554449 C315.208946,337.539286 312.603026,337.513293 309.941136,337.485134 C299.801777,337.385493 288.307965,337.270691 275.775368,337.719071 C274.682851,337.758061 273.40004,337.478635 272.162004,337.207874 C270.946355,336.943611 269.692648,336.670684 268.676249,336.714005 C265.378551,336.854801 262.029361,337.017258 258.724946,337.197044 C255.727242,337.3595 252.731776,337.539286 249.821384,337.729902 C230.78294,338.979736 212.351201,340.565314 197,343 L197.006716,342.796387" id="Fill-77" fill="#2F2C60"></path>
                <path d="M371.966419,329.98714 C362.146737,326.358576 360.016405,318.179359 360,318.091979 L360.553089,318 C360.569495,318.08508 362.833412,326.213709 371.966419,329.98714 C371.846895,329.94575 372.083599,330.03083 371.966419,329.98714" id="Fill-78" fill="#272253"></path>
                <path d="M619.987165,83.1715396 C619.844727,83.1668273 619.730776,83.0505192 619.732967,82.9104354 C619.820622,76.2369631 619.820622,70.2090757 619.820622,70.2090757 L599.732384,67 C599.042105,72.0410891 598.92158,80.0659203 599.039913,85.032041 C599.039913,85.0941576 604.353972,88.4186847 609.50587,87.9558084 C614.975515,87.4646583 620.296148,83.1820352 619.987165,83.1715396" id="Fill-79" fill="#945C2E"></path>
                <path d="M597.473335,61.578072 C597.473335,61.578072 584.129503,40.4471385 609.750969,39.0488049 C609.750969,39.0488049 619.362016,40.184992 621.53584,38 C621.53584,38 628.990507,49.3789531 622.028602,61.578072 C615.068878,73.77741 597.473335,61.578072 597.473335,61.578072" id="Fill-80" fill="#2F2C60"></path>
                <path d="M620.343515,72.7145291 C618.368001,74.2722552 612.570201,75.8190913 610.894344,76 C610.894344,76 602.297529,74.0806787 600.734875,73.1367976 C598.313206,71.6679701 598.470803,68.6947556 598.346501,64.5614141 C598.197783,59.6688783 597.705014,55.8264576 598.251055,53.0057042 C598.899201,49.631557 601.034532,47.7122357 607.016565,47.190623 C617.997315,46.2362963 622.572072,48.9894867 622.765184,52.6758903 C622.814017,53.6657765 622.86063,54.6094354 622.891706,55.5035333 C623.331202,66.9987921 622.423354,71.0754607 620.343515,72.7145291" id="Fill-81" fill="#A36D3C"></path>
                <path d="M620.896126,184 L653.362016,184 L658,277.979303 L612.86487,325 L612.86487,290.619275 C612.86487,290.619275 624.295995,273.943382 632.025969,267.479256 L611,210.501809 L620.896126,184" id="Fill-82" fill="#2F2C60"></path>
                <path d="M612,354 L593,354 C593.356735,351.011541 594.947638,345.297123 601.871837,345.090713 C610.227405,344.049688 611.769563,352.276925 612,354" id="Fill-83" fill="#272253"></path>
                <path d="M626.295612,185 L628,207.218905 C628,207.218905 626.045034,207.647867 624.841804,208.923583 C624.388053,209.399463 624.040403,210.000457 623.950104,210.746672 C623.613742,213.456731 624.062978,240.309322 624.062978,240.309322 L624.06072,240.447841 C623.198368,268.102502 620.162075,346.843887 620.162075,346.843887 C620.162075,346.843887 597.853786,349.596395 593.031836,348.881458 C589.4989,348.360894 589.252836,255.347577 589.37474,205.670619 L589,187.701122 L625.570966,185.05362 L626.295612,185" id="Fill-84" fill="#373482"></path>
                <path d="M591.430254,199.974187 C602.345109,199.186902 606,191 606,191 C605.961504,191.077438 601.855978,198.844885 591,199.445029 L591.033967,200 C591.165308,199.991396 591.298913,199.982792 591.430254,199.974187" id="Fill-85" fill="#272253"></path>
                <path d="M591.367148,338.966691 C593.04508,325.212213 594.293493,308.986194 594.75111,292.160608 C594.821359,289.589138 594.87555,286.944388 594.917699,284.301859 C594.961855,281.386194 594.989955,278.434999 595,275.532657 C595.001997,274.535602 594.692905,273.420854 594.39184,272.346078 C594.112854,271.342361 593.82584,270.307555 593.821825,269.448178 C593.777669,258.418392 593.257832,248.379001 592.798207,239.520975 C592.677781,237.198214 592.559363,234.924306 592.452986,232.69259 C591.487574,212.540526 591.011892,201.113251 591.013899,201 C591.011892,201.113251 590.835268,212.567174 591.800681,232.745885 C591.907057,234.977601 592.025475,237.251509 592.145901,239.57649 C592.605526,248.425634 593.125363,258.456143 593.169519,269.468163 C593.173534,270.429689 593.474598,271.513348 593.765627,272.561477 C594.052641,273.589621 594.347684,274.653295 594.345677,275.545981 C594.337649,278.446102 594.30955,281.395076 594.263386,284.3063 C594.223244,286.946609 594.167046,289.589138 594.098805,292.156167 C593.641187,308.957326 592.856413,325.269949 591.180488,339 L591.367148,338.966691" id="Fill-86" fill="#2F2C60"></path>
                <path d="M654.948575,186.292609 C654.65056,186.703046 639.442994,187.861144 623.526815,188.775197 L623.5224,188.775197 C606.299373,189.762464 588.250735,190.465753 587.363315,189.627131 C585.656906,188.00757 585.965958,184.26483 587.363315,180.832691 C588.760671,177.400552 592.950534,150.580392 587.983626,131.393027 C583.016719,112.205661 580.08514,90.7626673 595.513458,86.4424318 L600.09405,85.9246158 C602.109511,87.7212197 606.060961,89.5710695 612.297189,88.3983295 C616.442901,87.6184996 619.184634,85.8746978 620.988174,84 L633.862397,84.9482199 L646.111895,123.086008 C646.111895,123.086008 646.138385,124.421147 646.191365,126.604671 C646.394456,134.849348 647.036843,155.178616 648.509255,161.270829 C650.372397,168.978832 655.571094,185.43402 654.948575,186.292609" id="Fill-87" fill="#C0551E"></path>
                <path d="M654.94785,187.496529 C654.645636,187.910419 639.223786,189.078257 623.08334,190 L623.078862,190 C617.09951,187.946214 637.873899,168.779787 638.9753,165.161276 C640.0767,161.543884 638.659654,139.996139 635.984504,130.867532 C633.309354,121.738702 641.65045,112 641.65045,112 L646.067246,127.306519 C646.273199,135.620547 646.924638,156.120817 648.417797,162.264275 C650.307192,170.037115 655.579141,186.630718 654.94785,187.496529" id="Fill-88" fill="#B65224"></path>
                <path d="M625.424228,135.605759 L613.354988,136.995706 C612.997845,137.036786 612.6775,136.778506 612.636374,136.418619 L610.004345,113.119915 C609.963219,112.760246 610.21863,112.435321 610.575772,112.394241 L622.642848,111.004294 C623,110.963214 623.3225,111.221494 623.363626,111.581162 L625.995655,134.880085 C626.036781,135.239754 625.78137,135.564679 625.424228,135.605759" id="Fill-89" fill="#373482"></path>
                <path d="M614.396007,114.633252 L611.758741,114.994662 C611.386037,115.045993 611.046026,114.721248 611.004614,114.273414 C610.961023,113.825842 611.231288,113.417554 611.603993,113.366486 L614.241259,113.005338 C614.613963,112.954007 614.953974,113.278752 614.995386,113.726586 C615.038977,114.174158 614.768712,114.582446 614.396007,114.633252" id="Fill-90" fill="#595AA1"></path>
                <path d="M663.077977,145.388605 C659.992304,143.415672 631.292588,132.207858 631.292588,132.207858 C631.292588,132.207858 629.80765,123.147254 621.474742,123 C621.474742,123 618.057568,123.244813 619.254147,125.980811 C620.448454,128.717039 620.307681,127.504424 621.92431,131.3967 C623.54094,135.289205 626.458593,138.140625 629.031123,138.156656 L642.066334,151.184652 C659.015968,165.191443 668.352458,161.582682 668.352458,161.582682 C671.043057,153.987522 664.574268,146.344498 663.077977,145.388605" id="Fill-91" fill="#9E6D3D"></path>
                <path d="M581.824966,152.605975 C584.213702,149.97689 608.266948,132.148256 608.266948,132.148256 C608.266948,132.148256 607.324724,123.361206 615.110234,121.06577 C615.110234,121.06577 618.379264,120.407728 617.963447,123.254544 C617.54763,126.101581 617.366263,124.94042 616.853127,128.969113 C616.337779,132.997585 614.333895,136.397986 611.923041,137.079388 L603.044905,152.537879 C590.742914,169.91915 581.048627,168.991368 581.048627,168.991368 C576.565323,162.6441 580.668198,153.879969 581.824966,152.605975" id="Fill-92" fill="#9E6D3D"></path>
                <path d="M620,85.0447156 C620,85.0447156 639.793694,84.3908049 648.491361,88.0842267 C648.491361,88.0842267 651.652128,90.4877118 654.586174,101.286069 C657.598016,112.369688 669.74541,145.056951 669.74541,145.056951 C669.74541,145.056951 673.312942,157.802956 668.416198,163.563407 C667.471524,164.67539 660.640977,163.56676 656.295478,161.330497 C656.295478,161.330497 663.248277,150.808906 659.489587,145.339754 L651.769935,142.094121 L639.898164,122.435441 L620,85.0447156" id="Fill-93" fill="#C4541C"></path>
                <path d="M586.334847,149.425923 C582.736967,156.310079 589.743596,166.560643 589.743596,166.560643 C585.903805,169.435466 582.31912,170.004368 580.867653,170 C577.590855,169.995582 572.94396,160.812973 571.705814,155.94875 C570.469867,151.084526 571.232987,96.5492101 571.232987,96.5492101 C583.667225,87.4878501 599,87 599,87 L593.119358,124.592135 L588.745162,142.387571 C588.745162,142.387571 588.679187,141.772981 588.481259,141.562992 L588.470263,141.562992 C588.250344,141.630865 587.436642,148.539622 587.436642,148.539622 C587.331081,148.62309 587.216723,148.712709 587.093568,148.811553 L586.348042,149.398247 L586.334847,149.425923" id="Fill-94" fill="#C4541C"></path>
                <path d="M588.998483,141.135333 C588.77581,141.203734 587.95192,148.166296 587.95192,148.166296 C587.845037,148.250414 587.729247,148.340731 587.60455,148.440344 C587.37297,148.623855 587.11467,148.83238 586.836328,149.0595 C584.899074,150.637603 582.129023,153 582.129023,153 C581.434283,151.842266 580.165048,151.587034 578.36585,151.353495 C576.564426,151.120177 581.964245,143.49463 582.670118,141.004506 C583.373764,138.514604 584.39138,125.442175 586.89645,127.153983 C588.769129,128.433245 589.022977,136.837108 588.998483,141.135333" id="Fill-95" fill="#B65224"></path>
                <path d="M48.9967666,213.100256 L50.9250322,214 L62,193.169702 L60.6524493,193.013419 C59.8858348,192.924114 59.1364824,193.285798 58.7237411,193.942187 L48.2666681,210.60196 C47.7118463,211.486075 48.0550967,212.662664 48.9967666,213.100256" id="Fill-96" fill="#A94114"></path>
                <path d="M79.6992435,200.230697 L68.1162894,195.069864 L73.5502426,185.203631 L72.1124244,185 L66.0495109,194.148052 L66.5047064,194.351683 L63.1568388,192.858391 C62.1112974,192.394201 60.8697312,192.768619 60.2859725,193.725464 L50.3098313,210.079413 C49.6383952,211.178581 50.0985878,212.597427 51.3008582,213.133873 L70.748655,221.800218 C71.9229868,222.323527 73.3119691,221.780512 73.7780675,220.617847 L80.8490438,202.967668 C81.2747106,201.905723 80.7715878,200.708024 79.6992435,200.230697" id="Fill-97" fill="#C2541E"></path>
                <polyline id="Fill-98" fill="#DAA9AE" points="57.8415912 311 47 325.201801 52.0588521 330 66 321.540873 57.8415912 311"></polyline>
                <path d="M42,326.325232 L47.19007,321 C57.4193282,335.014475 53.3143703,344.438617 52.506059,346 L42,326.325232" id="Fill-99" fill="#C2541E"></path>
                <path d="M116,201 C116,201 113.466645,272.586069 110.987073,280.438776 C108.5075,288.2937 67.8440791,331 67.8440791,331 L49,316.765306 C49,316.765306 82.7210663,272.586069 81.7292373,269.640195 C80.7374082,266.694321 71.3152566,202.878882 71.3152566,202.878882 L116,201" id="Fill-100" fill="#373481"></path>
                <path d="M73.0452551,199.481816 C72.8130619,196.917472 70.1930416,167.935705 70.0013654,164.689907 C69.8007844,161.292651 91.7660781,106.298909 91.7660781,106.298909 C98.5934026,100.185849 101.72545,117.253309 105.708798,124.206843 C108.849973,129.690493 85.5839077,161.406078 83.7041004,164.243983 C81.8242932,167.081665 78.4669539,199.143759 78.4669539,199.143759 C78.4669539,199.143759 83.3848627,205.15985 78.0544382,211.812022 C78.0544382,211.812022 75.6710635,214.376367 74.6723881,211.969931 C73.67349,209.563495 74.3694016,210.324124 72.8943184,206.965789 C71.7843327,204.439253 72.3301981,201.427872 73.0452551,199.481816" id="Fill-101" fill="#DAA9AE"></path>
                <path d="M80.5686207,157.608972 C79.6075109,142.726312 77.3429841,124.650523 81.0492842,112.217856 C84.8945922,99.3195805 91.9323051,102.207609 91.0131149,78 L102.750383,85.7931705 C102.750383,85.7931705 102.842693,99.8448192 109.487709,108.662463 C109.487709,108.662463 113.794349,114.074238 118.840122,126.572812 C121.844214,134.014254 81.5299477,172.490736 80.5686207,157.608972" id="Fill-102" fill="#CA8F96"></path>
                <polyline id="Fill-103" fill="#DAA9AE" points="111 332.294131 118.319329 349 125 346.736781 124.248446 330 111 332.294131"></polyline>
                <path d="M115.360262,184.450853 L80.6367046,172 C80.6367046,172 55.9506199,185.656925 81.7935039,271.067326 L104.071185,337 L126,333.774148 L115.360262,184.450853" id="Fill-104" fill="#575BA0"></path>
                <path d="M112.805783,325.99777 C108.895157,312.927101 105.024176,297.381433 101.858569,281.124482 C101.374808,278.640564 100.893274,276.080836 100.426885,273.523337 C99.9132785,270.700501 99.4116992,267.839759 98.9357334,265.023612 C98.7722524,264.05591 98.9072244,262.923207 99.0381874,261.826181 C99.1597959,260.809425 99.2851907,259.754763 99.1504414,258.920845 C97.4232,248.204769 96.3383008,238.371666 95.380801,229.695792 C95.1295659,227.419239 94.8838989,225.19174 94.6335547,223.008836 C92.373775,203.284656 91.0198226,192.109257 91,192 C91.0202681,192.109257 93.039949,203.199927 95.3032923,222.950863 C95.5536365,225.135997 95.7993035,227.363496 96.0507613,229.640049 C97.0069248,238.309233 98.0911557,248.133418 99.8157245,258.831655 C99.9662874,259.763682 99.8342107,260.867398 99.7072568,261.933208 C99.5823074,262.978951 99.4535717,264.060369 99.6001255,264.927733 C100.074978,267.741651 100.576334,270.597933 101.089718,273.41854 C101.554993,275.973809 102.036304,278.529078 102.519397,281.010766 C105.68055,297.24542 109.096278,312.949398 113,326 L112.805783,325.99777" id="Fill-105" fill="#373481"></path>
                <path d="M71.0798646,183.937762 C72.0615461,186.229642 111.16534,187.04611 115.092066,184.099725 C119.01857,181.153339 111.000987,168.71773 110.836412,162.826291 C110.674499,156.93463 119.509189,130.913035 118.976872,125.348183 C118.517748,120.558532 110.156599,108.983986 107.832591,105.849236 C107.457308,105.34094 107.238836,105.053845 107.238836,105.053845 L88.4919576,99.3682981 L87.2771655,99 C83.2275631,102.417186 80.5699698,107.781027 78.8716564,113.972207 C73.9756697,131.799613 77.0189711,156.492894 77.6251472,161.353542 C78.2362029,166.255901 73.7081804,175.198446 71.811357,180.341309 C71.1756817,182.06521 70.8345551,183.363128 71.0798646,183.937762" id="Fill-106" fill="#E8CD66"></path>
                <g id="Group-109" transform="translate(71.000000, 114.000000)">
                    <mask id="mask-2" fill="white">
                        <use xlink:href="#path-1"></use>
                    </mask>
                    <g id="Clip-108"></g>
                    <polygon id="Fill-107" fill="#E1BE56" mask="url(#mask-2)" points="0 71 37.2191358 71 37.2191358 0 0 0"></polygon>
                </g>
                <path d="M117.143033,354 L115,347.418762 C131.856704,345.168802 138.036672,352.65496 139,354 L117.143033,354" id="Fill-110" fill="#C2541E"></path>
                <path d="M51,119 C51.829539,118.335834 52.5138747,117.664166 53,117 C52.9175445,117.088149 52.1980972,117.861095 51,119" id="Fill-111" fill="#C2541E"></path>
                <path d="M139.961825,143.472815 L137.770359,137.86736 C137.751627,137.819441 137.727096,137.776116 137.697437,137.737387 L137.695876,137.73323 L137.200359,137 L125,146.154322 L126.48142,151.06834 L126.902006,151.730457 L126.903121,151.732207 L126.908919,151.741397 L126.910258,151.740522 C127.106056,152.032195 127.571466,152.093899 127.95994,151.8438 L139.587401,144.359211 C139.92057,144.144778 140.078457,143.771052 139.961825,143.472815" id="Fill-112" fill="#3A3581"></path>
                <path d="M124.021652,145.432883 L125.717868,151.573778 C125.837596,152.006704 126.396175,152.137125 126.849429,151.83779 L138.583638,144.092668 C138.919641,143.870771 139.079203,143.484036 138.961501,143.175644 L136.749915,137.37484 C136.59913,136.979501 136.065982,136.877609 135.635233,137.162 L124.416393,144.56703 C124.100645,144.775342 123.938382,145.131284 124.021652,145.432883" id="Fill-113" fill="#595A9F"></path>
                <polyline id="Fill-114" fill="#E1E5F1" points="126 143.82723 127.628148 150 138 142.830981 135.877244 137 126 143.82723"></polyline>
                <path d="M125.74902,146.862497 C125.988414,146.672303 126.071062,146.355858 125.93341,146.155597 C125.795759,145.955336 125.490247,145.947446 125.250853,146.137367 C125.011459,146.327833 124.929097,146.644278 125.066463,146.844539 C125.204114,147.044527 125.509626,147.05269 125.74902,146.862497" id="Fill-115" fill="#3A3581"></path>
                <polyline id="Fill-116" fill="#CDD2EA" points="137 143.266406 135.423305 139 127 144.424874 128.447087 149 137 143.266406"></polyline>
                <path d="M131.883715,146.03649 C131.883715,146.03649 131.416216,145.161643 130.123708,144.795594 C128.831199,144.429544 131.934564,142.980493 131.988773,141.725367 C132.042982,140.470471 131.883267,140 131.883267,140 L126,143.888158 L127.575651,149 L131.883715,146.03649" id="Fill-117" fill="#A7ACD5"></path>
                <path d="M136.683173,145 C134.471008,144.994177 135.292493,145.292318 132.179452,145.220519 C129.066411,145.148939 126.076207,146.414836 125.013459,148.364358 L124.60415,149.126567 C108.398738,155.985135 87,163.536302 87,163.536302 L87.2194301,169.139042 C87.2194301,169.139042 88.1233941,171.190133 95.3692197,171.978172 C102.615266,172.764022 127.835176,152.069674 127.835176,152.069674 C127.835176,152.069674 134.14881,153.969068 137.651532,147.684455 C137.651532,147.684455 138.895337,145.005997 136.683173,145" id="Fill-118" fill="#DCABB0"></path>
                <path d="M79.1543323,126.85406 C79.2783064,135.606576 84.206162,170.498423 90.747694,171.865179 C96.064479,172.974845 108,166.869926 108,166.869926 L102.646515,156.769111 C102.646515,156.769111 100.821367,157.494459 99.3341261,157.853067 C97.5588807,158.280893 101.852321,120.369877 101.520455,112.26646 C101.191051,104.163044 89.3061043,104 89.3061043,104 C87.0110184,104.510666 85.2183182,105.342146 83.8192467,106.41204 L83.8192467,106.414237 C77.9016128,110.943871 79.0556454,119.774393 79.1543323,126.85406" id="Fill-119" fill="#E8CD66"></path>
                <path d="M116.001921,60 C116.001921,60 122.2554,62.5920272 120.772575,67.4071623 C119.289962,72.2222973 116.706592,73.9917278 115.44549,77.5888041 C114.184175,81.1858804 116.001921,60 116.001921,60" id="Fill-120" fill="#C2541E"></path>
                <path d="M83,107 L85.7732067,103 C90.998012,104.253982 101.636258,106.067504 105.885858,106.067711 C106.254735,106.067711 106.575681,106.054013 106.840742,106.025165 C106.889999,106.087636 106.943233,106.155087 107,106.227313 C106.737147,106.224615 106.440278,106.222747 106.114253,106.222747 C103.878458,106.222747 100.287757,106.307632 97.1664366,106.759041 C93.6073223,104.609713 88.6480203,104.544752 88.6480203,104.544752 C86.3826274,105.027085 84.6131205,105.812432 83.2321498,106.822965 L83.2321498,106.82504 C83.1537357,106.88253 83.0759843,106.941057 83,107" id="Fill-121" fill="#E1BE56"></path>
                <path d="M89.1846161,109 C85.9099923,108.999754 83,107.562746 83,107.562746 L83.3931006,106.910925 C83.4714474,106.841043 83.5516163,106.771654 83.6324684,106.703494 L83.6324684,106.701033 C85.0563763,105.502953 86.8809007,104.57185 89.2167292,104 C89.2167292,104 94.3302258,104.077018 98,106.625246 C96.1738814,106.929134 94.5028621,107.372785 93.3319871,108.01747 C92.0117065,108.744587 90.5659343,109 89.1846161,109" id="Fill-122" fill="#E1BE56"></path>
                <path d="M107.386225,94.6537667 C107.386225,94.6537667 96.4745567,96.6905747 89.7409828,92.0891192 C89.7409828,92.0891192 86.2389965,91.2783897 85.4655984,94.5474888 C84.6922002,97.8161441 81.496621,100.552079 83.8510347,101.830298 C86.205672,103.108073 108.213077,107.27288 108.861676,105.616143 C109.510498,103.959406 107.659308,102.392084 107.78366,100.779944 C107.908459,99.1675818 108.576069,94.6757322 107.386225,94.6537667" id="Fill-123" fill="#E8CD66"></path>
                <path d="M101.550329,101 C97.1968944,101 91.0796483,99.5757585 88.996925,98.641134 C86.8534771,97.679091 86.1835689,94 88.2460507,94 C88.7268945,94 89.356535,94.200199 90.1504764,94.6813293 C93.2192202,96.5420915 99.5048585,98.8731037 102.665335,99.9929122 C103.184078,100.176791 103.071458,100.942552 102.522568,100.973887 C102.210547,100.991513 101.885821,101 101.550329,101" id="Fill-124" fill="#E1BE56"></path>
                <path d="M108.098697,91.9872046 C108.098697,91.9872046 88.8860467,88.5101464 91.1921524,76.3343092 C93.4982581,64.1584721 92.571497,55.5094432 104.935732,57.2145783 C117.299967,58.9197135 118.796187,64.0344374 118.995208,68.2895516 C119.194229,72.5446657 113.1557,92.5778456 108.098697,91.9872046" id="Fill-125" fill="#DAA9AE"></path>
                <path d="M36.5149778,121.67693 C41.2985093,120.253097 50.9461911,117.118245 55.8101181,113.639709 C52.4011261,116.544542 45.2401214,122.032271 38.1032353,123.680518 C42.6598729,128.483794 53.40138,135.244475 59.7854517,139.067143 C62.6877288,137.991254 65.7876448,135.202776 65.9057815,135.095837 C64.8579603,137.280123 62.3873623,139.056382 61.1209101,139.861225 C63.3621576,141.186414 64.8057033,142 64.8057033,142 C64.8057033,142 96.1550304,118.947189 97.5318031,93.0175687 C97.7598137,88.7220835 102.440394,77.6614333 113.545691,68.0169928 C124.650988,58.3725524 111.492256,53.5343026 111.492256,53.5343026 L110.196326,52.9850365 C85.2136512,47.0022954 77.1423908,69.2652842 65.8014907,92.8848481 C59.0103052,107.024751 36,120.469441 36,120.469441 C36.076599,120.837337 36.2507893,121.241776 36.5149778,121.67693" id="Fill-126" fill="#C2541E"></path>
            </g>
        </g>
    </g>
</svg>