<svg id="Capa_1" enable-background="new 0 0 512 512" height="512" viewBox="0 0 512 512" width="512" xmlns="http://www.w3.org/2000/svg"><g id="Pie_Chart"><path d="m0 368h512v64h-512z" fill="#ffce33"/><path d="m32 80h448v288h-448z" fill="#fffa50"/><path d="m32 368h448v32h-448z" fill="#ffa65c"/><g fill="#ffce33"><path d="m256 272h192v32h-192z"/><path d="m256 208h192v32h-192z"/><path d="m256 144h192v32h-192z"/><g><path d="m128 240v-94.387c-36.516 7.414-64 39.684-64 78.387 0 44.184 35.816 80 80 80 38.703 0 70.973-27.484 78.387-64z"/><path d="m160 208h62.387c-6.363-31.344-31.043-56.023-62.387-62.387z"/></g></g></g></svg>