<?xml version="1.0" encoding="UTF-8"?>
<svg width="585px" height="362px" viewBox="0 0 585 362" version="1.1" xmlns="http://www.w3.org/2000/svg" xmlns:xlink="http://www.w3.org/1999/xlink">
    <title>Group 5</title>
    <g id="Page-1" stroke="none" stroke-width="1" fill="none" fill-rule="evenodd">
        <g id="3--Data-driven" transform="translate(-428.000000, -662.000000)" fill-rule="nonzero">
            <g id="Group-5" transform="translate(428.000000, 662.000000)">
                <path d="M76.4578243,355.612438 C76.4578243,355.612438 -61.1823069,268.999868 32.8861903,176.148055 C126.949912,83.2962414 252.836257,-11.6321302 337.218985,25.0904127 C421.601713,61.8177404 414.00784,108.243647 506.691292,175.454274 C599.374744,242.669685 577.935188,296.023832 561.333741,323.047796 C544.732295,350.07176 541.966979,357 541.966979,357 L76.4578243,355.612438" id="Fill-121" fill="#E7F3FE"></path>
                <path d="M274.30808,4.30274731 C272.916426,4.30274731 271.242713,5.51936546 270.726667,6.90629097 L268.503062,12.8814405 C268.292621,13.4470528 268.303413,13.9560559 268.533475,14.2765216 C268.782177,14.6243324 269.24132,14.6972527 269.582734,14.6972527 L275.692377,14.6972527 C277.108068,14.6972527 278.748424,13.5046215 279.273299,12.093709 L281.496905,6.1185595 C281.707836,5.55246745 281.696554,5.04394409 281.466982,4.72299869 C281.21828,4.37566764 280.759137,4.30274731 280.417723,4.30274731 L274.30808,4.30274731 Z M275.692377,17 L269.582734,17 C268.32843,17 267.242871,16.4890779 266.604682,15.5977228 C265.927741,14.652637 265.813445,13.3755717 266.290738,12.093709 L268.514344,6.1185595 C269.373765,3.80909585 271.918673,2 274.30808,2 L280.417723,2 C281.672518,2 282.758077,2.51092206 283.395775,3.40227716 C284.072226,4.34736304 284.186521,5.6244283 283.709229,6.90629097 L281.485623,12.8814405 C280.626201,15.1909041 278.081294,17 275.692377,17 L275.692377,17 Z" id="Fill-34" fill="#9CD499"></path>
                <path d="M265.308014,29.3027473 C263.91637,29.3027473 262.24267,30.5193655 261.726629,31.906291 L259.503041,37.8814405 C259.292603,38.4470528 259.303394,38.9555762 259.533455,39.2770013 C259.781664,39.6243324 260.241294,39.696773 260.582705,39.696773 L266.692299,39.696773 C268.107978,39.696773 269.748322,38.5051012 270.273193,37.093709 L272.497271,31.1185595 C272.70771,30.5524675 272.696428,30.0439441 272.466858,29.7229987 C272.218158,29.3756676 271.759018,29.3027473 271.417116,29.3027473 L265.308014,29.3027473 Z M266.692299,42 L260.582705,42 C259.327921,42 258.242861,41.4885982 257.604677,40.5977228 C256.927741,39.652637 256.813447,38.3755717 257.290736,37.093709 L259.514324,31.1185595 C260.373738,28.8090959 262.918625,27 265.308014,27 L271.417116,27 C272.672391,27 273.757451,27.5114018 274.395635,28.4022772 C275.072571,29.347363 275.186375,30.6244283 274.709086,31.906291 L272.485498,37.8814405 C271.626084,40.1909041 269.081687,42 266.692299,42 L266.692299,42 Z" id="Fill-35" fill="#9CD499"></path>
                <path d="M256.308033,55.303227 C254.89186,55.303227 253.252003,56.4948988 252.726641,57.906291 L250.503047,63.8809608 C250.292608,64.4470528 250.30389,64.9560559 250.533461,65.2770013 C250.782162,65.6243324 251.241302,65.6972527 251.582714,65.6972527 L257.692322,65.6972527 C259.108005,65.6972527 260.748352,64.5051012 261.273224,63.093709 L263.497308,57.1190392 C263.707747,56.5529472 263.696465,56.0439441 263.466404,55.7229987 C263.218194,55.3756676 262.759053,55.303227 262.417641,55.303227 L256.308033,55.303227 Z M257.692322,68 L251.582714,68 C250.327927,68 249.242374,67.4885982 248.604679,66.5977228 C247.927741,65.652637 247.813446,64.3755717 248.290737,63.093709 L250.51433,57.1190392 C251.373746,54.8090959 253.91864,53 256.308033,53 L262.417641,53 C263.671938,53 264.757491,53.5114018 265.395677,54.4022772 C266.072124,55.347363 266.186418,56.6244283 265.709619,57.906291 L263.486026,63.8809608 C262.626609,66.1909041 260.081716,68 257.692322,68 L257.692322,68 Z" id="Fill-36" fill="#9EC8FF"></path>
                <path d="M324.411749,13 L291.778591,13 C291.166916,13 290.848216,12.5499893 291.071163,11.9997859 C291.293634,11.4500107 291.976766,11 292.588441,11 L325.221599,11 C325.833274,11 326.151498,11.4500107 325.929027,11.9997859 C325.70608,12.5499893 325.023424,13 324.411749,13" id="Fill-37" fill="#9EC8FF"></path>
                <path d="M322.411749,17 L289.778591,17 C289.166916,17 288.848216,16.5503212 289.071163,16 C289.293634,15.4501071 289.976766,15 290.588441,15 L323.221599,15 C323.833274,15 324.151498,15.4501071 323.929027,16 C323.706556,16.5503212 323.023424,17 322.411749,17" id="Fill-38" fill="#9EC8FF"></path>
                <path d="M316.41129,36 L283.778395,36 C283.166725,36 282.848504,35.5499893 283.070972,34.9997859 C283.293918,34.4495825 283.976568,34 284.588715,34 L317.221134,34 C317.83328,34 318.151501,34.4495825 317.929032,34.9997859 C317.706087,35.5499893 317.02296,36 316.41129,36" id="Fill-39" fill="#9EC8FF"></path>
                <path d="M314.411493,40 L281.778176,40 C281.166498,40 280.848273,39.5503212 281.071221,39 C281.293692,38.4501071 281.976352,38 282.588507,38 L315.221824,38 C315.833502,38 316.151727,38.4501071 315.928779,39 C315.706308,39.5503212 315.023648,40 314.411493,40" id="Fill-40" fill="#9EC8FF"></path>
                <path d="M306.411585,61 L273.778862,61 C273.166719,61 272.8485,60.5503212 273.070967,60 C273.293911,59.4501071 273.976558,59 274.588702,59 L307.220948,59 C307.833091,59 308.151787,59.4501071 307.928843,60 C307.705899,60.5503212 307.023252,61 306.411585,61" id="Fill-41" fill="#9EC8FF"></path>
                <path d="M305.411749,66 L272.778591,66 C272.166916,66 271.848216,65.5498929 272.071163,65 C272.293634,64.4496788 272.976766,64 273.588441,64 L306.221599,64 C306.833274,64 307.151498,64.4496788 306.929027,65 C306.70608,65.5498929 306.023424,66 305.411749,66" id="Fill-42" fill="#9EC8FF"></path>
                <path d="M274.390907,14 C274.290175,14 274.188965,13.9860759 274.089664,13.9582278 C273.743544,13.8597647 273.461875,13.5986884 273.327723,13.2520785 L271.083436,7.44574143 C270.846643,6.83407693 271.131177,6.13886802 271.717909,5.89271035 C272.304642,5.64655269 272.972533,5.94293646 273.208849,6.55410367 L274.888842,10.899408 L288.154532,0.24799192 C288.655332,-0.153816952 289.37526,-0.0573430395 289.761482,0.464809578 C290.148181,0.986962197 290.05461,1.73637553 289.55381,2.13868169 L275.090308,13.7518532 C274.88741,13.9144664 274.641068,14 274.390907,14" id="Fill-43" fill="#F37168"></path>
                <path d="M264.391086,39 C264.290355,39 264.189145,38.9865732 264.089846,38.9582278 C263.744207,38.860262 263.462062,38.5986884 263.32839,38.2520785 L261.083168,32.4457414 C260.846855,31.8340769 261.131386,31.138868 261.718113,30.8927104 C262.305317,30.6465527 262.972725,30.9429365 263.209039,31.5541037 L264.889017,35.899408 L278.154584,25.2479919 C278.655856,24.846183 279.3753,24.942657 279.761519,25.4648096 C280.148214,25.9864649 280.054643,26.7358782 279.553371,27.1386817 L265.09048,38.7518532 C264.887584,38.9144664 264.641245,39 264.391086,39" id="Fill-44" fill="#F37168"></path>
                <path d="M181.287893,110.630145 C201.744084,92.5355674 216.768621,103.327571 227.957922,115.390623 C236.874846,125.006789 238.121298,127.139483 245.489745,137.098403 C246.582787,138.578912 247.421745,140.221277 247.460097,142.054061 C247.666241,153.069807 253.337597,199.632044 247.033427,215.698658 C239.679362,234.426379 149,243 149,243 L181.287893,110.630145" id="Fill-122" fill="#303C60"></path>
                <path d="M238.926923,226 C238.435568,226 238.025311,225.615012 238.001459,225.120707 C237.972837,224.60739 238.368782,224.174872 238.883989,224.146355 C241.560201,224.013273 243.740288,222.815533 245.543511,220.481841 C255.661595,207.420771 249.975241,163.822084 245.018763,140.114436 C244.913814,139.615378 245.233433,139.125826 245.739098,139.021261 C246.239994,138.911943 246.731348,139.235143 246.836298,139.738954 C247.919185,144.914902 251.539943,163.289755 252.670535,182.429831 C253.82975,202.092729 251.926348,215.272622 247.017574,221.61304 C244.889962,224.360237 242.185127,225.8384 238.974627,226 L238.926923,226" id="Fill-123" fill="#303C60"></path>
                <path d="M189.349777,105 C150.248645,126.629596 174.09266,199.774356 124.492723,225.853878 C110.75655,233.079642 68.5420119,269.742642 96.2003057,318.081332 C114.294294,349.70299 168.366473,342.887402 186.169622,314.900088 C203.972771,286.917543 189.349777,105 189.349777,105" id="Fill-124" fill="#303C60"></path>
                <path d="M84.9306574,271 L84.8070013,270.990456 C84.2981088,270.923649 83.9414085,270.456001 84.0079926,269.945405 C84.0460406,269.687722 84.8926093,263.531943 88.7830206,255.362413 C92.3690477,247.837092 99.3270816,237.15276 112.125489,228.98323 C135.016136,214.366834 150.211569,200.590296 168.179752,132.690622 C168.308164,132.194343 168.817057,131.898483 169.311681,132.032097 C169.806306,132.160939 170.101178,132.671535 169.96801,133.167815 C161.288302,165.979548 152.679935,188.15944 142.882567,202.971485 C133.779575,216.728935 124.419759,223.338046 113.124249,230.54842 C89.3442291,245.732675 85.8818582,269.950177 85.8485661,270.193545 C85.7867381,270.661194 85.3872337,271 84.9306574,271" id="Fill-125" fill="#303C60"></path>
                <path d="M85.9321208,252 C85.7644507,252 85.5871996,251.957208 85.4339012,251.857362 C84.9979592,251.586349 84.8686137,251.011041 85.1464669,250.583125 C90.8424572,241.63019 98.1001741,234.289069 106.713623,228.759454 C139.0931,207.977043 144.453751,196.028702 171.194725,127.59081 C171.381557,127.115349 171.922892,126.877618 172.401949,127.063048 C172.885797,127.248478 173.120535,127.785749 172.938493,128.26121 C159.563215,162.475402 151.572541,182.525602 142.834537,196.737139 C133.445016,211.999445 122.853061,220.605294 107.729224,230.314212 C99.3409323,235.696434 92.2748383,242.847371 86.7225652,251.572085 C86.545314,251.847852 86.2435079,252 85.9321208,252" id="Fill-126" fill="#303C60"></path>
                <path d="M188.549516,150 C175.038337,178.113022 177.114772,203.623254 177.114772,203.623254 C177.114772,203.623254 178.67449,213.511943 184.913363,215.597052 C191.147451,217.677368 199.979475,211.431628 199.462759,203.100778 C198.941258,194.769928 201.539193,174.470073 204.65863,167.179382 C207.773282,159.893483 188.549516,150 188.549516,150" id="Fill-127" fill="#F09959"></path>
                <path d="M117,344.467731 C117.862905,352.140732 115.923793,351.502914 122.817336,352.778551 C129.715726,354.058983 142,349.368861 142,349.368861 L128.208067,324 L117,344.467731" id="Fill-128" fill="#6791C9"></path>
                <path d="M178.202156,189 C174.372188,201.386325 145.64264,191.857284 135.588974,194.714567 C125.535307,197.571851 116.913092,239.488203 115.476854,277.113868 C114.040616,314.739532 115.9556,344.745774 119.785568,349.507913 C123.615536,354.270053 186.824372,356.174909 192.569324,354.270053 C198.314276,352.365197 144.685148,328.554499 144.685148,328.554499 C144.685148,328.554499 141.333926,284.733291 145.64264,262.346473 C149.951354,239.964417 188.739356,210.43439 188.739356,210.43439 L178.202156,189" id="Fill-129" fill="#F09959"></path>
                <path d="M190.878022,192 C200.951098,207.317312 227.33776,205.403246 236.451496,217.844674 C245.565231,230.286102 264.756839,298.728311 264.756839,298.728311 L284.907788,229.329069 C284.907788,229.329069 301.245358,226.591955 295.940205,237.94715 C286.500294,258.13576 282.98431,323.28099 272.748146,332.535498 C261.36557,342.823602 250.040555,334.449564 243.64655,316.43342 C237.4636,299.00585 222.061387,261.394457 211.024174,247.038963 C199.991757,232.678684 188,209.709894 188,209.709894 L190.878022,192" id="Fill-130" fill="#F09959"></path>
                <path d="M147.597129,194.977081 C167.724841,218.426089 207.01724,217.469181 215.641349,214.59846 C224.270249,211.727739 224.270249,211.727739 224.270249,211.727739 C224.270249,211.727739 230.97789,209.335471 236.727296,216.033821 C242.476702,222.73217 256.375891,264.845651 258.771477,274.414721 C261.167063,283.983792 265,299.777543 265,299.777543 C265,299.777543 254.718146,312.097722 254.718146,324.542299 C254.718146,336.98209 259.082903,337.08735 259.082903,337.08735 C259.082903,337.08735 246.309639,334.230983 243.434936,326.575726 C240.560233,318.915685 214.683115,249.530353 214.683115,249.530353 L143.285074,250.965714 L144.243308,329.446447 C144.243308,329.446447 138.014785,323.70022 129.390676,329.446447 C120.761776,335.18789 117.887073,348.584589 119.324424,350.498403 C120.761776,352.412217 116.449721,352.412217 116.449721,350.976856 C116.449721,349.541496 108.30473,314.609603 114.054136,257.18561 C119.803542,199.761616 130.828028,193.54172 137.056551,193.063267 C143.285074,192.584813 147.597129,194.977081 147.597129,194.977081" id="Fill-131" fill="#75A1DE"></path>
                <path d="M256.275,335.45 C256.555,335.55 256.725,335.55 256.725,335.55 C256.725,335.55 256.555,335.52 256.275,335.45" id="Fill-132" fill="#6791C9"></path>
                <path d="M258.750475,300.794687 C254.585336,302.068375 247.537748,316.699093 247.537748,316.699093 C247.537748,316.699093 231.520939,282.028061 226.716857,234 L221,266.581611 C228.893106,287.623702 241.278029,320.639416 243.218878,325.781873 C245.856319,332.76092 256.492556,335.675615 257.948193,336 C257.549454,335.86643 256.670307,335.336919 255.940087,333.237957 C255.522132,332.861098 253.115287,331.744832 252.663703,331.33458 C248.820438,327.833131 250.420197,319.566084 252.985576,310.340193 C255.546152,301.114302 262.915613,299.525769 258.750475,300.794687" id="Fill-133" fill="#6791C9"></path>
                <path d="M147,249.937935 L139.028696,214 C130.348511,226.049051 129.384046,267.269739 132.923633,295.485631 C135.82185,318.627987 140.161943,324.633493 143.14214,327.049009 C144.024625,327.557789 144.506858,328 144.506858,328 L143.542393,250.004505 L147,249.937935" id="Fill-134" fill="#6791C9"></path>
                <path d="M125,214 C139.622712,253.394912 132.311356,261.337742 151.547752,307.579592 C162.295541,333.40451 183.00946,352.849434 183.00946,352.849434 C183.00946,352.849434 199.695938,357.137704 220.667232,355.708281 C241.643293,354.278857 257,352.839904 257,352.839904 C257,352.839904 234.970608,339.508148 234.017368,330.455132 C233.064127,321.397352 228.927063,285.485469 234.327171,260.065555 C238.550027,240.220392 221.148619,220.370464 221.148619,220.370464 L192.070013,218.941041 L125,214" id="Fill-135" fill="#75A1DE"></path>
                <path d="M221.143665,337 C220.055833,337 217.85129,336.742243 214.144963,336.174224 C195.526683,333.310263 175.628036,311.668258 166.963893,297.663484 C158.299751,283.658711 149.885906,276.484487 149.31311,274.427208 C148.619978,271.940334 149.091693,271 150.588664,271 C154.641557,271 166.193747,277.892601 182.371627,279.520286 C188.807159,280.169451 195.459295,280.331742 201.360539,280.331742 C204.373735,280.331742 207.189582,280.288783 209.682929,280.245823 C212.176277,280.202864 214.342313,280.159905 216.051074,280.159905 C220.816353,280.159905 222.063026,280.48926 217.03301,282.064439 C204.835823,285.883055 171.454807,280.155131 177.553401,292.250597 C184.730199,306.484487 193.206618,320.260143 205.48082,328.536993 C211.906726,332.871122 225.53831,337 221.143665,337" id="Fill-136" fill="#6E99D3"></path>
                <path d="M198.29934,200.299842 C198.49039,190.782656 200.759694,174.53764 203.415758,168.196028 C205.591866,163.003535 196.593867,156.480734 191.319018,153.195493 L186.859627,153 C186.179301,154.516265 185.540914,156.027762 184.944465,157.520187 C180.233446,189.171029 194.333883,202.250007 201.057919,204.882015 C203.965609,206.016829 207.218123,206.145569 210,205.88809 C205.843493,204.376593 201.798821,202.660066 198.29934,200.299842" id="Fill-137" fill="#E38540"></path>
                <path d="M190.03367,213 C188.357656,213 186.614022,212.801073 184.889707,212.389011 C180.856647,211.427533 171.244924,207.766338 169.008628,194.608769 C168.955498,194.324589 169.153528,194.054617 169.443329,194.007253 C169.73313,193.95989 170.008441,194.149344 170.056741,194.433525 C172.191606,206.975368 181.315499,210.456582 185.140868,211.375433 C191.086613,212.796337 197.389778,211.479633 199.809614,208.315754 C201.751279,205.777073 200.587246,200.372902 200.572756,200.316066 C200.509966,200.036622 200.693506,199.757177 200.983307,199.695605 C201.268278,199.634032 201.553249,199.814013 201.616039,200.093458 C201.669169,200.335011 202.895992,206.023363 200.664526,208.940952 C198.684222,211.531733 194.602861,213 190.03367,213" id="Fill-138" fill="#F5CE5C"></path>
                <path d="M235.831269,163.187787 C232.565061,180.409867 225.016172,194.300967 212.240387,191.681365 C199.46942,189.061763 186.038467,170.873555 189.57445,153.709154 C193.105615,136.539947 206.329419,124.744528 219.105204,127.36413 C231.876171,129.983732 240.186212,140.245842 235.831269,163.187787" id="Fill-139" fill="#F09959"></path>
                <path d="M280,248 C280,248 256.431145,310.821705 255.31065,317.342874 C254.185347,323.864043 256.431145,328 257.07074,328 C257.715145,328 277.754202,293.9678 277.754202,293.9678 L280,248" id="Fill-140" fill="#F09959"></path>
                <path d="M281.123735,244 C283.148481,237.826662 280,230 280,230 L289,231.032749 L281.123735,244" id="Fill-141" fill="#F09959"></path>
                <path d="M290.874537,233 L267.151639,233 C265.712584,233 264.679906,231.621821 265.091065,230.25785 L280.064889,180.52026 C280.337401,179.620417 281.174061,179 282.125463,179 L305.848361,179 C307.287416,179 308.320094,180.373443 307.908935,181.74215 L292.935111,231.475004 C292.662599,232.379583 291.825939,233 290.874537,233" id="Fill-142" fill="#4381DB"></path>
                <path d="M292.87172,233 L269.155918,233 C267.717003,233 266.679646,231.621821 267.090765,230.25785 L282.063127,180.52026 C282.335613,179.620417 283.176971,179 284.12828,179 L307.844082,179 C309.282997,179 310.320354,180.373443 309.909235,181.74215 L294.936873,231.475004 C294.664387,232.379583 293.823029,233 292.87172,233" id="Fill-143" fill="#2E5B9A"></path>
                <path d="M275.163592,197.284864 C272.44076,206.397074 270.608382,213.879031 271.071624,213.998551 C271.534866,214.118071 274.113577,206.827347 276.836408,197.715136 C279.55924,188.602926 281.391618,181.120969 280.928376,181.001449 C280.470281,180.881929 277.886423,188.172653 275.163592,197.284864" id="Fill-144" fill="#9CBEED"></path>
                <path d="M292.316915,249 C293.007455,240.699636 300.05378,232.921638 302.736081,230.439197 C303.548757,229.682004 304.009117,228.613308 304,227.491896 C303.962142,223.356091 303.778937,213.589265 302.942773,212.448684 C301.87643,210.996599 299.203523,192.296818 297.958673,193.020464 C296.713822,193.748902 298.315686,210.086051 298.315686,210.086051 C298.315686,210.086051 295.290464,208.633967 293.6886,207.910321 C292.086735,207.181882 285.50077,214.624415 285.50077,214.624415 C285.50077,214.624415 282.414479,222.584522 290.855977,219.177155 C300.880549,215.127612 293.359771,226.418408 286.679855,233.659661 C281.174326,239.63094 285.857783,240.948838 285.857783,240.948838 L290.306363,240.766729 L292.316915,249" id="Fill-145" fill="#F09959"></path>
                <path d="M289.428286,255 C288.686761,255 287.846053,254.885516 286.995898,254.618386 C284.818556,253.936251 281.011751,251.718121 280.005734,244.601023 C279.963227,244.314812 280.161596,244.047683 280.449704,244.004751 C280.733089,243.96659 280.997582,244.162167 281.04009,244.453147 C281.899691,250.539888 284.823279,252.758019 287.123421,253.549867 C289.003208,254.198611 290.557102,253.89809 290.949118,253.678662 C290.972734,253.497395 291.090811,253.33521 291.275011,253.263657 C291.539504,253.153943 291.846504,253.282738 291.950412,253.554638 C292.05432,253.821767 291.99292,254.117518 291.785104,254.346486 C291.421427,254.747181 290.533487,255 289.428286,255" id="Fill-146" fill="#F5CE5C"></path>
                <path d="M289.115051,253 C288.376473,253 287.612944,252.951528 286.879358,252.854583 C282.602597,252.308166 279.733125,250.3913 279.01451,247.597523 C278.944644,247.333128 279.134279,247.073139 279.428712,247.011447 C279.728135,246.954161 280.022567,247.117205 280.087443,247.3816 C280.776116,250.047586 283.520828,251.180079 285.701627,251.660397 C288.760733,252.334605 291.635195,251.920386 291.974542,251.567859 C292.124253,251.33431 292.453619,251.259398 292.7231,251.391595 C292.98759,251.523793 293.077417,251.827848 292.927705,252.061397 C292.518494,252.704759 290.911589,253 289.115051,253" id="Fill-147" fill="#F5CE5C"></path>
                <path d="M221.832612,151.904899 C220.697119,151.904899 219.516206,152.588073 218.476095,153.866586 C217.195259,155.433009 216.291406,157.672847 215.937132,160.166435 C215.237669,165.075534 216.963618,169.604008 219.711511,170.057831 C222.454862,170.511655 225.366265,166.739553 226.065729,161.830454 C226.765193,156.921354 225.039243,152.392881 222.291351,151.939057 C222.141466,151.914658 221.987039,151.904899 221.832612,151.904899 Z M220.183876,172 C219.938609,172 219.688801,171.975601 219.443535,171.936562 C215.619194,171.307065 213.311873,166.01246 214.183931,159.878525 C214.592709,157.02871 215.641904,154.447285 217.140755,152.612473 C218.739529,150.655664 220.665325,149.748018 222.559327,150.060326 C226.383667,150.689823 228.690989,155.984429 227.814388,162.118363 C226.996833,167.857032 223.731156,172 220.183876,172 L220.183876,172 Z" id="Fill-148" fill="#FFFFFF"></path>
                <path d="M236.073845,154.416411 C234.49607,154.416411 232.355152,157.414159 231.641512,161.994717 C230.908454,166.752743 232.160964,170.330854 233.748448,170.570674 C235.345641,170.805697 237.617637,167.764782 238.35555,163.006757 C238.705087,160.76684 238.627412,158.603665 238.146798,156.929723 C237.72444,155.457229 237.030219,154.545914 236.253468,154.430801 C236.195212,154.421208 236.132101,154.416411 236.073845,154.416411 Z M233.923217,172 C233.79214,172 233.661063,171.990407 233.534841,171.971222 C230.859907,171.563528 229.408354,167.08849 230.228797,161.77888 C231.054094,156.469269 233.801849,152.617763 236.467075,153.030253 C237.845807,153.241294 238.928403,154.488357 239.520675,156.541215 C240.059546,158.407013 240.14693,160.781229 239.768265,163.222595 C238.986659,168.2732 236.467075,172 233.923217,172 L233.923217,172 Z" id="Fill-149" fill="#FFFFFF"></path>
                <path d="M216.069276,156 C215.98826,156 215.902479,155.98671 215.816698,155.964559 L184.673381,147.693615 C184.182522,147.565143 183.896585,147.086695 184.034788,146.625968 C184.177756,146.169671 184.692443,145.903866 185.183302,146.032338 L216.326619,154.307713 C216.817478,154.436185 217.103415,154.914632 216.965212,155.37093 C216.846072,155.751916 216.474353,156 216.069276,156" id="Fill-150" fill="#FFFFFF"></path>
                <path d="M238,136.124164 C189.657794,165.038371 187,145.618236 187,145.618236 L189.868123,118 L218.554129,119.621176 L238,136.124164" id="Fill-151" fill="#303C60"></path>
                <path d="M191.621691,151.69371 C192.776497,156.611017 191.199081,161.181622 188.093392,161.904324 C184.987702,162.622144 181.538028,159.223489 180.378309,154.306182 C179.223503,149.388876 180.800919,144.818271 183.906608,144.095568 C187.012298,143.377749 190.461972,146.781287 191.621691,151.69371" id="Fill-152" fill="#F09959"></path>
                <path d="M188,159 C188,160.105528 187.101631,161 185.997491,161 C184.898369,161 184,160.105528 184,159 C184,157.894472 184.898369,157 185.997491,157 C187.101631,157 188,157.894472 188,159" id="Fill-153" fill="#F5CE5C"></path>
                <path d="M559.581729,362 L77.4182708,362 C74.9779745,362 73,359.985437 73,357.5 C73,355.014563 74.9779745,353 77.4182708,353 L559.581729,353 C562.022025,353 564,355.014563 564,357.5 C564,359.985437 562.022025,362 559.581729,362" id="Fill-154" fill="#2E5B9A"></path>
                <path d="M191.500855,353 C191.500855,353 173.265203,353.211633 173.030861,354.667151 C172.801301,356.126987 173.724323,356.753248 180.190255,357.798457 C186.651406,358.839346 259.374018,359.258293 260.06748,358.839346 C260.760942,358.424718 282,353.833575 282,353.833575 L230.980348,353 L191.500855,353" id="Fill-155" fill="#DBE5EB"></path>
                <path d="M201,339.868519 C201,339.868519 214.164008,334.090934 218.015949,336.657144 C221.86789,339.223355 233,351 233,351 L201,339.868519" id="Fill-156" fill="#F09959"></path>
                <path d="M232.778889,351.651434 C232.527403,351.959818 232.150175,352.087916 231.942215,351.936096 L204.733407,332.066644 C203.268019,330.994415 202.571598,329.357605 203.277692,328.494128 C203.983786,327.630651 205.76353,327.939036 207.146701,329.106153 L232.875614,350.787957 C233.073901,350.958754 233.030374,351.343049 232.778889,351.651434" id="Fill-157" fill="#2E5B9A"></path>
                <path d="M162.731677,337 C162.731677,337 184.392639,345.601639 186.938459,345.601639 C189.489055,345.601639 203.713167,336.044262 208.489564,337.315393 C213.265962,338.591303 236.622545,350.380327 235.987284,351.336065 C235.352023,352.291803 228.66029,354.52345 208.914663,353.887885 C189.169037,353.24754 157,350.380327 157,350.380327 L162.731677,337" id="Fill-158" fill="#F09959"></path>
                <path d="M433.014832,353 L344.383516,353 C343.074261,353 342,351.968798 342,350.71202 L342,337.28798 C342,336.031202 343.074261,335 344.383516,335 L433.014832,335 C436.304756,335 439,337.582609 439,340.740665 L439,347.254731 C439,350.412788 436.304756,353 433.014832,353" id="Fill-159" fill="#F37168"></path>
                <path d="M425.597616,338 L341.929801,338 C341.343311,338.94627 341,340.050251 341,341.22845 L341,346.77155 C341,347.949749 341.343311,349.05373 341.929801,350 L425.597616,350 C428.568212,350 431,347.634325 431,344.744492 L431,343.255508 C431,340.365675 428.568212,338 425.597616,338" id="Fill-160" fill="#F2E5DE"></path>
                <path d="M429.964415,335 L362.605607,335 C361.723721,335 361,334.297971 361,333.43787 L361,325.56213 C361,324.702029 361.723721,324 362.605607,324 L429.964415,324 C432.183507,324 434,325.762046 434,327.919273 L434,331.080727 C434,333.237954 432.183507,335 429.964415,335" id="Fill-161" fill="#7BCEE8"></path>
                <path d="M423.918947,325 L360.7033,325 C360.258355,325.550512 360,326.195013 360,326.884271 L360,330.115729 C360,330.804987 360.258355,331.449488 360.7033,332 L423.918947,332 C426.167593,332 428,330.621483 428,328.934143 L428,328.065857 C428,326.378517 426.167593,325 423.918947,325" id="Fill-162" fill="#F2E5DE"></path>
                <path d="M441.292897,95 L369.896543,95 C367.61971,95 366.438424,93.134823 367.262466,90.8546322 L378.060754,61.1453678 C378.889559,58.865177 381.428371,57 383.705205,57 L455.101559,57 C457.378392,57 458.564441,58.865177 457.735636,61.1453678 L446.937348,90.8546322 C446.108543,93.134823 443.56973,95 441.292897,95" id="Fill-163" fill="#9EC8FF"></path>
                <path d="M438.918905,92 L374.51537,92 C372.540035,92 371.509426,90.3716602 372.229898,88.3830681 L381.185702,63.6169319 C381.906174,61.6283398 384.105761,60 386.081095,60 L450.48463,60 C452.459965,60 453.490574,61.6283398 452.770102,63.6169319 L443.814298,88.3830681 C443.098598,90.3716602 440.894239,92 438.918905,92" id="Fill-164" fill="#FFFFFF"></path>
                <path d="M399,93 C393.094077,109.043296 384,114 384,114 C384,114 390.466582,104.795391 389.530567,100.312849 C388.594552,95.8303073 385.13082,93.9385475 385.13082,93.9385475 L399,93" id="Fill-165" fill="#9EC8FF"></path>
                <path d="M444.219353,69 L402.863314,69 C402.183632,69 401.831908,68.5601504 402.079066,68.0225564 L402.098078,67.9774436 C402.345235,67.4398496 403.100965,67 403.780647,67 L445.136686,67 C445.816368,67 446.168092,67.4398496 445.920934,67.9774436 L445.901922,68.0225564 C445.654765,68.5601504 444.899035,69 444.219353,69" id="Fill-166" fill="#9EC8FF"></path>
                <path d="M442.219353,74 L400.863314,74 C400.183632,74 399.831908,73.559322 400.079066,73.0207156 L400.098078,72.9755179 C400.345235,72.440678 401.100965,72 401.780647,72 L443.136686,72 C443.816368,72 444.168092,72.440678 443.920934,72.9755179 L443.901922,73.0207156 C443.654765,73.559322 442.899035,74 442.219353,74" id="Fill-167" fill="#9EC8FF"></path>
                <path d="M440.219306,80 L398.863313,80 C398.183632,80 397.831909,79.559322 398.079065,79.0207156 L398.098078,78.9755179 C398.345234,78.440678 399.105717,78 399.780645,78 L441.141391,78 C441.81632,78 442.168043,78.440678 441.920886,78.9755179 L441.901874,79.0207156 C441.654717,79.559322 440.898987,80 440.219306,80" id="Fill-168" fill="#9EC8FF"></path>
                <path d="M396.393316,73.0023344 C394.81782,77.4190254 390.684998,81 387.150408,81 C383.620384,81 382.035755,77.4190254 383.606684,73.0023344 C385.18218,68.5809746 389.319569,65 392.849592,65 C396.379616,65 397.964245,68.5809746 396.393316,73.0023344" id="Fill-169" fill="#9EC8FF"></path>
                <path d="M400.1966,172 L396.888349,172 C396.188355,172 395.827212,171.354237 396.08135,170.555932 L397.075608,167.444068 C397.329746,166.645763 398.101077,166 398.801071,166 L402.113781,166 C402.813774,166 403.174918,166.645763 402.916321,167.444068 L401.926521,170.555932 C401.672383,171.354237 400.896594,172 400.1966,172" id="Fill-170" fill="#9EC8FF"></path>
                <path d="M412.199781,172 L408.888079,172 C408.188298,172 407.827264,171.354237 408.081325,170.555932 L409.075281,167.444068 C409.329342,166.645763 410.104895,166 410.800219,166 L414.111921,166 C414.811702,166 415.172736,166.645763 414.918675,167.444068 L413.924719,170.555932 C413.670658,171.354237 412.899562,172 412.199781,172" id="Fill-171" fill="#9EC8FF"></path>
                <path d="M424.1966,172 L420.888349,172 C420.188355,172 419.827212,171.354237 420.08135,170.555932 L421.075608,167.444068 C421.329746,166.645763 422.101077,166 422.801071,166 L426.113781,166 C426.813774,166 427.174918,166.645763 426.916321,167.444068 L425.926521,170.555932 C425.672383,171.354237 424.896594,172 424.1966,172" id="Fill-172" fill="#9EC8FF"></path>
                <path d="M355.292476,150 L283.894325,150 C281.617434,150 280.436118,148.134823 281.264945,145.854632 L292.058741,116.145368 C292.887567,113.865177 295.431207,112 297.703334,112 L369.101486,112 C371.378376,112 372.564456,113.865177 371.735629,116.145368 L360.93707,145.854632 C360.113007,148.134823 357.569367,150 355.292476,150" id="Fill-173" fill="#9EC8FF"></path>
                <path d="M353.916203,147 L289.513438,147 C287.538127,147 286.512301,145.37166 287.227994,143.383068 L296.18369,118.616932 C296.904154,116.62834 299.108486,115 301.083797,115 L365.486562,115 C367.461873,115 368.487699,116.62834 367.772006,118.616932 L358.81631,143.383068 C358.095846,145.37166 355.891514,147 353.916203,147" id="Fill-174" fill="#FFFFFF"></path>
                <path d="M287.450294,148 C281.855797,164.04445 287.591742,169 287.591742,169 C287.591742,169 287.635639,159.797533 291.85468,155.316034 C296.073721,150.834536 301,148.948103 301,148.948103 L287.450294,148" id="Fill-175" fill="#9EC8FF"></path>
                <path d="M335.260429,125 L299.805777,125 C299.173262,125 298.844933,124.59322 299.071866,124.099812 L299.168433,123.900188 C299.400195,123.40678 300.105135,123 300.742479,123 L336.192302,123 C336.824817,123 337.157974,123.40678 336.926213,123.900188 L336.834474,124.099812 C336.602713,124.59322 335.892944,125 335.260429,125" id="Fill-176" fill="#9EC8FF"></path>
                <path d="M334.260516,131 L298.807657,131 C298.175174,131 297.842034,130.596987 298.073783,130.099812 L298.170346,129.900188 C298.397267,129.40678 299.107,129 299.744312,129 L335.192343,129 C335.824826,129 336.157966,129.40678 335.926217,129.900188 L335.834482,130.099812 C335.602733,130.596987 334.893,131 334.260516,131" id="Fill-177" fill="#9EC8FF"></path>
                <path d="M331.260429,136 L295.805777,136 C295.173262,136 294.844933,135.596987 295.071866,135.099812 L295.168433,134.900188 C295.400195,134.40678 296.105135,134 296.742479,134 L332.192302,134 C332.824817,134 333.157974,134.40678 332.926213,134.900188 L332.834474,135.099812 C332.602713,135.596987 331.892944,136 331.260429,136" id="Fill-178" fill="#9EC8FF"></path>
                <path d="M420.611663,183 L351.574383,183 C350.338422,183 349.694195,182.596987 350.142768,182.099812 L350.328878,181.900188 C350.777451,181.40678 352.156574,181 353.392535,181 L422.429815,181 C423.665777,181 424.305232,181.40678 423.856659,181.900188 L423.675321,182.099812 C423.226748,182.596987 421.847625,183 420.611663,183" id="Fill-179" fill="#9EC8FF"></path>
                <path d="M416.61221,192 L347.574396,192 C346.338425,192 345.694193,191.59322 346.142769,191.099812 L346.324108,190.900188 C346.777457,190.403013 348.156591,190 349.392562,190 L418.425604,190 C419.661575,190 420.305807,190.403013 419.857231,190.900188 L419.675892,191.099812 C419.227315,191.59322 417.848182,192 416.61221,192" id="Fill-180" fill="#9EC8FF"></path>
                <path d="M348.119461,139 L342.954555,139 C340.634724,139 339.423743,137.2 340.269971,134.999488 L344.112038,125.000512 C344.958266,122.8 347.555309,121 349.880003,121 L355.044909,121 C357.369603,121 358.57572,122.8 357.729493,125.000512 L353.887425,134.999488 C353.041198,137.2 350.444155,139 348.119461,139" id="Fill-181" fill="#9EC8FF"></path>
                <path d="M524.944416,339 C534.155135,288.566985 532.139096,270.525906 507.468892,229.356584 C482.798689,188.187262 480.443459,111.574659 471.146747,134.044956 C461.845259,156.515253 463.096923,212.946068 492.243498,240.327124 C521.385295,267.712947 525.307494,279.975541 527.04167,291.117719 C528.771068,302.264664 522.875826,336.520782 522.875826,336.520782 L524.944416,339" id="Fill-182" fill="#9CD499"></path>
                <path d="M529.956735,307 C529.971157,306.803918 529.985578,306.612618 530,306.421319 C529.456786,302.270116 526.509973,280.921075 522.433468,272.499108 C517.909893,263.149338 498.065774,246.87452 492.499037,226.443718 C486.927493,206.008133 478.101474,190.173305 472.308798,177.265361 C464.660544,160.225345 468.842808,137.570684 475.164275,130.215212 C475.010444,130.109997 474.856614,130.043042 474.702784,130 L472.602038,131.262578 C472.140546,131.917779 471.669441,132.826452 471.179106,134.01251 C461.819489,156.552391 463.078975,213.157957 492.402893,240.623804 C521.731617,268.094434 525.678328,280.395001 527.423341,291.571683 C527.889639,294.589435 527.80311,299.295407 527.423341,304.556147 L529.956735,307" id="Fill-183" fill="#74B570"></path>
                <path d="M512.091174,330.716044 C518.960671,271.314086 516.670839,250.753707 503.386936,203.230229 C490.103033,155.711529 576.685529,47.4195413 573.935814,66.1546668 C571.186099,84.8850141 562.021978,131.495866 538.203888,160.738143 C514.381006,189.980419 512.551056,213.742159 517.130722,238.875227 C521.710387,264.003517 516.215747,322.492849 516.215747,322.492849 L513.466031,333 L512.091174,330.716044" id="Fill-184" fill="#9CD499"></path>
                <path d="M515.982424,306 L515.963376,306 C515.644327,305.985689 515.401469,305.723314 515.410993,305.403694 C515.420517,305.222417 516.09671,286.942071 515.758613,271.93425 C515.415755,256.912118 511.353835,231.175566 508.882397,222.335931 C506.630008,214.283419 503.801426,187.282699 517.539572,159.404216 C524.382455,145.51745 529.84438,136.73506 537.406313,124.584736 C544.877769,112.572755 554.177804,97.62695 568.93024,71.294092 C569.082622,71.0174062 569.430242,70.9172269 569.706433,71.0746516 C569.982625,71.2273058 570.082625,71.5755483 569.925482,71.8522341 C555.15876,98.2089443 545.853963,113.169061 538.372983,125.190583 C530.830098,137.312284 525.382459,146.075592 518.563386,159.909884 C504.982382,187.468746 507.763345,214.092601 509.982401,222.025852 C512.468125,230.922732 516.558616,256.807168 516.896713,271.910398 C517.239571,286.951612 516.558616,305.265351 516.553854,305.451399 C516.54433,305.756707 516.287187,306 515.982424,306" id="Fill-185" fill="#74B570"></path>
                <path d="M513.749055,351.541392 C517.872333,311.795346 518.56194,331.39607 501.441476,277.394952 C481.854708,215.58794 551.758879,160.717378 563.209237,183.103192 C574.659595,205.489005 587.939329,275.842372 582.901363,273.558886 C577.863397,271.275399 544.4318,205.947613 543.517112,208.689708 C542.602424,211.427026 498.180207,234.271448 500.009583,257.569701 C501.843747,280.867954 518.787021,317.871905 518.787021,317.871905 L518.327282,352 L513.749055,351.541392" id="Fill-186" fill="#9CD499"></path>
                <path d="M514.92894,350.453139 L518.304981,350.792112 L518.754483,318.475127 C517.697676,316.145287 501.773856,280.600901 500.009325,258.13322 C498.569965,239.8096 524.794058,222.049342 537.39922,213.51296 C540.392707,211.483899 543.223608,209.569419 543.481832,209.039476 C543.567907,208.791215 543.787876,208.609793 544.055663,208.585921 C545.165071,208.480888 547.355194,212.085456 559.745169,234.3001 C568.639555,250.241364 580.790434,272.031099 583.525697,273.515895 C583.736102,273.176922 584.357753,271.305411 583.147925,261.6614 C582.272832,254.690977 580.670886,245.519618 578.633785,235.837413 C573.780128,212.777724 567.998777,193.37512 563.173812,183.931628 C560.519842,178.732456 554.169441,177.725087 545.75803,181.16733 C522.962579,190.49624 488.035377,231.884324 502.558092,277.731569 C507.139179,292.202359 510.381327,301.13023 512.748381,307.651873 C518.080231,322.351828 518.080231,322.351828 516.133986,339.481883 C515.780123,342.609025 515.378441,346.132431 514.92894,350.453139 Z M518.869249,352 L518.811866,351.995226 L514.240343,351.536897 C514.087321,351.522574 513.948645,351.446186 513.853006,351.331603 C513.757368,351.212247 513.709549,351.05947 513.728676,350.911468 C514.202087,346.318627 514.642024,342.456249 514.995887,339.352978 C516.908658,322.485508 516.908658,322.485508 511.667665,308.038589 C509.295829,301.512171 506.053682,292.569977 501.463031,278.08009 C498.029607,267.237739 497.14495,256.003899 498.828189,244.688896 C500.310586,234.715461 503.739229,224.88048 509.018477,215.46086 C518.075449,199.304755 532.325594,185.425973 545.322874,180.107444 C554.355936,176.412165 561.237131,177.615279 564.197144,183.411234 C569.050801,192.907242 574.85128,212.34804 579.7145,235.422052 C582.526274,248.737471 586.653078,271.926065 584.305151,274.370488 C583.989544,274.704686 583.544825,274.785849 583.109669,274.590104 C580.364843,273.344021 571.27918,257.335918 558.745746,234.858689 C552.457511,223.586655 545.973217,211.956551 544.223031,209.95136 C543.515306,210.73434 541.736428,211.961325 538.04478,214.463039 C525.616549,222.87529 499.765447,240.382511 501.152206,258.047283 C502.950211,280.95897 519.682177,317.749439 519.849544,318.117057 C519.887799,318.193445 519.902145,318.279382 519.902145,318.365319 L519.44308,351.431863 C519.44308,351.594188 519.371351,351.746964 519.251803,351.851998 C519.146601,351.947483 519.012707,352 518.869249,352 L518.869249,352 Z" id="Fill-187" fill="#74B570"></path>
                <path d="M529.017917,353 L507.983131,353 C506.538807,353 505.244731,352.196741 505.109023,351.199756 L498.042498,299.403747 C497.71292,297.012872 499.336573,295 501.653308,295 L535.34774,295 C537.664475,295 539.283281,297.012872 538.95855,299.403747 L531.892025,351.199756 C531.756317,352.196741 530.462241,353 529.017917,353" id="Fill-188" fill="#7BCEE8"></path>
                <path d="M526.886302,352 L523.748828,352 C522.21293,352 520.975118,351.163623 521.00038,350.122903 L522.111884,305.12486 C522.16746,302.881849 524.117645,301 526.446752,301 L531.206013,301 C533.53512,301 535.227639,302.881849 534.975024,305.12486 L529.892417,350.122903 C529.771162,351.163623 528.422199,352 526.886302,352" id="Fill-189" fill="#A2DFF2"></path>
                <path d="M504.653153,279 L505,278.357281 C503.734234,273.45232 502.675676,268.566688 502,264 C502.698198,272.635631 504.653153,279 504.653153,279" id="Fill-190" fill="#74B570"></path>
                <path d="M504.629911,239.78179 C503.276562,243.109198 502.451116,246.578198 502,250 C508.147656,230.153546 542.379687,212.23746 544.601674,209.212114 L545,208.452238 C532.138393,204.921882 511.579018,222.691656 504.629911,239.78179" id="Fill-191" fill="#74B570"></path>
                <path d="M583.42691,273 C583.168134,273 582.933319,272.822906 582.866229,272.559657 L576.655599,247.321327 C571.805942,227.544203 565.76783,202.928096 558.991727,191.972181 C557.875156,190.167734 552.996745,187.721918 546.086462,188.210124 C536.746557,188.870638 518.73765,195.317827 503.100858,231.062157 C502.976262,231.354123 502.636019,231.48814 502.343698,231.363696 C502.056168,231.234465 501.921988,230.894635 502.046584,230.602669 C517.927776,194.303125 536.406314,187.74585 546.004995,187.066191 C553.471168,186.539694 558.670653,189.263117 559.974118,191.369103 C566.841272,202.482967 572.64936,226.156166 577.772171,247.048506 L583.9828,272.286836 C584.059474,272.593162 583.87258,272.904273 583.565883,272.980855 C583.517961,272.995214 583.47004,273 583.42691,273" id="Fill-192" fill="#74B570"></path>
                <path d="M565.85842,240 L565.788411,239.995227 C565.46337,239.957046 565.223339,239.67546 565.263344,239.360466 C565.288347,239.155242 567.718657,218.465828 562.017931,196.712114 C561.937921,196.406665 562.132946,196.096443 562.457987,196.015308 C562.778028,195.943718 563.103069,196.129851 563.183079,196.4353 C568.938812,218.399011 566.4835,239.284103 566.458497,239.4941 C566.418491,239.785231 566.163459,240 565.85842,240" id="Fill-193" fill="#74B570"></path>
                <path d="M559.481189,227 L559.424998,226.995234 C559.160094,226.957108 558.971451,226.671161 559.003561,226.361386 C559.019615,226.170755 560.869924,207.255383 559.581531,191.628399 C559.557449,191.313857 559.750106,191.032676 560.015009,191.004082 C560.275899,190.965956 560.512706,191.199479 560.540802,191.51402 C561.837223,207.269681 559.978886,226.304196 559.958818,226.494828 C559.930722,226.78554 559.72201,227 559.481189,227" id="Fill-194" fill="#74B570"></path>
                <path d="M537.564515,125 C537.352958,125 537.150804,124.880968 537.056778,124.676232 C536.920442,124.390555 537.037973,124.052503 537.320049,123.914425 C537.479892,123.833483 553.609934,115.844034 562.937244,98.2986711 C563.087685,98.0225162 563.430877,97.9177677 563.703551,98.0701291 C563.976224,98.2177292 564.079652,98.5653035 563.933913,98.8414585 C554.423253,116.724873 537.973525,124.861923 537.808981,124.942864 C537.729059,124.980955 537.644437,125 537.564515,125" id="Fill-195" fill="#74B570"></path>
                <path d="M524.572335,146 C524.308702,146 524.069035,145.814338 524.011515,145.542986 C523.949202,145.233549 524.145728,144.933633 524.457295,144.866985 C524.591508,144.838422 538.065549,141.97256 554.060881,129.128549 C554.310134,128.928605 554.669633,128.96669 554.870953,129.209479 C555.072273,129.457028 555.033926,129.814071 554.784673,130.014015 C538.549675,143.048448 524.826381,145.957155 524.692168,145.985718 L524.572335,146" id="Fill-196" fill="#74B570"></path>
                <path d="M514.95366,166 C514.716877,166 514.576741,165.99035 514.53325,165.985525 C514.214318,165.961401 513.977535,165.686382 514.001696,165.367939 C514.021025,165.044671 514.306131,164.808252 514.620231,164.832376 C514.712045,164.837201 524.072223,165.34864 539.071702,154.116292 C539.332646,153.923296 539.695069,153.97637 539.883529,154.232089 C540.076822,154.487809 540.023666,154.849675 539.767554,155.042671 C525.995481,165.358289 516.983229,166 514.95366,166" id="Fill-197" fill="#74B570"></path>
            </g>
        </g>
    </g>
</svg>