<?xml version="1.0" encoding="UTF-8"?>
<svg width="307px" height="500px" viewBox="0 0 307 500" version="1.1" xmlns="http://www.w3.org/2000/svg" xmlns:xlink="http://www.w3.org/1999/xlink">
    <title>5329684</title>
    <g id="Page-1" stroke="none" stroke-width="1" fill="none" fill-rule="evenodd">
        <g id="5329684" transform="translate(0.869000, 0.000000)">
            <path d="M139.487,83.322 L139.487,0 L222.809,0 C222.809,46.018 185.505,83.322 139.487,83.322" id="Fill-6" fill="#E05858"></path>
            <path d="M306.131,83.322 L306.131,83.322 C260.113,83.322 222.809,46.018 222.809,0 L306.131,0 L306.131,83.322" id="Fill-7" fill="#E2DDCA"></path>
            <path d="M139.487,166.644 L56.166,166.644 C56.166,120.626 93.47,83.322 139.487,83.322 L139.487,166.644" id="Fill-13" fill="#E05858"></path>
            <path d="M306.131,166.644 L222.809,166.644 C222.809,120.626 260.113,83.322 306.131,83.322 L306.131,166.644" id="Fill-14" fill="#E05858"></path>
            <path d="M222.809,166.644 L139.487,166.644 L139.487,83.322 C185.505,83.322 222.809,120.626 222.809,166.644" id="Fill-15" fill="#F9C760"></path>
            <polygon id="Fill-21" fill="#F8FAF9" points="56.166 249.965 139.487 249.965 139.487 166.644 56.166 166.644"></polygon>
            <polygon id="Fill-24" fill="#F8FAF9" points="139.487 249.965 222.809 249.965 222.809 166.644 139.487 166.644"></polygon>
            <path d="M139.487,249.965 L139.487,249.965 C93.47,249.965 56.166,212.661 56.166,166.644 L139.487,166.644 L139.487,249.965" id="Fill-25" fill="#172C42"></path>
            <path d="M139.487,249.965 L139.487,166.644 L222.809,166.644 C222.809,212.661 185.505,249.965 139.487,249.965" id="Fill-26" fill="#E05858"></path>
            <path d="M139.487,166.644 L98.232,166.644 C98.232,143.858 116.703,125.388 139.487,125.388 L139.487,166.644" id="Fill-27" fill="#F8FAF9"></path>
            <path d="M180.743,166.644 L139.487,166.644 L139.487,125.388 C162.273,125.388 180.743,143.858 180.743,166.644" id="Fill-28" fill="#E05858"></path>
            <path d="M139.487,207.899 L139.487,207.899 C116.703,207.899 98.232,189.428 98.232,166.644 L139.487,166.644 L139.487,207.899" id="Fill-29" fill="#F9C760"></path>
            <path d="M139.487,207.899 L139.487,166.644 L180.743,166.644 C180.743,189.428 162.273,207.899 139.487,207.899" id="Fill-30" fill="#172C42"></path>
            <path d="M306.131,249.965 L222.809,249.965 L222.809,166.644 C268.827,166.644 306.131,203.948 306.131,249.965" id="Fill-31" fill="#172C42"></path>
            <path d="M139.487,333.287 L56.166,333.287 L56.166,249.965 C102.183,249.965 139.487,287.27 139.487,333.287" id="Fill-35" fill="#E05858"></path>
            <path d="M306.131,333.287 L222.809,333.287 L222.809,249.965 C268.827,249.965 306.131,287.27 306.131,333.287" id="Fill-36" fill="#F9C760"></path>
            <path d="M222.809,333.287 L139.487,333.287 C139.487,287.27 176.792,249.965 222.809,249.965 L222.809,333.287" id="Fill-37" fill="#172C42"></path>
            <path d="M222.809,333.287 L139.487,333.287 C139.487,287.27 176.792,249.965 222.809,249.965 L222.809,333.287" id="Fill-38" fill="#172C42"></path>
            <path d="M275.142,333.287 L222.809,333.287 L222.809,280.954 C251.712,280.954 275.142,304.385 275.142,333.287" id="Fill-39" fill="#E2DDCA"></path>
            <path d="M222.809,333.287 L170.477,333.287 C170.477,304.385 193.907,280.954 222.809,280.954 L222.809,333.287" id="Fill-40" fill="#E05858"></path>
            <path d="M56.166,416.608 L56.166,416.608 C56.166,462.626 93.47,499.931 139.487,499.931 C139.487,453.913 102.183,416.608 56.166,416.608" id="Fill-45" fill="#172C42"></path>
            <polygon id="Fill-46" fill="#172C42" points="222.809 499.931 306.131 499.931 306.131 416.608 222.809 416.608"></polygon>
            <path d="M222.809,416.608 L222.809,416.608 C176.792,416.608 139.487,453.913 139.487,499.931 L222.809,499.931 L222.809,416.608" id="Fill-47" fill="#E05858"></path>
            <path d="M139.487,333.287 L139.487,333.287 C93.47,333.287 56.166,370.591 56.166,416.608 C102.183,416.608 139.487,379.305 139.487,333.287" id="Fill-49" fill="#F9C760"></path>
            <polygon id="Fill-50" fill="#F8FAF9" points="139.487 416.608 222.809 416.608 222.809 333.287 139.487 333.287"></polygon>
            <path d="M201.979,333.287 L201.979,333.287 C190.474,333.287 181.149,342.613 181.149,354.117 C181.149,365.622 190.474,374.948 201.979,374.948 C213.483,374.948 222.809,365.622 222.809,354.117 C222.809,342.613 213.483,333.287 201.979,333.287" id="Fill-51" fill="#F9C760"></path>
            <path d="M201.979,349.188 L201.979,349.188 C199.256,349.188 197.049,351.395 197.049,354.117 C197.049,356.84 199.256,359.047 201.979,359.047 C204.701,359.047 206.908,356.84 206.908,354.117 C206.908,351.395 204.701,349.188 201.979,349.188" id="Fill-52" fill="#F8FAF9"></path>
            <path d="M160.318,333.287 L160.318,333.287 C148.814,333.287 139.487,342.613 139.487,354.117 C139.487,365.622 148.814,374.948 160.318,374.948 C171.822,374.948 181.149,365.622 181.149,354.117 C181.149,342.613 171.822,333.287 160.318,333.287" id="Fill-53" fill="#E2DDCA"></path>
            <path d="M160.318,349.188 L160.318,349.188 C157.595,349.188 155.388,351.395 155.388,354.117 C155.388,356.84 157.595,359.047 160.318,359.047 C163.041,359.047 165.248,356.84 165.248,354.117 C165.248,351.395 163.041,349.188 160.318,349.188" id="Fill-54" fill="#172C42"></path>
            <path d="M201.979,374.948 L201.979,374.948 C190.474,374.948 181.149,384.273 181.149,395.778 C181.149,407.282 190.474,416.608 201.979,416.608 C213.483,416.608 222.809,407.282 222.809,395.778 C222.809,384.273 213.483,374.948 201.979,374.948" id="Fill-55" fill="#172C42"></path>
            <path d="M201.979,390.849 L201.979,390.849 C199.256,390.849 197.049,393.056 197.049,395.778 C197.049,398.501 199.256,400.708 201.979,400.708 C204.701,400.708 206.908,398.501 206.908,395.778 C206.908,393.056 204.701,390.849 201.979,390.849" id="Fill-56" fill="#F9C760"></path>
            <path d="M160.318,374.948 L160.318,374.948 C148.814,374.948 139.487,384.273 139.487,395.778 C139.487,407.282 148.814,416.608 160.318,416.608 C171.822,416.608 181.149,407.282 181.149,395.778 C181.149,384.273 171.822,374.948 160.318,374.948" id="Fill-57" fill="#E05858"></path>
            <path d="M160.318,390.849 L160.318,390.849 C157.595,390.849 155.388,393.056 155.388,395.778 C155.388,398.501 157.595,400.708 160.318,400.708 C163.041,400.708 165.248,398.501 165.248,395.778 C165.248,393.056 163.041,390.849 160.318,390.849" id="Fill-58" fill="#E2DDCA"></path>
            <polygon id="Fill-59" fill="#E05858" points="222.809 416.608 306.131 416.608 306.131 333.287 222.809 333.287"></polygon>
            <polygon id="Fill-60" fill="#172C42" points="246.723 392.695 282.217 392.695 282.217 357.2 246.723 357.2"></polygon>
            <path d="M234.263,446.542 C235.326,446.542 236.365,446.111 237.117,445.359 C237.869,444.608 238.299,443.569 238.299,442.506 C238.299,441.443 237.869,440.403 237.117,439.652 C236.365,438.9 235.326,438.47 234.263,438.47 C233.2,438.47 232.161,438.9 231.409,439.652 C230.658,440.403 230.227,441.443 230.227,442.506 C230.227,443.569 230.658,444.608 231.409,445.359 C232.161,446.111 233.2,446.542 234.263,446.542" id="Fill-61" fill="#F9C760"></path>
            <path d="M275.876,446.542 L275.896,446.542 C278.125,446.542 279.932,444.735 279.932,442.506 C279.932,440.276 278.125,438.47 275.896,438.47 L275.876,438.47 C273.647,438.47 271.84,440.276 271.84,442.506 C271.84,444.735 273.647,446.542 275.876,446.542" id="Fill-62" fill="#F9C760"></path>
            <path d="M255.065,446.542 L255.085,446.542 C257.314,446.542 259.121,444.735 259.121,442.506 C259.121,440.276 257.314,438.47 255.085,438.47 L255.065,438.47 C252.836,438.47 251.028,440.276 251.028,442.506 C251.028,444.735 252.836,446.542 255.065,446.542" id="Fill-63" fill="#F9C760"></path>
            <path d="M296.697,446.542 C297.76,446.542 298.799,446.111 299.551,445.359 C300.302,444.608 300.733,443.569 300.733,442.506 C300.733,441.443 300.302,440.403 299.551,439.652 C298.799,438.9 297.76,438.47 296.697,438.47 C295.634,438.47 294.594,438.9 293.843,439.652 C293.091,440.403 292.661,441.443 292.661,442.506 C292.661,443.569 293.091,444.608 293.843,445.359 C294.594,446.111 295.634,446.542 296.697,446.542" id="Fill-64" fill="#F9C760"></path>
            <path d="M234.263,429.964 C235.326,429.964 236.365,429.532 237.117,428.781 C237.869,428.029 238.299,426.99 238.299,425.928 C238.299,424.864 237.869,423.825 237.117,423.073 C236.365,422.321 235.326,421.892 234.263,421.892 C233.2,421.892 232.161,422.321 231.409,423.073 C230.658,423.825 230.227,424.864 230.227,425.928 C230.227,426.99 230.658,428.029 231.409,428.781 C232.161,429.532 233.2,429.964 234.263,429.964" id="Fill-65" fill="#F9C760"></path>
            <path d="M275.876,429.964 L275.896,429.964 C278.125,429.964 279.932,428.156 279.932,425.928 C279.932,423.698 278.125,421.892 275.896,421.892 L275.876,421.892 C273.647,421.892 271.84,423.698 271.84,425.928 C271.84,428.156 273.647,429.964 275.876,429.964" id="Fill-66" fill="#F9C760"></path>
            <path d="M255.065,429.964 L255.085,429.964 C257.314,429.964 259.121,428.156 259.121,425.928 C259.121,423.698 257.314,421.892 255.085,421.892 L255.065,421.892 C252.836,421.892 251.028,423.698 251.028,425.928 C251.028,428.156 252.836,429.964 255.065,429.964" id="Fill-67" fill="#F9C760"></path>
            <path d="M296.697,429.964 C297.76,429.964 298.799,429.532 299.551,428.781 C300.302,428.029 300.733,426.99 300.733,425.928 C300.733,424.864 300.302,423.825 299.551,423.073 C298.799,422.321 297.76,421.892 296.697,421.892 C295.634,421.892 294.594,422.321 293.843,423.073 C293.091,423.825 292.661,424.864 292.661,425.928 C292.661,426.99 293.091,428.029 293.843,428.781 C294.594,429.532 295.634,429.964 296.697,429.964" id="Fill-68" fill="#F9C760"></path>
            <path d="M234.263,463.121 C235.326,463.121 236.365,462.69 237.117,461.938 C237.869,461.188 238.299,460.147 238.299,459.085 C238.299,458.022 237.869,456.982 237.117,456.231 C236.365,455.479 235.326,455.049 234.263,455.049 C233.2,455.049 232.161,455.479 231.409,456.231 C230.658,456.982 230.227,458.022 230.227,459.085 C230.227,460.147 230.658,461.188 231.409,461.938 C232.161,462.69 233.2,463.121 234.263,463.121" id="Fill-69" fill="#F9C760"></path>
            <path d="M275.876,463.121 L275.896,463.121 C278.125,463.121 279.932,461.313 279.932,459.085 C279.932,456.855 278.125,455.049 275.896,455.049 L275.876,455.049 C273.647,455.049 271.84,456.855 271.84,459.085 C271.84,461.313 273.647,463.121 275.876,463.121" id="Fill-70" fill="#F9C760"></path>
            <path d="M255.065,463.121 L255.085,463.121 C257.314,463.121 259.121,461.313 259.121,459.085 C259.121,456.855 257.314,455.049 255.085,455.049 L255.065,455.049 C252.836,455.049 251.028,456.855 251.028,459.085 C251.028,461.313 252.836,463.121 255.065,463.121" id="Fill-71" fill="#F9C760"></path>
            <path d="M296.697,463.121 C297.76,463.121 298.799,462.69 299.551,461.938 C300.302,461.188 300.733,460.147 300.733,459.085 C300.733,458.022 300.302,456.982 299.551,456.231 C298.799,455.479 297.76,455.049 296.697,455.049 C295.634,455.049 294.594,455.479 293.843,456.231 C293.091,456.982 292.661,458.022 292.661,459.085 C292.661,460.147 293.091,461.188 293.843,461.938 C294.594,462.69 295.634,463.121 296.697,463.121" id="Fill-72" fill="#F9C760"></path>
            <path d="M234.263,479.7 C235.326,479.7 236.365,479.269 237.117,478.518 C237.869,477.766 238.299,476.727 238.299,475.664 C238.299,474.601 237.869,473.562 237.117,472.81 C236.365,472.058 235.326,471.628 234.263,471.628 C233.2,471.628 232.161,472.058 231.409,472.81 C230.658,473.562 230.227,474.601 230.227,475.664 C230.227,476.727 230.658,477.766 231.409,478.518 C232.161,479.269 233.2,479.7 234.263,479.7" id="Fill-73" fill="#F9C760"></path>
            <path d="M275.876,479.7 L275.896,479.7 C278.125,479.7 279.932,477.893 279.932,475.664 C279.932,473.435 278.125,471.628 275.896,471.628 L275.876,471.628 C273.647,471.628 271.84,473.435 271.84,475.664 C271.84,477.893 273.647,479.7 275.876,479.7" id="Fill-74" fill="#F9C760"></path>
            <path d="M255.065,479.7 L255.085,479.7 C257.314,479.7 259.121,477.893 259.121,475.664 C259.121,473.435 257.314,471.628 255.085,471.628 L255.065,471.628 C252.836,471.628 251.028,473.435 251.028,475.664 C251.028,477.893 252.836,479.7 255.065,479.7" id="Fill-75" fill="#F9C760"></path>
            <path d="M296.697,479.7 C297.76,479.7 298.799,479.269 299.551,478.518 C300.302,477.766 300.733,476.727 300.733,475.664 C300.733,474.601 300.302,473.562 299.551,472.81 C298.799,472.058 297.76,471.628 296.697,471.628 C295.634,471.628 294.594,472.058 293.843,472.81 C293.091,473.562 292.661,474.601 292.661,475.664 C292.661,476.727 293.091,477.766 293.843,478.518 C294.594,479.269 295.634,479.7 296.697,479.7" id="Fill-76" fill="#F9C760"></path>
            <path d="M234.263,496.278 C235.326,496.278 236.365,495.848 237.117,495.097 C237.869,494.345 238.299,493.306 238.299,492.242 C238.299,491.18 237.869,490.14 237.117,489.389 C236.365,488.637 235.326,488.206 234.263,488.206 C233.2,488.206 232.161,488.637 231.409,489.389 C230.658,490.14 230.227,491.18 230.227,492.242 C230.227,493.306 230.658,494.345 231.409,495.097 C232.161,495.848 233.2,496.278 234.263,496.278" id="Fill-77" fill="#F9C760"></path>
            <path d="M275.876,496.278 L275.896,496.278 C278.125,496.278 279.932,494.472 279.932,492.242 C279.932,490.014 278.125,488.206 275.896,488.206 L275.876,488.206 C273.647,488.206 271.84,490.014 271.84,492.242 C271.84,494.472 273.647,496.278 275.876,496.278" id="Fill-78" fill="#F9C760"></path>
            <path d="M255.065,496.278 L255.085,496.278 C257.314,496.278 259.121,494.472 259.121,492.242 C259.121,490.014 257.314,488.206 255.085,488.206 L255.065,488.206 C252.836,488.206 251.028,490.014 251.028,492.242 C251.028,494.472 252.836,496.278 255.065,496.278" id="Fill-79" fill="#F9C760"></path>
            <path d="M296.697,496.278 C297.76,496.278 298.799,495.848 299.551,495.097 C300.302,494.345 300.733,493.306 300.733,492.242 C300.733,491.18 300.302,490.14 299.551,489.389 C298.799,488.637 297.76,488.206 296.697,488.206 C295.634,488.206 294.594,488.637 293.843,489.389 C293.091,490.14 292.661,491.18 292.661,492.242 C292.661,493.306 293.091,494.345 293.843,495.097 C294.594,495.848 295.634,496.278 296.697,496.278" id="Fill-80" fill="#F9C760"></path>
            <path d="M24.847,196.641 L24.867,196.641 C27.096,196.641 28.903,194.834 28.903,192.605 C28.903,190.375 27.096,188.569 24.867,188.569 L24.847,188.569 C22.618,188.569 20.811,190.375 20.811,192.605 C20.811,194.834 22.618,196.641 24.847,196.641" id="Fill-82" fill="#F8FAF9"></path>
            <path d="M4.036,196.641 L4.056,196.641 C6.285,196.641 8.092,194.834 8.092,192.605 C8.092,190.375 6.285,188.569 4.056,188.569 L4.036,188.569 C1.807,188.569 0,190.375 0,192.605 C0,194.834 1.807,196.641 4.036,196.641" id="Fill-83" fill="#F8FAF9"></path>
            <path d="M45.669,196.641 C46.731,196.641 47.771,196.21 48.522,195.458 C49.274,194.707 49.705,193.668 49.705,192.605 C49.705,191.542 49.274,190.502 48.522,189.751 C47.771,189 46.731,188.569 45.669,188.569 C44.606,188.569 43.566,189 42.814,189.751 C42.063,190.502 41.632,191.542 41.632,192.605 C41.632,193.668 42.063,194.707 42.814,195.458 C43.566,196.21 44.606,196.641 45.669,196.641" id="Fill-84" fill="#F8FAF9"></path>
            <path d="M24.847,180.063 L24.867,180.063 C27.096,180.063 28.903,178.255 28.903,176.026 C28.903,173.797 27.096,171.99 24.867,171.99 L24.847,171.99 C22.618,171.99 20.811,173.797 20.811,176.026 C20.811,178.255 22.618,180.063 24.847,180.063" id="Fill-86" fill="#F8FAF9"></path>
            <path d="M4.036,180.063 L4.056,180.063 C6.285,180.063 8.092,178.255 8.092,176.026 C8.092,173.797 6.285,171.99 4.056,171.99 L4.036,171.99 C1.807,171.99 0,173.797 0,176.026 C0,178.255 1.807,180.063 4.036,180.063" id="Fill-87" fill="#F8FAF9"></path>
            <path d="M45.669,180.063 C46.731,180.063 47.771,179.631 48.522,178.88 C49.274,178.128 49.705,177.089 49.705,176.026 C49.705,174.963 49.274,173.924 48.522,173.172 C47.771,172.42 46.731,171.99 45.669,171.99 C44.606,171.99 43.566,172.42 42.814,173.172 C42.063,173.924 41.632,174.963 41.632,176.026 C41.632,177.089 42.063,178.128 42.814,178.88 C43.566,179.631 44.606,180.063 45.669,180.063" id="Fill-88" fill="#F8FAF9"></path>
            <path d="M24.847,213.22 L24.867,213.22 C27.096,213.22 28.903,211.413 28.903,209.184 C28.903,206.955 27.096,205.148 24.867,205.148 L24.847,205.148 C22.618,205.148 20.811,206.955 20.811,209.184 C20.811,211.413 22.618,213.22 24.847,213.22" id="Fill-90" fill="#F8FAF9"></path>
            <path d="M4.036,213.22 L4.056,213.22 C6.285,213.22 8.092,211.413 8.092,209.184 C8.092,206.955 6.285,205.148 4.056,205.148 L4.036,205.148 C1.807,205.148 0,206.955 0,209.184 C0,211.413 1.807,213.22 4.036,213.22" id="Fill-91" fill="#F8FAF9"></path>
            <path d="M45.669,213.22 C46.731,213.22 47.771,212.789 48.522,212.038 C49.274,211.286 49.705,210.247 49.705,209.184 C49.705,208.121 49.274,207.082 48.522,206.33 C47.771,205.578 46.731,205.148 45.669,205.148 C44.606,205.148 43.566,205.578 42.814,206.33 C42.063,207.082 41.632,208.121 41.632,209.184 C41.632,210.247 42.063,211.286 42.814,212.038 C43.566,212.789 44.606,213.22 45.669,213.22" id="Fill-92" fill="#F8FAF9"></path>
            <path d="M24.847,229.799 L24.867,229.799 C27.096,229.799 28.903,227.991 28.903,225.763 C28.903,223.533 27.096,221.727 24.867,221.727 L24.847,221.727 C22.618,221.727 20.811,223.533 20.811,225.763 C20.811,227.991 22.618,229.799 24.847,229.799" id="Fill-94" fill="#F8FAF9"></path>
            <path d="M4.036,229.799 L4.056,229.799 C6.285,229.799 8.092,227.991 8.092,225.763 C8.092,223.533 6.285,221.727 4.056,221.727 L4.036,221.727 C1.807,221.727 0,223.533 0,225.763 C0,227.991 1.807,229.799 4.036,229.799" id="Fill-95" fill="#F8FAF9"></path>
            <path d="M45.669,229.799 C46.731,229.799 47.771,229.368 48.522,228.616 C49.274,227.865 49.705,226.825 49.705,225.763 C49.705,224.7 49.274,223.66 48.522,222.908 C47.771,222.157 46.731,221.727 45.669,221.727 C44.606,221.727 43.566,222.157 42.814,222.908 C42.063,223.66 41.632,224.7 41.632,225.763 C41.632,226.825 42.063,227.865 42.814,228.616 C43.566,229.368 44.606,229.799 45.669,229.799" id="Fill-96" fill="#F8FAF9"></path>
            <path d="M24.847,246.377 L24.867,246.377 C27.096,246.377 28.903,244.57 28.903,242.341 C28.903,240.112 27.096,238.305 24.867,238.305 L24.847,238.305 C22.618,238.305 20.811,240.112 20.811,242.341 C20.811,244.57 22.618,246.377 24.847,246.377" id="Fill-98" fill="#F8FAF9"></path>
            <path d="M4.036,246.377 L4.056,246.377 C6.285,246.377 8.092,244.57 8.092,242.341 C8.092,240.112 6.285,238.305 4.056,238.305 L4.036,238.305 C1.807,238.305 0,240.112 0,242.341 C0,244.57 1.807,246.377 4.036,246.377" id="Fill-99" fill="#F8FAF9"></path>
            <path d="M45.669,246.377 C46.731,246.377 47.771,245.947 48.522,245.195 C49.274,244.444 49.705,243.404 49.705,242.341 C49.705,241.279 49.274,240.239 48.522,239.487 C47.771,238.736 46.731,238.305 45.669,238.305 C44.606,238.305 43.566,238.736 42.814,239.487 C42.063,240.239 41.632,241.279 41.632,242.341 C41.632,243.404 42.063,244.444 42.814,245.195 C43.566,245.947 44.606,246.377 45.669,246.377" id="Fill-100" fill="#F8FAF9"></path>
        </g>
    </g>
</svg>