<svg id="Capa_1" enable-background="new 0 0 512 512" height="512" viewBox="0 0 512 512" width="512" xmlns="http://www.w3.org/2000/svg"><g id="List"><path d="m144 0h32v32h-32z" fill="#c8fa64"/><path d="m208 0h32v32h-32z" fill="#c8fa64"/><path d="m272 0h32v32h-32z" fill="#c8fa64"/><path d="m336 0h32v32h-32z" fill="#c8fa64"/><g><path d="m432 32h-352v64h352z" fill="#4de600"/><path d="m80 96v416h352v-416c-116.127 0-267.061 0-352 0z" fill="#c8fa64"/></g><path d="m144 32h32v32h-32z" fill="#0c0"/><path d="m208 32h32v32h-32z" fill="#0c0"/><path d="m272 32h32v32h-32z" fill="#0c0"/><path d="m336 32h32v32h-32z" fill="#0c0"/><g fill="#4de600"><path d="m112 160h32v32h-32z"/><path d="m176 160h224v32h-224z"/><path d="m112 224h32v32h-32z"/><path d="m176 224h224v32h-224z"/><path d="m112 288h32v32h-32z"/><path d="m176 288h224v32h-224z"/><path d="m112 352h32v32h-32z"/><path d="m176 352h224v32h-224z"/><path d="m112 416h32v32h-32z"/><path d="m176 416h224v32h-224z"/></g></g></svg>