<?xml version="1.0" encoding="UTF-8"?>
<svg width="702px" height="301px" viewBox="0 0 702 301" version="1.1" xmlns="http://www.w3.org/2000/svg" xmlns:xlink="http://www.w3.org/1999/xlink">
    <title>11115</title>
    <defs>
        <path d="M97.1182269,149.18674 L92.2136519,144.825511 C90.2455915,145.754897 87.6763563,146.276386 84.3725622,146.276386 C84.3682595,146.276386 84.3644731,146.276386 84.3603425,146.276386 C74.545685,146.272943 71.1386257,142.336823 71.529312,135.942993 C72.1365106,126.011646 79.0988145,124.349939 85.5009053,124.349939 C85.505208,124.349939 85.5093386,124.349939 85.5136413,124.349939 C91.9190022,124.352004 98.1825457,127.674902 97.8780858,135.149573 C97.7465949,138.374886 96.8457792,141.175091 94.7093968,143.159501 L97.1182269,149.18674 L97.1182269,149.18674 Z" id="path-1"></path>
    </defs>
    <g id="website" stroke="none" stroke-width="1" fill="none" fill-rule="evenodd">
        <g id="11115">
            <polygon id="Fill-1" fill="#FFFFFF" points="0 300 702 300 702 0 0 0"></polygon>
            <g id="Group-7" transform="translate(135.581500, 30.341781)">
                <path d="M411.320307,269.376967 C386.63651,269.376967 27.0552791,269.464743 26.8477163,268.822778 L26.812434,268.740166 C26.812434,268.740166 26.7773239,268.660996 26.7773239,268.621411 C26.6398092,268.299568 -28.6261131,177.899595 57.291639,114.966585 C90.9087255,90.3428545 55.1879571,74.0878982 81.9200165,46.6756661 C99.5711168,28.5769117 118.148505,32.3799926 137.239292,36.1830734 C151.378003,38.9992842 165.797251,41.8154951 180.331811,35.738173 C186.367655,33.2166118 192.424152,29.158122 198.487533,22.930205 C201.900444,19.428314 205.642082,16.3652996 209.645325,13.720853 C210.259752,13.3138165 210.879343,12.916418 211.505817,12.5302066 C213.90501,11.0517949 216.390256,9.71537263 218.95123,8.51336709 C220.670593,7.7068668 222.422658,6.96112081 224.209143,6.27578489 C227.042049,5.18737094 229.952403,4.24851925 232.922995,3.45527132 C237.143095,2.32710031 241.488834,1.48841574 245.918906,0.920629909 C247.851684,0.670556305 249.799952,0.475729519 251.763709,0.328060453 C289.935646,-2.5246374 332.892199,13.5220677 355.061491,36.9761492 C359.524263,41.6989777 379.819294,66.1363148 363.820091,99.7251756 C353.719045,120.932209 396.035354,141.187138 411.072471,165.4028 C449.302925,226.972883 411.667966,268.574942 411.320307,269.376967" id="Fill-2" fill="#EBF3FA"></path>
                <path d="M42.5889289,268.81073 L58.8542117,268.81073 C59.7259411,268.070664 58.2511437,266.390885 56.7102565,266.279015 C56.0409267,266.227382 55.1946694,266.368511 54.2275919,266.571599 C54.0038509,263.599286 52.7256013,250.235064 47.9081132,250.772042 C42.4916876,251.372701 47.9081132,256.658152 49.4393622,259.785362 C50.5737291,262.103663 51.7702272,265.427078 52.3170158,266.994986 C51.8772787,267.089646 51.4220518,267.182584 50.9570147,267.268639 C50.2389781,265.063929 47.5676826,257.649496 44.1706057,258.081489 C40.182164,258.587487 41.7853544,261.559801 44.612236,263.325634 C46.6863152,264.623331 49.2331763,266.466613 50.4432709,267.358135 C49.4180208,267.52508 48.3478503,267.638672 47.2621901,267.612856 C44.4760982,267.547454 43.1162692,268.368412 42.5889289,268.81073" id="Fill-3" fill="#A8D29F"></path>
                <path d="M183.255934,123.598857 C174.858761,103.756816 155.396736,78.2326143 155.172995,72.1816248 C155.169553,72.1212147 155.167832,72.061321 155.167832,72.0022878 C155.11792,69.6592031 157.033487,68.1165949 159.004129,68.1165949 C160.014406,68.1165949 161.040172,68.5225987 161.823266,69.4346015 C179.206221,89.6776553 183.255934,123.598857 183.255934,123.598857" id="Fill-4" fill="#DBE7FB"></path>
                <path d="M185.367704,133.309906 C168.100062,111.485347 135.105147,86.3834992 132.748982,78.9260393 C131.864345,76.1296209 132.218888,74.3384881 133.005424,73.1922457 C133.76098,72.0948821 134.993277,71.520384 136.253111,71.520384 C137.01383,71.520384 137.783155,71.7301843 138.462984,72.1606275 C168.046708,90.911673 185.367704,133.309906 185.367704,133.309906" id="Fill-5" fill="#DBE7FB"></path>
                <path d="M189.684185,206.051378 C189.684185,206.051378 192.169431,185.234858 202.836714,172.812069 C203.316897,172.250996 203.946814,172.003159 204.566404,172.003159 C205.776327,172.003159 206.951827,172.949756 206.920848,174.386862 C206.920848,174.423004 206.919127,174.460868 206.917406,174.497011 C206.779719,178.211112 194.837112,193.874703 189.684185,206.051378" id="Fill-6" fill="#DBE7FB"></path>
                <path d="M188.386487,212.011494 C188.386487,212.011494 199.015906,185.992136 217.171628,174.484963 C217.589852,174.219916 218.061429,174.090835 218.529564,174.090835 C219.30061,174.090835 220.057887,174.443657 220.520859,175.116602 C221.004484,175.820525 221.22134,176.920298 220.679199,178.63622 C219.231767,183.212584 198.983205,198.618013 188.386487,212.011494" id="Fill-7" fill="#DBE7FB"></path>
                <path d="M116.667684,255.992092 C116.042069,255.992092 115.405096,255.983486 114.759689,255.966276 C101.840023,255.606569 106.709832,251.040531 112.49457,244.214709 C118.279307,237.387166 132.621622,236.573093 136.416614,233.643807 C138.934561,231.702424 136.941545,230.502828 132.914207,230.502828 C130.86973,230.502828 128.301528,230.810902 125.533163,231.489009 C117.310337,233.500957 114.518049,242.515999 101.275507,246.013243 C100.362127,246.254195 99.4441007,246.367786 98.5246973,246.367786 C86.1136114,246.367786 73.6135455,225.893763 73.6135455,225.893763 C74.3740928,226.00047 75.1706108,226.048661 75.9941498,226.048661 C85.7451272,226.048661 99.1993625,219.119574 99.303316,216.069812 C99.3346397,215.152473 97.4708771,214.827188 94.6734261,214.827188 C91.2052684,214.827188 86.3018981,215.328024 81.7988522,215.830581 C77.2947735,216.331416 73.1908471,216.833973 71.3208886,216.833973 C71.1219312,216.833973 70.9481017,216.82881 70.8018095,216.816762 C66.7997713,216.488035 58.8063656,209.908328 60.4376096,193.847166 C61.967826,178.77907 85.5926391,178.314377 88.5110824,178.314377 C88.7036718,178.314377 88.8065926,178.316098 88.8065926,178.316098 C88.8065926,178.316098 110.671769,202.118699 116.020728,202.118699 C116.043446,202.118699 116.065992,202.118699 116.088022,202.116978 C121.318743,201.91389 101.242806,177.911643 101.242806,177.911643 C102.606766,177.550215 104.312361,177.393597 106.23791,177.393597 C118.106855,177.393597 138.325297,183.319291 138.325297,183.319291 C138.325297,183.319291 141.733045,213.541538 146.572735,213.539817 C146.686326,213.539817 146.799918,213.524327 146.91523,213.489906 C151.933913,212.00461 142.323377,185.622102 142.323377,185.622102 C152.408933,186.921521 163.224229,196.654255 163.224229,196.654255 C177.443831,213.066519 155.635967,230.478732 155.635967,230.478732 C155.635967,230.478732 150.321257,255.993813 116.667684,255.992092" id="Fill-8" fill="#D9E5FC"></path>
                <path d="M316.894717,193.473691 C313.872492,193.473691 311.734905,192.356707 310.876084,191.23456 C309.185979,189.031571 302.709537,173.619258 300.468685,173.619258 C300.377467,173.619258 300.291413,173.645074 300.215685,173.698428 C298.257091,175.056364 299.661496,187.692567 304.28605,193.072678 C304.28605,193.072678 304.112221,193.077841 303.795541,193.077841 C300.7148,193.077841 284.089122,192.680271 281.326781,184.179833 C278.280461,174.803364 282.646853,169.598804 280.659,163.838334 C279.218452,159.666424 277.106681,156.719927 275.941507,156.719927 C275.499188,156.719927 275.191114,157.146756 275.111944,158.093353 C274.81936,161.530359 279.918934,170.52819 278.042951,176.689673 C276.860566,180.570719 276.115336,183.857991 274.39081,183.857991 C273.377091,183.857991 272.026039,182.720354 270.048513,179.901217 C264.707987,172.281975 259.272802,156.809424 264.403355,151.019695 C264.627096,150.766696 264.840511,150.525744 265.04532,150.295118 C264.592674,150.708179 264.403355,151.019695 264.403355,151.019695 C262.835447,149.868289 257.543112,149.413923 253.555358,149.236651 L253.548474,149.236651 C253.440046,149.240093 253.324733,149.240093 253.200815,149.240093 C252.57434,149.240093 251.748219,149.210835 250.677705,149.143713 L250.672542,149.143713 C250.109747,149.131665 249.650217,149.126502 249.326653,149.124781 L249.295674,149.124781 C248.782791,149.138549 248.259581,149.178134 247.727766,149.238372 L246.967046,147.484587 C247.36978,147.470818 247.755303,147.465655 248.118452,147.465655 C250.526249,147.465655 252.023593,147.72726 252.023593,147.72726 C253.211141,147.828804 254.355663,147.873552 255.451994,147.873552 C263.897356,147.871831 269.533909,145.229966 269.533909,145.229966 C269.533909,145.229966 271.358258,127.280946 284.722481,127.280946 C285.459105,127.280946 286.233593,127.335849 287.040782,127.450989 C287.040782,127.450989 297.148712,130.200766 301.866205,135.796701 C301.866205,135.796701 282.154623,140.266358 283.21309,143.884078 C283.37315,144.427941 283.97553,144.660287 284.884263,144.660287 C290.002769,144.660287 304.817866,137.31814 304.817866,137.31814 C304.817866,137.31814 320.309349,150.723668 322.546759,157.647592 C322.546759,157.647592 313.610887,156.532329 307.523411,156.532329 C303.984861,156.532329 301.408397,156.909247 302.114042,158.101958 C304.029609,161.346203 327.152381,165.330514 327.152381,165.330514 C327.152381,165.330514 337.897113,181.30218 328.814949,188.551389 C324.173184,192.255163 320.051186,193.473691 316.894717,193.473691" id="Fill-9" fill="#CCDBFD"></path>
                <path d="M252.310191,120.658219 C253.153816,118.302194 254.016457,116.903661 254.016457,116.903661 L254.016457,116.90349 C257.793752,109.359399 257.371939,102.911339 257.371939,102.911339 C257.371939,102.911339 242.66037,95.4375404 249.0083,84.383041 C249.0083,84.383041 254.158213,77.5517794 259.868238,75.6432779 C259.868238,75.6432779 257.365024,91.8868677 260.45601,92.1600226 C260.478483,92.1618993 260.500957,92.162923 260.52343,92.162923 C263.522793,92.16207 261.923709,73.8612023 261.923709,73.8612023 C261.923709,73.8612023 276.187535,66.4711759 282.421368,66.4711759 C282.56831,66.4711759 282.710067,66.4752707 282.846637,66.4836308 C282.846637,66.4836308 274.244432,82.0920202 276.917063,82.0918496 C276.956824,82.0918496 277.000042,82.0884373 277.044989,82.0811009 C280.110044,81.5948476 290.1229,65.281135 290.1229,65.281135 C290.1229,65.281135 292.968404,64.6582189 296.44317,64.6582189 C301.071004,64.6582189 306.813875,65.7636347 308.426789,70.9196258 C311.251548,79.9456811 307.375715,84.6420349 305.086865,85.2915669 C302.798015,85.9410989 287.979264,86.2644147 288.432193,88.1495419 C288.776212,89.5798091 294.678127,91.4741495 299.917935,91.4741495 C301.582711,91.4741495 303.181795,91.2825486 304.512924,90.8237644 C304.512924,90.8237644 299.063938,105.566623 291.160143,105.566623 C291.035674,105.566623 290.911205,105.562869 290.785007,105.555533 C282.67895,105.075934 280.002862,100.226538 274.98779,100.020264 C274.664516,100.006956 274.346428,100.000473 274.036983,100.000473 C269.533618,100.000473 266.52907,101.349357 268.913001,102.511587 C271.461162,103.753837 279.893951,102.567208 284.053297,105.816574 C288.212643,109.06594 291.557753,111.041153 284.110346,112.819816 C281.681467,113.399737 278.609498,113.739261 275.471837,113.739261 C268.985608,113.739261 262.217595,112.288691 260.267577,108.513488 C258.912246,109.358204 256.9726,113.228098 255.634556,116.193219 L255.634556,116.197826 C255.446124,116.700288 255.145323,117.397421 254.69758,118.3428 L254.69758,118.344848 L254.695851,118.346383 C254.517791,118.768997 254.376034,119.115858 254.275768,119.359496 L254.270581,119.376387 L254.267124,119.383382 C254.123639,119.775285 253.997441,120.182714 253.883344,120.603622 L252.310191,120.658219 M260.3685,107.658219 C260.418024,108.321882 260.4685,108.658219 260.4685,108.658219 C260.433738,108.309705 260.400405,107.977264 260.3685,107.658219" id="Fill-10" fill="#CCDBFD"></path>
                <path d="M192.909497,48.777799 C192.909497,48.777799 197.270726,40.5685693 207.698778,41.4807441 C207.698778,41.4807441 222.840881,27.798293 238.986377,39.6563944 C238.986377,39.6563944 256.149033,36.7183307 268.859243,42.2005018 C277.333864,45.8555693 280.134069,49.6899738 280.134069,49.6899738 L192.909497,48.777799" id="Fill-11" fill="#F8FCFF"></path>
                <path d="M260.486166,35.1425056 C260.486166,35.1425056 263.578956,28.9240545 270.974456,29.61507 C270.974456,29.61507 281.712304,19.2506981 293.160959,28.2332111 C293.160959,28.2332111 305.33247,26.0075044 314.34579,30.1603097 C320.355818,32.9288465 322.340229,35.833349 322.340229,35.833349 L260.486166,35.1425056" id="Fill-12" fill="#F8FCFF"></path>
                <path d="M88.0066325,113.352724 C88.0066325,113.352724 90.795306,107.134273 97.4634765,107.825289 C97.4634765,107.825289 107.144578,97.4609166 117.468332,106.44343 C117.468332,106.44343 128.442484,104.217723 136.56979,108.370356 C141.987765,111.139065 143.777693,114.043567 143.777693,114.043567 L88.0066325,113.352724" id="Fill-13" fill="#F8FCFF"></path>
                <path d="M229.378548,197.658219 L237.4185,151.658219 L193.460183,151.658219 L185.4185,197.658219 L229.378548,197.658219 Z M152.332369,225.648274 L128.4185,225.648274 L128.4185,197.865303 L157.113496,197.865303 L164.8189,151.382055 L138.249841,151.382055 L138.249841,123.599774 L169.601743,123.599774 L176.776865,81.6582189 L205.206204,81.6582189 L198.032798,123.599774 L241.606947,123.599774 L248.51607,81.6582189 L276.945409,81.6582189 L269.772003,123.599774 L293.4185,123.599774 L293.4185,151.382055 L264.989161,151.382055 L257.283756,197.865303 L283.854531,197.865303 L283.854531,225.648274 L252.500914,225.648274 L245.061508,268.658219 L216.632169,268.658219 L224.071574,225.648274 L180.495709,225.648274 L173.322303,268.658219 L144.891248,268.658219 L152.332369,225.648274 L152.332369,225.648274 Z" id="Fill-14" fill="#F77D48"></path>
                <path d="M95.3875041,172.003159 C95.387332,171.915384 96.6555993,169.294172 96.2521771,169.092805 C95.8487548,168.891438 95.1260714,168.920697 95.0420824,169.380226 C94.9579214,169.839756 95.3875041,172.003159 95.3875041,172.003159" id="Fill-15" fill="#FFB27D"></path>
                <path d="M95.8663118,173.567625 C95.8671704,173.309463 95.5692507,169.383668 94.9071494,168.602296 C94.2450481,167.820924 92.892964,166.710824 92.467684,166.743525 C92.0422318,166.777946 90.3793198,168.987819 90.8792949,170.681366 C91.37927,172.374914 93.4893198,174.665677 93.4893198,174.665677 L95.8663118,173.567625" id="Fill-16" fill="#FFB27D"></path>
                <path d="M98.3902806,168.810547 L94.535223,169.967116 C94.4073464,170.00498 94.2725855,169.932695 94.2342053,169.803613 L92.0312169,162.45286 C91.9926646,162.3255 92.0654665,162.191256 92.1933431,162.151671 L96.0482285,160.996823 C96.1761051,160.958959 96.3110382,161.031245 96.3492463,161.158605 L98.5525789,168.509357 C98.5907869,168.638439 98.5181572,168.772683 98.3902806,168.810547" id="Fill-17" fill="#F1A34F"></path>
                <path d="M97.3886093,169.111737 L93.8918816,170.159878 C93.6650426,170.227 93.4259839,170.097919 93.3580011,169.872457 L91.2622363,162.879689 C91.1942534,162.652506 91.3229906,162.413276 91.5500016,162.344432 L95.0465573,161.296292 C95.2733962,161.229169 95.512627,161.358251 95.5806098,161.585434 L97.6763747,168.57648 C97.7443575,168.803663 97.6154483,169.042894 97.3886093,169.111737" id="Fill-18" fill="#D86713"></path>
                <path d="M92.0699413,167.029225 C92.0699413,167.029225 93.675197,164.559468 94.0674322,164.697155 C94.627301,164.893359 92.612083,168.027454 92.612083,168.027454 C92.612083,168.027454 94.1054682,165.685058 94.338503,165.862329 C94.8701461,166.263342 94.0240609,167.734869 93.1852042,168.86218 C93.1852042,168.86218 94.6868506,167.487033 94.7357294,167.734869 C94.9071494,168.602296 93.0871024,170.705462 93.0871024,170.705462 L92.0699413,168.381997 L92.0699413,167.029225" id="Fill-19" fill="#FFB27D"></path>
                <path d="M90.8656984,169.323431 C90.9433193,169.02052 91.3352103,163.122362 91.503016,163.681715 C91.6706497,164.241067 92.0699413,167.333857 92.0699413,167.333857 L90.8656984,169.323431" id="Fill-20" fill="#FFB27D"></path>
                <path d="M116.484732,167.698727 C116.484732,167.698727 116.31641,174.111488 114.466933,179.288511 C113.006076,183.374366 110.496046,186.690896 106.190408,185.465484 C105.749983,185.341566 105.323842,185.2056 104.910266,185.061029 L104.90493,185.059308 C96.1575174,182.012988 93.3270216,175.037432 93.3270216,175.037432 C93.9786242,173.963475 95.8656215,173.567625 95.8656215,173.567625 C97.6273237,173.662285 105.368591,176.949557 105.862714,177.04938 C107.652986,177.409086 109.099558,167.569645 110.263355,164.161898 C111.426981,160.752429 116.189222,159.227548 116.189222,159.227548 L116.484732,167.698727" id="Fill-21" fill="#F99746"></path>
                <path d="M114.635255,174.667398 L114.466933,179.288511 C113.006076,183.374366 110.496046,186.690896 106.190408,185.465484 C105.749983,185.341566 105.323842,185.2056 104.910266,185.061029 C105.048125,185.079961 107.683449,185.436225 108.78632,184.33301 C109.919655,183.197094 109.801416,179.438245 111.88892,176.932346 C113.978145,174.424726 114.635255,174.667398 114.635255,174.667398" id="Fill-22" fill="#ED7D2B"></path>
                <path d="M114.876551,259.176098 C114.876551,259.176098 117.029456,261.141577 116.609339,262.537377 C116.189222,263.933177 114.246462,264.864283 113.983824,266.569878 C113.721359,268.277194 112.671153,269.20658 111.725933,269.20658 C110.780713,269.20658 107.219789,269.20658 107.219789,269.20658 C107.219789,269.20658 106.524127,268.006984 108.204422,267.643835 C109.884717,267.282407 110.518248,265.277344 110.413262,263.416851 C110.308104,261.554637 110.570741,259.072833 110.570741,259.072833 L114.141303,258.246713 L114.876551,259.176098" id="Fill-23" fill="#0E2949"></path>
                <path d="M91.1565617,268.850315 L104.424231,268.850315 C104.944343,268.850315 105.372033,268.437255 105.386146,267.917488 C105.407143,267.139557 105.342602,266.008805 104.911643,265.055324 C104.203244,263.485694 103.755934,263.210321 106.747179,258.640841 C105.847741,259.568506 103.42256,259.143398 101.37619,258.868024 C101.125428,259.275921 97.3288877,265.141378 96.4914079,265.742037 C95.5663248,266.408096 91.4414012,266.170587 91.1565617,268.850315" id="Fill-24" fill="#0E2949"></path>
                <path d="M111.829887,195.273945 C111.829887,195.273945 102.210228,213.426225 99.5960725,223.420564 C97.5670858,231.179214 109.949946,261.196652 109.949946,261.196652 C109.949946,261.196652 110.961772,261.12953 112.61298,260.480681 C114.234242,259.843879 114.851423,258.133121 114.851423,258.133121 C114.851423,258.133121 114.117208,236.671195 111.610793,226.287891 C111.04817,223.955822 114.336302,216.438124 119.886284,212.321289 C125.436094,208.202733 127.747166,194.955545 124.4432,194.05886 C121.139406,193.163896 111.829887,195.273945 111.829887,195.273945" id="Fill-25" fill="#707FE5"></path>
                <path d="M120.065277,190.121018 C120.065277,190.121018 109.952527,227.191461 106.884694,235.516347 C103.816861,243.841234 98.9518705,261.509889 98.9518705,261.509889 C98.9518705,261.509889 102.027793,262.953879 105.966495,262.270609 C105.966495,262.270609 120.753711,240.607316 121.397396,231.032922 C121.694972,226.608013 136.56979,209.063276 134.910665,197.623226 L120.065277,190.121018" id="Fill-26" fill="#8C9DF4"></path>
                <path d="M134.88657,201.688428 C134.88657,201.688428 132.735214,202.772711 128.930928,203.091112 L128.927314,203.091112 C124.571421,203.457703 118.047649,202.815738 110.102262,198.392551 C110.102262,198.392551 107.885849,196.56648 110.608777,188.799225 C112.669604,182.92 113.673857,170.524748 116.189222,159.227548 C116.189222,159.227548 124.349401,156.666574 130.896579,158.879889 C135.898567,160.571715 135.401174,168.249474 136.325396,176.242191 C136.411451,176.989142 136.509553,177.737814 136.624865,178.484764 C137.991406,187.234759 134.88657,201.688428 134.88657,201.688428" id="Fill-27" fill="#F99746"></path>
                <path d="M113.312257,142.503768 C113.312257,142.503768 118.882031,133.436922 123.195069,138.102954 C123.195069,138.102954 126.014894,138.822368 127.630132,143.212855 C129.278071,147.692838 126.71159,151.647891 124.997561,151.009368 C123.898477,150.598029 123.384044,152.492943 123.384044,152.492943 L113.312257,142.503768" id="Fill-28" fill="#233862"></path>
                <path d="M122.340895,137.388704 C122.340895,137.388704 122.724353,133.63433 128.208933,133.999544 C128.208933,133.999544 125.615259,134.046014 125.058488,135.127199 C125.058488,135.127199 126.94428,133.912113 128.320115,134.503478 C129.69595,135.094498 130.278882,137.669241 130.204359,138.488477 C130.130008,139.309435 129.073606,141.868688 128.148867,142.001211 C127.224301,142.135456 126.012829,141.481444 126.012829,141.481444 L122.340895,137.388704" id="Fill-29" fill="#233862"></path>
                <path d="M125.104096,158.650984 C124.589148,157.277559 123.821888,155.83529 123.205912,151.451687 L122.876497,151.567 L117.340283,153.516989 C117.340283,153.516989 117.728388,155.291427 117.97588,156.979811 C118.077252,157.671687 118.149537,158.903984 118.196695,159.979662 C118.245058,161.081156 119.327276,161.184421 120.427393,161.132789 C123.354786,160.998544 124.967959,159.905655 125.104096,158.650984" id="Fill-30" fill="#FFB27D"></path>
                <path d="M117.340283,153.516989 C117.340283,153.516989 117.728388,155.291427 117.97588,156.979811 C121.15197,156.430785 122.418344,153.279479 122.876497,151.567 L117.340283,153.516989" id="Fill-31" fill="#E8945B"></path>
                <path d="M123.375783,150.861355 C123.375783,150.861355 124.666425,147.980259 124.74198,145.663679 C124.796022,144.011438 123.113662,138.154587 117.23306,139.880835 C117.23306,139.880835 115.513696,140.302501 114.03408,141.646668 C112.857374,142.715461 111.249881,144.88747 114.105161,149.797725 L114.905465,151.480946 L123.375783,150.861355" id="Fill-32" fill="#233862"></path>
                <path d="M116.505902,155.270774 C116.505902,155.270774 124.069036,154.306967 123.39678,149.606684 C122.724353,144.904681 123.247907,141.615688 118.390489,142.032191 C113.533072,142.446972 112.853588,144.374587 112.696281,145.999291 C112.539146,147.622274 114.521147,155.399855 116.505902,155.270774" id="Fill-33" fill="#FFB27D"></path>
                <path d="M114.937305,142.41255 C114.937305,142.41255 117.798092,147.627437 121.086052,147.987144 C124.374012,148.345129 125.626962,147.296989 125.626962,147.296989 C125.626962,147.296989 122.916598,145.715312 121.925769,142.415993 C121.925769,142.415993 116.117453,139.562434 114.937305,142.41255" id="Fill-34" fill="#233862"></path>
                <path d="M115.513868,142.786026 C115.513868,142.786026 114.148532,144.238621 113.944928,145.48985 C113.741323,146.741078 113.927373,149.229767 113.197116,149.248699 C113.197116,149.248699 111.100319,145.725638 112.543965,143.353984 C114.074697,140.837758 115.513868,142.786026 115.513868,142.786026" id="Fill-35" fill="#233862"></path>
                <path d="M115.254157,143.013209 C115.254157,143.013209 117.558345,148.575755 121.82543,149.847636 C121.82543,149.847636 117.313607,146.877044 116.424494,143.114753 C115.535382,139.350741 115.254157,143.013209 115.254157,143.013209" id="Fill-36" fill="#233862"></path>
                <path d="M134.88657,201.688428 C134.88657,201.688428 132.735214,202.772711 128.930928,203.091112 L128.927314,203.091112 C128.927314,203.091112 125.801308,199.172202 129.288914,194.781715 C132.77652,190.389507 129.01681,182.28664 131.702563,177.878942 C133.571661,174.81197 135.390847,175.52622 136.325396,176.242191 C136.411451,176.989142 136.509553,177.737814 136.624865,178.484764 C137.991406,187.234759 134.88657,201.688428 134.88657,201.688428" id="Fill-37" fill="#ED7D2B"></path>
                <path d="M148.608778,195.174122 C148.608778,195.174122 149.07175,196.254964 149.718877,196.327249 C150.777345,196.444283 152.791014,197.330642 153.107693,197.51824 C153.964793,198.027681 153.906276,200.302955 153.049176,200.51809 C152.192076,200.731505 151.763526,198.821101 149.085518,198.309939 C148.176786,198.136109 146.853271,198.764305 146.318014,196.587133 L148.608778,195.174122" id="Fill-38" fill="#FFB27D"></path>
                <path d="M130.896579,158.879889 C138.685004,161.743774 138.972425,175.539988 142.443852,181.617138 C146.02543,187.883608 149.512347,196.131046 149.512347,196.131046 C149.512347,196.131046 149.448667,196.377161 148.113105,196.759241 C147.173393,197.029452 146.192375,196.91586 146.192375,196.91586 C146.192375,196.91586 138.834738,190.258705 136.834838,187.63405 C134.836658,185.007675 130.122435,172.825838 130.122435,172.825838 C130.122435,172.825838 127.804995,157.742252 130.896579,158.879889" id="Fill-39" fill="#F99746"></path>
                <path d="M146.510776,197.127554 C146.510776,197.127554 146.700095,198.053497 147.848058,198.80389 C148.996022,199.554283 149.916802,200.302955 150.028673,199.839983 C150.138822,199.37529 149.388429,198.874454 149.211157,198.017354 C149.032165,197.160254 146.510776,197.127554 146.510776,197.127554" id="Fill-40" fill="#FFB27D"></path>
                <path d="M268.656155,187.770016 C265.079741,187.005855 261.34843,188.088417 258.701402,190.611527 C257.534506,191.725069 256.254019,193.115705 255.076797,194.759341 C252.159559,198.831427 257.744478,202.863929 257.002691,204.242518 C256.259182,205.622828 254.538098,206.712274 255.291933,209.59337 C256.044047,212.474466 261.011097,216.214383 262.630638,216.379607 C279.042901,218.06627 286.16475,209.018528 280.677932,204.140974 C275.192835,199.26342 277.430245,192.188041 272.977799,189.439468 C271.600931,188.590974 270.089819,188.076369 268.656155,187.770016" id="Fill-41" fill="#162C51"></path>
                <path d="M260.07999,213.508838 C260.07999,213.508838 245.103112,220.763209 242.297743,220.641012 C239.492375,220.518815 221.956244,214.343564 221.956244,214.343564 L222.39512,217.317598 C222.39512,217.317598 235.736969,224.990193 240.401108,225.425628 C244.992962,225.854178 260.694418,221.305351 262.210693,220.343265 C263.725248,219.3829 264.484246,214.48125 260.07999,213.508838" id="Fill-42" fill="#ED985F"></path>
                <path d="M258.431191,220.35187 C259.787406,221.293304 261.489559,222.071234 263.627146,222.563464 C271.635353,224.41363 274.704047,217.644604 275.857174,212.997675 C274.766006,212.372922 273.738518,212.235235 273.144744,212.16467 C272.564739,212.095827 271.957196,212.051079 271.452918,212.025263 C270.552791,211.336829 269.213787,208.517692 268.916039,204.140974 L268.539122,204.242518 L262.227904,205.968766 C262.227904,205.968766 262.517046,207.97555 262.658175,209.872186 C262.768325,211.355761 262.785536,212.773934 262.504999,213.121593 C262.011047,213.228301 261.716742,213.298865 261.716742,213.298865 L261.7133,213.304028 C261.628967,213.443436 259.797733,216.455335 258.431191,220.35187" id="Fill-43" fill="#FFB27D"></path>
                <path d="M262.227904,205.970487 C262.227904,205.970487 262.517046,207.97555 262.658175,209.873907 C266.234589,209.515921 267.893715,206.109894 268.539122,204.242518 L262.227904,205.970487" id="Fill-44" fill="#ED985F"></path>
                <path d="M261.159111,207.853353 C261.159111,207.853353 269.6475,207.385218 269.274025,202.10493 C268.90227,196.822922 269.745602,193.205202 264.310417,193.280929 C258.875231,193.356657 257.966498,195.446054 257.661866,197.239424 C257.357234,199.032794 258.942353,207.839585 261.159111,207.853353" id="Fill-45" fill="#FFB27D"></path>
                <path d="M257.703172,194.284322 C258.899326,192.602822 259.914766,192.879917 260.505098,193.318793 C264.955823,190.437697 268.212116,193.990016 268.212116,193.990016 C269.050284,197.738539 271.938264,199.714344 271.938264,199.714344 C271.938264,199.714344 270.434036,200.917382 266.833527,200.118799 C262.227904,199.098196 260.646227,195.103558 260.431092,194.489131 C259.945746,194.991687 259.320992,195.310088 258.840809,196.399535 C258.27113,197.692069 257.913145,198.442462 257.904539,200.566281 C257.904539,200.566281 255.908081,196.809153 257.703172,194.284322" id="Fill-46" fill="#162C51"></path>
                <path d="M278.275298,237.609186 C279.04118,233.691998 281.540195,218.03529 279.04118,212.997675 C278.144495,211.188815 274.621435,211.025312 270.7576,211.183652 C269.554562,211.959861 264.973034,214.894311 263.091889,214.52772 C263.071236,214.524277 263.035093,214.515672 262.985181,214.503624 C262.098823,214.281605 261.764932,213.658572 262.504999,213.121593 C262.504999,213.119872 260.808009,213.242069 258.431191,213.689551 C257.088745,213.942551 253.402182,216.204056 253.402182,216.204056 C253.402182,216.204056 255.073355,218.804615 257.761689,219.942252 C257.305602,224.031549 257.98543,225.836967 262.227904,235.28228 C265.812923,243.268113 261.744279,250.457083 261.744279,250.457083 C261.744279,250.457083 282.849941,267.426978 282.966974,258.787133 C283.056471,252.281433 277.296,242.617543 278.275298,237.609186" id="Fill-47" fill="#8CA0F4"></path>
                <path d="M260.69786,268.908832 C259.549896,268.779751 258.517246,268.151555 257.875281,267.19119 C257.773737,267.038013 257.663588,266.87451 257.548275,266.69896 C255.145641,263.062308 254.211092,251.925169 248.806886,240.05829 C247.491977,237.17031 242.765879,236.650542 241.478507,233.385645 C241.478507,233.385645 238.306548,222.800974 247.547052,222.487736 C256.787555,222.17622 272.294528,251.938937 272.538922,255.060985 C272.776432,258.084931 278.648773,270.934549 260.69786,268.908832" id="Fill-48" fill="#162C4F"></path>
                <path d="M223.971634,268.848594 L237.124163,268.848594 C237.124163,268.848594 237.614672,266.693796 236.752409,265.229153 C235.988247,263.931455 236.280831,263.19311 236.847068,262.120874 C236.249852,262.370432 235.480527,262.599336 234.632032,262.549424 C233.976299,262.509839 233.282702,262.205207 232.675159,261.842059 C232.108922,262.504676 229.685635,265.325534 228.928358,265.884887 C228.069536,266.518246 224.236681,266.292784 223.971634,268.848594" id="Fill-49" fill="#AA3C3C"></path>
                <path d="M241.177317,225.547825 C240.385618,231.485567 237.292829,250.224737 231.836991,259.367139 C230.079763,262.313636 236.268784,263.967598 236.303206,263.959026 C237.132768,263.740415 238.51652,262.416901 239.153322,261.842059 C243.581673,257.850863 252.572783,246.5485 252.572783,237.486989 C252.572783,233.068965 252.650068,224.630487 249.438524,222.486015 C247.459276,221.165943 241.492276,223.189939 241.177317,225.547825" id="Fill-50" fill="#162C4F"></path>
                <path d="M267.120948,268.922601 C267.120948,268.922601 266.453167,267.924372 266.031501,266.439076 C265.324135,263.958993 265.072857,262.153575 263.714921,258.288019 C262.288142,254.231422 260.596316,249.240277 258.481103,244.047764 C257.828812,242.443713 257.135215,240.822451 256.39859,239.20119 C255.08196,236.31321 251.460798,236.712501 250.171706,233.445882 C250.171706,233.445882 245.146139,222.126309 254.386642,221.813071 C263.627146,221.501555 281.183931,252.097277 282.194207,255.060985 C283.297423,258.303509 287.267965,272.03088 267.120948,268.922601" id="Fill-51" fill="#2B478B"></path>
                <path d="M233.626919,268.848594 L246.777727,268.848594 C246.777727,268.848594 247.269957,266.693796 246.405973,265.229153 C245.641811,263.931455 245.934395,263.19311 246.500632,262.120874 C245.905137,262.370432 245.134091,262.599336 244.285596,262.549424 C243.629863,262.509839 242.937987,262.205207 242.330444,261.842059 C241.764207,262.504676 239.339199,265.325534 238.581922,265.884887 C237.7231,266.518246 233.890245,266.292784 233.626919,268.848594" id="Fill-52" fill="#C1514C"></path>
                <path d="M263.714921,258.288019 C262.288142,254.231422 260.596316,249.240277 258.481103,244.047764 C259.033571,240.113365 260.224562,236.671195 262.227904,235.28228 C262.227904,235.28228 267.088247,250.34005 263.714921,258.288019" id="Fill-53" fill="#233862"></path>
                <path d="M248.855076,225.12788 C248.063377,231.063901 246.948114,250.224737 241.492276,259.367139 C239.733327,262.313636 245.924069,263.967598 245.95677,263.959026 C246.786332,263.740415 248.170084,262.416901 248.806886,261.842059 C253.236958,257.850863 262.227904,246.5485 262.227904,237.486989 C262.227904,233.068965 257.042276,224.98503 253.829011,222.840559 C251.851485,221.520487 249.170035,222.769994 248.855076,225.12788" id="Fill-54" fill="#2B478B"></path>
                <path d="M220.384893,206.693342 L233.854102,205.263121 C234.246509,205.220094 234.618264,205.448998 234.759393,205.81731 L239.57843,218.47933 C239.788402,219.03524 239.394274,219.634178 238.800499,219.658273 L225.436277,220.196973 C225.073128,220.212462 224.739238,219.999048 224.598109,219.663436 L219.675806,207.892938 C219.450344,207.35596 219.806609,206.75358 220.384893,206.693342" id="Fill-55" fill="#233862"></path>
                <path d="M219.216277,206.815539 L232.683764,205.385318 C233.076172,205.342291 233.447926,205.571195 233.589055,205.939507 L238.408092,218.603248 C238.619786,219.157437 238.223936,219.756375 237.630162,219.78047 L224.265939,220.31917 C223.90279,220.334659 223.5689,220.121245 223.427771,219.785633 L218.505469,208.015135 C218.281728,207.478157 218.636271,206.877498 219.216277,206.815539" id="Fill-56" fill="#2B478B"></path>
                <path d="M226.680621,212.727465 C226.517118,212.276541 226.749464,211.90995 227.20211,211.90995 C227.653034,211.90995 228.15387,212.276541 228.317373,212.727465 C228.482597,213.18011 228.25025,213.546701 227.797605,213.546701 C227.34496,213.546701 226.845845,213.18011 226.680621,212.727465" id="Fill-57" fill="#EBF3FA"></path>
                <path d="M219.619011,208.011693 C219.53812,207.789673 219.651711,207.608959 219.873731,207.608959 C220.095751,207.608959 220.341866,207.789673 220.422757,208.011693 C220.503648,208.233713 220.388336,208.414427 220.166316,208.414427 C219.944296,208.414427 219.699902,208.233713 219.619011,208.011693" id="Fill-58" fill="#EBF3FA"></path>
                <path d="M275.857174,212.997675 C275.857174,212.997675 257.190289,219.871688 254.386642,219.73228 C252.572619,219.641062 237.504523,214.343564 237.504523,214.343564 L236.15175,216.902817 C236.15175,216.902817 250.818834,226.329197 254.849614,226.282728 C262.811352,226.191511 276.242697,221.305351 277.758972,220.343265 C279.275248,219.3829 280.26315,213.970088 275.857174,212.997675" id="Fill-59" fill="#FFB27D"></path>
                <path d="M237.504523,214.343564 C237.504523,214.343564 236.15175,212.262772 234.804141,212.200813 C233.458253,212.140575 231.131346,213.119872 230.334484,213.273049 C229.539343,213.426225 227.274395,214.159408 227.947339,215.262623 C228.620284,216.364117 231.744052,216.608511 233.08994,216.364117 C234.43755,216.119723 236.15175,216.902817 236.15175,216.902817 L237.504523,214.343564" id="Fill-60" fill="#FFB27D"></path>
                <path d="M235.170732,212.264493 C235.170732,212.264493 233.029702,211.281754 232.416996,211.099319 C231.80429,210.915163 231.926487,211.10104 232.110643,211.681046 C232.294799,212.262772 233.396294,212.81524 233.396294,212.997675 C233.396294,213.18011 235.170732,212.264493 235.170732,212.264493" id="Fill-61" fill="#FFB27D"></path>
                <path d="M220.603471,213.242069 C220.603471,213.242069 221.457129,210.426375 222.39512,211.311012 C223.372696,212.231793 222.780643,213.152573 222.660167,214.326353 C222.431263,216.570647 221.976897,216.474266 221.691197,216.372722 C221.403775,216.271178 220.28507,214.371101 220.603471,213.242069" id="Fill-62" fill="#FFB27D"></path>
                <path d="M220.551839,213.670619 C220.551839,213.670619 220.119846,216.066369 222.39512,217.317598 L221.722176,215.668799 L220.551839,213.670619" id="Fill-63" fill="#FFB27D"></path>
                <path d="M259.570549,204.81736 C259.570549,204.81736 260.372575,204.498959 262.630638,204.683115 C262.630638,204.683115 262.510162,205.56259 260.845873,205.650365 C259.902719,205.700276 259.570549,204.81736 259.570549,204.81736" id="Fill-64" fill="#FFFFFF"></path>
                <path d="M266.239752,216.388212 C266.239752,216.388212 267.909205,221.673663 273.643859,222.876701 C273.643859,222.876701 283.111546,219.959463 278.397495,213.508838 C278.397495,213.508838 273.736797,210.044294 266.239752,216.388212" id="Fill-65" fill="#8CA0F4"></path>
                <path d="M220.551839,214.009673 C220.551839,214.009673 220.15771,212.689601 220.135336,212.462418 C220.112962,212.233514 220.140499,212.118201 220.343587,212.278262 C220.546675,212.438323 220.856471,212.86171 220.763532,213.262722 C220.672314,213.662014 220.551839,214.009673 220.551839,214.009673" id="Fill-66" fill="#FFB27D"></path>
                <path d="M214.972082,149.133386 C214.664008,149.48793 214.624423,149.883779 214.777599,150.307166 L214.779321,150.312329 C215.0633,151.093702 215.997848,151.968013 217.083853,152.838881 C217.22154,152.952473 217.345458,153.054017 217.453886,153.148677 C217.481423,153.172772 217.508961,153.196867 217.536498,153.222683 C217.558872,153.241615 217.579525,153.262268 217.600178,153.279479 C218.612176,154.214028 218.231816,154.427443 220.051003,156.320636 C222.12491,158.478876 223.55341,158.518461 223.959586,158.322257 C224.303803,158.153591 223.605043,157.00907 222.830555,155.723419 C222.794412,155.66146 222.756548,155.59778 222.718684,155.535821 C222.615419,155.363713 222.513875,155.189883 222.41061,155.019496 C221.503598,153.47052 221.737666,152.744222 221.95108,150.439689 C222.126631,148.567149 224.864877,139.977216 224.864877,139.977216 L220.889171,139.293945 C220.889171,139.293945 219.693017,146.131814 218.374666,147.185118 C217.669022,147.747913 216.879044,147.754797 216.200936,148.1713 C216.152746,148.198837 216.106277,148.229817 216.059808,148.259075 C215.674285,148.515517 215.281877,148.778843 214.972082,149.133386" id="Fill-67" fill="#FFB27D"></path>
                <path d="M214.972082,149.133386 C214.664008,149.48793 214.624423,149.883779 214.777599,150.307166 L214.779321,150.312329 C215.12698,151.093702 216.037433,151.962849 217.087295,152.831997 C217.224982,152.945589 217.345458,153.050575 217.453886,153.148677 C217.481423,153.172772 217.508961,153.196867 217.536498,153.222683 C217.558872,153.241615 217.579525,153.262268 217.600178,153.279479 C218.612176,154.214028 218.231816,154.427443 220.051003,156.320636 C222.12491,158.478876 223.55341,158.518461 223.959586,158.322257 C224.303803,158.153591 223.605043,157.00907 222.830555,155.723419 C222.427821,155.575406 220.551839,154.812966 219.133665,152.998942 C217.930627,151.462014 217.113111,149.50514 216.293875,148.303823 C216.204379,148.286612 216.151025,148.276286 216.059808,148.259075 C215.674285,148.515517 215.281877,148.778843 214.972082,149.133386" id="Fill-68" fill="#233862"></path>
                <path d="M247.025563,146.651582 C247.271678,147.878715 249.0203,147.673906 250.973731,147.195445 C252.928884,146.718704 252.464191,147.286662 255.245464,146.978588 C258.026736,146.670514 258.868347,145.6327 258.95268,145.21964 C259.030129,144.853049 257.654982,144.723967 256.181734,144.55358 C255.995856,144.532927 255.809979,144.510553 255.624102,144.486458 C253.959813,144.278206 252.741285,143.204249 251.228452,142.323054 C249.796509,141.486607 247.660643,138.084022 247.660643,138.084022 L243.84672,138.385212 C243.84672,138.385212 245.848341,141.424648 246.621108,142.746441 C247.077196,143.524371 247.0531,144.551859 246.996305,145.347 C246.967046,145.777271 246.939509,146.21959 247.025563,146.651582" id="Fill-69" fill="#FFB27D"></path>
                <path d="M250.973731,147.195445 C252.928884,146.718704 252.464191,147.286662 255.245464,146.978588 C258.026736,146.670514 258.868347,145.6327 258.95268,145.21964 C259.030129,144.853049 257.654982,144.723967 256.181734,144.55358 L256.167965,144.581117 C256.167965,144.581117 254.500234,145.765223 252.183654,145.820298 C250.297345,145.865046 248.299166,145.324626 246.996305,145.347 C246.967046,145.777271 246.939509,146.21959 247.025563,146.651582 C247.271678,147.878715 249.0203,147.673906 250.973731,147.195445" id="Fill-70" fill="#233862"></path>
                <path d="M232.410112,122.263296 L224.18849,144.384914 C224.18849,144.384914 222.925214,144.507111 221.717013,144.15773 C220.60175,143.835887 219.324705,142.994277 219.324705,142.994277 C219.324705,142.994277 220.61724,129.543656 223.028479,121.822698 C223.646349,119.840697 224.338225,118.237679 225.102386,117.335314 C228.840582,112.917978 232.410112,122.263296 232.410112,122.263296" id="Fill-71" fill="#707FE5"></path>
                <path d="M228.783787,107.026533 C226.754628,106.372005 221.45885,107.016379 215.715591,108.055914 C214.128751,108.343163 212.528142,107.618414 211.693416,106.239481 L197.238025,105.11045 C197.238025,105.11045 192.467179,115.688408 195.079785,122.42852 C195.463587,123.419004 196.305198,124.03739 197.604617,124.058215 C197.604617,124.058215 206.340842,124.070435 209.134163,124.070435 C216.323133,124.070435 224.348551,119.128856 225.386365,118.921294 C227.085076,118.581379 227.764904,121.979833 229.463615,125.548158 C231.164047,129.116483 245.437002,141.350943 245.437002,141.350943 C245.437002,141.350943 247.629664,141.373015 248.536675,141.032241 C249.510809,140.667371 249.868795,140.192351 249.868795,140.192351 C249.868795,140.192351 234.052027,108.72576 228.783787,107.026533" id="Fill-72" fill="#8C9DF4"></path>
                <path d="M210.156487,63.7916812 C209.084251,63.1526424 208.037832,63.0550569 207.395867,63.0733004 C206.950106,63.0860365 206.504345,63.0572943 206.062027,62.9924095 C200.54595,62.1834997 197.224257,70.197042 197.028053,72.618264 C196.671789,77.0636536 194.320787,77.7414167 191.00942,80.5254433 C184.372917,86.1076094 186.319464,92.5943775 189.947511,95.0045845 C192.126404,96.4506399 195.964423,95.0044124 195.964423,95.0044124 C196.017776,95.0422763 206.461318,89.1668374 211.607361,86.3325551 C219.324705,85.2355358 213.257882,65.6373724 210.156487,63.7916812" id="Fill-73" fill="#152949"></path>
                <path d="M207.294323,83.9201107 C207.316697,83.93474 204.760887,84.8071578 203.05185,84.0503968 C201.444356,83.3401052 200.22755,80.6954865 200.251645,80.6941096 C200.983106,80.6603763 201.785131,80.0211655 202.403001,75.8265379 L202.714517,75.9380642 L207.950057,77.8219635 C207.950057,77.8219635 207.569697,79.5017421 207.325303,81.1011461 C207.118773,82.4437643 207.006902,83.7302751 207.294323,83.9201107" id="Fill-74" fill="#FFB27D"></path>
                <path d="M207.950057,77.8219635 C207.950057,77.8219635 207.741805,78.7282867 207.435452,80.4213177 C204.428717,79.8800366 203.137904,77.5638008 202.714517,75.9380642 L207.950057,77.8219635" id="Fill-75" fill="#ED975D"></path>
                <path d="M208.729708,79.4891782 C208.729708,79.4891782 201.566553,78.5277803 202.234334,74.076539 C202.902115,69.6251256 202.427096,66.503078 207.027555,66.9287022 C211.629736,67.3543265 212.261374,69.1857327 212.39906,70.7257592 C212.538468,72.2657858 210.609132,79.6244555 208.729708,79.4891782" id="Fill-76" fill="#FFB27D"></path>
                <path d="M212.139177,68.2857775 C212.139177,68.2857775 207.554207,72.2372158 204.433881,72.5557886 C201.315275,72.8741893 200.134611,71.8730343 200.134611,71.8730343 C200.134611,71.8730343 201.972729,70.3469485 203.079387,67.8839042 C203.406393,67.1579507 204.094827,66.6591804 204.888247,66.5906812 C207.11533,66.3986081 211.337151,66.3108328 212.139177,68.2857775" id="Fill-77" fill="#152949"></path>
                <path d="M209.27185,67.9319225 C209.27185,67.9319225 210.807057,69.4149812 211.288961,70.5150985 C211.755375,71.5766635 211.894783,74.1156076 211.524749,75.1239911 C211.524749,75.1239911 213.913615,70.4768904 212.560842,68.2189994 C211.127179,65.8249706 209.27185,67.9319225 209.27185,67.9319225" id="Fill-78" fill="#233862"></path>
                <path d="M213.325004,94.4715646 C213.108147,108.970498 213.264766,105.940701 211.679647,107.316536 C211.297566,107.647845 210.223609,107.845253 208.808878,107.938708 C204.363316,108.233702 196.547871,107.50138 196.250123,106.679562 C195.224356,103.836675 195.948933,102.953414 195.093554,98.6009631 C195.004058,98.1381634 194.893908,97.6371556 194.764827,97.0913997 C194.050577,94.1020477 193.35698,93.0850588 195.886974,88.2825441 C198.182901,83.9321583 200.566603,80.4013531 200.781739,80.5287134 C206.836515,84.1231987 207.325303,81.1018346 207.325303,81.1018346 C207.325303,81.1018346 213.431711,87.3992834 213.325004,94.4715646" id="Fill-79" fill="#2B478B"></path>
                <path d="M228.844025,131.85731 L224.18849,144.384914 C224.18849,144.384914 222.925214,144.507111 221.717013,144.15773 C220.60175,143.835887 219.324705,142.994277 219.324705,142.994277 C219.324705,142.994277 220.61724,129.543656 223.028479,121.822698 L228.844025,131.85731" id="Fill-80" fill="#8C9DF4"></path>
                <path d="M207.325303,81.1011461 C207.325303,81.1011461 213.555629,82.1573758 214.28709,84.8400305 C215.018551,87.5226852 217.42807,103.805523 217.42807,103.805523 C217.42807,103.805523 215.670842,105.521445 214.20792,104.058178 C212.743277,102.594912 209.602298,88.8233089 209.602298,88.8233089 L207.325303,81.1011461" id="Fill-81" fill="#2B478B"></path>
                <path d="M208.808878,107.938708 C204.363316,108.233702 196.547871,107.50138 196.250123,106.679562 C195.224356,103.836675 195.948933,102.953414 195.093554,98.6009631 L197.238025,92.5627096 C197.238025,92.5627096 196.883482,99.2868153 198.866172,101.055402 C200.84714,102.823989 206.984528,104.469345 207.948335,105.947069 C208.414749,106.656156 208.719381,107.36748 208.808878,107.938708" id="Fill-82" fill="#162C4F"></path>
                <path d="M203.714467,105.11045 C203.714467,105.11045 208.101512,104.133906 208.808878,104.523215 C209.516244,104.912525 211.245934,106.33001 211.46279,106.823273 C211.679647,107.316536 209.887998,106.448765 209.30455,106.29249 C208.927633,106.191291 207.932846,106.53654 207.440615,106.70056 C205.371872,107.390543 204.103432,107.035655 204.103432,107.035655 L203.714467,105.11045" id="Fill-83" fill="#FFB27D"></path>
                <path d="M200.778297,80.5254433 C200.778297,80.5254433 194.888745,80.888248 192.84926,83.7318241 C189.980211,87.7345507 184.286863,104.793942 187.548319,107.069044 C191.222835,109.631395 204.272099,107.739406 204.272099,107.739406 C204.272099,107.739406 204.707533,105.709559 204.103432,104.727852 C203.49761,103.745974 193.680543,102.159994 193.227898,101.706832 C192.773532,101.253671 198.891988,92.8704395 198.891988,91.5109547 C198.891988,90.1514699 200.778297,80.5254433 200.778297,80.5254433" id="Fill-84" fill="#2B478B"></path>
                <path d="M209.020571,105.743981 C209.020571,105.743981 209.93963,106.929464 210.24082,107.070937 C210.54201,107.212582 210.738214,107.177128 210.738214,107.177128 L210.118623,106.062554 L209.020571,105.743981" id="Fill-85" fill="#FFB27D"></path>
                <path d="M208.808878,104.523215 L211.481722,105.820741 C211.481722,105.820741 211.368131,106.00679 211.037682,105.991817 C210.708955,105.976671 209.879392,105.673244 209.879392,105.673244 L208.808878,104.523215" id="Fill-86" fill="#FFB27D"></path>
                <polyline id="Fill-87" fill="#F99746" points="231.625297 107.573494 203.714467 107.573494 203.714467 108.18947 231.377461 108.18947 231.625297 107.573494"></polyline>
                <polyline id="Fill-88" fill="#F99746" points="210.24082 108.18947 231.377461 108.18947 237.736869 92.3785535 216.632929 92.3785535 210.24082 108.18947"></polyline>
                <path d="M226.042099,100.284012 C226.20216,99.7282735 225.880317,99.2776936 225.324406,99.2776936 C224.768496,99.2776936 224.18849,99.7282735 224.030151,100.284012 C223.87009,100.839922 224.191933,101.29033 224.747843,101.29033 C225.303753,101.29033 225.883759,100.839922 226.042099,100.284012" id="Fill-89" fill="#FFFFFF"></path>
                <path d="M375.165481,154.812966 C374.54589,156.478976 373.473655,158.411754 372.346344,158.891936 C371.069299,159.43752 370.535763,160.206845 370.535763,160.206845 L368.272537,158.891936 C368.272537,158.891936 368.301795,158.755971 368.362033,158.53223 C368.42055,158.31021 368.513489,158.002136 368.639128,157.65964 C368.639128,157.65964 369.016045,157.174294 368.78542,156.563309 C368.553073,155.954045 368.599543,155.01089 368.995392,154.436048 C369.389521,153.862927 369.771601,152.448195 370.009111,152.489501 C370.585674,152.589324 369.726853,154.53415 369.972968,154.893857 C370.194988,155.220863 370.475525,155.108992 370.527158,155.083176 L370.535763,155.078013 C372.151862,154.367205 374.112177,150.53607 374.979604,151.054117 C375.304889,151.246878 375.428807,154.103879 375.165481,154.812966" id="Fill-90" fill="#FFB27D"></path>
                <path d="M369.573677,157.132988 L371.599393,158.556325 C371.742243,158.656148 371.941889,158.621726 372.041712,158.478876 L377.229061,151.098865 C377.328884,150.956015 377.294463,150.756369 377.151613,150.654825 L375.125896,149.233209 C374.983046,149.131665 374.7834,149.167808 374.683577,149.310658 L369.497949,156.690669 C369.396405,156.833519 369.430827,157.031444 369.573677,157.132988" id="Fill-91" fill="#2B478B"></path>
                <path d="M371.427285,158.435849 L372.614833,159.268854 C372.723262,159.346303 372.874717,159.318765 372.952166,159.210337 L378.225569,151.706408 C378.301297,151.597979 378.275481,151.446524 378.167053,151.369075 L376.979504,150.53607 C376.871076,150.458621 376.71962,150.486159 376.642171,150.594587 L371.368768,158.098516 C371.29304,158.206945 371.318857,158.3584 371.427285,158.435849" id="Fill-92" fill="#233862"></path>
                <path d="M340.530373,146.543154 C340.530373,146.543154 350.831065,164.511278 354.56926,167.817481 L368.272537,157.601123 C368.272537,157.601123 370.262111,158.210387 371.132979,160.206845 C371.132979,160.206845 362.811535,177.16125 354.617451,177.880664 C346.423367,178.598356 334.923079,157.558096 334.923079,157.558096 L340.530373,146.543154" id="Fill-93" fill="#707FE5"></path>
                <path d="M317.21656,268.755656 L311.265049,268.755656 C310.514656,268.347759 309.846875,267.416652 309.636903,266.027737 C309.346039,264.110448 307.196405,263.06575 306.731712,261.496121 C306.267019,259.928212 308.649,257.720061 308.649,257.720061 L309.046571,257.207178 L309.461352,256.673641 L313.412962,257.604748 C313.412962,257.604748 313.511064,258.546181 313.569581,259.744056 C313.612608,260.609762 313.634982,261.607991 313.586792,262.484023 C313.469758,264.575141 314.171961,266.828041 316.030732,267.235938 C317.404158,267.535407 317.342199,268.351201 317.21656,268.755656" id="Fill-94" fill="#162C4F"></path>
                <path d="M351.762171,268.755656 L338.148392,268.755656 C337.494379,267.957072 337.735331,265.008854 337.835154,264.045047 C337.855807,263.852286 337.869576,263.738694 337.869576,263.738694 C337.869576,263.738694 342.518226,260.021151 343.156748,262.867825 C343.17568,262.957321 343.199775,263.045097 343.225591,263.131151 C344.029338,265.793669 347.636731,267.003592 349.720965,267.340924 C351.075459,267.561223 351.576294,268.265147 351.762171,268.755656" id="Fill-95" fill="#162C4F"></path>
                <path d="M349.168497,192.771488 C349.168497,192.771488 348.462852,201.578279 347.631568,212.16467 C346.504258,226.544333 345.149764,244.207825 345.015519,247.553614 C344.783173,253.363995 343.852066,262.657853 343.852066,262.657853 C343.852066,262.657853 341.645636,264.866004 337.229332,263.936619 C337.229332,263.936619 333.294933,250.667056 332.171064,236.629889 C332.152132,236.399264 332.134922,236.166917 332.117711,235.936292 C331.073012,221.644405 329.446587,191.551239 329.446587,191.551239 L349.168497,192.771488" id="Fill-96" fill="#F99746"></path>
                <path d="M349.168497,192.771488 C349.168497,192.771488 348.462852,201.578279 347.631568,212.16467 L332.171064,236.629889 C332.152132,236.399264 332.134922,236.166917 332.117711,235.936292 C331.073012,221.644405 329.446587,191.551239 329.446587,191.551239 L349.168497,192.771488" id="Fill-97" fill="#ED7D2B"></path>
                <path d="M345.944905,193.817908 C345.944905,193.817908 333.222647,225.711328 324.856455,240.698533 C316.491983,255.68746 313.877655,259.869696 313.877655,259.869696 C313.877655,259.869696 309.084435,257.952407 308.649,256.646104 C308.649,256.646104 311.846775,227.711228 317.448906,220.656502 C320.615702,216.672191 324.333245,204.710653 324.508795,200.528417 C324.682625,196.34446 325.641269,188.066043 325.641269,188.066043 L345.944905,193.817908" id="Fill-98" fill="#F99746"></path>
                <path d="M342.778109,147.324526 C337.805896,148.892434 329.603206,144.469247 329.603206,144.469247 C329.603206,144.469247 333.787163,141.218118 333.547932,134.065978 L340.002,139.268129 C340.002,139.268129 339.991673,140.509031 339.705973,142.682761 C339.630245,143.254161 339.49428,144.145683 339.92283,144.603491 C341.587119,146.381372 342.778109,147.324526 342.778109,147.324526" id="Fill-99" fill="#FFB27D"></path>
                <path d="M340.002,139.268129 C340.002,139.268129 339.991673,140.509031 339.705973,142.682761 C336.81283,142.185367 333.530721,137.50918 333.530721,137.50918 C335.00397,137.084072 336.294783,137.008345 337.391114,137.163242 L340.002,139.268129" id="Fill-100" fill="#ED975D"></path>
                <path d="M341.523439,139.149374 C341.523439,139.149374 333.310422,140.514194 332.541098,135.387083 C331.770052,130.260144 330.190096,126.983371 335.40154,125.895473 C340.611264,124.807747 341.926172,126.610584 342.600838,128.259211 C343.273782,129.90801 343.638652,138.662307 341.523439,139.149374" id="Fill-101" fill="#FFB27D"></path>
                <path d="M349.715802,193.506391 C349.566067,193.630309 349.392238,193.704316 349.194313,193.704316 C347.326936,193.680221 341.883145,194.716314 337.275802,194.243016 C333.393035,193.86954 329.956028,192.719856 326.264302,191.065893 C325.773793,190.845594 324.646482,190.243215 324.670577,189.69591 C324.687788,189.095251 324.748026,188.226104 324.822033,187.129773 C325.083638,183.319291 325.539725,176.767122 325.095685,169.206397 C325.014794,167.79855 324.973488,166.40275 324.968325,165.027603 C324.930461,154.780265 326.961341,145.768666 331.043754,142.717182 C331.393134,142.467625 333.534163,143.514045 335.501363,144.484736 C337.318829,145.381422 338.743887,145.476081 340.461529,145.128422 L342.571579,146.651582 C344.662697,148.592966 346.953461,151.231388 347.948248,155.239795 C348.795021,158.650984 349.292415,164.80042 349.566067,171.173597 C349.691706,174.061577 349.791529,176.975373 349.817346,179.737714 L349.817346,179.837537 C349.841441,180.111189 349.841441,180.410658 349.841441,180.684311 C349.941264,187.778622 349.841441,193.404847 349.715802,193.506391" id="Fill-102" fill="#8C9DF4"></path>
                <path d="M324.822033,187.129773 C325.083638,183.319291 325.539725,176.767122 325.095685,169.206397 C325.014794,167.79855 324.973488,166.40275 324.968325,165.027603 C326.668757,160.902163 328.059393,157.909197 328.059393,157.909197 L332.346615,157.909197 C332.346615,157.909197 335.489316,179.376286 324.822033,187.129773" id="Fill-103" fill="#707FE5"></path>
                <path d="M302.862713,211.459026 L321.145796,214.064748 C323.526056,214.403802 325.749697,212.734349 326.088751,210.354089 L327.217783,202.431937 C327.556836,200.051676 325.887384,197.828035 323.508845,197.488981 L305.225763,194.883259 C302.845503,194.544205 300.621861,196.213658 300.282807,198.593918 L299.153776,206.51607 C298.814722,208.896331 300.484174,211.119972 302.862713,211.459026" id="Fill-104" fill="#233862"></path>
                <path d="M309.670829,194.106213 C309.706369,193.874969 309.900058,193.700288 310.134618,193.665351 C310.187927,193.657033 310.24479,193.65537 310.301653,193.663688 L311.140381,193.773487 L314.24652,194.189394 L315.93997,194.415648 C316.243832,194.455575 316.457068,194.721755 316.412644,195.006236 L316.162091,196.658219 L309.4185,195.758196 L309.670829,194.106213 Z M324.109411,199.905467 L324.109411,199.905467 C323.597832,198.643947 322.495968,197.647565 321.098107,197.309809 L321.096396,197.309809 L321.092974,197.30812 C320.956096,197.276033 320.817508,197.247324 320.673786,197.228747 L317.055088,196.720424 L317.296334,195.041775 C317.351085,194.668554 317.25356,194.293645 317.022579,193.989664 C316.791598,193.685683 316.454538,193.488096 316.074703,193.435743 L315.130248,193.30233 L311.330186,192.768675 L310.645799,192.672414 C309.860464,192.562643 309.129881,193.101365 309.018668,193.878204 L308.777421,195.555165 L302.528964,194.676998 C300.15585,194.342619 297.936724,195.985804 297.597952,198.329833 L296.461869,206.19449 C296.124808,208.53852 297.78958,210.72887 300.164405,211.063249 L318.307517,213.614998 C318.627468,213.660595 318.943997,213.669039 319.253682,213.645396 L319.257104,213.645396 C319.753285,213.608243 320.230645,213.484962 320.672075,213.292441 C322.006631,212.7115 323.019524,211.483755 323.240239,209.960474 L324.374612,202.095817 C324.485824,201.32911 324.381455,200.580979 324.109411,199.905467 L324.109411,199.905467 Z" id="Fill-105" fill="#2B478B"></path>
                <path d="M316.538452,187.563486 C316.538452,187.563486 315.679631,188.441239 315.767406,189.658046 C315.989426,192.683713 315.62972,194.055417 313.683173,194.366934 C313.683173,194.366934 311.373477,194.800647 311.344219,193.444432 C311.344219,193.444432 312.430223,193.453038 312.20304,191.551239 C311.939714,189.358577 311.967251,189.337924 313.406078,188.193403 L314.359559,186.61861 L316.538452,187.563486" id="Fill-106" fill="#FFB27D"></path>
                <path d="M314.325137,188.847415 C315.86895,189.148605 317.541845,189.026408 317.541845,189.026408 C317.541845,189.026408 322.125093,174.870486 322.713704,173.576231 C323.304036,172.283696 336.327484,156.976369 336.327484,156.976369 L330.902625,143.398732 C330.902625,143.398732 316.815547,166.927681 315.387047,170.233884 C313.022276,175.696607 312.20304,187.945567 312.20304,187.945567 C312.20304,187.945567 313.111773,188.611627 314.325137,188.847415" id="Fill-107" fill="#8C9DF4"></path>
                <path d="M332.534213,134.89382 C332.534213,134.89382 333.375824,134.752863 333.239858,133.592164 C333.103892,132.431464 333.105613,130.914328 334.050489,131.197102 C334.993643,131.479876 335.040113,132.235433 335.429078,131.794146 C335.816322,131.353032 335.823206,129.493917 338.630295,129.364491 C341.439105,129.235066 342.580185,130.21247 343.886488,129.638488 C345.19107,129.064334 345.259913,127.08784 345.259913,127.08784 C345.259913,127.08784 344.88988,127.793657 344.328807,128.018087 C344.328807,128.018087 346.5077,125.038373 343.98459,122.995273 C341.463201,120.952001 338.890179,122.289628 337.430699,122.378092 C334.215713,122.572575 332.138364,122.76568 331.086781,124.878828 C330.036919,126.992148 330.470633,132.85967 332.534213,134.89382" id="Fill-108" fill="#2B478B"></path>
                <path d="M315.251081,189.391278 C315.251081,189.391278 316.177024,190.355085 316.235541,190.756098 C316.421419,192.043469 316.85169,192.59938 316.636554,192.738788 C316.189072,193.029651 315.595298,192.07617 315.31304,191.222512 C315.029061,190.367133 315.251081,189.391278 315.251081,189.391278" id="Fill-109" fill="#FFB27D"></path>
                <path d="M381.228862,268.759098 L368.973018,268.759098 C368.317285,268.201467 369.429106,266.936469 370.589117,266.850415 C371.093394,266.812551 371.731917,266.919258 372.459936,267.072435 C372.628602,264.833304 373.592409,254.763237 377.222177,255.167692 C381.302869,255.620337 377.222177,259.601206 376.067329,261.959092 C375.213671,263.704272 374.311823,266.20845 373.898762,267.390836 C374.230932,267.463121 374.573428,267.531965 374.924529,267.597366 C375.46495,265.936519 377.478619,260.349878 380.037872,260.675163 C383.042885,261.055523 381.834684,263.296375 379.703981,264.625053 C378.141236,265.60435 376.222227,266.993265 375.311773,267.664488 C376.08454,267.790127 376.890008,267.876182 377.707523,267.85725 C379.807246,267.807338 380.831292,268.425208 381.228862,268.759098" id="Fill-110" fill="#A8D29F"></path>
                <path d="M431.102454,270 L0.509785282,270 C0.229420588,270 0,269.769375 0,269.490559 L0,269.265097 C0,268.98456 0.229420588,268.755656 0.509785282,268.755656 L431.102454,268.755656 C431.382991,268.755656 431.611895,268.98456 431.611895,269.265097 L431.611895,269.490559 C431.611895,269.769375 431.382991,270 431.102454,270" id="Fill-111" fill="#233862"></path>
                <path d="M355.60019,93.0490881 C354.705226,78.395601 344.426908,75.9521771 334.981596,75.9554439 C325.538004,75.9585451 316.302664,80.8577848 316.751867,91.87789 C316.944628,96.6334191 318.273306,100.762645 321.422891,103.68935 L317.872293,112.57531 L325.10257,106.145166 C328.009482,107.51687 331.802752,108.285334 336.682027,108.283613 C351.152907,108.278622 356.176754,102.476157 355.60019,93.0490881" id="Fill-112" fill="#ABB9FF"></path>
                <path d="M337.645629,93.6582189 L338.4185,89.6582189 L334.191371,89.6582189 L333.4185,93.6582189 L337.645629,93.6582189 Z M330.738255,96.5182277 L328.4185,96.5182277 L328.4185,93.8439769 L331.200804,93.8439769 L331.948942,89.3696388 L329.371632,89.3696388 L329.371632,86.695388 L332.411492,86.695388 L333.107068,82.6582189 L335.864843,82.6582189 L335.169267,86.695388 L339.393533,86.695388 L340.06458,82.6582189 L342.820602,82.6582189 L342.125027,86.695388 L344.4185,86.695388 L344.4185,89.3696388 L341.660725,89.3696388 L340.914339,93.8439769 L343.489897,93.8439769 L343.489897,96.5182277 L340.450037,96.5182277 L339.729932,100.658219 L336.972157,100.658219 L337.694015,96.5182277 L333.467996,96.5182277 L332.77242,100.658219 L330.016398,100.658219 L330.738255,96.5182277 L330.738255,96.5182277 Z" id="Fill-113" fill="#EBF3FA"></path>
                <mask id="mask-2" fill="white">
                    <use xlink:href="#path-1"></use>
                </mask>
                <g id="Clip-115"></g>
                <polygon id="Fill-114" fill="#D9E5FC" mask="url(#mask-2)" points="71.1386257 149.18674 98.1825457 149.18674 98.1825457 124.349939 71.1386257 124.349939"></polygon>
                <path d="M172.79346,267.301339 L172.497433,267.25487 C171.332259,252.167842 166.724915,241.342219 166.661235,241.194206 L166.929724,241.077172 C166.995125,241.226906 171.63517,252.124815 172.79346,267.301339" id="Fill-117" fill="#A8D29F" mask="url(#mask-2)"></path>
                <path d="M163.534024,239.676209 C164.103703,240.319895 166.762779,241.354267 166.946935,241.192485 C167.131091,241.030703 166.434052,238.263198 165.866094,237.619513 C165.298136,236.975827 164.315397,236.913868 163.671711,237.481826 C163.028025,238.049784 162.966066,239.032523 163.534024,239.676209" id="Fill-118" fill="#FFFFFF" mask="url(#mask-2)"></path>
                <path d="M167.611274,237.431915 C167.098391,238.120348 166.631977,240.937764 166.829901,241.084056 C167.026105,241.230348 169.592242,239.97912 170.105125,239.290686 C170.618009,238.602252 170.475159,237.628118 169.786725,237.115235 C169.098291,236.602352 168.124157,236.743481 167.611274,237.431915" id="Fill-119" fill="#FFFFFF" mask="url(#mask-2)"></path>
                <path d="M170.671362,240.426602 C169.843521,240.20114 167.051921,240.796635 166.988241,241.034145 C166.92284,241.269933 169.026005,243.20099 169.853847,243.426453 C170.68341,243.651915 171.537068,243.163127 171.76253,242.335285 C171.987992,241.507443 171.500925,240.652064 170.671362,240.426602" id="Fill-120" fill="#FFFFFF" mask="url(#mask-2)"></path>
                <path d="M168.785054,244.161356 C168.702441,243.305977 167.155186,240.906785 166.912513,240.93088 C166.668119,240.954975 165.609652,243.605445 165.690543,244.459103 C165.773155,245.314482 166.533875,245.940957 167.387533,245.858345 C168.242912,245.774012 168.867666,245.015014 168.785054,244.161356" id="Fill-121" fill="#FFFFFF" mask="url(#mask-2)"></path>
                <path d="M164.551185,243.9772 C165.311905,243.577908 166.948656,241.238954 166.835065,241.022097 C166.721473,240.805241 163.866194,240.825894 163.105474,241.225185 C162.346476,241.622756 162.053891,242.562468 162.453183,243.323187 C162.850754,244.083907 163.790466,244.376491 164.551185,243.9772" id="Fill-122" fill="#FFFFFF" mask="url(#mask-2)"></path>
                <path d="M166.329066,240.941206 C166.373814,240.662391 166.635419,240.473071 166.915956,240.516098 C167.194771,240.560847 167.384091,240.824172 167.341063,241.102988 C167.296315,241.381804 167.032989,241.572844 166.754174,241.528096 C166.475358,241.483348 166.284317,241.221743 166.329066,240.941206" id="Fill-123" fill="#F78248" mask="url(#mask-2)"></path>
                <path d="M171.399381,245.378163 C170.55605,246.417698 169.643875,250.775484 169.939901,251.016436 C170.235928,251.257388 174.31662,249.476065 175.161672,248.438251 C176.006725,247.398716 175.850106,245.872114 174.810571,245.027061 C173.771036,244.182009 172.244434,244.340348 171.399381,245.378163" id="Fill-124" fill="#A8D29F" mask="url(#mask-2)"></path>
                <path d="M169.322032,257.89389 C170.199785,258.32244 172.139448,260.92472 172.017251,261.174278 C171.895054,261.423835 168.650809,261.499563 167.774777,261.071013 C166.897024,260.644184 166.532154,259.585717 166.960704,258.707963 C167.387533,257.831931 168.446,257.467061 169.322032,257.89389" id="Fill-125" fill="#A8D29F" mask="url(#mask-2)"></path>
                <path d="M181.249149,267.301339 L181.588202,267.247986 C182.927206,249.926989 188.2161,237.495595 188.290106,237.326928 L187.980311,237.194405 C187.908025,237.364792 182.579547,249.877078 181.249149,267.301339" id="Fill-126" fill="#A8D29F" mask="url(#mask-2)"></path>
                <path d="M191.878568,235.58347 C191.226277,236.323536 188.173072,237.511084 187.961379,237.325207 C187.751407,237.13933 188.551711,233.960487 189.204002,233.222141 C189.856293,232.483796 190.983604,232.413232 191.721949,233.065523 C192.462015,233.717814 192.530859,234.845124 191.878568,235.58347" id="Fill-127" fill="#FFFFFF" mask="url(#mask-2)"></path>
                <path d="M187.198939,233.008727 C187.787549,233.798705 188.322807,237.032623 188.097345,237.199568 C187.871883,237.368234 184.925386,235.931129 184.336775,235.141151 C183.748164,234.351173 183.909946,233.232468 184.701645,232.643857 C185.491623,232.055246 186.608606,232.217028 187.198939,233.008727" id="Fill-128" fill="#FFFFFF" mask="url(#mask-2)"></path>
                <path d="M183.684484,236.445733 C184.636243,236.18757 187.840903,236.870841 187.91491,237.142772 C187.988916,237.414704 185.574235,239.631461 184.624196,239.889624 C183.672436,240.149507 182.691418,239.588434 182.431534,238.636674 C182.173371,237.686635 182.734445,236.705617 183.684484,236.445733" id="Fill-129" fill="#FFFFFF" mask="url(#mask-2)"></path>
                <path d="M185.851329,240.732955 C185.945989,239.751937 187.722148,236.998201 188.002685,237.024018 C188.281501,237.051555 189.498308,240.096154 189.403648,241.077172 C189.308988,242.05819 188.436398,242.775883 187.45538,242.681223 C186.474362,242.586563 185.754948,241.713973 185.851329,240.732955" id="Fill-130" fill="#FFFFFF" mask="url(#mask-2)"></path>
                <path d="M190.711672,240.522983 C189.839082,240.063453 187.959658,237.378561 188.09046,237.130725 C188.221263,236.881167 191.498208,236.903542 192.370798,237.36135 C193.245109,237.82088 193.580721,238.898279 193.122912,239.770869 C192.663382,240.643459 191.584262,240.980791 190.711672,240.522983" id="Fill-131" fill="#FFFFFF" mask="url(#mask-2)"></path>
                <path d="M188.670466,237.037786 C188.620554,236.717664 188.319365,236.499087 187.997522,236.548998 C187.6774,236.600631 187.458822,236.901821 187.510455,237.221942 C187.562087,237.542064 187.863277,237.760642 188.183399,237.71073 C188.503521,237.659098 188.722098,237.357908 188.670466,237.037786" id="Fill-132" fill="#F78248" mask="url(#mask-2)"></path>
                <path d="M181.7431,251.235014 C182.429813,252.078345 183.1716,255.622059 182.928927,255.818262 C182.687976,256.014466 179.371445,254.567034 178.684733,253.721981 C177.996299,252.876929 178.12538,251.636026 178.970433,250.949314 C179.813764,250.262601 181.056387,250.389961 181.7431,251.235014" id="Fill-133" fill="#A8D29F" mask="url(#mask-2)"></path>
                <path d="M185.23346,256.501533 C184.226625,256.992042 181.999542,259.979845 182.140671,260.267266 C182.280079,260.554687 186.004506,260.63902 187.01134,260.148511 C188.019896,259.656281 188.438119,258.442916 187.945889,257.436082 C187.45538,256.429247 186.240294,256.009303 185.23346,256.501533" id="Fill-134" fill="#A8D29F" mask="url(#mask-2)"></path>
                <path d="M165.229293,268.755656 C165.229293,268.755656 168.093177,265.635329 174.256382,266.764361 C180.417865,267.893392 183.803238,264.583747 184.93227,268.755656 L165.229293,268.755656" id="Fill-135" fill="#A8D29F" mask="url(#mask-2)"></path>
            </g>
            <g id="Group-116" transform="translate(221.081015, 154.691720)"></g>
        </g>
    </g>
</svg>