<svg id="_ÎÓÈ_1" data-name="—ÎÓÈ_1" xmlns="http://www.w3.org/2000/svg" xmlns:xlink="http://www.w3.org/1999/xlink" viewBox="0 0 3000 1773.81"><defs><style>.cls-1{mask:url(#mask);}.cls-10,.cls-12,.cls-14,.cls-2,.cls-4,.cls-6,.cls-8{mix-blend-mode:multiply;}.cls-2{fill:url(#_ÂÁ_Ï_ÌÌ_È_ËÂÌÚ_10);}.cls-3{mask:url(#mask-2);}.cls-4{fill:url(#_ÂÁ_Ï_ÌÌ_È_ËÂÌÚ_10-2);}.cls-5{mask:url(#mask-3);}.cls-6{fill:url(#_ÂÁ_Ï_ÌÌ_È_ËÂÌÚ_10-3);}.cls-7{mask:url(#mask-4);}.cls-8{fill:url(#_ÂÁ_Ï_ÌÌ_È_ËÂÌÚ_10-4);}.cls-9{mask:url(#mask-5);}.cls-10{fill:url(#_ÂÁ_Ï_ÌÌ_È_ËÂÌÚ_10-5);}.cls-11{mask:url(#mask-6);}.cls-12{fill:url(#_ÂÁ_Ï_ÌÌ_È_ËÂÌÚ_10-6);}.cls-13{mask:url(#mask-7);}.cls-14{fill:url(#_ÂÁ_Ï_ÌÌ_È_ËÂÌÚ_10-7);}.cls-15{fill:#fff;}.cls-16{fill:#d1effc;}.cls-17{fill:#66a0e5;}.cls-18{fill:#95d1fa;}.cls-19{fill:#568aad;}.cls-20{fill:#b2e5fa;}.cls-21{mask:url(#mask-8);}.cls-22{fill:#d3ebed;}.cls-23{mask:url(#mask-9);}.cls-24{mask:url(#mask-10);}.cls-25{opacity:0.56;}.cls-26{mask:url(#mask-11);}.cls-27{mask:url(#mask-12);}.cls-28{mask:url(#mask-13);}.cls-29{mask:url(#mask-14);}.cls-30{opacity:0.1;}.cls-31{fill:#42210b;}.cls-32{fill:#195d8c;}.cls-33{fill:#dbeeea;}.cls-34{fill:#fd655a;}.cls-35{fill:#f3e1a4;}.cls-36{fill:#ffa000;opacity:0.24;}.cls-37{fill:#e3f5fd;}.cls-38{fill:#477da3;}.cls-39{fill:#46c777;}.cls-40{fill:#f5a18d;}.cls-41{fill:#f2cccb;}.cls-42{fill:#0a538a;}.cls-43{fill:#134669;}.cls-44{fill:#fd847b;}.cls-45{fill:#a8a9c3;}.cls-46{fill:#6863ff;}.cls-47{fill:#f6d4d0;}.cls-48{fill:#2e894e;}.cls-49{fill:#ccf4f4;}.cls-50{fill:#8dcfff;}.cls-51{fill:#e1b6af;}.cls-52{fill:#024981;}.cls-53{fill:#97b8d1;}.cls-54{fill:#164059;}.cls-55{fill:#307678;}.cls-56{fill:#0f8fa9;}.cls-57{fill:#f0b7b0;}.cls-58{fill:#9bdbf6;}.cls-59{fill:#0a3c5f;}.cls-60{fill:#ececec;}.cls-61{fill:#014c81;}.cls-62{fill:#c07700;}.cls-63{fill:#3fa5ba;}.cls-64{fill:#262f5c;}.cls-65{fill:#38a4bf;}.cls-66{fill:#88c8d9;}.cls-67{fill:#85acbb;}.cls-68{fill:#f7b4a4;}.cls-69{fill:#f5ad9e;}.cls-70{fill:#326091;}.cls-71{fill:#99423d;}.cls-72{fill:#cc5851;}.cls-73{fill:#65bdc1;}.cls-74{fill:#9de1e4;}.cls-75{fill:#ffc3b4;}.cls-76{fill:#99653a;}.cls-77{fill:#c2a289;}.cls-78{fill:#ededed;}.cls-79{fill:#21a3cd;}.cls-80{fill:#a3ffee;}.cls-81{fill:#bae6f1;}.cls-82{fill:#3470a5;}.cls-83{fill:#f9c5a6;}.cls-84{fill:#62c1c5;}.cls-85{fill:#a3d0d1;}.cls-86{fill:#b0362d;}.cls-87{fill:#f7ac89;}.cls-88{fill:#f7b690;}.cls-89{fill:#be4c44;}.cls-90{fill:#0d2f46;}.cls-91{fill:#83cc9d;}.cls-92{fill:#51a56d;}.cls-93{fill:#fab08b;}.cls-94{fill:#033f61;}.cls-95{fill:#7b2620;}.cls-96{fill:#f7a790;}.cls-97{fill:#f7b6a2;}.cls-98{fill:#c1571f;}.cls-99{fill:#002949;}.cls-100{fill:#003661;}.cls-101{fill:#f39f39;}.cls-102{fill:#3f7bab;}.cls-103{fill:#85b3ea;}.cls-104{filter:url(#luminosity-noclip-14);}.cls-105{filter:url(#luminosity-noclip-13);}.cls-106{filter:url(#luminosity-noclip-12);}.cls-107{filter:url(#luminosity-noclip-11);}.cls-108{filter:url(#luminosity-noclip-10);}.cls-109{filter:url(#luminosity-noclip-9);}.cls-110{filter:url(#luminosity-noclip-8);}.cls-111{filter:url(#luminosity-noclip-7);}.cls-112{filter:url(#luminosity-noclip-6);}.cls-113{filter:url(#luminosity-noclip-5);}.cls-114{filter:url(#luminosity-noclip-4);}.cls-115{filter:url(#luminosity-noclip-3);}.cls-116{filter:url(#luminosity-noclip-2);}.cls-117{filter:url(#luminosity-noclip);}</style><filter id="luminosity-noclip" x="1856.24" y="-9079" width="66.12" height="32766" filterUnits="userSpaceOnUse" color-interpolation-filters="sRGB"><feFlood flood-color="#fff" result="bg"/><feBlend in="SourceGraphic" in2="bg"/></filter><mask id="mask" x="1856.24" y="-9079" width="66.12" height="32766" maskUnits="userSpaceOnUse"><g class="cls-117"/></mask><radialGradient id="_ÂÁ_Ï_ÌÌ_È_ËÂÌÚ_10" cx="1889.3" cy="544.52" r="33.06" gradientUnits="userSpaceOnUse"><stop offset="0"/><stop offset="1" stop-color="#fff"/></radialGradient><filter id="luminosity-noclip-2" x="2138.7" y="-9079" width="60.38" height="32766" filterUnits="userSpaceOnUse" color-interpolation-filters="sRGB"><feFlood flood-color="#fff" result="bg"/><feBlend in="SourceGraphic" in2="bg"/></filter><mask id="mask-2" x="2138.7" y="-9079" width="60.38" height="32766" maskUnits="userSpaceOnUse"><g class="cls-116"/></mask><radialGradient id="_ÂÁ_Ï_ÌÌ_È_ËÂÌÚ_10-2" cx="1699.75" cy="280.76" r="30.19" gradientTransform="translate(2180.69 -893) rotate(81.01)" xlink:href="#_ÂÁ_Ï_ÌÌ_È_ËÂÌÚ_10"/><filter id="luminosity-noclip-3" x="2200.87" y="-9079" width="60.38" height="32766" filterUnits="userSpaceOnUse" color-interpolation-filters="sRGB"><feFlood flood-color="#fff" result="bg"/><feBlend in="SourceGraphic" in2="bg"/></filter><mask id="mask-3" x="2200.87" y="-9079" width="60.38" height="32766" maskUnits="userSpaceOnUse"><g class="cls-115"/></mask><radialGradient id="_ÂÁ_Ï_ÌÌ_È_ËÂÌÚ_10-3" cx="1327.94" cy="159.01" r="30.19" gradientTransform="translate(2180.69 -893) rotate(81.01)" xlink:href="#_ÂÁ_Ï_ÌÌ_È_ËÂÌÚ_10"/><filter id="luminosity-noclip-4" x="1988.41" y="-9079" width="66.19" height="32766" filterUnits="userSpaceOnUse" color-interpolation-filters="sRGB"><feFlood flood-color="#fff" result="bg"/><feBlend in="SourceGraphic" in2="bg"/></filter><mask id="mask-4" x="1988.41" y="-9079" width="66.19" height="32766" maskUnits="userSpaceOnUse"><g class="cls-114"/></mask><radialGradient id="_ÂÁ_Ï_ÌÌ_È_ËÂÌÚ_10-4" cx="2021.5" cy="790.75" r="33.1" xlink:href="#_ÂÁ_Ï_ÌÌ_È_ËÂÌÚ_10"/><filter id="luminosity-noclip-5" x="1975.27" y="-9079" width="71.39" height="32766" filterUnits="userSpaceOnUse" color-interpolation-filters="sRGB"><feFlood flood-color="#fff" result="bg"/><feBlend in="SourceGraphic" in2="bg"/></filter><mask id="mask-5" x="1975.27" y="-9079" width="71.39" height="32766" maskUnits="userSpaceOnUse"><g class="cls-113"/></mask><radialGradient id="_ÂÁ_Ï_ÌÌ_È_ËÂÌÚ_10-5" cx="2010.96" cy="416.21" r="35.69" xlink:href="#_ÂÁ_Ï_ÌÌ_È_ËÂÌÚ_10"/><filter id="luminosity-noclip-6" x="2264.95" y="-9079" width="59.8" height="32766" filterUnits="userSpaceOnUse" color-interpolation-filters="sRGB"><feFlood flood-color="#fff" result="bg"/><feBlend in="SourceGraphic" in2="bg"/></filter><mask id="mask-6" x="2264.95" y="-9079" width="59.8" height="32766" maskUnits="userSpaceOnUse"><g class="cls-112"/></mask><radialGradient id="_ÂÁ_Ï_ÌÌ_È_ËÂÌÚ_10-6" cx="1596.99" cy="136.97" r="29.9" gradientTransform="translate(2180.69 -893) rotate(81.01)" xlink:href="#_ÂÁ_Ï_ÌÌ_È_ËÂÌÚ_10"/><filter id="luminosity-noclip-7" x="2408.89" y="-9079" width="73.26" height="32766" filterUnits="userSpaceOnUse" color-interpolation-filters="sRGB"><feFlood flood-color="#fff" result="bg"/><feBlend in="SourceGraphic" in2="bg"/></filter><mask id="mask-7" x="2408.89" y="-9079" width="73.26" height="32766" maskUnits="userSpaceOnUse"><g class="cls-111"/></mask><radialGradient id="_ÂÁ_Ï_ÌÌ_È_ËÂÌÚ_10-7" cx="1628.59" cy="-10.57" r="36.63" gradientTransform="translate(2180.69 -893) rotate(81.01)" xlink:href="#_ÂÁ_Ï_ÌÌ_È_ËÂÌÚ_10"/><filter id="luminosity-noclip-8" x="1856.24" y="511.46" width="66.12" height="66.12" filterUnits="userSpaceOnUse" color-interpolation-filters="sRGB"><feFlood flood-color="#fff" result="bg"/><feBlend in="SourceGraphic" in2="bg"/></filter><mask id="mask-8" x="1856.24" y="511.46" width="66.12" height="66.12" maskUnits="userSpaceOnUse"><g class="cls-110"><g transform="translate(0 0)"><g class="cls-1"><path class="cls-2" d="M1894.46,577.17A33.06,33.06,0,1,1,1922,539.36,33.05,33.05,0,0,1,1894.46,577.17Z"/></g></g></g></mask><filter id="luminosity-noclip-9" x="1988.41" y="757.66" width="66.19" height="66.19" filterUnits="userSpaceOnUse" color-interpolation-filters="sRGB"><feFlood flood-color="#fff" result="bg"/><feBlend in="SourceGraphic" in2="bg"/></filter><mask id="mask-9" x="1988.41" y="757.66" width="66.19" height="66.19" maskUnits="userSpaceOnUse"><g class="cls-109"><g transform="translate(0 0)"><g class="cls-7"><path class="cls-8" d="M2026.67,823.44a33.09,33.09,0,1,1,27.52-37.85A33.09,33.09,0,0,1,2026.67,823.44Z"/></g></g></g></mask><filter id="luminosity-noclip-10" x="1975.27" y="380.52" width="71.39" height="71.39" filterUnits="userSpaceOnUse" color-interpolation-filters="sRGB"><feFlood flood-color="#fff" result="bg"/><feBlend in="SourceGraphic" in2="bg"/></filter><mask id="mask-10" x="1975.27" y="380.52" width="71.39" height="71.39" maskUnits="userSpaceOnUse"><g class="cls-108"><g transform="translate(0 0)"><g class="cls-9"><path class="cls-10" d="M2016.53,451.46a35.69,35.69,0,1,1,29.68-40.82A35.68,35.68,0,0,1,2016.53,451.46Z"/></g></g></g></mask><filter id="luminosity-noclip-11" x="2264.95" y="675.84" width="59.8" height="59.8" filterUnits="userSpaceOnUse" color-interpolation-filters="sRGB"><feFlood flood-color="#fff" result="bg"/><feBlend in="SourceGraphic" in2="bg"/></filter><mask id="mask-11" x="2264.95" y="675.84" width="59.8" height="59.8" maskUnits="userSpaceOnUse"><g class="cls-107"><g transform="translate(0 0)"><g class="cls-11"><path class="cls-12" d="M2299.52,735.27a29.9,29.9,0,1,1,24.87-34.2A29.9,29.9,0,0,1,2299.52,735.27Z"/></g></g></g></mask><filter id="luminosity-noclip-12" x="2408.89" y="677.27" width="73.26" height="73.26" filterUnits="userSpaceOnUse" color-interpolation-filters="sRGB"><feFlood flood-color="#fff" result="bg"/><feBlend in="SourceGraphic" in2="bg"/></filter><mask id="mask-12" x="2408.89" y="677.27" width="73.26" height="73.26" maskUnits="userSpaceOnUse"><g class="cls-106"><g transform="translate(0 0)"><g class="cls-13"><path class="cls-14" d="M2451.24,750.08a36.62,36.62,0,1,1,30.46-41.9A36.63,36.63,0,0,1,2451.24,750.08Z"/></g></g></g></mask><filter id="luminosity-noclip-13" x="2138.7" y="799.51" width="60.38" height="60.38" filterUnits="userSpaceOnUse" color-interpolation-filters="sRGB"><feFlood flood-color="#fff" result="bg"/><feBlend in="SourceGraphic" in2="bg"/></filter><mask id="mask-13" x="2138.7" y="799.51" width="60.38" height="60.38" maskUnits="userSpaceOnUse"><g class="cls-105"><g transform="translate(0 0)"><g class="cls-3"><path class="cls-4" d="M2173.6,859.51A30.19,30.19,0,1,1,2198.7,825,30.19,30.19,0,0,1,2173.6,859.51Z"/></g></g></g></mask><filter id="luminosity-noclip-14" x="2200.87" y="413.25" width="60.38" height="60.38" filterUnits="userSpaceOnUse" color-interpolation-filters="sRGB"><feFlood flood-color="#fff" result="bg"/><feBlend in="SourceGraphic" in2="bg"/></filter><mask id="mask-14" x="2200.87" y="413.25" width="60.38" height="60.38" maskUnits="userSpaceOnUse"><g class="cls-104"><g transform="translate(0 0)"><g class="cls-5"><path class="cls-6" d="M2235.77,473.26a30.19,30.19,0,1,1,25.1-34.53A30.2,30.2,0,0,1,2235.77,473.26Z"/></g></g></g></mask></defs><rect class="cls-15" width="3000" height="1773.81"/><path class="cls-16" d="M1485.23,393.93h0c-38.47-1.24-77.9-3.73-111.41-17.17s-60.14-40.27-57.69-70.82c2.21-27.61,30.06-54.05,64.39-61.13s72,5.85,87,29.9c4.7-39.51,45.22-76.59,94.44-86.42s102.89,8.43,125.09,42.56c8,12.28,15.64,28.29,33.52,29,10,.4,19.28-4.48,28.49-8.09,43-16.85,98.45-4.88,121.07,26.13C1973.45,419.57,1559.37,396.32,1485.23,393.93Z" transform="translate(0 0)"/><path class="cls-16" d="M766.08,717.46h0c-27.38-.88-55.45-2.65-79.3-12.21S644,676.58,645.71,654.83c1.58-19.65,21.4-38.47,45.84-43.51s51.22,4.16,61.92,21.28c3.35-28.12,32.2-54.52,67.23-61.52s73.24,6,89,30.3c5.68,8.74,11.14,20.14,23.86,20.65,7.09.28,13.73-3.19,20.29-5.76,30.59-12,70.07-3.47,86.17,18.61C1113.6,735.71,818.86,719.16,766.08,717.46Z" transform="translate(0 0)"/><path class="cls-16" d="M2620.69,835.58h0c-22.83-.74-46.23-2.21-66.11-10.18s-35.68-23.9-34.23-42c1.31-16.38,17.84-32.07,38.21-36.27s42.69,3.47,51.62,17.74c2.79-23.44,26.83-45.44,56-51.28s61.05,5,74.22,25.26c4.73,7.28,9.28,16.78,19.88,17.21,5.91.24,11.45-2.66,16.91-4.8,25.51-10,58.42-2.9,71.84,15.51C2910.37,850.79,2664.68,837,2620.69,835.58Z" transform="translate(0 0)"/><path class="cls-17" d="M352.61,1037.12l-3.26-2c4.73-7.76,9.3-15.79,13.57-23.88,2.81-5.32,5.54-10.76,8.13-16.19l3.44,1.64c-2.61,5.47-5.37,11-8.2,16.33C362,1021.19,357.38,1029.29,352.61,1037.12Zm30.59-69.9c5.57-14,10.53-28.49,14.76-43.12l3.66,1.06c-4.26,14.74-9.26,29.37-14.87,43.47Zm22.27-72.56c3.27-14.72,5.89-29.83,7.8-44.91l3.78.48c-1.92,15.19-4.56,30.42-7.86,45.26Zm10.7-75.17c1-15.09,1.3-30.42.93-45.58l3.82-.09c.37,15.27.05,30.72-.94,45.92Zm-.72-75.93c-1.28-15.12-3.25-30.33-5.88-45.21l3.76-.66c2.64,15,4.63,30.32,5.92,45.55ZM203,581.08a161,161,0,0,1-25.7-16.91l2.39-3a155.16,155.16,0,0,0,32.17,20q3.32,1.53,6.66,2.95L217,587.66c-2.26-1-4.52-2-6.76-3Q206.59,583,203,581.08ZM246,598,247,594.3a265.47,265.47,0,0,0,44.53,8.82l-.43,3.79A268.18,268.18,0,0,1,246,598Zm-90.65-55.48c-10.94-13.45-17.92-27.35-20.76-41.33l3.74-.75c2.67,13.17,9.58,26.89,20,39.67ZM403.4,668.58c-3.54-14.78-7.8-29.52-12.65-43.79l3.61-1.23c4.89,14.39,9.18,29.24,12.75,44.13Zm-81.61-60v-3.81a278,278,0,0,0,45.26-3.74l.63,3.77A282.35,282.35,0,0,1,321.79,608.6ZM135.64,470.08a66.27,66.27,0,0,1,2.68-7.53c.66-1.54,1.38-3,2.15-4.49a65.27,65.27,0,0,1,23.11-24.62l2,3.21a61.49,61.49,0,0,0-21.79,23.19c-.72,1.36-1.39,2.77-2,4.21a62.46,62.46,0,0,0-2.53,7.09ZM380.06,596.34c-5.8-14.08-12.33-28-19.39-41.24l3.37-1.79c7.12,13.39,13.69,27.38,19.55,41.57Zm17.59,1.79-1-3.67a266.39,266.39,0,0,0,42.48-16l1.65,3.44A270.53,270.53,0,0,1,397.65,598.13Zm-52.13-69.36c-6.85-11-14.24-21.85-22-32.13-1.32-1.77-2.66-3.52-4-5.28l3-2.34c1.37,1.77,2.73,3.55,4.06,5.33,7.79,10.37,15.24,21.27,22.15,32.41ZM193.19,425.68l-.77-3.73a95.89,95.89,0,0,1,45.51,1.66l.71.21-1.1,3.66-.68-.21A92.07,92.07,0,0,0,193.19,425.68ZM467.64,567.06l-2.05-3.22q4.73-3,9.3-6.2a251.68,251.68,0,0,0,26.63-21.5l2.59,2.8a254.76,254.76,0,0,1-27,21.83C474,562.92,470.82,565,467.64,567.06ZM299.79,468.37c-11.59-12-23-21.4-34.93-28.61l2-3.26c12.2,7.38,23.87,16.94,35.7,29.23ZM525.4,516.8l-2.89-2.49A272.39,272.39,0,0,0,549,477.46l3.27,2A276.33,276.33,0,0,1,525.4,516.8Zm37.77-66.13A276.82,276.82,0,0,0,578.7,408l3.68,1a281.05,281.05,0,0,1-15.74,43.27ZM394.71,347.74l-2-1.32A142.59,142.59,0,0,1,360.25,317l3-2.39a138.44,138.44,0,0,0,31.55,28.65l2,1.29ZM422,362l1.48-3.52A252.5,252.5,0,0,0,466.83,372l-.83,3.72A256.88,256.88,0,0,1,422,362Zm74.11,19.24.56-3.77c6,.9,12,1.69,18,2.41,9,1.09,18.22,2.06,27.34,2.89l-.34,3.8c-9.16-.83-18.4-1.81-27.45-2.9Q505.23,382.54,496.15,381.2ZM343.89,290.75c-6.89-14.93-10.14-30.14-9.65-45.21l3.81.12c-.46,14.47,2.67,29.1,9.3,43.5Zm228.32,98,.22-3.81c15.13.86,30.49,1.35,45.65,1.46l0,3.82C602.83,390.13,587.4,389.63,572.21,388.77ZM585,378.38a257.88,257.88,0,0,0,3-45.28l3.81-.09a261.65,261.65,0,0,1-3,45.95ZM648.63,390l-.09-3.81c15.16-.39,30.51-1.16,45.61-2.29l.29,3.8C679.27,388.8,663.86,389.57,648.63,390ZM340.83,215.21c.94-2.2,2-4.4,3.11-6.53a96.2,96.2,0,0,1,25.18-30l2.39,3a92.58,92.58,0,0,0-24.2,28.84c-1.07,2-2.07,4.13-3,6.24ZM724.89,384.88l-.41-3.79c15.08-1.63,30.31-3.65,45.28-6l.59,3.77C755.33,381.21,740,383.25,724.89,384.88ZM585.4,303A221.38,221.38,0,0,0,574,259.12l3.57-1.34a225.42,225.42,0,0,1,11.62,44.61ZM397.14,166.15l-1.54-3.49a129.9,129.9,0,0,1,45-10.76l.21,3.82A125.8,125.8,0,0,0,397.14,166.15ZM800.48,373.57l-.72-3.74c14.89-2.86,29.91-6.13,44.63-9.73l.9,3.71C830.51,367.42,815.43,370.7,800.48,373.57ZM561.34,231.68a172.23,172.23,0,0,0-26.74-36.37l2.74-2.66a176.27,176.27,0,0,1,27.34,37.18ZM470.61,158l.79-3.73a105,105,0,0,1,17.65,5.4,135.76,135.76,0,0,1,24.67,13.16L511.6,176a133.27,133.27,0,0,0-24-12.8A102,102,0,0,0,470.61,158Zm404.26,198.1-1-3.67q5.77-1.62,11.53-3.31l1.08,3.66Q880.67,354.45,874.87,356.07Z" transform="translate(0 0)"/><path class="cls-18" d="M1140.75,283.16,924.5,298.52l4.12,42.4a3.35,3.35,0,0,0,4.37,3.26Z" transform="translate(0 0)"/><polygon class="cls-19" points="1140.75 283.16 944.66 321.35 932.99 344.18 1140.75 283.16"/><path class="cls-20" d="M1140.75,283.16,1014.58,380c-3.92,3-12.44,4.75-15.8,1.17l-54.12-59.82Z" transform="translate(0 0)"/><path class="cls-20" d="M1140.75,283.16,897.32,247.84c-3.85-.56-6.78,3.21-5.07,6.52l32.25,44.16Z" transform="translate(0 0)"/><g class="cls-21"><path class="cls-22" d="M1894.46,577.17A33.06,33.06,0,1,1,1922,539.36,33.05,33.05,0,0,1,1894.46,577.17Z" transform="translate(0 0)"/></g><g class="cls-23"><path class="cls-22" d="M2026.67,823.44a33.09,33.09,0,1,1,27.52-37.85A33.09,33.09,0,0,1,2026.67,823.44Z" transform="translate(0 0)"/></g><g class="cls-24"><path class="cls-22" d="M2016.53,451.46a35.69,35.69,0,1,1,29.68-40.82A35.68,35.68,0,0,1,2016.53,451.46Z" transform="translate(0 0)"/></g><g class="cls-25"><g class="cls-26"><path class="cls-22" d="M2299.52,735.27a29.9,29.9,0,1,1,24.87-34.2A29.9,29.9,0,0,1,2299.52,735.27Z" transform="translate(0 0)"/></g></g><g class="cls-25"><g class="cls-27"><path class="cls-22" d="M2451.24,750.08a36.62,36.62,0,1,1,30.46-41.9A36.63,36.63,0,0,1,2451.24,750.08Z" transform="translate(0 0)"/></g></g><g class="cls-25"><g class="cls-28"><path class="cls-22" d="M2173.6,859.51A30.19,30.19,0,1,1,2198.7,825,30.19,30.19,0,0,1,2173.6,859.51Z" transform="translate(0 0)"/></g></g><g class="cls-25"><g class="cls-29"><path class="cls-22" d="M2235.77,473.26a30.19,30.19,0,1,1,25.1-34.53A30.2,30.2,0,0,1,2235.77,473.26Z" transform="translate(0 0)"/></g></g><g class="cls-30"><path class="cls-31" d="M2361.61,533.38h0Z" transform="translate(0 0)"/></g><path class="cls-32" d="M2408.83,379.28a81.63,81.63,0,0,0-8-10.53c-39.69-44.59-100.55-5.29-109.6,1-.77.52-1.18.82-1.18.82-4-61,27.63-100.73,47.51-119.42a58.36,58.36,0,0,1,47.68-15.54c55.36,7,66.86,82.65,66.86,82.65C2408.45,357.28,2408.83,379.28,2408.83,379.28Z" transform="translate(0 0)"/><path class="cls-32" d="M2589.1,555.45a58.28,58.28,0,0,1-34.24,36.63c-24.44,9.76-71.29,21.21-122.75-4.48-1.83-.9-3.68-1.87-5.56-2.88,0,0,76.81-41.8,46.93-103a81,81,0,0,0-4.67-8.35s19.77,9.63,73.62-13.48C2542.43,459.92,2606.09,502.27,2589.1,555.45Z" transform="translate(0 0)"/><path class="cls-17" d="M2692,227.21C2495.2,163.64,2380.26,375,2380.26,375l11.43,26.66c12.5,29.14,25.82,58.67,46.8,82.44l22.82,22.81s242.35-16.17,267.86-221.42A54.32,54.32,0,0,0,2692,227.21Z" transform="translate(0 0)"/><path class="cls-33" d="M2622.6,391.72c-61.22,38.82-138.42,31.3-163.54,27.48a7.53,7.53,0,0,1-6.08-9.58c7.26-24.35,33.36-97.4,94.58-136.22s138.27-31.32,163.46-27.49a7.56,7.56,0,0,1,6.13,9.66C2709.87,280,2683.76,352.93,2622.6,391.72Z" transform="translate(0 0)"/><circle class="cls-34" cx="2599.9" cy="323.33" r="67.98" transform="translate(881.81 2301.26) rotate(-56.11)"/><path class="cls-35" d="M2627.17,366.13a50.75,50.75,0,1,1,15.53-70.07A50.75,50.75,0,0,1,2627.17,366.13Z" transform="translate(0 0)"/><path class="cls-36" d="M2633.45,348.16A50.7,50.7,0,0,1,2556,297.88a50.72,50.72,0,1,0,94,32.94A50.48,50.48,0,0,1,2633.45,348.16Z" transform="translate(0 0)"/><path class="cls-35" d="M2243.93,620.82a12.34,12.34,0,1,1,10.26-14.12A12.34,12.34,0,0,1,2243.93,620.82Z" transform="translate(0 0)"/><path class="cls-35" d="M2158.29,737.07a13.09,13.09,0,1,1,10.89-15A13.08,13.08,0,0,1,2158.29,737.07Z" transform="translate(0 0)"/><path class="cls-35" d="M2341.22,622.49a13.23,13.23,0,1,1,11-15.13A13.23,13.23,0,0,1,2341.22,622.49Z" transform="translate(0 0)"/><path class="cls-35" d="M2150.85,592.92A16.54,16.54,0,1,1,2164.6,574,16.52,16.52,0,0,1,2150.85,592.92Z" transform="translate(0 0)"/><path class="cls-35" d="M2158.22,449.77a13.92,13.92,0,1,1,11.57-15.93A13.92,13.92,0,0,1,2158.22,449.77Z" transform="translate(0 0)"/><path class="cls-35" d="M2170.22,285.77a13.92,13.92,0,1,1,11.57-15.93A13.92,13.92,0,0,1,2170.22,285.77Z" transform="translate(0 0)"/><path class="cls-35" d="M2022.22,277.77a13.92,13.92,0,1,1,11.57-15.93A13.92,13.92,0,0,1,2022.22,277.77Z" transform="translate(0 0)"/><path class="cls-35" d="M2718.22,485.77a13.92,13.92,0,1,1,11.57-15.93A13.92,13.92,0,0,1,2718.22,485.77Z" transform="translate(0 0)"/><path class="cls-35" d="M2642.22,661.77a13.92,13.92,0,1,1,11.57-15.93A13.92,13.92,0,0,1,2642.22,661.77Z" transform="translate(0 0)"/><path class="cls-35" d="M2522.22,929.77a13.92,13.92,0,1,1,11.57-15.93A13.92,13.92,0,0,1,2522.22,929.77Z" transform="translate(0 0)"/><path class="cls-35" d="M2090.22,949.77a13.92,13.92,0,1,1,11.57-15.93A13.92,13.92,0,0,1,2090.22,949.77Z" transform="translate(0 0)"/><path class="cls-35" d="M1738.22,637.77a13.92,13.92,0,1,1,11.57-15.93A13.92,13.92,0,0,1,1738.22,637.77Z" transform="translate(0 0)"/><path class="cls-35" d="M1730.22,465.77a13.92,13.92,0,1,1,11.57-15.93A13.92,13.92,0,0,1,1730.22,465.77Z" transform="translate(0 0)"/><path class="cls-35" d="M2310.22,153.77a13.92,13.92,0,1,1,11.57-15.93A13.92,13.92,0,0,1,2310.22,153.77Z" transform="translate(0 0)"/><path class="cls-35" d="M2586.22,137.77a13.92,13.92,0,1,1,11.57-15.93A13.92,13.92,0,0,1,2586.22,137.77Z" transform="translate(0 0)"/><path class="cls-35" d="M2870.22,113.77a13.92,13.92,0,1,1,11.57-15.93A13.92,13.92,0,0,1,2870.22,113.77Z" transform="translate(0 0)"/><path class="cls-35" d="M2830.22,297.77a13.92,13.92,0,1,1,11.57-15.93A13.92,13.92,0,0,1,2830.22,297.77Z" transform="translate(0 0)"/><path class="cls-37" d="M2333.33,461.31c-38.9-77.17-52.25-5.83-85.36,0-40.37,7.15-85.61-49.31-83.08,41.61-116.24-49.37-145,167.09-34.41,149.31-21.57,89.78,145.33,106.25,150-6,77.68,50.69,56.38.89,76.59-51.13,12.18-31.34,38.47-11.07,32.39-59.18C2387.29,518.71,2361,488.69,2333.33,461.31Z" transform="translate(0 0)"/><path class="cls-38" d="M1720.25,823.41a8.93,8.93,0,0,1-4.15-16.84l661.19-346.12a8.93,8.93,0,1,1,8.29,15.82l-661.2,346.12A8.79,8.79,0,0,1,1720.25,823.41Z" transform="translate(0 0)"/><path class="cls-32" d="M2379.71,403.3l-79,11.32a249,249,0,0,0,98.21,146.82L2447.52,498Z" transform="translate(0 0)"/><path class="cls-34" d="M2463.5,505.66a302.52,302.52,0,0,1-46.88-62A302.9,302.9,0,0,1,2380.26,375c-22,9.81-12.55,36.27-12.55,36.27,4,23.61,22.65,49.13,22.65,49.13s15.27,27.65,35,41.28C2425.32,501.71,2445.33,521.42,2463.5,505.66Z" transform="translate(0 0)"/><polygon class="cls-39" points="132.39 1350.22 99.75 1286.68 996.98 825.78 1145.98 1046.31 1677.48 780.56 1709.42 844.44 1121.88 1138.22 973.26 918.26 132.39 1350.22"/><polygon class="cls-39" points="1756.77 955.25 1691.38 821.39 1625.98 687.54 1798.96 685.93 1971.94 684.33 1864.35 819.79 1756.77 955.25"/><path class="cls-38" d="M1709.43,853.37a8.9,8.9,0,0,1-8-4.93l-32-63.89a8.93,8.93,0,0,1,16-8l31.94,63.89a8.92,8.92,0,0,1-8,12.92Z" transform="translate(0 0)"/><path class="cls-40" d="M358.24,1261.11s-1.24,2.63,1.19,7.76c0,0-10,21.75-23.84-4.45a16.33,16.33,0,0,0,5.1-14.92S346.09,1260.57,358.24,1261.11Z" transform="translate(0 0)"/><path class="cls-41" d="M375.5,1224.41c-.9,8.68-2.14,18.45-5.54,26.56-4.58,10.91-17.06,14.64-26.14,6.39-3.91-3.55-6.47-8.33-8.52-13.19-3.92-9.29-8.5-18.16-3.39-28a24.82,24.82,0,0,1,4.89-6.36c7.27-7,24.16-13.74,33.53-7.53,4.85,3.21,6,8.1,5.8,13.61Q375.94,1220.14,375.5,1224.41Z" transform="translate(0 0)"/><path class="cls-42" d="M371.71,1211.54c-2.08-.13-3.3,2.18-4.77,3.66a7.44,7.44,0,0,1-9.15.9c-1.19-.8-2.15-2-3.46-2.57a4.89,4.89,0,0,0-6.58,3.81c-.06.73,0,1.46,0,2.19a5.58,5.58,0,0,1-4.7,5c-2.21.28-4.35-.8-6.53-1.25s-5,.16-5.62,2.31c-.77,2.7,2.43,4.64,4.07,6.91a6.31,6.31,0,0,1,.08,7.28,2.53,2.53,0,0,1-2.32,1.18,3.22,3.22,0,0,1-1.69-1.24l-7.6-8.82a5.17,5.17,0,0,1-1.12-1.71c-.68-2.11,1.41-4,2.34-6,1.74-3.75-.67-8-3-11.46s-4.62-7.77-2.78-11.47c2.14-4.29,8.29-4.55,11.72-7.89,1.27-1.23,2.11-2.84,3.29-4.15a10.68,10.68,0,0,1,6.79-3.44c3.06-.29,6.07.76,9.07,1.44s6.37,1,9-.71c1.07-.69,1.93-1.67,3-2.33a6.38,6.38,0,0,1,8.9,3.31,9.53,9.53,0,0,0,.79,2.25,3.94,3.94,0,0,0,1.31,1.19c2,1.25,4.51,1.46,6.83,2,8.93,2,5.49,11.33,4.85,18.13-.25,2.72-1.23,4.67-4.11,5.47C375.73,1216.84,375.44,1211.77,371.71,1211.54Z" transform="translate(0 0)"/><path class="cls-43" d="M396,1595.68l13.48,12.11s15.72,1.49,23.52,8.38a1.77,1.77,0,0,1-1.18,3.1l-45.24-.3a3,3,0,0,1-3-2.76L382,1596.62Z" transform="translate(0 0)"/><path class="cls-43" d="M293.65,1600.42l6.24,9.89s15.39,3,22.52,10.53a1.81,1.81,0,0,1-1.51,3l-44.07-4.56a3.54,3.54,0,0,1-3.16-3.92l2.15-19.29Z" transform="translate(0 0)"/><path class="cls-32" d="M379.3,1389.34,402,1596.25l-22.84,1.09-53.81-201S347.44,1406.62,379.3,1389.34Z" transform="translate(0 0)"/><path class="cls-32" d="M352.84,1398.79,297,1601.29l-23.48-2.44L301,1387.72S312.34,1400.41,352.84,1398.79Z" transform="translate(0 0)"/><path class="cls-34" d="M336.1,1264.34a51.86,51.86,0,0,0-20.25,6.48s-23,66-19.7,148.09c0,0,41.68,20.78,87-1.36L378,1326.17s-.21-49.41-2.47-50.87c-6.16-4-13.42-5.07-16.23-6.53C359.25,1268.77,349.33,1290,336.1,1264.34Z" transform="translate(0 0)"/><path class="cls-40" d="M425.18,1306.88l3.27-9.22,15-12.75c-2.11-11.94-7.89-14.45-8.16-14.14-7.57,8.47-12.7,5.17-12.7,5.17s-2.44-11.82-5.86-14a.85.85,0,0,0-1.27.79l3,21.67a10.44,10.44,0,0,1-.38,4.58L413,1302.68Z" transform="translate(0 0)"/><path class="cls-34" d="M374,1274.94c1.45.81,10.88,2.9,14.32,15.09,5.77,20.38,10.34,36.41,12.15,48.74,0-.23,6.06-28.64,13.49-38.78l11.7,5.84c2.5,7.18-.16,57.71-16.07,68.28-5.08,3.25-11.61,4.82-18.14-.91-9.83-8.65-13.46-32.37-13.46-32.37S363.23,1290.64,374,1274.94Z" transform="translate(0 0)"/><path class="cls-40" d="M317.85,1418.23l5.85,13a11,11,0,0,1,1,3.75c.3,3.79.76,12-.45,16.57,0,0-7.71,18.08-15.68-12.3l-1.07-19Z" transform="translate(0 0)"/><path class="cls-44" d="M317.09,1315.56c-1,4.36-8.15,37.47-7.41,41.88l10.22,61.07-15.39,3.24-14-54.54c-5-18-2.88-40.4,2.43-58.32,6-20.16,11.47-29.7,15.52-34.19C311.51,1271.28,330.15,1256.81,317.09,1315.56Z" transform="translate(0 0)"/><path class="cls-32" d="M407,1225.18l-9.2,2.49s-5.15,11.92,3.15,22l8.9-.38S403.85,1237.56,407,1225.18Z" transform="translate(0 0)"/><rect class="cls-45" x="497.41" y="1190.55" width="9.43" height="67.95" transform="translate(1189.35 2355.58) rotate(171.01)"/><polygon class="cls-38" points="492.16 1191.7 443.88 1211.58 449.58 1249.92 502.77 1258.81 492.16 1191.7"/><path class="cls-32" d="M503.23,1201.34l6.9,43.65a30.2,30.2,0,0,0,5.45-28.3A27.93,27.93,0,0,0,503.23,1201.34Z" transform="translate(0 0)"/><path class="cls-32" d="M450,1205.54s13.64,24,5.61,48.09l-43.6,5.42s-11-17-6.12-46.81Z" transform="translate(0 0)"/><path class="cls-45" d="M411.2,1211.38s-4.92,24.8,6.26,46.92l-5.49.75s-12.28-19-6.12-46.81Z" transform="translate(0 0)"/><path class="cls-32" d="M432.85,1256.18s1.75,19.43,11.22,29a22.9,22.9,0,0,1,3.17,3.59c1.37,2.28,2.36,5.69-1.29,8.5,0,0-7.17,6.5-18.16-9.88,0,0-7.84-10.31-9.24-29.17Z" transform="translate(0 0)"/><path class="cls-46" d="M432.91,1260.58l2.23-.56a1.67,1.67,0,0,1,1.78.69,9.46,9.46,0,0,1,1.72,6.56,1.8,1.8,0,0,1-1.08,1.55l-2,.8S432.69,1267,432.91,1260.58Z" transform="translate(0 0)"/><path class="cls-40" d="M443.57,1284.82a13.13,13.13,0,0,1-6.35.55c-4-.85-7.35-6.78-6.21-10.66a6.73,6.73,0,0,1,3.23-3.75,3.19,3.19,0,0,1,2.71-.24,11,11,0,0,1,5.53,4.31A11.55,11.55,0,0,1,443.57,1284.82Z" transform="translate(0 0)"/><path class="cls-47" d="M786.26,1352.35,754.6,1362h0a46.75,46.75,0,0,0-11.56,2.1c-10.88,3.33-18.68,9.34-17.43,13.43s11.08,4.71,22,1.39a44.82,44.82,0,0,0,12.31-5.74l30-9.16Z" transform="translate(0 0)"/><path class="cls-48" d="M767.67,1353.4l6.55,18.94,60.4-17.94a26.57,26.57,0,0,0,18.51-29.06l-9.35-67.1s-23.69,2.27-15.66,62.69c.73,5.49-4.89,10.87-9.94,13.13Z" transform="translate(0 0)"/><path class="cls-39" d="M843.78,1258.24l-8.31,124s57.33,8.18,85.49-1.38l-11.81-120.3L891.77,1253l-15.07,30.23L861.92,1253Z" transform="translate(0 0)"/><polygon class="cls-49" points="861.92 1252.95 876.7 1283.18 891.77 1252.95 877.03 1248.4 861.92 1252.95"/><polygon class="cls-50" points="861.92 1252.95 866.08 1244.26 877.03 1248.4 867.48 1264.32 861.92 1252.95"/><polygon class="cls-50" points="877.03 1248.4 884.97 1244.26 891.77 1252.95 886.11 1264.32 877.03 1248.4"/><path class="cls-51" d="M866.08,1244.26v-5.69s-7.18,5.27-17.77,0c0,0-12.84-6.41-7.93-37.39,0,0,9.8-18.72,28.72-13,14.61,4.39,22.85,19.72,19.59,34.62a44.75,44.75,0,0,1-4.29,11.67s-1.69,6.93.57,9.83L877,1248.4Z" transform="translate(0 0)"/><path class="cls-52" d="M848.36,1203.69c4,.38,8.2,1.2,11.16,3.91s4,7.85,1.21,10.73l5.57-.1c-1.63-1.59-.06-4.74,2.2-5s4.32,1.6,5.12,3.72.66,4.47.59,6.75,0,4.65,1.09,6.63A7.09,7.09,0,0,0,886,1231.8c3.81-6.83,7.09-14.12,8-21.88s-.76-16.11-5.89-22c-4.32-5-10.68-7.77-17.13-9s-13.1-1-19.67-.78c-8.68.29-21.63,1.88-22.8,13C827.41,1201.41,841.18,1203,848.36,1203.69Z" transform="translate(0 0)"/><polygon class="cls-53" points="835.47 1382.19 835.47 1391.63 920.96 1389.75 920.96 1380.81 835.47 1382.19"/><rect class="cls-54" x="844.55" y="1382.04" width="4.55" height="9.29"/><rect class="cls-54" x="902.52" y="1381.11" width="4.4" height="8.95"/><polygon class="cls-55" points="835.47 1391.63 857.01 1610.43 872.5 1610.43 881.01 1432.45 910.64 1613.84 925.78 1613.46 920.96 1389.75 835.47 1391.63"/><path class="cls-51" d="M896.3,1385,874,1409.52h0a47.52,47.52,0,0,0-8.87,7.72c-7.65,8.42-11.28,17.57-8.12,20.45s11.94-1.61,19.59-10a44.65,44.65,0,0,0,7.65-11.23l21.07-23.18Z" transform="translate(0 0)"/><path class="cls-48" d="M909.15,1260.51s23.06,5.67,26.46,33.25V1361s.07.85.09,2.34c.15,12.77-16.62,26.64-25,36.28L891.09,1417,873,1404.08l38.83-46.83Z" transform="translate(0 0)"/><path class="cls-43" d="M850.12,1603c-13.88,0-25.13,6.93-25.13,15.49h50.26C875.25,1610,864,1603,850.12,1603Z" transform="translate(0 0)"/><path class="cls-43" d="M905.75,1606.66c-13.87,0-25.13,6.93-25.13,15.49h50.26C930.88,1613.59,919.63,1606.66,905.75,1606.66Z" transform="translate(0 0)"/><path class="cls-51" d="M818.14,1335.68c-.22,3.44-8.59,5.7-18.69,5s-18.11-4-17.89-7.39,8.58-5.7,18.69-5S818.36,1332.24,818.14,1335.68Z" transform="translate(0 0)"/><path class="cls-56" d="M692.14,1259.34l34.74,48.41a31.05,31.05,0,0,0,19.83,12.18l41.57,7-.83,13-47.32,3.72a20.29,20.29,0,0,1-16.44-6.42l-22.78-22S695.92,1266.66,692.14,1259.34Z" transform="translate(0 0)"/><path class="cls-57" d="M744.71,1372.34c0,3.61-8.61,6.54-19.24,6.54s-19.23-2.93-19.23-6.54,8.61-6.55,19.23-6.55S744.71,1368.72,744.71,1372.34Z" transform="translate(0 0)"/><path class="cls-58" d="M610.24,1376H693l-.86-116.61c-2.9-3.21-9.07-9.92-16.52-13.57l-11.72-4.16s-18.89.38-21.54.38c1.23-.38-9.71,5.62-14.36,7.18-7.42,2.48-4.54,1.34-11.33,6.08Z" transform="translate(0 0)"/><path class="cls-51" d="M682.87,1209.26c0,15.77-11.36,28.55-25.38,28.55s-25.38-12.78-25.38-28.55,11.37-28.55,25.38-28.55S682.87,1193.49,682.87,1209.26Z" transform="translate(0 0)"/><path class="cls-51" d="M642.4,1232.21s3.66,7.53-1.92,11.83l12.09,5.13,12.38-5.56s-2.59-4.3-2.58-7.3C662.37,1236.31,651.62,1239.44,642.4,1232.21Z" transform="translate(0 0)"/><path class="cls-59" d="M694.61,1171.9s-17.92,4.22-31.19,1.21a38.16,38.16,0,0,0-20,.55c-9.2,2.93-20.5,10.19-20.73,27.87-.24,1.83-.37,15.87,9.6,25.42a26.81,26.81,0,0,0,11.73,6.49c-1-2.59-1.64-7.79-1.81-14.45-.13-5.53.56-11.18,3.39-14a4.12,4.12,0,0,1,5.87.17,5,5,0,0,1,1.5,4.95h3.86s-2.14-10.87,8.59-10.16C665.41,1200,701.48,1198.52,694.61,1171.9Z" transform="translate(0 0)"/><polygon class="cls-60" points="652.57 1249.17 661.63 1260.88 675.62 1245.77 663.9 1241.61 652.57 1249.17"/><polygon class="cls-60" points="642.36 1241.99 628 1249.17 643.88 1260.88 652.57 1249.17 642.36 1241.99"/><path class="cls-56" d="M646,1607.22c-13.88,0-25.13,6.94-25.13,15.5h50.26C671.08,1614.16,659.83,1607.22,646,1607.22Z" transform="translate(0 0)"/><path class="cls-56" d="M686.76,1601.69c-13.88,0-25.13,6.94-25.13,15.5h50.26C711.89,1608.63,700.63,1601.69,686.76,1601.69Z" transform="translate(0 0)"/><rect class="cls-61" x="610.24" y="1375.95" width="82.76" height="10.74"/><rect class="cls-62" x="624.98" y="1375.95" width="3.02" height="10.74"/><rect class="cls-62" x="675.24" y="1375.95" width="3.02" height="10.74"/><polygon class="cls-32" points="610.24 1386.35 629.51 1610.81 648.79 1610.81 655.72 1425.79 671.46 1604.77 691.11 1604.77 693 1386.69 610.24 1386.35"/><path class="cls-56" d="M627.63,1249.17,639,1396.78s-8.31,26.22-37.79,14.51L603.82,1293S604.2,1254.08,627.63,1249.17Z" transform="translate(0 0)"/><path class="cls-56" d="M675.62,1245.77l-2.27,143.39s-.76,21.6,16.63,25.14h14.74l-4.54-129.25S701.77,1258.31,675.62,1245.77Z" transform="translate(0 0)"/><path class="cls-63" d="M617.33,1254.63l26.79,77.76a23.08,23.08,0,0,0,14,13.86l55.14,19.39L709.73,1376l-62.49-4.79a18.32,18.32,0,0,1-14.24-8.75l-29.59-48.73S599,1270.05,617.33,1254.63Z" transform="translate(0 0)"/><path class="cls-64" d="M1190.18,1593.66v16.52a5.14,5.14,0,0,0,3.27,4.79l12.9,5a14.47,14.47,0,0,0,3.61.9l28.81,3.43s8.19.57,11-3.87a4,4,0,0,0-2.18-5.77l-25.51-9.5-14.35-12.29S1203.85,1597,1190.18,1593.66Z" transform="translate(0 0)"/><path class="cls-64" d="M1065.47,1580.27s-33.1,24.6-31.88,35.53c0,0,5.16,13.66,21.25,0,0,0,12.76-10,14.88-14.73l10.33-17A32.26,32.26,0,0,1,1065.47,1580.27Z" transform="translate(0 0)"/><path class="cls-64" d="M1109.92,1360.72l56.58,126.9s5.16,75.67,23.68,108.77c2.9.77,5.33,2.11,10,2.12s8-2.86,10.93-3.64c-2.73-15.84-5.09-35-7.51-51.94-3.72-26-7.36-55-7.06-66.5,0,0-10.93-103.54-26.42-124.8C1170.14,1351.63,1163,1360.4,1109.92,1360.72Z" transform="translate(0 0)"/><path class="cls-61" d="M1097.56,1358.92s-20.34,111.52-14.88,127.61L1063.25,1581s9.11,8.5,18.67,4l78.61-229S1147.67,1361,1097.56,1358.92Z" transform="translate(0 0)"/><path class="cls-65" d="M1172.68,1259.18l-13-30.88-51.55,8.56-51.39-7-1.4-17.69-25.14-3.26v25a16.75,16.75,0,0,0,10,15.42l.2.08c20,8.38,49.79,21.87,55.93,25.66a79.18,79.18,0,0,1,2,12.47l-2.76,73s40.76,26.46,82.37,2C1178,1362.45,1176,1285,1172.68,1259.18Z" transform="translate(0 0)"/><path class="cls-65" d="M1172.22,1261.94s27.94-18.16,47.88-28.93c2.82-1.53,5.6-3.11,7.29-5.83l8.17-13.13-22.31-14.9-9,14.68-45.47,14.9Z" transform="translate(0 0)"/><polygon class="cls-66" points="1154.04 1226.14 1160.73 1228.12 1152.41 1248.79 1137.33 1240.94 1150.19 1225.51 1154.04 1226.14"/><polygon class="cls-66" points="1137.33 1240.94 1126.35 1253.82 1106.46 1236.96 1114.46 1232.22 1137.33 1240.94"/><polygon class="cls-20" points="1130.86 1248.35 1135.79 1252.86 1142.41 1252.16 1145.22 1245.05 1137.33 1240.94 1130.86 1248.35"/><path class="cls-66" d="M1212.18,1197.84c2.12,5.21,8.19,14.41,24.82,16.65a7.48,7.48,0,0,0,7.79-4.14l4.2-8.82a40.59,40.59,0,0,1-31.14-16.39l-4.87,6.53A6.31,6.31,0,0,0,1212.18,1197.84Z" transform="translate(0 0)"/><path class="cls-67" d="M1217.85,1185.14s15.73-.33,31.14,16.39C1249,1201.53,1228.37,1203.91,1217.85,1185.14Z" transform="translate(0 0)"/><path class="cls-20" d="M1135.62,1252.63c1,29,3.21,58.34,2.39,87.37-.09,3.33-.06,7,2.23,9.46,2.86,3,8.15,2.77,10.85,6,4.41-3.89,5.36-10.51,4.4-16.32s-3.45-11.25-4.83-17c-2.8-11.58-.9-23.69-.25-35.58s-.85-25-8.15-34.45C1140.81,1252.13,1137.07,1252.59,1135.62,1252.63Z" transform="translate(0 0)"/><path class="cls-68" d="M1239.7,1200.93l19-41.94,12.18-14.19c1.95-2.37-8.11-22-8.11-22a2.87,2.87,0,0,0-4.57-.4l-5.19,4.72a1.32,1.32,0,0,1-2-.31c-1-1.7-3-2.22-4.44-.76a4.28,4.28,0,0,0-1.17,1.55l-4.3,13.63a4.66,4.66,0,0,0-.09,2.4l2.55,11.14-22.91,35.3C1224.67,1196.77,1237.59,1201.13,1239.7,1200.93Z" transform="translate(0 0)"/><path class="cls-40" d="M1250,1138.64l2.15-11.21.19.31.62,10.84a1.17,1.17,0,0,0,1.37.69c1.37-.34,3.33-1.83,3.76-7.39l3,6.17-8,2.63v.16Z" transform="translate(0 0)"/><path class="cls-66" d="M1058.28,1212.11c-4.35,3.56-14.07,8.76-29.76,2.79a7.47,7.47,0,0,1-4.86-7.36l.51-9.74a40.61,40.61,0,0,0,35.19.44l1.16,8.06A6.31,6.31,0,0,1,1058.28,1212.11Z" transform="translate(0 0)"/><path class="cls-67" d="M1059.36,1198.24s-13.67-7.79-35.19-.44C1024.17,1197.8,1041.16,1209.71,1059.36,1198.24Z" transform="translate(0 0)"/><path class="cls-68" d="M1030.79,1200.78l3.68-46.84-3.79-18.32c-.56-3,17.79-15.35,17.79-15.35a2.87,2.87,0,0,1,4.19,1.86l2.25,6.65a1.31,1.31,0,0,0,1.93.7c1.68-1,3.74-.46,4.25,1.5a4.35,4.35,0,0,1,.27,1.91l-2.85,14a4.53,4.53,0,0,1-1.08,2.15l-7.63,8.5,2.94,42.92C1045.09,1207.46,1032.54,1202,1030.79,1200.78Z" transform="translate(0 0)"/><path class="cls-40" d="M1052,1140.38l3.55-10.86-.32.19-5.79,9.18a1.18,1.18,0,0,1-1.53-.06c-1-1-2-3.22.29-8.29l-5.62,3.94,5.74,6.19-.08.13Z" transform="translate(0 0)"/><path class="cls-68" d="M1116.15,1213l-1.69,19.18,22.87,8.72,12.86-15.43-2.23-16.45S1136.27,1219.05,1116.15,1213Z" transform="translate(0 0)"/><path class="cls-68" d="M1150.14,1194.67q-3.21-10.08-7.06-19.94c-1.57-4-3.63-8.43-7.69-9.9s-8.57.64-12.43,2.72l-12.16,6.55c-7.61,4.1-5.5,6.9-2.64,13.1.6,1.3,1.09,2.68,1.62,4-8.52,14.66,5.15,20.2,5.15,20.2.63,1.62,4.26,8.12,5.5,9.32,4.22,4.06,11.11,2.3,16.61.3,5.32-1.94,11.1-4.27,13.73-9.28C1153.49,1206.58,1151.92,1200.26,1150.14,1194.67Z" transform="translate(0 0)"/><path class="cls-52" d="M1125,1211.94c1.47,0,3.38-.1,3.93-1.45,4.54-10.94,21.25-15.82,26.11-3.13,1,2.61,1.46,5.41,2.66,7.93.81,1.71,1.92,3.41,1.88,5.3a7,7,0,0,1-2,4.31c-3.3,3.69-8.25,5.34-13,6.86-4.48,1.43-9.1,2.89-13.8,2.54a11.83,11.83,0,0,1-7.37-3,17.1,17.1,0,0,1-3.53-6.16c-.91-2.26-1.82-4.53-2.72-6.79-.76-1.89-2.43-4.48-2.53-6.51-.14-2.48,2-1.61,3.47-1.13A23.71,23.71,0,0,0,1125,1211.94Z" transform="translate(0 0)"/><path class="cls-52" d="M1112.63,1208.63s-7.2-17.53.79-14.8a.87.87,0,0,0,1.17-1,7.6,7.6,0,0,1,.74-4.71,14.48,14.48,0,0,1,10.54-8.11c6.59-1.25,21.09-6.77,16.18-27,0,0-7.81,3.5-23.17,4.14a22.49,22.49,0,0,0-13.63,5c-4.71,4-8.47,10.69-7,22.28a5,5,0,0,0,.38,1.37,40.92,40.92,0,0,0,8.15,19.07c.17.47,3.21,4,5.14,3.75Z" transform="translate(0 0)"/><path class="cls-43" d="M1982.06,1597.12l14.23,16.67,20.13,9.25s7,4.22,1.31,6.9a9.19,9.19,0,0,1-5.43.67l-48.5-9.37,5.69-25.57Z" transform="translate(0 0)"/><path class="cls-43" d="M2070.38,1595.1l9.31,14,31.4,6.18s10.21,2.84,2.51,7.49l-55.52-.12-.93-25.35a12.61,12.61,0,0,0,7,1C2066.48,1597.93,2069.43,1595.73,2070.38,1595.1Z" transform="translate(0 0)"/><path class="cls-69" d="M2052.44,1572.46l4.65,26a9.83,9.83,0,0,0,13.32-3.48q-.91-12.21-1.84-24.41S2063.58,1575.83,2052.44,1572.46Z" transform="translate(0 0)"/><path class="cls-61" d="M2068.46,1353.29l2.36,122.38v99.17s-11.87,8-20-1.06l-27.89-230S2026.58,1356.27,2068.46,1353.29Z" transform="translate(0 0)"/><path class="cls-69" d="M1971.41,1582.89l-2.38,15.28a7.9,7.9,0,0,0,8.11,3.29,8,8,0,0,0,5.12-4.25l3.41-10.2S1975.27,1587.57,1971.41,1582.89Z" transform="translate(0 0)"/><path class="cls-70" d="M2020.77,1349.28s-29.65,25.78-6.62,68.6l-44,164.94s9,9.13,16.38,4l59.73-147.16a297.83,297.83,0,0,0,20.69-85.38l.27-3S2031.92,1364.35,2020.77,1349.28Z" transform="translate(0 0)"/><path class="cls-68" d="M2065.76,1266.56l9.63,58.83c.79,3.42,7.68,7.14,11.06,8.09l43.12,12,26.62,5.39A4.52,4.52,0,0,1,2158,1359c-6,4.39-21.76,9.18-34.13-2.83l-56.06-6.44c-9.6-4.57-8.58-12.06-9.79-16.6l-19.9-72.42Z" transform="translate(0 0)"/><path class="cls-71" d="M2074.74,1222.76c1.42,5.44-5.77,9.75-5.79,15.37,0,6.84,10.22,10.38,10,17.22-.16,6-8.55,9.8-7.79,15.78.21,1.69,1.18,3.4.6,5a5,5,0,0,1-2.11,2.25c-8.71,5.82-20.79,5.54-29.79.18-2.85-1.69-5.49-3.87-8.65-4.87-4.47-1.42-9.32-.31-14-.8a20.59,20.59,0,0,1-14.67-8.81,5.46,5.46,0,0,1-1-2.15c-.39-2.57,2.29-4.39,4.27-6.07a16.41,16.41,0,0,0,5.73-12.2c.06-6.51-3.71-12.34-5.84-18.49-2.31-6.7-2.47-14.71,1.91-20.27,3-3.81,7.67-5.91,11.21-9.23,3.17-3,5.35-6.82,7.45-10.63a26.74,26.74,0,0,1,3.83-5.76c4.65-4.9,12.12-5.54,18.87-5.65a39.93,39.93,0,0,1,11.24.93,14.82,14.82,0,0,1,9,6.34c4.06,6.95,0,15.35.75,22.79.36,3.51,1.09,6.07.83,9.51C2070.57,1217.38,2073.76,1219,2074.74,1222.76Z" transform="translate(0 0)"/><path class="cls-68" d="M2036.12,1177.45c8.11-3.65,21.73-7.42,31.55,2a23.7,23.7,0,0,1,7,17.92c-.31,9.69-3.67,25-21.46,27.35a30.7,30.7,0,0,0,2.54,15.52c-.25.62-2.42,5.65-7.28,6.78-5.11,1.19-13.25.7-15.44-5.9,0,0,3.35-8.26,3.78-14.09a24.07,24.07,0,0,0-5.11-16.24c-2.82-3.73-6.21-10.73-4.46-21.69A15.43,15.43,0,0,1,2036.12,1177.45Z" transform="translate(0 0)"/><path class="cls-72" d="M2047.79,1198.6a7.31,7.31,0,0,1-3.69-.22,22.58,22.58,0,0,1-3-1.9,8,8,0,0,0-10.63,2.72,5,5,0,0,0-.72,3.32c.58,3,4.39,3.92,6.68,6s3.07,5.77,2.41,8.93a23.47,23.47,0,0,1-4.33,8.59c-2.2,3.07-4.7,6.49-4.09,10.21.44,2.64,2.42,5.25,1.41,7.73-1.32,3.21-6.12,2.77-8.87,4.9-2.36,1.83-2.77,5.15-3.71,8-3.25,9.82-14.4,15.12-24.75,15.32-6.18.12-13-1.57-16.51-6.65-3.18-4.57-2.78-11.14.51-15.64a17.06,17.06,0,0,1,14.61-6.54c3.4.19,7.35,1.12,9.79-1.25,1.58-1.53,1.88-4,1.67-6.16a17.84,17.84,0,0,0-3.2-8.63c-1.86-2.63-4.43-4.74-6-7.55s-1.82-6.82.67-8.85c2.16-1.76,5.38-1.32,7.89-2.51a6.66,6.66,0,0,0,3.56-7.11c-.61-3.06-3.3-5.31-4.17-8.3a7.66,7.66,0,0,1,6.54-9.35c2.11-.14,4.27.62,6.31.08,2.65-.7,4.29-3.41,5-6.07s.66-5.46,1.45-8.09c2.23-7.4,11.55-11.7,18.63-8.59,1.8.79,3.42,2,5.27,2.64,8.33,3.08,17.35-4.72,26-2.91a14.72,14.72,0,0,1,9.93,8.41,23.72,23.72,0,0,1,1.54,13.21,13.49,13.49,0,0,1-1.73,5.42,8.47,8.47,0,0,1-7.7,3.78c-1.8-1.43-3.87-6-5.93-6.63-2.47-.72-4.39,3.18-5.95,4.82C2058.63,1193.93,2053.75,1197.71,2047.79,1198.6Z" transform="translate(0 0)"/><path class="cls-73" d="M2074.07,1272.63l-18.46-32.92a8.55,8.55,0,0,1-3.42,4.68c-4.25,2.67-11.62.74-17.47-5.59a81.46,81.46,0,0,0-17.41,12.36c-5,4.73-8.47,8.87-8.47,8.87,8.37,16.84-5.52,123.8-5.52,123.8,22.29,22,71.53,4.46,71.53,4.46l-8.77-77.84c-.24-19.88,5-22.26,5-22.26A12,12,0,0,0,2074.07,1272.63Z" transform="translate(0 0)"/><path class="cls-74" d="M1998.58,1294.35s-4.42-32.46,14.93-35.93c0,0,19,.2,12.87,36.2C2026.38,1294.62,2005,1302.05,1998.58,1294.35Z" transform="translate(0 0)"/><path class="cls-75" d="M2000.6,1296.05s-1.24,32.57,3.24,43.3c0,0,3.5,8.48,14.07,6.75l44-20.49,17.24-5.24s6.27-2.23,3.7-8.75l-2.54-5.62s16.82-8.49,16.93-11.52c0,0,2.7-3.76-10.43.8l-16.71,7.57-13.6,11.88-36.84,11.47,1-29.76S2007.41,1299.38,2000.6,1296.05Z" transform="translate(0 0)"/><rect class="cls-76" x="1427" y="1385.9" width="10" height="224"/><rect class="cls-76" x="1605" y="1385.9" width="10" height="224"/><polyline class="cls-76" points="1607 1095.9 1598 1391.9 1414 1391.9 1423 1095.9"/><polygon class="cls-77" points="1631 1391.9 1447 1391.9 1423 1095.9 1607 1095.9 1631 1391.9"/><path class="cls-78" d="M1680.24,1341.12H1483.92c-60.4-95.44-48.94-231.46-50-266.72h179.67C1613.16,1106.52,1615.08,1254,1680.24,1341.12Z" transform="translate(0 0)"/><rect class="cls-79" x="1481.26" y="1201.42" width="24.26" height="62.34"/><rect class="cls-80" x="1505.52" y="1171.06" width="24.26" height="92.7"/><rect class="cls-81" x="1553.45" y="1188.89" width="24.26" height="74.88"/><rect class="cls-82" x="1576.38" y="1169.16" width="24.26" height="94.61"/><rect class="cls-34" x="1529.77" y="1140.29" width="24.26" height="123.48"/><polygon class="cls-83" points="1365.92 1409.26 1351.01 1590.81 1338.52 1590.81 1329.89 1411.03 1365.92 1409.26"/><polygon class="cls-83" points="1402.88 1409.26 1384.63 1590.81 1372.14 1590.81 1366.82 1407.33 1402.88 1409.26"/><path class="cls-84" d="M1384.63,1590.81l8.52,16,21.62,6.49,1.8,5.4-36-1.44-5.4-11.17-2.88,10.81-4-.36s-2.53-15.13,3.84-25.7Z" transform="translate(0 0)"/><polygon class="cls-84" points="1351.01 1590.81 1351.41 1592.31 1356.05 1611.46 1333.71 1611.46 1338.52 1590.81 1351.01 1590.81"/><polygon class="cls-84" points="1356 1611.43 1351.2 1617.44 1338.37 1617.36 1333.77 1611.46 1356 1611.43"/><path class="cls-85" d="M1351.06,1617.45s-5.44-10.76-12.69-.09Z" transform="translate(0 0)"/><path class="cls-86" d="M1369.61,1161.75c-3-.56-25.63-4.77-36.72,18a23.56,23.56,0,0,0-.79,18.13c2,5.45,7.86,10.7,10.88,15.66,2.4,4,5.62,11.4-.92,13.38a6,6,0,0,1-6.69-2.6c-1,5.35,4.24,10.28,9.65,10.89s8.84.63,15.37-4.61c4.09-3.28,9-5.61,12.36-9.59s5.71-9.12,5.44-14.35c-.18-3.71-1.63-7.23-2.93-10.72s-2.5-7.14-2.16-10.85,8.9-2.59,9.53-6C1382.07,1182.1,1389,1165.31,1369.61,1161.75Z" transform="translate(0 0)"/><path class="cls-87" d="M1360,1228.85s4.78,13.48-7.54,20.75c0,0,15.48,18.33,32.55,0,0,0-10.83-5.94-7.61-20A18.75,18.75,0,0,1,1360,1228.85Z" transform="translate(0 0)"/><path class="cls-88" d="M1351.14,1222.05c3.55,5.78,8.91,11.21,15.7,12.56,8.13,1.61,15.19-4.92,18.76-12.39,5.82-12.15,5.5-28-3.56-38.33a17.46,17.46,0,0,0-8.92-5.82,18,18,0,0,0-9.07.66,24.34,24.34,0,0,0-11.58,7.15C1344.13,1195.58,1344.49,1211.24,1351.14,1222.05Z" transform="translate(0 0)"/><path class="cls-89" d="M1346.59,1210.21s6.47-3.84,7.1-17.44c0,0,20.55,14.8,36.36,11.79,0,0,7.3-28.65-25.25-28.61C1364.8,1176,1336.59,1180.3,1346.59,1210.21Z" transform="translate(0 0)"/><path class="cls-88" d="M1406.77,1310.23c-1.14-.23,5.8,15.72,10.12,22.06,1,1.53,2.31,3.13,4.13,3.49a6.28,6.28,0,0,0,3.17-.37c5.17-1.74,9.13-5.88,12.77-10,11.86-13.26,22.83-27.43,31.25-43.11,2.4-4.47,4.64-9.14,8.1-12.86,4.13-4.46,10-7.72,13.41-12.5a4.6,4.6,0,0,0-3-7.16,10.27,10.27,0,0,0-5.32.53c-3.53,1.37-6.33,4.11-8.88,6.91a51.13,51.13,0,0,0-7.71,10.51c-1,2-1.89,4.17-3,6.16a47.6,47.6,0,0,1-4.8,6.5l-22.11,26.65a42.49,42.49,0,0,1-7.88,8,32.22,32.22,0,0,1-4.85-11.5S1410.91,1311.06,1406.77,1310.23Z" transform="translate(0 0)"/><path class="cls-58" d="M1352.48,1249.6,1331,1255s-7.27,1.26-12.64,15.49l-14.09,31.5s9.93,10.75,22.33,7.44l11.36-23.77s10.64,12.2.64,40.6c-3.23,9.16-7.47,20.25-9.18,29.81-4.27,23.92-8,64.06.47,94l71.09-.51s13-57.91-5.76-119.32a87.58,87.58,0,0,1-1.09-46.08s8.94,17.93,12.1,26.78c0,0,11.69,1.26,17.38-9.8l-10-32.64a23.1,23.1,0,0,0-15.43-15.39c-3.41-1-7.73-2.2-13.15-3.49C1385,1249.6,1370.49,1266,1352.48,1249.6Z" transform="translate(0 0)"/><path class="cls-88" d="M1318.55,1327.5c.65,1.32,2.08,2,3.41,2.66A216.44,216.44,0,0,1,1342.5,1341c2.65,1.59,17.82,8,22.56,10s9.35,5.11,11.63,9.74,1.49,11-2.81,13.89a5.45,5.45,0,0,1-5,.78c-2.43-1-3.14-4.14-3.17-6.79s.2-5.55-1.41-7.65c-2.58-3.41-18.79-6.87-22.29-8.45a58.91,58.91,0,0,0-6.37-2.16c-9.47-3-18.06-8.2-26.55-13.35-3.87-2.36-8.5-5.46-8.33-10a77.66,77.66,0,0,1,1.83-11.89c2.15-9.7,3.31-11.58,3.31-11.58,4,3,12.07,7.23,18,6.23C1323.93,1309.84,1317.62,1325.61,1318.55,1327.5Z" transform="translate(0 0)"/><rect class="cls-32" x="2367.32" y="1122.36" width="6.9" height="515.74" transform="translate(-187.53 389.94) rotate(-9.05)"/><polygon class="cls-32" points="2492.55 1632.38 2485.74 1633.47 2461.37 1480.45 2460.28 1473.53 2404.63 1124.15 2411.46 1123.05 2467.27 1473.56 2468.36 1480.48 2492.55 1632.38"/><rect class="cls-32" x="2369.79" y="1105.36" width="6.91" height="81.84" transform="matrix(0, -1, 1, 0, 1216.47, 3514.43)"/><rect class="cls-32" x="2374.27" y="1155.91" width="6.91" height="81.84" transform="translate(1170.38 3569.23) rotate(-89.75)"/><rect class="cls-32" x="2384.3" y="1202.59" width="6.91" height="81.84" transform="translate(1133.69 3625.73) rotate(-89.75)"/><rect class="cls-32" x="2392.03" y="1249.25" width="6.91" height="81.84" transform="translate(1094.72 3679.92) rotate(-89.75)"/><rect class="cls-32" x="2397.46" y="1295.91" width="6.91" height="81.84" transform="translate(1053.47 3731.8) rotate(-89.75)"/><rect class="cls-32" x="2407.49" y="1342.59" width="6.91" height="81.84" transform="translate(1016.77 3788.3) rotate(-89.75)"/><rect class="cls-32" x="2415.22" y="1389.25" width="6.91" height="81.84" transform="translate(977.8 3842.49) rotate(-89.75)"/><polygon class="cls-32" points="2468.36 1480.48 2387.76 1480.13 2387.79 1473.2 2467.27 1473.56 2468.36 1480.48"/><rect class="cls-32" x="2430.67" y="1482.59" width="6.91" height="81.84" transform="translate(899.86 3950.86) rotate(-89.75)"/><rect class="cls-32" x="2438.4" y="1529.25" width="6.91" height="81.84" transform="translate(860.88 4005.05) rotate(-89.75)"/><rect class="cls-32" x="2446.13" y="1575.92" width="6.91" height="81.84" transform="translate(821.91 4059.24) rotate(-89.75)"/><rect class="cls-32" x="2093.7" y="1381.16" width="524.15" height="7.01" transform="translate(524.48 3412.8) rotate(-78.37)"/><polygon class="cls-32" points="2333.14 1123.12 2241.27 1569.36 2239.82 1576.34 2231.58 1616.39 2230.15 1623.37 2227.44 1636.5 2220.58 1635.1 2223.26 1622.11 2224.51 1616.1 2233.3 1573.39 2234.2 1569.07 2326.28 1121.69 2333.14 1123.12"/><rect class="cls-32" x="2360.49" y="1105.44" width="7.03" height="83.17" transform="translate(1121.65 3462.35) rotate(-87.67)"/><rect class="cls-32" x="2353.62" y="1156.56" width="7.02" height="83.17" transform="translate(1063.98 3504.52) rotate(-87.67)"/><rect class="cls-32" x="2341.29" y="1203.49" width="7.02" height="83.17" transform="translate(1005.27 3537.23) rotate(-87.67)"/><rect class="cls-32" x="2331.31" y="1250.51" width="7.02" height="83.17" transform="translate(948.7 3572.36) rotate(-87.67)"/><rect class="cls-32" x="2323.65" y="1297.63" width="7.02" height="83.17" transform="translate(894.28 3609.91) rotate(-87.67)"/><rect class="cls-32" x="2311.33" y="1344.56" width="7.02" height="83.17" transform="translate(835.57 3642.62) rotate(-87.67)"/><rect class="cls-32" x="2301.34" y="1391.58" width="7.02" height="83.17" transform="translate(779 3677.75) rotate(-87.67)"/><polygon class="cls-32" points="2253.54 1474.99 2260.63 1475.28 2334.22 1478.28 2333.93 1485.3 2259.21 1482.26 2252.11 1481.97 2253.54 1474.99"/><polygon class="cls-32" points="2243.18 1529.04 2326.29 1532.42 2326.57 1525.4 2244.01 1521.83 2243.18 1529.04"/><polygon class="cls-32" points="2316.58 1572.43 2316.29 1579.46 2233.19 1576.07 2233.3 1573.39 2234.2 1569.07 2316.58 1572.43"/><polygon class="cls-32" points="2306.61 1619.45 2306.32 1626.47 2223.22 1623.09 2223.26 1622.11 2224.51 1616.1 2306.61 1619.45"/><path class="cls-90" d="M1759.24,1589.56l-4.46,8.55a28.27,28.27,0,0,1-19.57,14.66l-16,3.19s-8.83,3.88-2.45,9l60.57-.68-5-33.77Z" transform="translate(0 0)"/><path class="cls-90" d="M1859,1592.08l-3.41,6.85a34.82,34.82,0,0,1-22.8,18.25l-15.11,3.73s-9.18,4.41-2.27,9.16l63.84-4.29-6.45-33.52Z" transform="translate(0 0)"/><polygon class="cls-32" points="1784.14 1368.02 1747.82 1604.38 1778.35 1607.03 1821.29 1418.21 1849.81 1606 1877.71 1605.16 1869.29 1361.91 1784.14 1368.02"/><path class="cls-91" d="M1794.17,1227s-13.21-.1-10.06,19.75c0,0,2.56,28.07,1.37,32,0,0-4.38,10-12.54,15,0,0,2.11,18,17.19,22.13,0,0,8.61-8.18,8.91-17.77l-1.18-25S1785.36,1233.69,1794.17,1227Z" transform="translate(0 0)"/><path class="cls-92" d="M1777.21,1285.77a13.38,13.38,0,0,0-4.27,8.1s2,15.14,15.4,21.93a4.86,4.86,0,0,0,6.25-1.72,13.82,13.82,0,0,0,2.12-9.28s-11.52-5.23-15.34-17.81A2.58,2.58,0,0,0,1777.21,1285.77Z" transform="translate(0 0)"/><path class="cls-93" d="M1772.94,1293.87l-9.78,6.09a4.32,4.32,0,0,1-5.44-.73l-23.5-25.36-5-20.35-6.71-10.17a1.1,1.1,0,0,0-2,.24c-.52,1.68.27,6.86,3.2,11.62-11.9-19.39-16.23-14.68-17.67-14.52-9.65,1.08,7.34,29.86,7.34,29.86l15.43,13.5,22.19,37.33a11.26,11.26,0,0,0,15.4,3.95l19-11.21S1776.33,1310.14,1772.94,1293.87Z" transform="translate(0 0)"/><path class="cls-39" d="M1830.65,1219.44s25.22,9.28,29,12.53c0,0,18.59,25.64,10.85,139.55,0,0-40.17,21.33-86.84-3.53,0,0,17.54-37.93,10.87-91,0,0-9.27-43-.36-49.91l6.15-3.18Z" transform="translate(0 0)"/><path class="cls-51" d="M1835.23,1173.81c1,8.17.08,17.91-7.62,24.75l3,20.88c-2.19,8.83-10,14.49-17.55,13.78-8.31-.78-12.51-8.82-12.78-9.36,0,0,4.9-3.41,3.2-10.68a2.1,2.1,0,0,0-1.61-1.56c-3.4-.8-12.76-5.62-12.69-34.53a21.7,21.7,0,0,1,2.7-10.49c2.82-5,8.19-11.6,17.44-13C1822,1151.76,1833.63,1161.1,1835.23,1173.81Z" transform="translate(0 0)"/><path class="cls-89" d="M1821.93,1186.45s3.33,12.28-10.09,14.23c0,0-11.52-8.47-19.52.48a96.32,96.32,0,0,0,0,13,9,9,0,0,0,6.73,8.09c4.59,1.13,12.19,1.09,24.1-3.83a8.4,8.4,0,0,0,5.11-6.42,34.8,34.8,0,0,0-.37-11.53l-2-14.38Z" transform="translate(0 0)"/><path class="cls-51" d="M1809.41,1203.28c-.06-.16-7.48-7.44-14.23-.08a1.09,1.09,0,0,0-.12,1.37c.55.76,2.22,1.64,7.11,1.22C1802.17,1205.79,1810.16,1205.27,1809.41,1203.28Z" transform="translate(0 0)"/><path class="cls-89" d="M1812.87,1164.57c-6.2,3.66-25.37,13.43-35.1,1a5.3,5.3,0,0,1-.9-4.91c1.05-3.2,3.82-8.14,11-8.16,0,0,16.12.07,25.07-2.8,5.74-1.84,21.07-1.21,26.89,14.36,0,0,9.54,21.29-8.08,35.45a2.23,2.23,0,0,1-3.73-1.23c-.24-1.55,2.73-7.59,4.74-12.06a7.62,7.62,0,0,0,.18-6.08,5.83,5.83,0,0,0-1.46-2.14,3.31,3.31,0,0,0-5.23,1.43,13.84,13.84,0,0,0-.36,7l-3.85.6c-1.31-3.62-7.22-13.49-7.32-21.45A1.24,1.24,0,0,0,1812.87,1164.57Z" transform="translate(0 0)"/><path class="cls-93" d="M1834.22,1320.47l-48.41,5.35-28.16,5.82s-16.83,7.77-17.22,10.52c0,0-2,3,9.72-2.16l12.68-1.85a35.86,35.86,0,0,0,4,6.82,3.19,3.19,0,0,0,4,.78l16.64-8.81s54.67,4.5,68.57,2.18C1856,1339.12,1844.16,1323.38,1834.22,1320.47Z" transform="translate(0 0)"/><path class="cls-91" d="M1872.41,1240.78s-9.21-14.32-19.76-8.63a23.73,23.73,0,0,0-12.63,21.28c.17,21.94,5.79,48.43-3,58.52,0,0,14.5,12.37,28.93,13.82C1866,1325.77,1882.88,1256.57,1872.41,1240.78Z" transform="translate(0 0)"/><path class="cls-92" d="M1866,1325.77s3.2,6.37-3.13,12.51a5.6,5.6,0,0,1-8.32-.66c-4.15-5.42-11.82-14.29-19.16-16.81a4.11,4.11,0,0,1-2.86-4.48c.35-2.13,1.67-4.58,5.6-5.8A52.7,52.7,0,0,0,1866,1325.77Z" transform="translate(0 0)"/><path class="cls-82" d="M1532.12,1074.45l237.05,234.1,4.55-5-240.43-231.21C1531.86,1071,1530.68,1073,1532.12,1074.45Z" transform="translate(0 0)"/><path class="cls-83" d="M1705.49,1240.33l1.54-.35a5.34,5.34,0,0,1,5.58,2.2l6.94,10.18a5.15,5.15,0,0,1,.4,5.13l-6.36,13.35s-10.53-18.1-10.93-26.76A3.66,3.66,0,0,1,1705.49,1240.33Z" transform="translate(0 0)"/><path class="cls-69" d="M2304.82,880a24.88,24.88,0,0,1,23.56-13.59c9.4.6,20.23,5.09,25.31,20.91,0,0,7,15.88,4.3,28.27A16.16,16.16,0,0,1,2341.38,928C2324.83,927.2,2283.4,921.27,2304.82,880Z" transform="translate(0 0)"/><path class="cls-70" d="M2270,868.63c2.76-5.86,7.46-10.56,12.36-14.79,4.74-4.09,10.14-8,16.38-8.53s13.24,3.81,13.44,10.07c.05,1.61-.33,3.29.29,4.78.82,2,3.18,2.92,5.33,2.86a27.22,27.22,0,0,0,6.24-1.47,27.07,27.07,0,0,1,19.42,2c3.52,1.82,7,5.23,6.28,9.13-.43,2.45-2.43,4.35-4.64,5.48a48.88,48.88,0,0,1-7,2.42,20.74,20.74,0,0,0-9.17,5.69,12.36,12.36,0,0,0-3.17,10.07c1.08,6.13,7.42,10.09,9.24,16,1.55,5.1-.75,10.94-5,14.2s-10,4.1-15.21,2.91a28.79,28.79,0,0,1-13.6-8c-4.77-4.76-7.65-10.35-10-16.57-1.6-4.26-3-7.09-7.2-9.12-5.16-2.49-10.74-3.14-14-8.49C2266.61,881.69,2267.31,874.34,2270,868.63Z" transform="translate(0 0)"/><path class="cls-69" d="M2330,926.56s-5.49,11.07-10.62,17.25c0,0,18-7.49,28,4.05,0,0-7.73-10.83-6-19.9C2341.38,928,2334.52,927.21,2330,926.56Z" transform="translate(0 0)"/><path class="cls-34" d="M2307.82,1023.83s-8.13-58.4,11.58-80c0,0,18.41-7.78,28,4.05A124.56,124.56,0,0,1,2355.9,961q1.72,3.07,3.17,6a25.07,25.07,0,0,1,2.71,11.7v.07a50.42,50.42,0,0,1-4.25,18.39l-15.85,31.57S2322.56,1036.54,2307.82,1023.83Z" transform="translate(0 0)"/><path class="cls-69" d="M2384.91,829.91a15.85,15.85,0,0,1,.72-6.18c.78-1.93,3.23-7.75,5.32-7.62s6.62.94,7.19,2.9.92,9.77.67,11.8c-1.45,11.86-4.28,23.52-5.73,35.38-2.06,16.91-7.74,38.89-13,55.09-6.32,19.58-13.94,32.41-20.06,48.74.84-2.25-12.5-19.3-12.67-22.16,0,0,12.3-11.83,20-32.07,6.68-17.53,12.66-35.4,15.36-53.95A208,208,0,0,0,2384.91,829.91Z" transform="translate(0 0)"/><path class="cls-69" d="M2266.24,823.45c-1-3.41-1.53-7.53.9-10.13,3.13-3.34,9.12-1.55,11.85,2.12s3.34,8.45,4.55,12.86c5.84,21.17,26.63,35.2,34.39,55.75,2.9,7.68,3.85,16,6.46,23.76,2.91,8.67,3.51,18.27,3.93,27.53s3,18.91,2.77,28c-.08,4.12-2.42,8.68-6.48,9.37a8.12,8.12,0,0,1-7-2.73,18.69,18.69,0,0,1-3.71-6.83c-5.26-15-4.11-31.43-5.78-47.26-2.84-26.9-14.15-50.79-30.93-71.69A60.09,60.09,0,0,1,2266.24,823.45Z" transform="translate(0 0)"/><path class="cls-69" d="M2215.4,1126.8s8,6.42,12.93,7.56l-5.79,10.8a9.21,9.21,0,0,0-9.64-1.4S2220.06,1134.14,2215.4,1126.8Z" transform="translate(0 0)"/><path class="cls-69" d="M2334.41,1236.29s4.11-2.92,2.74-13l10.37,1.5c-.69.48,1.83,7,4.57,9.84C2352.09,1234.63,2339.81,1231.79,2334.41,1236.29Z" transform="translate(0 0)"/><path class="cls-94" d="M2376.55,1246.9c-4.49-5.4-15.42-15-36-14.16,0,0-7,.86-8.26,9.34a1.61,1.61,0,0,0,1.36,1.79l41.22,6A1.79,1.79,0,0,0,2376.55,1246.9Z" transform="translate(0 0)"/><path class="cls-94" d="M2195.3,1163.44c6.34-3,18.34-11.26,22.55-31.37,0,0,.89-7-7-10.3a1.6,1.6,0,0,0-2.07.88l-15.89,38.49A1.79,1.79,0,0,0,2195.3,1163.44Z" transform="translate(0 0)"/><path class="cls-61" d="M2308,1022.79s-24.17,18.37-22.08,59.94c0,0,3,63.4-20.77,62.07,0,0-16.47,2.73-36.79-10.44l-5.79,10.8s31.43,36.29,69.42,17.45c0,0,26.79-14.46,32.08-75.42,0,0,3.07-50,11.5-57.47C2335.54,1029.72,2318.47,1033.13,2308,1022.79Z" transform="translate(0 0)"/><path class="cls-32" d="M2342.17,1027.74l6,197.33-11.74-1.7s-58.85-158.77-28.46-200.58C2308,1022.79,2318.41,1035.94,2342.17,1027.74Z" transform="translate(0 0)"/><path class="cls-95" d="M2680.87,1216.79c1.68,7.76,7.67,14.83,6.62,22.69-.54,4-2.91,7.66-3.83,11.64a16.77,16.77,0,0,0,1.81,12.09c2,3.48,5.2,6.26,7,9.82,3.54,6.9,1.26,15.07,2.06,22.7a10.94,10.94,0,0,0,1.64,5.19,22,22,0,0,0,4.1,3.77,20.25,20.25,0,0,1,7.2,15.29c0,6.07-2.84,12.26-.84,18,1.52,4.39,5.54,7.54,8.09,11.49,1.19,1.86,2.08,3.92,3.59,5.55,2.52,2.72,6.51,3.9,10.34,3.9a39.5,39.5,0,0,0,11.2-2.13q14.21-4.26,27.93-9.79c3.57-1.44,7.28-3.06,9.55-6,2.41-3.16,2.77-7.27,4.05-11,1.44-4.14,4-7.84,5.71-11.91a28.23,28.23,0,0,0-3.28-26.85,20.9,20.9,0,0,0-5.95-5.71c-3.32-2-7.32-2.87-10.74-4.75a18.13,18.13,0,0,1-9.36-14.08c-.31-3.87.7-7.86-.38-11.61-1.77-6.15-8.45-9.67-14.52-12.47s-12.77-6.21-14.69-12.33c-.77-2.43-.68-5.09-1.71-7.43-1.29-2.92-4.1-4.92-6.28-7.32-3-3.3-4.82-7.4-6.87-11.3s-4.51-7.82-8.33-10.26C2690.28,1184.58,2678.33,1205.08,2680.87,1216.79Z" transform="translate(0 0)"/><path class="cls-96" d="M2719.08,1243.45s2.14,11.6,11.17,15.21c0,0-19.62-6.74-29.45,17.33,0,0,6.67-14.59,2.44-29.69A16.49,16.49,0,0,0,2719.08,1243.45Z" transform="translate(0 0)"/><path class="cls-97" d="M2708.32,1248.75c-5-.46-9.23-5.16-11.49-9.44s-2.91-9.13-3.54-13.87l-1.08-8.11c-1-7.52.84-13.31,3.32-16.77,2.93-4.09,8.63-8.87,13.86-8.83s10.29-.09,14.58,2.73a23.46,23.46,0,0,1,8.16,8.53c3.2,6.18,5.86,19.64,2.36,26.2C2730.49,1236.71,2718,1249.64,2708.32,1248.75Z" transform="translate(0 0)"/><path class="cls-98" d="M2705.59,1200.18c1.93,3.32,2,7.27,2.37,11s1.08,7.79,3.88,10.5c3.78,3.67,10.47,4.07,13.45,8.36s.76,11,4.49,14.93c4.07,4.26,12.79,2.47,16,7.31,2.8,4.19-.86,9.63-.24,14.55.46,3.63,3.23,6.61,6.23,8.92,6,4.58,13.2,7.41,19.89,11s13.16,8.39,16,15.16c3.27,7.9-2.35,16.48-5.8,24.32-2.6,5.91-2.56,12-5.74,17.61,6.1-4,3.07-8,5.64-11.49a121.3,121.3,0,0,0,17.39-34.14c1.73-5.39,2.86-11.85-1-16.16-2.74-3-7.17-4-11.14-5.43s-8.19-3.87-8.78-7.83c-.44-3,1.4-5.86,2.76-8.63,4.26-8.68,3.26-20.57-5.15-25.92-4.14-2.64-9.39-3.31-13.64-5.79a16.66,16.66,0,0,1-8-11.23c-.63-3.57,0-7.33-1.2-10.77-1-2.92-3.2-5.32-5.38-7.6-7.27-7.58-15.44-15.06-25.82-18s-23.46.32-28,9.59c-2,4,.35,4.69,3.48,5.14C2700.85,1196.19,2703.66,1196.86,2705.59,1200.18Z" transform="translate(0 0)"/><path class="cls-99" d="M2685,1392.27l-15.63,101-2,91.15,17.6,2.22s16.17-51.79,13.42-93.37l27.94-97Z" transform="translate(0 0)"/><path class="cls-100" d="M2752.15,1385.72c-8.43,75.61-8.26,86.45-10.13,93.06,0,0,13.35,73,8.25,112l-17.67,1.48s-14.15-87-21.74-108.56a62.48,62.48,0,0,1-2.57-10.07l-19-87.87S2729.29,1399.11,2752.15,1385.72Z" transform="translate(0 0)"/><path class="cls-17" d="M2700.93,1275.69c-.08.17-.13.3-.13.3s.09-.2.13-.3a47.45,47.45,0,0,0,3-11c-5.06,5.18-28.65,27.74-55.76,28.4l-36.78-7.64s3,13.5-3.67,20.58l31.27,6.67a21.4,21.4,0,0,0,7.4.27l44.73-6.13s-5.21-18.41,9.66-29.09c0,0,.8-2.47,1.7-5.37C2702,1273.37,2701.43,1274.49,2700.93,1275.69Z" transform="translate(0 0)"/><path class="cls-101" d="M2700.8,1276s-16.7,16.66-12.28,31.32a46.29,46.29,0,0,1,2.21,15.06c-.59,16.65-2.58,50-9.17,68.91,0,0,37.1,12.25,74.21-.74a295.37,295.37,0,0,0-19.34-58.94s-5.76-21.68-1.46-34.94c0,0,7.84-30.86-4.72-38C2730.25,1258.66,2710.63,1251.92,2700.8,1276Z" transform="translate(0 0)"/><path class="cls-102" d="M2597.93,1279.05s-10.93,12.83-7.26,24.07a21.31,21.31,0,0,0,5-4.37,19.33,19.33,0,0,0,3.67-6.43C2601.23,1286.26,2598.74,1280.7,2597.93,1279.05Z" transform="translate(0 0)"/><path class="cls-96" d="M2599.82,1284.49l-41.72-7.8-20.83-10.34s-20.84.36-22.49,3.73c0,0-5.17,6.2,20.17,6.61l22.13,7.8,38.47,16S2602.18,1292.41,2599.82,1284.49Z" transform="translate(0 0)"/><path class="cls-103" d="M2772,1351.2a10,10,0,0,1,4.18,11.69,12.25,12.25,0,0,1-.76,1.71,7.55,7.55,0,0,1-9.18,3.23c-4.2-1.52-10.73-4.36-15.26-8.62a6.76,6.76,0,0,1-1.63-7.8c1.17-2.54,3.58-5.33,8.53-6.21C2757.83,1345.2,2766.09,1347.42,2772,1351.2Z" transform="translate(0 0)"/><path class="cls-103" d="M2612.88,1287.25c1.5,5.19,2,12.93-5.05,18.83a5.22,5.22,0,0,1-3.66,1.17c-3.45-.21-10.41-1-13.31-4.16,0,0,10.6-8.6,7.07-24a21.42,21.42,0,0,1,4.68,0A11.68,11.68,0,0,1,2612.88,1287.25Z" transform="translate(0 0)"/><path class="cls-17" d="M2703.13,1395.6a40.94,40.94,0,0,0,.81,4.21s42.79,13.79,53.79-3.29l-2-6v-.08a296.85,296.85,0,0,0-19.33-58.87s-5.76-21.69-1.45-34.94c0,0,7.83-30.86-4.74-38a22.6,22.6,0,0,0-14.5.7c-4.93,6.09-10.93,19.34-7.48,46.62,0,0,.31,20.43-1,29-1.1,7-.39,4-.1,2.69C2706.38,1342,2700.48,1376.66,2703.13,1395.6Z" transform="translate(0 0)"/><path class="cls-96" d="M2765,1367.08s-6.69,4.57-10.43,14.49a6,6,0,0,1-4,3.62l-11.53-1.46s-5.2.26-8,2.87a9.89,9.89,0,0,1-2.9,2c-2.09.89-5.32,1.79-7.6.23a1.75,1.75,0,0,1-.46-2.47c2.64-3.74,11.83-14.89,27-14.1l6.68-10.71S2761.42,1366,2765,1367.08Z" transform="translate(0 0)"/><path class="cls-88" d="M2748.32,1590.9l5.61,33.38a4,4,0,0,1-3.48,4.51l-41.55,6.13a1,1,0,0,1-.77-1.81l30.36-19.86-5.89-21Z" transform="translate(0 0)"/><path class="cls-99" d="M2753.93,1624.24l-1-5.75-32.16,6.33-12.5,8.18a1,1,0,0,0,.81,1.89l41.3-6.09A4,4,0,0,0,2753.93,1624.24Z" transform="translate(0 0)"/><path class="cls-88" d="M2685,1586.66l-7.89,42.75a4.61,4.61,0,0,1-5,3.62l-52.12-4.21a.68.68,0,0,1-.18-1.32l44.43-14.58,3.14-28.48Z" transform="translate(0 0)"/><path class="cls-99" d="M2678,1624.6l-42.1-2.59-16.84,5.73a.73.73,0,0,0,.21,1.43l53.7,3.54a4.59,4.59,0,0,0,5-4.43Z" transform="translate(0 0)"/><path class="cls-17" d="M2754.07,1281.66c-3.39-3.34-15.92-17-19.1-19.76s-8.33-3.79-12.65-2.94-6.8,5.32-6.65,9.42,2.32,7.86,4.51,11.41c3.25,5.26,6.71,10.47,11.15,14.89,3.08,3.07,6.59,5.71,10,8.49,8.1,6.68,15.39,14.17,22.67,21.64,1.34,1.38,2.76,2.91,2.89,4.79a7.92,7.92,0,0,1-1.32,4.16q-3.59,6.54-7.7,12.78a2.74,2.74,0,0,0-.67,2.08,2.63,2.63,0,0,0,1,1.25,28.13,28.13,0,0,0,11.86,5.78,4.81,4.81,0,0,0,2.29.09,4.74,4.74,0,0,0,2-1.39c7.2-7.34,19.64-27.4,11.94-36.94-4.9-6.06-11.15-11.39-16.17-17.48S2759.86,1287.37,2754.07,1281.66Z" transform="translate(0 0)"/></svg>