<?xml version="1.0" encoding="UTF-8"?>
<svg width="3000px" height="1774px" viewBox="0 0 3000 1774" version="1.1" xmlns="http://www.w3.org/2000/svg" xmlns:xlink="http://www.w3.org/1999/xlink">
    <title>shutterstock_1541574860</title>
    <defs>
        <path d="M33.02,66.122 C17.04,66.122 2.98,54.507 0.41,38.224 C0.14,36.534 0.01,34.856 -2.27373675e-13,33.197 L-2.27373675e-13,32.848 C0.08,16.939 11.67,2.977 27.9,0.411 C29.64,0.134 31.38,0 33.1,0 C49.08,0 63.13,11.615 65.71,27.899 C65.98,29.588 66.11,31.267 66.12,32.927 L66.12,33.272 C66.04,49.182 54.45,63.146 38.22,65.711 C36.47,65.988 34.73,66.122 33.02,66.122" id="path-1"></path>
        <radialGradient cx="49.9998488%" cy="49.9998488%" fx="49.9998488%" fy="49.9998488%" r="49.9939082%" gradientTransform="translate(0.499998,0.499998),scale(1.000000,0.999970),rotate(81.013325),translate(-0.499998,-0.499998)" id="radialGradient-3">
            <stop stop-color="#FBFDFD" offset="0%"></stop>
            <stop stop-color="#D3EBED" offset="100%"></stop>
        </radialGradient>
        <path d="M33.05,66.19 C17.06,66.19 2.99,54.564 0.41,38.263 C0.13,36.5 -2.27373675e-13,34.748 -2.27373675e-13,33.018 C0.02,17.036 11.64,2.986 27.93,0.411 C29.68,0.135 31.42,0.001 33.13,0 C47.98,-0.001 61.17,10.017 65.05,24.492 C65.07,24.583 65.1,24.673 65.12,24.764 C65.3,25.46 65.46,26.167 65.6,26.883 C65.66,27.229 65.72,27.577 65.78,27.927 C66.05,29.645 66.18,31.353 66.19,33.04 L66.19,33.229 C66.14,49.187 54.53,63.207 38.26,65.779 C36.51,66.056 34.77,66.19 33.05,66.19" id="path-4"></path>
        <radialGradient cx="49.9922949%" cy="49.9998489%" fx="49.9922949%" fy="49.9998489%" r="49.9930241%" id="radialGradient-6">
            <stop stop-color="#FBFDFD" offset="0%"></stop>
            <stop stop-color="#D3EBED" offset="100%"></stop>
        </radialGradient>
        <path d="M35.72,71.385 L35.59,71.385 C18.36,71.358 3.22,58.827 0.44,41.266 C0.14,39.365 0,37.475 0,35.61 C0.02,18.373 12.55,3.22 30.12,0.442 C31.94,0.154 33.76,0.009 35.55,2.27373675e-13 L35.91,2.27373675e-13 C53.09,0.084 68.17,12.597 70.94,30.119 C71.24,32.02 71.39,33.91 71.3804691,35.775 C71.36,53.011 58.83,68.164 41.27,70.942 C39.4,71.236 37.54,71.381 35.72,71.385" id="path-7"></path>
        <radialGradient cx="49.9996714%" cy="49.9992996%" fx="49.9996714%" fy="49.9992996%" r="49.9962602%" gradientTransform="translate(0.499997,0.499993),scale(1.000000,0.999937),rotate(81.013435),translate(-0.499997,-0.499993)" id="radialGradient-9">
            <stop stop-color="#FBFDFD" offset="0%"></stop>
            <stop stop-color="#D3EBED" offset="100%"></stop>
        </radialGradient>
        <path d="M29.9915729,0 C44.4215729,0.029 57.1015729,10.525 59.4315729,25.232 C59.6715729,26.75 59.7915729,28.257 59.8015729,29.747 L59.8015729,30.126 C59.7115729,44.501 49.2315729,57.114 34.5615729,59.433 C33.0115729,59.679 31.4615729,59.801 29.9315729,59.804 L29.8015729,59.804 C15.3715729,59.777 2.69157295,49.28 0.371572946,34.571 C-2.20842705,18.261 8.92157295,2.95 25.2315729,0.371 C26.7815729,0.125 28.3315729,0.003 29.8615729,0 L29.9915729,0 Z" id="path-10"></path>
        <radialGradient cx="50.008527%" cy="49.9998328%" fx="50.008527%" fy="49.9998328%" r="49.992799%" gradientTransform="translate(0.500085,0.499998),scale(0.999900,1.000000),rotate(81.013445),translate(-0.500085,-0.499998)" id="radialGradient-12">
            <stop stop-color="#FDFEFE" offset="0%"></stop>
            <stop stop-color="#E6F4F5" offset="100%"></stop>
        </radialGradient>
        <path d="M36.73,73.261 L36.45,73.261 C18.8,73.195 3.3,60.345 0.45,42.349 C0.15,40.398 0,38.459 0,36.544 C0.02,18.855 12.88,3.306 30.91,0.455 C32.85,0.149 34.77,0 36.68,0 C54.38,0 69.95,12.868 72.81,30.911 C73.11,32.862 73.26,34.801 73.26,36.716 C73.24,54.405 60.38,69.956 42.35,72.807 C40.46,73.105 38.58,73.254 36.73,73.261" id="path-13"></path>
        <radialGradient cx="50%" cy="50.000546%" fx="50%" fy="50.000546%" r="49.9934219%" gradientTransform="translate(0.500000,0.500005),scale(1.000000,0.999986),rotate(81.013369),translate(-0.500000,-0.500005)" id="radialGradient-15">
            <stop stop-color="#FDFEFE" offset="0%"></stop>
            <stop stop-color="#E6F4F5" offset="100%"></stop>
        </radialGradient>
        <path d="M30.34,60.378 L29.96,60.378 C15.44,60.285 2.71,49.707 0.37,34.903 C0.12,33.332 0,31.77 0,30.228 L0,30.082 C0.03,15.519 10.63,2.722 25.47,0.375 C27.07,0.122 28.66,0 30.22,0 C44.82,0 57.65,10.606 60,25.475 C60.24,27.015 60.37,28.546 60.37,30.058 L60.37,30.388 C60.3,44.913 49.72,57.661 34.9,60.004 C33.37,60.246 31.85,60.368 30.34,60.378" id="path-16"></path>
        <radialGradient cx="50.0081166%" cy="49.9998344%" fx="50.0081166%" fy="49.9998344%" r="49.9997115%" gradientTransform="translate(0.500081,0.499998),scale(1.000000,0.999868),rotate(81.013351),translate(-0.500081,-0.499998)" id="radialGradient-18">
            <stop stop-color="#FDFEFE" offset="0%"></stop>
            <stop stop-color="#E6F4F5" offset="100%"></stop>
        </radialGradient>
        <path d="M30.15,60.378 C15.56,60.378 2.72,49.773 0.37,34.902 C0.35,34.742 0.32,34.581 0.3,34.42 C0.1,33.012 0,31.612 0,30.227 L0,30.082 C0.03,15.518 10.63,2.722 25.47,0.374 C26.3,0.243 27.13,0.147 27.95,0.085 C28.71,0.028 29.47,-2.27373675e-13 30.22,-2.27373675e-13 C44.82,-2.27373675e-13 57.65,10.604 60,25.475 C60.26,27.083 60.38,28.681 60.38,30.258 C60.36,44.837 49.76,57.653 34.9,60.003 C33.31,60.255 31.72,60.378 30.15,60.378" id="path-19"></path>
        <radialGradient cx="50.0001656%" cy="49.9981781%" fx="50.0001656%" fy="49.9981781%" r="49.992923%" gradientTransform="translate(0.500002,0.499982),scale(0.999967,1.000000),rotate(81.013321),translate(-0.500002,-0.499982)" id="radialGradient-21">
            <stop stop-color="#FDFEFE" offset="0%"></stop>
            <stop stop-color="#E6F4F5" offset="100%"></stop>
        </radialGradient>
    </defs>
    <g id="Page-1" stroke="none" stroke-width="1" fill="none" fill-rule="evenodd">
        <g id="shutterstock_1541574860">
            <polygon id="Fill-1" fill="#FFFFFF" points="0 1773.81 3000 1773.81 3000 0 0 0"></polygon>
            <path d="M1485.23,393.927 L1485.23,393.927 C1446.76,392.686 1407.33,390.198 1373.82,376.764 C1340.31,363.331 1313.68,336.494 1316.13,305.936 C1318.34,278.332 1346.19,251.889 1380.52,244.808 C1414.85,237.727 1452.48,250.662 1467.52,274.709 C1472.22,235.201 1512.74,198.121 1561.96,188.287 C1611.18,178.454 1664.85,196.717 1687.05,230.852 C1695.03,243.129 1702.69,259.137 1720.57,259.855 C1730.52,260.256 1739.85,255.381 1749.06,251.767 C1792.04,234.915 1847.51,246.89 1870.13,277.904 C1973.45,419.567 1559.37,396.316 1485.23,393.927" id="Fill-2" fill="#D1EFFC"></path>
            <path d="M766.084,717.462 L766.082,717.462 C738.698,716.58 710.633,714.809 686.78,705.246 C662.927,695.684 643.972,676.581 645.713,654.829 C647.287,635.18 667.115,616.357 691.55,611.317 C715.986,606.276 742.773,615.484 753.475,632.601 C756.822,604.479 785.668,578.084 820.704,571.084 C855.74,564.085 893.943,577.085 909.742,601.383 C915.424,610.122 920.877,621.517 933.6,622.028 C940.688,622.313 947.326,618.843 953.886,616.271 C984.48,604.275 1023.96,612.799 1040.06,634.875 C1113.6,735.714 818.858,719.164 766.084,717.462" id="Fill-3" fill="#D1EFFC"></path>
            <path d="M2620.69,835.58 L2620.68,835.58 C2597.86,834.844 2574.46,833.368 2554.58,825.396 C2534.7,817.426 2518.9,801.502 2520.35,783.37 C2521.66,766.991 2538.19,751.3 2558.56,747.099 C2578.92,742.897 2601.25,750.572 2610.17,764.841 C2612.97,741.399 2637.01,719.396 2666.22,713.562 C2695.42,707.728 2727.27,718.564 2740.44,738.818 C2745.17,746.103 2749.72,755.601 2760.32,756.028 C2766.23,756.265 2771.77,753.373 2777.23,751.229 C2802.74,741.229 2835.65,748.334 2849.07,766.737 C2910.37,850.794 2664.68,836.998 2620.69,835.58" id="Fill-4" fill="#D1EFFC"></path>
            <path d="M874.874,356.071 L873.849,352.395 C877.702,351.319 881.548,350.217 885.383,349.093 L886.459,352.752 C882.604,353.883 878.743,354.99 874.874,356.071 Z M470.606,157.966 L471.403,154.238 C477.505,155.54 483.444,157.358 489.055,159.639 C497.634,163.125 505.929,167.556 513.724,172.803 L511.595,175.967 C504.019,170.869 495.953,166.565 487.619,163.174 C482.214,160.976 476.49,159.225 470.606,157.966 Z M561.342,231.68 C553.735,217.996 544.739,205.758 534.604,195.306 L537.342,192.648 C547.711,203.344 556.908,215.852 564.676,229.825 L561.342,231.68 Z M800.477,373.57 L799.758,369.825 C814.654,366.965 829.669,363.696 844.388,360.104 L845.292,363.812 C830.511,367.415 815.433,370.7 800.477,373.57 Z M397.14,166.151 L395.601,162.66 C409.694,156.444 425.241,152.725 440.562,151.905 L440.767,155.715 C425.901,156.511 410.814,160.119 397.14,166.151 Z M585.404,302.97 C583.083,287.916 579.241,273.163 573.98,259.123 L577.551,257.785 C582.903,272.069 586.813,287.075 589.172,302.389 L585.404,302.97 Z M724.89,384.88 L724.482,381.088 C739.559,379.461 754.793,377.436 769.759,375.07 L770.355,378.838 C755.327,381.214 740.032,383.247 724.89,384.88 Z M340.834,215.214 C341.77,213.006 342.815,210.807 343.938,208.681 C349.891,197.4 358.364,187.296 369.121,178.647 L371.512,181.62 C361.162,189.941 353.02,199.645 347.311,210.461 C346.238,212.494 345.241,214.594 344.344,216.705 L340.834,215.214 Z M648.633,389.961 L648.535,386.148 C663.697,385.762 679.046,384.992 694.155,383.86 L694.439,387.662 C679.269,388.8 663.856,389.574 648.633,389.961 Z M585.012,378.381 C587.345,363.3 588.352,348.065 588.006,333.102 L591.819,333.013 C592.17,348.202 591.148,363.661 588.781,378.963 L585.012,378.381 Z M572.215,388.768 L572.43,384.96 C587.558,385.819 602.918,386.313 618.084,386.424 L618.056,390.238 C602.828,390.128 587.403,389.632 572.215,388.768 Z M343.892,290.753 C337.002,275.818 333.754,260.607 334.236,245.544 L338.048,245.665 C337.586,260.132 340.718,274.765 347.354,289.156 L343.892,290.753 Z M496.147,381.204 L496.71,377.432 C502.717,378.325 508.731,379.118 514.723,379.843 C523.738,380.931 532.937,381.902 542.063,382.728 L541.718,386.526 C532.555,385.698 523.318,384.723 514.267,383.629 C508.238,382.901 502.189,382.103 496.147,381.204 Z M422.037,361.955 L423.517,358.44 C436.463,363.899 450.63,368.319 466.833,371.953 L465.998,375.674 C449.572,371.992 435.19,367.503 422.037,361.955 Z M394.714,347.737 L392.684,346.42 C380.528,338.434 369.313,328.25 360.251,316.972 L363.227,314.582 C372.04,325.554 382.951,335.463 394.778,343.234 L396.766,344.519 L394.714,347.737 Z M563.174,450.674 C569.51,436.893 574.733,422.536 578.696,407.999 L582.375,409.002 C578.357,423.741 573.063,438.297 566.638,452.267 L563.174,450.674 Z M525.404,516.795 L522.506,514.313 C532.279,502.9 541.201,490.501 549.028,477.462 L552.298,479.423 C544.363,492.646 535.313,505.22 525.404,516.795 Z M299.79,468.374 C288.197,456.327 276.772,446.968 264.862,439.759 L266.836,436.496 C279.035,443.878 290.713,453.439 302.537,465.73 L299.79,468.374 Z M467.636,567.058 L465.592,563.835 C468.738,561.841 471.837,559.776 474.891,557.642 C484.152,551.163 493.113,543.93 501.523,536.141 L504.114,538.94 C495.578,546.846 486.481,554.189 477.078,560.768 C473.995,562.923 470.818,565.039 467.636,567.058 Z M193.19,425.681 L192.419,421.947 C207.481,418.835 223.645,419.428 237.928,423.614 L238.643,423.825 L237.541,427.477 L236.855,427.275 C223.161,423.261 207.653,422.696 193.19,425.681 Z M345.524,528.772 C338.669,517.729 331.279,506.919 323.563,496.638 C322.239,494.873 320.896,493.116 319.538,491.364 L322.55,489.024 C323.922,490.791 325.276,492.567 326.613,494.347 C334.398,504.717 341.852,515.623 348.765,526.759 L345.524,528.772 Z M397.652,598.129 L396.617,594.458 C411.284,590.322 425.579,584.946 439.104,578.481 L440.75,581.924 C427.027,588.482 412.529,593.934 397.652,598.129 Z M380.062,596.338 C374.256,582.259 367.732,568.387 360.671,555.104 L364.039,553.314 C371.158,566.705 377.734,580.692 383.588,594.885 L380.062,596.338 Z M135.637,470.076 C136.367,467.548 137.271,465.018 138.323,462.553 C138.983,461.012 139.697,459.515 140.468,458.056 C145.671,448.193 153.446,439.91 163.576,433.439 L165.628,436.654 C156.063,442.764 148.733,450.563 143.841,459.836 C143.12,461.203 142.449,462.61 141.832,464.054 C140.841,466.374 139.99,468.757 139.303,471.135 L135.637,470.076 Z M321.792,608.6 L321.791,604.787 C336.901,604.782 352.129,603.527 367.051,601.053 L367.676,604.816 C352.547,607.324 337.111,608.598 321.792,608.6 Z M403.398,668.583 C399.857,653.8 395.602,639.064 390.747,624.788 L394.36,623.561 C399.252,637.947 403.54,652.796 407.107,667.693 L403.398,668.583 Z M155.308,542.479 C144.37,529.034 137.388,515.127 134.554,501.151 L138.293,500.395 C140.964,513.571 147.871,527.292 158.267,540.073 L155.308,542.479 Z M245.959,597.961 L247.021,594.297 C261.415,598.472 276.395,601.441 291.546,603.122 L291.124,606.914 C275.759,605.208 260.563,602.196 245.959,597.961 Z M202.975,581.075 C193.96,576.317 185.314,570.627 177.279,564.166 L179.669,561.194 C189.612,569.187 200.592,576.028 211.843,581.204 C214.051,582.22 216.27,583.204 218.505,584.154 L217.014,587.664 C214.745,586.7 212.488,585.7 210.248,584.669 C207.815,583.549 205.388,582.349 202.975,581.075 Z M415.449,743.559 C414.173,728.443 412.197,713.233 409.573,698.348 L413.331,697.686 C415.972,712.684 417.963,728.009 419.249,743.239 L415.449,743.559 Z M416.172,819.491 C417.161,804.405 417.474,789.068 417.102,773.911 L420.917,773.818 C421.289,789.09 420.975,804.541 419.979,819.74 L416.172,819.491 Z M405.469,894.658 C408.736,879.936 411.36,864.828 413.272,849.75 L417.054,850.23 C415.13,865.423 412.486,880.649 409.193,895.486 L405.469,894.658 Z M383.205,967.219 C388.768,953.232 393.73,938.727 397.956,924.104 L401.622,925.163 C397.361,939.904 392.357,954.527 386.75,968.626 L383.205,967.219 Z M352.606,1037.12 L349.351,1035.13 C354.083,1027.37 358.648,1019.34 362.917,1011.25 C365.726,1005.93 368.461,1000.49 371.047,995.062 L374.49,996.703 C371.881,1002.17 369.123,1007.67 366.291,1013.03 C361.985,1021.19 357.381,1029.29 352.606,1037.12 L352.606,1037.12 Z" id="Fill-5" fill="#66A0E5"></path>
            <path d="M1140.75,283.164 L924.497,298.521 L928.616,340.918 C928.476,343.145 930.728,344.825 932.985,344.177 L1140.75,283.164" id="Fill-6" fill="#95D1FA"></path>
            <polyline id="Fill-7" fill="#568AAD" points="1140.75 283.164 944.657 321.349 932.985 344.177 1140.75 283.164"></polyline>
            <path d="M1140.75,283.164 L1014.58,380.004 C1010.66,383.016 1002.14,384.746 998.784,381.166 L944.657,321.349 L1140.75,283.164" id="Fill-8" fill="#B2E5FA"></path>
            <path d="M1140.75,283.164 L897.323,247.842 C893.469,247.283 890.542,251.045 892.253,254.36 L924.497,298.521 L1140.75,283.164" id="Fill-9" fill="#B2E5FA"></path>
            <path d="M1922.3605,544.733 L1922.3605,544.388 C1922.35,542.728 1922.22,541.049 1921.95,539.36 C1919.37,523.076 1905.32,511.461 1889.34,511.461 C1887.62,511.461 1885.88,511.595 1884.14,511.872 C1867.91,514.438 1856.32,528.4 1856.23948,544.309 L1856.23948,544.658 C1856.15,528.605 1867.79,514.456 1884.14,511.872 C1885.88,511.595 1887.62,511.461 1889.34,511.461 C1905.32,511.461 1919.37,523.076 1921.95,539.36 C1922.23,541.166 1922.37,542.962 1922.3605,544.733" id="Fill-10" fill="#D3EBED"></path>
            <g id="Group-13" transform="translate(1856.240000, 511.461000)">
                <mask id="mask-2" fill="white">
                    <use xlink:href="#path-1"></use>
                </mask>
                <g id="Clip-12"></g>
                <path d="M33.02,66.122 C17.04,66.122 2.98,54.507 0.41,38.224 C0.14,36.534 0.01,34.856 -2.27373675e-13,33.197 L-2.27373675e-13,32.848 C0.08,16.939 11.67,2.977 27.9,0.411 C29.64,0.134 31.38,0 33.1,0 C49.08,0 63.13,11.615 65.71,27.899 C65.98,29.588 66.11,31.267 66.12,32.927 L66.12,33.272 C66.04,49.182 54.45,63.146 38.22,65.711 C36.47,65.988 34.73,66.122 33.02,66.122" id="Fill-11" fill="url(#radialGradient-3)" mask="url(#mask-2)"></path>
            </g>
            <path d="M2021.46,823.849 C2005.47,823.849 1991.4,812.223 1988.82,795.921 C1988.54,794.159 1988.41,792.406 1988.41,790.676 C1988.41,792.406 1988.54,794.158 1988.82,795.921 C1991.4,812.222 2005.47,823.848 2021.46,823.848 C2023.18,823.848 2024.92,823.714 2026.67,823.437 C2042.94,820.865 2054.55,806.845 2054.60016,790.887 L2054.60016,790.698 C2054.65,806.735 2043.01,820.856 2026.67,823.438 C2024.92,823.714 2023.18,823.849 2021.46,823.849 M2053.53,782.422 C2053.51,782.331 2053.48,782.241 2053.46,782.15 C2053.48,782.241 2053.51,782.331 2053.53,782.422" id="Fill-14" fill="#D3EBED"></path>
            <g id="Group-17" transform="translate(1988.410000, 757.658000)">
                <mask id="mask-5" fill="white">
                    <use xlink:href="#path-4"></use>
                </mask>
                <g id="Clip-16"></g>
                <path d="M33.05,66.19 C17.06,66.19 2.99,54.564 0.41,38.263 C0.13,36.5 -2.27373675e-13,34.748 -2.27373675e-13,33.018 C0.02,17.036 11.64,2.986 27.93,0.411 C29.68,0.135 31.42,0.001 33.13,0 C47.98,-0.001 61.17,10.017 65.05,24.492 C65.07,24.583 65.1,24.673 65.12,24.764 C65.3,25.46 65.46,26.167 65.6,26.883 C65.66,27.229 65.72,27.577 65.78,27.927 C66.05,29.645 66.18,31.353 66.19,33.04 L66.19,33.229 C66.14,49.187 54.53,63.207 38.26,65.779 C36.51,66.056 34.77,66.19 33.05,66.19" id="Fill-15" fill="url(#radialGradient-6)" mask="url(#mask-5)"></path>
            </g>
            <path d="M2010.92,451.906 C2010.9,451.906 2010.88,451.906 2010.86,451.906 L2010.99,451.906 C2010.96,451.906 2010.94,451.906 2010.92,451.906 M2046.65047,416.296 C2046.66,414.431 2046.51,412.541 2046.21,410.64 C2043.44,393.118 2028.36,380.605 2011.18,380.521 L2010.82,380.521 C2009.03,380.53 2007.21,380.675 2005.39,380.963 C1987.82,383.741 1975.29,398.894 1975.27,416.131 C1975.29,398.894 1987.82,383.741 2005.39,380.963 C2007.27,380.665 2009.15,380.52 2011,380.52 C2028.26,380.52 2043.43,393.059 2046.21,410.64 C2046.51,412.541 2046.66,414.431 2046.65047,416.296" id="Fill-18" fill="#D3EBED"></path>
            <g id="Group-21" transform="translate(1975.270000, 380.521000)">
                <mask id="mask-8" fill="white">
                    <use xlink:href="#path-7"></use>
                </mask>
                <g id="Clip-20"></g>
                <path d="M35.72,71.385 L35.59,71.385 C18.36,71.358 3.22,58.827 0.44,41.266 C0.14,39.365 0,37.475 0,35.61 C0.02,18.373 12.55,3.22 30.12,0.442 C31.94,0.154 33.76,0.009 35.55,2.27373675e-13 L35.91,2.27373675e-13 C53.09,0.084 68.17,12.597 70.94,30.119 C71.24,32.02 71.39,33.91 71.3804691,35.775 C71.36,53.011 58.83,68.164 41.27,70.942 C39.4,71.236 37.54,71.381 35.72,71.385" id="Fill-19" fill="url(#radialGradient-9)" mask="url(#mask-8)"></path>
            </g>
            <path d="M2294.82,735.643 C2280.36,735.643 2267.65,725.139 2265.33,710.41 C2267.65,725.119 2280.33,735.616 2294.76,735.643 L2294.89,735.643 C2294.86,735.643 2294.84,735.643 2294.82,735.643 M2265.33,710.41 C2262.75,694.1 2273.88,678.789 2290.19,676.21 C2291.77,675.96 2293.34,675.839 2294.89,675.839 C2294.91,675.839 2294.93,675.839 2294.95,675.839 L2294.82,675.839 C2293.29,675.842 2291.74,675.964 2290.19,676.21 C2273.88,678.789 2262.75,694.1 2265.33,710.41 M2324.76,705.965 L2324.76,705.586 C2324.76,705.713 2324.76,705.839 2324.76,705.965" id="Fill-22" fill="#E6F4F5"></path>
            <g id="Group-25" transform="translate(2264.958427, 675.839000)">
                <mask id="mask-11" fill="white">
                    <use xlink:href="#path-10"></use>
                </mask>
                <g id="Clip-24"></g>
                <polygon id="Fill-23" fill="url(#radialGradient-12)" mask="url(#mask-11)" points="-0.00842705364 59.804 59.8015729 59.804 59.8015729 0 -0.00842705364 0"></polygon>
            </g>
            <path d="M2445.48,750.532 C2445.43,750.532 2445.38,750.531 2445.34,750.531 L2445.62,750.531 C2445.57,750.531 2445.52,750.532 2445.48,750.532" id="Fill-26" fill="#E6F4F5"></path>
            <g id="Group-29" transform="translate(2408.890000, 677.270000)">
                <mask id="mask-14" fill="white">
                    <use xlink:href="#path-13"></use>
                </mask>
                <g id="Clip-28"></g>
                <path d="M36.73,73.261 L36.45,73.261 C18.8,73.195 3.3,60.345 0.45,42.349 C0.15,40.398 0,38.459 0,36.544 C0.02,18.855 12.88,3.306 30.91,0.455 C32.85,0.149 34.77,0 36.68,0 C54.38,0 69.95,12.868 72.81,30.911 C73.11,32.862 73.26,34.801 73.26,36.716 C73.24,54.405 60.38,69.956 42.35,72.807 C40.46,73.105 38.58,73.254 36.73,73.261" id="Fill-27" fill="url(#radialGradient-15)" mask="url(#mask-14)"></path>
            </g>
            <path d="M2168.85,859.885 C2168.78,859.885 2168.72,859.885 2168.66,859.884 L2169.04,859.884 C2168.98,859.885 2168.91,859.885 2168.85,859.885 M2199.07058,829.894 L2199.07058,829.564 C2199.07058,828.052 2198.94,826.521 2198.7,824.981 C2196.35,810.112 2183.52,799.506 2168.92,799.506 C2167.36,799.506 2165.77,799.628 2164.17,799.881 C2149.33,802.228 2138.73,815.025 2138.69989,829.588 L2138.69989,829.734 C2138.66,815.11 2149.28,802.235 2164.17,799.881 C2165.77,799.628 2167.36,799.506 2168.92,799.506 C2183.52,799.506 2196.35,810.112 2198.7,824.981 C2198.96,826.632 2199.08,828.275 2199.07058,829.894" id="Fill-30" fill="#E6F4F5"></path>
            <g id="Group-33" transform="translate(2138.700000, 799.506000)">
                <mask id="mask-17" fill="white">
                    <use xlink:href="#path-16"></use>
                </mask>
                <g id="Clip-32"></g>
                <path d="M30.34,60.378 L29.96,60.378 C15.44,60.285 2.71,49.707 0.37,34.903 C0.12,33.332 0,31.77 0,30.228 L0,30.082 C0.03,15.519 10.63,2.722 25.47,0.375 C27.07,0.122 28.66,0 30.22,0 C44.82,0 57.65,10.606 60,25.475 C60.24,27.015 60.37,28.546 60.37,30.058 L60.37,30.388 C60.3,44.913 49.72,57.661 34.9,60.004 C33.37,60.246 31.85,60.368 30.34,60.378" id="Fill-31" fill="url(#radialGradient-18)" mask="url(#mask-17)"></path>
            </g>
            <path d="M2231.02,473.632 C2216.43,473.632 2203.59,463.026 2201.24,448.155 C2203.59,463.026 2216.43,473.631 2231.02,473.631 C2232.59,473.631 2234.18,473.508 2235.77,473.256 C2250.63,470.906 2261.23,458.09 2261.25,443.511 C2261.23,458.09 2250.63,470.907 2235.77,473.257 C2234.18,473.509 2232.59,473.632 2231.02,473.632 M2201.17,447.673 C2200.96,446.216 2200.87,444.766 2200.87,443.335 L2200.87,443.48 C2200.87,444.865 2200.97,446.265 2201.17,447.673 M2226.34,413.627 L2226.34,413.627 C2227.17,413.496 2228,413.4 2228.82,413.338 C2228,413.4 2227.17,413.496 2226.34,413.627" id="Fill-34" fill="#E6F4F5"></path>
            <g id="Group-37" transform="translate(2200.870000, 413.253000)">
                <mask id="mask-20" fill="white">
                    <use xlink:href="#path-19"></use>
                </mask>
                <g id="Clip-36"></g>
                <path d="M30.15,60.378 C15.56,60.378 2.72,49.773 0.37,34.902 C0.35,34.742 0.32,34.581 0.3,34.42 C0.1,33.012 0,31.612 0,30.227 L0,30.082 C0.03,15.518 10.63,2.722 25.47,0.374 C26.3,0.243 27.13,0.147 27.95,0.085 C28.71,0.028 29.47,-2.27373675e-13 30.22,-2.27373675e-13 C44.82,-2.27373675e-13 57.65,10.604 60,25.475 C60.26,27.083 60.38,28.681 60.38,30.258 C60.36,44.837 49.76,57.653 34.9,60.003 C33.31,60.255 31.72,60.378 30.15,60.378" id="Fill-35" fill="url(#radialGradient-21)" mask="url(#mask-20)"></path>
            </g>
            <polyline id="Fill-38" fill="#ECE8E6" points="2361.64 533.392 2361.61 533.384 2361.64 533.392"></polyline>
            <path d="M2408.83,379.278 C2406.31,375.34 2403.64,371.84 2400.87,368.752 C2361.18,324.164 2300.32,363.464 2291.27,369.74 C2290.5,370.256 2290.09,370.559 2290.09,370.559 C2286.08,309.537 2317.72,269.826 2337.6,251.136 C2350.22,239.269 2367.36,233.323 2385.28,235.603 C2440.64,242.64 2452.14,318.253 2452.14,318.253 C2408.45,357.285 2408.83,379.278 2408.83,379.278" id="Fill-39" fill="#195D8C"></path>
            <path d="M2589.1,555.453 C2583.6,572.636 2570.96,585.677 2554.86,592.083 C2530.42,601.842 2483.57,613.293 2432.11,587.597 C2430.28,586.701 2428.43,585.732 2426.55,584.725 C2426.55,584.725 2503.36,542.925 2473.48,481.753 C2472.14,478.991 2470.61,476.212 2468.81,473.402 C2468.81,473.402 2488.58,483.026 2542.43,459.924 C2542.43,459.924 2606.09,502.266 2589.1,555.453" id="Fill-40" fill="#195D8C"></path>
            <path d="M2692.01,227.215 C2495.2,163.636 2380.26,375.034 2380.26,375.034 C2384.07,383.92 2387.88,392.806 2391.69,401.692 C2404.19,430.827 2417.51,460.36 2438.49,484.127 L2461.31,506.944 C2461.31,506.944 2703.66,490.77 2729.17,285.525 C2732.38,259.738 2716.74,235.203 2692.01,227.215" id="Fill-41" fill="#66A0E5"></path>
            <path d="M2622.6,391.719 C2561.38,430.543 2484.18,423.018 2459.06,419.199 C2454.55,418.515 2451.68,413.984 2452.98,409.617 C2460.24,385.265 2486.34,312.222 2547.56,273.397 C2608.71,234.611 2685.83,242.084 2711.02,245.906 C2715.59,246.598 2718.47,251.144 2717.15,255.57 C2709.87,279.991 2683.76,352.931 2622.6,391.719" id="Fill-42" fill="#DBEEEA"></path>
            <path d="M2636.43,380.658 C2604.77,400.833 2562.75,391.522 2542.58,359.863 C2522.4,328.201 2531.71,286.181 2563.37,266.007 C2595.03,245.831 2637.05,255.143 2657.23,286.803 C2677.4,318.463 2668.09,360.484 2636.43,380.658" id="Fill-43" fill="#FD655A"></path>
            <path d="M2627.17,366.131 C2603.54,381.193 2572.16,374.241 2557.1,350.604 C2542.04,326.967 2548.99,295.596 2572.63,280.534 C2596.27,265.473 2627.64,272.424 2642.7,296.06 C2657.76,319.697 2650.81,351.069 2627.17,366.131" id="Fill-44" fill="#F3E1A4"></path>
            <path d="M2599.97,374.088 C2609.04,374.084 2618.21,371.652 2626.48,366.566 C2618.21,371.652 2609.04,374.085 2599.97,374.088 M2626.48,366.562 C2626.72,366.42 2626.94,366.277 2627.17,366.131 C2626.94,366.277 2626.72,366.42 2626.48,366.562 M2557.17,350.7 C2557.14,350.669 2557.12,350.636 2557.1,350.604 C2557.08,350.563 2557.05,350.521 2557.02,350.48 C2557.05,350.522 2557.08,350.562 2557.1,350.604 C2557.12,350.636 2557.14,350.669 2557.17,350.7 M2557,350.448 C2556.98,350.412 2556.96,350.375 2556.94,350.339 C2556.96,350.375 2556.98,350.412 2557,350.448 M2556.93,350.323 C2556.9,350.281 2556.87,350.238 2556.85,350.197 C2556.87,350.239 2556.9,350.281 2556.93,350.323 M2556.83,350.172 C2556.81,350.135 2556.79,350.099 2556.76,350.063 C2556.79,350.099 2556.81,350.135 2556.83,350.172 M2556.75,350.041 C2556.72,349.997 2556.7,349.956 2556.67,349.913 C2556.7,349.955 2556.72,349.999 2556.75,350.041 M2556.66,349.899 C2556.64,349.861 2556.62,349.823 2556.59,349.784 C2556.62,349.823 2556.64,349.86 2556.66,349.899 M2556.58,349.759 C2556.52,349.674 2556.47,349.59 2556.42,349.506 C2556.47,349.59 2556.52,349.674 2556.58,349.759 M2556.4,349.471 C2556.38,349.438 2556.36,349.404 2556.34,349.371 C2556.36,349.404 2556.38,349.438 2556.4,349.471 M2556.33,349.344 C2556.3,349.305 2556.28,349.264 2556.26,349.225 C2556.28,349.265 2556.3,349.304 2556.33,349.344 M2556.15,349.052 C2556.13,349.016 2556.11,348.979 2556.09,348.943 C2556.11,348.979 2556.13,349.015 2556.15,349.052" id="Fill-45" fill="#FD7344"></path>
            <path d="M2599.95,374.088 C2599.94,374.088 2599.93,374.088 2599.92,374.088 C2583.38,374.079 2567.19,365.991 2557.48,351.181 C2557.46,351.16 2557.45,351.136 2557.43,351.114 C2557.34,350.976 2557.25,350.84 2557.17,350.7 C2557.14,350.669 2557.12,350.636 2557.1,350.604 C2557.08,350.562 2557.05,350.522 2557.02,350.48 C2557.02,350.47 2557.01,350.458 2557,350.448 C2556.98,350.412 2556.96,350.375 2556.94,350.339 C2556.93,350.333 2556.93,350.329 2556.93,350.323 C2556.9,350.281 2556.87,350.239 2556.85,350.197 C2556.84,350.189 2556.84,350.18 2556.83,350.172 C2556.81,350.135 2556.79,350.099 2556.76,350.063 C2556.76,350.056 2556.75,350.048 2556.75,350.041 C2556.72,349.999 2556.7,349.955 2556.67,349.913 C2556.67,349.909 2556.67,349.903 2556.66,349.899 C2556.64,349.86 2556.62,349.823 2556.59,349.784 C2556.59,349.776 2556.58,349.767 2556.58,349.759 C2556.52,349.674 2556.47,349.59 2556.42,349.506 C2556.42,349.495 2556.41,349.483 2556.4,349.471 C2556.38,349.438 2556.36,349.404 2556.34,349.371 C2556.34,349.361 2556.33,349.353 2556.33,349.344 C2556.3,349.304 2556.28,349.265 2556.26,349.225 C2556.25,349.21 2556.24,349.197 2556.23,349.181 C2556.21,349.155 2556.2,349.129 2556.18,349.103 C2556.17,349.085 2556.16,349.069 2556.15,349.052 C2556.13,349.015 2556.11,348.979 2556.09,348.943 C2556.08,348.923 2556.07,348.906 2556.06,348.886 C2556.04,348.866 2556.03,348.846 2556.02,348.826 C2556.01,348.803 2555.99,348.78 2555.98,348.757 C2555.97,348.744 2555.96,348.731 2555.96,348.717 C2555.93,348.666 2555.9,348.615 2555.87,348.563 C2555.86,348.557 2555.86,348.553 2555.86,348.547 C2555.84,348.516 2555.82,348.485 2555.81,348.454 C2555.8,348.451 2555.8,348.45 2555.8,348.447 C2546.6,332.322 2547.23,313.068 2556.03,297.876 C2554.28,309.556 2556.54,321.888 2563.38,332.631 C2573.06,347.816 2589.46,356.114 2606.23,356.114 C2615.56,356.114 2625,353.543 2633.45,348.158 C2640.55,343.635 2646.11,337.626 2650.05,330.815 C2647.99,344.561 2640.37,357.4 2627.93,365.641 C2627.93,365.642 2627.92,365.645 2627.92,365.646 C2627.88,365.675 2627.83,365.705 2627.79,365.733 C2627.78,365.738 2627.77,365.743 2627.76,365.748 C2627.72,365.774 2627.68,365.802 2627.64,365.828 C2627.63,365.834 2627.62,365.839 2627.62,365.845 C2627.58,365.871 2627.54,365.896 2627.5,365.922 C2627.49,365.929 2627.48,365.935 2627.47,365.941 C2627.43,365.968 2627.39,365.994 2627.34,366.02 C2627.34,366.026 2627.33,366.031 2627.32,366.036 C2627.27,366.068 2627.22,366.099 2627.17,366.131 C2626.94,366.277 2626.72,366.42 2626.48,366.562 C2626.48,366.562 2626.48,366.565 2626.48,366.566 C2618.21,371.652 2609.04,374.084 2599.97,374.088 C2599.96,374.088 2599.96,374.088 2599.95,374.088" id="Fill-46" fill="#F6D17D"></path>
            <path d="M2243.93,620.823 C2237.2,621.888 2230.88,617.293 2229.81,610.559 C2228.75,603.824 2233.34,597.503 2240.08,596.438 C2246.81,595.374 2253.13,599.969 2254.2,606.703 C2255.26,613.437 2250.66,619.759 2243.93,620.823" id="Fill-47" fill="#F3E1A4"></path>
            <path d="M2341.22,622.486 C2334.01,623.626 2327.23,618.704 2326.09,611.489 C2324.95,604.275 2329.88,597.503 2337.09,596.362 C2344.3,595.221 2351.08,600.145 2352.22,607.359 C2353.36,614.573 2348.43,621.346 2341.22,622.486" id="Fill-49" fill="#F3E1A4"></path>
            <path d="M2150.85,592.919 C2141.83,594.345 2133.36,588.189 2131.94,579.169 C2130.51,570.148 2136.67,561.679 2145.69,560.252 C2154.71,558.827 2163.17,564.982 2164.6,574.003 C2166.03,583.024 2159.87,591.492 2150.85,592.919" id="Fill-50" fill="#F3E1A4"></path>
            <path d="M2333.33,461.31 C2294.43,384.142 2281.08,455.478 2247.97,461.342 C2207.6,468.492 2162.36,412.026 2164.89,502.946 C2048.65,453.582 2019.87,670.037 2130.48,652.261 C2108.91,742.041 2275.81,758.512 2280.5,646.309 C2358.18,696.996 2336.88,647.198 2357.09,595.18 C2369.27,563.835 2395.56,584.113 2389.48,536 C2387.29,518.712 2360.95,488.692 2333.33,461.31" id="Fill-64" fill="#E3F5FD"></path>
            <path d="M2379.71,403.305 L2300.69,414.619 C2305.15,433.866 2314.06,462.035 2333,491.905 C2355.28,527.048 2381.67,549.152 2398.9,561.444 C2415.11,540.28 2431.31,519.116 2447.52,497.953 L2379.71,403.305" id="Fill-66" fill="#195D8C"></path>
            <path d="M2463.5,505.657 C2463.5,505.657 2437.45,480.477 2416.62,443.694 C2392.08,409.283 2380.26,375.034 2380.26,375.034 C2358.29,384.838 2367.71,411.305 2367.71,411.305 C2371.75,434.908 2390.36,460.427 2390.36,460.427 C2390.36,460.427 2405.63,488.076 2425.32,501.707 C2425.32,501.707 2445.33,521.424 2463.5,505.657" id="Fill-67" fill="#FD655A"></path>
            <polyline id="Fill-68" fill="#6DD394" points="132.391 1350.22 99.752 1286.69 996.978 825.781 1145.98 1046.31 1677.48 780.557 1709.42 844.443 1121.88 1138.22 973.261 918.265 132.391 1350.22"></polyline>
            <polyline id="Fill-69" fill="#6DD394" points="1756.77 955.248 1625.98 687.542 1798.96 685.934 1971.94 684.327 1756.77 955.248"></polyline>
            <path d="M358.24,1261.11 C358.24,1261.11 357.003,1263.74 359.433,1268.87 C359.433,1268.87 349.46,1290.62 335.588,1264.42 C335.588,1264.42 342.311,1258.95 340.691,1249.5 C340.691,1249.5 346.09,1260.57 358.24,1261.11" id="Fill-71" fill="#F5A18D"></path>
            <path d="M375.498,1224.41 C374.598,1233.09 373.365,1242.86 369.958,1250.97 C365.375,1261.88 352.897,1265.61 343.817,1257.36 C339.912,1253.81 337.348,1249.03 335.297,1244.17 C331.377,1234.88 326.799,1226.01 331.914,1216.13 C333.148,1213.74 334.872,1211.63 336.802,1209.77 C344.066,1202.73 360.961,1196.03 370.333,1202.24 C375.18,1205.45 376.374,1210.34 376.128,1215.85 C376.001,1218.71 375.792,1221.56 375.498,1224.41" id="Fill-72" fill="#F2CCCB"></path>
            <path d="M371.709,1211.54 C369.632,1211.41 368.408,1213.72 366.944,1215.2 C364.607,1217.56 360.548,1217.96 357.792,1216.1 C356.597,1215.3 355.642,1214.13 354.333,1213.53 C351.638,1212.29 348.023,1214.39 347.753,1217.34 C347.686,1218.07 347.791,1218.8 347.748,1219.53 C347.601,1222.02 345.52,1224.25 343.052,1224.57 C340.837,1224.85 338.705,1223.77 336.517,1223.32 C334.329,1222.88 331.502,1223.48 330.896,1225.63 C330.133,1228.33 333.33,1230.27 334.965,1232.54 C336.484,1234.65 336.623,1237.75 335.053,1239.82 C334.5,1240.55 333.631,1241.17 332.732,1241 C332.031,1240.87 331.509,1240.3 331.043,1239.76 C328.507,1236.82 325.972,1233.88 323.437,1230.94 C322.989,1230.42 322.531,1229.88 322.322,1229.23 C321.643,1227.12 323.73,1225.25 324.661,1223.23 C326.397,1219.48 323.994,1215.22 321.705,1211.77 C319.415,1208.33 317.075,1204 318.919,1200.3 C321.056,1196.01 327.209,1195.75 330.645,1192.41 C331.912,1191.18 332.752,1189.57 333.933,1188.26 C335.666,1186.33 338.139,1185.08 340.721,1184.82 C343.784,1184.53 346.792,1185.58 349.792,1186.26 C352.792,1186.95 356.157,1187.22 358.746,1185.55 C359.819,1184.86 360.685,1183.88 361.781,1183.22 C364.896,1181.36 369.531,1183.09 370.678,1186.53 C370.932,1187.29 371.041,1188.11 371.474,1188.78 C371.794,1189.28 372.271,1189.66 372.777,1189.97 C374.81,1191.22 377.286,1191.43 379.612,1191.95 C388.536,1193.97 385.102,1203.28 384.464,1210.08 C384.21,1212.8 383.234,1214.75 380.352,1215.55 C375.731,1216.84 375.437,1211.77 371.709,1211.54" id="Fill-73" fill="#0A538A"></path>
            <path d="M395.968,1595.68 L409.45,1607.79 C409.45,1607.79 425.173,1609.28 432.972,1616.17 C434.197,1617.25 433.425,1619.28 431.791,1619.27004 L386.549,1618.97 C384.991,1618.96 383.699,1617.76 383.571,1616.21 L381.949,1596.62 L395.968,1595.68" id="Fill-74" fill="#134669"></path>
            <path d="M293.646,1600.42 L299.886,1610.31 C299.886,1610.31 315.276,1613.29 322.411,1620.84 C323.562,1622.05 322.565,1624.05 320.899,1623.88 L276.828,1619.32 C274.872,1619.11 273.455,1617.36 273.672,1615.4 L275.823,1596.11 L293.646,1600.42" id="Fill-75" fill="#134669"></path>
            <path d="M379.299,1389.34 L401.954,1596.25 L379.107,1597.34 L325.301,1396.36 C325.301,1396.36 347.44,1406.62 379.299,1389.34" id="Fill-76" fill="#195D8C"></path>
            <path d="M352.84,1398.79 L296.952,1601.29 L273.473,1598.85 L301.002,1387.72 C301.002,1387.72 312.342,1400.41 352.84,1398.79" id="Fill-77" fill="#195D8C"></path>
            <path d="M336.101,1264.34 C336.101,1264.34 325.301,1265.15 315.852,1270.82 C315.852,1270.82 292.886,1336.77 296.15,1418.91 C296.15,1418.91 337.829,1439.69 383.187,1417.55 L377.949,1326.17 C377.949,1326.17 377.74,1276.77 375.48,1275.3 C369.315,1271.31 362.062,1270.23 359.251,1268.77 C359.251,1268.77 349.331,1289.99 336.101,1264.34" id="Fill-78" fill="#FF5555"></path>
            <path d="M425.176,1306.88 L428.452,1297.66 L443.478,1284.91 C441.368,1272.97 435.593,1270.46 435.318,1270.77 C427.754,1279.24 422.625,1275.94 422.625,1275.94 C422.625,1275.94 420.176,1264.12 416.763,1261.93 C416.199,1261.56 415.461,1262.05 415.493,1262.72 L418.495,1284.39 C418.707,1285.93 418.574,1287.49 418.106,1288.97 L413.015,1302.68 L425.176,1306.88" id="Fill-79" fill="#F5A18D"></path>
            <path d="M374.03,1274.94 C375.48,1275.75 384.91,1277.84 388.354,1290.03 C394.118,1310.41 398.69,1326.44 400.503,1338.77 C400.511,1338.54 406.556,1310.13 413.99,1299.99 L425.685,1305.83 C428.191,1313.01 425.527,1363.54 409.622,1374.11 C404.544,1377.36 398.013,1378.93 391.485,1373.2 C381.646,1364.55 378.019,1340.83 378.019,1340.83 C378.019,1340.83 363.23,1290.64 374.03,1274.94" id="Fill-80" fill="#FF5555"></path>
            <path d="M317.852,1418.23 L323.704,1431.18 C324.246,1432.38 324.575,1433.64 324.678,1434.93 C324.977,1438.72 325.436,1446.96 324.233,1451.5 C324.233,1451.5 316.522,1469.58 308.545,1439.2 L307.482,1420.16 L317.852,1418.23" id="Fill-81" fill="#F5A18D"></path>
            <path d="M317.093,1315.56 C316.124,1319.92 308.945,1353.03 309.683,1357.44 L319.901,1418.51 L304.512,1421.75 L290.472,1367.21 C285.511,1349.19 287.588,1326.81 292.902,1308.89 C298.882,1288.73 304.374,1279.19 308.424,1274.7 C311.508,1271.28 330.148,1256.81 317.093,1315.56" id="Fill-82" fill="#FD847B"></path>
            <path d="M407.011,1225.18 L397.809,1227.67 C397.809,1227.67 392.657,1239.59 400.963,1249.64 L409.86,1249.26 C409.86,1249.26 403.851,1237.56 407.011,1225.18" id="Fill-83" fill="#195D8C"></path>
            <polyline id="Fill-84" fill="#A8A9C3" points="502.771 1258.81 512.087 1257.34 501.473 1190.23 492.156 1191.7 502.771 1258.81"></polyline>
            <polyline id="Fill-85" fill="#477DA3" points="492.156 1191.7 443.881 1211.57 449.579 1249.92 502.771 1258.81 492.156 1191.7"></polyline>
            <path d="M503.23,1201.34 L510.134,1244.99 C516.57,1237.28 518.712,1226.32 515.575,1216.69 C512.385,1206.9 505.001,1202.37 503.23,1201.34" id="Fill-86" fill="#195D8C"></path>
            <path d="M449.96,1205.54 C449.96,1205.54 463.603,1229.57 455.573,1253.63 L411.971,1259.05 C411.971,1259.05 400.965,1242.05 405.847,1212.24 L449.96,1205.54" id="Fill-87" fill="#195D8C"></path>
            <path d="M411.202,1211.38 C411.202,1211.38 406.282,1236.18 417.458,1258.3 L411.971,1259.05 C411.971,1259.05 399.689,1240.05 405.847,1212.24 L411.202,1211.38" id="Fill-88" fill="#A8A9C3"></path>
            <path d="M432.849,1256.18 C432.849,1256.18 434.604,1275.61 444.074,1285.14 C445.07,1286.14 446.509,1287.51 447.239,1288.72 C448.612,1291 449.6,1294.41 445.948,1297.22 C445.948,1297.22 438.78,1303.72 427.785,1287.34 C427.785,1287.34 419.948,1277.03 418.545,1258.17 L432.849,1256.18" id="Fill-89" fill="#195D8C"></path>
            <path d="M432.912,1260.58 L435.14,1260.02 C435.794,1259.85 436.486,1260.11 436.919,1260.71 C437.769,1261.87 438.944,1264.1 438.643,1267.27 C438.575,1267.99 438.148,1268.59 437.556,1268.82 L435.521,1269.62 C435.521,1269.62 432.691,1267.01 432.912,1260.58" id="Fill-90" fill="#6863FF"></path>
            <path d="M443.568,1284.82 C442.681,1285.25 439.473,1285.85 437.222,1285.37 C433.239,1284.52 429.868,1278.59 431.012,1274.71 C431.572,1272.82 433.087,1271.62 434.244,1270.96 C435.069,1270.48 436.058,1270.39 436.954,1270.72 C438.471,1271.27 440.815,1272.47 442.48,1275.03 C445.381,1279.48 443.769,1284.26 443.568,1284.82" id="Fill-91" fill="#F5A18D"></path>
            <path d="M786.261,1352.35 L754.599,1362.03 C751.174,1362.17 747.184,1362.86 743.038,1364.13 C732.159,1367.46 724.356,1373.47 725.606,1377.56 C726.858,1381.65 736.689,1382.27 747.567,1378.95 C752.49,1377.44 756.771,1375.39 759.879,1373.21 L789.838,1364.05 L786.261,1352.35" id="Fill-92" fill="#F6D4D0"></path>
            <path d="M767.669,1353.4 L774.219,1372.34 L834.625,1354.4 C847.088,1350.57 854.927,1338.25 853.128,1325.34 L843.78,1258.24 C843.78,1258.24 820.094,1260.51 828.118,1320.93 C828.847,1326.42 823.227,1331.8 818.177,1334.06 L767.669,1353.4" id="Fill-93" fill="#BF6E07"></path>
            <path d="M843.78,1258.24 L835.466,1382.19 C835.466,1382.19 892.802,1390.37 920.962,1380.81 L909.155,1260.51 L891.772,1252.95 L876.703,1283.18 L861.918,1252.95 L843.78,1258.24" id="Fill-94" fill="#FE9309"></path>
            <polyline id="Fill-95" fill="#CCF4F4" points="861.918 1252.95 876.703 1283.18 891.772 1252.95 877.034 1248.4 861.918 1252.95"></polyline>
            <polyline id="Fill-96" fill="#8DCFFF" points="861.918 1252.95 866.076 1244.26 877.034 1248.4 867.478 1264.32 861.918 1252.95"></polyline>
            <polyline id="Fill-97" fill="#8DCFFF" points="877.034 1248.4 884.97 1244.26 891.772 1252.95 886.105 1264.32 877.034 1248.4"></polyline>
            <path d="M866.076,1244.26 L866.076,1238.57 C866.076,1238.57 858.895,1243.84 848.314,1238.57 C848.314,1238.57 835.466,1232.16 840.378,1201.18 C840.378,1201.18 850.182,1182.46 869.104,1188.14 C883.713,1192.53 891.953,1207.86 888.688,1222.76 C887.862,1226.53 886.517,1230.5 884.403,1234.43 C884.403,1234.43 882.706,1241.36 884.97,1244.26 L877.034,1248.4 L866.076,1244.26" id="Fill-98" fill="#E1B6AF"></path>
            <path d="M848.355,1203.69 C852.353,1204.07 856.556,1204.89 859.519,1207.6 C862.482,1210.31 863.529,1215.45 860.727,1218.33 C862.584,1218.29 864.441,1218.26 866.299,1218.23 C864.674,1216.64 866.245,1213.49 868.502,1213.23 C870.76,1212.98 872.816,1214.83 873.619,1216.95 C874.421,1219.08 874.279,1221.43 874.211,1223.69 C874.144,1225.97 874.189,1228.35 875.302,1230.33 C877.34,1233.96 883.052,1234.75 885.992,1231.8 C889.804,1224.97 893.079,1217.68 894.002,1209.92 C894.925,1202.15 893.244,1193.81 888.11,1187.91 C883.792,1182.96 877.434,1180.14 870.976,1178.91 C864.518,1177.68 857.883,1177.9 851.313,1178.13 C842.634,1178.42 829.685,1180.01 828.509,1191.1 C827.415,1201.41 841.183,1203.02 848.355,1203.69" id="Fill-99" fill="#024981"></path>
            <polyline id="Fill-100" fill="#97B8D1" points="835.466 1382.19 835.466 1391.64 920.962 1389.75 920.962 1380.81 835.466 1382.19"></polyline>
            <polygon id="Fill-101" fill="#164059" points="844.545 1391.33 849.097 1391.33 849.097 1382.04 844.545 1382.04"></polygon>
            <polygon id="Fill-102" fill="#164059" points="902.515 1390.06 906.912 1390.06 906.912 1381.1 902.515 1381.1"></polygon>
            <polyline id="Fill-103" fill="#307678" points="835.466 1391.64 857.006 1610.44 872.499 1610.44 881.009 1432.45 910.636 1613.84 925.782 1613.46 920.962 1389.75 835.466 1391.64"></polyline>
            <path d="M896.295,1385.02 L874.025,1409.52 C871.156,1411.4 868.079,1414.03 865.163,1417.24 C857.511,1425.65 853.875,1434.81 857.041,1437.69 C860.208,1440.57 868.977,1436.08 876.627,1427.66 C880.089,1423.85 882.719,1419.9 884.278,1416.43 L905.35,1393.25 L896.295,1385.02" id="Fill-104" fill="#E1B6AF"></path>
            <path d="M909.155,1260.51 C909.155,1260.51 932.207,1266.18 935.608,1293.76 L935.608,1361.03 C935.608,1361.03 935.679,1361.88 935.696,1363.37 C935.847,1376.14 919.083,1390.01 910.711,1399.65 L891.089,1416.95 L872.975,1404.08 L911.8,1357.25 L909.155,1260.51" id="Fill-105" fill="#FEBE6B"></path>
            <path d="M850.121,1603.02 C836.242,1603.02 824.991,1609.95 824.991,1618.51 L875.25,1618.51 C875.25,1609.95 864,1603.02 850.121,1603.02" id="Fill-106" fill="#134669"></path>
            <path d="M905.754,1606.66 C891.875,1606.66 880.625,1613.59 880.625,1622.15 L930.884,1622.15 C930.884,1613.59 919.633,1606.66 905.754,1606.66" id="Fill-107" fill="#134669"></path>
            <path d="M818.138,1335.68 C817.918,1339.12 809.551,1341.38 799.449,1340.73 C789.348,1340.09 781.337,1336.78 781.557,1333.34 C781.776,1329.9 790.144,1327.64 800.245,1328.29 C810.347,1328.94 818.357,1332.24 818.138,1335.68" id="Fill-108" fill="#E1B6AF"></path>
            <path d="M692.143,1259.34 L726.876,1307.75 C731.662,1314.23 738.771,1318.59 746.708,1319.93 L788.28,1326.96 L787.449,1339.97 L740.132,1343.69 C733.96,1344.17 727.905,1341.81 723.693,1337.27 L700.914,1315.29 C700.914,1315.29 695.923,1266.66 692.143,1259.34" id="Fill-109" fill="#0F8FA9"></path>
            <path d="M744.709,1372.34 C744.709,1375.95 736.098,1378.88 725.475,1378.88 C714.852,1378.88 706.241,1375.95 706.241,1372.34 C706.241,1368.72 714.852,1365.79 725.475,1365.79 C736.098,1365.79 744.709,1368.72 744.709,1372.34" id="Fill-110" fill="#F0B7B0"></path>
            <path d="M610.243,1375.95 L693,1375.95 L692.143,1259.34 C689.244,1256.13 683.067,1249.42 675.618,1245.77 L663.903,1241.61 C663.903,1241.61 645.007,1241.99 642.363,1241.99 C643.594,1241.61 632.654,1247.61 628.003,1249.17 C620.584,1251.65 623.457,1250.51 616.668,1255.25 L610.243,1375.95" id="Fill-111" fill="#9BDBF6"></path>
            <path d="M682.871,1209.26 C682.871,1225.03 671.508,1237.81 657.491,1237.81 C643.475,1237.81 632.112,1225.03 632.112,1209.26 C632.112,1193.49 643.475,1180.71 657.491,1180.71 C671.508,1180.71 682.871,1193.49 682.871,1209.26" id="Fill-112" fill="#E1B6AF"></path>
            <path d="M642.398,1232.21 C642.398,1232.21 646.06,1239.74 640.479,1244.04 L652.566,1249.17 L664.952,1243.61 C664.952,1243.61 662.358,1239.31 662.366,1236.31 C662.366,1236.31 651.621,1239.44 642.398,1232.21" id="Fill-113" fill="#E1B6AF"></path>
            <path d="M694.606,1171.9 C694.606,1171.9 676.687,1176.12 663.416,1173.11 C656.799,1171.61 649.878,1171.6 643.413,1173.66 C634.213,1176.59 622.908,1183.85 622.681,1201.53 C622.438,1203.36 622.307,1217.4 632.278,1226.95 C636.456,1230.96 641.104,1232.67 644.009,1233.44 C643.011,1230.85 642.366,1225.65 642.205,1218.99 C642.071,1213.46 642.76,1207.81 645.59,1205 C647.206,1203.39 649.904,1203.5 651.455,1205.17 C652.605,1206.41 653.613,1208.15 652.959,1210.12 L656.823,1210.12 C656.823,1210.12 654.676,1199.25 665.41,1199.96 C665.41,1199.96 701.475,1198.52 694.606,1171.9" id="Fill-114" fill="#0A3C5F"></path>
            <polyline id="Fill-115" fill="#ECECEC" points="652.566 1249.17 661.628 1260.88 675.618 1245.77 663.903 1241.61 652.566 1249.17"></polyline>
            <polyline id="Fill-116" fill="#ECECEC" points="642.363 1241.99 628.003 1249.17 643.875 1260.88 652.566 1249.17 642.363 1241.99"></polyline>
            <path d="M645.953,1607.22 C632.074,1607.22 620.823,1614.16 620.823,1622.72 L671.083,1622.72 C671.083,1614.16 659.832,1607.22 645.953,1607.22" id="Fill-117" fill="#0F8FA9"></path>
            <path d="M686.755,1601.69 C672.876,1601.69 661.625,1608.63 661.625,1617.19 L711.885,1617.19 C711.885,1608.63 700.634,1601.69 686.755,1601.69" id="Fill-118" fill="#0F8FA9"></path>
            <polygon id="Fill-119" fill="#014C81" points="610.243 1386.69 693 1386.69 693 1375.95 610.243 1375.95"></polygon>
            <polygon id="Fill-120" fill="#C07700" points="624.98 1386.69 628.003 1386.69 628.003 1375.95 624.98 1375.95"></polygon>
            <polygon id="Fill-121" fill="#C07700" points="675.24 1386.69 678.263 1386.69 678.263 1375.95 675.24 1375.95"></polygon>
            <polyline id="Fill-122" fill="#195D8C" points="610.243 1386.35 629.515 1610.81 648.788 1610.81 655.724 1425.79 671.461 1604.77 691.111 1604.77 693 1386.69 610.243 1386.35"></polyline>
            <path d="M627.625,1249.17 L638.962,1396.78 C638.962,1396.78 630.648,1423 601.173,1411.29 L603.818,1293.01 C603.818,1293.01 604.196,1254.08 627.625,1249.17" id="Fill-123" fill="#0F8FA9"></path>
            <path d="M675.618,1245.77 L673.35,1389.16 C673.35,1389.16 672.595,1410.76 689.978,1414.3 L704.715,1414.3 L700.181,1285.05 C700.181,1285.05 701.771,1258.31 675.618,1245.77" id="Fill-124" fill="#0F8FA9"></path>
            <path d="M617.327,1254.63 L644.122,1332.39 C646.49,1338.88 651.64,1343.96 658.156,1346.25 L713.299,1365.64 L709.729,1375.95 L647.244,1371.16 C641.364,1370.7 636.06,1367.45 632.999,1362.41 L603.408,1313.68 C603.408,1313.68 599.002,1270.05 617.327,1254.63" id="Fill-125" fill="#3FA5BA"></path>
            <path d="M1190.18,1593.66 L1190.18,1610.18 C1190.18,1612.3 1191.48,1614.2 1193.46,1614.97 L1206.35,1620 C1207.51,1620.45 1208.72,1620.76 1209.96,1620.9 L1238.77,1624.33 C1238.77,1624.33 1246.96,1624.9 1249.76,1620.46 C1251.09,1618.36 1249.9,1615.56 1247.58,1614.69 L1222.07,1605.19 L1207.72,1592.9 C1207.72,1592.9 1203.85,1597 1190.18,1593.66" id="Fill-126" fill="#262F5C"></path>
            <path d="M1065.47,1580.27 C1065.47,1580.27 1032.37,1604.87 1033.58,1615.8 C1033.58,1615.8 1038.75,1629.46 1054.84,1615.8 C1054.84,1615.8 1067.6,1605.78 1069.72,1601.07 L1080.05,1584.04 C1080.05,1584.04 1072.76,1584.22 1065.47,1580.27" id="Fill-127" fill="#262F5C"></path>
            <path d="M1109.92,1360.72 L1166.5,1487.62 C1166.5,1487.62 1171.66,1563.29 1190.18,1596.39 C1193.08,1597.15 1195.51,1598.5 1200.2,1598.5101 C1205.04,1598.53 1208.18,1595.65 1211.13,1594.87 C1208.4,1579.03 1206.04,1559.87 1203.62,1542.93 C1199.9,1516.89 1196.26,1487.97 1196.56,1476.43 C1196.56,1476.43 1185.63,1372.89 1170.14,1351.63 C1170.14,1351.63 1162.96,1360.4 1109.92,1360.72" id="Fill-128" fill="#262F5C"></path>
            <path d="M1097.56,1358.92 C1097.56,1358.92 1077.22,1470.44 1082.68,1486.53 L1063.25,1580.97 C1063.25,1580.97 1072.36,1589.47 1081.92,1584.92 L1160.53,1355.89 C1160.53,1355.89 1147.67,1361.02 1097.56,1358.92" id="Fill-129" fill="#014C81"></path>
            <path d="M1172.68,1259.18 L1159.67,1228.3 L1108.12,1236.86 L1056.73,1229.81 L1055.33,1212.12 L1030.19,1208.86 L1030.19,1233.87 C1030.19,1240.55 1034.1,1246.65 1040.23,1249.29 L1040.43,1249.37 C1060.46,1257.75 1090.22,1271.23 1096.36,1275.03 C1097.12,1277.87 1097.84,1281.86 1098.39,1287.5 L1095.63,1360.48 C1095.63,1360.48 1136.39,1386.94 1178,1362.45 C1178,1362.45 1175.98,1285 1172.68,1259.18" id="Fill-130" fill="#38A4BF"></path>
            <path d="M1172.22,1261.94 C1172.22,1261.94 1200.16,1243.78 1220.1,1233.01 C1222.92,1231.48 1225.7,1229.9 1227.39,1227.18 L1235.56,1214.05 L1213.25,1199.15 L1204.21,1213.83 L1158.74,1228.73 L1172.22,1261.94" id="Fill-131" fill="#38A4BF"></path>
            <polyline id="Fill-132" fill="#88C8D9" points="1154.04 1226.14 1160.73 1228.12 1152.41 1248.79 1137.33 1240.94 1150.19 1225.51 1154.04 1226.14"></polyline>
            <polyline id="Fill-133" fill="#88C8D9" points="1137.33 1240.94 1126.35 1253.82 1106.46 1236.96 1114.46 1232.22 1137.33 1240.94"></polyline>
            <polyline id="Fill-134" fill="#B2E5FA" points="1130.86 1248.35 1135.79 1252.86 1142.41 1252.16 1145.22 1245.05 1137.33 1240.94 1130.86 1248.35"></polyline>
            <path d="M1212.18,1197.84 C1214.3,1203.05 1220.37,1212.25 1237,1214.49 C1240.23,1214.93 1243.39,1213.28 1244.79,1210.35 L1248.99,1201.53 C1248.99,1201.53 1230.59,1202.01 1217.85,1185.14 L1212.98,1191.67 C1211.65,1193.45 1211.34,1195.79 1212.18,1197.84" id="Fill-135" fill="#88C8D9"></path>
            <path d="M1217.85,1185.14 C1217.85,1185.14 1233.58,1184.81 1248.99,1201.53 C1248.99,1201.53 1228.37,1203.91 1217.85,1185.14" id="Fill-136" fill="#85ACBB"></path>
            <path d="M1135.62,1252.63 C1136.66,1281.65 1138.83,1310.97 1138.01,1340 C1137.92,1343.33 1137.95,1347.04 1140.24,1349.46 C1143.1,1352.49 1148.39,1352.23 1151.09,1355.41 C1155.5,1351.52 1156.45,1344.9 1155.49,1339.09 C1154.54,1333.28 1152.04,1327.84 1150.66,1322.12 C1147.86,1310.54 1149.76,1298.43 1150.41,1286.54 C1151.06,1274.64 1149.56,1261.51 1142.26,1252.1 C1140.81,1252.13 1137.07,1252.59 1135.62,1252.63" id="Fill-137" fill="#B2E5FA"></path>
            <path d="M1239.7,1200.93 L1258.73,1158.99 L1270.91,1144.8 C1272.86,1142.43 1262.8,1122.75 1262.8,1122.75 C1261.79,1121.13 1259.5,1120.93 1258.23,1122.35 L1253.04,1127.07 C1252.42,1127.64 1251.43,1127.49 1251.01,1126.76 C1250.02,1125.06 1247.96,1124.54 1246.57,1126 C1246.11,1126.48 1245.6,1126.92 1245.4,1127.55 L1241.1,1141.18 C1240.86,1141.96 1240.83,1142.79 1241.01,1143.58 L1243.56,1154.72 L1220.65,1190.02 C1224.67,1196.77 1237.59,1201.13 1239.7,1200.93" id="Fill-138" fill="#F7B4A4"></path>
            <path d="M1249.99,1138.64 L1252.14,1127.43 L1252.33,1127.74 L1252.95,1138.58 C1253.17,1139.1 1253.74,1139.42 1254.32,1139.27 C1255.69,1138.93 1257.65,1137.44 1258.08,1131.88 L1261.09,1138.05 L1253.07,1140.68 L1253.07,1140.84 L1249.99,1138.64" id="Fill-139" fill="#F5A18D"></path>
            <path d="M1058.28,1212.11 C1053.93,1215.67 1044.21,1220.87 1028.52,1214.9 C1025.48,1213.75 1023.48,1210.79 1023.66,1207.54 L1024.17,1197.8 C1024.17,1197.8 1040.11,1206.98 1059.36,1198.24 L1060.52,1206.3 C1060.84,1208.5 1060,1210.71 1058.28,1212.11" id="Fill-140" fill="#88C8D9"></path>
            <path d="M1059.36,1198.24 C1059.36,1198.24 1045.69,1190.45 1024.17,1197.8 C1024.17,1197.8 1041.16,1209.71 1059.36,1198.24" id="Fill-141" fill="#85ACBB"></path>
            <path d="M1030.79,1200.78 L1034.47,1153.94 L1030.68,1135.62 C1030.12,1132.61 1048.47,1120.27 1048.47,1120.27 C1050.14,1119.34 1052.23,1120.27 1052.66,1122.13 L1054.91,1128.78 C1055.18,1129.58 1056.11,1129.92 1056.84,1129.48 C1058.52,1128.48 1060.58,1129.02 1061.08,1130.98 C1061.25,1131.62 1061.49,1132.24 1061.36,1132.89 L1058.51,1146.9 C1058.35,1147.7 1057.98,1148.44 1057.43,1149.05 L1049.8,1157.55 L1052.74,1200.47 C1045.09,1207.46 1032.54,1201.98 1030.79,1200.78" id="Fill-142" fill="#F7B4A4"></path>
            <path d="M1051.97,1140.38 L1055.52,1129.52 L1055.2,1129.71 L1049.41,1138.89 C1048.96,1139.23 1048.32,1139.24 1047.88,1138.83 C1046.85,1137.86 1045.85,1135.61 1048.17,1130.54 L1042.55,1134.48 L1048.29,1140.67 L1048.21,1140.8 L1051.97,1140.38" id="Fill-143" fill="#F5A18D"></path>
            <path d="M1116.15,1213.04 L1114.46,1232.22 L1137.33,1240.94 L1150.19,1225.51 L1147.96,1209.06 C1147.96,1209.06 1136.27,1219.05 1116.15,1213.04" id="Fill-144" fill="#F7B4A4"></path>
            <path d="M1150.14,1194.67 C1148,1187.95 1145.65,1181.3 1143.08,1174.73 C1141.51,1170.71 1139.45,1166.3 1135.39,1164.83 C1131.28,1163.34 1126.82,1165.47 1122.96,1167.55 C1118.91,1169.73 1114.86,1171.91 1110.8,1174.1 C1103.19,1178.2 1105.3,1181 1108.16,1187.2 C1108.76,1188.5 1109.25,1189.88 1109.78,1191.24 C1101.26,1205.9 1114.93,1211.44 1114.93,1211.44 C1115.56,1213.06 1119.19,1219.56 1120.43,1220.76 C1124.65,1224.82 1131.54,1223.06 1137.04,1221.06 C1142.36,1219.12 1148.14,1216.79 1150.77,1211.77 C1153.49,1206.58 1151.92,1200.26 1150.14,1194.67" id="Fill-145" fill="#F7B4A4"></path>
            <path d="M1124.96,1211.94 C1126.42,1211.96 1128.33,1211.84 1128.89,1210.49 C1133.43,1199.55 1150.14,1194.67 1155,1207.36 C1155.99,1209.97 1156.46,1212.77 1157.66,1215.29 C1158.47,1217 1159.58,1218.7 1159.54,1220.6 C1159.5,1222.21 1158.6,1223.69 1157.53,1224.9 C1154.23,1228.59 1149.28,1230.24 1144.56,1231.76 C1140.08,1233.19 1135.46,1234.65 1130.76,1234.3 C1128.07,1234.09 1125.33,1233.23 1123.39,1231.35 C1121.68,1229.69 1120.74,1227.4 1119.86,1225.19 C1118.95,1222.93 1118.04,1220.66 1117.14,1218.4 C1116.38,1216.51 1114.71,1213.92 1114.61,1211.89 C1114.47,1209.41 1116.65,1210.28 1118.08,1210.76 C1120.3,1211.49 1122.63,1211.89 1124.96,1211.94" id="Fill-146" fill="#024981"></path>
            <path d="M1112.63,1208.63 C1112.63,1208.63 1105.43,1191.1 1113.42,1193.83 C1114.09,1194.06 1114.76,1193.51 1114.59,1192.82 C1114.26,1191.5 1114.57,1189.83 1115.33,1188.11 C1117.24,1183.85 1121.28,1180.88 1125.87,1180 C1132.46,1178.75 1146.96,1173.23 1142.05,1152.99 C1142.05,1152.99 1134.24,1156.49 1118.88,1157.13 C1113.93,1157.34 1109.03,1158.93 1105.25,1162.13 C1100.54,1166.12 1096.78,1172.81 1098.25,1184.41 C1098.31,1184.88 1098.44,1185.35 1098.63,1185.78 C1099.04,1188.56 1099.89,1192.26 1101.69,1196.33 C1103.3,1199.95 1105.18,1202.79 1106.78,1204.85 C1106.95,1205.32 1109.99,1208.83 1111.92,1208.6 L1112.63,1208.63" id="Fill-147" fill="#024981"></path>
            <path d="M1982.06,1597.12 L1996.29,1613.79 L2016.42,1623.04 C2016.42,1623.04 2023.38,1627.26 2017.73,1629.94 C2016.05,1630.73 2014.14,1630.92 2012.3,1630.61 L1963.8,1621.24 L1969.49,1595.67 L1982.06,1597.12" id="Fill-148" fill="#134669"></path>
            <path d="M2070.38,1595.1 L2079.69,1609.14 L2111.08,1615.32 C2111.08,1615.32 2121.3,1618.16 2113.6,1622.81 L2058.08,1622.69 L2057.15,1597.34 C2058.23,1597.82 2060.83,1598.79 2064.11,1598.29 C2066.48,1597.93 2069.43,1595.73 2070.38,1595.1" id="Fill-149" fill="#134669"></path>
            <path d="M2052.44,1572.46 L2057.09,1598.42 C2057.65,1598.74 2061.02,1600.55 2065.04,1599.23 C2068.34,1598.14 2069.98,1595.64 2070.41,1594.94 C2069.8,1586.8 2069.18,1578.67 2068.57,1570.53 C2068.57,1570.53 2063.58,1575.83 2052.44,1572.46" id="Fill-150" fill="#F5AD9E"></path>
            <path d="M2068.46,1353.29 L2070.82,1475.67 L2070.82,1574.84 C2070.82,1574.84 2058.95,1582.79 2050.85,1573.78 L2022.96,1343.79 C2022.96,1343.79 2026.58,1356.27 2068.46,1353.29" id="Fill-151" fill="#014C81"></path>
            <path d="M1971.41,1582.89 L1969.03,1598.17 C1970.94,1600.85 1974.16,1602.15 1977.14,1601.46 C1980.55,1600.66 1982.06,1597.63 1982.26,1597.21 L1985.67,1587.01 C1985.67,1587.01 1975.27,1587.57 1971.41,1582.89" id="Fill-152" fill="#F5AD9E"></path>
            <path d="M2020.77,1349.28 C2020.77,1349.28 1991.12,1375.06 2014.15,1417.88 L1970.18,1582.82 C1970.18,1582.82 1979.17,1591.95 1986.56,1586.85 L2046.29,1439.69 C2057.37,1412.41 2064.34,1383.64 2066.98,1354.31 L2067.25,1351.34 C2067.25,1351.34 2031.92,1364.35 2020.77,1349.28" id="Fill-153" fill="#326091"></path>
            <path d="M2065.76,1266.56 L2075.39,1325.39 C2076.18,1328.81 2083.07,1332.53 2086.45,1333.48 L2129.57,1345.5 L2156.19,1350.89 C2160.03,1351.67 2161.15,1356.66 2157.98,1358.96 C2151.94,1363.35 2136.21,1368.14 2123.85,1356.13 L2067.79,1349.69 C2058.19,1345.12 2059.21,1337.63 2058,1333.09 L2038.1,1260.67 L2065.76,1266.56" id="Fill-154" fill="#F7B4A4"></path>
            <path d="M2074.74,1222.76 C2076.17,1228.2 2068.97,1232.51 2068.95,1238.13 C2068.92,1244.97 2079.17,1248.51 2078.98,1255.35 C2078.82,1261.37 2070.43,1265.15 2071.19,1271.13 C2071.4,1272.82 2072.37,1274.53 2071.79,1276.13 C2071.43,1277.11 2070.55,1277.8 2069.68,1278.38 C2060.97,1284.2 2048.89,1283.92 2039.89,1278.56 C2037.04,1276.87 2034.4,1274.69 2031.24,1273.69 C2026.77,1272.27 2021.92,1273.38 2017.25,1272.89 C2011.4,1272.27 2005.88,1268.96 2002.58,1264.08 C2002.14,1263.42 2001.72,1262.72 2001.6,1261.93 C2001.21,1259.36 2003.89,1257.54 2005.87,1255.86 C2009.41,1252.87 2011.55,1248.3 2011.6,1243.66 C2011.66,1237.15 2007.89,1231.32 2005.76,1225.17 C2003.45,1218.48 2003.29,1210.46 2007.67,1204.9 C2010.68,1201.09 2015.34,1198.99 2018.88,1195.67 C2022.05,1192.7 2024.23,1188.85 2026.33,1185.04 C2027.44,1183.01 2028.57,1180.95 2030.16,1179.27 C2034.81,1174.38 2042.28,1173.74 2049.03,1173.63 C2052.8,1173.56 2056.63,1173.57 2060.27,1174.56 C2063.91,1175.55 2067.4,1177.65 2069.31,1180.9 C2073.37,1187.85 2069.31,1196.25 2070.06,1203.69 C2070.42,1207.2 2071.15,1209.76 2070.88,1213.2 C2070.57,1217.38 2073.76,1219.03 2074.74,1222.76" id="Fill-155" fill="#99423D"></path>
            <path d="M2036.12,1177.45 C2044.23,1173.8 2057.85,1170.03 2067.67,1179.47 C2072.49,1184.11 2074.87,1190.71 2074.65,1197.39 C2074.34,1207.08 2070.98,1222.43 2053.19,1224.74 C2053.19,1224.74 2052.12,1232.59 2055.73,1240.26 C2055.48,1240.88 2053.31,1245.91 2048.45,1247.04 C2043.34,1248.23 2035.2,1247.74 2033.01,1241.14 C2033.01,1241.14 2036.36,1232.88 2036.79,1227.05 C2037.22,1221.2 2035.23,1215.49 2031.68,1210.81 C2028.86,1207.08 2025.47,1200.08 2027.22,1189.12 C2028.04,1183.98 2031.37,1179.58 2036.12,1177.45" id="Fill-156" fill="#F7B4A4"></path>
            <path d="M2047.79,1198.6 C2046.55,1198.78 2045.26,1198.83 2044.1,1198.38 C2043,1197.94 2042.12,1197.09 2041.1,1196.48 C2037.62,1194.38 2032.52,1195.68 2030.47,1199.2 C2029.89,1200.2 2029.54,1201.39 2029.75,1202.52 C2030.33,1205.54 2034.14,1206.44 2036.43,1208.48 C2038.83,1210.63 2039.5,1214.25 2038.84,1217.41 C2038.17,1220.57 2036.39,1223.38 2034.51,1226 C2032.31,1229.07 2029.81,1232.49 2030.42,1236.21 C2030.86,1238.85 2032.84,1241.46 2031.83,1243.94 C2030.51,1247.15 2025.71,1246.71 2022.96,1248.84 C2020.6,1250.67 2020.19,1253.99 2019.25,1256.82 C2016,1266.65 2004.85,1271.94 1994.5,1272.14 C1988.32,1272.26 1981.52,1270.57 1977.99,1265.49 C1974.81,1260.92 1975.21,1254.35 1978.5,1249.85 C1981.78,1245.36 1987.56,1242.99 1993.11,1243.31 C1996.51,1243.5 2000.46,1244.43 2002.9,1242.06 C2004.48,1240.53 2004.78,1238.09 2004.57,1235.9 C2004.28,1232.81 2003.17,1229.8 2001.37,1227.27 C1999.51,1224.64 1996.94,1222.53 1995.36,1219.73 C1993.78,1216.92 1993.54,1212.9 1996.03,1210.87 C1998.19,1209.11 2001.41,1209.55 2003.92,1208.36 C2006.5,1207.13 2008.04,1204.05 2007.48,1201.24 C2006.87,1198.19 2004.18,1195.94 2003.31,1192.95 C2002.1,1188.76 2005.5,1183.9 2009.85,1183.6 C2011.96,1183.46 2014.12,1184.22 2016.16,1183.68 C2018.81,1182.98 2020.45,1180.27 2021.12,1177.61 C2021.79,1174.95 2021.78,1172.15 2022.57,1169.52 C2024.8,1162.12 2034.12,1157.82 2041.2,1160.93 C2043,1161.72 2044.62,1162.89 2046.47,1163.57 C2054.8,1166.65 2063.82,1158.85 2072.51,1160.66 C2076.91,1161.58 2080.55,1164.98 2082.44,1169.07 C2084.32,1173.15 2084.61,1177.83 2083.98,1182.28 C2083.72,1184.18 2083.27,1186.09 2082.25,1187.69 C2080.63,1190.23 2077.54,1191.74 2074.55,1191.48 C2072.75,1190.05 2070.68,1185.45 2068.63,1184.85 C2066.15,1184.13 2064.23,1188.03 2062.67,1189.67 C2058.63,1193.93 2053.75,1197.71 2047.79,1198.6" id="Fill-157" fill="#CC5851"></path>
            <path d="M2074.07,1272.63 L2055.61,1239.71 C2054.6,1242.61 2053.03,1243.86 2052.19,1244.39 C2047.94,1247.06 2040.57,1245.13 2034.72,1238.8 C2029.58,1241.6 2023.35,1245.44 2017.31,1251.16 C2012.33,1255.89 2008.84,1260.02 2008.84,1260.02 C2017.21,1276.87 2003.32,1383.83 2003.32,1383.83 C2025.61,1405.78 2074.85,1388.29 2074.85,1388.29 L2066.08,1310.45 C2065.84,1290.57 2071.03,1288.19 2071.03,1288.19 C2079.38,1281.11 2074.07,1272.63 2074.07,1272.63" id="Fill-158" fill="#65BDC1"></path>
            <path d="M1998.58,1294.35 C1998.58,1294.35 1994.16,1261.89 2013.51,1258.42 C2013.51,1258.42 2032.55,1258.62 2026.38,1294.62 C2026.38,1294.62 2004.97,1302.06 1998.58,1294.35" id="Fill-159" fill="#9DE1E4"></path>
            <path d="M2000.6,1296.05 C2000.6,1296.05 1999.36,1328.62 2003.83,1339.35 C2003.83,1339.35 2007.34,1347.83 2017.91,1346.1 L2061.93,1325.61 L2079.17,1320.37 C2079.17,1320.37 2085.44,1318.14 2082.87,1311.62 L2080.33,1306 C2080.33,1306 2097.15,1297.51 2097.26,1294.48 C2097.26,1294.48 2099.96,1290.72 2086.83,1295.28 L2070.13,1302.85 L2056.52,1314.73 L2019.68,1326.2 L2020.64,1296.44 C2020.64,1296.44 2007.41,1299.38 2000.6,1296.05" id="Fill-160" fill="#FFC3B4"></path>
            <polygon id="Fill-161" fill="#99653A" points="1427 1609.9 1437 1609.9 1437 1385.9 1427 1385.9"></polygon>
            <polygon id="Fill-162" fill="#99653A" points="1605 1609.9 1615 1609.9 1615 1385.9 1605 1385.9"></polygon>
            <polyline id="Fill-163" fill="#99653A" points="1607 1095.9 1598 1391.9 1414 1391.9 1423 1095.9"></polyline>
            <polyline id="Fill-164" fill="#C2A289" points="1631 1391.9 1447 1391.9 1423 1095.9 1607 1095.9 1631 1391.9"></polyline>
            <path d="M1680.24,1341.12 L1483.92,1341.12 C1423.52,1245.68 1434.98,1109.66 1433.94,1074.4 C1497.17,1074.4 1550.39,1074.4 1613.61,1074.4 C1613.16,1106.52 1615.08,1254.01 1680.24,1341.12" id="Fill-165" fill="#EDEDED"></path>
            <polygon id="Fill-166" fill="#21A3CD" points="1481.26 1263.76 1505.52 1263.76 1505.52 1201.42 1481.26 1201.42"></polygon>
            <polygon id="Fill-167" fill="#46C777" points="1505.52 1263.76 1529.77 1263.76 1529.77 1171.06 1505.52 1171.06"></polygon>
            <polygon id="Fill-168" fill="#BAE6F1" points="1553.45 1263.76 1577.71 1263.76 1577.71 1188.89 1553.45 1188.89"></polygon>
            <polygon id="Fill-169" fill="#3470A5" points="1576.38 1263.76 1600.64 1263.76 1600.64 1169.15 1576.38 1169.15"></polygon>
            <polygon id="Fill-170" fill="#FF5555" points="1529.77 1263.76 1554.03 1263.76 1554.03 1140.29 1529.77 1140.29"></polygon>
            <polyline id="Fill-171" fill="#F9C5A6" points="1365.93 1409.26 1351 1590.81 1338.52 1590.81 1329.89 1411.03 1365.93 1409.26"></polyline>
            <polyline id="Fill-172" fill="#F9C5A6" points="1402.88 1409.26 1384.63 1590.81 1372.14 1590.81 1366.82 1407.33 1402.88 1409.26"></polyline>
            <path d="M1384.63,1590.81 L1393.15,1606.78 L1414.77,1613.27 L1416.57,1618.67 L1380.54,1617.23 L1375.14,1606.06 L1372.26,1616.87 L1368.3,1616.51 C1368.3,1616.51 1365.77,1601.38 1372.14,1590.81 L1384.63,1590.81" id="Fill-173" fill="#62C1C5"></path>
            <polyline id="Fill-174" fill="#62C1C5" points="1351 1590.81 1351.41 1592.31 1356.05 1611.46 1333.71 1611.46 1338.52 1590.81 1351 1590.81"></polyline>
            <polyline id="Fill-175" fill="#62C1C5" points="1356 1611.44 1351.2 1617.44 1338.37 1617.36 1333.77 1611.46 1356 1611.44"></polyline>
            <path d="M1351.06,1617.45 C1351.06,1617.45 1345.62,1606.69 1338.37,1617.36 L1351.06,1617.45" id="Fill-176" fill="#A3D0D1"></path>
            <path d="M1369.61,1161.75 C1366.58,1161.19 1343.98,1156.98 1332.89,1179.73 C1330.18,1185.28 1329.97,1192.06 1332.1,1197.86 C1334.1,1203.31 1339.96,1208.56 1342.98,1213.52 C1345.38,1217.47 1348.6,1224.92 1342.06,1226.9 C1339.59,1227.65 1336.69,1226.52 1335.37,1224.3 C1334.38,1229.65 1339.61,1234.58 1345.02,1235.19 C1350.43,1235.8 1353.86,1235.82 1360.39,1230.58 C1364.48,1227.3 1369.35,1224.97 1372.75,1220.99 C1376.14,1217 1378.46,1211.87 1378.19,1206.64 C1378,1202.93 1376.56,1199.41 1375.26,1195.92 C1373.96,1192.44 1372.76,1188.78 1373.1,1185.07 C1373.45,1181.31 1382,1182.48 1382.63,1179.09 C1382.07,1182.1 1388.95,1165.31 1369.61,1161.75" id="Fill-177" fill="#B0362D"></path>
            <path d="M1360.02,1228.85 C1360.02,1228.85 1364.8,1242.33 1352.48,1249.6 C1352.48,1249.6 1367.96,1267.93 1385.03,1249.6 C1385.03,1249.6 1374.2,1243.66 1377.42,1229.56 C1377.42,1229.56 1369.45,1234.02 1360.02,1228.85" id="Fill-178" fill="#F7AC89"></path>
            <path d="M1351.14,1222.05 C1354.69,1227.83 1360.05,1233.26 1366.84,1234.61 C1374.97,1236.22 1382.03,1229.69 1385.6,1222.22 C1391.42,1210.06 1391.1,1194.19 1382.04,1183.89 C1379.63,1181.15 1376.6,1178.86 1373.12,1178.07 C1370.13,1177.39 1366.99,1177.85 1364.05,1178.73 C1359.68,1180.04 1355.51,1182.35 1352.47,1185.88 C1344.13,1195.58 1344.49,1211.24 1351.14,1222.05" id="Fill-179" fill="#F7B690"></path>
            <path d="M1346.59,1210.21 C1346.59,1210.21 1353.06,1206.37 1353.69,1192.77 C1353.69,1192.77 1374.24,1207.57 1390.05,1204.56 C1390.05,1204.56 1397.35,1175.91 1364.8,1175.94996 C1364.8,1175.94996 1336.59,1180.3 1346.59,1210.21" id="Fill-180" fill="#BE4C44"></path>
            <path d="M1406.77,1310.23 C1405.63,1310 1412.57,1325.95 1416.89,1332.29 C1417.93,1333.82 1419.2,1335.42 1421.02,1335.78 C1422.07,1335.99 1423.17,1335.75 1424.19,1335.41 C1429.36,1333.67 1433.32,1329.53 1436.96,1325.46 C1448.82,1312.2 1459.79,1298.03 1468.21,1282.35 C1470.61,1277.87 1472.85,1273.21 1476.31,1269.49 C1480.44,1265.03 1486.35,1261.77 1489.72,1256.99 C1491.67,1254.23 1490.02,1250.38 1486.69,1249.83 C1484.92,1249.54 1483.05,1249.71 1481.37,1250.36 C1477.84,1251.73 1475.04,1254.47 1472.49,1257.27 C1469.56,1260.49 1466.79,1263.92 1464.78,1267.78 C1463.73,1269.81 1462.88,1271.95 1461.75,1273.94 C1460.4,1276.28 1458.67,1278.37 1456.95,1280.44 C1449.58,1289.33 1442.21,1298.21 1434.84,1307.09 C1432.45,1309.98 1430.02,1312.9 1426.96,1315.06 C1424.61,1311.59 1422.96,1307.66 1422.11,1303.56 C1422.11,1303.56 1410.91,1311.06 1406.77,1310.23" id="Fill-181" fill="#F7B690"></path>
            <path d="M1352.48,1249.6 L1330.98,1254.97 C1330.98,1254.97 1323.71,1256.23 1318.34,1270.46 L1304.25,1301.96 C1304.25,1301.96 1314.18,1312.71 1326.58,1309.4 L1337.94,1285.63 C1337.94,1285.63 1348.58,1297.83 1338.58,1326.23 C1335.35,1335.39 1331.11,1346.48 1329.4,1356.04 C1325.13,1379.96 1321.41,1420.1 1329.87,1450.05 L1400.96,1449.54 C1400.96,1449.54 1413.93,1391.63 1395.2,1330.22 C1387.7,1305.65 1394.11,1284.14 1394.11,1284.14 C1394.11,1284.14 1403.05,1302.07 1406.21,1310.92 C1406.21,1310.92 1417.9,1312.18 1423.59,1301.12 L1413.61,1268.48 C1411.35,1261.1 1405.58,1255.31 1398.18,1253.09 C1394.77,1252.06 1390.45,1250.89 1385.03,1249.6 C1385.03,1249.6 1370.49,1266.03 1352.48,1249.6" id="Fill-182" fill="#9BDBF6"></path>
            <path d="M1318.55,1327.5 C1319.2,1328.82 1320.63,1329.53 1321.96,1330.16 C1329.53,1333.73 1335.33,1336.73 1342.5,1341.03 C1345.15,1342.62 1360.32,1349.01 1365.06,1351.05 C1369.81,1353.09 1374.41,1356.16 1376.69,1360.79 C1378.98,1365.42 1378.18,1371.83 1373.88,1374.68 C1372.42,1375.65 1370.51,1376.14 1368.9,1375.46 C1366.46,1374.42 1365.75,1371.32 1365.72,1368.67 C1365.68,1366.03 1365.92,1363.12 1364.31,1361.02 C1361.73,1357.61 1345.52,1354.15 1342.02,1352.57 C1339.97,1351.65 1337.79,1351.09 1335.65,1350.41 C1326.18,1347.42 1317.59,1342.21 1309.1,1337.06 C1305.23,1334.7 1300.6,1331.6 1300.77,1327.08 C1300.95,1322.63 1302.26,1316.72 1302.6,1315.19 C1304.75,1305.49 1305.91,1303.61 1305.91,1303.61 C1309.88,1306.59 1317.98,1310.84 1323.93,1309.84 C1323.93,1309.84 1317.62,1325.61 1318.55,1327.5" id="Fill-183" fill="#F7B690"></path>
            <polyline id="Fill-184" fill="#195D8C" points="2407.91 1635.44 2326.82 1126.11 2333.63 1125.02 2414.73 1634.35 2407.91 1635.44"></polyline>
            <polyline id="Fill-185" fill="#195D8C" points="2492.54 1632.38 2485.74 1633.47 2461.37 1480.45 2460.28 1473.53 2404.63 1124.15 2411.46 1123.05 2467.27 1473.56 2468.36 1480.48 2492.54 1632.38"></polyline>
            <polyline id="Fill-186" fill="#195D8C" points="2414.15 1149.92 2332.31 1149.55 2332.34 1142.64 2414.18 1143 2414.15 1149.92"></polyline>
            <polyline id="Fill-187" fill="#195D8C" points="2418.63 1200.47 2336.8 1200.1 2336.83 1193.19 2418.66 1193.55 2418.63 1200.47"></polyline>
            <polyline id="Fill-188" fill="#195D8C" points="2428.66 1247.14 2346.82 1246.78 2346.85 1239.87 2428.69 1240.23 2428.66 1247.14"></polyline>
            <polyline id="Fill-189" fill="#195D8C" points="2436.39 1293.81 2354.55 1293.45 2354.58 1286.53 2436.42 1286.9 2436.39 1293.81"></polyline>
            <polyline id="Fill-190" fill="#195D8C" points="2441.82 1340.47 2359.98 1340.1 2360.01 1333.19 2441.85 1333.55 2441.82 1340.47"></polyline>
            <polyline id="Fill-191" fill="#195D8C" points="2451.85 1387.14 2370.01 1386.78 2370.04 1379.87 2451.88 1380.23 2451.85 1387.14"></polyline>
            <polyline id="Fill-192" fill="#195D8C" points="2459.58 1433.81 2377.74 1433.45 2377.77 1426.54 2459.61 1426.9 2459.58 1433.81"></polyline>
            <polyline id="Fill-193" fill="#195D8C" points="2468.36 1480.48 2387.76 1480.12 2387.79 1473.21 2467.27 1473.56 2468.36 1480.48"></polyline>
            <polyline id="Fill-194" fill="#195D8C" points="2475.03 1527.14 2393.2 1526.78 2393.23 1519.87 2475.06 1520.23 2475.03 1527.14"></polyline>
            <polyline id="Fill-195" fill="#195D8C" points="2482.76 1573.81 2400.92 1573.45 2400.95 1566.53 2482.79 1566.9 2482.76 1573.81"></polyline>
            <polyline id="Fill-196" fill="#195D8C" points="2490.49 1620.48 2408.65 1620.11 2408.68 1613.2 2490.52 1613.56 2490.49 1620.48"></polyline>
            <polyline id="Fill-197" fill="#195D8C" points="2306.36 1642.07 2412.06 1128.68 2405.2 1127.26 2299.49 1640.65 2306.36 1642.07"></polyline>
            <polyline id="Fill-198" fill="#195D8C" points="2333.14 1123.12 2241.27 1569.36 2239.82 1576.34 2231.58 1616.39 2230.15 1623.37 2227.44 1636.5 2220.58 1635.1 2223.26 1622.11 2224.51 1616.1 2233.3 1573.39 2234.2 1569.07 2326.28 1121.69 2333.14 1123.12"></polyline>
            <polyline id="Fill-199" fill="#195D8C" points="2322.3 1148.84 2405.41 1152.23 2405.7 1145.21 2322.59 1141.82 2322.3 1148.84"></polyline>
            <polyline id="Fill-200" fill="#195D8C" points="2315.44 1199.96 2398.54 1203.35 2398.82 1196.33 2315.72 1192.94 2315.44 1199.96"></polyline>
            <polyline id="Fill-201" fill="#195D8C" points="2303.11 1246.89 2386.22 1250.28 2386.5 1243.26 2303.4 1239.87 2303.11 1246.89"></polyline>
            <polyline id="Fill-202" fill="#195D8C" points="2293.12 1293.91 2376.23 1297.3 2376.51 1290.28 2293.41 1286.89 2293.12 1293.91"></polyline>
            <polyline id="Fill-203" fill="#195D8C" points="2285.47 1341.03 2368.57 1344.42 2368.86 1337.4 2285.76 1334.01 2285.47 1341.03"></polyline>
            <polyline id="Fill-204" fill="#195D8C" points="2273.15 1387.96 2356.25 1391.35 2356.54 1384.33 2273.43 1380.94 2273.15 1387.96"></polyline>
            <polyline id="Fill-205" fill="#195D8C" points="2263.16 1434.99 2346.26 1438.38 2346.55 1431.36 2263.45 1427.97 2263.16 1434.99"></polyline>
            <polyline id="Fill-206" fill="#195D8C" points="2253.54 1474.99 2260.63 1475.28 2334.22 1478.28 2333.93 1485.3 2259.21 1482.26 2252.11 1481.97 2253.54 1474.99"></polyline>
            <polyline id="Fill-207" fill="#195D8C" points="2243.18 1529.04 2326.29 1532.42 2326.57 1525.4 2244.01 1521.83 2243.18 1529.04"></polyline>
            <polyline id="Fill-208" fill="#195D8C" points="2316.58 1572.43 2316.29 1579.46 2233.19 1576.07 2233.3 1573.39 2234.2 1569.07 2316.58 1572.43"></polyline>
            <polyline id="Fill-209" fill="#195D8C" points="2306.61 1619.45 2306.32 1626.47 2223.22 1623.09 2223.26 1622.11 2224.51 1616.1 2306.61 1619.45"></polyline>
            <path d="M1759.24,1589.56 L1754.78,1598.11 C1750.82,1605.71 1743.62,1611.1 1735.21,1612.77 L1719.18,1615.96 C1719.18,1615.96 1710.35,1619.84 1716.73,1624.96 L1777.3,1624.28 L1772.29,1590.51 L1759.24,1589.56" id="Fill-210" fill="#0D2F46"></path>
            <path d="M1858.98,1592.08 L1855.57,1598.93 C1851.01,1608.06 1842.68,1614.73 1832.77,1617.18 L1817.66,1620.91 C1817.66,1620.91 1808.48,1625.32 1815.39,1630.07 L1879.23,1625.78 L1872.78,1592.26 L1858.98,1592.08" id="Fill-211" fill="#0D2F46"></path>
            <polyline id="Fill-212" fill="#195D8C" points="1784.14 1368.02 1747.82 1604.38 1778.35 1607.03 1821.29 1418.21 1849.81 1606 1877.71 1605.16 1869.29 1361.91 1784.14 1368.02"></polyline>
            <path d="M1794.17,1227.03999 C1794.17,1227.03999 1780.96,1226.94 1784.11,1246.79 C1784.11,1246.79 1786.67,1274.86 1785.48,1278.84 C1785.48,1278.84 1781.1,1288.88 1772.94,1293.87 C1772.94,1293.87 1775.05,1311.85 1790.13,1316 C1790.13,1316 1798.74,1307.81 1799.04,1298.23 L1797.86,1273.23 C1797.86,1273.23 1785.36,1233.69 1794.17,1227.03999" id="Fill-213" fill="#FCDA6F"></path>
            <path d="M1777.21,1285.77 C1775.52,1287.22 1773.69,1289.7 1772.94,1293.87 C1772.94,1293.87 1774.92,1309.01 1788.34,1315.8 C1790.54,1316.91 1793.27,1316.15 1794.59,1314.08 C1795.95,1311.94 1797.21,1308.8 1796.71,1304.8 C1796.71,1304.8 1785.19,1299.57 1781.38,1286.99 C1780.83,1285.19 1778.64,1284.55 1777.21,1285.77" id="Fill-214" fill="#FCDA6F"></path>
            <path d="M1772.94,1293.87 L1763.16,1299.96 C1761.4,1301.05 1759.12,1300.74 1757.72,1299.23 L1734.22,1273.87 L1729.22,1253.52 L1722.51,1243.35 C1722.01,1242.59 1720.82,1242.72 1720.55,1243.59 C1720.03,1245.27 1720.82,1250.44 1723.75,1255.22 C1711.85,1235.82 1707.52,1240.53 1706.08,1240.69 C1696.43,1241.77 1713.42,1270.55 1713.42,1270.55 L1728.85,1284.05 L1751.04,1321.37 C1754.21,1326.71 1761.09,1328.48 1766.44,1325.33 L1785.49,1314.12 C1785.49,1314.12 1776.33,1310.14 1772.94,1293.87" id="Fill-215" fill="#FAB08B"></path>
            <path d="M1830.65,1219.44 C1830.65,1219.44 1855.87,1228.72 1859.65,1231.98 C1859.65,1231.98 1878.24,1257.61 1870.5,1371.52 C1870.5,1371.52 1830.33,1392.85 1783.66,1367.99 C1783.66,1367.99 1801.2,1330.06 1794.53,1276.95 C1794.53,1276.95 1785.26,1233.9 1794.17,1227.04 L1800.32,1223.86 L1830.65,1219.44" id="Fill-216" fill="#F7A60F"></path>
            <path d="M1835.23,1173.81 C1836.26,1181.98 1835.31,1191.72 1827.61,1198.56 L1830.65,1219.44 C1828.46,1228.27 1820.69,1233.93 1813.1,1233.22 C1804.79,1232.44 1800.59,1224.4 1800.32,1223.86 C1800.32,1223.86 1805.22,1220.45 1803.52,1213.18 C1803.34,1212.39 1802.7,1211.8 1801.91,1211.62 C1798.51,1210.82 1789.15,1206 1789.21961,1177.09 C1789.23,1173.42 1790.13,1169.8 1791.92,1166.6 C1794.74,1161.57 1800.11,1155 1809.36,1153.63 C1822.03,1151.76 1833.63,1161.1 1835.23,1173.81" id="Fill-217" fill="#E1B6AF"></path>
            <path d="M1821.93,1186.45 C1821.93,1186.45 1825.26,1198.73 1811.84,1200.69 C1811.84,1200.69 1800.32,1192.21 1792.32,1201.16 C1792.32,1201.16 1791.83,1207.11 1792.33,1214.18 C1792.59,1218.04 1795.3,1221.34 1799.05,1222.27 C1803.64,1223.4 1811.24,1223.36 1823.15,1218.44 C1825.85,1217.33 1827.79,1214.91 1828.26,1212.02 C1828.69,1209.44 1828.79,1205.7 1827.89,1200.49 L1825.86,1186.11 L1821.93,1186.45" id="Fill-218" fill="#BE4C44"></path>
            <path d="M1809.41,1203.28 C1809.35,1203.12 1801.93,1195.84 1795.18,1203.2 C1794.83,1203.58 1794.76,1204.16 1795.06,1204.57 C1795.61,1205.33 1797.28,1206.21 1802.17,1205.79 C1802.17,1205.79 1810.16,1205.27 1809.41,1203.28" id="Fill-219" fill="#E1B6AF"></path>
            <path d="M1812.87,1164.57 C1806.67,1168.23 1787.5,1178 1777.77,1165.61 C1776.68,1164.22 1776.32,1162.38 1776.87,1160.7 C1777.92,1157.5 1780.69,1152.56 1787.89,1152.54 C1787.89,1152.54 1804.01,1152.61 1812.96,1149.74 C1818.7,1147.9 1834.03,1148.53 1839.85,1164.1 C1839.85,1164.1 1849.39,1185.39 1831.77,1199.55 C1830.36,1200.68 1828.32,1200.1 1828.04,1198.31 C1827.8,1196.77 1830.77,1190.73 1832.78,1186.26 C1833.65,1184.33 1833.78,1182.12 1832.96,1180.18 C1832.62,1179.38 1832.16,1178.62 1831.5,1178.04 C1829.77,1176.53 1827.1,1177.32 1826.27,1179.47 C1825.7,1180.97 1825.39,1183.43 1825.91,1186.44 L1822.06,1187.05 C1820.75,1183.43 1814.84,1173.56 1814.74,1165.6 C1814.73,1164.66 1813.69,1164.09 1812.87,1164.57" id="Fill-220" fill="#BE4C44"></path>
            <path d="M1834.22,1320.47 L1785.81,1325.82 L1757.65,1331.64 C1757.65,1331.64 1740.82,1339.41 1740.43,1342.16 C1740.43,1342.16 1738.48,1345.13 1750.15,1340 L1762.83,1338.15 C1762.83,1338.15 1764.67,1342.34 1766.81,1344.97 C1767.77,1346.15 1769.44,1346.47 1770.79,1345.75 L1787.43,1336.94 C1787.43,1336.94 1842.1,1341.44 1856,1339.12 C1856,1339.12 1844.16,1323.38 1834.22,1320.47" id="Fill-221" fill="#FAB08B"></path>
            <path d="M1872.41,1240.78 C1872.41,1240.78 1863.2,1226.46 1852.65,1232.15 C1848.13,1234.59 1839.92,1241.16 1840.02,1253.43 C1840.2,1275.37 1845.81,1301.86 1837.03,1311.95 C1837.03,1311.95 1851.53,1324.32 1865.96,1325.77 C1865.96,1325.77 1882.88,1256.57 1872.41,1240.78" id="Fill-222" fill="#FCDA6F"></path>
            <path d="M1865.96,1325.77 C1865.96,1325.77 1869.16,1332.14 1862.83,1338.28 C1860.43,1340.6 1856.54,1340.26 1854.51,1337.62 C1850.36,1332.2 1842.69,1323.33 1835.35,1320.81 C1833.45,1320.16 1832.16,1318.31 1832.49,1316.33 C1832.84,1314.2 1834.16,1311.75 1838.09,1310.53 C1838.09,1310.53 1848.46,1322.48 1865.96,1325.77" id="Fill-223" fill="#FCDA6F"></path>
            <path d="M1532.12,1074.44 L1769.17,1308.55 L1773.72,1303.56 L1533.29,1072.35 C1531.87,1071 1530.68,1073.02 1532.12,1074.44" id="Fill-224" fill="#3470A5"></path>
            <path d="M1705.49,1240.33 L1707.03,1239.98 C1709.16,1239.5 1711.38,1240.37 1712.61,1242.18 L1719.55,1252.36 C1720.59,1253.88 1720.74,1255.83 1719.95,1257.49 L1713.59,1270.84 C1713.59,1270.84 1703.06,1252.74 1702.66,1244.08 C1702.58,1242.31 1703.76,1240.72 1705.49,1240.33" id="Fill-225" fill="#F9C5A6"></path>
            <path d="M2304.82,879.951 C2309.36,871.188 2318.53,865.733 2328.38,866.358 C2337.78,866.956 2348.61,871.446 2353.69,887.267 C2353.69,887.267 2360.72,903.147 2357.99,915.542 C2356.32,923.145 2349.16,928.317 2341.38,927.959 C2324.83,927.199 2283.4,921.267 2304.82,879.951" id="Fill-226" fill="#F5AD9E"></path>
            <path d="M2270,868.626 C2272.76,862.771 2277.46,858.067 2282.36,853.839 C2287.1,849.747 2292.5,845.824 2298.74,845.315 C2304.98,844.806 2311.98,849.119 2312.18,855.378 C2312.23,856.987 2311.85,858.675 2312.47,860.162 C2313.29,862.143 2315.65,863.08 2317.8,863.017 C2319.94,862.954 2321.98,862.124 2324.04,861.548 C2330.46,859.762 2337.54,860.486 2343.46,863.535 C2346.98,865.347 2350.42,868.764 2349.74,872.665 C2349.31,875.106 2347.31,877.015 2345.1,878.142 C2342.89,879.269 2340.43,879.78 2338.08,880.562 C2334.63,881.71 2331.31,883.512 2328.91,886.246 C2326.5,888.98 2325.11,892.734 2325.74,896.319 C2326.82,902.45 2333.16,906.408 2334.98,912.363 C2336.53,917.463 2334.23,923.299 2330.01,926.56 C2325.8,929.822 2320.01,930.66 2314.81,929.468 C2309.62,928.276 2304.98,925.224 2301.21,921.458 C2296.45,916.704 2293.56,911.105 2291.21,904.886 C2289.61,900.632 2288.2,897.799 2284.01,895.773 C2278.85,893.277 2273.27,892.625 2270.01,887.279 C2266.61,881.692 2267.31,874.338 2270,868.626" id="Fill-227" fill="#326091"></path>
            <path d="M2330.01,926.56 C2330.01,926.56 2324.53,937.631 2319.4,943.809 C2319.4,943.809 2337.41,936.322 2347.38,947.86 C2347.38,947.86 2339.65,937.029 2341.38,927.959 C2341.38,927.959 2334.52,927.211 2330.01,926.56" id="Fill-228" fill="#F5AD9E"></path>
            <path d="M2307.82,1023.83 C2307.82,1023.83 2299.69,965.428 2319.4,943.809 C2319.4,943.809 2337.81,936.027 2347.38,947.86 C2350.18,951.632 2353.09,956.005 2355.9,960.996 C2357.05,963.046 2358.11,965.054 2359.07,967.004 C2360.87,970.638 2361.88,974.642 2361.78,978.696 L2361.78,978.775 C2361.65,983.297 2360.73,989.689 2357.53,997.162 L2341.67,1028.73 C2341.67,1028.73 2322.56,1036.54 2307.82,1023.83" id="Fill-229" fill="#FF5555"></path>
            <path d="M2384.91,829.912 C2384.89,827.824 2384.84,825.669 2385.63,823.734 C2386.41,821.799 2388.86,815.983 2390.95,816.108 C2392.98,816.231 2397.57,817.049 2398.14,819.006 C2398.72,820.962 2399.06,828.781 2398.81,830.806 C2397.36,842.667 2394.53,854.329 2393.08,866.19 C2391.02,883.096 2385.34,905.076 2380.11,921.284 C2373.79,940.86 2366.17,953.686 2360.05,970.015 C2360.89,967.765 2347.55,950.717 2347.38,947.86 C2347.38,947.86 2359.68,936.03 2367.39,915.786 C2374.07,898.263 2380.05,880.395 2382.75,861.838 C2384.28,851.272 2385.01,840.588 2384.91,829.912" id="Fill-230" fill="#F5AD9E"></path>
            <path d="M2266.24,823.455 C2265.24,820.042 2264.71,815.917 2267.14,813.322 C2270.27,809.981 2276.26,811.772 2279,815.442 C2281.73,819.112 2282.33,823.886 2283.54,828.299 C2289.38,849.474 2310.17,863.5 2317.93,884.049 C2320.83,891.732 2321.78,900.02 2324.39,907.806 C2327.3,916.477 2327.9,926.082 2328.32,935.344 C2328.73,944.572 2331.28,954.25 2331.09,963.364 C2331.01,967.484 2328.67,972.042 2324.61,972.733 C2322.04,973.171 2319.39,971.905 2317.6,970.002 C2315.81,968.1 2314.75,965.637 2313.89,963.171 C2308.63,948.142 2309.78,931.744 2308.11,915.91 C2305.27,889.014 2293.96,865.122 2277.18,844.217 C2272.24,838.059 2268.45,831.046 2266.24,823.455" id="Fill-231" fill="#F5AD9E"></path>
            <path d="M2215.4,1126.8 C2215.4,1126.8 2223.39,1133.22 2228.33,1134.36 L2222.54,1145.16 C2222.54,1145.16 2218.57,1141.41 2212.9,1143.76 C2212.9,1143.76 2220.05,1134.14 2215.4,1126.8" id="Fill-232" fill="#F5AD9E"></path>
            <path d="M2334.41,1236.29 C2334.41,1236.29 2338.52,1233.37 2337.15,1223.29 L2347.52,1224.79 C2346.83,1225.27 2349.35,1231.84 2352.09,1234.63 C2352.09,1234.63 2339.81,1231.79 2334.41,1236.29" id="Fill-233" fill="#F5AD9E"></path>
            <path d="M2376.54,1246.9 C2372.06,1241.5 2361.13,1231.89 2340.6,1232.74 C2340.6,1232.74 2333.57,1233.6 2332.34,1242.07 C2332.22,1242.94 2332.84,1243.74 2333.7,1243.87 L2374.92,1249.83 C2376.55,1250.07 2377.6,1248.17 2376.54,1246.9" id="Fill-234" fill="#033F61"></path>
            <path d="M2195.3,1163.44 C2201.64,1160.42 2213.64,1152.18 2217.85,1132.07 C2217.85,1132.07 2218.74,1125.04 2210.82,1121.77 C2210.02,1121.44 2209.09,1121.84 2208.75,1122.65 L2192.86,1161.14 C2192.23,1162.67 2193.81,1164.15 2195.3,1163.44" id="Fill-235" fill="#033F61"></path>
            <path d="M2307.97,1022.79 C2307.97,1022.79 2283.8,1041.16 2285.89,1082.73 C2285.89,1082.73 2288.91,1146.13 2265.12,1144.8 C2265.12,1144.8 2248.65,1147.53 2228.33,1134.36 L2222.54,1145.16 C2222.54,1145.16 2253.97,1181.45 2291.96,1162.61 C2291.96,1162.61 2318.75,1148.15 2324.04,1087.19 C2324.04,1087.19 2327.11,1037.22 2335.54,1029.72 C2335.54,1029.72 2318.46,1033.13 2307.97,1022.79" id="Fill-236" fill="#014C81"></path>
            <path d="M2342.17,1027.74 L2348.17,1225.07 L2336.43,1223.37 C2336.43,1223.37 2277.58,1064.6 2307.97,1022.79 C2307.97,1022.79 2318.41,1035.94 2342.17,1027.74" id="Fill-237" fill="#195D8C"></path>
            <path d="M2680.87,1216.79 C2682.55,1224.55 2688.54,1231.62 2687.49,1239.48 C2686.95,1243.52 2684.58,1247.14 2683.66,1251.12 C2682.71,1255.18 2683.37,1259.55 2685.47,1263.21 C2687.46,1266.69 2690.67,1269.47 2692.49,1273.03 C2696.03,1279.93 2693.75,1288.1 2694.55,1295.73 C2694.74,1297.54 2695.13,1299.4 2696.19,1300.92 C2697.25,1302.43 2698.86,1303.48 2700.29,1304.69 C2704.82,1308.53 2707.51,1314.24 2707.49,1319.98 C2707.48,1326.05 2704.65,1332.24 2706.65,1338.01 C2708.17,1342.4 2712.19,1345.55 2714.74,1349.5 C2715.93,1351.36 2716.82,1353.42 2718.33,1355.05 C2720.85,1357.77 2724.84,1358.95 2728.67,1358.95 C2732.49,1358.95 2736.22,1357.91 2739.87,1356.82 C2749.34,1353.98 2758.66,1350.71 2767.8,1347.03 C2771.37,1345.59 2775.08,1343.97 2777.35,1341 C2779.76,1337.84 2780.12,1333.73 2781.4,1330.03 C2782.84,1325.89 2785.45,1322.19 2787.11,1318.12 C2790.68,1309.38 2789.41,1299.02 2783.83,1291.27 C2782.23,1289.05 2780.27,1287.02 2777.88,1285.56 C2774.56,1283.53 2770.56,1282.69 2767.14,1280.81 C2761.87,1277.91 2758.25,1272.48 2757.78,1266.73 C2757.47,1262.86 2758.48,1258.87 2757.4,1255.12 C2755.63,1248.97 2748.95,1245.45 2742.88,1242.65 C2736.81,1239.85 2730.11,1236.44 2728.19,1230.32 C2727.42,1227.89 2727.51,1225.23 2726.48,1222.89 C2725.19,1219.97 2722.38,1217.97 2720.2,1215.57 C2717.19,1212.27 2715.38,1208.17 2713.33,1204.27 C2711.28,1200.36 2708.82,1196.45 2705,1194.01 C2690.28,1184.58 2678.33,1205.08 2680.87,1216.79" id="Fill-238" fill="#7B2620"></path>
            <path d="M2719.08,1243.45 C2719.08,1243.45 2721.22,1255.05 2730.25,1258.66 C2730.25,1258.66 2710.63,1251.92 2700.8,1275.99 C2700.8,1275.99 2707.47,1261.4 2703.24,1246.3 C2703.24,1246.3 2711.36,1249.64 2719.08,1243.45" id="Fill-239" fill="#F7A790"></path>
            <path d="M2708.32,1248.75 C2703.28,1248.29 2699.09,1243.59 2696.83,1239.31 C2694.58,1235.03 2693.92,1230.18 2693.29,1225.44 C2692.93,1222.74 2692.57,1220.03 2692.21,1217.33 C2691.22,1209.81 2693.05,1204.02 2695.53,1200.56 C2698.46,1196.47 2704.16,1191.69 2709.39,1191.72975 C2714.61,1191.77 2719.68,1191.64 2723.97,1194.46 C2727.34,1196.67 2730.33,1199.51 2732.13,1202.99 C2735.33,1209.17 2737.99,1222.63 2734.49,1229.19 C2730.49,1236.71 2717.98,1249.64 2708.32,1248.75" id="Fill-240" fill="#F7B6A2"></path>
            <path d="M2705.59,1200.18 C2707.52,1203.5 2707.63,1207.45 2707.96,1211.22 C2708.3,1214.99 2709.04,1219.01 2711.84,1221.72 C2715.62,1225.39 2722.31,1225.79 2725.29,1230.08 C2728.33,1234.47 2726.05,1241.11 2729.78,1245.01 C2733.85,1249.27 2742.57,1247.48 2745.83,1252.32 C2748.63,1256.51 2744.97,1261.95 2745.59,1266.87 C2746.05,1270.5 2748.82,1273.48 2751.82,1275.79 C2757.79,1280.37 2765.02,1283.2 2771.71,1286.81 C2778.39,1290.42 2784.87,1295.2 2787.67,1301.97 C2790.94,1309.87 2785.32,1318.45 2781.87,1326.29 C2779.27,1332.2 2779.31,1338.25 2776.13,1343.9 C2782.23,1339.86 2779.2,1335.94 2781.77,1332.41 C2789.37,1321.96 2795.26,1310.4 2799.16,1298.27 C2800.89,1292.88 2802.02,1286.42 2798.17,1282.11 C2795.43,1279.06 2791,1278.06 2787.03,1276.68 C2783.06,1275.3 2778.84,1272.81 2778.25,1268.85 C2777.81,1265.83 2779.65,1262.99 2781,1260.22 C2785.27,1251.54 2784.27,1239.65 2775.86,1234.3 C2771.72,1231.66 2766.47,1230.99 2762.22,1228.51 C2758.03,1226.06 2755.04,1221.86 2754.22,1217.28 C2753.59,1213.71 2754.2,1209.95 2753.02,1206.51 C2752.02,1203.59 2749.82,1201.19 2747.64,1198.91 C2740.37,1191.33 2732.2,1183.85 2721.82,1180.94 C2711.43,1178.03 2698.36,1181.26 2693.79,1190.53 C2691.8,1194.56 2694.14,1195.22 2697.27,1195.67 C2700.85,1196.19 2703.66,1196.86 2705.59,1200.18" id="Fill-241" fill="#C1571F"></path>
            <path d="M2685.02,1392.27 L2669.39,1493.29 L2667.42,1584.44 L2685.02,1586.66 C2685.02,1586.66 2701.19,1534.87 2698.44,1493.29 L2726.38,1396.28 L2685.02,1392.27" id="Fill-242" fill="#002949"></path>
            <path d="M2752.15,1385.72 C2743.72,1461.33 2743.89,1472.17 2742.03,1478.78 C2742.03,1478.78 2755.38,1551.81 2750.27,1590.74 L2732.6,1592.22 C2732.6,1592.22 2718.45,1505.22 2710.86,1483.66 C2709.71,1480.38 2708.88,1477.01 2708.29,1473.59 L2689.33,1385.72 C2689.33,1385.72 2729.29,1399.11 2752.15,1385.72" id="Fill-243" fill="#003661"></path>
            <path d="M2700.93,1275.69 C2700.85,1275.86 2700.8,1275.99 2700.8,1275.99 C2700.84,1275.88 2700.89,1275.79 2700.93,1275.69 C2701.39,1274.61 2703.07,1270.44 2703.95,1264.64 C2698.89,1269.82 2675.3,1292.38 2648.19,1293.04 L2611.41,1285.4 C2611.41,1285.4 2614.42,1298.9 2607.74,1305.98 L2639.01,1312.65 C2641.45,1313.17 2643.95,1313.26 2646.41,1312.92 L2691.14,1306.79 C2691.14,1306.79 2685.93,1288.38 2700.8,1277.7 C2700.8,1277.7 2701.6,1275.23 2702.5,1272.33 C2701.95,1273.37 2701.43,1274.49 2700.93,1275.69" id="Fill-244" fill="#66A0E5"></path>
            <path d="M2700.8,1275.99 C2700.8,1275.99 2684.1,1292.65 2688.52,1307.31 C2690,1312.22 2690.92,1317.27 2690.73,1322.37 C2690.14,1339.02 2688.15,1372.35 2681.56,1391.28 C2681.56,1391.28 2718.66,1403.53 2755.77,1390.54 C2755.77,1390.54 2750.46,1362.74 2736.43,1331.6 C2736.43,1331.6 2730.67,1309.91 2734.97,1296.66 C2734.97,1296.66 2742.81,1265.8 2730.25,1258.66 C2730.25,1258.66 2710.63,1251.92 2700.8,1275.99" id="Fill-245" fill="#F39F39"></path>
            <path d="M2597.93,1279.05 C2597.93,1279.05 2587,1291.88 2590.67,1303.12 C2592.01,1302.27 2593.87,1300.88 2595.64,1298.75 C2596.36,1297.89 2598.3,1295.52 2599.31,1292.32 C2601.23,1286.26 2598.74,1280.7 2597.93,1279.05" id="Fill-246" fill="#3F7BAB"></path>
            <path d="M2599.82,1284.49 L2558.1,1276.69 L2537.27,1266.35 C2537.27,1266.35 2516.43,1266.71 2514.78,1270.08 C2514.78,1270.08 2509.61,1276.28 2534.95,1276.69 L2557.08,1284.49 L2595.55,1300.44 C2595.55,1300.44 2602.18,1292.41 2599.82,1284.49" id="Fill-247" fill="#F7A790"></path>
            <path d="M2771.95,1351.2 C2775.83,1353.7 2777.7,1358.54 2776.13,1362.89 C2775.93,1363.46 2775.67,1364.04 2775.37,1364.6 C2773.66,1367.74 2769.68,1369.09 2766.19,1367.83 C2761.99,1366.31 2755.46,1363.47 2750.93,1359.21 C2748.75,1357.17 2748.07,1354.06 2749.3,1351.41 C2750.47,1348.87 2752.88,1346.08 2757.83,1345.2 C2757.83,1345.2 2766.09,1347.42 2771.95,1351.2" id="Fill-248" fill="#85B3EA"></path>
            <path d="M2612.88,1287.25 C2614.38,1292.44 2614.89,1300.18 2607.83,1306.08 C2606.81,1306.93 2605.49,1307.33 2604.17,1307.25 C2600.72,1307.04 2593.76,1306.22 2590.86,1303.09 C2590.86,1303.09 2601.46,1294.48 2597.93,1279.05 C2597.93,1279.05 2599.92,1278.75 2602.61,1279 C2607.53,1279.45 2611.58,1282.75 2612.88,1287.25" id="Fill-249" fill="#85B3EA"></path>
            <path d="M2703.13,1395.6 C2703.35,1397.11 2703.61,1398.52 2703.94,1399.81 C2703.94,1399.81 2746.73,1413.6 2757.73,1396.52 L2755.77,1390.55 L2755.75,1390.47 C2755.43,1388.8 2750.02,1361.77 2736.43,1331.6 C2736.43,1331.6 2730.67,1309.91 2734.98,1296.66 C2734.98,1296.66 2742.81,1265.8 2730.24,1258.66 C2730.24,1258.66 2723.39,1256.3 2715.74,1259.36 C2710.81,1265.45 2704.81,1278.7 2708.26,1305.98 C2708.26,1305.98 2708.57,1326.41 2707.24,1334.94 C2706.14,1341.96 2706.85,1338.93 2707.14,1337.63 C2706.38,1342.02 2700.48,1376.66 2703.13,1395.6" id="Fill-250" fill="#66A0E5"></path>
            <path d="M2765.03,1367.07 C2765.03,1367.07 2758.34,1371.65 2754.6,1381.57 C2753.95,1383.3 2752.48,1384.66 2750.62,1385.19 L2739.09,1383.73 C2739.09,1383.73 2733.89,1383.99 2731.12,1386.6 C2730.26,1387.41 2729.33,1388.13 2728.22,1388.6 C2726.13,1389.49 2722.9,1390.39 2720.62,1388.83 C2719.79,1388.26 2719.59,1387.16 2720.16,1386.36 C2722.8,1382.62 2731.99,1371.47 2747.17,1372.26 L2753.85,1361.55 C2753.85,1361.55 2761.42,1366.04 2765.03,1367.07" id="Fill-251" fill="#F7A790"></path>
            <path d="M2748.32,1590.9 L2753.93,1624.28 C2754.29,1626.43 2752.74,1628.46 2750.45,1628.79 L2708.9,1634.92 C2707.78,1635.09 2707.2,1633.72 2708.13,1633.11 L2738.49,1613.25 L2732.6,1592.22 L2748.32,1590.9" id="Fill-252" fill="#F7B690"></path>
            <path d="M2753.93,1624.24 L2752.96,1618.49 L2720.8,1624.82 L2708.3,1633 C2707.34,1633.63 2707.94,1635.06 2709.11,1634.89 L2750.41,1628.8 C2752.72,1628.46 2754.29,1626.42 2753.93,1624.24" id="Fill-253" fill="#002949"></path>
            <path d="M2685.02,1586.66 L2677.13,1629.41 C2676.72,1631.65 2674.56,1633.22 2672.15,1633.03 L2620.04,1628.82 C2619.27,1628.76 2619.13,1627.75 2619.85,1627.5 L2664.28,1612.92 L2667.42,1584.44 L2685.02,1586.66" id="Fill-254" fill="#F7B690"></path>
            <path d="M2678.02,1624.6 L2635.92,1622.01 L2619.08,1627.74 C2618.28,1628.01 2618.45,1629.11 2619.29,1629.17 L2672.99,1632.71 C2675.71,1632.89 2678.02,1630.86 2678.02,1628.28 L2678.02,1624.6" id="Fill-255" fill="#002949"></path>
            <path d="M2754.07,1281.66 C2750.68,1278.32 2738.15,1264.62 2734.97,1261.9 C2731.71,1259.09 2726.64,1258.11 2722.32,1258.96 C2718.06,1259.79 2715.52,1264.28 2715.67,1268.38 C2715.82,1272.48 2717.99,1276.24 2720.18,1279.79 C2723.43,1285.05 2726.89,1290.26 2731.33,1294.68 C2734.41,1297.75 2737.92,1300.39 2741.29,1303.17 C2749.39,1309.85 2756.68,1317.34 2763.96,1324.81 C2765.3,1326.19 2766.72,1327.73 2766.85,1329.6 C2766.95,1331.06 2766.24,1332.45 2765.53,1333.76 C2763.14,1338.12 2760.57,1342.38 2757.83,1346.54 C2757.41,1347.18 2756.97,1347.9 2757.16,1348.62 C2757.29,1349.13 2757.72,1349.52 2758.14,1349.87 C2761.51,1352.68 2765.63,1354.68 2770,1355.65 C2770.75,1355.81 2771.55,1355.95 2772.29,1355.74 C2773.09,1355.51 2773.7,1354.93 2774.27,1354.35 C2781.46,1347.01 2793.91,1326.95 2786.21,1317.41 C2781.31,1311.35 2775.06,1306.02 2770.04,1299.93 C2764.9,1293.7 2759.86,1287.37 2754.07,1281.66" id="Fill-256" fill="#66A0E5"></path>
        </g>
    </g>
</svg>