<svg id="Layer_1" data-name="Layer 1" xmlns="http://www.w3.org/2000/svg" viewBox="0 0 828.87 829.78"><defs><style>.cls-1{fill:#fff;}.cls-2{fill:#c0fcd5;}.cls-3{fill:#75db99;}.cls-4{fill:#46c777;}.cls-5{fill:#5479f7;}.cls-6{fill:#99b9ff;}</style></defs><path class="cls-1" d="M423.6-115" transform="translate(-666.5 -71.31)"/><path class="cls-1" d="M423.6,1385" transform="translate(-666.5 -71.31)"/><g id="Cross-platform_development" data-name="Cross-platform development"><path class="cls-2" d="M1283.46,822.65c207.33-129.56,210.12-362.44,210-373.12-.74-116.69-54.3-285.25-199.07-349.83-68.61-30.6-177.06-46.45-254.38,5.09C967.85,152.92,999.14,208.91,919.49,305c-91.74,110.7-165.53,95.75-227,192.42-40.63,63.86-22.7,141.14-17.57,163.31C712.57,823.26,910.38,879.13,932.57,885,1108.68,931.87,1253.65,841.28,1283.46,822.65Z" transform="translate(-666.5 -71.31)"/><path class="cls-3" d="M878.06,158.16l547.08-1.59A18.74,18.74,0,0,1,1443.8,177l-38.29,431.48a18.74,18.74,0,0,1-18.66,17.07L713,625.41c-11,0-19.75-10.41-18.78-21.37l38.3-428.8c.86-9.67,8.65-18.13,18.35-18.13l127.23,1Z" transform="translate(-666.5 -71.31)"/><path class="cls-1" d="M852,158.16h547a18.73,18.73,0,0,1,18.66,20.4L1379.51,607A18.74,18.74,0,0,1,1360.85,624H686.94a18.73,18.73,0,0,1-18.66-20.39l38.12-428.4a18.73,18.73,0,0,1,18.66-17.08Z" transform="translate(-666.5 -71.31)"/><path d="M773.64,625.53h-86.7a20.22,20.22,0,0,1-20.15-22L704.9,175.1a20.14,20.14,0,0,1,20.16-18.44H852a1.5,1.5,0,0,1,0,3H725.06a17.16,17.16,0,0,0-17.17,15.71l-38.12,428.4a17.23,17.23,0,0,0,17.17,18.76h86.7a1.5,1.5,0,1,1,0,3Z" transform="translate(-666.5 -71.31)"/><path d="M1401.6,355.8h-.13a1.49,1.49,0,0,1-1.36-1.63l16-175.74A17.23,17.23,0,0,0,1399,159.66H852a1.5,1.5,0,0,1,0-3h547a20.25,20.25,0,0,1,20.16,22l-16,175.75A1.51,1.51,0,0,1,1401.6,355.8Z" transform="translate(-666.5 -71.31)"/><path class="cls-2" d="M864.14,175.61h516.45a17.45,17.45,0,0,1,17.62,18.83l-36,395.41a17.54,17.54,0,0,1-17.62,15.76H708.32a17.45,17.45,0,0,1-17.62-18.82l36-395.42a17.54,17.54,0,0,1,17.62-15.76Z" transform="translate(-666.5 -71.31)"/><path class="cls-3" d="M1395.83,220.81l2.38-26.18a17.5,17.5,0,0,0-17.62-18.88H744.31a17.58,17.58,0,0,0-17.62,15.81L724,220.81Z" transform="translate(-666.5 -71.31)"/><polygon class="cls-3" points="215.41 278.01 69.7 278.01 80.3 167.89 226 167.89 215.41 278.01"/><polygon class="cls-3" points="375.1 278.77 229.4 278.77 239.99 168.64 385.69 168.64 375.1 278.77"/><polygon class="cls-3" points="535.77 278.01 390.07 278.01 400.66 167.89 546.36 167.89 535.77 278.01"/><polygon class="cls-3" points="513.32 520.14 47.25 520.14 65.09 334.6 531.17 334.6 513.32 520.14"/><polygon class="cls-3" points="531.36 324.02 65.28 324.02 68.55 290.08 534.62 290.08 531.36 324.02"/><polygon class="cls-3" points="673.76 521.05 530.28 521.05 563.16 166.05 706.64 166.05 673.76 521.05"/><path class="cls-4" d="M1201.89,778.64c-12.78-10.44-26.19-20.17-39.93-29.45-27.87-18.84-57.25-35.68-86.94-52-15.62-8.59-31.84-16.35-47.85-24.34s-32.25-16-48.41-24Q956.62,638,934.51,627C901,513.82,864.64,385.46,871.87,385.46L1421,370c12.93,0,21.6,10.52,19.34,23.44l-66.55,379.43c-2.27,12.93-14.63,23.45-27.55,23.45H1224C1216.82,790.21,1209.18,784.6,1201.89,778.64Z" transform="translate(-666.5 -71.31)"/><path class="cls-3" d="M856.19,371.29h553.42c12.22,0,20.38,9.9,18.24,22.11L1361.3,772.83c-2.14,12.22-13.78,22.12-26,22.12H781.89c-12.21,0-20.38-9.9-18.24-22.12L830.2,393.4C832.34,381.19,844,371.29,856.19,371.29Z" transform="translate(-666.5 -71.31)"/><path d="M1409.91,495.94l-.27,0a1.49,1.49,0,0,1-1.21-1.73l17.94-101a17.46,17.46,0,0,0-3.5-14.53,16.94,16.94,0,0,0-13.26-5.82h-45.54a1.5,1.5,0,0,1,0-3h45.54a19.85,19.85,0,0,1,15.55,6.89,20.44,20.44,0,0,1,4.17,17l-17.95,101A1.5,1.5,0,0,1,1409.91,495.94Z" transform="translate(-666.5 -71.31)"/><path d="M767.24,757.68l-.26,0a1.5,1.5,0,0,1-1.22-1.74l63-362.77c2.26-12.88,14.58-23.36,27.47-23.36H1004a1.5,1.5,0,0,1,0,3H856.19c-11.5,0-22.49,9.36-24.51,20.87l-63,362.77A1.51,1.51,0,0,1,767.24,757.68Z" transform="translate(-666.5 -71.31)"/><path class="cls-3" d="M694.55,795.17h643.61c8.57,0,15.55,7.09,15.55,16.2s-7,16.19-15.55,16.19H694.55c-8.59,0-15.55-7.07-15.55-16.19S686,795.17,694.55,795.17Z" transform="translate(-666.5 -71.31)"/><path d="M1119.06,829.06H694.55c-9.56,0-17-7.77-17-17.69s7.49-17.7,17-17.7h502.19l23.32.66a1.5,1.5,0,0,1,0,3h0l-23.29-.66H694.55c-7.88,0-14,6.46-14,14.7s6.17,14.69,14,14.69h502.19l28.57-.51h0a1.5,1.5,0,0,1,0,3l-28.6.51Z" transform="translate(-666.5 -71.31)"/><path class="cls-1" d="M869.84,385.92h523c11.55,0,19.26,9.21,17.24,20.59l-62.89,353.22c-2,11.37-13,20.59-24.57,20.59h-523c-11.54,0-19.26-9.22-17.23-20.59l62.89-353.22C847.29,395.13,858.29,385.92,869.84,385.92Z" transform="translate(-666.5 -71.31)"/><path class="cls-2" d="M1407.37,421.85l2.73-15.31c2-11.37-5.69-20.56-17.24-20.56h-523c-11.55,0-22.55,9.19-24.57,20.56l-2.73,15.31Z" transform="translate(-666.5 -71.31)"/><polygon class="cls-2" points="497.72 600.63 157.62 600.63 201.16 369.5 540.76 369.5 497.72 600.63"/><polygon class="cls-2" points="479.21 691.3 139.68 691.3 154.87 617.57 494.4 617.57 479.21 691.3"/><polygon class="cls-2" points="709.71 437.59 542.2 437.59 555.18 368.47 722.68 368.47 709.71 437.59"/><polygon class="cls-2" points="695.42 523.75 527.91 523.75 540.89 454.63 708.39 454.63 695.42 523.75"/><polygon class="cls-2" points="680.07 606.13 512.56 606.13 525.53 537.01 693.04 537.01 680.07 606.13"/><polygon class="cls-2" points="663.78 692.3 496.28 692.3 509.25 623.17 676.75 623.17 663.78 692.3"/><path d="M1433.92,899.09H1250.51a12.32,12.32,0,0,1-12.5-14.27l45.16-356.77a16.69,16.69,0,0,1,16.11-14.26l174.21-2c20,0,22.7,8.42,21.71,16.3L1450,884.82A16.71,16.71,0,0,1,1433.92,899.09Z" transform="translate(-666.5 -71.31)"/><path class="cls-3" d="M1422.88,899.09h-183.4A12.35,12.35,0,0,1,1227,884.78l45.16-357.91a16.72,16.72,0,0,1,16.12-14.31h183.41a12.34,12.34,0,0,1,12.5,14.31L1439,884.78A16.72,16.72,0,0,1,1422.88,899.09Z" transform="translate(-666.5 -71.31)"/><path class="cls-2" d="M1377.65,530.76a4.62,4.62,0,0,1-4.68-5.36,6.26,6.26,0,0,1,6-5.36,4.62,4.62,0,0,1,4.68,5.36A6.26,6.26,0,0,1,1377.65,530.76Z" transform="translate(-666.5 -71.31)"/><path class="cls-1" d="M1237.42,885.27l43.12-341.74a3.86,3.86,0,0,1,3.72-3.3h184.4a2.85,2.85,0,0,1,2.88,3.3l-43.12,341.74a3.86,3.86,0,0,1-3.72,3.3H1240.31A2.85,2.85,0,0,1,1237.42,885.27Z" transform="translate(-666.5 -71.31)"/><path class="cls-4" d="M1469.05,561.32l2.49-19.7a2.77,2.77,0,0,0-2.88-3.21h-184.4a3.78,3.78,0,0,0-3.72,3.21l-2.49,19.7Z" transform="translate(-666.5 -71.31)"/><circle class="cls-2" cx="796.72" cy="471.91" r="2.33"/><circle class="cls-2" cx="796.05" cy="478.79" r="2.33"/><circle class="cls-2" cx="795.27" cy="485.56" r="2.33"/><polygon class="cls-2" points="781.87 597.6 607.26 597.6 619.69 499.81 794.3 499.81 781.87 597.6"/><polygon class="cls-2" points="767.51 702.67 592.9 702.67 605.34 604.89 779.94 604.89 767.51 702.67"/><polygon class="cls-2" points="754.94 809.35 580.34 809.35 592.77 711.57 767.38 711.57 754.94 809.35"/><path d="M1422.88,900.59h-183.4a14,14,0,0,1-10.69-4.66,14.21,14.21,0,0,1-3.31-11.34l45.16-357.91a18.29,18.29,0,0,1,17.61-15.62h183.41a14,14,0,0,1,10.68,4.66,14.21,14.21,0,0,1,3.31,11.34L1440.49,885A18.29,18.29,0,0,1,1422.88,900.59Zm-175.1-180.73,1.49.18L1228.46,885a11.21,11.21,0,0,0,2.59,9,11,11,0,0,0,8.43,3.65h183.4a15.2,15.2,0,0,0,14.63-13l45.16-357.91a11.25,11.25,0,0,0-2.58-9,11,11,0,0,0-8.43-3.64H1288.25a15.2,15.2,0,0,0-14.63,13l-24.35,193Z" transform="translate(-666.5 -71.31)"/><polygon class="cls-1" points="321.63 765.67 326.16 797.46 335.96 797.46 336.51 766.2 321.63 765.67"/><path d="M1002.47,870.28h-9.81a1.5,1.5,0,0,1-1.48-1.29l-4.53-31.79A1.51,1.51,0,0,1,987,836a1.49,1.49,0,0,1,1.17-.49l14.87.52a1.5,1.5,0,0,1,1.45,1.53L1004,868.8A1.51,1.51,0,0,1,1002.47,870.28Zm-8.5-3h7l.5-28.32-11.62-.41Z" transform="translate(-666.5 -71.31)"/><path class="cls-1" d="M992.27,899.17a78.4,78.4,0,0,0,21.31-.71,5,5,0,0,0,4-6.29c-2.24-8-7.08-23.09-13.16-30l-1.33,3.89-2.12-3.55a1.8,1.8,0,0,0-1.36-.85l-4.42-.42a1.79,1.79,0,0,0-1.92,1.47l-.59,3.35L991,861.77l-3.15,31.93A5,5,0,0,0,992.27,899.17Z" transform="translate(-666.5 -71.31)"/><path d="M1000.28,901.09a75.78,75.78,0,0,1-8.17-.43,6.51,6.51,0,0,1-5.76-7.1l3.14-31.94a1.51,1.51,0,0,1,1.29-1.34,1.53,1.53,0,0,1,1.57.85,3.27,3.27,0,0,1,3-1.35l4.42.41a3.29,3.29,0,0,1,2.5,1.58l.47.77.28-.82a1.5,1.5,0,0,1,2.54-.51c6.24,7,11.13,22.17,13.49,30.55a6.5,6.5,0,0,1-.76,5.23,6.57,6.57,0,0,1-4.41,3A80.2,80.2,0,0,1,1000.28,901.09Zm-8.34-33.69-2.6,26.45a3.5,3.5,0,0,0,3.09,3.83h0a76.85,76.85,0,0,0,20.9-.7,3.51,3.51,0,0,0,2.79-4.41c-2.07-7.35-6.12-20-11.19-27.26l-.44,1.26a1.49,1.49,0,0,1-2.7.29l-2.13-3.55a.3.3,0,0,0-.21-.13l-4.42-.41a.27.27,0,0,0-.3.23l-.59,3.35a1.51,1.51,0,0,1-1.33,1.23A1.52,1.52,0,0,1,991.94,867.4Z" transform="translate(-666.5 -71.31)"/><path d="M1003.41,895.66a55,55,0,0,1-12.34-1.36,1.5,1.5,0,0,1,.73-2.91c.11,0,11.51,2.81,22.18,0a1.5,1.5,0,1,1,.76,2.9A45,45,0,0,1,1003.41,895.66Z" transform="translate(-666.5 -71.31)"/><path d="M1007.36,883.23H996.85a1.5,1.5,0,1,1,0-3h10.51a1.5,1.5,0,1,1,0,3Z" transform="translate(-666.5 -71.31)"/><polygon class="cls-1" points="238.47 768.51 234.4 805.56 218.81 808.83 219.76 765.38 238.47 768.51"/><path d="M885.31,881.64a1.56,1.56,0,0,1-1-.34,1.52,1.52,0,0,1-.54-1.19l1-43.45a1.52,1.52,0,0,1,1.75-1.45l18.71,3.13a1.52,1.52,0,0,1,1.25,1.65l-4.08,37a1.51,1.51,0,0,1-1.18,1.31l-15.59,3.26A1.55,1.55,0,0,1,885.31,881.64Zm2.41-43.18-.87,39.83,12.68-2.66,3.8-34.56Z" transform="translate(-666.5 -71.31)"/><path class="cls-1" d="M907.48,896.3s2-17.83-3.59-26l-12.47,4.44v-2.66A1.55,1.55,0,0,0,890,870.5l-7-.4a15.17,15.17,0,0,0-7.55,1.55c-8.33,4.1-27.5,14.65-26.89,24.77C848.63,896.42,863.72,900.17,907.48,896.3Z" transform="translate(-666.5 -71.31)"/><path d="M872.12,899.56c-16.78,0-23.44-1.58-23.85-1.68a1.5,1.5,0,0,1-1.14-1.37c-.63-10.62,17.1-21,27.73-26.2a16.7,16.7,0,0,1,8.3-1.71l7,.4a3.06,3.06,0,0,1,2.81,3.11v.54l10.47-3.73a1.48,1.48,0,0,1,1.73.56c5.84,8.51,3.93,26.24,3.85,27a1.51,1.51,0,0,1-1.36,1.33C892.6,899.12,881,899.56,872.12,899.56Zm-22-4.37c4.25.73,20.48,2.78,55.94-.27.3-3.88.88-16.08-2.85-22.77l-11.33,4a1.46,1.46,0,0,1-1.36-.18,1.5,1.5,0,0,1-.64-1.23v-2.66a.19.19,0,0,0,0-.13L883,871.6a13.74,13.74,0,0,0-6.81,1.4C860.46,880.73,850.9,888.92,850.16,895.19Zm57.32,1.11h0Z" transform="translate(-666.5 -71.31)"/><path d="M886.24,894.07a186.11,186.11,0,0,1-33.09-2.88,1.49,1.49,0,1,1,.59-2.93c.24,0,24.51,4.85,50.91,1.79a1.5,1.5,0,0,1,.34,3A163.79,163.79,0,0,1,886.24,894.07Z" transform="translate(-666.5 -71.31)"/><path d="M871.42,884.66a1.52,1.52,0,0,1-1.22-.63,1.49,1.49,0,0,1,.35-2.09l12-8.63a1.5,1.5,0,0,1,1.75,2.43l-12,8.64A1.51,1.51,0,0,1,871.42,884.66Z" transform="translate(-666.5 -71.31)"/><path class="cls-5" d="M900.11,599.41s-22.36,142.13-17.6,244.42l24.86.64s26.67-144.26,40-170.06c0,0,36.14,131.52,37.53,169,0,0,16.08,1.62,22.49-.69,3.45-36.13,4.48-66.87,4.65-90.34.5-67.2-5.92-97.72-9.44-112.2-3.24-13.29-6.71-24.1-9.24-31.41l-8.46-24.13Z" transform="translate(-666.5 -71.31)"/><path class="cls-1" d="M946,672.93a1.51,1.51,0,0,1-1.45-1.12L941,657.9l-8.58-1.77a1.5,1.5,0,1,1,.61-2.94l9.5,2a1.49,1.49,0,0,1,1.14,1.1l3.84,14.81a1.5,1.5,0,0,1-1.08,1.82A1.24,1.24,0,0,1,946,672.93Z" transform="translate(-666.5 -71.31)"/><path d="M902.3,473.34c14.55-1.64,45.33-4.56,67-2.76A32.16,32.16,0,0,1,987.35,478c15.38,13,48.7,45.53,49.13,84.05l-34.13-5s12,43.19,11.23,50.13-22,18.74-48.37,9.06-64.45-8.51-76.76,0L887.26,563H835.34s17.17-55.88,50.48-82.85A31.84,31.84,0,0,1,902.3,473.34Z" transform="translate(-666.5 -71.31)"/><path class="cls-1" d="M835.34,563s-4.06,18.58,14.41,24.16,36-28.05,36-28.05L872.9,551.7Z" transform="translate(-666.5 -71.31)"/><path d="M854,589.33a16,16,0,0,1-4.68-.7c-19.57-5.91-15.48-25.71-15.43-25.91a1.5,1.5,0,0,1,1-1.12l37.55-11.33a1.54,1.54,0,0,1,1.19.13l12.86,7.46a1.5,1.5,0,0,1,.58,2C886.41,561.15,871.49,589.33,854,589.33Zm-17.33-25.12c-.51,3.57-1.4,17,13.52,21.55,15.12,4.56,30.19-20.12,33.55-26l-11-6.39Z" transform="translate(-666.5 -71.31)"/><path class="cls-6" d="M955.13,605.38H864.36a5,5,0,0,1-4.86-3.8l-18.33-73.89a5,5,0,0,1,4.86-6.21h90.78a5,5,0,0,1,4.86,3.8L960,599.17A5,5,0,0,1,955.13,605.38Z" transform="translate(-666.5 -71.31)"/><path d="M955.13,606.88H864.36a6.5,6.5,0,0,1-6.32-4.94l-18.32-73.89A6.51,6.51,0,0,1,846,520h90.78a6.48,6.48,0,0,1,6.31,4.94l18.33,73.89a6.51,6.51,0,0,1-6.32,8.07ZM846,523a3.51,3.51,0,0,0-3.4,4.35L861,601.22a3.49,3.49,0,0,0,3.4,2.66h90.77a3.52,3.52,0,0,0,3.41-4.35l-18.33-73.89a3.51,3.51,0,0,0-3.4-2.66Z" transform="translate(-666.5 -71.31)"/><path class="cls-1" d="M847.91,558.21l2.67,7.39,21.82-10.39s12,10.39-17.09,23.71C843.19,584.47,847.91,558.21,847.91,558.21Z" transform="translate(-666.5 -71.31)"/><path d="M852.28,581.18a5.26,5.26,0,0,1-3.31-1.1c-5.56-4.31-2.86-20.32-2.54-22.13a1.5,1.5,0,0,1,2.89-.25l2.11,5.84,20.33-9.69a1.5,1.5,0,0,1,1.63.23,9.46,9.46,0,0,1,2.87,8.15c-.89,6.22-7.73,12.29-20.32,18A8.84,8.84,0,0,1,852.28,581.18Zm-3.64-16.54c-.39,5.47,0,11.36,2.17,13.07.32.25,1.31,1,3.88-.15,14.46-6.62,18.1-12.22,18.6-15.75A6.36,6.36,0,0,0,872,557L851.22,567a1.5,1.5,0,0,1-2.05-.85Z" transform="translate(-666.5 -71.31)"/><path class="cls-1" d="M976.3,520.6s40.8,22.9,49.22,30.09,17.55,12.66,5.68,28.38-62.45-47.26-62.45-47.26-9.72,1.61-13.11-11.63c0,0-16.41.59-17-4.56l23.14-4.14A9.18,9.18,0,0,1,970,514.1Z" transform="translate(-666.5 -71.31)"/><path d="M1026,583.09c-16.88,0-53-43.77-57.88-49.74-2.64.06-10.29-.8-13.56-11.64-5.12.07-16.72-.35-17.36-5.92a1.5,1.5,0,0,1,1.22-1.65L961.51,510a10.68,10.68,0,0,1,9.52,3l6.19,6.34c3.38,1.9,41,23.13,49.28,30.16.64.56,1.29,1.1,1.94,1.64,7.75,6.45,15.77,13.13,4,28.79a7.67,7.67,0,0,1-6.3,3.11Zm-57.21-52.78a1.52,1.52,0,0,1,1.18.56c11,13.72,42.5,49.22,56,49.22h.11a4.72,4.72,0,0,0,4-1.92c10.08-13.37,4.39-18.11-3.49-24.68-.66-.54-1.32-1.09-2-1.65-8.21-7-48.58-29.71-49-29.94a1.23,1.23,0,0,1-.34-.26l-6.35-6.49A7.65,7.65,0,0,0,962,513l-20.85,3.72c2.46,1.44,8.75,2.21,14.4,2a1.51,1.51,0,0,1,1.5,1.13c3,11.66,11.08,10.57,11.42,10.52A.93.93,0,0,1,968.74,530.31Z" transform="translate(-666.5 -71.31)"/><path d="M918.72,446.71c-.74,1.27.79,3.75.8,3.75s-.73-7.26-4.77-9.1c-2.35-1.06-3.56.71-7,.23a12.13,12.13,0,0,1-9.33-7.28c-1.85-4.85.82-9.48,2.5-12.4s3.8-6.13,7.49-7.53c4.81-1.81,6.83,1,12.34-.74,4.48-1.39,4.15-3.55,8.14-4.68,3.32-.95,12.9-.41,15,4.68,1.36,3.24-1.58,5.2-.11,10,.88,2.88,2.26,3.23,3.26,5.45,2.5,5.51-.63,15.18-6.59,18.42C932.36,451.9,920.47,443.68,918.72,446.71Z" transform="translate(-666.5 -71.31)"/><path class="cls-1" d="M922.19,450.6l-1.88,15.45a7.24,7.24,0,0,1-5.35,6.12l-8,2.07,24.5,18.65L959,472l-9.87-2.21a7.19,7.19,0,0,1-5.53-5.76l-4.1-22.76Z" transform="translate(-666.5 -71.31)"/><path d="M931.51,494.39a1.47,1.47,0,0,1-.91-.31l-24.5-18.65a1.52,1.52,0,0,1-.56-1.49,1.49,1.49,0,0,1,1.09-1.15l8-2.07a5.7,5.7,0,0,0,4.24-4.85l1.88-15.45a1.51,1.51,0,0,1,.78-1.14L938.82,440A1.49,1.49,0,0,1,941,441l4.1,22.76a5.71,5.71,0,0,0,4.39,4.57l9.87,2.21a1.49,1.49,0,0,1,1.14,1.14,1.51,1.51,0,0,1-.56,1.51l-27.53,20.89A1.48,1.48,0,0,1,931.51,494.39Zm-21.14-19.48L931.51,491l24-18.24-6.72-1.5a8.72,8.72,0,0,1-6.68-7l-3.73-20.72-14.84,8-1.79,14.67a8.67,8.67,0,0,1-6.45,7.39Z" transform="translate(-666.5 -71.31)"/><path class="cls-1" d="M937.55,444.41s6.1-2.29,3.81-7.33-6-1.32-6-1.32-3.46-12.42-10.74-7.52a51.23,51.23,0,0,1-14.18,6.67s2.56,12.5,7.17,20.81c2.77,5,6.29,8.51,10.44,6.83,11.36-4.62,9.52-18.14,9.52-18.14Z" transform="translate(-666.5 -71.31)"/><path d="M925.94,464.47c-2.78,0-6.21-1.78-9.66-8-4.67-8.42-7.23-20.71-7.33-21.23a1.5,1.5,0,0,1,1.09-1.76A50.15,50.15,0,0,0,923.76,427a6.61,6.61,0,0,1,6.17-1c3.27,1.21,5.25,5.06,6.2,7.47A4.6,4.6,0,0,1,939,433c1.59.29,2.85,1.45,3.77,3.45a6.15,6.15,0,0,1,.21,5,8.24,8.24,0,0,1-3.82,3.89c.16,3.53-.24,14.43-10.52,18.61A7.08,7.08,0,0,1,925.94,464.47ZM912.19,436c.79,3.41,3.14,12.6,6.71,19.05,2.89,5.22,5.78,7.29,8.57,6.16,10.11-4.11,8.66-16,8.6-16.55A1.5,1.5,0,0,1,937,443h0a6.06,6.06,0,0,0,3.15-2.73,3.12,3.12,0,0,0-.18-2.58c-.32-.73-.86-1.62-1.56-1.75a2.93,2.93,0,0,0-2,.87,1.5,1.5,0,0,1-2.5-.66c-.49-1.72-2.33-6.4-5-7.38a3.71,3.71,0,0,0-3.46.7A54.15,54.15,0,0,1,912.19,436Z" transform="translate(-666.5 -71.31)"/><circle class="cls-1" cx="775.48" cy="229.02" r="42.21" transform="translate(-687.25 16.82) rotate(-6.42)"/><path d="M775.45,186.81v3h0c.66,0,1.33,0,2,.05a39.21,39.21,0,0,1-1.93,78.38c-.67,0-1.34,0-2-.05a39.21,39.21,0,0,1,1.93-78.38v-3Zm0,0a42.21,42.21,0,0,0-2.09,84.37c.73,0,1.44.06,2.16.06a42.22,42.22,0,0,0,2.08-84.38c-.72,0-1.44-.05-2.15-.05Z" transform="translate(-666.5 -71.31)"/><path class="cls-5" d="M770.8,258a5.27,5.27,0,0,1-4.39-2.8l-16.09-30.7a5.26,5.26,0,0,1,9.31-4.88l11.8,22.52,21.47-34.91a5.25,5.25,0,0,1,9,5.5l-26.31,42.78a5.27,5.27,0,0,1-4.66,2.5Z" transform="translate(-666.5 -71.31)"/><circle class="cls-1" cx="1366.99" cy="619.04" r="42.21" transform="translate(-762.12 212.08) rotate(-11.44)"/><path d="M1367,576.83v3h0c.75,0,1.51,0,2.26.06a39.22,39.22,0,0,1-2.18,78.37c-.75,0-1.51,0-2.25-.07a39.21,39.21,0,0,1,2.17-78.36v-3Zm0,0a42.21,42.21,0,0,0-2.34,84.36c.81,0,1.62.07,2.42.07a42.22,42.22,0,0,0,2.35-84.37c-.82,0-1.62-.06-2.43-.06Z" transform="translate(-666.5 -71.31)"/><path class="cls-5" d="M1362.13,648a5.23,5.23,0,0,1-4.37-2.83l-15.9-30.8a5.26,5.26,0,1,1,9.34-4.82l11.66,22.59,21.69-34.77a5.25,5.25,0,1,1,8.91,5.56l-26.58,42.61a5.27,5.27,0,0,1-4.67,2.47Z" transform="translate(-666.5 -71.31)"/><circle class="cls-1" cx="1105.42" cy="539.92" r="42.21" transform="translate(-719.95 55.69) rotate(-6.42)"/><path d="M1105.39,497.71v3l1.64,0a39.22,39.22,0,0,1-1.58,78.4c-.55,0-1.1,0-1.65,0a39.21,39.21,0,0,1,1.59-78.39v-3Zm0,0a42.21,42.21,0,0,0-1.71,84.39c.59,0,1.18,0,1.77,0a42.22,42.22,0,0,0,1.7-84.4l-1.76,0Z" transform="translate(-666.5 -71.31)"/><path class="cls-5" d="M1101,569a5.27,5.27,0,0,1-4.42-2.77l-16.36-30.56a5.25,5.25,0,0,1,9.26-5l12,22.41L1122.64,518a5.25,5.25,0,0,1,9,5.43l-25.92,43a5.23,5.23,0,0,1-4.63,2.54Z" transform="translate(-666.5 -71.31)"/><path class="cls-5" d="M1119.14,433.41a51,51,0,0,0,3.62-8l14-.68,1.94-12.46L1125.6,407a51.88,51.88,0,0,0-1-8.77l11.66-7.49-4.69-11.87-13.9,1.78a54.05,54.05,0,0,0-5.34-7.2l6.16-12.29L1108.43,353l-11,8.39a54.4,54.4,0,0,0-8.22-3.71l-1-13.78-12.74-2.17-5.13,12.75a55.49,55.49,0,0,0-8.92.79l-7.89-11.61-12,4.35,2.11,13.68a53.21,53.21,0,0,0-7.22,5.09l-12.66-6.31-8,9.71,8.79,11a51,51,0,0,0-3.61,8l-14,.68-1.93,12.46,13.11,5.31a52.83,52.83,0,0,0,1,8.76l-11.67,7.49,4.7,11.88L1026,434a53.83,53.83,0,0,0,5.34,7.2l-6.16,12.29,10.07,8.1,11-8.39a55,55,0,0,0,8.23,3.72l1,13.78,12.74,2.17,5.13-12.76a54.25,54.25,0,0,0,8.91-.79l7.89,11.61,12-4.35L1100,452.86a51.67,51.67,0,0,0,7.22-5.08l12.67,6.3,8-9.7Zm-21.4-5.25c-11.44,13.8-32.32,15.64-46.64,4.11s-16.64-32-5.2-45.85,32.33-15.65,46.64-4.12S1109.19,414.36,1097.74,428.16Z" transform="translate(-666.5 -71.31)"/><path d="M1068.18,474.33l-.25,0-12.75-2.17a1.5,1.5,0,0,1-1.24-1.37L1053,458a56.58,56.58,0,0,1-6.66-3l-10.22,7.81a1.49,1.49,0,0,1-1.85,0l-10.07-8.11a1.49,1.49,0,0,1-.4-1.84l5.71-11.39a56.26,56.26,0,0,1-4.31-5.81l-13,1.66a1.51,1.51,0,0,1-1.59-.94L1006,424.42a1.5,1.5,0,0,1,.58-1.82l10.81-6.94a55.39,55.39,0,0,1-.79-7l-12.22-4.94a1.51,1.51,0,0,1-.92-1.62l1.94-12.46a1.51,1.51,0,0,1,1.41-1.27l13-.63a51.9,51.9,0,0,1,2.89-6.38l-8.17-10.19a1.49,1.49,0,0,1,0-1.9l8-9.71a1.52,1.52,0,0,1,1.83-.38l11.79,5.87a53.1,53.1,0,0,1,5.79-4.08l-2-12.68a1.5,1.5,0,0,1,1-1.64l12-4.35a1.51,1.51,0,0,1,1.76.57l7.35,10.82a55.67,55.67,0,0,1,7.19-.64l4.75-11.83a1.5,1.5,0,0,1,1.65-.92l12.74,2.17a1.5,1.5,0,0,1,1.25,1.37l.93,12.81a58,58,0,0,1,6.65,3l10.23-7.8a1.5,1.5,0,0,1,1.85,0l10.07,8.11a1.51,1.51,0,0,1,.4,1.84l-5.71,11.4a55.1,55.1,0,0,1,4.3,5.81l13-1.66a1.5,1.5,0,0,1,1.58.94l4.7,11.87a1.49,1.49,0,0,1-.59,1.81l-10.81,6.95a55.46,55.46,0,0,1,.8,7l12.21,4.95a1.49,1.49,0,0,1,.92,1.62L1138.27,425a1.49,1.49,0,0,1-1.41,1.26l-13,.64a53.45,53.45,0,0,1-2.89,6.38l8.17,10.19a1.5,1.5,0,0,1,0,1.89l-8,9.71a1.49,1.49,0,0,1-1.82.39l-11.79-5.88a53.67,53.67,0,0,1-5.79,4.08l2,12.68a1.5,1.5,0,0,1-1,1.64l-12,4.35a1.5,1.5,0,0,1-1.75-.56l-7.35-10.82a57.5,57.5,0,0,1-7.19.64l-4.76,11.83A1.51,1.51,0,0,1,1068.18,474.33Zm-11.33-4.95,10.39,1.77,4.67-11.64a1.51,1.51,0,0,1,1.39-.94,54.67,54.67,0,0,0,8.67-.76,1.48,1.48,0,0,1,1.49.63l7.24,10.65,9.75-3.54-1.93-12.46a1.49,1.49,0,0,1,.73-1.53,50.16,50.16,0,0,0,7-4.93,1.5,1.5,0,0,1,1.63-.2l11.6,5.78,6.51-7.85-8-10a1.52,1.52,0,0,1-.14-1.68,48.35,48.35,0,0,0,3.51-7.75,1.5,1.5,0,0,1,1.34-1l12.81-.62,1.57-10.08-12-4.86a1.51,1.51,0,0,1-.94-1.35,50.87,50.87,0,0,0-1-8.51,1.5,1.5,0,0,1,.66-1.56l10.63-6.82-3.82-9.65-12.74,1.64a1.53,1.53,0,0,1-1.47-.7,52.11,52.11,0,0,0-5.19-7,1.49,1.49,0,0,1-.21-1.66l5.61-11.21-8.21-6.61-10.06,7.68a1.5,1.5,0,0,1-1.64.12,52.78,52.78,0,0,0-8-3.62,1.52,1.52,0,0,1-1-1.31l-.91-12.6-10.39-1.77-4.68,11.63a1.49,1.49,0,0,1-1.38.94,53.53,53.53,0,0,0-8.67.77,1.5,1.5,0,0,1-1.5-.64L1053,345.49,1043.2,349l1.93,12.47a1.51,1.51,0,0,1-.73,1.52,50.58,50.58,0,0,0-7,4.94,1.49,1.49,0,0,1-1.63.19l-11.6-5.78-6.5,7.85,8,10a1.48,1.48,0,0,1,.14,1.67,50.6,50.6,0,0,0-3.51,7.75,1.47,1.47,0,0,1-1.34,1l-12.8.63-1.57,10.07,12,4.87a1.49,1.49,0,0,1,.94,1.34,51,51,0,0,0,1,8.52,1.49,1.49,0,0,1-.66,1.55l-10.63,6.83,3.81,9.64,12.75-1.63a1.5,1.5,0,0,1,1.46.7,53.65,53.65,0,0,0,5.19,7,1.49,1.49,0,0,1,.22,1.66L1027,453l8.21,6.62L1045.3,452a1.51,1.51,0,0,1,1.64-.12,54.46,54.46,0,0,0,8,3.62,1.49,1.49,0,0,1,1,1.3Zm15.66-28.05a35.57,35.57,0,0,1-22.35-7.89,34.45,34.45,0,0,1-12.85-23.5,32.87,32.87,0,0,1,7.44-24.48c11.94-14.41,33.81-16.35,48.73-4.33a34.48,34.48,0,0,1,12.86,23.51,32.92,32.92,0,0,1-7.44,24.48A34.13,34.13,0,0,1,1072.51,441.33Zm-1.38-65.09a31.1,31.1,0,0,0-24.07,11.13,30,30,0,0,0-6.77,22.27A31.5,31.5,0,0,0,1052,431.11c13.66,11,33.64,9.24,44.55-3.91a29.9,29.9,0,0,0,6.76-22.27,31.44,31.44,0,0,0-11.75-21.46A32.58,32.58,0,0,0,1071.13,376.24Z" transform="translate(-666.5 -71.31)"/><path class="cls-5" d="M1332.67,399.89a76.5,76.5,0,0,0,.73-13.14l19.26-8.56-4-18.48-21.23-.33a78.89,78.89,0,0,0-6.14-11.73l12.27-16.8-13-14.08-18.49,10a82.13,82.13,0,0,0-11.37-7.18l2-20.54-18.49-5.89-10.84,17.7a83.29,83.29,0,0,0-13.53-.75l-8.86-18.75-19,3.87-.27,20.63a83.14,83.14,0,0,0-12,5.93l-17.33-12-14.45,12.6,10.37,18a78.4,78.4,0,0,0-7.36,11l-21.14-2-6,17.95L1171.9,378a75.5,75.5,0,0,0-.73,13.14l-19.27,8.55,4,18.49,21.24.33a78.89,78.89,0,0,0,6.14,11.73l-12.27,16.8,13,14.08,18.5-10a81.54,81.54,0,0,0,11.37,7.18l-2,20.54,18.49,5.89,10.84-17.7a83.23,83.23,0,0,0,13.52.75l8.87,18.75,19-3.87L1283,462a81.13,81.13,0,0,0,12-5.93l17.33,12,14.45-12.6-10.37-18a77.48,77.48,0,0,0,7.35-11l21.14,2,6-17.95Zm-32.8,4.25c-8.54,25.51-36.77,39.4-63,31s-40.67-35.85-32.13-61.37,36.78-39.41,63.06-31S1308.41,378.62,1299.87,404.14Z" transform="translate(-666.5 -71.31)"/><path d="M1255.16,492.24a1.5,1.5,0,0,1-1.36-.86l-8.45-17.87a84,84,0,0,1-11.81-.66l-10.34,16.88a1.47,1.47,0,0,1-1.73.64L1203,484.48a1.49,1.49,0,0,1-1-1.57l1.86-19.54a84.73,84.73,0,0,1-9.91-6.26l-17.65,9.56a1.49,1.49,0,0,1-1.82-.3l-13-14.08a1.49,1.49,0,0,1-.1-1.9l11.66-16a80.05,80.05,0,0,1-5.32-10.18l-20.26-.3a1.49,1.49,0,0,1-1.44-1.18l-4-18.49a1.48,1.48,0,0,1,.85-1.69l18.35-8.15a76.86,76.86,0,0,1,.64-11.39l-17.39-10.08a1.52,1.52,0,0,1-.67-1.78l6-17.94a1.5,1.5,0,0,1,1.56-1l20.17,1.88a80.12,80.12,0,0,1,6.38-9.58L1168,327.38a1.5,1.5,0,0,1,.31-1.88l14.45-12.6a1.5,1.5,0,0,1,1.84-.1l16.54,11.43a84.49,84.49,0,0,1,10.5-5.17l.26-19.64a1.51,1.51,0,0,1,1.2-1.45l19-3.87a1.52,1.52,0,0,1,1.66.83l8.44,17.87a84.16,84.16,0,0,1,11.82.66l10.33-16.87a1.51,1.51,0,0,1,1.74-.65l18.48,5.89a1.5,1.5,0,0,1,1,1.58L1283.72,323a82.17,82.17,0,0,1,9.91,6.26l17.65-9.57a1.5,1.5,0,0,1,1.81.3l13,14.08a1.5,1.5,0,0,1,.11,1.9l-11.67,16a82.13,82.13,0,0,1,5.33,10.18l20.26.31a1.5,1.5,0,0,1,1.44,1.18l4,18.49a1.51,1.51,0,0,1-.86,1.69l-18.34,8.15a79.45,79.45,0,0,1-.64,11.38l17.38,10.09a1.49,1.49,0,0,1,.67,1.77l-6,18a1.49,1.49,0,0,1-1.56,1l-20.17-1.87a78.81,78.81,0,0,1-6.38,9.57l9.87,17.13a1.51,1.51,0,0,1-.32,1.88l-14.44,12.59a1.5,1.5,0,0,1-1.84.11l-16.55-11.43a85.21,85.21,0,0,1-10.5,5.17l-.25,19.63a1.5,1.5,0,0,1-1.2,1.45l-19,3.87Zm-8.87-21.75a1.52,1.52,0,0,1,1.36.86L1256,489l16.67-3.4.25-19.42a1.51,1.51,0,0,1,1-1.38,80.72,80.72,0,0,0,11.84-5.82,1.51,1.51,0,0,1,1.62.05l16.37,11.31,12.64-11-9.76-16.94a1.53,1.53,0,0,1,.13-1.69,76.19,76.19,0,0,0,7.22-10.81,1.49,1.49,0,0,1,1.45-.77l20,1.86,5.24-15.66-17.2-10a1.52,1.52,0,0,1-.73-1.51,73.73,73.73,0,0,0,.72-12.88,1.5,1.5,0,0,1,.89-1.42l18.15-8.06-3.53-16.13-20-.3a1.5,1.5,0,0,1-1.36-.92,77.35,77.35,0,0,0-6-11.51,1.49,1.49,0,0,1,.06-1.69l11.54-15.81-11.38-12.31-17.47,9.46a1.49,1.49,0,0,1-1.62-.12,79.24,79.24,0,0,0-11.16-7.05,1.51,1.51,0,0,1-.8-1.47l1.85-19.34-16.21-5.16L1256,315.86a1.55,1.55,0,0,1-1.49.7,81.53,81.53,0,0,0-13.28-.74,1.44,1.44,0,0,1-1.39-.86l-8.36-17.68-16.68,3.39-.25,19.43a1.5,1.5,0,0,1-.95,1.37,82.15,82.15,0,0,0-11.83,5.82,1.47,1.47,0,0,1-1.62-.05l-16.38-11.31-12.64,11,9.76,16.93a1.49,1.49,0,0,1-.13,1.69,76.13,76.13,0,0,0-7.21,10.81,1.49,1.49,0,0,1-1.46.77l-20-1.85L1146.94,371l17.19,10a1.5,1.5,0,0,1,.73,1.51,75.72,75.72,0,0,0-.72,12.88,1.5,1.5,0,0,1-.89,1.42l-18.14,8.06,3.52,16.13,20,.31a1.51,1.51,0,0,1,1.36.92,78.18,78.18,0,0,0,6,11.5,1.51,1.51,0,0,1,0,1.69l-11.54,15.81,11.37,12.32,17.47-9.47a1.51,1.51,0,0,1,1.62.12,79.48,79.48,0,0,0,11.16,7.05,1.51,1.51,0,0,1,.8,1.48L1205.05,482l16.21,5.17,10.23-16.7a1.52,1.52,0,0,1,1.48-.71,81.6,81.6,0,0,0,13.28.74Zm-2.41-27.2a52.91,52.91,0,0,1-16-2.5,51,51,0,0,1-30.28-25.56,48.61,48.61,0,0,1-2.81-37.72c8.79-26.25,37.92-40.6,64.93-32A51,51,0,0,1,1290,371.09a48.65,48.65,0,0,1,2.8,37.72h0C1285.72,429.88,1265.54,443.29,1243.88,443.29Zm-.24-97.27c-20.41,0-39.41,12.61-46,32.44a45.66,45.66,0,0,0,2.63,35.41,48,48,0,0,0,28.52,24.06c25.46,8.12,52.91-5.38,61.18-30.08h0a45.66,45.66,0,0,0-2.64-35.41,48,48,0,0,0-28.52-24.05A49.79,49.79,0,0,0,1243.64,346Zm47.71,62.31h0Z" transform="translate(-666.5 -71.31)"/><path class="cls-1" d="M1194,261.79l-2.84-10.39-11.75.54a45.22,45.22,0,0,0-3.77-6.49l6.22-10-7.66-7.57-9.9,6.34a44.59,44.59,0,0,0-6.51-3.71l.4-11.76-10.41-2.73-5.41,10.43a45.85,45.85,0,0,0-7.5,0l-5.52-10.37L1119,219l.53,11.74a44.25,44.25,0,0,0-6.48,3.78l-10-6.22-7.58,7.65,6.34,9.91a46.5,46.5,0,0,0-3.71,6.51l-11.75-.41-2.73,10.42,10.42,5.4a44.77,44.77,0,0,0,.06,7.5l-10.38,5.53,2.84,10.38,11.75-.53a45.66,45.66,0,0,0,3.77,6.48l-6.22,10,7.66,7.57,9.91-6.33a46.39,46.39,0,0,0,6.5,3.71l-.4,11.75,10.41,2.73,5.41-10.43a43.72,43.72,0,0,0,7.5-.05l5.52,10.38,10.39-2.84-.54-11.75a44.58,44.58,0,0,0,6.48-3.77l10,6.21,7.57-7.65-6.34-9.91a45,45,0,0,0,3.71-6.51l11.75.41,2.73-10.41-10.42-5.41a44.77,44.77,0,0,0-.06-7.5ZM1146.19,298a27.71,27.71,0,1,1,19.42-34A27.71,27.71,0,0,1,1146.19,298Z" transform="translate(-666.5 -71.31)"/><path d="M1125.36,325.42a1.73,1.73,0,0,1-.38-.05l-10.41-2.73a1.49,1.49,0,0,1-1.12-1.5l.37-10.78a47.17,47.17,0,0,1-5-2.84l-9.09,5.8a1.5,1.5,0,0,1-1.86-.19l-7.65-7.57a1.51,1.51,0,0,1-.22-1.87l5.7-9.12a46.23,46.23,0,0,1-2.9-5l-10.76.49a1.51,1.51,0,0,1-1.52-1.1l-2.84-10.39a1.51,1.51,0,0,1,.74-1.72l9.51-5.06a48.17,48.17,0,0,1,0-5.76l-9.55-4.95a1.49,1.49,0,0,1-.76-1.71l2.72-10.42a1.51,1.51,0,0,1,1.51-1.12l10.77.37a46.51,46.51,0,0,1,2.85-5l-5.81-9.08a1.48,1.48,0,0,1,.2-1.86l7.57-7.66a1.5,1.5,0,0,1,1.86-.22l9.13,5.7a46.87,46.87,0,0,1,5-2.89l-.49-10.77a1.48,1.48,0,0,1,1.1-1.51l10.38-2.84a1.49,1.49,0,0,1,1.72.74l5.06,9.51a44.35,44.35,0,0,1,5.76,0l5-9.56a1.5,1.5,0,0,1,1.71-.76l10.41,2.73a1.49,1.49,0,0,1,1.12,1.5l-.37,10.78a45.48,45.48,0,0,1,5,2.84l9.08-5.81a1.52,1.52,0,0,1,1.87.2l7.65,7.57a1.5,1.5,0,0,1,.22,1.86l-5.7,9.13a46.23,46.23,0,0,1,2.9,5l10.76-.49a1.51,1.51,0,0,1,1.52,1.1l2.84,10.39a1.51,1.51,0,0,1-.74,1.72l-9.51,5.06a48.17,48.17,0,0,1,0,5.76l9.55,4.95A1.48,1.48,0,0,1,1191,278l-2.73,10.42a1.48,1.48,0,0,1-1.5,1.12l-10.77-.38a47.39,47.39,0,0,1-2.85,5l5.81,9.08a1.5,1.5,0,0,1-.2,1.86l-7.57,7.66a1.48,1.48,0,0,1-1.86.21l-9.13-5.7a46.23,46.23,0,0,1-5,2.9l.49,10.76a1.5,1.5,0,0,1-1.1,1.52l-10.38,2.84a1.49,1.49,0,0,1-1.72-.74L1137.4,315a46,46,0,0,1-5.75,0l-5,9.56A1.51,1.51,0,0,1,1125.36,325.42Zm-8.87-5.38,8.09,2.12,4.85-9.36a1.5,1.5,0,0,1,1.45-.8,43.94,43.94,0,0,0,7.25-.06,1.5,1.5,0,0,1,1.46.79l5,9.32,8.07-2.21-.48-10.54a1.5,1.5,0,0,1,.86-1.43,43.91,43.91,0,0,0,6.26-3.64,1.5,1.5,0,0,1,1.66-.05l8.94,5.58,5.89-5.95-5.7-8.89a1.52,1.52,0,0,1,0-1.66,44.4,44.4,0,0,0,3.59-6.29,1.48,1.48,0,0,1,1.41-.87l10.56.37,2.12-8.1-9.36-4.85a1.5,1.5,0,0,1-.81-1.45,42.86,42.86,0,0,0,0-7.25,1.49,1.49,0,0,1,.79-1.46l9.32-5-2.21-8.07-10.55.48a1.54,1.54,0,0,1-1.42-.85,44.08,44.08,0,0,0-3.65-6.27,1.48,1.48,0,0,1,0-1.65l5.58-8.95-5.95-5.88-8.9,5.69a1.48,1.48,0,0,1-1.65,0,43.49,43.49,0,0,0-6.3-3.58,1.52,1.52,0,0,1-.86-1.42l.36-10.55L1144,215.2l-4.85,9.36a1.51,1.51,0,0,1-1.45.8,43.94,43.94,0,0,0-7.25.06,1.5,1.5,0,0,1-1.46-.79l-5-9.32-8.07,2.21.48,10.54a1.51,1.51,0,0,1-.86,1.43,43.91,43.91,0,0,0-6.26,3.64,1.5,1.5,0,0,1-1.66.05l-8.94-5.59-5.89,5.95,5.69,8.9a1.5,1.5,0,0,1,0,1.66,43.45,43.45,0,0,0-3.59,6.29,1.49,1.49,0,0,1-1.41.87l-10.56-.37-2.12,8.1,9.36,4.85a1.5,1.5,0,0,1,.81,1.45,42.86,42.86,0,0,0,0,7.25,1.5,1.5,0,0,1-.79,1.46l-9.32,5,2.21,8.07,10.55-.48a1.53,1.53,0,0,1,1.42.85,42.51,42.51,0,0,0,3.65,6.26,1.5,1.5,0,0,1,0,1.66l-5.58,8.95,6,5.88,8.9-5.69a1.46,1.46,0,0,1,1.65,0,43.93,43.93,0,0,0,6.29,3.58,1.51,1.51,0,0,1,.87,1.42Zm17.79-22.14a29.22,29.22,0,1,1,7.71-1A29.27,29.27,0,0,1,1134.28,297.9Zm0-55.45a26.37,26.37,0,0,0-7,1,26,26,0,1,0,7-1Z" transform="translate(-666.5 -71.31)"/><path d="M1114.66,878.94a12.23,12.23,0,0,1-2.68-.3,11.74,11.74,0,1,1,2.68.3Zm0-20.36a8.69,8.69,0,1,0,2,.23A8.45,8.45,0,0,0,1114.62,858.58Z" transform="translate(-666.5 -71.31)"/><path d="M1142.23,869.18a8.14,8.14,0,0,1-1.82-.21,8,8,0,1,1,3.64-15.62h0a8,8,0,0,1-1.82,15.83Zm0-13a5,5,0,1,0,1.14.13A5.61,5.61,0,0,0,1142.23,856.14Z" transform="translate(-666.5 -71.31)"/><path d="M1068,875.12a1.32,1.32,0,0,1-.34,0l-7.53-1.76a1.5,1.5,0,0,1,.68-2.92l7.53,1.76a1.5,1.5,0,0,1-.34,3Z" transform="translate(-666.5 -71.31)"/><path d="M1085.57,879.22a2,2,0,0,1-.34,0l-7.53-1.76a1.5,1.5,0,0,1,.68-2.92l7.53,1.75a1.51,1.51,0,0,1-.34,3Z" transform="translate(-666.5 -71.31)"/><path d="M1070.1,888.83a1.32,1.32,0,0,1-.34,0,1.49,1.49,0,0,1-1.12-1.8l1.76-7.53a1.5,1.5,0,1,1,2.92.68l-1.76,7.53A1.5,1.5,0,0,1,1070.1,888.83Z" transform="translate(-666.5 -71.31)"/><path d="M1074.2,871.28a1.32,1.32,0,0,1-.34,0,1.49,1.49,0,0,1-1.12-1.8l1.75-7.54a1.51,1.51,0,1,1,2.93.69l-1.76,7.53A1.5,1.5,0,0,1,1074.2,871.28Z" transform="translate(-666.5 -71.31)"/><path d="M1463.89,461.89a1.5,1.5,0,0,1-1.5-1.5v-7.76a1.5,1.5,0,1,1,3,0v7.76A1.5,1.5,0,0,1,1463.89,461.89Z" transform="translate(-666.5 -71.31)"/><path d="M1463.89,480a1.5,1.5,0,0,1-1.5-1.5V470.7a1.5,1.5,0,0,1,3,0v7.76A1.5,1.5,0,0,1,1463.89,480Z" transform="translate(-666.5 -71.31)"/><path d="M1458.73,467H1451a1.5,1.5,0,0,1,0-3h7.75a1.5,1.5,0,0,1,0,3Z" transform="translate(-666.5 -71.31)"/><path d="M1476.8,467h-7.75a1.5,1.5,0,0,1,0-3h7.75a1.5,1.5,0,0,1,0,3Z" transform="translate(-666.5 -71.31)"/><path d="M1100.42,99.9a1.5,1.5,0,0,1-.35-3,326.29,326.29,0,0,1,115.37-6.55,1.5,1.5,0,1,1-.35,3,323.68,323.68,0,0,0-114.32,6.5A1.39,1.39,0,0,1,1100.42,99.9Z" transform="translate(-666.5 -71.31)"/><path d="M1248.49,99l-.32,0c-5.14-1.12-10.35-2.13-15.48-3a1.5,1.5,0,1,1,.51-3c5.17.89,10.43,1.91,15.61,3a1.5,1.5,0,0,1-.32,3Z" transform="translate(-666.5 -71.31)"/><path d="M1268.58,126.43a1.83,1.83,0,0,1-.46-.07c-46.2-14.72-92.84-18.72-138.62-11.89a1.5,1.5,0,1,1-.45-3c46.25-6.91,93.34-2.87,140,12a1.5,1.5,0,0,1,1,1.88A1.52,1.52,0,0,1,1268.58,126.43Z" transform="translate(-666.5 -71.31)"/><path d="M1082.77,108.52a8.25,8.25,0,0,1-7.66-11.34h0a8.26,8.26,0,1,1,10.9,10.67A8.18,8.18,0,0,1,1082.77,108.52Zm0-13.52a5.27,5.27,0,0,0-4.88,3.3h0a5.25,5.25,0,1,0,6.84-2.92A5.38,5.38,0,0,0,1082.77,95Zm-6.27,2.74h0Z" transform="translate(-666.5 -71.31)"/><path d="M1468.35,426.25a7.65,7.65,0,0,1-1.84-.22,7.92,7.92,0,0,1-5-3.57,8,8,0,1,1,6.83,3.79Zm0-13a5,5,0,1,0,1.15.13h0A5,5,0,0,0,1468.32,413.21Z" transform="translate(-666.5 -71.31)"/></g></svg>