<svg xmlns="http://www.w3.org/2000/svg" viewBox="0 0 87 34">
    <path fill="#020303" fill-rule="evenodd" d="M86.81 28.58c.095 0 .164.051.184.133l.006.053v5.04c0 .094-.053.161-.136.181l-.053.006-5.13.007c-.095 0-.164-.052-.184-.134l-.006-.053v-5.04c0-.063.053-.15.136-.179l.054-.008 5.13-.007zM67.699 8.636c5.7 0 9.332 3.045 9.532 7.974l.008.27v16.861c-.003.053-.015.107-.076.126l-.055.007H72.61c-.032 0-.065 0-.12-.018l-.065-.025-.01-.01a.29.29 0 0 1-.09-.133l-.009-.071V30.89c-2.025 1.975-4.977 3.102-8.146 3.102-3.681 0-7.602-1.77-8.048-5.732-.152-1.47.032-3.596 1.013-5.132 1.546-2.318 4.52-3.166 6.621-3.606 1.08-.224 2.203-.372 3.311-.499l.828-.092.032-.01c.142-.011.295-.033.436-.044 1.535-.171 3.126-.354 3.681-1.867.327-.891.36-1.664-.544-2.491-1.406-1.396-4.553-1.481-6.415-.623-1.067.511-1.48 1.247-1.92 2.18l-.095.204-.12.236h-5.39a.403.403 0 0 1-.198-.055l-.042-.031-.022-.022v-.021c0-.01 0-.022-.01-.032l-.016-.04-.007-.046.077-.333c1.162-4.404 4.955-7.182 9.929-7.296l.319-.004h.109zm-45.483.38c.18 0 .326.145.326.322v3.871a.682.682 0 0 1-.19.473l-2.094 2.175-.002-.002-11.631 12.1c-.15.15-.38.807.244.754l13.453.01c.194 0 .312.118.312.279l-.02 4.383a.61.61 0 0 1-.59.59l-21.431-.05a.575.575 0 0 1-.573-.575L0 28.265c0-.21.081-.41.227-.56l12.327-12.862.005-.006 3.316-3.463 2.021-2.11a.8.8 0 0 1 .578-.247zm22.421-.226c.251 0 .438.157.477.387l.007.09-.04 4.096c1.775-3.022 4.639-4.216 8.673-4.216 1.008 0 1.895.12 2.702.28.161 0 .323.039.484.079.08 0 .162.159.162.238 0 .027-.018.053-.03.092l-.01.067-.041.04-1.485 4.343c-.08.159-.242.278-.443.199a12.771 12.771 0 0 0-2.22-.2c-4.197 0-7.236 4.017-7.345 9.582l-.003.31-.08 9.345c0 .217-.434.4-.695.432l-.072.005h-4.96a.446.446 0 0 1-.437-.387l-.008-.09V9.47c.003-.398.054-.61.634-.636l.133-.003 4.597-.04zm-10.978-.059c.255 0 .476.193.518.464l.007.093v24.096a.544.544 0 0 1-.441.549l-.084.007H28.34a.533.533 0 0 1-.517-.464l-.007-.092V9.289c0-.287.196-.509.44-.55l.084-.007h5.318zm38.287 13.635c-.991.312-1.971.494-2.995.558-5.685.666-6.937 1.815-7.111 3.468-.066.773.14 1.417.609 1.911.658.678 1.7.948 2.56.983l.196.004h.13c2.059 0 3.877-.697 5.108-1.964 1.155-1.18 1.47-2.61 1.5-4.345l.003-.292v-.323zM.32 8.977H11.5c.25 0 .371.26.272.455l-.036.056-4.287 4.423a.384.384 0 0 1-.172.072l-.065.006-6.931-.035a.268.268 0 0 1-.269-.21l-.007-.065V9.29c0-.135.087-.27.236-.305l.08-.01H11.5zM33.95 0c.102 0 .175.055.196.143l.007.056v5.208c0 .1-.056.172-.145.193l-.057.006H28.27c-.1 0-.174-.055-.195-.142l-.007-.057V.2a.22.22 0 0 1 .145-.19L28.27 0h5.68z"/>
</svg>
