<?xml version="1.0" encoding="UTF-8"?>
<svg width="700px" height="500px" viewBox="0 0 700 500" version="1.1" xmlns="http://www.w3.org/2000/svg" xmlns:xlink="http://www.w3.org/1999/xlink">
    <title>20943587</title>
    <defs>
        <path d="M0.00995335771,0.700284096 C2.31373294,12.0886494 4.35093662,23.5091546 5.89098508,34.9775503 C7.50201975,46.4350908 8.70173713,57.9288153 9.47604067,69.4395675 C10.1979856,80.9503197 10.6641787,92.4717142 10.5511546,103.99098 C10.4992994,115.512375 9.86243727,127.01887 9.17523029,138.567935 C8.56454746,150.114871 7.87155083,161.742689 8.58468539,173.468416 C9.28372341,185.168602 11.6456513,196.985854 16.4913415,208.08794 C17.7026382,210.854948 18.9783763,213.61557 20.4338454,216.28254 C21.8311663,218.975051 23.3699561,221.616479 24.9641252,224.232366 C28.1839291,229.451368 31.818826,234.500093 35.8801438,239.29553 C44.0329861,248.873634 53.904601,257.396018 64.8070264,264.630679 C65.9546369,265.39267 67.6147578,265.222393 68.5154269,264.251812 C69.3997339,263.300387 69.2225201,261.929654 68.1295337,261.159148 L68.1217303,261.152763 C65.5289714,259.330795 62.9639021,257.483285 60.5050604,255.548508 C59.257012,254.594955 58.0615739,253.598832 56.8444876,252.621865 C55.6727116,251.606586 54.4538632,250.62962 53.3203492,249.586671 C48.7042315,245.474472 44.4349896,241.094085 40.5702684,236.466797 C32.7952641,227.256918 26.6076323,217.016861 21.9565249,206.419221 C19.7010763,201.095924 17.9133313,195.640662 16.6282794,190.08749 C15.348262,184.534319 14.5706861,178.889623 14.1737171,173.202358 C13.3782687,161.821442 13.9516964,150.306433 14.4642068,138.75524 C14.9590965,127.204047 15.3623586,115.591128 15.1999965,103.982466 C15.1373172,98.180264 14.951293,92.3780617 14.6426792,86.5822447 C14.5080068,83.683272 14.3071309,80.7864277 14.1122964,77.8917119 C13.8847377,74.9969961 13.6380481,72.1044088 13.3636687,69.2139499 C12.2407272,57.654243 10.7014339,46.126463 8.73345438,34.6582802 C6.70053,23.1977598 4.30864696,11.7861942 1.40072938,0.472112381 C1.31740868,0.148585322 0.94032588,-0.0565989448 0.55795687,0.0138533293 C0.186663723,0.0821771358 -0.05272596,0.386547987 0.00995335771,0.700284096" id="path-1"></path>
        <path d="M612.704004,325.536062 L19.1359725,325.536062 C13.0986542,325.536062 8.15935022,321.353175 8.15935022,316.240758 L0.00773818745,23.9908399 C-0.171324157,17.5758006 2.76383964,11.3782203 8.12766222,6.84569332 C13.3227336,2.45600707 20.3544515,0 27.6731219,0 C27.9115363,0 28.1514598,0 28.3903772,0.00852780233 L46.5810492,0.407202561 L46.5730014,11.3952759 L30.6555662,11.0328443 C30.4815337,11.0285804 30.3075012,11.0264484 30.1337202,11.0264484 C24.9982524,11.0264484 20.0637267,12.7533284 16.4193553,15.8361289 C12.6517528,19.025527 10.5940448,23.3853659 10.7273356,27.8965734 L18.9958914,307.320677 C18.9958914,312.162336 23.6688654,316.125633 29.3805015,316.125633 L598.389076,316.125633 C604.10046,316.125633 608.773183,312.162336 608.773183,307.320677 L613.433331,44.8157332 C612.900168,29.4571612 597.438436,23.6625195 587.47935,23.6625195 C587.195164,23.6625195 586.918523,23.6689154 586.644397,23.6774432 L570.888419,23.3192755 L571.137397,11.9133399 L608.488997,12.7320089 C608.956772,12.7064255 609.417003,12.6915018 609.869688,12.6915018 C622.011725,12.6915018 628.618421,22.1467027 628.618421,27.0779044 L623.679117,316.240758 C623.679117,321.353175 618.739813,325.536062 612.704004,325.536062" id="path-3"></path>
        <linearGradient x1="58.8806934%" y1="61.5776167%" x2="36.5797707%" y2="32.2071377%" id="linearGradient-5">
            <stop stop-color="#08005D" offset="0%"></stop>
            <stop stop-color="#1A0F91" offset="100%"></stop>
        </linearGradient>
        <path d="M588.230807,305.068226 L18.6771362,305.068226 C12.9600285,305.068226 8.28257798,301.105332 8.28257798,296.264164 L0.0061010693,16.8684132 C-0.12731741,12.3576635 1.93236183,7.99826693 5.7035736,4.80919248 C9.35143621,1.72670475 14.290689,0 19.4310765,0 C19.6050239,0 19.7792232,0 19.9534224,0.00639520277 L35.8861062,0.368790027 L35.7192072,231.787729 C35.7189555,232.081909 35.7267592,232.376088 35.7421149,232.666004 C36.2845995,243.002783 50.4209167,251.171589 67.4395765,251.348523 L511.696429,255.955201 C511.925506,255.957332 512.152066,255.957332 512.381143,255.957332 C541.416025,255.957332 555.60873,244.471548 555.925914,230.101527 L560.703805,12.2915797 L576.474877,12.6497111 C576.749266,12.6411841 577.026172,12.6347889 577.31063,12.6347889 C587.279256,12.6347889 602.7558,18.4288427 603.289474,33.7858562 L598.624862,296.264164 C598.624862,301.105332 593.947663,305.068226 588.230807,305.068226" id="path-6"></path>
        <linearGradient x1="98.9234462%" y1="38.1443323%" x2="-0.484237207%" y2="62.3143402%" id="linearGradient-8">
            <stop stop-color="#FF928E" offset="0%"></stop>
            <stop stop-color="#FD6F61" offset="100%"></stop>
        </linearGradient>
        <path d="M15.033282,27.2904483 L685.054257,25.6322027 C693.29815,25.6106956 700.025086,19.8274382 700,12.7795637 C699.977289,5.73168912 693.212617,-0.0193076654 684.968724,0 L14.946491,1.66039633 C6.7020946,1.67975272 -0.0238354955,7.46301015 0,14.5108847 C0.0239624817,21.5609099 6.78888566,27.309756 15.033282,27.2904483" id="path-9"></path>
        <linearGradient x1="53.8436756%" y1="47.9125422%" x2="49.7321511%" y2="50.1454828%" id="linearGradient-11">
            <stop stop-color="#08005D" offset="0%"></stop>
            <stop stop-color="#1A0F91" offset="100%"></stop>
        </linearGradient>
        <path d="M475.925136,352.826511 C475.696413,352.826511 475.470203,352.826511 475.24148,352.826511 L31.6713431,348.223767 C14.67899,348.047066 0.564524204,339.889011 0.0228781841,329.565835 C0.00754620861,329.276301 0,328.982509 0,328.688717 L0.223199241,19.3000165 C0.230236869,9.36643494 9.30802308,1.18836803 20.9781699,0.118581332 C21.8329903,0.0402367534 22.7016347,0 23.5815896,0 L327.720228,0 C328.403883,2.13318661 329.193103,4.26232826 330.06778,6.33611776 C330.434742,7.20067572 331.394875,7.73993338 332.420358,7.73993338 C332.473141,7.73993338 332.525923,7.73865602 332.578705,7.73588841 C332.804914,7.72332773 333.036151,7.68372966 333.26236,7.61517815 C334.561808,7.22153922 335.237923,6.00996587 334.772937,4.91058706 C334.091795,3.29983957 333.465949,1.65439053 332.905452,0 L502.788767,0 C515.856135,0 526.379902,8.86060147 526.147541,19.6598055 L519.402597,327.004734 C519.085903,341.355843 504.915136,352.826511 475.925136,352.826511 M9.03556634,58.5851388 L8.84253425,322.406248 C8.83499394,332.386666 18.7085348,340.514916 30.9904526,340.640523 L476.664086,345.185785 C476.794785,345.185785 476.922971,345.185785 477.056183,345.185785 C493.680066,345.185785 507.287822,334.360183 507.589435,320.815938 L513.196917,69.6321501 C515.036754,70.5497184 516.936913,71.397032 518.864721,72.1591885 C519.07585,72.2422167 519.297032,72.2826664 519.513188,72.2826664 C519.545863,72.2826664 519.581051,72.2805375 519.613725,72.2784085 C520.156628,72.2507325 520.666856,71.9761007 520.913173,71.5268967 C521.275108,70.8733156 520.940821,70.0962566 520.169195,69.7896908 C517.849291,68.8742515 515.569603,67.8268185 513.397992,66.6793259 C513.35275,66.6559077 513.307508,66.6346184 513.262266,66.615458 L513.443234,58.5851388 L514.066566,58.5851388 L514.066566,30.459861 C514.066566,30.4428296 514.066566,30.4279271 514.066566,30.4108957 L514.066566,14.5993418 C514.066566,11.725288 511.316865,9.39411102 507.921209,9.39411102 L15.0610327,9.39411102 C11.4645534,9.39411102 8.54946731,11.8636684 8.54946731,14.9101654 L8.54946731,58.5851388 L9.03556634,58.5851388" id="path-12"></path>
        <path d="M505.427632,49.7076023 L492.870202,49.7076023 C492.840046,49.6796356 492.80989,49.6538202 492.779734,49.6280048 C492.475662,49.3612454 492.073583,49.2278657 491.674017,49.2278657 C491.284503,49.2278657 490.897502,49.3526402 490.595942,49.6021894 C490.555734,49.6366099 490.51804,49.6710305 490.485371,49.7076023 L444.600617,49.7076023 C445.246457,49.5376508 445.892296,49.3633967 446.530597,49.18484 C447.842379,48.8169701 448.55607,47.6079477 448.126348,46.487128 C447.782067,45.5857394 446.804513,45.0134974 445.754081,45.0134974 C445.497756,45.0134974 445.233892,45.047918 444.975053,45.1210617 C442.467086,45.824532 439.888754,46.4462535 437.310422,46.9690159 C435.968484,47.2422292 435.139196,48.3931669 435.458346,49.5419534 C435.473424,49.5978868 435.491015,49.6538202 435.511119,49.7076023 L426.856368,49.7076023 C426.401516,49.139663 425.640079,48.7760957 424.803252,48.7760957 C424.720324,48.7760957 424.637395,48.778247 424.554466,48.7868522 C421.893206,49.0084346 419.226919,49.1353604 416.603354,49.1676297 C415.977618,49.1762348 415.412195,49.3784557 414.97996,49.7076023 L405.606493,49.7076023 C405.239596,49.1030911 404.543497,48.6599263 403.694105,48.5695723 C401.075565,48.2942078 398.436922,47.9177328 395.846025,47.4509039 C395.672629,47.4186346 395.501745,47.4035756 395.330861,47.4035756 C394.174884,47.4035756 393.134505,48.0941382 392.888231,49.1030911 C392.837972,49.305312 392.822894,49.5096841 392.840485,49.7076023 L0,49.7076023 L0,5.57398068 C0,2.49549116 2.91457018,0 6.51041297,0 L499.283362,0 C502.678416,0 505.427632,2.3556576 505.427632,5.259893 L505.427632,49.7076023 M375.013307,41.6747024 C374.065908,41.6747024 373.16123,42.1372287 372.74156,42.9245992 C372.168598,43.9980907 372.721456,45.2651978 373.97544,45.7556909 C376.508538,46.7495848 379.119539,47.6595786 381.733052,48.462008 C382.011994,48.5480595 382.295963,48.5889339 382.577418,48.5889339 C382.630191,48.5889339 382.682964,48.5867826 382.733224,48.5846313 C383.698213,48.5308492 384.580274,47.9994817 384.927067,47.1712368 C385.394484,46.0590222 384.718489,44.8349407 383.419271,44.4369529 C380.938946,43.6732466 378.458621,42.8105811 376.051173,41.868318 C375.714432,41.7370896 375.362613,41.6747024 375.013307,41.6747024 M482.127153,38.4929511 C481.863289,38.4929511 481.594399,38.5510358 481.350638,38.6736591 C480.614331,39.0415289 480.365545,39.8504123 480.79778,40.4807389 C482.14977,42.4620728 483.662593,44.3960785 485.293525,46.2289737 C485.597598,46.5688768 486.054963,46.7495848 486.519866,46.7495848 C486.552535,46.7495848 486.587717,46.7474335 486.620386,46.7452822 C486.911893,46.7302232 487.203401,46.6441718 487.4547,46.4785228 C488.133208,46.0375093 488.263884,45.2092644 487.746207,44.6284173 C486.193177,42.8815735 484.750719,41.0357706 483.45904,39.1469419 C483.172559,38.7274412 482.657395,38.4929511 482.127153,38.4929511 M465.234809,37.4130058 C464.800061,37.4130058 464.357774,37.5119649 463.955695,37.7163371 C461.686462,38.8758799 459.331787,39.968733 456.957008,40.9604756 C455.718102,41.4789354 455.202938,42.7589502 455.80857,43.819534 C456.240804,44.5789378 457.130404,45.0221026 458.055186,45.0221026 C458.107959,45.0221026 458.158219,45.0199513 458.210992,45.0178 C458.527629,45.0005897 458.844266,44.9295973 459.148338,44.8048227 C461.648767,43.759298 464.129092,42.6083602 466.518949,41.3864301 C467.702569,40.7819189 468.087057,39.4696347 467.380906,38.454228 C466.913489,37.7851782 466.084201,37.4130058 465.234809,37.4130058 M356.640809,32.2757361 C355.886911,32.2757361 355.140552,32.5661596 354.650518,33.1233426 C353.816204,34.0634543 354.032322,35.4037052 355.133013,36.117932 C357.349474,37.5549907 359.663941,38.9296621 362.016103,40.2053744 C362.430747,40.4312593 362.893138,40.5388236 363.350503,40.5388236 C363.403276,40.5388236 363.456048,40.5366723 363.508821,40.534521 C364.277797,40.4914953 365.016618,40.1451384 365.461417,39.5449297 C366.200238,38.5488845 365.853444,37.225844 364.689928,36.5955173 C362.455877,35.3821923 360.254494,34.0742107 358.148606,32.7102957 C357.696267,32.4155696 357.168538,32.2757361 356.640809,32.2757361 M479.244749,28.7024509 C478.661735,28.7024509 478.07872,28.8745537 477.606278,29.2295158 C476.62621,29.9588016 475.623525,30.677331 474.620841,31.3657423 C473.54528,32.1036332 473.374396,33.450338 474.236353,34.3710881 C474.7289,34.8981531 475.455155,35.1713663 476.186436,35.1713663 C476.239209,35.1713663 476.291982,35.1692151 476.344755,35.1670638 C476.839814,35.1390971 477.329848,34.9863558 477.747005,34.7023861 C478.802463,33.9774029 479.85792,33.2201504 480.888247,32.4521415 C481.928627,31.6755274 482.036686,30.3245201 481.129495,29.433888 C480.634435,28.9498487 479.940849,28.7024509 479.244749,28.7024509 M341.090404,19.6735057 C340.522467,19.6735057 339.946992,19.8391547 339.477062,20.1812091 C338.42663,20.9449154 338.295955,22.2937714 339.188068,23.1951601 C340.984858,25.0086937 342.894733,26.7835042 344.867433,28.4679608 C345.354954,28.8853102 345.993255,29.0918336 346.631555,29.0918336 C346.684328,29.0918336 346.737101,29.0918336 346.789874,29.087531 C347.375401,29.057413 347.950877,28.8487383 348.39819,28.4636582 C349.373231,27.6289594 349.370718,26.2758009 348.395677,25.4411021 C346.520983,23.8405457 344.704089,22.1539379 342.997766,20.4307582 C342.505219,19.93166 341.799068,19.6735057 341.090404,19.6735057 M329.133579,4.46606866 C328.746578,4.46606866 328.349525,4.54351494 327.982628,4.70916392 C326.7588,5.25559043 326.286358,6.54636172 326.924658,7.59403775 C328.211311,9.70444881 329.623613,11.7954983 331.116332,13.8069502 C331.5938,14.4480333 332.402984,14.7986928 333.227246,14.7986928 C333.280019,14.7986928 333.332792,14.7965415 333.385565,14.7943903 C333.79267,14.7728774 334.197262,14.6653131 334.564159,14.4652436 C335.730188,13.8327656 336.071955,12.5118764 335.333135,11.5136799 C333.913294,9.60333839 332.573868,7.61770189 331.352553,5.61270382 C330.90524,4.88341804 330.035744,4.46606866 329.133579,4.46606866" id="path-14"></path>
        <path d="M48.4191697,0 C48.4191697,0 49.9060605,7.16575338 50.6357152,14.258953 C50.9215593,17.0330683 48.4091401,19.4401469 45.1419921,19.5553794 C34.0417127,19.9480234 10.2991003,20.714106 1.77894008,20.3897479 C0.497656422,20.3406674 -0.339816654,19.2267534 0.134082782,18.2110004 C0.532760084,17.3616943 1.29751843,16.6745673 2.27289875,16.2947269 L41.4937187,0.953868899 L48.4191697,0" id="path-16"></path>
        <linearGradient x1="-457.184976%" y1="-944.553171%" x2="-408.884895%" y2="-849.484036%" id="linearGradient-18">
            <stop stop-color="#4F52FF" offset="0%"></stop>
            <stop stop-color="#4042E1" offset="100%"></stop>
        </linearGradient>
        <path d="M12.6644737,1.4056451 L11.4771793,10.512865 C11.4771793,10.512865 4.65708142,13.4035061 0,10.1478507 L2.82511353,0 L12.6644737,1.4056451" id="path-19"></path>
        <linearGradient x1="100%" y1="49.9921079%" x2="0.00393081761%" y2="49.9921079%" id="linearGradient-21">
            <stop stop-color="#FDBAB9" offset="0%"></stop>
            <stop stop-color="#FF928E" offset="100%"></stop>
        </linearGradient>
        <path d="M11.1435013,0.00424463812 C11.6651284,2.23267965 13.9415496,111.099158 0.0551273598,159.887029 C-0.170235802,160.685021 0.310876566,161.504236 1.21486138,161.814094 C3.34441665,162.544172 7.51996557,163.598965 12.5235342,163.74269 C14.0732224,163.783607 15.4608518,162.938924 15.8989173,161.693122 C19.8668282,150.372672 38.8859598,93.6600625 41.3674867,39.4836238 C44.1376811,-21.0555274 41.3674867,37.4207297 41.3674867,37.4207297 L39.7418333,0 L11.1435013,0.00424463812" id="path-22"></path>
        <linearGradient x1="-11.0506171%" y1="-847.744568%" x2="-3.06351536%" y2="-729.987736%" id="linearGradient-24">
            <stop stop-color="#4F52FF" offset="0%"></stop>
            <stop stop-color="#4042E1" offset="100%"></stop>
        </linearGradient>
        <path d="M15.9334575,0 C15.9334575,0 18.3303817,3.63062595 20.6511324,13.2801657 C21.0700863,15.0237229 19.6278692,16.6901695 17.5305606,16.8658104 C13.8183751,17.172111 8.10536724,17.568374 3.52734364,17.5426705 C1.41733941,17.5298187 -0.22800684,15.98118 0.0259046189,14.2140612 C0.533727537,10.6905334 2.1105177,4.91366131 6.99069594,0.409114782 L15.9334575,0" id="path-25"></path>
        <linearGradient x1="-1217.45315%" y1="-5108.89011%" x2="-1097.89314%" y2="-4620.14352%" id="linearGradient-27">
            <stop stop-color="#4F52FF" offset="0%"></stop>
            <stop stop-color="#4042E1" offset="100%"></stop>
        </linearGradient>
        <path d="M10.3618421,0.510996509 L7.73659051,13.6648261 C7.73659051,13.6648261 5.13964351,15.4381572 0,14.152005 L1.25483724,0 L10.3618421,0.510996509" id="path-28"></path>
        <linearGradient x1="100.000228%" y1="49.9993628%" x2="0.00386979285%" y2="49.9993628%" id="linearGradient-30">
            <stop stop-color="#FDBAB9" offset="0%"></stop>
            <stop stop-color="#FF928E" offset="100%"></stop>
        </linearGradient>
        <path d="M55.5415838,6.05696453 C66.7817545,63.7976085 53.102537,148.770058 48.4876498,165.402708 C48.2068962,166.420381 47.239299,167.201237 46.0285491,167.371915 C43.9680183,167.662069 40.5789213,167.898886 37.2349455,167.073227 C36.0843571,166.78734 35.2746838,165.904078 35.2270559,164.884272 C34.607894,151.439048 35.7233882,68.8945047 25.2477697,36.2713822 C24.7163432,34.6200646 23.5306606,33.1778286 21.8887534,32.1836245 L1.55918514,19.8819487 L0,0 L55.5415838,6.05696453" id="path-31"></path>
        <linearGradient x1="-27.9025997%" y1="-834.491076%" x2="-17.3011101%" y2="-718.867629%" id="linearGradient-33">
            <stop stop-color="#4F52FF" offset="0%"></stop>
            <stop stop-color="#4042E1" offset="100%"></stop>
        </linearGradient>
        <path d="M48.5860579,4.66200821 C82.2414381,4.19092681 119.377805,12.1505048 119.377805,12.1505048 C129.410058,61.7519804 121.133324,118.962906 121.133324,118.962906 C95.0760109,124.753812 65.682961,115.423429 65.682961,115.423429 C61.3530144,94.6916041 41.1482664,36.3432929 41.1482664,36.3432929 C24.7024831,34.6138725 11.1566872,30.5948267 0,25.2792461 C8.50963479,16.9228564 12.5215344,6.28745122 14.264532,0 C26.162494,3.13417666 38.2057058,4.8084254 48.5860579,4.66200821" id="path-34"></path>
        <linearGradient x1="-1771.87284%" y1="-2283.35581%" x2="-1865.39606%" y2="-2401.68405%" id="linearGradient-36">
            <stop stop-color="#FD6F61" offset="0%"></stop>
            <stop stop-color="#FF928E" offset="100%"></stop>
        </linearGradient>
        <path d="M0,2.17975152 C3.33262802,-1.23186504 7.55143212,0.380899151 7.55143212,0.380899151 C12.5453247,18.2517809 38.7266524,32.7388524 65.625,39.8208978 C63.8677961,46.1585905 59.8231976,56.8789806 51.2442052,65.3021442 C6.60466279,44.0388964 0,2.17975152 0,2.17975152" id="path-37"></path>
        <linearGradient x1="99.9999615%" y1="50.0001279%" x2="0.00150040395%" y2="50.0001279%" id="linearGradient-39">
            <stop stop-color="#FDBAB9" offset="0%"></stop>
            <stop stop-color="#FF928E" offset="100%"></stop>
        </linearGradient>
        <path d="M15.1775735,31.0934183 C14.8289023,32.0443072 18.8423838,33.493384 21.205321,29.6031869 C21.2880991,27.7382316 22.6000058,19.7498981 21.3106749,18.2315083 C14.4375878,10.1413713 1.11533766,0 1.11533766,0 C-1.13722883,1.91910614 0.719006362,3.80355573 0.719006362,3.80355573 L7.18322,9.61719102 C5.83117842,11.7269082 4.18063416,13.5073881 3.40803897,16.0589762 C2.82357572,17.9910785 3.18228063,20.057475 4.31107231,21.8141286 C5.44488083,23.5794463 6.99508806,25.8732763 8.45750038,27.6689185 C11.2268026,31.0674259 15.1775735,31.0934183 15.1775735,31.0934183" id="path-40"></path>
        <linearGradient x1="87.9741005%" y1="160.541215%" x2="180.487576%" y2="427.787665%" id="linearGradient-42">
            <stop stop-color="#FDBAB9" offset="0%"></stop>
            <stop stop-color="#FF928E" offset="100%"></stop>
        </linearGradient>
        <path d="M1.32841363,0 L7.3275062,4.31426694 L9.21052632,8.61119009 L3.86039861,13.6452242 C3.86039861,13.6452242 2.06169283,5.12075302 0.725438398,3.27580771 C-0.610816037,1.4308624 0.0815834886,0.537657387 1.32841363,0" id="path-43"></path>
        <linearGradient x1="57.3491072%" y1="70.5592628%" x2="-34.6329096%" y2="-107.219574%" id="linearGradient-45">
            <stop stop-color="#FDBAB9" offset="0%"></stop>
            <stop stop-color="#FF928E" offset="100%"></stop>
        </linearGradient>
        <path d="M-6.54447257e-14,27.9090425 L13.2069715,0 C13.2069715,0 45.3674202,18.2921865 50.6578947,41.487168 C44.5808945,41.8603466 33.5234184,43.1836294 22.6990819,47.7582846 C20.3215709,36.8074223 -6.54447257e-14,27.9090425 -6.54447257e-14,27.9090425" id="path-46"></path>
        <linearGradient x1="-4587.37147%" y1="-5557.78672%" x2="-4822.21494%" y2="-5842.51506%" id="linearGradient-48">
            <stop stop-color="#FD6F61" offset="0%"></stop>
            <stop stop-color="#FF928E" offset="100%"></stop>
        </linearGradient>
        <path d="M4.69992236,12.7006525 C4.69992236,12.7006525 40.2177271,29.808092 52.2031591,15.2004089 C54.6904639,12.1680583 55.2851994,9.15288819 54.6728234,6.27945685 C65.3201006,1.69871764 76.1967038,0.373674929 82.1742994,0 C83.7417803,7.00103602 82.9126787,14.4466163 78.084233,21.9716563 C57.0920864,54.6982783 0,20.1634132 0,20.1634132 L4.69992236,12.7006525" id="path-49"></path>
        <linearGradient x1="100.000394%" y1="49.9991086%" x2="0.000334408707%" y2="49.9991086%" id="linearGradient-51">
            <stop stop-color="#FDBAB9" offset="0%"></stop>
            <stop stop-color="#FF928E" offset="100%"></stop>
        </linearGradient>
        <path d="M88.5737269,61.842569 L69.2238222,4.74387596 C69.0024504,4.09555858 68.3483975,3.62366856 67.5559872,3.54502022 C64.0517728,3.19854241 53.8913119,2.22925479 42.1636396,1.39175628 C28.0335805,0.379956047 11.6269141,-0.436286158 1.82366678,0.258795094 C0.430030903,0.358699739 -0.412691153,1.60431935 0.206143551,2.66288346 C5.78320266,12.1942117 28.715305,50.9635908 40.1989652,63.6642345 C40.5813346,64.0851094 41.1699823,64.3316826 41.7963637,64.3274854 L86.6895513,63.9745766 C87.9976572,63.9639484 88.933456,62.9053843 88.5737269,61.842569" id="path-52"></path>
        <linearGradient x1="-0.000180301578%" y1="49.9978924%" x2="99.9987138%" y2="49.9978924%" id="linearGradient-54">
            <stop stop-color="#DAE2FD" offset="0%"></stop>
            <stop stop-color="#E9EEFC" offset="100%"></stop>
        </linearGradient>
        <path d="M15.5327544,1.99897781 L1.19900038,0.0123206968 C0.435664368,-0.0946037983 -0.18888328,0.512727333 0.0527112835,1.12433545 L1.4714368,4.70202905 C1.59480424,5.01211008 1.92121392,5.23879001 2.31187747,5.28155981 L16.105899,6.81485707 C16.8178319,6.8939812 17.4063974,6.35508174 17.2419075,5.771274 L16.3654846,2.64694025 C16.2703889,2.31119734 15.9414091,2.05457855 15.5327544,1.99897781" id="path-55"></path>
        <linearGradient x1="31.2459254%" y1="221.124885%" x2="11.2149309%" y2="403.843529%" id="linearGradient-57">
            <stop stop-color="#4F52FF" offset="0%"></stop>
            <stop stop-color="#4042E1" offset="100%"></stop>
        </linearGradient>
        <path d="M32.2118221,8.3658208 L31.056071,3.34212477 C30.9404959,2.83828563 30.4430204,2.45830695 29.8324823,2.40582371 L1.53165434,0.006289837 C0.579415895,-0.0755840222 -0.18438486,0.654982722 0.039227861,1.43173472 L1.83817964,7.69193596 C1.98390478,8.19367576 2.5039928,8.55476047 3.1195559,8.58205176 L30.7746707,9.74508043 C31.6766591,9.78286836 32.3801598,9.10478486 32.2118221,8.3658208" id="path-58"></path>
        <linearGradient x1="40.8447369%" y1="114.194012%" x2="30.354557%" y2="187.734199%" id="linearGradient-60">
            <stop stop-color="#4F52FF" offset="0%"></stop>
            <stop stop-color="#4042E1" offset="100%"></stop>
        </linearGradient>
        <path d="M23.4934753,19.3869136 C23.4934753,19.3869136 26.143134,10.0600694 25.0753611,6.75143181 C24.0051165,3.44279418 21.9363065,-0.812075699 15.0353299,0.134156559 C8.13682491,1.07827197 0,3.56768837 0,3.56768837 C0,3.56768837 0.410301621,7.87971322 5.65276992,6.48894232 L2.40248901,8.64389632 C2.40248901,8.64389632 2.86716795,12.0943629 7.2964481,10.250586 L4.27109157,13.1083344 C4.27109157,13.1083344 6.17429788,15.9427975 9.43199388,14.1244228 C12.6896899,12.306048 14.2518021,20.5109613 23.4934753,19.3869136" id="path-61"></path>
        <linearGradient x1="99.9942812%" y1="50.0006327%" x2="-0.00770912511%" y2="50.0006327%" id="linearGradient-63">
            <stop stop-color="#FDBAB9" offset="0%"></stop>
            <stop stop-color="#FF928E" offset="100%"></stop>
        </linearGradient>
        <path d="M21.5754823,0 L32.1748346,25.7768959 C32.3508295,26.2041833 32.1426102,26.677326 31.671638,26.8961805 C28.7813563,28.2384884 18.3728717,32.1215932 5.82766072,25.4329816 C4.52133269,24.7368158 3.6314432,23.6008565 3.43313913,22.3106569 L-1.63611814e-14,0 L21.5754823,0" id="path-64"></path>
        <linearGradient x1="99.9998837%" y1="49.998561%" x2="-0.00153786826%" y2="49.998561%" id="linearGradient-66">
            <stop stop-color="#FDBAB9" offset="0%"></stop>
            <stop stop-color="#FF928E" offset="100%"></stop>
        </linearGradient>
        <path d="M10.4275708,0 C10.4275708,0 -1.37989818,18.8982272 0.134073344,26.5310671 C1.64552997,34.166045 16.2822646,33.6187041 29.063001,27.418358 L37.9934211,7.01066717 L10.4275708,0" id="path-67"></path>
        <linearGradient x1="10.9504695%" y1="62.7209728%" x2="105.601328%" y2="21.1722764%" id="linearGradient-69">
            <stop stop-color="#FDBAB9" offset="0%"></stop>
            <stop stop-color="#FF928E" offset="100%"></stop>
        </linearGradient>
        <path d="M24.5022761,31.0370292 C23.9758679,30.8409735 23.7816591,30.3018205 24.0959708,29.899054 C25.0593487,28.6758372 26.860891,26.1761276 27.4358514,23.9896808 C27.4358514,23.9896808 29.5925914,22.8367884 21.9443415,21.3109639 C14.298647,19.7830084 2.89398974,17.4132923 0.497044067,11.9855341 C-1.84112788,6.69416251 4.29944828,-6.61631155 14.096772,3.98774207 C14.4698574,4.39263962 15.1981405,4.40116378 15.5712258,3.99626623 C17.1785593,2.25307574 21.4000457,-1.36329865 27.2620856,0.829541213 C32.7484847,2.88173246 33.364331,6.23385793 33.290225,7.92377242 C33.2672266,8.42030468 33.8013009,8.80815391 34.3864827,8.71438816 C37.1616245,8.27326294 43.8158319,7.89393787 46.923173,13.588076 C49.4811075,18.2784944 47.8175557,20.9337699 46.3047712,22.2315731 C45.8141384,22.6513879 46.0287902,23.3439758 46.700855,23.51659 C48.5228403,23.9811567 50.8788999,25.2704357 50.6412497,28.8314031 C50.3167165,33.7562359 43.7161721,33.3215037 41.835413,33.0977446 C41.5287675,33.0615169 41.2170113,33.1488895 41.0100255,33.3406831 C39.3975813,34.8281488 32.137749,41.1424195 24.2799581,41.9053317 C23.5976718,41.9692629 23.0712637,41.4087995 23.2935817,40.8696464 L26.6947914,32.6267848 C26.8532249,32.2431977 26.6334623,31.8233828 26.1888263,31.6592928 L24.5022761,31.0370292" id="path-70"></path>
        <linearGradient x1="109.864225%" y1="11.267417%" x2="16.679808%" y2="62.0469308%" id="linearGradient-72">
            <stop stop-color="#08005D" offset="0%"></stop>
            <stop stop-color="#1A0F91" offset="100%"></stop>
        </linearGradient>
        <path d="M2.57035135,2.49760252 C2.57035135,2.49760252 10.8749455,-2.54635821 11.4809027,1.70165056 C12.0868599,5.94746058 4.00329119,7.8537875 0,6.26847987 L2.57035135,2.49760252" id="path-73"></path>
        <linearGradient x1="-93.8740535%" y1="99.1442272%" x2="183.637441%" y2="10.3388495%" id="linearGradient-75">
            <stop stop-color="#FDBAB9" offset="0%"></stop>
            <stop stop-color="#FF928E" offset="100%"></stop>
        </linearGradient>
    </defs>
    <g id="Images" stroke="none" stroke-width="1" fill="none" fill-rule="evenodd">
        <g id="20943587">
            <g id="Group-11" transform="translate(19.572368, 0.000000)">
                <mask id="mask-2" fill="white">
                    <use xlink:href="#path-1"></use>
                </mask>
                <g id="Clip-10"></g>
            </g>
            <g id="Group-14" transform="translate(40.296053, 109.161793)">
                <mask id="mask-4" fill="white">
                    <use xlink:href="#path-3"></use>
                </mask>
                <g id="Clip-13"></g>
                <path d="M612.704004,325.536062 L19.1359725,325.536062 C13.0986542,325.536062 8.15935022,321.353175 8.15935022,316.240758 L0.00773818745,23.9908399 C-0.171324157,17.5758006 2.76383964,11.3782203 8.12766222,6.84569332 C13.3227336,2.45600707 20.3544515,0 27.6731219,0 C27.9115363,0 28.1514598,0 28.3903772,0.00852780233 L46.5810492,0.407202561 L46.5730014,11.3952759 L30.6555662,11.0328443 C30.4815337,11.0285804 30.3075012,11.0264484 30.1337202,11.0264484 C24.9982524,11.0264484 20.0637267,12.7533284 16.4193553,15.8361289 C12.6517528,19.025527 10.5940448,23.3853659 10.7273356,27.8965734 L18.9958914,307.320677 C18.9958914,312.162336 23.6688654,316.125633 29.3805015,316.125633 L598.389076,316.125633 C604.10046,316.125633 608.773183,312.162336 608.773183,307.320677 L613.433331,44.8157332 C612.900168,29.4571612 597.438436,23.6625195 587.47935,23.6625195 C587.195164,23.6625195 586.918523,23.6689154 586.644397,23.6774432 L570.888419,23.3192755 L571.137397,11.9133399 L608.488997,12.7320089 C608.956772,12.7064255 609.417003,12.6915018 609.869688,12.6915018 C622.011725,12.6915018 628.618421,22.1467027 628.618421,27.0779044 L623.679117,316.240758 C623.679117,321.353175 618.739813,325.536062 612.704004,325.536062" id="Fill-12" fill="url(#linearGradient-5)" mask="url(#mask-4)"></path>
            </g>
            <g id="Group-17" transform="translate(50.657895, 119.883041)">
                <mask id="mask-7" fill="white">
                    <use xlink:href="#path-6"></use>
                </mask>
                <g id="Clip-16"></g>
                <path d="M588.230807,305.068226 L18.6771362,305.068226 C12.9600285,305.068226 8.28257798,301.105332 8.28257798,296.264164 L0.0061010693,16.8684132 C-0.12731741,12.3576635 1.93236183,7.99826693 5.7035736,4.80919248 C9.35143621,1.72670475 14.290689,0 19.4310765,0 C19.6050239,0 19.7792232,0 19.9534224,0.00639520277 L35.8861062,0.368790027 L35.7192072,231.787729 C35.7189555,232.081909 35.7267592,232.376088 35.7421149,232.666004 C36.2845995,243.002783 50.4209167,251.171589 67.4395765,251.348523 L511.696429,255.955201 C511.925506,255.957332 512.152066,255.957332 512.381143,255.957332 C541.416025,255.957332 555.60873,244.471548 555.925914,230.101527 L560.703805,12.2915797 L576.474877,12.6497111 C576.749266,12.6411841 577.026172,12.6347889 577.31063,12.6347889 C587.279256,12.6347889 602.7558,18.4288427 603.289474,33.7858562 L598.624862,296.264164 C598.624862,301.105332 593.947663,305.068226 588.230807,305.068226" id="Fill-15" fill="url(#linearGradient-8)" mask="url(#mask-7)"></path>
            </g>
            <g id="Group-20" transform="translate(0.000000, 432.748538)">
                <mask id="mask-10" fill="white">
                    <use xlink:href="#path-9"></use>
                </mask>
                <g id="Clip-19"></g>
                <path d="M15.033282,27.2904483 L685.054257,25.6322027 C693.29815,25.6106956 700.025086,19.8274382 700,12.7795637 C699.977289,5.73168912 693.212617,-0.0193076654 684.968724,0 L14.946491,1.66039633 C6.7020946,1.67975272 -0.0238354955,7.46301015 0,14.5108847 C0.0239624817,21.5609099 6.78888566,27.309756 15.033282,27.2904483" id="Fill-18" fill="url(#linearGradient-11)" mask="url(#mask-10)"></path>
            </g>
            <g id="Group-23" transform="translate(86.348684, 23.391813)">
                <mask id="mask-13" fill="white">
                    <use xlink:href="#path-12"></use>
                </mask>
                <g id="Clip-22"></g>
            </g>
            <path d="M118.211602,35.0877193 L578.546719,35.0877193 C591.098831,35.0877193 601.209416,43.459365 600.986842,53.6639067 L594.505905,344.024464 C594.201657,357.690195 580.377236,368.591664 563.568168,368.421053 L117.716005,363.870891 C105.429168,363.745146 95.5516715,355.60794 95.5592105,345.616526 L95.7729427,53.3207715 C95.780486,43.2505001 105.824438,35.0877193 118.211602,35.0877193" id="Fill-24" fill="#91B3FA"></path>
            <g id="Group-27" transform="translate(95.559211, 32.163743)">
                <mask id="mask-15" fill="white">
                    <use xlink:href="#path-14"></use>
                </mask>
                <g id="Clip-26"></g>
            </g>
            <path d="M215.871711,48.1882198 C209.485874,48.1882198 204.29091,52.5877506 204.29091,57.9932463 C204.29091,63.3987419 209.485874,67.7961857 215.871711,67.7961857 C222.257547,67.7961857 227.452511,63.3987419 227.452511,57.9932463 C227.452511,52.5877506 222.257547,48.1882198 215.871711,48.1882198 Z M215.871711,69.2007797 C208.571146,69.2007797 202.631579,64.1730426 202.631579,57.9932463 C202.631579,51.8113628 208.571146,46.7836257 215.871711,46.7836257 C223.172275,46.7836257 229.111842,51.8113628 229.111842,57.9932463 C229.111842,64.1730426 223.172275,69.2007797 215.871711,69.2007797 L215.871711,69.2007797 Z" id="Fill-28" fill="#91B3FA"></path>
            <path d="M172.121711,49.1630094 C165.735874,49.1630094 160.54091,53.5608626 160.54091,58.9668616 C160.54091,64.3728606 165.735874,68.7707138 172.121711,68.7707138 C178.507547,68.7707138 183.702511,64.3728606 183.702511,58.9668616 C183.702511,53.5608626 178.507547,49.1630094 172.121711,49.1630094 Z M172.121711,70.1754386 C164.821146,70.1754386 158.881579,65.1472334 158.881579,58.9668616 C158.881579,52.7864898 164.821146,47.7582846 172.121711,47.7582846 C179.422275,47.7582846 185.361842,52.7864898 185.361842,58.9668616 C185.361842,65.1472334 179.422275,70.1754386 172.121711,70.1754386 L172.121711,70.1754386 Z" id="Fill-29" fill="#91B3FA"></path>
            <path d="M129.522656,49.1630094 C123.137118,49.1630094 117.942149,53.5608626 117.942149,58.9668616 C117.942149,64.3728606 123.137118,68.7707138 129.522656,68.7707138 C135.909182,68.7707138 141.103904,64.3728606 141.103904,58.9668616 C141.103904,53.5608626 135.909182,49.1630094 129.522656,49.1630094 Z M129.522656,70.1754386 C122.222432,70.1754386 116.282895,65.1472334 116.282895,58.9668616 C116.282895,52.7864898 122.222432,47.7582846 129.522656,47.7582846 C136.823867,47.7582846 142.763158,52.7864898 142.763158,58.9668616 C142.763158,65.1472334 136.823867,70.1754386 129.522656,70.1754386 L129.522656,70.1754386 Z" id="Fill-30" fill="#91B3FA"></path>
            <path d="M369.596593,213.450292 L369.594083,213.450292 L367.801813,213.446078 L368.298829,213.448185 L368.333972,201.946157 L367.736549,201.944049 L367.701406,213.446078 L367.736549,201.944049 L367.139125,201.944049 L367.101473,213.446078 L367.139125,201.944049 L366.539192,201.941942 L366.504049,213.44397 L367.06131,213.446078 L360.549898,213.431326 L361.119709,213.431326 L361.157362,201.931405 L360.71557,201.929298 L360.557429,201.929298 L360.522286,213.431326 L360.557429,201.929298 L360.499694,201.929298 L359.960005,201.92719 L359.924863,213.429219 L360.452001,213.431326 L339.075293,213.382857 L339.58737,213.384964 L339.622512,201.882936 L339.225904,201.882936 L339.022579,201.880828 L338.987436,213.382857 L339.022579,201.880828 L338.425156,201.880828 L338.390013,213.382857 L338.440217,213.382857 L334.263274,213.37232 L334.800453,213.374427 L334.835596,201.872399 L334.238172,201.870291 L334.20303,213.37232 L334.238172,201.870291 L333.640749,201.870291 L333.603096,213.37232 L334.034848,213.37232 L330.156617,213.36389 L330.61347,213.365998 L330.648612,201.863969 L330.051189,201.861862 L330.016046,213.36389 L330.051189,201.861862 L329.453766,201.859754 L329.416113,213.361783 L329.631989,213.36389 L323.587471,213.349139 L324.034283,213.351246 L324.069426,201.849218 L323.472002,201.84711 L323.43435,213.349139 L323.472002,201.84711 L322.872069,201.84711 L322.836926,213.347031 L323.0277,213.349139 L321.122472,213.344924 L321.63957,213.344924 L321.677222,201.842896 L321.077289,201.842896 L321.042146,213.344924 L321.077289,201.842896 L320.708292,201.840788 L320.479866,201.840788 L320.444723,213.342817 L320.828781,213.342817 L317.015815,213.334387 L317.452586,213.336494 L317.487729,201.834466 L316.890306,201.832359 L316.855163,213.334387 L316.890306,201.832359 L316.292882,201.832359 L316.25774,213.334387 L316.423412,213.334387 L315.374156,213.33228 L315.657806,213.33228 L315.695459,201.830251 L315.597562,201.830251 L315.095526,201.828144 L315.060383,213.330172 L315.095526,201.828144 L314.498102,201.828144 L314.46296,213.330172 L314.498102,201.828144 L313.900679,201.826037 L313.863026,213.328065 L314.219472,213.328065 L307.98167,213.315421 L308.481197,213.315421 L308.516339,201.8155 L307.918916,201.813392 L307.881263,213.315421 L307.918916,201.813392 L307.318982,201.811285 L307.28384,213.313313 L307.615184,213.315421 L306.337501,213.311206 L306.686417,213.313313 L306.721559,201.811285 L306.613621,201.811285 L306.124136,201.809178 L306.086483,213.311206 L306.124136,201.809178 L305.524202,201.80707 L305.48906,213.309099 L305.524202,201.80707 L304.926779,201.80707 L304.891637,213.309099 L305.408734,213.309099 L302.230844,213.302776 L302.499433,213.302776 L302.534576,201.800748 L301.934642,201.800748 L301.8995,213.302776 L301.934642,201.800748 L301.337219,201.798641 L301.302077,213.300669 L301.337219,201.798641 L300.739796,201.796533 L300.704653,213.298562 L301.010895,213.300669 L298.947526,213.296454 L299.507297,213.296454 L299.542439,201.794426 L298.945016,201.794426 L298.909873,213.294347 L298.945016,201.794426 L298.405327,201.792319 L298.347593,201.792319 L298.30994,213.294347 L298.806956,213.294347 L295.661698,213.288025 L295.917737,213.288025 L295.952879,201.785997 L295.355456,201.785997 L295.320313,213.288025 L295.355456,201.785997 L294.758033,201.783889 L294.72289,213.285917 L294.758033,201.783889 L294.160609,201.783889 L294.122957,213.28381 L294.406607,213.285917 L290.731701,213.277488 L291.13333,213.277488 L291.168473,201.777567 L290.571049,201.77546 L290.533397,213.277488 L290.571049,201.77546 L289.971116,201.773352 L289.935973,213.275381 L290.001238,213.275381 L288.269212,213.271166 L288.741127,213.273273 L288.776269,201.771245 L288.37464,201.771245 L288.178846,201.769138 L288.141193,213.271166 L288.178846,201.769138 L287.578912,201.769138 L287.54377,213.271166 L287.802319,213.271166 L287.448383,213.269059 L287.54377,213.271166 L287.578912,201.769138 L287.54377,201.769138 L286.981489,201.76703 L286.946347,213.269059 L286.981489,201.76703 L286.384066,201.76703 L286.346413,213.266951 L286.384066,201.76703 L285.784132,201.764923 L285.74899,213.266951 L285.784132,201.764923 L285.518053,201.764923 L285.186709,201.762815 L285.151567,213.264844 L285.598379,213.266951 L281.700067,213.256414 L282.15943,213.258522 L282.197083,201.756493 L281.597149,201.756493 L281.562007,213.256414 L281.597149,201.756493 L281.225642,201.754386 L280.999726,201.754386 L280.964583,213.256414 L281.19301,213.256414 L280.864176,213.256414 C280.864176,213.256414 280.861666,213.256414 280.859156,213.256414 L280.964583,213.256414 L280.999726,201.754386 L280.899319,201.754386 C280.718586,201.754386 280.550403,201.790211 280.402303,201.853432 L280.36465,213.153153 L280.402303,201.853432 C280.045857,202.005163 279.802369,202.314947 279.799859,202.6732 L279.769737,212.341815 L279.784798,207.503293 L279.769737,212.341815 C279.769737,212.337601 279.769737,212.335493 279.769737,212.331279 L279.799859,202.6732 C279.802369,202.165323 280.294365,201.754386 280.899319,201.754386 C280.899319,201.754386 280.899319,201.754386 280.901829,201.754386 L369.629226,201.948264 C370.23669,201.950371 370.726175,202.363416 370.723675,202.8734 L370.708604,207.703493 L370.723675,202.862863 L370.708604,207.703493 L370.723675,202.862863 C370.721155,202.508825 370.480177,202.203256 370.128752,202.051525 L370.093609,213.351246 L370.128752,202.051525 C369.980651,201.986197 369.812469,201.950371 369.634246,201.948264 L369.531329,201.948264 L369.496186,213.450292 L369.614165,213.450292 C369.606634,213.450292 369.601614,213.450292 369.596593,213.450292 M368.933905,201.948264 L368.896253,213.448185 L369.496186,213.450292 L369.531329,201.948264 L368.933905,201.948264 M368.333972,201.946157 L368.298829,213.448185 L368.896253,213.448185 L368.933905,201.948264 L368.333972,201.946157 M365.941769,201.941942 L365.906626,213.441863 L366.504049,213.44397 L366.539192,201.941942 L365.941769,201.941942 M365.344345,201.939835 L365.309203,213.441863 L365.906626,213.441863 L365.941769,201.941942 L365.344345,201.939835 M364.744412,201.937727 L364.709269,213.439756 L365.309203,213.441863 L365.344345,201.939835 L365.007981,201.939835 L364.744412,201.937727 M364.146989,201.937727 L364.111846,213.437648 L364.709269,213.439756 L364.744412,201.937727 L364.146989,201.937727 M363.549565,201.93562 L363.514423,213.437648 L364.111846,213.437648 L364.146989,201.937727 L363.815645,201.93562 L363.549565,201.93562 M362.952142,201.933512 L362.914489,213.435541 L363.514423,213.437648 L363.549565,201.93562 L362.952142,201.933512 M362.352209,201.933512 L362.317066,213.435541 L362.914489,213.435541 L362.952142,201.933512 L362.352209,201.933512 M361.754785,201.931405 L361.719643,213.433433 L362.317066,213.435541 L362.352209,201.933512 L361.754785,201.931405 M361.157362,201.931405 L361.119709,213.431326 L361.719643,213.433433 L361.754785,201.931405 L361.157362,201.931405 M359.362582,201.92719 L359.324929,213.429219 L359.924863,213.429219 L359.960005,201.92719 L359.362582,201.92719 M358.762649,201.925083 L358.727506,213.427111 L359.324929,213.429219 L359.362582,201.92719 L358.762649,201.925083 M358.165225,201.922976 L358.130083,213.425004 L358.727506,213.427111 L358.762649,201.925083 L358.165225,201.922976 M357.567802,201.922976 L357.53266,213.425004 L358.130083,213.425004 L358.165225,201.922976 L357.567802,201.922976 M356.970379,201.920868 L356.932726,213.422897 L357.53266,213.425004 L357.567802,201.922976 L356.970379,201.920868 M356.370445,201.920868 L356.335303,213.420789 L356.932726,213.422897 L356.970379,201.920868 L356.370445,201.920868 M355.773022,201.918761 L355.73788,213.420789 L356.335303,213.420789 L356.370445,201.920868 L355.773022,201.918761 M355.175599,201.916653 L355.137946,213.418682 L355.73788,213.420789 L355.773022,201.918761 L355.175599,201.916653 M354.575665,201.916653 L354.540523,213.418682 L355.137946,213.418682 L355.175599,201.916653 L354.575665,201.916653 M353.978242,201.914546 L353.9431,213.416574 L354.540523,213.418682 L354.575665,201.916653 L354.264403,201.914546 L353.978242,201.914546 M353.380819,201.912439 L353.343166,213.414467 L353.9431,213.416574 L353.978242,201.914546 L353.867794,201.914546 L353.380819,201.912439 M352.780885,201.912439 L352.745743,213.414467 L353.343166,213.414467 L353.380819,201.912439 L352.780885,201.912439 M352.183462,201.910331 L352.14832,213.41236 L352.745743,213.414467 L352.780885,201.912439 L352.183462,201.910331 M351.586039,201.910331 L351.550896,213.410252 L352.14832,213.41236 L352.183462,201.910331 L351.586039,201.910331 M350.988616,201.908224 L350.950963,213.410252 L351.550896,213.410252 L351.586039,201.910331 L350.988616,201.908224 M350.388682,201.906117 L350.35354,213.408145 L350.950963,213.410252 L350.988616,201.908224 L350.388682,201.906117 M349.791259,201.906117 L349.756116,213.408145 L350.35354,213.408145 L350.388682,201.906117 L349.791259,201.906117 M349.193836,201.904009 L349.156183,213.406038 L349.756116,213.408145 L349.791259,201.906117 L349.720974,201.906117 L349.193836,201.904009 M348.593902,201.901902 L348.55876,213.40393 L349.156183,213.406038 L349.193836,201.904009 L348.593902,201.901902 M347.996479,201.901902 L347.961336,213.40393 L348.55876,213.40393 L348.593902,201.901902 L347.996479,201.901902 M347.399056,201.899795 L347.361403,213.401823 L347.961336,213.40393 L347.996479,201.901902 L347.399056,201.899795 M346.799122,201.899795 L346.76398,213.399716 L347.361403,213.401823 L347.399056,201.899795 L346.799122,201.899795 M346.201699,201.897687 L346.166556,213.399716 L346.76398,213.399716 L346.799122,201.899795 L346.201699,201.897687 M345.604276,201.89558 L345.569133,213.397608 L346.166556,213.399716 L346.201699,201.897687 L345.604276,201.89558 M345.004342,201.89558 L344.9692,213.395501 L345.569133,213.397608 L345.604276,201.89558 L345.004342,201.89558 M344.406919,201.893472 L344.371776,213.395501 L344.9692,213.395501 L345.004342,201.89558 L344.406919,201.893472 M343.809496,201.891365 L343.774353,213.393393 L344.371776,213.395501 L344.406919,201.893472 L343.809496,201.891365 M343.212072,201.891365 L343.17442,213.393393 L343.774353,213.393393 L343.809496,201.891365 L343.212072,201.891365 M342.612139,201.889258 L342.576996,213.391286 L343.17442,213.393393 L343.212072,201.891365 L343.089073,201.891365 L342.612139,201.889258 M342.014716,201.889258 L341.979573,213.389179 L342.576996,213.391286 L342.612139,201.889258 L342.014716,201.889258 M341.417292,201.88715 L341.37964,213.389179 L341.979573,213.389179 L342.014716,201.889258 L341.417292,201.88715 M340.817359,201.885043 L340.782216,213.387071 L341.37964,213.389179 L341.417292,201.88715 L340.817359,201.885043 M340.219936,201.885043 L340.184793,213.384964 L340.782216,213.387071 L340.817359,201.885043 L340.219936,201.885043 M339.622512,201.882936 L339.58737,213.384964 L340.184793,213.384964 L340.219936,201.885043 L339.622512,201.882936 M337.827732,201.878721 L337.79259,213.380749 L338.390013,213.382857 L338.425156,201.880828 L337.827732,201.878721 M337.230309,201.878721 L337.192656,213.378642 L337.79259,213.380749 L337.827732,201.878721 L337.230309,201.878721 M336.630376,201.876613 L336.595233,213.378642 L337.192656,213.378642 L337.230309,201.878721 L336.728273,201.876613 L336.630376,201.876613 M336.032952,201.874506 L335.99781,213.376534 L336.595233,213.378642 L336.630376,201.876613 L336.457173,201.876613 L336.032952,201.874506 M335.435529,201.874506 L335.397876,213.376534 L335.99781,213.376534 L336.032952,201.874506 L335.435529,201.874506 M334.835596,201.872399 L334.800453,213.374427 L335.397876,213.376534 L335.435529,201.874506 L334.835596,201.872399 M333.040816,201.868184 L333.005673,213.370212 L333.603096,213.37232 L333.640749,201.870291 L333.040816,201.868184 M332.443392,201.868184 L332.40825,213.368105 L333.005673,213.370212 L333.040816,201.868184 L332.443392,201.868184 M331.845969,201.866077 L331.810826,213.368105 L332.40825,213.368105 L332.443392,201.868184 L331.845969,201.866077 M331.246036,201.863969 L331.210893,213.365998 L331.810826,213.368105 L331.845969,201.866077 L331.246036,201.863969 M330.648612,201.863969 L330.61347,213.365998 L331.210893,213.365998 L331.246036,201.863969 L330.648612,201.863969 M328.853832,201.859754 L328.81869,213.361783 L329.416113,213.361783 L329.453766,201.859754 L328.853832,201.859754 M328.256409,201.857647 L328.221266,213.359675 L328.81869,213.361783 L328.853832,201.859754 L328.484836,201.857647 L328.256409,201.857647 M327.658986,201.857647 L327.621333,213.357568 L328.221266,213.359675 L328.256409,201.857647 L327.658986,201.857647 M327.059052,201.85554 L327.02391,213.357568 L327.621333,213.357568 L327.658986,201.857647 L327.059052,201.85554 M326.461629,201.853432 L326.426486,213.355461 L327.02391,213.357568 L327.059052,201.85554 L326.461629,201.853432 M325.864206,201.853432 L325.826553,213.355461 L326.426486,213.355461 L326.461629,201.853432 L325.864206,201.853432 M325.264272,201.851325 L325.22913,213.353353 L325.826553,213.355461 L325.864206,201.853432 L325.680962,201.851325 L325.264272,201.851325 M324.666849,201.849218 L324.631706,213.351246 L325.22913,213.353353 L325.264272,201.851325 L324.666849,201.849218 M324.069426,201.849218 L324.034283,213.351246 L324.631706,213.351246 L324.666849,201.849218 L324.069426,201.849218 M322.274646,201.845003 L322.239503,213.347031 L322.836926,213.347031 L322.872069,201.84711 L322.274646,201.845003 M321.677222,201.842896 L321.63957,213.344924 L322.239503,213.347031 L322.274646,201.845003 L321.677222,201.842896 M319.882442,201.840788 L319.84479,213.340709 L320.444723,213.342817 L320.479866,201.840788 L319.882442,201.840788 M319.282509,201.838681 L319.247366,213.340709 L319.84479,213.340709 L319.882442,201.840788 L319.282509,201.838681 M318.685086,201.836573 L318.649943,213.338602 L319.247366,213.340709 L319.282509,201.838681 L318.685086,201.836573 M318.087662,201.836573 L318.05252,213.336494 L318.649943,213.338602 L318.685086,201.836573 L318.087662,201.836573 M317.487729,201.834466 L317.452586,213.336494 L318.05252,213.336494 L318.087662,201.836573 L317.743767,201.834466 L317.487729,201.834466 M315.695459,201.830251 L315.657806,213.33228 L316.25774,213.334387 L316.292882,201.832359 L315.695459,201.830251 M313.300746,201.826037 L313.265603,213.325958 L313.863026,213.328065 L313.900679,201.826037 L313.300746,201.826037 M312.703322,201.823929 L312.66818,213.325958 L313.265603,213.325958 L313.300746,201.826037 L313.245522,201.826037 L312.703322,201.823929 M312.105899,201.821822 L312.068246,213.32385 L312.66818,213.325958 L312.703322,201.823929 L312.105899,201.821822 M311.505966,201.821822 L311.470823,213.32385 L312.068246,213.32385 L312.105899,201.821822 L311.505966,201.821822 M310.908542,201.819714 L310.8734,213.321743 L311.470823,213.32385 L311.505966,201.821822 L310.908542,201.819714 M310.311119,201.819714 L310.273466,213.319635 L310.8734,213.321743 L310.908542,201.819714 L310.311119,201.819714 M309.713696,201.817607 L309.676043,213.319635 L310.273466,213.319635 L310.311119,201.819714 L309.713696,201.817607 M309.113762,201.8155 L309.07862,213.317528 L309.676043,213.319635 L309.713696,201.817607 L309.153925,201.8155 L309.113762,201.8155 M308.516339,201.8155 L308.481197,213.315421 L309.07862,213.317528 L309.113762,201.8155 L308.516339,201.8155 M306.721559,201.811285 L306.686417,213.313313 L307.28384,213.313313 L307.318982,201.811285 L306.721559,201.811285 M304.329356,201.804963 L304.291703,213.306991 L304.891637,213.309099 L304.926779,201.80707 L304.329356,201.804963 M303.729422,201.804963 L303.69428,213.304884 L304.291703,213.306991 L304.329356,201.804963 L303.729422,201.804963 M303.131999,201.802855 L303.096857,213.304884 L303.69428,213.304884 L303.729422,201.804963 L303.131999,201.802855 M302.534576,201.800748 L302.499433,213.302776 L303.096857,213.304884 L303.131999,201.802855 L302.707778,201.802855 L302.534576,201.800748 M300.142373,201.796533 L300.10472,213.298562 L300.704653,213.298562 L300.739796,201.796533 L300.142373,201.796533 M299.542439,201.794426 L299.507297,213.296454 L300.10472,213.298562 L300.142373,201.796533 L299.542439,201.794426 M297.747659,201.790211 L297.712517,213.29224 L298.30994,213.294347 L298.347593,201.792319 L297.747659,201.790211 M297.150236,201.790211 L297.115093,213.29224 L297.712517,213.29224 L297.747659,201.790211 L297.150236,201.790211 M296.552813,201.788104 L296.51767,213.290132 L297.115093,213.29224 L297.150236,201.790211 L296.552813,201.788104 M295.952879,201.785997 L295.917737,213.288025 L296.51767,213.290132 L296.552813,201.788104 L296.259121,201.788104 L295.952879,201.785997 M293.560676,201.781782 L293.525533,213.28381 L294.122957,213.28381 L294.160609,201.783889 L294.112916,201.783889 L293.560676,201.781782 M292.963253,201.779674 L292.92811,213.281703 L293.525533,213.28381 L293.560676,201.781782 L293.349821,201.781782 L292.963253,201.779674 M292.365829,201.779674 L292.328177,213.281703 L292.92811,213.281703 L292.963253,201.779674 L292.365829,201.779674 M291.765896,201.777567 L291.730753,213.279595 L292.328177,213.281703 L292.365829,201.779674 L291.765896,201.777567 M291.168473,201.777567 L291.13333,213.277488 L291.730753,213.279595 L291.765896,201.777567 L291.168473,201.777567 M289.373693,201.773352 L289.33855,213.273273 L289.935973,213.275381 L289.971116,201.773352 L289.373693,201.773352 M288.776269,201.771245 L288.741127,213.273273 L289.33855,213.273273 L289.373693,201.773352 L288.776269,201.771245 M284.589286,201.762815 L284.551633,213.262736 L285.151567,213.264844 L285.186709,201.762815 L284.589286,201.762815 M283.989352,201.760708 L283.95421,213.262736 L284.551633,213.262736 L284.589286,201.762815 L284.22782,201.760708 L283.989352,201.760708 M283.391929,201.758601 L283.356787,213.260629 L283.95421,213.262736 L283.989352,201.760708 L283.391929,201.758601 M282.794506,201.758601 L282.759363,213.260629 L283.356787,213.260629 L283.391929,201.758601 L282.794506,201.758601 M282.197083,201.756493 L282.15943,213.258522 L282.759363,213.260629 L282.794506,201.758601 L282.197083,201.756493" id="Fill-658" fill="#BACFFC"></path>
            <path d="M559.509439,200.779727 L116.199386,200.466883 C114.333022,200.464798 112.823554,200.056025 112.828947,199.551317 L112.92089,189.993138 C112.926297,189.48843 114.44349,189.081743 116.309854,189.083821 L559.617589,189.396665 C561.487043,189.39875 562.993421,189.807522 562.993421,190.312231 L562.900721,199.87041 C562.892996,200.373033 561.378893,200.781805 559.509439,200.779727" id="Fill-1286" fill="#FFFFFF"></path>
            <path d="M559.509439,172.51462 L116.199386,172.201776 C114.333022,172.19969 112.823554,171.790918 112.828947,171.28621 L112.92089,161.728031 C112.926297,161.223322 114.44349,160.816636 116.309854,160.818713 L559.617589,161.131557 C561.487043,161.133643 562.993421,161.542415 562.993421,162.047124 L562.900721,171.605302 C562.892996,172.107925 561.378893,172.516698 559.509439,172.51462" id="Fill-1286-Copy" fill="#FFFFFF"></path>
            <path d="M559.509439,144.249513 L116.199386,143.936669 C114.333022,143.934583 112.823554,143.525811 112.828947,143.021103 L112.92089,133.462924 C112.926297,132.958215 114.44349,132.551529 116.309854,132.553606 L559.617589,132.86645 C561.487043,132.868536 562.993421,133.277308 562.993421,133.782016 L562.900721,143.340195 C562.892996,143.842818 561.378893,144.25159 559.509439,144.249513" id="Fill-1286-Copy-2" fill="#FFFFFF"></path>
            <g id="Group-3173" transform="translate(420.230263, 478.557505)">
                <mask id="mask-17" fill="white">
                    <use xlink:href="#path-16"></use>
                </mask>
                <g id="Clip-3172"></g>
                <path d="M48.4191697,0 C48.4191697,0 49.9060605,7.16575338 50.6357152,14.258953 C50.9215593,17.0330683 48.4091401,19.4401469 45.1419921,19.5553794 C34.0417127,19.9480234 10.2991003,20.714106 1.77894008,20.3897479 C0.497656422,20.3406674 -0.339816654,19.2267534 0.134082782,18.2110004 C0.532760084,17.3616943 1.29751843,16.6745673 2.27289875,16.2947269 L41.4937187,0.953868899 L48.4191697,0" id="Fill-3171" fill="url(#linearGradient-18)" mask="url(#mask-17)"></path>
            </g>
            <g id="Group-3176" transform="translate(458.223684, 472.709552)">
                <mask id="mask-20" fill="white">
                    <use xlink:href="#path-19"></use>
                </mask>
                <g id="Clip-3175"></g>
                <path d="M12.6644737,1.4056451 L11.4771793,10.512865 C11.4771793,10.512865 4.65708142,13.4035061 0,10.1478507 L2.82511353,0 L12.6644737,1.4056451" id="Fill-3174" fill="url(#linearGradient-21)" mask="url(#mask-20)"></path>
            </g>
            <g id="Group-3179" transform="translate(459.375000, 312.865497)">
                <mask id="mask-23" fill="white">
                    <use xlink:href="#path-22"></use>
                </mask>
                <g id="Clip-3178"></g>
                <path d="M11.1435013,0.00424463812 C11.6651284,2.23267965 13.9415496,111.099158 0.0551273598,159.887029 C-0.170235802,160.685021 0.310876566,161.504236 1.21486138,161.814094 C3.34441665,162.544172 7.51996557,163.598965 12.5235342,163.74269 C14.0732224,163.783607 15.4608518,162.938924 15.8989173,161.693122 C19.8668282,150.372672 38.8859598,93.6600625 41.3674867,39.4836238 C44.1376811,-21.0555274 41.3674867,37.4207297 41.3674867,37.4207297 L39.7418333,0 L11.1435013,0.00424463812" id="Fill-3177" fill="url(#linearGradient-24)" mask="url(#mask-23)"></path>
            </g>
            <g id="Group-3182" transform="translate(498.519737, 482.456140)">
                <mask id="mask-26" fill="white">
                    <use xlink:href="#path-25"></use>
                </mask>
                <g id="Clip-3181"></g>
                <path d="M15.9334575,0 C15.9334575,0 18.3303817,3.63062595 20.6511324,13.2801657 C21.0700863,15.0237229 19.6278692,16.6901695 17.5305606,16.8658104 C13.8183751,17.172111 8.10536724,17.568374 3.52734364,17.5426705 C1.41733941,17.5298187 -0.22800684,15.98118 0.0259046189,14.2140612 C0.533727537,10.6905334 2.1105177,4.91366131 6.99069594,0.409114782 L15.9334575,0" id="Fill-3180" fill="url(#linearGradient-27)" mask="url(#mask-26)"></path>
            </g>
            <g id="Group-3185" transform="translate(505.427632, 470.760234)">
                <mask id="mask-29" fill="white">
                    <use xlink:href="#path-28"></use>
                </mask>
                <g id="Clip-3184"></g>
                <path d="M10.3618421,0.510996509 L7.73659051,13.6648261 C7.73659051,13.6648261 5.13964351,15.4381572 0,14.152005 L1.25483724,0 L10.3618421,0.510996509" id="Fill-3183" fill="url(#linearGradient-30)" mask="url(#mask-29)"></path>
            </g>
            <g id="Group-3188" transform="translate(468.585526, 309.941520)">
                <mask id="mask-32" fill="white">
                    <use xlink:href="#path-31"></use>
                </mask>
                <g id="Clip-3187"></g>
                <path d="M55.5415838,6.05696453 C66.7817545,63.7976085 53.102537,148.770058 48.4876498,165.402708 C48.2068962,166.420381 47.239299,167.201237 46.0285491,167.371915 C43.9680183,167.662069 40.5789213,167.898886 37.2349455,167.073227 C36.0843571,166.78734 35.2746838,165.904078 35.2270559,164.884272 C34.607894,151.439048 35.7233882,68.8945047 25.2477697,36.2713822 C24.7163432,34.6200646 23.5306606,33.1778286 21.8887534,32.1836245 L1.55918514,19.8819487 L0,0 L55.5415838,6.05696453" id="Fill-3186" fill="url(#linearGradient-33)" mask="url(#mask-32)"></path>
            </g>
            <g id="Group-3191" transform="translate(404.111842, 202.729045)">
                <mask id="mask-35" fill="white">
                    <use xlink:href="#path-34"></use>
                </mask>
                <g id="Clip-3190"></g>
                <path d="M48.5860579,4.66200821 C82.2414381,4.19092681 119.377805,12.1505048 119.377805,12.1505048 C129.410058,61.7519804 121.133324,118.962906 121.133324,118.962906 C95.0760109,124.753812 65.682961,115.423429 65.682961,115.423429 C61.3530144,94.6916041 41.1482664,36.3432929 41.1482664,36.3432929 C24.7024831,34.6138725 11.1566872,30.5948267 0,25.2792461 C8.50963479,16.9228564 12.5215344,6.28745122 14.264532,0 C26.162494,3.13417666 38.2057058,4.8084254 48.5860579,4.66200821" id="Fill-3189" fill="url(#linearGradient-36)" mask="url(#mask-35)"></path>
            </g>
            <g id="Group-3194" transform="translate(352.302632, 162.768031)">
                <mask id="mask-38" fill="white">
                    <use xlink:href="#path-37"></use>
                </mask>
                <g id="Clip-3193"></g>
                <path d="M0,2.17975152 C3.33262802,-1.23186504 7.55143212,0.380899151 7.55143212,0.380899151 C12.5453247,18.2517809 38.7266524,32.7388524 65.625,39.8208978 C63.8677961,46.1585905 59.8231976,56.8789806 51.2442052,65.3021442 C6.60466279,44.0388964 0,2.17975152 0,2.17975152" id="Fill-3192" fill="url(#linearGradient-39)" mask="url(#mask-38)"></path>
            </g>
            <g id="Group-3197" transform="translate(338.486842, 135.477583)">
                <mask id="mask-41" fill="white">
                    <use xlink:href="#path-40"></use>
                </mask>
                <g id="Clip-3196"></g>
                <path d="M15.1775735,31.0934183 C14.8289023,32.0443072 18.8423838,33.493384 21.205321,29.6031869 C21.2880991,27.7382316 22.6000058,19.7498981 21.3106749,18.2315083 C14.4375878,10.1413713 1.11533766,0 1.11533766,0 C-1.13722883,1.91910614 0.719006362,3.80355573 0.719006362,3.80355573 L7.18322,9.61719102 C5.83117842,11.7269082 4.18063416,13.5073881 3.40803897,16.0589762 C2.82357572,17.9910785 3.18228063,20.057475 4.31107231,21.8141286 C5.44488083,23.5794463 6.99508806,25.8732763 8.45750038,27.6689185 C11.2268026,31.0674259 15.1775735,31.0934183 15.1775735,31.0934183" id="Fill-3195" fill="url(#linearGradient-42)" mask="url(#mask-41)"></path>
            </g>
            <g id="Group-3200" transform="translate(346.546053, 149.122807)">
                <mask id="mask-44" fill="white">
                    <use xlink:href="#path-43"></use>
                </mask>
                <g id="Clip-3199"></g>
                <path d="M1.32841363,0 L7.3275062,4.31426694 L9.21052632,8.61119009 L3.86039861,13.6452242 C3.86039861,13.6452242 2.06169283,5.12075302 0.725438398,3.27580771 C-0.610816037,1.4308624 0.0815834886,0.537657387 1.32841363,0" id="Fill-3198" fill="url(#linearGradient-45)" mask="url(#mask-44)"></path>
            </g>
            <g id="Group-3203" transform="translate(510.032895, 214.424951)">
                <mask id="mask-47" fill="white">
                    <use xlink:href="#path-46"></use>
                </mask>
                <g id="Clip-3202"></g>
                <path d="M-6.54447257e-14,27.9090425 L13.2069715,0 C13.2069715,0 45.3674202,18.2921865 50.6578947,41.487168 C44.5808945,41.8603466 33.5234184,43.1836294 22.6990819,47.7582846 C20.3215709,36.8074223 -6.54447257e-14,27.9090425 -6.54447257e-14,27.9090425" id="Fill-3201" fill="url(#linearGradient-48)" mask="url(#mask-47)"></path>
            </g>
            <g id="Group-3206" transform="translate(477.796053, 255.360624)">
                <mask id="mask-50" fill="white">
                    <use xlink:href="#path-49"></use>
                </mask>
                <g id="Clip-3205"></g>
                <path d="M4.69992236,12.7006525 C4.69992236,12.7006525 40.2177271,29.808092 52.2031591,15.2004089 C54.6904639,12.1680583 55.2851994,9.15288819 54.6728234,6.27945685 C65.3201006,1.69871764 76.1967038,0.373674929 82.1742994,0 C83.7417803,7.00103602 82.9126787,14.4466163 78.084233,21.9716563 C57.0920864,54.6982783 0,20.1634132 0,20.1634132 L4.69992236,12.7006525" id="Fill-3204" fill="url(#linearGradient-51)" mask="url(#mask-50)"></path>
            </g>
            <g id="Group-3209" transform="translate(398.355263, 228.070175)">
                <mask id="mask-53" fill="white">
                    <use xlink:href="#path-52"></use>
                </mask>
                <g id="Clip-3208"></g>
                <path d="M88.5737269,61.842569 L69.2238222,4.74387596 C69.0024504,4.09555858 68.3483975,3.62366856 67.5559872,3.54502022 C64.0517728,3.19854241 53.8913119,2.22925479 42.1636396,1.39175628 C28.0335805,0.379956047 11.6269141,-0.436286158 1.82366678,0.258795094 C0.430030903,0.358699739 -0.412691153,1.60431935 0.206143551,2.66288346 C5.78320266,12.1942117 28.715305,50.9635908 40.1989652,63.6642345 C40.5813346,64.0851094 41.1699823,64.3316826 41.7963637,64.3274854 L86.6895513,63.9745766 C87.9976572,63.9639484 88.933456,62.9053843 88.5737269,61.842569" id="Fill-3207" fill="url(#linearGradient-54)" mask="url(#mask-53)"></path>
            </g>
            <g id="Group-3212" transform="translate(423.684211, 223.196881)">
                <mask id="mask-56" fill="white">
                    <use xlink:href="#path-55"></use>
                </mask>
                <g id="Clip-3211"></g>
                <path d="M15.5327544,1.99897781 L1.19900038,0.0123206968 C0.435664368,-0.0946037983 -0.18888328,0.512727333 0.0527112835,1.12433545 L1.4714368,4.70202905 C1.59480424,5.01211008 1.92121392,5.23879001 2.31187747,5.28155981 L16.105899,6.81485707 C16.8178319,6.8939812 17.4063974,6.35508174 17.2419075,5.771274 L16.3654846,2.64694025 C16.2703889,2.31119734 15.9414091,2.05457855 15.5327544,1.99897781" id="Fill-3210" fill="url(#linearGradient-57)" mask="url(#mask-56)"></path>
            </g>
            <g id="Group-3215" transform="translate(416.776316, 226.120858)">
                <mask id="mask-59" fill="white">
                    <use xlink:href="#path-58"></use>
                </mask>
                <g id="Clip-3214"></g>
                <path d="M32.2118221,8.3658208 L31.056071,3.34212477 C30.9404959,2.83828563 30.4430204,2.45830695 29.8324823,2.40582371 L1.53165434,0.006289837 C0.579415895,-0.0755840222 -0.18438486,0.654982722 0.039227861,1.43173472 L1.83817964,7.69193596 C1.98390478,8.19367576 2.5039928,8.55476047 3.1195559,8.58205176 L30.7746707,9.74508043 C31.6766591,9.78286836 32.3801598,9.10478486 32.2118221,8.3658208" id="Fill-3213" fill="url(#linearGradient-60)" mask="url(#mask-59)"></path>
            </g>
            <g id="Group-3218" transform="translate(459.375000, 256.335283)">
                <mask id="mask-62" fill="white">
                    <use xlink:href="#path-61"></use>
                </mask>
                <g id="Clip-3217"></g>
                <path d="M23.4934753,19.3869136 C23.4934753,19.3869136 26.143134,10.0600694 25.0753611,6.75143181 C24.0051165,3.44279418 21.9363065,-0.812075699 15.0353299,0.134156559 C8.13682491,1.07827197 0,3.56768837 0,3.56768837 C0,3.56768837 0.410301621,7.87971322 5.65276992,6.48894232 L2.40248901,8.64389632 C2.40248901,8.64389632 2.86716795,12.0943629 7.2964481,10.250586 L4.27109157,13.1083344 C4.27109157,13.1083344 6.17429788,15.9427975 9.43199388,14.1244228 C12.6896899,12.306048 14.2518021,20.5109613 23.4934753,19.3869136" id="Fill-3216" fill="url(#linearGradient-63)" mask="url(#mask-62)"></path>
            </g>
            <g id="Group-3221" transform="translate(465.131579, 184.210526)">
                <mask id="mask-65" fill="white">
                    <use xlink:href="#path-64"></use>
                </mask>
                <g id="Clip-3220"></g>
                <path d="M21.5754823,0 L32.1748346,25.7768959 C32.3508295,26.2041833 32.1426102,26.677326 31.671638,26.8961805 C28.7813563,28.2384884 18.3728717,32.1215932 5.82766072,25.4329816 C4.52133269,24.7368158 3.6314432,23.6008565 3.43313913,22.3106569 L-1.63611814e-14,0 L21.5754823,0" id="Fill-3219" fill="url(#linearGradient-66)" mask="url(#mask-65)"></path>
            </g>
            <g id="Group-3224" transform="translate(452.467105, 159.844055)">
                <mask id="mask-68" fill="white">
                    <use xlink:href="#path-67"></use>
                </mask>
                <g id="Clip-3223"></g>
                <path d="M10.4275708,0 C10.4275708,0 -1.37989818,18.8982272 0.134073344,26.5310671 C1.64552997,34.166045 16.2822646,33.6187041 29.063001,27.418358 L37.9934211,7.01066717 L10.4275708,0" id="Fill-3222" fill="url(#linearGradient-69)" mask="url(#mask-68)"></path>
            </g>
            <g id="Group-3227" transform="translate(457.072368, 146.198830)">
                <mask id="mask-71" fill="white">
                    <use xlink:href="#path-70"></use>
                </mask>
                <g id="Clip-3226"></g>
                <path d="M24.5022761,31.0370292 C23.9758679,30.8409735 23.7816591,30.3018205 24.0959708,29.899054 C25.0593487,28.6758372 26.860891,26.1761276 27.4358514,23.9896808 C27.4358514,23.9896808 29.5925914,22.8367884 21.9443415,21.3109639 C14.298647,19.7830084 2.89398974,17.4132923 0.497044067,11.9855341 C-1.84112788,6.69416251 4.29944828,-6.61631155 14.096772,3.98774207 C14.4698574,4.39263962 15.1981405,4.40116378 15.5712258,3.99626623 C17.1785593,2.25307574 21.4000457,-1.36329865 27.2620856,0.829541213 C32.7484847,2.88173246 33.364331,6.23385793 33.290225,7.92377242 C33.2672266,8.42030468 33.8013009,8.80815391 34.3864827,8.71438816 C37.1616245,8.27326294 43.8158319,7.89393787 46.923173,13.588076 C49.4811075,18.2784944 47.8175557,20.9337699 46.3047712,22.2315731 C45.8141384,22.6513879 46.0287902,23.3439758 46.700855,23.51659 C48.5228403,23.9811567 50.8788999,25.2704357 50.6412497,28.8314031 C50.3167165,33.7562359 43.7161721,33.3215037 41.835413,33.0977446 C41.5287675,33.0615169 41.2170113,33.1488895 41.0100255,33.3406831 C39.3975813,34.8281488 32.137749,41.1424195 24.2799581,41.9053317 C23.5976718,41.9692629 23.0712637,41.4087995 23.2935817,40.8696464 L26.6947914,32.6267848 C26.8532249,32.2431977 26.6334623,31.8233828 26.1888263,31.6592928 L24.5022761,31.0370292" id="Fill-3225" fill="url(#linearGradient-72)" mask="url(#mask-71)"></path>
            </g>
            <g id="Group-3230" transform="translate(477.796053, 175.438596)">
                <mask id="mask-74" fill="white">
                    <use xlink:href="#path-73"></use>
                </mask>
                <g id="Clip-3229"></g>
                <path d="M2.57035135,2.49760252 C2.57035135,2.49760252 10.8749455,-2.54635821 11.4809027,1.70165056 C12.0868599,5.94746058 4.00329119,7.8537875 0,6.26847987 L2.57035135,2.49760252" id="Fill-3228" fill="url(#linearGradient-75)" mask="url(#mask-74)"></path>
            </g>
        </g>
    </g>
</svg>