<?xml version="1.0" encoding="UTF-8"?>
<svg width="700px" height="277px" viewBox="0 0 700 277" version="1.1" xmlns="http://www.w3.org/2000/svg" xmlns:xlink="http://www.w3.org/1999/xlink">
    <title>Man selling idea for startup</title>
    <g id="website" stroke="none" stroke-width="1" fill="none" fill-rule="evenodd">
        <g id="Man-selling-idea-for-startup">
            <polygon id="Fill-1" fill="#FFFFFF" points="0 276 700 276 700 0 0 0"></polygon>
            <g id="Group-8" transform="translate(191.521565, 18.109959)">
                <path d="M21.5357847,256.980041 C21.5357847,256.980041 -1.89616531,214.857041 0.12343469,173.889041 C3.15988469,112.290341 25.4569347,90.9369414 53.4775347,75.4585914 C76.1419347,62.9389914 89.5261347,44.0739414 123.234435,18.3705414 C167.143935,-15.1115586 284.518935,-11.3275086 283.663935,102.441791 C283.330935,146.728541 330.882435,179.662541 296.725935,257.110541 L21.5357847,256.980041" id="Fill-3" fill="#FCECDB"></path>
                <path d="M177.277935,75.2613414 C178.105935,75.0189414 189.739935,75.0843414 189.682935,75.5685414 C189.627435,76.0525914 189.435435,82.8123414 189.333435,83.4666414 C189.367935,84.9238914 187.483935,86.9820414 183.198435,87.0837414 C178.912935,87.1855914 176.934435,85.2192414 176.899935,83.7619914 C176.724435,83.0254914 176.173935,75.8893914 176.173935,75.8893914 L177.277935,75.2613414" id="Fill-4" fill="#2B478B"></path>
                <path d="M196.764435,57.8502414 C196.660935,53.4862914 193.035435,44.3721414 182.520435,44.3721414 C171.442935,44.3721414 168.376935,53.9817414 168.264435,57.6541914 C168.105435,62.7991914 170.931435,66.8797914 174.346935,69.9391914 C176.173935,71.5761414 176.173935,75.8893914 176.173935,75.8893914 L189.682935,75.5683914 C189.682935,75.5683914 189.370935,71.7709914 191.497935,69.7696914 C194.655435,66.7981914 196.878435,62.6490414 196.764435,57.8502414" id="Fill-5" fill="#FFCD57"></path>
                <path d="M175.657935,60.9255414 L173.761935,60.1044414 C173.524935,60.0019914 173.538435,59.8327914 173.790435,59.7283914 C174.021435,59.6326914 174.388935,59.6311914 174.606435,59.7253914 L175.669935,60.1854414 C175.744935,60.2182914 175.869435,60.2163414 175.947435,60.1807914 L177.760935,59.3442414 C177.831435,59.3118414 177.951435,59.3073414 178.027935,59.3344914 L180.183435,60.1054914 C180.259935,60.1326414 180.379935,60.1281414 180.450435,60.0957414 L180.654435,60.0012414 C181.651935,59.5417914 183.298935,59.5026414 184.315935,59.9142414 L184.539435,60.0048414 C184.612935,60.0340914 184.725435,60.0337914 184.801935,60.0036414 L187.074435,59.1139914 C187.153935,59.0827914 187.275435,59.0839914 187.345935,59.1166914 L188.974935,59.8744914 C189.045435,59.9076414 189.168435,59.9082414 189.247935,59.8755414 L190.617435,59.3113914 C190.848435,59.2161414 191.214435,59.2150914 191.430435,59.3088414 C191.664435,59.4108414 191.650935,59.5788414 191.400435,59.6823414 L189.157935,60.6063414 C189.078435,60.6391914 188.953935,60.6387414 188.881935,60.6052914 L187.233435,59.8380414 C187.162935,59.8053414 187.041435,59.8041414 186.961935,59.8351914 L184.747935,60.7017414 C184.672935,60.7306914 184.555935,60.7312914 184.485435,60.7027914 L184.333935,60.6415914 C183.316935,60.2298414 181.668435,60.2688414 180.672435,60.7282914 L180.516435,60.8004414 C180.442935,60.8338914 180.327435,60.8382414 180.249435,60.8101914 L178.092435,60.0390414 C178.014435,60.0111414 177.900435,60.0153414 177.828435,60.0487914 L175.935435,60.9210414 C175.858935,60.9564414 175.734435,60.9585414 175.657935,60.9255414" id="Fill-6" fill="#F28933"></path>
                <path d="M185.103435,77.5975914 C185.265435,77.5975914 185.395935,77.4667914 185.395935,77.3053914 C185.395935,72.0147414 185.971935,66.1401414 190.149435,59.0398914 C190.230435,58.9006914 190.183935,58.7214414 190.045935,58.6396914 C189.906435,58.5577914 189.726435,58.6042914 189.645435,58.7433414 C185.395935,65.9643414 184.810935,71.9320914 184.810935,77.3053914 C184.810935,77.4667914 184.941435,77.5975914 185.103435,77.5975914" id="Fill-7" fill="#2B478B"></path>
                <path d="M179.920935,77.5975914 C180.082935,77.5975914 180.213435,77.4667914 180.213435,77.3053914 C180.213435,71.9320914 179.628435,65.9643414 175.378935,58.7433414 C175.297935,58.6042914 175.117935,58.5577914 174.979935,58.6396914 C174.840435,58.7214414 174.793935,58.9006914 174.874935,59.0398914 C179.052435,66.1401414 179.628435,72.0147414 179.628435,77.3053914 C179.628435,77.4667914 179.760435,77.5975914 179.920935,77.5975914" id="Fill-8" fill="#2B478B"></path>
                <path d="M189.366435,78.5827914 L176.629935,78.8853414 C176.113935,78.8974914 175.684935,78.4885914 175.672935,77.9718414 L175.669935,77.8996914 C175.657935,77.3829414 176.067435,76.9540914 176.583435,76.9417914 L189.319935,76.6392414 C189.837435,76.6270914 190.266435,77.0359914 190.278435,77.5525914 L190.279935,77.6248914 C190.291935,78.1416414 189.883935,78.5704914 189.366435,78.5827914" id="Fill-9" fill="#5370B5"></path>
                <path d="M189.423435,80.9634414 L176.686935,81.2659914 C176.169435,81.2782914 175.740435,80.8693914 175.728435,80.3526414 L175.726935,80.2804914 C175.714935,79.7637414 176.124435,79.3348914 176.640435,79.3225914 L189.376935,79.0200414 C189.894435,79.0077414 190.323435,79.4166414 190.335435,79.9333914 L190.336935,80.0056914 C190.348935,80.5222914 189.939435,80.9512914 189.423435,80.9634414" id="Fill-10" fill="#5370B5"></path>
                <path d="M189.430935,83.3848914 L176.692935,83.6874414 C176.176935,83.6997414 175.747935,83.2906914 175.735935,82.7740914 L175.734435,82.7019414 C175.722435,82.1850414 176.130435,81.7561914 176.647935,81.7440414 L189.384435,81.4414914 C189.900435,81.4291914 190.329435,81.8380914 190.341435,82.3548414 L190.344435,82.4271414 C190.356435,82.9437414 189.946935,83.3725914 189.430935,83.3848914" id="Fill-11" fill="#5370B5"></path>
                <path d="M244.849935,159.550541 L244.489935,161.839541 C244.489935,161.839541 241.908435,165.639041 246.054435,168.336041 C246.054435,168.336041 247.866435,169.327541 248.268435,167.944541 C248.671935,166.560041 248.296935,167.049041 248.913435,165.106541 C249.528435,163.164041 249.105435,161.191541 247.813935,160.369541 L246.921435,158.979041 L244.849935,159.550541" id="Fill-12" fill="#FFB27D"></path>
                <path d="M246.343935,161.733041 C244.504935,161.976041 244.249935,161.799041 244.249935,161.799041 C244.249935,161.799041 238.587435,144.868541 237.987435,143.302541 C237.385935,141.738041 223.165935,122.778791 223.165935,122.778791 L230.535435,107.191241 C230.535435,107.191241 245.410935,135.904541 246.855435,139.899041 C249.241935,146.500541 248.757435,160.738541 248.757435,160.738541 C248.757435,160.738541 247.788435,161.542541 246.343935,161.733041" id="Fill-13" fill="#ED7D2B"></path>
                <path d="M249.006435,162.045041 C249.006435,162.045041 249.345435,163.890041 249.736935,164.436041 C250.128435,164.982041 250.507935,165.463541 250.161435,165.727541 C249.816435,165.991541 248.376435,164.557541 248.320935,164.263541 C248.266935,163.969541 249.006435,162.045041 249.006435,162.045041" id="Fill-14" fill="#FFB27D"></path>
                <path d="M263.008935,191.464541 L236.994435,195.171041 C233.608935,195.654041 230.443935,193.278041 229.962435,189.892541 L228.355935,178.618541 C227.872935,175.233041 230.248935,172.068041 233.634435,171.586541 L259.647435,167.878541 C263.034435,167.397041 266.197935,169.771541 266.680935,173.157041 L268.287435,184.431041 C268.770435,187.816541 266.394435,190.981541 263.008935,191.464541" id="Fill-15" fill="#233862"></path>
                <path d="M243.192435,167.712041 C243.132435,167.292041 243.426435,166.902041 243.844935,166.842041 L251.614935,165.735041 C251.694435,165.724541 251.770935,165.724541 251.845935,165.736541 C252.169935,165.789041 252.436935,166.047041 252.484935,166.387541 L252.831435,168.819041 L243.538935,170.143541 L243.192435,167.712041 Z M271.734435,184.065041 L270.109935,172.662041 C269.625435,169.263041 266.448435,166.879541 263.050935,167.362541 L254.109435,168.637541 L253.762935,166.206041 C253.602435,165.081041 252.556935,164.296541 251.433435,164.457041 L243.663435,165.564041 C243.120435,165.642041 242.638935,165.927041 242.307435,166.368041 C241.977435,166.809041 241.837935,167.350541 241.914435,167.893541 L242.260935,170.325041 L237.081435,171.063041 C233.683935,171.547541 231.298935,174.724541 231.783435,178.123541 L233.409435,189.526541 C233.893935,192.925541 237.069435,195.309041 240.468435,194.824541 L266.436435,191.124041 C269.833935,190.641041 272.218935,187.464041 271.734435,184.065041 L271.734435,184.065041 Z" id="Fill-16" fill="#233862"></path>
                <path d="M230.329935,106.504691 C230.329935,106.504691 224.517435,111.310991 218.856435,107.831291 C218.856435,107.831291 218.121435,104.424191 218.526435,102.084641 C218.577435,101.796791 218.623935,101.517491 218.667435,101.251841 C219.112935,98.6149914 219.291435,97.1227914 219.291435,97.1227914 C219.291435,97.1227914 219.294435,97.1224914 219.298935,97.1226414 C219.595935,97.0573914 229.303935,94.9881414 229.240935,95.2948914 C227.794935,102.381941 230.329935,106.504691 230.329935,106.504691" id="Fill-17" fill="#FFB27D"></path>
                <path d="M228.025935,96.8269914 C226.861935,98.2836414 223.297935,100.900241 218.667435,101.251841 C219.112935,98.6149914 219.291435,97.1227914 219.291435,97.1227914 C219.291435,97.1227914 219.294435,97.1224914 219.298935,97.1226414 C219.559935,97.1008914 228.370935,96.3979914 228.025935,96.8269914" id="Fill-18" fill="#ED975D"></path>
                <path d="M217.449435,96.5059914 C217.449435,96.5059914 227.175435,100.738991 229.719435,94.6411914 C232.261935,88.5435414 235.228935,84.9831414 229.126935,82.0225914 C223.024935,79.0621914 220.839435,80.8825914 219.495435,82.7115414 C218.152935,84.5401914 214.984935,95.2476414 217.449435,96.5059914" id="Fill-19" fill="#FFB27D"></path>
                <path d="M229.056435,96.3081414 C229.179435,96.4222914 231.244935,97.4907414 236.881935,89.9946414 C237.766935,88.8178914 238.717935,86.0973414 237.651435,83.3475414 C236.586435,80.5977414 231.567435,77.6767914 227.257935,76.0198914 C222.948435,74.3628414 221.421435,76.6795914 219.912435,79.0128414 C218.328435,81.4620414 214.744935,83.0649414 214.744935,83.0649414 C218.203935,85.9134414 223.398435,83.6800914 224.911935,84.4771914 C226.425435,85.2742914 226.533435,87.9082914 226.506435,88.7413914 C226.480935,89.5744914 226.542435,90.2823414 228.693435,89.9244414 C230.844435,89.5663914 229.087935,92.9518914 228.639435,93.5788914 C228.639435,93.5788914 228.033435,95.3559414 229.056435,96.3081414" id="Fill-20" fill="#A9453D"></path>
                <path d="M243.843435,257.121041 L250.095435,257.121041 C251.406435,257.121041 252.862935,255.808541 253.227435,253.407041 C253.591935,251.002541 256.285935,249.691541 256.869435,247.723541 C257.452935,245.757041 254.464935,242.988041 254.464935,242.988041 L253.965435,242.346041 L253.446435,241.677041 L248.493435,242.842541 C248.493435,242.842541 248.370435,244.021541 248.293935,245.524541 C248.241435,246.609041 248.212935,247.863041 248.274435,248.962541 C248.419935,251.584541 247.539435,254.409041 245.209935,254.919041 C242.878935,255.430541 243.843435,257.121041 243.843435,257.121041" id="Fill-21" fill="#2C3A64"></path>
                <path d="M200.314935,257.121041 L216.888435,257.121041 C217.047435,257.091041 217.167435,257.056541 217.240935,257.019041 C218.346435,256.465541 218.001435,252.228041 217.867935,250.920041 C217.842435,250.677041 217.824435,250.534541 217.824435,250.534541 C217.824435,250.534541 211.995435,245.874041 211.194435,249.442541 C211.168935,249.555041 211.138935,249.664541 211.108935,249.771041 L211.108935,249.774041 C210.096435,253.113041 205.573935,254.629541 202.960935,255.052541 C200.965935,255.376541 200.448435,256.540541 200.314935,257.121041" id="Fill-22" fill="#2C3A64"></path>
                <path d="M203.655435,161.544041 C203.655435,161.544041 204.540435,172.587041 205.581435,185.862041 C206.994435,203.893541 208.695435,226.042541 208.863435,230.239541 C209.154435,237.525041 210.321435,249.180041 210.321435,249.180041 C210.321435,249.180041 213.087435,251.949041 218.625435,250.782041 C218.625435,250.782041 223.560435,234.144041 224.970435,216.540041 C224.991435,216.252041 225.013935,215.961041 225.034935,215.670041 C226.345935,197.749541 228.385935,160.014041 228.385935,160.014041 L203.655435,161.544041" id="Fill-23" fill="#2B478B"></path>
                <path d="M203.655435,161.544041 C203.655435,161.544041 204.540435,172.587041 205.581435,185.862041 L224.970435,216.540041 C224.991435,216.252041 225.013935,215.961041 225.034935,215.670041 C226.345935,197.749541 228.385935,160.014041 228.385935,160.014041 L203.655435,161.544041" id="Fill-24" fill="#233862"></path>
                <path d="M207.697935,162.855041 C207.697935,162.855041 223.650435,202.849541 234.141435,221.643041 C244.630935,240.438041 247.909935,245.683541 247.909935,245.683541 C247.909935,245.683541 253.918935,243.279041 254.466435,241.641041 C254.466435,241.641041 250.453935,205.356041 243.429435,196.510541 C239.460435,191.512541 234.796935,176.514041 234.577935,171.268541 C234.360435,166.024541 233.157435,155.643041 233.157435,155.643041 L207.697935,162.855041" id="Fill-25" fill="#2B478B"></path>
                <path d="M202.818435,165.387041 C202.992435,165.558041 203.205435,165.663041 203.457435,165.679541 C205.792935,165.808541 212.515935,167.562041 218.317935,167.362541 C223.209435,167.223041 227.607435,166.077041 232.363935,164.317541 C232.996935,164.083541 234.459435,163.426541 234.475935,162.739541 C234.505935,161.988041 234.505935,160.893041 234.502935,159.514541 C234.496935,154.728041 234.483435,146.490041 235.677435,137.067041 C235.896435,135.313541 236.067435,133.570541 236.190435,131.850041 C236.508435,127.366691 236.497935,123.050591 236.143935,119.155841 C235.480935,111.917141 233.625435,106.128941 230.472435,103.423991 C230.056935,103.083041 227.292435,104.209991 224.746935,105.258641 C222.399435,106.224941 220.116435,106.195691 217.996935,105.617441 L215.719935,107.369741 C212.940435,109.621841 209.850435,112.730741 208.264935,117.660341 C205.906935,124.959791 204.087435,144.634541 203.848935,148.276541 C203.694435,149.236541 202.549935,165.141041 202.818435,165.387041" id="Fill-26" fill="#FF9843"></path>
                <path d="M206.385435,126.375191 C206.809935,123.768941 207.511935,120.177491 208.324935,117.660341 C209.685435,113.429441 212.152935,110.540591 214.582935,108.382841 C218.289435,109.589741 222.222435,111.121391 223.858935,112.604141 C227.338935,115.757441 226.798935,122.226641 226.798935,122.226641 C226.798935,122.226641 218.832435,137.430041 203.926935,147.229541 C204.339435,142.123541 205.335435,132.808541 206.385435,126.375191" id="Fill-27" fill="#ED7D2B"></path>
                <path d="M181.029435,87.2526414 C181.110435,86.1546414 181.257435,83.6871414 180.934935,83.7567414 C180.703935,83.8066914 180.433935,84.0958914 180.220935,84.5095914 C180.003435,85.4125914 178.314435,84.2491914 177.366435,81.7593414 C176.826435,80.3407914 176.559435,78.9732414 176.349435,78.9706738 C175.938435,78.9654414 175.012935,80.1402414 174.922935,82.6456914 C174.832935,85.1509914 175.549935,88.0195914 177.564435,89.3964414 L178.920435,90.9864414 L181.959435,89.4579414 C181.959435,89.4579414 181.473435,88.3783914 181.029435,87.2526414" id="Fill-28" fill="#FFB27D"></path>
                <path d="M179.634435,88.6629414 C181.249935,87.5319414 182.055435,88.2361914 182.055435,88.2361914 C182.055435,88.2361914 195.468435,103.509791 196.803435,104.691191 C198.138435,105.872741 218.590935,110.539241 218.590935,110.539241 C218.590935,110.539241 226.848435,112.076591 228.010935,116.702441 C229.020435,120.721991 227.167935,123.644141 224.914935,125.614691 C222.229935,127.963541 218.367435,128.397041 215.202435,126.751691 C208.096935,123.059441 193.986435,115.599041 191.520435,113.327291 C186.028935,108.270641 177.768435,90.7825914 177.768435,90.7825914 C177.768435,90.7825914 178.365435,89.5512414 179.634435,88.6629414" id="Fill-29" fill="#FF9843"></path>
                <path d="M136.909935,122.412191 C137.994435,121.499141 139.857435,120.374291 139.963935,120.686591 C140.040435,120.911141 139.671435,121.625591 139.425435,122.022491 C140.280435,121.967141 142.258935,121.839941 144.136935,122.076341 C145.041435,122.190191 146.461935,122.410691 146.746935,122.847491 C146.878935,123.048941 146.985435,123.456341 146.269935,123.989141 C145.885935,124.274591 145.440435,124.857191 143.086935,125.739641 C140.250435,126.802541 137.515935,126.377591 135.483435,126.268691 L134.790435,126.154691 L134.563935,123.140741 C134.563935,123.140741 136.113435,122.858441 136.909935,122.412191" id="Fill-30" fill="#FFB27D"></path>
                <path d="M83.1431847,105.536291 C83.1431847,105.536291 88.0187847,111.320891 94.2277347,108.900941 C94.2277347,108.900941 95.5633347,105.670541 95.5822347,103.289141 C95.5844847,102.996041 95.5880847,102.711941 95.5927347,102.441791 C95.6257347,99.7602414 95.7163347,98.2554414 95.7163347,98.2554414 C95.7163347,98.2554414 95.7145347,98.2548414 95.7100347,98.2543914 C95.4274347,98.1366414 86.2184847,94.3554414 86.2259847,94.6696914 C86.3840847,101.922341 83.1431847,105.536291 83.1431847,105.536291" id="Fill-31" fill="#FFB27D"></path>
                <path d="M87.1505847,96.3990414 C88.0387347,98.0449914 91.0858347,101.265491 95.5927347,102.441791 C95.6257347,99.7602414 95.7163347,98.2554414 95.7163347,98.2554414 C95.7163347,98.2554414 95.7145347,98.2548414 95.7100347,98.2543914 C95.4550347,98.1858414 86.8864347,95.9139414 87.1505847,96.3990414" id="Fill-32" fill="#ED975D"></path>
                <path d="M97.6448847,97.9768914 C97.6448847,97.9768914 87.2882847,100.411691 85.8713847,93.9388914 C84.4543347,87.4660914 82.1633847,83.4208914 88.7158347,81.5928414 C95.2682847,79.7646414 97.0979847,81.9522414 98.0963847,83.9977914 C99.0950847,86.0430414 100.302435,97.1766414 97.6448847,97.9768914" id="Fill-33" fill="#FFB27D"></path>
                <path d="M86.2256847,95.7024414 C86.0843847,95.7931914 84.3013347,94.1247414 81.5488347,88.7713914 C80.8735347,87.4582914 80.0045847,84.0043914 81.5488347,81.4816914 C83.0929347,78.9589914 86.9134347,77.9443914 91.4303847,76.9257414 C95.4707847,76.0144914 96.9008847,77.0079414 98.0990847,79.0086414 C100.330635,82.7346414 98.0963847,83.9977914 98.0963847,83.9977914 C95.7163347,85.2405414 94.0727847,84.2545914 92.4358347,84.7701414 C90.7988847,85.2852414 90.2206347,87.8653914 90.0977847,88.6923414 C89.9749347,89.5191414 89.7863847,90.2062914 87.7277847,89.4679914 C85.6693347,88.7292414 86.7970347,92.3850414 87.1265847,93.0838914 C87.1265847,93.0838914 87.4063347,94.9461414 86.2256847,95.7024414" id="Fill-34" fill="#2C3A64"></path>
                <path d="M59.5468347,257.121041 L53.2757847,257.121041 C51.9611847,257.121041 50.5004847,255.805541 50.1347847,253.395041 C49.7690847,250.984541 47.0668347,249.669041 46.4819847,247.696541 C45.8968347,245.724041 48.8933847,242.947541 48.8933847,242.947541 L49.3943847,242.304041 L49.9153347,241.632041 L54.8828847,242.800541 C54.8828847,242.800541 55.0054347,243.984041 55.0820847,245.490041 C55.1351847,246.577541 55.1644347,247.836041 55.1021847,248.938541 C54.9560847,251.569541 55.8391347,254.401541 58.1756847,254.913041 C60.5140347,255.424541 59.5468347,257.121041 59.5468347,257.121041" id="Fill-35" fill="#2C3A64"></path>
                <path d="M103.203135,257.121041 L86.5801347,257.121041 C86.4209847,257.091041 86.3003847,257.055041 86.2271847,257.019041 C85.1174847,256.464041 85.4648847,252.214541 85.5983847,250.902041 C85.6240347,250.659041 85.6421847,250.516541 85.6421847,250.516541 C85.6421847,250.516541 91.4872347,245.841041 92.2918347,249.420041 C92.3173347,249.532541 92.3465847,249.642041 92.3776347,249.750041 L92.3776347,249.751541 C93.3922347,253.101041 97.9283847,254.622041 100.548285,255.046541 C102.550335,255.372041 103.069485,256.537541 103.203135,257.121041" id="Fill-36" fill="#2C3A64"></path>
                <path d="M99.8527347,161.262041 C99.8527347,161.262041 98.9650347,172.338041 97.9216347,185.652041 C96.5033847,203.737541 94.7981847,225.951041 94.6292847,230.160041 C94.3378347,237.468041 93.1673847,249.157541 93.1673847,249.157541 C93.1673847,249.157541 90.3923847,251.934041 84.8381847,250.764041 C84.8381847,250.764041 79.8889347,234.076541 78.4753347,216.421541 C78.4534347,216.132041 78.4313847,215.841041 78.4094847,215.548541 C77.0942847,197.575541 75.0493347,159.729041 75.0493347,159.729041 L99.8527347,161.262041" id="Fill-37" fill="#2B478B"></path>
                <path d="M99.8527347,161.262041 C99.8527347,161.262041 98.9650347,172.338041 97.9216347,185.652041 L78.4753347,216.421541 C78.4534347,216.132041 78.4313847,215.841041 78.4094847,215.548541 C77.0942847,197.575541 75.0493347,159.729041 75.0493347,159.729041 L99.8527347,161.262041" id="Fill-38" fill="#233862"></path>
                <path d="M95.7986847,162.577541 C95.7986847,162.577541 79.7980347,202.689041 69.2770347,221.539541 C58.7560347,240.390041 55.4681847,245.650541 55.4681847,245.650541 C55.4681847,245.650541 49.4405847,243.238541 48.8926347,241.594541 C48.8926347,241.594541 52.9157847,205.204541 59.9615847,196.333541 C63.9427347,191.320541 68.6194347,176.277041 68.8385847,171.016541 C69.0577347,165.756041 70.2632847,155.344541 70.2632847,155.344541 L95.7986847,162.577541" id="Fill-39" fill="#2B478B"></path>
                <path d="M135.876435,124.081091 C135.706935,122.228741 135.477435,122.018141 135.477435,122.018141 C135.477435,122.018141 117.661785,120.229541 115.997835,119.988641 C114.334335,119.747591 92.6390847,110.036741 92.6390847,110.036741 L79.0232847,120.696491 C79.0232847,120.696491 110.404785,128.889041 114.632385,129.417041 C121.618035,130.288541 135.438435,126.661991 135.438435,126.661991 C135.438435,126.661991 136.009935,125.536091 135.876435,124.081091" id="Fill-40" fill="#B2443B"></path>
                <path d="M103.230435,129.436541 C103.168335,132.867041 102.968985,136.722041 102.700185,140.638541 C102.215535,147.532541 101.720685,152.413541 101.703885,152.565041 C100.829985,161.446541 99.9139347,168.463541 99.7439847,168.571541 C99.5410347,168.706541 99.3124347,168.774041 99.0619347,168.745541 C96.7325847,168.453041 89.7833847,168.981041 84.0937347,167.743541 C79.2925347,166.731041 75.1586847,164.811041 70.7782347,162.222041 C70.1966847,161.878541 68.8712847,160.968041 68.9789847,160.287041 C69.0850347,159.540041 69.2806347,158.458541 69.5293347,157.101041 C70.3922847,152.376041 71.8823847,144.249041 72.3907347,134.739041 C72.4894347,132.967541 72.6337347,131.217041 72.8203347,129.496541 C73.3084347,125.015891 74.0909847,120.759491 75.1405347,116.978741 C77.0912847,109.954391 81.2180847,104.692091 84.8143347,102.587741 C85.2842847,102.324341 86.5526847,103.816541 88.8745347,105.306791 C91.0192347,106.681541 93.0518847,106.055291 95.2477347,105.863291 L97.4054847,109.007291 C103.120035,115.650491 103.387035,120.657491 103.230435,129.436541" id="Fill-41" fill="#C65447"></path>
                <path d="M103.230435,129.436541 C103.168335,132.867041 102.968985,136.722041 102.700185,140.638541 C102.683835,140.871041 102.667335,141.103541 102.650835,141.336041 C89.3462847,133.008041 92.2682847,109.492691 92.2682847,109.492691 C97.9453347,111.684041 101.671335,117.249491 102.574035,118.605641 C102.762285,120.702641 103.283535,126.463691 103.230435,129.436541" id="Fill-42" fill="#B2443B"></path>
                <path d="M137.337435,134.068541 C138.240435,133.431041 140.284935,132.030041 140.391435,132.342041 C140.467935,132.567041 140.097435,133.281041 139.852935,133.678541 C140.707935,133.623041 142.686435,133.495541 144.564435,133.732541 C145.468935,133.846541 146.889435,134.067041 147.174435,134.503541 C147.306435,134.704541 147.412935,135.112541 146.695935,135.645041 C146.313435,135.930041 145.867935,136.513541 143.512935,137.395541 C140.677935,138.459041 137.943435,138.033041 135.910935,137.925041 L135.217935,137.811041 L134.961435,134.409041 C134.961435,134.409041 136.140435,134.268041 137.337435,134.068541" id="Fill-43" fill="#FFB27D"></path>
                <path d="M136.846935,135.996041 C136.983435,134.023541 135.961935,133.695041 135.961935,133.695041 C135.961935,133.695041 115.901985,130.060541 114.196635,129.523541 C112.491435,128.986541 97.9097847,113.817941 97.9097847,113.817941 C97.9097847,113.817941 92.3206347,107.514791 87.7441347,108.906491 C83.7671847,110.116091 82.2127347,113.218241 81.6835347,116.173541 C81.0529347,119.695391 82.6760847,123.238691 85.7257347,125.109341 C92.5714347,129.307541 106.276635,137.581541 109.504335,138.528041 C116.688135,140.634041 135.988935,138.696041 135.988935,138.696041 C135.988935,138.696041 136.738935,137.547041 136.846935,135.996041" id="Fill-44" fill="#C65447"></path>
                <path d="M181.959435,35.4909414 C181.786935,35.4909414 181.635435,35.3652414 181.609935,35.1900414 C181.597935,35.1157914 180.510435,27.6681414 182.247435,18.6571914 C182.284935,18.4653414 182.470935,18.3400914 182.661435,18.3768414 C182.853435,18.4138914 182.979435,18.5992914 182.941935,18.7911414 C181.227435,27.6840414 182.298435,35.0113914 182.308935,35.0844414 C182.338935,35.2774914 182.205435,35.4577914 182.011935,35.4868914 C181.993935,35.4897414 181.975935,35.4909414 181.959435,35.4909414" id="Fill-45" fill="#FFCD57"></path>
                <path d="M166.789935,44.7258414 C166.675935,44.7258414 166.561935,44.6695914 166.494435,44.5659414 C166.458435,44.5114914 162.817935,39.0402414 154.491435,33.1929414 C154.330935,33.0807414 154.293435,32.8600914 154.405935,32.7001914 C154.516935,32.5402914 154.738935,32.5018914 154.897935,32.6140914 C163.344435,38.5459914 167.049435,44.1226914 167.085435,44.1783414 C167.193435,44.3416914 167.146935,44.5608414 166.983435,44.6679414 C166.924935,44.7070914 166.857435,44.7258414 166.789935,44.7258414" id="Fill-46" fill="#FFCD57"></path>
                <path d="M198.201435,41.3392914 C198.078435,41.3392914 197.958435,41.2743414 197.892435,41.1588414 C197.797935,40.9885914 197.857935,40.7728914 198.027435,40.6773414 C198.099435,40.6371414 205.171935,36.6042414 207.780435,30.5635914 C207.858435,30.3841914 208.066935,30.3016914 208.245435,30.3790914 C208.425435,30.4564914 208.507935,30.6648414 208.429935,30.8439414 C205.725435,37.1073414 198.673935,41.1258414 198.375435,41.2938414 C198.319935,41.3245914 198.259935,41.3392914 198.201435,41.3392914" id="Fill-47" fill="#FFCD57"></path>
                <path d="M219.991935,55.7242914 C219.969435,55.7242914 219.948435,55.7223414 219.925935,55.7181414 C217.725435,55.3053414 203.449935,55.7197914 203.305935,55.7241414 C203.106435,55.7304414 202.947435,55.5762414 202.941266,55.3809414 C202.935435,55.1856414 203.089935,55.0227414 203.284935,55.0168914 C203.875935,54.9994914 217.780935,54.5962914 220.056435,55.0227414 C220.248435,55.0587414 220.374435,55.2436914 220.338435,55.4356914 C220.306935,55.6056414 220.158435,55.7242914 219.991935,55.7242914" id="Fill-48" fill="#FFCD57"></path>
                <path d="M147.264435,61.3027914 C147.111435,61.3027914 146.970435,61.2031914 146.925435,61.0495914 C146.869935,60.8622414 146.976435,60.6652914 147.163935,60.6099414 C155.044935,58.2724914 163.731435,58.2454914 163.818435,58.2454914 C164.014935,58.2454914 164.172435,58.4038914 164.172435,58.5991914 C164.172435,58.7946414 164.014935,58.9528914 163.818435,58.9528914 C163.732935,58.9528914 155.145435,58.9807914 147.364935,61.2880914 C147.331935,61.2979914 147.297435,61.3027914 147.264435,61.3027914" id="Fill-49" fill="#FFCD57"></path>
                <path d="M316.047435,258.217541 L0.75358469,258.217541 C0.40693469,258.217541 0.12343469,257.934041 0.12343469,257.587541 C0.12343469,257.239541 0.40693469,256.956041 0.75358469,256.956041 L316.047435,256.956041 C316.393935,256.956041 316.677435,257.239541 316.677435,257.587541 C316.677435,257.934041 316.393935,258.217541 316.047435,258.217541" id="Fill-50" fill="#2E3552"></path>
            </g>
        </g>
    </g>
</svg>