<svg id="Capa_1" enable-background="new 0 0 512 512" height="512" viewBox="0 0 512 512" width="512" xmlns="http://www.w3.org/2000/svg"><g id="Pop_Up"><path d="m256 96-256 32v288h192l64 96 64-96h192v-288z" fill="#80eaff"/><path d="m0 0v96l256 32 256-32v-96z" fill="#4db5ff"/><path d="m0 96h512v32h-512z" fill="#37f"/><path d="m32 32h32v32h-32z" fill="#80eaff"/><path d="m96 32h32v32h-32z" fill="#80eaff"/><path d="m160 32h32v32h-32z" fill="#80eaff"/><g fill="#4db5ff"><path d="m80 320h32v32h-32z"/><path d="m144 320h288v32h-288z"/><path d="m80 256h32v32h-32z"/><path d="m144 256h288v32h-288z"/><path d="m80 192h32v32h-32z"/><path d="m144 192h288v32h-288z"/></g></g></svg>