<?xml version="1.0" encoding="UTF-8"?>
<svg width="700px" height="500px" viewBox="0 0 700 500" version="1.1" xmlns="http://www.w3.org/2000/svg" xmlns:xlink="http://www.w3.org/1999/xlink">
    <title>4223657</title>
    <defs>
        <path d="M203.8372,5.99106667 C166.231333,5.99106667 131.0092,5.838 100.767333,5.57106667 C98.9697333,4.96346667 97.7330667,4.5864 97.7330667,4.5864 C97.5986667,3.9844 97.4941333,2.46213333 97.4176,0.317333333 C111.956133,0.183866667 127.694,0.0765333333 144.34,6.6317322e-15 C148.344933,2.18306667 152.935067,3.42533333 157.808933,3.42533333 L298.6928,3.42533333 C299.124933,3.42533333 299.554267,3.41506667 299.981733,3.3964 C300.094667,3.40573333 300.205733,3.41506667 300.317733,3.42533333 C290.048267,5.99106667 240.807467,5.99106667 203.8372,5.99106667 M74.2065333,5.1744 C74.5248,3.96386667 74.7926667,2.45466667 74.9896,0.5572 C77.1568,0.530133333 79.3632,0.504 81.6032,0.4788 C81.7105333,2.22973333 81.8076,3.78466667 81.8897333,5.09226667 C79.2754667,5.10626667 76.7097333,5.13426667 74.2065333,5.1744 M57.1172,5.05493333 C21.7513333,4.50426667 2.65269288e-14,3.7548 2.65269288e-14,2.9288 C2.65269288e-14,2.1056 21.6692,1.35706667 56.9174667,0.807333333 C56.9921333,2.41173333 57.0593333,3.84066667 57.1172,5.05493333" id="path-1"></path>
    </defs>
    <g id="Images" stroke="none" stroke-width="1" fill="none" fill-rule="evenodd">
        <g id="4223657">
            <polygon id="Fill-1" fill="#FFFFFE" points="0 500 700 500 700 0 0 0"></polygon>
            <path d="M512.721067,408.518133 L177.8644,408.518133 C177.8644,408.518133 221.647067,389.7824 245.392,387.961467 C234.291867,340.718 236.128667,330.526933 242.988667,339.977867 C237.402667,315.2072 254.765467,268.941867 264.702667,341.029733 C272.869333,378.051333 274.583867,384.118 274.583867,384.118 L419.091867,381.0856 C419.091867,381.0856 418.710133,314.3672 429.513467,302.3832 C440.317733,290.398267 467.265867,307.740533 458.111733,344.451333 C476.958533,309.6072 550.228,325.43 537.859467,391.5632 C552.2468,382.4072 559.5352,401.022533 550.5444,410.013333 C532.958533,410.013333 512.721067,408.518133 512.721067,408.518133" id="Fill-3" fill="#B1DCDC"></path>
            <path d="M144.914,410.013333 C144.914,410.013333 148.862933,358.7724 148.862933,312.886 C96.334,318.9228 94.1724,290.764133 100.3856,280.994933 C106.5988,271.2248 122.9004,264.2276 116.2588,246.291733 C109.6172,228.3568 80.8892,200.763733 100.3856,178.333867 C119.882,155.904 141.707067,142.7384 135.669333,128.851333 C129.6316,114.964267 107.0636,62.3186667 160.842267,62.3186667 C214.621867,62.3186667 190.995467,113.661333 186.204667,131.763333 C181.413867,149.866267 181.222533,162.9264 200.7348,181.132933 C214.921467,194.371333 267.203067,271.828667 161.542267,311.678267 C161.542267,372.0556 159.235067,402.447733 166.800667,410.013333 C154.900667,410.013333 144.914,410.013333 144.914,410.013333" id="Fill-4" fill="#B1DCDC"></path>
            <path d="M205.341733,186.186 C203.592667,184.031867 202.009733,182.323867 200.7348,181.132933 C181.222533,162.9264 181.413867,149.866267 186.204667,131.763333 C181.413867,149.866267 181.222533,162.9264 200.7348,181.132933 C202.010667,182.323867 203.592667,184.031867 205.341733,186.186" id="Fill-5" fill="#FFFFFE"></path>
            <path d="M226.190533,239.025733 C225.168533,237.754533 223.928133,236.562667 222.32,235.252267 C221.195333,231.373333 219.7412,227.672667 218.025733,224.140933 C219.6908,225.0528 222.421733,226.4276 223.749867,226.4276 C223.8824,226.4276 224.000933,226.4136 224.102667,226.384667 C224.266,226.2008 224.429333,226.008533 224.592667,225.807867 C225.510133,230.083467 226.085067,234.512133 226.190533,239.025733 M208.646667,209.181467 C198.2736,195.743333 184.884933,185.3376 174.533333,177.173733 C147.441467,155.806933 179.847733,116.406267 181.699467,89.0288 C182.6048,75.6662667 175.9492,66.3217333 165.870133,62.4829333 C212.924133,65.6329333 190.994533,113.9096 186.254133,131.576667 C186.252267,131.585067 186.249467,131.5944 186.246667,131.6028 L186.246667,131.603733 C186.2448,131.612133 186.242933,131.6196 186.240133,131.628933 L186.240133,131.6308 C186.237333,131.6392 186.235467,131.6476 186.232667,131.656 L186.232667,131.656933 C186.2308,131.662533 186.228933,131.669067 186.228,131.674667 C186.227067,131.677467 186.226133,131.682133 186.2252,131.684933 C186.223333,131.691467 186.221467,131.698 186.220533,131.704533 C186.2196,131.7064 186.218667,131.708267 186.218667,131.710133 C186.214,131.727867 186.209333,131.746533 186.204667,131.763333 C181.413867,149.866267 181.222533,162.9264 200.7348,181.132933 C202.009733,182.323867 203.592667,184.031867 205.341733,186.186 C205.350133,186.1972 205.359467,186.2084 205.367867,186.218667 L205.3688,186.2196 C207.0936,188.3476 208.979867,190.908667 210.888533,193.83 C209.612667,196.3024 208.841733,198.733733 208.586,199.551333 C208.3648,200.2588 209.032133,202.642533 209.945867,205.3296 C209.536133,205.4136 209.1824,205.666533 208.931333,206.092133 C208.5552,206.730533 208.408667,207.755333 208.646667,209.181467" id="Fill-6" fill="#D5EDEB"></path>
            <path d="M44.7710667,413.115733 L658.962267,413.115733 C658.962267,413.115733 533.638933,403.9588 435.963733,403.9588 C338.2904,403.9588 277.045067,403.9588 277.045067,403.9588 C277.045067,403.9588 95.8729333,402.801467 44.7710667,413.115733" id="Fill-7" fill="#B1DCDC"></path>
            <path d="M587.156267,391.562267 C586.648533,391.562267 586.133333,391.551067 585.606,391.5268 C585.514533,387.674933 585.7348,384.0732 586.1072,380.8644 C587.390533,381.000667 588.6608,381.0744 589.9068,381.084667 C590.155067,384.8628 590.042133,388.358133 589.469067,391.469867 C590.748667,391.370933 591.957333,391.189867 593.096,390.932267 C593.096,390.934133 593.096,390.936 593.096,390.9388 C591.291867,391.346667 589.315067,391.562267 587.156267,391.562267 M580.271067,390.954667 C566.248667,388.570933 561.441067,379.945067 560.7252,369.998533 C566.79,374.994667 573.877733,378.3528 580.841333,379.970267 C580.446533,383.276133 580.203867,386.9796 580.271067,390.954667 M595.7924,390.1408 C595.7924,390.138933 595.7924,390.136133 595.7924,390.133333 C602.589867,387.604933 606.409067,381.915333 607.780133,374.778133 C607.782,374.776267 607.782933,374.775333 607.7848,374.773467 C606.414667,381.9172 602.595467,387.611467 595.7924,390.1408 M565.276133,337.790133 C564.9308,333.2028 562.029067,329.200667 554.555867,317.929733 C541.639467,298.451067 551.002667,278.043733 563.174267,269.507467 C575.344933,260.9712 570.291867,248.303067 564.691867,234.765067 C560.6384,224.965067 564.9588,216.611733 570.5616,216.611733 C572.698,216.611733 575.020133,217.826 577.136,220.639067 C578.7936,222.842667 580.3616,223.768533 581.670133,223.768533 C585.2728,223.768533 586.894,216.735867 582.922667,209.999067 C579.195867,203.675733 577.857467,193.962533 581.5432,193.962533 C583.1504,193.962533 585.7152,195.811467 589.4532,200.5976 C587.125467,197.6184 585.259733,195.791867 583.789733,194.825867 C588.424667,202.637867 595.490933,218.051867 591.136,234.100533 C584.913467,257.0288 560.958533,280.673867 568.4252,306.184667 C570.6932,313.934133 574.0896,323.305733 577.520533,333.1664 C575.819067,334.9416 573.488533,336.171733 570.5448,336.587067 C568.759333,336.839067 566.986933,337.244133 565.276133,337.790133 M595.908133,223.0452 C595.9072,214.6844 594.292533,206.92 589.866667,201.1324 C589.858267,201.1212 589.849867,201.110933 589.841467,201.099733 C589.849867,201.110933 589.858267,201.1212 589.866667,201.1324 C594.292533,206.92 595.9072,214.6844 595.908133,223.0452" id="Fill-8" fill="#54BCBC"></path>
            <path d="M612.0268,213.145333 C607.474,214.514533 608.3896,225.194667 610.8396,232.543733 C613.288667,239.891867 588.931467,247.243733 597.030933,262.9452 C605.129467,278.6476 591.5392,280.2464 581.374267,287.605733 C571.209333,294.964133 573.110533,302.455067 579.002667,315.334133 C583.3436,324.820533 580.331733,335.2048 570.5448,336.587067 C555.362267,338.731867 541.003867,351.959067 558.746533,368.276533 C576.488267,384.595867 604.930667,385.8456 611.4948,368.998 C618.058,352.149467 602.927733,343.390133 611.799067,330.889067 C620.6704,318.386133 632.142,316.429867 622.318667,297.626933 C612.4972,278.824933 611.616133,279.972 624.062133,266.480667 C636.508133,252.989333 622.7648,251.359733 619.7268,242.655467 C616.687867,233.950267 628.6112,208.158533 612.0268,213.145333" id="Fill-9" fill="#B1DCDC"></path>
            <path d="M585.535067,411.488 C584.386133,411.488 583.328667,410.733867 582.994533,409.574667 C576.296,386.336533 583.971733,365.333733 584.302133,364.4508 C584.8136,363.082533 586.3396,362.389067 587.706933,362.898667 C589.074267,363.410133 589.768667,364.933333 589.26,366.3016 C589.1844,366.502267 581.8792,386.602533 588.0784,408.109333 C588.482533,409.513067 587.6724,410.979333 586.268667,411.3844 C586.024133,411.455333 585.777733,411.488 585.535067,411.488" id="Fill-10" fill="#B1DCDC"></path>
            <path d="M591.344133,410.165467 C591.201333,410.165467 591.0576,410.142133 590.915733,410.0936 C590.225067,409.857467 589.855467,409.1052 590.092533,408.4136 C597.591867,386.493333 588.7476,366.117733 588.657067,365.914267 C588.3612,365.246 588.662667,364.4648 589.33,364.168 C589.998267,363.874933 590.7776,364.172667 591.076267,364.840933 C591.461733,365.708933 600.428267,386.3776 592.595733,409.2704 C592.408133,409.820133 591.893867,410.165467 591.344133,410.165467" id="Fill-11" fill="#B1DCDC"></path>
            <path d="M589.469067,391.469867 C590.042133,388.358133 590.155067,384.8628 589.9068,381.084667 C590.008533,381.0856 590.110267,381.0856 590.212,381.0856 C590.989467,381.0856 591.759467,381.061333 592.5164,381.010933 C592.9196,384.0228 593.162267,387.366 593.096,390.932267 C591.957333,391.189867 590.748667,391.370933 589.469067,391.469867 M595.7924,390.133333 C595.819467,386.759333 595.581467,383.596267 595.200667,380.722533 C600.229467,379.960933 604.628267,377.999067 607.780133,374.778133 C606.409067,381.915333 602.589867,387.604933 595.7924,390.133333" id="Fill-12" fill="#76C6C6"></path>
            <path d="M589.8462,201.1046 C589.7142,200.9326 589.5832,200.7636 589.4532,200.5976 C589.5832,200.7636 589.7142,200.9326 589.8462,201.1046" id="Fill-13" fill="#DDF0EF"></path>
            <path d="M577.520533,333.1664 C574.0896,323.305733 570.6932,313.934133 568.4252,306.184667 C560.958533,280.673867 584.913467,257.0288 591.136,234.100533 C595.490933,218.051867 588.424667,202.637867 583.789733,194.825867 C585.259733,195.791867 587.125467,197.6184 589.4532,200.5976 C589.574533,200.752533 589.6968,200.910267 589.82,201.0708 C589.82,201.071733 589.820933,201.072667 589.821867,201.0736 C589.827467,201.081067 589.835867,201.091333 589.841467,201.099733 C589.849867,201.110933 589.858267,201.1212 589.866667,201.1324 C594.292533,206.92 595.9072,214.6844 595.908134,223.0452 C595.91,238.7336 590.230667,256.523867 586.780133,267.298267 C586.155733,269.249867 585.882267,270.976533 585.881333,272.533333 C585.879467,276.660533 587.79,279.595867 590.131733,282.362267 C587.309333,283.949867 584.2088,285.553333 581.374267,287.605733 C571.209333,294.964133 573.110533,302.455067 579.002667,315.334133 C582.037867,321.967333 581.477867,329.0392 577.520533,333.1664" id="Fill-14" fill="#76C6C6"></path>
            <path d="M590.212,381.0856 C590.110267,381.0856 590.008533,381.0856 589.9068,381.084667 C589.667867,377.452133 589.095733,373.557333 588.279067,369.497333 C588.600133,368.319467 588.8764,367.4384 589.053733,366.902667 C589.838667,368.966267 591.5952,374.115467 592.5164,381.010933 C591.759467,381.061333 590.989467,381.0856 590.212,381.0856 M595.200667,380.722533 C593.978933,371.517067 591.283467,365.308533 591.076267,364.840933 C590.856,364.346267 590.372533,364.055067 589.8648,364.055067 C589.6856,364.055067 589.5036,364.091467 589.33,364.168 C589.274933,364.192267 589.2236,364.219333 589.174133,364.250133 C588.8904,363.6472 588.379867,363.150667 587.706933,362.898667 C587.402667,362.785733 587.09,362.7316 586.782,362.7316 C586.768933,362.7316 586.755867,362.7316 586.741867,362.7316 C584.3348,353.1248 580.9104,342.906667 577.520533,333.1664 C581.477867,329.0392 582.037867,321.967333 579.002667,315.334133 C573.110533,302.455067 571.209333,294.964133 581.374267,287.605733 C584.2088,285.553333 587.309333,283.949867 590.131733,282.362267 C594.384933,287.3864 600.061467,291.856133 598.291867,301.897867 C595.180133,319.556533 588.336,318.9368 600.780133,341.242533 C606.8748,352.165333 609.685067,364.868 607.780133,374.778133 C604.628267,377.999067 600.229467,379.960933 595.200667,380.722533" id="Fill-15" fill="#B1DCDC"></path>
            <path d="M588.279067,369.497333 C587.833867,367.286267 587.317733,365.026667 586.741867,362.7316 C586.755867,362.7316 586.768933,362.7316 586.782,362.7316 C587.09,362.7316 587.402667,362.785733 587.706933,362.898667 C588.379867,363.150667 588.8904,363.6472 589.174133,364.250133 C588.616933,364.591733 588.384533,365.301067 588.657067,365.914267 C588.668267,365.939467 588.816667,366.281067 589.053733,366.902667 C588.8764,367.4384 588.600133,368.319467 588.279067,369.497333" id="Fill-16" fill="#B1DCDC"></path>
            <path d="M593.096,390.932267 C593.162267,387.366 592.9196,384.0228 592.5164,381.010933 C591.5952,374.115467 589.838667,368.966267 589.053733,366.902667 C588.816667,366.281067 588.668267,365.939467 588.657067,365.914267 C588.384533,365.301067 588.616933,364.591733 589.174133,364.250133 C589.2236,364.219333 589.274933,364.192267 589.33,364.168 C589.5036,364.091467 589.6856,364.055067 589.8648,364.055067 C590.372533,364.055067 590.856,364.346267 591.076267,364.840933 C591.283467,365.308533 593.978933,371.517067 595.200667,380.722533 C595.581467,383.596267 595.819467,386.759333 595.7924,390.133333 C594.940267,390.450667 594.043333,390.7176 593.096,390.932267" id="Fill-17" fill="#B1DCDC"></path>
            <path d="M429.465867,108.807067 C487.593867,108.807067 543.074,108.807067 593.2668,108.807067 C643.460533,108.807067 597.982933,85.4737333 571.7208,99.4737333 C593.993867,63.0737333 554.302933,35.8036 526.5484,62.972 C528.660533,22.9404 450.7944,26.6737333 431.424,71.5362667 C411.3452,13.6070667 343.153067,46.2737333 389.455733,84.2081333 C339.192933,68.6737333 245.959467,108.807067 429.465867,108.807067" id="Fill-18" fill="#F1BABF"></path>
            <path d="M593.2668,108.807067 C549.412267,108.807067 501.517333,108.807067 451.352533,108.807067 C501.518267,108.807067 549.412267,108.807067 593.2668,108.807067 C593.282667,108.807067 593.302267,108.807067 593.3172,108.807067 C593.301333,108.807067 593.2836,108.807067 593.2668,108.807067" id="Fill-19" fill="#FFFFFE"></path>
            <path d="M593.2668,108.807067 C549.412267,108.807067 501.518267,108.807067 451.352533,108.807067 L451.352533,85.3477333 C451.352533,75.0269333 445.786133,65.982 437.498133,61.0568 C448.5628,46.2177333 466.798267,37.7244 483.902533,35.7224 C501.3904,38.6810667 519.726667,47.5962667 519.493333,72.0290667 C521.378667,69.6070667 526.5484,62.972 526.5484,62.972 C526.5624,62.9589333 526.574533,62.9458667 526.588533,62.9328 C526.5932,62.9290667 526.597867,62.9244 526.6016,62.9197333 C526.611867,62.9104 526.622133,62.9001333 526.6324,62.8898667 C526.636133,62.8870667 526.638933,62.8833333 526.642667,62.8796 C526.652933,62.8702667 526.667867,62.8553333 526.678133,62.846 C526.684667,62.8385333 526.6912,62.8329333 526.698667,62.8254667 C526.704267,62.8208 526.712667,62.8124 526.717333,62.8077333 C526.745333,62.7806667 526.7724,62.7545333 526.8004,62.7274667 C526.801333,62.7256 526.799467,62.7274667 526.801333,62.7265333 C532.105467,57.6109333 537.834267,54.4749333 543.479067,52.9918667 C558.011067,57.3766667 584.542933,70.5506667 559.178667,105.073733 C565.711067,104.8404 573.0228,104.636 580.191733,104.636 C592.237333,104.636 603.876933,105.2128 610.7192,107.193333 C607.161333,108.168667 601.597733,108.794 593.512267,108.807067 C593.509467,108.807067 593.508533,108.807067 593.505733,108.807067 C593.494533,108.807067 593.483333,108.807067 593.472133,108.807067 C593.4656,108.807067 593.455333,108.807067 593.4488,108.807067 C593.4404,108.807067 593.432,108.807067 593.4236,108.807067 C593.414267,108.807067 593.404,108.807067 593.394667,108.807067 C593.3872,108.807067 593.379733,108.807067 593.372267,108.807067 C593.362933,108.807067 593.3508,108.807067 593.341467,108.807067 C593.333067,108.807067 593.3256,108.807067 593.3172,108.807067 C593.302267,108.807067 593.282667,108.807067 593.2668,108.807067 M415.982933,57.1134667 L373.712267,57.1134667 C374.069733,52.7053333 376.050267,48.916 379.104133,46.0357333 C382.355867,45.2536 385.8148,44.7598667 389.369867,44.7598667 C398.23,44.7598667 407.683733,47.8249333 415.982933,57.1134667" id="Fill-20" fill="#FAE0DF"></path>
            <path d="M473.5864,157.780933 C473.5864,157.780933 537.4152,157.780933 561.3356,157.780933 C585.256,157.780933 557.549067,141.123733 541.026267,149.4528 C550.540667,121.910133 485.157867,121.288533 473.5864,140.5768 C431.321333,117.870667 365.386933,157.780933 473.5864,157.780933" id="Fill-21" fill="#F1BABF"></path>
            <g id="Group-24" transform="translate(124.425467, 417.642400)">
                <mask id="mask-2" fill="white">
                    <use xlink:href="#path-1"></use>
                </mask>
                <g id="Clip-23"></g>
                <path d="M203.8372,5.99106667 C166.231333,5.99106667 131.0092,5.838 100.767333,5.57106667 C98.9697333,4.96346667 97.7330667,4.5864 97.7330667,4.5864 C97.5986667,3.9844 97.4941333,2.46213333 97.4176,0.317333333 C111.956133,0.183866667 127.694,0.0765333333 144.34,6.6317322e-15 C148.344933,2.18306667 152.935067,3.42533333 157.808933,3.42533333 L298.6928,3.42533333 C299.124933,3.42533333 299.554267,3.41506667 299.981733,3.3964 C300.094667,3.40573333 300.205733,3.41506667 300.317733,3.42533333 C290.048267,5.99106667 240.807467,5.99106667 203.8372,5.99106667 M74.2065333,5.1744 C74.5248,3.96386667 74.7926667,2.45466667 74.9896,0.5572 C77.1568,0.530133333 79.3632,0.504 81.6032,0.4788 C81.7105333,2.22973333 81.8076,3.78466667 81.8897333,5.09226667 C79.2754667,5.10626667 76.7097333,5.13426667 74.2065333,5.1744 M57.1172,5.05493333 C21.7513333,4.50426667 2.65269288e-14,3.7548 2.65269288e-14,2.9288 C2.65269288e-14,2.1056 21.6692,1.35706667 56.9174667,0.807333333 C56.9921333,2.41173333 57.0593333,3.84066667 57.1172,5.05493333" id="Fill-22" mask="url(#mask-2)"></path>
            </g>
            <path d="M423.118267,57.1134667 L282.2344,57.1134667 C266.665467,57.1134667 254.000133,69.7788 254.000133,85.3477333 L254.000133,392.8316 C254.000133,408.400533 266.665467,421.067733 282.2344,421.067733 L423.118267,421.067733 C438.686267,421.067733 451.352533,408.400533 451.352533,392.8316 L451.352533,85.3477333 C451.352533,69.7788 438.686267,57.1134667 423.118267,57.1134667" id="Fill-25" fill="#00A195"></path>
            <path d="M423.118267,421.067733 L282.2344,421.067733 C266.665467,421.067733 254.000133,408.400533 254.000133,392.8316 L254.000133,245.3136 C254.758,243.903333 255.272267,242.873867 255.369333,242.484667 C255.4832,242.0292 255.625067,241.241467 255.753867,240.324933 C256.83,238.993067 258.0508,237.4764 259.281867,235.934533 L259.281867,392.8316 C259.281867,405.4876 269.5784,415.7832 282.2344,415.7832 L423.118267,415.7832 C423.135067,415.7832 423.151867,415.7832 423.1696,415.7832 C423.1724,415.7832 423.176133,415.7832 423.179867,415.7832 C423.216267,415.782267 423.252667,415.782267 423.289067,415.782267 C435.540933,415.692667 445.540667,405.954267 446.050267,393.804133 L446.050267,393.802267 C446.0512,393.782667 446.0512,393.763067 446.052133,393.742533 C446.054,393.7024 446.055867,393.6632 446.0568,393.623067 C446.0568,393.622133 446.0568,393.6212 446.0568,393.620267 C446.057733,393.600667 446.057733,393.582 446.058667,393.5624 C446.058667,393.560533 446.058667,393.5596 446.058667,393.558667 C446.060533,393.5204 446.061467,393.4812 446.0624,393.442933 C446.0624,393.441067 446.0624,393.4392 446.0624,393.4364 C446.063333,393.417733 446.063333,393.4 446.063333,393.3804 C446.064267,393.379467 446.064267,393.3776 446.064267,393.376667 C446.064267,393.358 446.064267,393.3412 446.0652,393.322533 C446.0652,393.320667 446.0652,393.3188 446.0652,393.316933 C446.0652,393.298267 446.066133,393.280533 446.066133,393.2628 C446.066133,393.259067 446.066133,393.255333 446.066133,393.252533 C446.066133,393.246 446.067067,393.239467 446.067067,393.233867 C446.067067,393.230133 446.067067,393.2264 446.067067,393.2236 C446.067067,393.2152 446.067067,393.205867 446.067067,393.1984 C446.067067,393.196533 446.067067,393.1956 446.067067,393.193733 C446.067067,393.19 446.068,393.1872 446.068,393.183467 C446.068,393.174133 446.068,393.1648 446.068,393.1564 C446.068,393.151733 446.068,393.147067 446.068,393.1424 L446.068,393.140533 C446.068,393.138667 446.068,393.135867 446.068,393.134 C446.068,393.1284 446.068,393.1228 446.068933,393.1172 C446.068933,393.112533 446.068933,393.107867 446.068933,393.1032 C446.068933,393.095733 446.068933,393.088267 446.068933,393.0808 C446.068933,393.078 446.068933,393.076133 446.068933,393.073333 C446.068933,393.0696 446.068933,393.0668 446.068933,393.063067 C446.068933,393.0556 446.068933,393.049067 446.068933,393.042533 C446.068933,393.036 446.069867,393.029467 446.069867,393.023867 C446.069867,393.021067 446.069867,393.018267 446.069867,393.0164 C446.069867,393.0136 446.069867,393.011733 446.069867,393.009867 C446.069867,393.008 446.069867,393.006133 446.069867,393.004267 C446.069867,392.997733 446.069867,392.992133 446.069867,392.9856 C446.069867,392.978133 446.069867,392.9716 446.069867,392.9632 C446.069867,392.961333 446.069867,392.959467 446.069867,392.956667 C446.069867,392.955733 446.069867,392.953867 446.069867,392.952933 C446.069867,392.951067 446.069867,392.9492 446.069867,392.947333 C446.069867,392.939867 446.069867,392.9324 446.069867,392.924933 C446.069867,392.920267 446.069867,392.913733 446.069867,392.908133 C446.069867,392.9044 446.069867,392.900667 446.069867,392.896933 C446.069867,392.894133 446.069867,392.889467 446.069867,392.885733 L446.069867,392.883867 C446.069867,392.8792 446.069867,392.874533 446.069867,392.869867 C446.069867,392.8568 446.069867,392.844667 446.069867,392.8316 L446.069867,85.3477333 C446.069867,85.3337333 446.069867,85.3197333 446.069867,85.3057333 C446.069867,85.3010667 446.069867,85.2964 446.069867,85.2917333 C446.069867,85.2814667 446.069867,85.2730667 446.069867,85.2628 C446.069867,85.2581333 446.069867,85.2525333 446.069867,85.2469333 C446.069867,85.2376 446.069867,85.2273333 446.069867,85.218 C446.069867,85.2133333 446.069867,85.2086667 446.069867,85.2049333 C446.069867,85.1937333 446.069867,85.1806667 446.069867,85.1694667 C446.069867,85.1648 446.069867,85.1592 446.069867,85.1545333 C446.068933,85.1433333 446.068933,85.1321333 446.068933,85.1209333 C446.068933,85.1153333 446.068933,85.1116 446.068933,85.106 C446.068933,85.0966667 446.068933,85.0873333 446.068933,85.0770667 C446.068933,85.0724 446.068933,85.0677333 446.068933,85.0630667 C446.068,85.0528 446.068,85.0425333 446.068,85.0313333 C446.068,85.0276 446.068,85.0238667 446.068,85.0201333 C446.068,84.9912 446.067067,84.9632 446.066133,84.9342667 C446.066133,84.9314667 446.066133,84.9277333 446.066133,84.9249333 C446.066133,84.9128 446.066133,84.9025333 446.066133,84.8913333 C446.066133,84.8866667 446.0652,84.8829333 446.0652,84.8792 C446.0652,84.868 446.0652,84.8549333 446.0652,84.8437333 C446.0652,84.8418667 446.064267,84.8390667 446.064267,84.8372 C446.064267,84.8073333 446.063333,84.7774667 446.0624,84.7476 C446.0624,84.7466667 446.0624,84.7457333 446.0624,84.7448 C446.0624,84.7317333 446.061467,84.7177333 446.061467,84.7046667 C446.061467,84.7018667 446.061467,84.7 446.061467,84.6972 C446.060533,84.6841333 446.060533,84.6710667 446.0596,84.658 C446.0596,84.6561333 446.0596,84.6552 446.0596,84.6533333 C446.058667,84.6234667 446.057733,84.5936 446.0568,84.5637333 C446.0568,84.5628 446.0568,84.5618667 446.0568,84.5609333 C446.0568,84.5469333 446.055867,84.5329333 446.055867,84.5189333 C446.055867,84.518 446.055867,84.5161333 446.054933,84.5142667 C445.615333,72.2428 435.4952,62.3952 423.118267,62.3952 L282.2344,62.3952 C282.221333,62.3952 282.2092,62.3952 282.196133,62.3952 C282.191467,62.3952 282.1868,62.3952 282.182133,62.3952 C282.1812,62.3952 282.179333,62.3952 282.1784,62.3952 C282.1756,62.3952 282.171867,62.3952 282.168133,62.3952 C282.1644,62.3952 282.1616,62.3952 282.156933,62.3952 C282.152267,62.3952 282.145733,62.3952 282.140133,62.3952 C282.132667,62.3952 282.126133,62.3961333 282.118667,62.3961333 C282.1168,62.3961333 282.114933,62.3961333 282.112133,62.3961333 C282.110267,62.3961333 282.1084,62.3961333 282.107467,62.3961333 C282.1056,62.3961333 282.103733,62.3961333 282.100933,62.3961333 C282.093467,62.3961333 282.086933,62.3961333 282.079467,62.3961333 C282.0748,62.3961333 282.0692,62.3961333 282.064533,62.3961333 C282.059867,62.3961333 282.0552,62.3961333 282.050533,62.3961333 C282.0496,62.3961333 282.0496,62.3961333 282.0496,62.3961333 C282.045867,62.3961333 282.044,62.3961333 282.040267,62.3961333 C282.0356,62.3961333 282.030933,62.3961333 282.025333,62.3961333 C282.016933,62.3961333 282.009467,62.3970667 282.001067,62.3970667 C281.997333,62.3970667 281.994533,62.3970667 281.9908,62.3970667 C281.988933,62.3970667 281.986133,62.3970667 281.984267,62.3970667 C281.9768,62.3970667 281.969333,62.3970667 281.961867,62.3970667 C281.9572,62.3970667 281.953467,62.3970667 281.9488,62.3970667 C281.9432,62.3970667 281.935733,62.3970667 281.931067,62.3970667 C281.927333,62.3970667 281.9236,62.3970667 281.9208,62.398 C281.917067,62.398 281.914267,62.398 281.910533,62.398 C281.9012,62.398 281.889067,62.398 281.879733,62.398 C281.876933,62.398 281.875067,62.398 281.872267,62.398 C281.8592,62.398 281.848,62.3989333 281.834933,62.3989333 C281.826533,62.3989333 281.8172,62.3989333 281.8088,62.3998667 C281.806,62.3998667 281.8032,62.3998667 281.8004,62.3998667 C281.781733,62.3998667 281.763067,62.3998667 281.7444,62.4008 C281.742533,62.4008 281.740667,62.4008 281.7388,62.4008 C281.700533,62.4017333 281.662267,62.4026667 281.624,62.4036 C281.6212,62.4036 281.619333,62.4036 281.616533,62.4036 C281.597867,62.4045333 281.5792,62.4045333 281.560533,62.4054667 C281.558667,62.4054667 281.5568,62.4054667 281.555867,62.4054667 C281.516667,62.4064 281.477467,62.4073333 281.438267,62.4092 C281.437333,62.4092 281.435467,62.4092 281.434533,62.4092 C269.148133,62.8329333 259.281867,72.9596 259.281867,85.3477333 L259.281867,222.850133 C258.884267,222.705467 258.636,222.651333 258.636,222.651333 C258.636,222.651333 256.399733,225.143333 254.000133,227.870533 L254.000133,85.3477333 C254.000133,69.7788 266.665467,57.1134667 282.2344,57.1134667 L423.118267,57.1134667 C438.686267,57.1134667 451.352533,69.7788 451.352533,85.3477333 L451.352533,392.8316 C451.352533,396.801067 450.529333,400.580133 449.0444,404.010133 C447.5548,407.4532 445.3988,410.542533 442.739733,413.115733 C437.655867,418.035333 430.734267,421.067733 423.118267,421.067733" id="Fill-26" fill="#005D56"></path>
            <path d="M423.303067,62.5333333 L282.4192,62.5333333 C269.7632,62.5333333 259.466667,72.8298667 259.466667,85.4858667 L259.466667,392.969733 C259.466667,405.625733 269.7632,415.921333 282.4192,415.921333 L423.303067,415.921333 C435.958133,415.921333 446.254667,405.625733 446.254667,392.969733 L446.254667,85.4858667 C446.254667,72.8298667 435.958133,62.5333333 423.303067,62.5333333" id="Fill-27" fill="#B1DCDC"></path>
            <g id="zira-logo" transform="translate(329.466667, 85.866667)" fill="#020303">
                <path d="M47.496046,15.6909804 C47.548023,15.6909804 47.5857747,15.7189804 47.5967172,15.764 L47.6,15.793098 L47.6,18.5601569 C47.6,18.6117647 47.5710023,18.648549 47.5255908,18.6595294 L47.4965931,18.6628235 L44.6898345,18.6666667 C44.6378575,18.6666667 44.6001057,18.6381176 44.5891632,18.593098 L44.5858805,18.564 L44.5858805,15.7969412 C44.5858805,15.7623529 44.6148782,15.7145882 44.6602897,15.6986667 L44.6898345,15.6942745 L47.4965931,15.6904314 L47.496046,15.6909804 Z M37.0399126,4.74133333 C40.1585333,4.74133333 42.1456966,6.41309804 42.2551218,9.11921569 L42.2594989,9.26745098 L42.2594989,18.5244706 C42.2578575,18.5535686 42.251292,18.5832157 42.2179172,18.5936471 L42.1878253,18.5974902 L39.7268506,18.5974902 C39.7093425,18.5974902 39.6912874,18.5974902 39.6611954,18.5876078 L39.6256322,18.5738824 L39.6201609,18.5683922 C39.5972245,18.5491888 39.5801562,18.5238784 39.5709195,18.4953725 L39.5659954,18.4563922 L39.5659954,16.9592157 C38.4580644,18.0435294 36.8429471,18.6622745 35.1091034,18.6622745 C33.095131,18.6622745 30.9498483,17.6905098 30.7058299,15.5152941 C30.6226667,14.7082353 30.7233379,13.5410196 31.260069,12.6977255 C32.1059264,11.425098 33.7330805,10.9595294 34.8825931,10.7179608 C35.4734897,10.5949804 36.0879126,10.5137255 36.6941287,10.444 L37.1471494,10.3934902 L37.1646575,10.388 C37.2423494,10.3819608 37.3260598,10.3698824 37.4032046,10.3638431 C38.2430437,10.2699608 39.1135218,10.1694902 39.417177,9.33882353 C39.5960874,8.84964706 39.6141425,8.4252549 39.1195402,7.97121569 C38.3502805,7.20478431 36.6284736,7.15811765 35.6097241,7.62917647 C35.0259402,7.90972549 34.799977,8.31380392 34.5592414,8.82603922 L34.5072644,8.93803922 L34.4416092,9.06760784 L31.4925977,9.06760784 C31.4544937,9.06710534 31.4171699,9.05670175 31.3842667,9.03741176 L31.3612874,9.02039216 L31.3492506,9.00831373 L31.3492506,8.99678431 C31.3492506,8.99129412 31.3492506,8.98470588 31.3437793,8.97921569 L31.3350253,8.9572549 L31.3311954,8.932 L31.3733241,8.74917647 C32.0090851,6.33129412 34.0843356,4.80611765 36.8057425,4.74352941 L36.9802759,4.74133333 L37.0399126,4.74133333 L37.0399126,4.74133333 Z M12.1549609,4.94996078 C12.2534437,4.94996078 12.3333241,5.02956863 12.3333241,5.1267451 L12.3333241,7.252 C12.3334242,7.34879103 12.2961679,7.4418605 12.2293701,7.51168627 L11.0836874,8.70580392 L11.0825931,8.70470588 L4.71896552,15.3478431 C4.63689655,15.4301961 4.51105747,15.790902 4.85246437,15.7618039 L12.2129563,15.7672941 C12.3190989,15.7672941 12.3836598,15.8320784 12.3836598,15.9204706 L12.3727172,18.3268235 C12.3670395,18.5033067 12.2257872,18.6450477 12.0499126,18.6507451 L0.324445977,18.6232941 C0.15112595,18.6226892 0.0109414803,18.4815286 0.0109425287,18.3076078 L0,15.5180392 C0,15.4027451 0.0443172414,15.2929412 0.124197701,15.2105882 L6.86862529,8.14909804 L6.87136092,8.14580392 L8.68563218,6.24454902 L9.79137471,5.08611765 C9.87393481,4.99951272 9.98817785,4.95052367 10.1076138,4.9505098 L12.1549609,4.94996078 Z M24.4220828,4.82588235 C24.5594115,4.82588235 24.6617241,4.91207843 24.6830621,5.03835294 L24.686892,5.08776471 L24.6650069,7.33654902 C25.6361563,5.67741176 27.2031264,5.02188235 29.4102345,5.02188235 C29.9617379,5.02188235 30.4470391,5.08776471 30.8885701,5.17560784 C30.9766575,5.17560784 31.065292,5.19701961 31.1533793,5.21898039 C31.1971494,5.21898039 31.2420138,5.30627451 31.2420138,5.34964706 C31.2420138,5.36447059 31.2321655,5.3787451 31.2256,5.40015686 L31.2201287,5.43694118 L31.1976966,5.45890196 L30.3852138,7.84329412 C30.3414437,7.93058824 30.2528092,7.99592157 30.1428368,7.95254902 C29.7419262,7.88049527 29.335505,7.84375406 28.9282161,7.8427451 C26.6319264,7.8427451 24.9692092,10.0481569 24.9095724,13.103451 L24.907931,13.2736471 L24.8641609,18.4042353 C24.8641609,18.5233725 24.626708,18.6238431 24.483908,18.6414118 L24.4445149,18.6441569 L21.7307678,18.6441569 C21.6095356,18.64277 21.5077042,18.5522777 21.4916736,18.4316863 L21.4872966,18.3822745 L21.4872966,5.19921569 C21.4889379,4.98070588 21.5168414,4.86431373 21.8341747,4.85003922 L21.9069425,4.84839216 L24.4220828,4.82643137 L24.4220828,4.82588235 Z M18.4157287,4.7934902 C18.555246,4.7934902 18.6761609,4.89945098 18.6991402,5.04823529 L18.7029701,5.09929412 L18.7029701,18.3284706 C18.7069357,18.4746704 18.6048111,18.602245 18.4616874,18.6298824 L18.4157287,18.6337255 L15.5055632,18.6337255 C15.3615046,18.6305973 15.2413187,18.5223591 15.2226989,18.3789804 L15.218869,18.3284706 L15.218869,5.09984314 C15.218869,4.94227451 15.3261057,4.82039216 15.4596046,4.79788235 L15.5055632,4.79403922 L18.4151816,4.79403922 L18.4157287,4.7934902 Z M39.3635586,12.2793725 C38.8213563,12.4506667 38.2851724,12.5505882 37.7249149,12.5857255 C34.6145011,12.9513725 33.9294989,13.5821961 33.8342989,14.4897255 C33.7981885,14.9141176 33.9108966,15.2676863 34.1674989,15.538902 C34.527508,15.9111373 35.0976138,16.0593725 35.5681425,16.0785882 L35.6753793,16.0807843 L35.7465057,16.0807843 C36.8730391,16.0807843 37.8677149,15.6981176 38.5412276,15.0025098 C39.1731586,14.3546667 39.3455034,13.5695686 39.3619172,12.6170196 L39.3635586,12.4567059 L39.3635586,12.2793725 L39.3635586,12.2793725 Z M0.17508046,4.92854902 L6.29195402,4.92854902 C6.42873563,4.92854902 6.49493793,5.07129412 6.44077241,5.17835294 L6.42107586,5.20909804 L4.07554483,7.63741176 C4.04788915,7.65814648 4.01556774,7.67172319 3.98143908,7.67694118 L3.94587586,7.68023529 L0.153742529,7.66101961 C0.0834878066,7.66294828 0.0217492999,7.61458416 0.00656551724,7.54572549 L0.00273563218,7.51003922 L0.00273563218,5.10039216 C0.00273563218,5.02627451 0.0503356322,4.95215686 0.131857471,4.93294118 L0.175627586,4.92745098 L6.29195402,4.92745098 L0.17508046,4.92854902 Z M18.5749425,0 C18.6307494,0 18.6706897,0.0301960784 18.6821793,0.0785098039 L18.6860092,0.109254902 L18.6860092,2.96854902 C18.6860092,3.02345098 18.6553701,3.06298039 18.6066759,3.0745098 L18.5754897,3.07780392 L15.4672644,3.07780392 C15.4125517,3.07780392 15.3720644,3.04760784 15.3605747,2.99984314 L15.3567448,2.96854902 L15.3567448,0.109803922 C15.3604197,0.062393273 15.3914756,0.0215585374 15.4360782,0.00549019608 L15.4672644,0 L18.5749425,0 Z" id="Shape"></path>
            </g>
            <path d="M367.929333,387.961467 L336.429333,387.961467 C332.7016,387.961467 329.651467,391.1684 329.651467,395.086533 C329.651467,399.004667 332.7016,402.2116 336.429333,402.2116 L367.929333,402.2116 C371.657067,402.2116 374.7072,399.004667 374.7072,395.086533 C374.7072,391.1684 371.657067,387.961467 367.929333,387.961467" id="Fill-28" fill="#000105"></path>
            <path d="M374.702533,394.8308 C374.5728,391.029333 371.575867,387.961467 367.929333,387.961467 L368.078667,387.961467 C371.724267,387.961467 374.7072,390.943467 374.7072,394.59 C374.7072,394.670267 374.705333,394.750533 374.702533,394.8308" id="Fill-29" fill="#00A9A2"></path>
            <path d="M368.078667,401.2176 L337.274,401.2176 C333.6284,401.2176 330.645467,398.234667 330.645467,394.59 C330.645467,390.943467 333.6284,387.961467 337.274,387.961467 L367.929333,387.961467 C371.575867,387.961467 374.5728,391.029333 374.702533,394.8308 C374.574667,398.365333 371.644,401.2176 368.078667,401.2176" id="Fill-30" fill="#007068"></path>
            <polygon id="Fill-31" fill="#121514" points="347.333467 162.9264 350.895067 162.9264 350.895067 159.3648 347.333467 159.3648"></polygon>
            <path d="M393.637067,166.488 L393.637067,180.735333 L375.828133,180.735333 L375.828133,162.9264 L393.637067,162.9264 L393.637067,166.488 Z M372.2656,184.296933 L397.198667,184.296933 L397.198667,159.3648 L372.2656,159.3648 L372.2656,184.296933 Z" id="Fill-32" fill="#121514"></path>
            <polyline id="Fill-33" fill="#121514" points="315.278133 170.050533 315.278133 177.173733 325.962933 177.173733 325.962933 166.488 315.278133 166.488 315.278133 170.050533"></polyline>
            <polygon id="Fill-34" fill="#121514" points="336.648667 177.173733 343.771867 177.173733 343.771867 173.6112 336.648667 173.6112"></polygon>
            <polyline id="Fill-35" fill="#121514" points="347.333467 177.173733 347.333467 180.735333 350.895067 180.735333 350.895067 177.173733 354.456667 177.173733 354.456667 180.735333 358.0192 180.735333 358.0192 177.173733 361.5808 177.173733 361.5808 173.6112 358.0192 173.6112 358.0192 170.050533 368.704933 170.050533 368.704933 166.488 361.5808 166.488 361.5808 159.3648 358.0192 159.3648 358.0192 162.9264 350.895067 162.9264 350.895067 170.050533 354.456667 170.050533 354.456667 173.6112 350.895067 173.6112 350.895067 170.050533 347.333467 170.050533 347.333467 166.488 340.210267 166.488 340.210267 159.3648 336.648667 159.3648 336.648667 170.050533 343.771867 170.050533 343.771867 173.6112 347.333467 173.6112 347.333467 177.173733"></polyline>
            <polygon id="Fill-36" fill="#121514" points="365.1424 177.173733 368.704933 177.173733 368.704933 173.6112 365.1424 173.6112"></polygon>
            <polyline id="Fill-37" fill="#121514" points="390.074533 173.6112 390.074533 166.488 379.389733 166.488 379.389733 177.173733 390.074533 177.173733 390.074533 173.6112"></polyline>
            <path d="M311.7156,180.735333 L329.524533,180.735333 L329.524533,162.9264 L311.7156,162.9264 L311.7156,180.735333 Z M333.086133,180.735333 L333.086133,159.3648 L308.154,159.3648 L308.154,184.296933 L333.086133,184.296933 L333.086133,180.735333 L333.086133,180.735333 Z" id="Fill-38" fill="#121514"></path>
            <polygon id="Fill-39" fill="#121514" points="336.648667 184.296933 340.210267 184.296933 340.210267 180.735333 336.648667 180.735333"></polygon>
            <polygon id="Fill-40" fill="#121514" points="343.771867 184.296933 347.333467 184.296933 347.333467 180.735333 343.771867 180.735333"></polygon>
            <polygon id="Fill-41" fill="#121514" points="350.895067 184.296933 354.456667 184.296933 354.456667 180.735333 350.895067 180.735333"></polygon>
            <polygon id="Fill-42" fill="#121514" points="358.0192 184.296933 361.5808 184.296933 361.5808 180.735333 358.0192 180.735333"></polygon>
            <polygon id="Fill-43" fill="#121514" points="354.456667 187.858533 358.0192 187.858533 358.0192 184.296933 354.456667 184.296933"></polygon>
            <polyline id="Fill-44" fill="#121514" points="386.512933 191.420133 382.951333 191.420133 382.951333 187.858533 379.389733 187.858533 379.389733 191.420133 375.828133 191.420133 375.828133 194.982667 372.2656 194.982667 372.2656 198.544267 375.828133 198.544267 375.828133 202.105867 379.389733 202.105867 379.389733 194.982667 382.951333 194.982667 382.951333 202.105867 393.637067 202.105867 393.637067 205.6684 397.198667 205.6684 397.198667 194.982667 393.637067 194.982667 393.637067 198.544267 386.512933 198.544267 386.512933 194.982667 393.637067 194.982667 393.637067 191.420133 397.198667 191.420133 397.198667 187.858533 386.512933 187.858533 386.512933 191.420133"></polyline>
            <polyline id="Fill-45" fill="#121514" points="333.086133 198.544267 333.086133 194.982667 329.524533 194.982667 329.524533 191.420133 333.086133 191.420133 333.086133 194.982667 336.648667 194.982667 336.648667 191.420133 340.210267 191.420133 340.210267 194.982667 336.648667 194.982667 336.648667 198.544267 343.771867 198.544267 343.771867 202.105867 347.333467 202.105867 347.333467 194.982667 343.771867 194.982667 343.771867 187.858533 318.839733 187.858533 318.839733 191.420133 325.962933 191.420133 325.962933 194.982667 318.839733 194.982667 318.839733 198.544267 322.401333 198.544267 322.401333 202.105867 325.962933 202.105867 325.962933 198.544267 333.086133 198.544267"></polyline>
            <polyline id="Fill-46" fill="#121514" points="311.7156 198.544267 315.278133 198.544267 315.278133 191.420133 311.7156 191.420133 311.7156 187.858533 308.154 187.858533 308.154 219.9148 311.7156 219.9148 311.7156 212.790667 315.278133 212.790667 315.278133 209.23 311.7156 209.23 311.7156 205.6684 315.278133 205.6684 315.278133 202.105867 311.7156 202.105867 311.7156 198.544267"></polyline>
            <polygon id="Fill-47" fill="#121514" points="315.278133 202.105867 318.839733 202.105867 318.839733 198.544267 315.278133 198.544267"></polygon>
            <polygon id="Fill-48" fill="#121514" points="333.086133 202.105867 336.648667 202.105867 336.648667 198.544267 333.086133 198.544267"></polygon>
            <polyline id="Fill-49" fill="#121514" points="354.456667 205.6684 354.456667 198.544267 358.0192 198.544267 358.0192 194.982667 361.5808 194.982667 361.5808 198.544267 368.704933 198.544267 368.704933 194.982667 365.1424 194.982667 365.1424 191.420133 368.704933 191.420133 368.704933 194.982667 372.2656 194.982667 372.2656 187.858533 368.704933 187.858533 368.704933 180.735333 365.1424 180.735333 365.1424 187.858533 361.5808 187.858533 361.5808 191.420133 354.456667 191.420133 354.456667 194.982667 350.895067 194.982667 350.895067 202.105867 347.333467 202.105867 347.333467 205.6684 354.456667 205.6684"></polyline>
            <polygon id="Fill-50" fill="#121514" points="372.2656 205.6684 375.828133 205.6684 375.828133 202.105867 372.2656 202.105867"></polygon>
            <polygon id="Fill-51" fill="#121514" points="340.210267 209.23 343.771867 209.23 343.771867 205.6684 340.210267 205.6684"></polygon>
            <polyline id="Fill-52" fill="#121514" points="390.074533 209.23 382.951333 209.23 382.951333 205.6684 379.389733 205.6684 379.389733 212.790667 382.951333 212.790667 382.951333 216.3532 386.512933 216.3532 386.512933 223.4764 393.637067 223.4764 393.637067 216.3532 390.074533 216.3532 390.074533 212.790667 393.637067 212.790667 393.637067 216.3532 397.198667 216.3532 397.198667 209.23 393.637067 209.23 393.637067 205.6684 390.074533 205.6684 390.074533 209.23"></polyline>
            <polygon id="Fill-53" fill="#121514" points="318.839733 216.3532 322.401333 216.3532 322.401333 209.23 318.839733 209.23"></polygon>
            <polyline id="Fill-54" fill="#121514" points="336.648667 212.790667 340.210267 212.790667 340.210267 209.23 336.648667 209.23 336.648667 205.6684 333.086133 205.6684 333.086133 209.23 329.524533 209.23 329.524533 205.6684 333.086133 205.6684 333.086133 202.105867 325.962933 202.105867 325.962933 205.6684 322.401333 205.6684 322.401333 209.23 325.962933 209.23 325.962933 216.3532 329.524533 216.3532 329.524533 212.790667 333.086133 212.790667 333.086133 216.3532 329.524533 216.3532 329.524533 219.9148 336.648667 219.9148 336.648667 212.790667"></polyline>
            <path d="M379.389733,223.4764 L379.389733,230.600533 L368.704933,230.600533 L368.704933,219.9148 L379.389733,219.9148 L379.389733,223.4764 Z M379.389733,212.790667 L375.828133,212.790667 L375.828133,216.3532 L372.2656,216.3532 L372.2656,212.790667 L375.828133,212.790667 L375.828133,209.23 L372.2656,209.23 L372.2656,205.6684 L368.704933,205.6684 L368.704933,202.105867 L361.5808,202.105867 L361.5808,205.6684 L354.456667,205.6684 L354.456667,209.23 L347.333467,209.23 L347.333467,216.3532 L350.895067,216.3532 L350.895067,212.790667 L361.5808,212.790667 L361.5808,219.9148 L358.0192,219.9148 L358.0192,227.038933 L361.5808,227.038933 L361.5808,223.4764 L365.1424,223.4764 L365.1424,227.038933 L361.5808,227.038933 L361.5808,234.162133 L372.2656,234.162133 L372.2656,237.7228 L375.828133,237.7228 L375.828133,234.162133 L382.951333,234.162133 L382.951333,216.3532 L379.389733,216.3532 L379.389733,212.790667 L379.389733,212.790667 Z" id="Fill-55" fill="#121514"></path>
            <polygon id="Fill-56" fill="#121514" points="322.401333 219.9148 325.962933 219.9148 325.962933 216.3532 322.401333 216.3532"></polygon>
            <polygon id="Fill-57" fill="#121514" points="354.456667 219.9148 358.0192 219.9148 358.0192 216.3532 354.456667 216.3532"></polygon>
            <path d="M340.210267,230.600533 L343.771867,230.600533 L343.771867,227.038933 L340.210267,227.038933 L340.210267,230.600533 Z M354.456667,223.4764 L354.456667,219.9148 L347.333467,219.9148 L347.333467,216.3532 L343.771867,216.3532 L343.771867,212.790667 L340.210267,212.790667 L340.210267,219.9148 L343.771867,219.9148 L343.771867,223.4764 L340.210267,223.4764 L340.210267,219.9148 L336.648667,219.9148 L336.648667,237.7228 L343.771867,237.7228 L343.771867,234.162133 L347.333467,234.162133 L347.333467,227.038933 L350.895067,227.038933 L350.895067,223.4764 L354.456667,223.4764 L354.456667,223.4764 Z" id="Fill-58" fill="#121514"></path>
            <path d="M311.7156,244.846933 L329.524533,244.846933 L329.524533,227.038933 L311.7156,227.038933 L311.7156,244.846933 Z M308.154,227.038933 L308.154,248.409467 L333.086133,248.409467 L333.086133,223.4764 L308.154,223.4764 L308.154,227.038933 L308.154,227.038933 Z" id="Fill-59" fill="#121514"></path>
            <polygon id="Fill-60" fill="#121514" points="372.2656 227.038933 375.828133 227.038933 375.828133 223.4764 372.2656 223.4764"></polygon>
            <polygon id="Fill-61" fill="#121514" points="393.637067 227.038933 397.198667 227.038933 397.198667 223.4764 393.637067 223.4764"></polygon>
            <polyline id="Fill-62" fill="#121514" points="358.0192 230.600533 358.0192 227.038933 350.895067 227.038933 350.895067 234.162133 354.456667 234.162133 354.456667 230.600533 358.0192 230.600533"></polyline>
            <polyline id="Fill-63" fill="#121514" points="390.074533 230.600533 390.074533 237.7228 379.389733 237.7228 379.389733 241.285333 375.828133 241.285333 375.828133 244.846933 382.951333 244.846933 382.951333 241.285333 386.512933 241.285333 386.512933 244.846933 393.637067 244.846933 393.637067 248.409467 397.198667 248.409467 397.198667 230.600533 393.637067 230.600533 393.637067 227.038933 390.074533 227.038933 390.074533 230.600533"></polyline>
            <polyline id="Fill-64" fill="#121514" points="354.456667 237.7228 350.895067 237.7228 350.895067 241.285333 358.0192 241.285333 358.0192 237.7228 361.5808 237.7228 361.5808 234.162133 354.456667 234.162133 354.456667 237.7228"></polyline>
            <polyline id="Fill-65" fill="#121514" points="325.962933 237.7228 325.962933 230.600533 315.278133 230.600533 315.278133 241.285333 325.962933 241.285333 325.962933 237.7228"></polyline>
            <polygon id="Fill-66" fill="#121514" points="368.704933 241.285333 372.2656 241.285333 372.2656 237.7228 368.704933 237.7228"></polygon>
            <polygon id="Fill-67" fill="#121514" points="336.648667 248.409467 340.210267 248.409467 340.210267 244.846933 336.648667 244.846933"></polygon>
            <polyline id="Fill-68" fill="#121514" points="350.895067 244.846933 350.895067 248.409467 361.5808 248.409467 361.5808 241.285333 358.0192 241.285333 358.0192 244.846933 350.895067 244.846933"></polyline>
            <polygon id="Fill-69" fill="#121514" points="365.1424 248.409467 372.2656 248.409467 372.2656 244.846933 365.1424 244.846933"></polygon>
            <polygon id="Fill-70" fill="#121514" points="382.951333 248.409467 386.512933 248.409467 386.512933 244.846933 382.951333 244.846933"></polygon>
            <polyline id="Fill-71" fill="#E3626E" points="296.9568 171.255467 294.5796 171.255467 294.5796 145.7904 318.839733 145.7904 318.839733 148.1676 296.9568 148.1676 296.9568 171.255467"></polyline>
            <polyline id="Fill-72" fill="#E3626E" points="410.772133 171.255467 408.395867 171.255467 408.395867 148.1676 386.512933 148.1676 386.512933 145.7904 410.772133 145.7904 410.772133 171.255467"></polyline>
            <polyline id="Fill-73" fill="#E3626E" points="318.839733 261.983867 294.5796 261.983867 294.5796 238.928667 296.9568 238.928667 296.9568 259.605733 318.839733 259.605733 318.839733 261.983867"></polyline>
            <polyline id="Fill-74" fill="#E3626E" points="410.772133 261.983867 386.512933 261.983867 386.512933 259.605733 408.395867 259.605733 408.395867 238.928667 410.772133 238.928667 410.772133 261.983867"></polyline>
            <polygon id="Fill-75" fill="#6DD394" points="266 355.458133 439.6 355.458133 439.6 326.666667 266 326.666667"></polygon>
            <text id="Scan-to-view-channel" font-family="ProximaNova-Regular, Proxima Nova" font-size="14" font-weight="normal" letter-spacing="0.0376714725" fill="#FFFFFF">
                <tspan x="291.2" y="344.766667">Scan to view channel</tspan>
            </text>
            <path d="M429.576,414.851733 C445.7796,396.467867 443.509733,273.298667 432.222,209.23 C423.882667,161.894133 418.474,137.963467 409.198533,123.5024 L444.0828,110.236933 L444.0828,394.8196 C444.0828,400.642667 441.899733,405.962667 438.312933,410.013333 C442.805067,406.0364 445.7348,400.3328 446.043733,393.950667 C445.564933,403.872933 438.753467,412.156267 429.576,414.851733" id="Fill-76" fill="#C5E5E3"></path>
            <path d="M446.050267,393.804133 C446.050267,393.8032 446.050267,393.8032 446.050267,393.802267 L446.050267,393.804133" id="Fill-77" fill="#038D85"></path>
            <path d="M446.049333,393.8228 C446.049333,393.8116 446.050267,393.8004 446.050267,393.7892 C446.050267,393.793867 446.050267,393.798533 446.050267,393.802267 C446.050267,393.8032 446.050267,393.8032 446.050267,393.804133 C446.049333,393.810667 446.049333,393.816267 446.049333,393.8228" id="Fill-78" fill="#C5E5E3"></path>
        </g>
    </g>
</svg>