<?xml version="1.0" encoding="UTF-8"?>
<svg width="600px" height="600px" viewBox="0 0 600 600" version="1.1" xmlns="http://www.w3.org/2000/svg" xmlns:xlink="http://www.w3.org/1999/xlink">
    <title>OQ6UTW1</title>
    <defs>
        <polygon id="path-1" points="0 0.0767195767 599.92328 0.0767195767 599.92328 599.984127 0 599.984127"></polygon>
    </defs>
    <g id="Page-1" stroke="none" stroke-width="1" fill="none" fill-rule="evenodd">
        <g id="OQ6UTW1">
            <g id="Group-17">
                <mask id="mask-2" fill="white">
                    <use xlink:href="#path-1"></use>
                </mask>
                <g id="Clip-2"></g>
                <polygon id="Fill-1" fill="#A5DCF0" mask="url(#mask-2)" points="0 599.984127 599.92328 599.984127 599.92328 0.0767195767 0 0.0767195767"></polygon>
                <path d="M530.825397,555.357143 C528.510582,554.89418 526.206349,554.661376 523.928571,554.621693 C524.55291,552.835979 525.071429,550.989418 525.452381,549.079365 C529.87037,526.94709 515.513228,505.42328 493.380952,501.005291 C474.513228,497.238095 456.097884,507.126984 448.335979,523.833333 C443.814815,519.804233 438.201058,516.886243 431.830688,515.613757 C417.915344,512.833333 404.28836,518.677249 396.455026,529.444444 C394.193122,528.534392 391.822751,527.812169 389.346561,527.314815 C367.812169,523.015873 346.873016,536.986772 342.574074,558.518519 C339.248677,575.18254 346.867725,591.484127 360.460317,600 L560.962963,600 C564.84127,579.402116 551.431217,559.468254 530.825397,555.357143" id="Fill-3" fill="#D8EDEE" mask="url(#mask-2)"></path>
                <path d="M28.4584656,554.126984 C28.8227513,554.005291 29.178836,553.873016 29.5272487,553.732804 C29.6002646,554.452381 29.7084656,555.166667 29.8441799,555.875661 C29.4132275,555.267196 28.9465608,554.690476 28.4584656,554.126984 Z M80.4724868,564.812169 C78.8899471,564.142857 77.2759259,563.693122 75.6539683,563.417989 C76.1185185,562.597884 76.5415344,561.743386 76.9174603,560.851852 C82.2164021,548.26455 76.3074074,533.767196 63.7195767,528.47619 C56.7968254,525.555556 49.2936508,526.037037 43.0656085,529.156085 C41.7388889,522.113757 37.0227513,515.849206 29.9248677,512.857143 C21.3034392,509.23545 11.6801587,511.494709 5.52724868,517.812169 C3.90899471,516.269841 2.05687831,514.933862 0,513.851852 L0,594.473545 C7.33994709,597.322751 15.2330688,596.537037 21.6518519,592.949735 C22.8309524,595.579365 24.5375661,597.978836 26.6732804,600 L87.3732804,600 C89.2944444,598.079365 90.8849206,595.767196 92.0029101,593.111111 C96.6325397,582.111111 91.4695767,569.441799 80.4724868,564.812169 L80.4724868,564.812169 Z" id="Fill-4" fill="#D8EDEE" mask="url(#mask-2)"></path>
                <polyline id="Fill-5" fill="#D8EDEE" mask="url(#mask-2)" points="285.939153 336.132275 250.294444 569.933862 360.76455 562.208995 318.727513 333.685185 285.939153 336.132275"></polyline>
                <path d="M379.981481,584.275132 C383.346561,575.007937 381.267196,565.095238 375.380952,558.029101 C377.587302,556.071429 379.351852,553.55291 380.428571,550.587302 C383.616402,541.809524 379.687831,532.185185 371.592593,528.02381 C373.78836,525.558201 375.568783,522.642857 376.76455,519.349206 C381.830688,505.412698 374.637566,490.010582 360.701058,484.94709 C346.761905,479.883598 331.359788,487.074074 326.293651,501.013228 C325.730159,502.568783 325.325397,504.140212 325.055556,505.714286 C323.886243,505.089947 322.661376,504.537037 321.375661,504.068783 C306.510582,498.669312 290.074074,506.343915 284.674603,521.21164 C280.068783,533.886243 284.973545,547.690476 295.730159,554.838624 C292.460317,557.544974 289.843915,561.126984 288.28836,565.404762 C284.891534,574.753968 287.497354,584.814815 294.132275,591.380952 C293.261905,592.851852 292.507937,594.417989 291.904762,596.082011 C291.433862,597.378307 291.068783,598.687831 290.796296,600 L364.690476,600 C371.550265,597.283069 377.26455,591.756614 379.981481,584.275132" id="Fill-6" fill="#D8EDEE" mask="url(#mask-2)"></path>
                <path d="M599.92328,513.785714 C598.568783,512.941799 597.121693,512.203704 595.582011,511.597884 C581.925926,506.23545 566.505291,512.955026 561.142857,526.613757 C560.542328,528.137566 560.10582,529.68254 559.796296,531.232804 C558.656085,530.584656 557.457672,530.005291 556.198413,529.513228 C541.632275,523.791005 525.179894,530.960317 519.455026,545.529101 C514.579365,557.952381 519.079365,571.730159 529.537037,579.07672 C526.230159,581.666667 523.550265,585.142857 521.902116,589.338624 C520.52381,592.843915 520.02381,596.478836 520.277778,600 L599.92328,600 L599.92328,513.785714" id="Fill-7" fill="#D8EDEE" mask="url(#mask-2)"></path>
                <path d="M273.563492,519.338624 C274.917989,517.34127 276.013228,515.087302 276.761905,512.619048 C280.338624,500.835979 274.769841,488.71164 264.319048,485.542328 C254.863228,482.671958 244.653439,488.121693 240.149735,497.915344 C231.355026,497.642857 222.808466,504.029101 219.82037,513.87037 C217.391534,521.875661 219.291005,530.034392 224.099735,535.309524 C219.82037,536.936508 216.180952,540.738095 214.635714,545.835979 C212.141799,554.044974 216.025397,562.494709 223.304497,564.703704 C223.948148,564.899471 224.595767,565.02381 225.243386,565.111111 C225.225661,565.166667 225.202116,565.219577 225.186243,565.275132 C222.501323,574.111111 226.680159,583.203704 234.516402,585.582011 C242.354233,587.957672 250.881217,582.722222 253.562169,573.888889 C254.046296,572.28836 254.304233,570.68254 254.357407,569.108466 C254.557937,569.174603 254.75291,569.246032 254.951852,569.306878 C267.484127,573.111111 281.121693,564.738095 285.412698,550.603175 C289.333333,537.679894 284.07672,524.417989 273.563492,519.338624" id="Fill-8" fill="#D8EDEE" mask="url(#mask-2)"></path>
                <path d="M284.246032,560.124339 C283.65873,538.171958 265.388889,520.857143 243.438889,521.444444 C235.89418,521.648148 228.894709,523.936508 222.985714,527.746032 C222.983598,527.592593 222.987566,527.441799 222.983598,527.28836 C222.420635,506.23545 204.896296,489.626984 183.844709,490.190476 C169.782804,490.563492 157.710847,498.510582 151.408201,510.018519 C147.656614,508.113757 143.392857,507.089947 138.889418,507.208995 C125.57328,507.566138 114.853704,517.81746 113.560582,530.73545 C109.135714,529.111111 104.340741,528.272487 99.3449735,528.404762 C78.1968254,528.970899 61.5092593,546.571429 62.0759259,567.722222 C62.4481481,581.619048 70.1759259,593.584656 81.4309524,600 L253.113492,600 C271.349206,595.973545 284.76455,579.484127 284.246032,560.124339" id="Fill-9" fill="#D8EDEE" mask="url(#mask-2)"></path>
                <path d="M509.203704,547.256614 C492.116402,538.412698 471.68254,542.81746 459.600529,556.727513 C456.37037,551.600529 451.783069,547.240741 446.015873,544.256614 C433.410053,537.73545 418.698413,539.579365 408.193122,547.756614 C406.272487,546.256614 404.193122,544.904762 401.949735,543.743386 C382.44709,533.650794 358.457672,541.280423 348.37037,560.780423 C341.703704,573.664021 342.775132,588.5 349.886243,600 L527.820106,600 C536.457672,580.412698 528.47619,557.230159 509.203704,547.256614" id="Fill-10" fill="#FFFFFF" mask="url(#mask-2)"></path>
                <path d="M33.231746,582.280423 C33.465873,582.034392 33.6904762,581.783069 33.9068783,581.531746 C34.2592593,582.063492 34.6391534,582.579365 35.0386243,583.079365 C34.4502646,582.783069 33.8460317,582.521164 33.231746,582.280423 Z M99.0949735,586.626984 C98.1875661,576.100529 88.9185185,568.301587 78.3917989,569.208995 C76.8761905,569.335979 75.4275132,569.648148 74.0417989,570.103175 C74.0674603,569.267196 74.047619,568.42328 73.9727513,567.571429 C72.9354497,555.52381 62.3298942,546.600529 50.2857143,547.642857 C43.6563492,548.208995 37.9753968,551.68254 34.3812169,556.693122 C30.4386243,551.722222 24.1616402,548.756614 17.3648148,549.338624 C9.11534392,550.055556 2.50767196,555.791005 0.291269841,563.283069 C0.194708995,563.253968 0.0962962963,563.238095 0,563.21164 L0,600 L95.1190476,600 C97.9751323,596.328042 99.5261905,591.626984 99.0949735,586.626984 L99.0949735,586.626984 Z" id="Fill-11" fill="#FFFFFF" mask="url(#mask-2)"></path>
                <polyline id="Fill-12" fill="#FFFFFF" mask="url(#mask-2)" points="290.335979 366.113757 262.687302 547.462963 348.373016 541.470899 315.767196 364.214286 290.335979 366.113757"></polyline>
                <path d="M375.380952,578.185185 C377.587302,576.227513 379.351852,573.708995 380.428571,570.743386 C383.616402,561.965608 379.687831,552.34127 371.592593,548.179894 C373.78836,545.714286 375.568783,542.798942 376.76455,539.505291 C381.830688,525.568783 374.637566,510.166667 360.701058,505.103175 C346.761905,500.037037 331.359788,507.230159 326.293651,521.169312 C325.730159,522.724868 325.325397,524.296296 325.055556,525.87037 C323.886243,525.246032 322.661376,524.693122 321.375661,524.224868 C306.510582,518.825397 290.074074,526.5 284.674603,541.367725 C280.068783,554.042328 284.973545,567.846561 295.730159,574.992063 C292.460317,577.701058 289.843915,581.283069 288.28836,585.560847 C286.537037,590.378307 286.391534,595.380952 287.560847,600 L381.161376,600 C382.579365,592.100529 380.335979,584.134921 375.380952,578.185185" id="Fill-13" fill="#FFFFFF" mask="url(#mask-2)"></path>
                <path d="M599.92328,559.190476 C588.703704,554.092593 575.07672,557.367725 567.513228,567.708995 C566.547619,569.031746 565.730159,570.412698 565.037037,571.833333 C564.097884,570.917989 563.087302,570.05291 561.997354,569.256614 C549.362434,560.015873 531.626984,562.76455 522.388889,575.399471 C517.002646,582.767196 515.701058,591.862434 518.047619,600 L599.92328,600 L599.92328,559.190476" id="Fill-14" fill="#FFFFFF" mask="url(#mask-2)"></path>
                <path d="M280.584656,591.558201 C280.460317,589.891534 280.121693,588.301587 279.603175,586.812169 C279.81746,586.804233 280.02381,586.798942 280.230159,586.783069 C293.293651,585.822751 303.002646,573.100529 301.917989,558.37037 C300.92328,544.902116 291.243386,534.420635 279.608466,533.465608 C280.153439,531.113757 280.362434,528.616402 280.171958,526.044974 C279.269841,513.76455 269.708995,504.460317 258.817725,505.26455 C248.960053,505.989418 241.397619,514.748677 240.722487,525.507937 C232.417989,528.417989 226.745238,537.455026 227.498942,547.708995 C228.115079,556.05291 232.82328,562.981481 239.20873,566.171958 C235.801587,569.230159 233.774074,574.087302 234.167725,579.399471 C234.797619,587.957672 241.460582,594.441799 249.048677,593.880952 C249.717989,593.833333 250.36746,593.714286 251.003175,593.563492 C251.007143,593.619048 251.003175,593.679894 251.008995,593.738095 C251.174339,595.986772 251.731481,598.095238 252.589683,600 L279.222222,600 C280.291005,597.462963 280.806878,594.582011 280.584656,591.558201" id="Fill-15" fill="#FFFFFF" mask="url(#mask-2)"></path>
                <path d="M300.547619,593.108466 C299.962963,571.156085 281.693122,553.84127 259.742857,554.428571 C252.2,554.62963 245.198677,556.920635 239.29127,560.730159 C239.287566,560.57672 239.29127,560.425926 239.287566,560.272487 C238.724603,539.219577 221.202381,522.608466 200.148677,523.174603 C186.086772,523.547619 174.016667,531.494709 167.712169,543.002646 C163.960582,541.097884 159.696825,540.071429 155.193386,540.193122 C141.877249,540.550265 131.157672,550.801587 129.86455,563.719577 C125.441534,562.095238 120.646561,561.256614 115.648942,561.388889 C94.7391534,561.949735 78.1989418,579.166667 78.3784236,600 L300.12963,600 C300.457672,597.756614 300.611111,595.455026 300.547619,593.108466" id="Fill-16" fill="#FFFFFF" mask="url(#mask-2)"></path>
            </g>
            <path d="M533.738095,94.0621693 C531.362434,94.5246032 529.142857,95.3314815 527.113757,96.418254 C527.060847,96.0756614 527.005291,95.7312169 526.939153,95.3886243 C524.351852,82.1240741 511.5,73.4690476 498.232804,76.0574074 C490.526455,77.5613757 484.383598,82.5333333 481.089947,89.0328042 C476.642857,86.2634921 471.179894,85.1021164 465.632275,86.1846561 C457.142857,87.8420635 450.812169,94.2902116 448.886243,102.175661 C446.42328,101.734656 443.846561,101.72672 441.246032,102.234656 C431.425926,104.151852 424.582011,112.692593 424.44709,122.314021 L561.227513,122.314021 C561.917989,119.231481 562.005291,115.961905 561.359788,112.662963 C558.867725,99.8981481 546.502646,91.5701058 533.738095,94.0621693" id="Fill-18" fill="#FFFFFF"></path>
            <path d="M75.9865079,134.956614 C76.1320106,134.767725 76.2738095,134.573016 76.407672,134.375926 C76.6989418,134.728307 77.0082011,135.064815 77.3269841,135.387831 C76.8880952,135.224339 76.4391534,135.08254 75.9865079,134.956614 Z M107.057143,122.239153 C105.992063,122.447884 104.982275,122.776455 104.035714,123.205556 C103.98836,122.609259 103.91164,122.010847 103.793651,121.412434 C102.140212,112.938624 93.9320106,107.409524 85.4582011,109.062963 C80.7931217,109.974339 77.0256614,112.871693 74.8526455,116.704233 C71.6759259,113.471958 66.9931217,111.846032 62.2119048,112.779101 C56.4071429,113.912963 52.1515873,118.49127 51.1497354,123.977249 C49.3407407,123.664286 47.4473545,123.666138 45.5399471,124.038095 C39.315873,125.252646 34.6981481,130.039683 33.3970899,135.856349 L123.33545,135.856349 C123.349206,134.925132 123.268519,133.980423 123.083333,133.031481 C121.636772,125.624603 114.462169,120.794444 107.057143,122.239153 L107.057143,122.239153 Z" id="Fill-19" fill="#FFFFFF"></path>
            <path d="M171.302381,62.4521164 C171.41455,62.3044974 171.52672,62.1529101 171.631217,61.9994709 C171.857407,62.2730159 172.099471,62.5367725 172.347619,62.7886243 C172.007143,62.6608466 171.654497,62.5505291 171.302381,62.4521164 Z M195.558466,52.5238095 C194.727778,52.687037 193.938624,52.9428571 193.200265,53.2777778 C193.162963,52.8132275 193.101852,52.3465608 193.011376,51.8783069 C191.720106,45.2624339 185.311376,40.9457672 178.695503,42.237037 C175.053968,42.947619 172.113228,45.2092593 170.416667,48.2013228 C167.936508,45.6796296 164.281217,44.4103175 160.547354,45.1383598 C156.016138,46.0222222 152.693651,49.5968254 151.912169,53.8798942 C150.498677,53.6359788 149.022487,53.6378307 147.53254,53.9272487 C142.672487,54.8759259 139.068519,58.6140212 138.050794,63.1529101 L208.266138,63.1529101 C208.275926,62.4285714 208.215079,61.6902116 208.069312,60.9502646 C206.941534,55.1671958 201.339418,51.3957672 195.558466,52.5238095 L195.558466,52.5238095 Z" id="Fill-20" fill="#FFFFFF"></path>
            <path d="M303.460317,322.478836 C287.962963,322.867725 274.716931,340.328042 275.031746,352.746032 C275.346561,365.156085 305.732804,412.140212 305.732804,412.140212 C314.309524,390.62963 333.690476,363.468254 333.383598,351.267196 C333.074074,339.063492 318.960317,322.084656 303.460317,322.478836" id="Fill-21" fill="#F05A2A"></path>
            <path d="M303.486772,323.378307 C290.820106,323.695767 279.994709,337.968254 280.251323,348.10582 C280.507937,358.256614 305.338624,396.650794 305.338624,396.650794 C312.349206,379.071429 328.193122,356.875661 327.941799,346.904762 C327.685185,336.928571 316.150794,323.055556 303.486772,323.378307" id="Fill-22" fill="#F8EC3A"></path>
            <path d="M303.481481,323.272487 C293.719577,323.518519 285.383598,334.513228 285.579365,342.330688 C285.775132,350.148148 304.912698,379.732804 304.912698,379.732804 C310.312169,366.187831 322.518519,349.087302 322.325397,341.399471 C322.132275,333.716931 313.243386,323.026455 303.481481,323.272487" id="Fill-23" fill="#FFFFFF"></path>
            <path d="M291.719577,328.917989 C281.60582,326.915344 270.465608,336.320106 268.859788,344.417989 C267.256614,352.518519 280.132275,387.428571 280.132275,387.428571 C288.830688,374.724868 305.365079,359.92328 306.941799,351.957672 C308.518519,343.997354 301.833333,330.920635 291.719577,328.917989" id="Fill-24" fill="#F05A2A"></path>
            <path d="M291.600529,329.505291 C283.335979,327.865079 274.232804,335.547619 272.92328,342.169312 C271.611111,348.793651 282.137566,377.325397 282.137566,377.325397 C289.243386,366.939153 302.756614,354.84127 304.042328,348.333333 C305.333333,341.825397 299.867725,331.142857 291.600529,329.505291" id="Fill-25" fill="#F8EC3A"></path>
            <path d="M291.613757,329.441799 C285.246032,328.174603 278.232804,334.097884 277.219577,339.198413 C276.208995,344.298942 284.320106,366.285714 284.320106,366.285714 C289.798942,358.285714 300.21164,348.962963 301.203704,343.94709 C302.198413,338.931217 297.986772,330.695767 291.613757,329.441799" id="Fill-26" fill="#FFFFFF"></path>
            <path d="M296.346561,326.470899 C290.338624,329.079365 287.915344,338.018519 290.007937,342.825397 C292.097884,347.637566 311.441799,361.222222 311.441799,361.222222 C311.391534,351.441799 314.68254,337.732804 312.626984,333.005291 C310.571429,328.275132 302.354497,323.862434 296.346561,326.470899" id="Fill-27" fill="#F05A2A"></path>
            <path d="M296.497354,326.81746 C291.589947,328.94709 289.611111,336.253968 291.320106,340.187831 C293.026455,344.121693 308.833333,355.222222 308.833333,355.222222 C308.798942,347.224868 311.478836,336.02381 309.804233,332.156085 C308.124339,328.291005 301.407407,324.687831 296.497354,326.81746" id="Fill-28" fill="#F8EC3A"></path>
            <path d="M296.481481,326.780423 C292.698413,328.417989 291.174603,334.050265 292.489418,337.082011 C293.806878,340.10582 305.986772,348.664021 305.986772,348.664021 C305.957672,342.502646 308.029101,333.87037 306.732804,330.891534 C305.439153,327.912698 300.26455,325.137566 296.481481,326.780423" id="Fill-29" fill="#FFFFFF"></path>
            <path d="M264.62963,249.958201 C264.62963,249.958201 245.535979,260.88836 236.102646,280.230159 C224.129101,304.769841 220.966138,342.362434 225.623016,344.751323 C230.280423,347.145503 235.911905,329.066138 245.304762,318.465608 C260.839153,300.933862 274.240741,301.981481 274.240741,301.981481 L264.62963,249.958201" id="Fill-30" fill="#C6421E"></path>
            <path d="M336.772487,249.958201 C336.772487,249.958201 355.862434,260.88836 365.298942,280.230159 C377.272487,304.769841 380.433862,342.362434 375.777778,344.751323 C371.119048,347.145503 365.489418,329.066138 356.095238,318.465608 C340.560847,300.933862 327.161376,301.981481 327.161376,301.981481 L336.772487,249.958201" id="Fill-31" fill="#AA290B"></path>
            <path d="M328.701058,332.470899 C330.838624,325.84127 345.21164,279.121693 345.21164,221.082275 C345.21164,173.093651 317.494709,145.861376 300.714286,132.40582 C283.931217,145.861376 256.215344,173.093651 256.215344,221.082275 C256.215344,279.121693 270.587302,325.84127 272.727513,332.470899 L328.701058,332.470899" id="Fill-32" fill="#2B2B38"></path>
            <path d="M244.377778,194.759259 C244.377778,268.23545 262.575132,311.862434 265.283069,320.256614 L336.142857,320.256614 C338.854497,311.862434 357.050265,268.23545 357.050265,194.759259 C357.050265,162.375926 347.079365,131.880159 334.550265,107.87619 L266.875661,107.87619 C254.347619,131.880159 244.377778,162.375926 244.377778,194.759259" id="Fill-33" fill="#FFFFFF"></path>
            <path d="M300.714286,62.8417989 C290.791005,70.7978836 277.851852,86.8439153 266.875661,107.875926 L334.550265,107.875926 C323.574074,86.8439153 310.634921,70.7978836 300.714286,62.8417989" id="Fill-34" fill="#C6421E"></path>
            <path d="M334.550265,107.87619 L300.714286,107.87619 L300.714286,320.256614 L336.142857,320.256614 C338.854497,311.862434 357.050265,268.23545 357.050265,194.759259 C357.050265,162.375926 347.079365,131.880159 334.550265,107.87619" id="Fill-35" fill="#F0F1F1"></path>
            <path d="M300.708995,139.682804 C287.306878,139.682804 276.439153,150.55 276.439153,163.952646 C276.439153,177.353175 287.306878,188.22037 300.708995,188.22037 C314.113757,188.22037 324.978836,177.353175 324.978836,163.952646 C324.978836,150.55 314.113757,139.682804 300.708995,139.682804" id="Fill-36" fill="#A5DCF0"></path>
            <path d="M320.216931,175.140741 C314.113757,185.91164 300.433862,189.700794 289.65873,183.592857 C278.886243,177.488889 275.100529,163.801058 281.208995,153.032275 C287.314815,142.257407 300.994709,138.475926 311.767196,144.581746 C322.542328,150.685714 326.325397,164.369841 320.216931,175.140741 M325.748677,178.276455 C333.584656,164.450529 328.730159,146.888889 314.904762,139.050794 C301.07672,131.214815 283.515873,136.068783 275.677249,149.896561 C267.84127,163.72619 272.698413,181.282011 286.52381,189.124074 C300.351852,196.958201 317.912698,192.103968 325.748677,178.276455" id="Fill-37" fill="#2B2B38"></path>
            <path d="M300.690476,186.511905 C296.944444,186.511905 293.150794,185.572487 289.65873,183.592857 C278.886243,177.488889 275.100529,163.801058 281.208995,153.032275 C285.335979,145.75 292.920635,141.662169 300.732804,141.662169 C304.478836,141.662169 308.275132,142.602646 311.767196,144.581746 C322.542328,150.685714 326.325397,164.369841 320.216931,175.140741 C316.089947,182.420899 308.502646,186.511905 300.690476,186.511905 M300.748677,144.625661 C296.693122,144.625661 292.600529,145.858201 289.066138,148.416138 C281.830688,153.653968 279.145503,162.844444 281.825397,170.889153 C281.825397,170.889153 288.732804,162.192857 295.002646,157.65582 C301.082011,153.254497 312.677249,148.565873 312.677249,148.565873 C309.193122,145.974868 304.992063,144.625661 300.748677,144.625661" id="Fill-38" fill="#B9DFED"></path>
            <path d="M300.693122,188.589947 C296.597884,188.589947 292.44709,187.562169 288.632275,185.399735 C276.862434,178.726984 272.727513,163.777513 279.396825,152.004497 C283.907407,144.048677 292.201058,139.581217 300.73545,139.581217 C304.830688,139.581217 308.978836,140.608466 312.793651,142.771164 C324.563492,149.445767 328.701058,164.393386 322.026455,176.168254 C317.518519,184.124868 309.227513,188.589947 300.693122,188.589947 M300.732804,141.662169 C292.920635,141.662169 285.335979,145.75 281.208995,153.032275 C275.100529,163.801058 278.886243,177.488889 289.65873,183.592857 C293.150794,185.572487 296.944444,186.511905 300.690476,186.511905 C308.502646,186.511905 316.089947,182.420899 320.216931,175.140741 C326.325397,164.369841 322.542328,150.685714 311.767196,144.581746 C308.275132,142.602646 304.478836,141.662169 300.732804,141.662169" id="Fill-39" fill="#63636D"></path>
            <path d="M281.825397,170.889153 C279.145503,162.844444 281.830688,153.653968 289.066138,148.416138 C292.600529,145.858201 296.693122,144.625661 300.748677,144.625661 C304.992063,144.625661 309.193122,145.974868 312.677249,148.565873 C312.677249,148.565873 301.082011,153.254497 295.002646,157.65582 C288.732804,162.192857 281.825397,170.889153 281.825397,170.889153" id="Fill-40" fill="#DCEFF6"></path>
            <path d="M300.867725,258.624868 L300.833333,258.624868 C296.05291,258.624868 292.865079,266.031746 292.865079,275.962963 C292.865079,285.899471 293.925926,344.968254 300.833333,344.968254 L300.867725,344.968254 C307.769841,344.968254 308.830688,285.899471 308.830688,275.962963 C308.830688,266.031746 305.648148,258.624868 300.867725,258.624868" id="Fill-41" fill="#C6421E"></path>
            <path d="M300.708995,107.875926 L334.550265,107.875926 C323.574074,86.8439153 310.634921,70.7978836 300.714286,62.8417989 L300.708995,62.8457672 L300.708995,107.875926" id="Fill-42" fill="#AA290B"></path>
            <path d="M300.867725,258.624868 L300.849206,258.624868 L300.849206,344.968254 L300.867725,344.968254 C307.769841,344.968254 308.830688,285.899471 308.830688,275.962963 C308.830688,266.031746 305.648148,258.624868 300.867725,258.624868" id="Fill-43" fill="#AA290B"></path>
        </g>
    </g>
</svg>