<?xml version="1.0" encoding="UTF-8"?>
<svg width="1555px" height="1201px" viewBox="0 0 1555 1201" version="1.1" xmlns="http://www.w3.org/2000/svg" xmlns:xlink="http://www.w3.org/1999/xlink">
    <title>OQ6UTW1</title>
    <defs>
        <polygon id="path-1" points="0 0 1555 0 1555 1201 0 1201"></polygon>
    </defs>
    <g id="Page-1" stroke="none" stroke-width="1" fill="none" fill-rule="evenodd">
        <g id="Group-17">
            <mask id="mask-2" fill="white">
                <use xlink:href="#path-1"></use>
            </mask>
            <g id="Clip-2"></g>
            <polygon id="Fill-1" fill-opacity="0.35" fill="#A5DCF0" mask="url(#mask-2)" points="0 1201 1555 1201 1555 0 0 0"></polygon>
            <g id="Group-4" mask="url(#mask-2)">
                <g transform="translate(-2.000000, 420.233766)">
                    <path d="M1372.54974,768.166906 C1366.56783,767.229782 1360.61326,766.758542 1354.72705,766.678217 C1356.34046,763.063595 1357.68041,759.325807 1358.66486,755.4595 C1370.08177,710.659602 1332.98022,667.091352 1275.78626,658.148508 C1227.02851,650.522994 1179.4398,670.53997 1159.38158,704.356771 C1147.69805,696.201112 1133.19104,690.294551 1116.72881,687.718798 C1080.76895,682.090697 1045.55426,693.919883 1025.31145,715.714718 C1019.46627,713.872599 1013.34078,712.410685 1006.94184,711.403946 C951.292926,702.702077 897.182218,730.981812 886.072945,774.566127 C877.479494,808.297248 897.168545,841.294735 932.294359,858.532468 L1450.43088,858.532468 C1460.45315,816.838467 1425.79905,776.48857 1372.54974,768.166906" id="Fill-3" fill="#D8EDEE"></path>
                    <path d="M73,765.502036 C74.0515464,765.274876 75.0794196,765.027962 76.085147,764.766234 C76.2959145,766.109444 76.6082474,767.442777 77,768.766234 C75.7560137,767.630431 74.4089347,766.553888 73,765.502036 Z M207.835154,787.498188 C203.747951,786.142589 199.579442,785.231713 195.390435,784.674471 C196.590222,783.013461 197.682739,781.282795 198.653638,779.477117 C212.33914,753.983292 197.078063,724.620921 164.56765,713.904728 C146.688358,707.989389 127.310015,708.964563 111.224938,715.281759 C107.798438,701.018505 95.6181366,688.330532 77.286533,682.270524 C55.0200912,674.93529 30.1661809,679.511104 14.275147,692.306239 C10.0957054,689.182469 5.31227053,686.47663 0,684.285169 L0,847.573169 C18.9567776,853.34384 39.3422315,851.752485 55.9199318,844.486906 C58.9651781,849.812854 63.3728253,854.672648 68.8887044,858.766234 L225.657737,858.766234 C230.6195,854.876255 234.7272,850.193279 237.614616,844.81375 C249.571495,822.534783 236.237183,796.874857 207.835154,787.498188 L207.835154,787.498188 Z" id="Fill-4" fill="#D8EDEE"></path>
                    <polyline id="Fill-5" fill="#D8EDEE" points="752.38487 485.467968 691.367461 798.194805 880.472654 787.862226 808.512716 482.194805 752.38487 485.467968"></polyline>
                    <path d="M984.098173,826.711417 C992.812854,807.958197 987.427839,787.89873 972.183998,773.5996 C977.897869,769.638029 982.467596,764.541522 985.25602,758.540277 C993.511673,740.77745 983.337694,721.301511 962.373131,712.880496 C968.059597,707.891058 972.670431,701.99153 975.767157,695.326455 C988.887137,667.124353 970.258821,635.956426 934.166888,625.709877 C898.068103,615.463327 858.180625,630.01407 845.060645,658.221525 C843.601347,661.369368 842.553119,664.549332 841.8543,667.734649 C838.826085,666.471229 835.653996,665.352353 832.324331,664.404788 C793.827638,653.478347 751.261355,669.008776 737.278128,699.0953 C725.350251,724.743795 738.05231,752.678223 765.909144,767.14331 C757.441105,772.619914 750.665303,779.868518 746.636819,788.525086 C737.839924,807.444264 744.588321,827.803526 761.771041,841.090849 C759.517008,844.06738 757.564426,847.236637 756.00236,850.603972 C754.782853,853.227175 753.837392,855.877144 753.131722,858.532468 L944.498443,858.532468 C962.263513,853.03445 977.062027,841.851042 984.098173,826.711417" id="Fill-6" fill="#D8EDEE"></path>
                    <path d="M1553,684.356491 C1549.49271,682.651556 1545.74567,681.160405 1541.75887,679.936486 C1506.39829,669.102932 1466.46865,682.678279 1452.58336,710.272577 C1451.02837,713.35108 1449.89809,716.472341 1449.09662,719.604291 C1446.1442,718.294858 1443.04107,717.124385 1439.78039,716.130285 C1402.06336,704.569862 1359.46215,719.053795 1344.63838,748.486644 C1332.01352,773.585001 1343.66566,801.419807 1370.74438,816.26183 C1362.18167,821.494218 1355.24244,828.517055 1350.97479,836.99363 C1347.40585,844.075258 1346.11117,851.418772 1346.76878,858.532468 L1553,858.532468 L1553,684.356491" id="Fill-7" fill="#D8EDEE"></path>
                    <path d="M707.224851,696.122767 C710.725811,692.09121 713.556666,687.541692 715.491767,682.559649 C724.73649,658.776135 710.342894,634.303785 683.330796,627.906692 C658.890401,622.112998 632.501229,633.113007 620.860535,652.880984 C598.128909,652.330984 576.03867,665.221286 568.31536,685.085379 C562.037564,701.243645 566.947114,717.711619 579.376207,728.359201 C568.31536,731.643184 558.908581,739.316491 554.914614,749.606305 C548.468607,766.175736 558.506517,783.23109 577.32076,787.689831 C578.9844,788.084977 580.658297,788.335948 582.332193,788.512162 C582.28638,788.624298 582.225523,788.731094 582.184497,788.84323 C575.2448,806.678196 586.04581,825.031124 606.300096,829.831613 C626.558485,834.626762 648.598124,824.059278 655.527564,806.229652 C656.778884,802.999067 657.445571,799.757802 657.583011,796.580615 C658.101317,796.71411 658.605264,796.858285 659.119468,796.981101 C691.511556,804.659748 726.760483,787.759249 737.851416,759.228643 C747.985055,733.143671 734.39832,706.375202 707.224851,696.122767" id="Fill-8" fill="#D8EDEE"></path>
                    <path d="M736.124747,778.044646 C734.605441,733.734426 687.342696,698.784993 630.559648,699.970444 C611.042037,700.381613 592.934917,705.000599 577.648779,712.690008 C577.643304,712.380296 577.65357,712.075923 577.643304,711.766211 C576.18696,669.271546 530.852775,635.747858 476.393856,636.88525 C440.016735,637.638171 408.787462,653.679133 392.482979,676.907556 C382.777896,673.062852 371.747869,670.996323 360.097801,671.236617 C325.649925,671.957499 297.919163,692.649485 294.573952,718.724058 C283.127142,715.44538 270.722895,713.752642 257.79921,714.019635 C203.090495,715.162367 159.92098,750.688505 161.386905,793.380745 C162.349817,821.431069 182.341014,845.583289 211.456946,858.532468 L655.58714,858.532468 C702.761602,850.405189 737.466117,817.121796 736.124747,778.044646" id="Fill-9" fill="#D8EDEE"></path>
                    <path d="M1317.7923,752.558248 C1273.6491,734.788684 1220.86042,743.638916 1189.64785,771.587576 C1181.30309,761.286225 1169.45229,752.526356 1154.55336,746.530523 C1121.98759,733.427927 1083.98165,737.132799 1056.84237,753.562869 C1051.88061,750.549007 1046.5088,747.832809 1040.71325,745.499325 C990.330272,725.220865 928.356199,740.550636 902.296745,779.730853 C885.074131,805.617117 887.842051,835.426186 906.212839,858.532468 L1365.88577,858.532468 C1388.19999,819.176841 1367.58069,772.597512 1317.7923,752.558248" id="Fill-10" fill="#FFFFFF"></path>
                    <path d="M86,822.217516 C86.647877,821.740593 87.2693997,821.253413 87.8682284,820.766234 C88.8433382,821.797003 89.8945827,822.797003 91,823.766234 C89.3718887,823.191875 87.6998536,822.684182 86,822.217516 Z M257.814628,831.73454 C255.453833,810.456773 231.338623,794.692296 203.951338,796.526494 C200.008191,796.783175 196.239179,797.414182 192.633977,798.333955 C192.70074,796.644139 192.649119,794.938282 192.454336,793.216382 C189.755596,768.863793 162.163204,750.826622 130.827955,752.933543 C113.580387,754.077911 98.8002967,761.0992 89.4493466,771.227396 C79.1919339,761.179413 62.8611528,755.184847 45.1779046,756.361301 C23.7153199,757.810478 6.52419077,769.403893 0.757794497,784.548058 C0.506572888,784.489235 0.250533331,784.45715 0,784.403675 L0,858.766234 L247.470492,858.766234 C254.901145,851.343881 258.936521,841.841345 257.814628,831.73454 L257.814628,831.73454 Z" id="Fill-11" fill="#FFFFFF"></path>
                    <polyline id="Fill-12" fill="#FFFFFF" points="750.605172 596.223782 679.017316 962.285714 900.874459 950.190451 816.451587 592.38961 750.605172 596.223782"></polyline>
                    <path d="M972.215603,814.359774 C977.930228,810.395696 982.500558,805.295962 985.28935,799.290918 C993.546093,781.516847 983.370771,762.028578 962.40344,753.602233 C968.090657,748.609636 972.7021,742.706373 975.799235,736.037079 C988.920947,707.817124 970.290172,676.629467 934.193473,666.376431 C898.089922,656.118038 858.197178,670.683349 845.075466,698.90866 C843.615975,702.058496 842.567609,705.240473 841.868698,708.427806 C838.840083,707.163586 835.667576,706.044002 832.33747,705.095837 C793.835695,694.16248 751.263792,709.70274 737.278719,739.80831 C725.349268,765.473041 738.053003,793.425153 765.913515,807.89404 C757.444358,813.379468 750.667662,820.632661 746.638645,829.294709 C742.102576,839.049556 741.725712,849.179385 744.754326,858.532468 L987.187373,858.532468 C990.860082,842.536874 985.049528,826.407359 972.215603,814.359774" id="Fill-13" fill="#FFFFFF"></path>
                    <path d="M1553,776.705347 C1523.91684,766.483588 1488.59326,773.050551 1468.98733,793.785817 C1466.4843,796.438064 1464.36529,799.20701 1462.5686,802.055523 C1460.13414,800.220168 1457.51453,798.485598 1454.6892,796.888946 C1421.93721,778.360349 1375.96375,783.871718 1352.01695,809.20598 C1338.05484,823.978995 1334.68089,842.215845 1340.7636,858.532468 L1553,858.532468 L1553,776.705347" id="Fill-14" fill="#FFFFFF"></path>
                    <path d="M726.031179,841.476202 C725.70889,838.108779 724.831165,834.896364 723.48715,831.887064 C724.042585,831.871028 724.577448,831.860338 725.112312,831.828267 C758.973265,829.88799 784.139263,804.183327 781.327803,774.421721 C778.749488,747.209734 753.658919,726.032384 723.500865,724.102798 C724.913452,719.350989 725.455173,714.3052 724.961453,709.109747 C722.623141,684.297718 697.841147,665.498945 669.610657,667.12386 C644.059283,668.588422 624.457233,686.286101 622.70727,708.024688 C601.18177,713.904316 586.477833,732.163233 588.431455,752.880903 C590.028502,769.739399 602.232297,783.738258 618.783569,790.184468 C609.952155,796.363422 604.696782,806.177055 605.717136,816.910048 C607.34984,834.201499 624.620435,847.302379 644.289,846.169214 C646.023876,846.073002 647.707324,845.832472 649.355114,845.5278 C649.3654,845.640047 649.355114,845.762985 649.3702,845.880578 C649.798776,850.423926 651.242907,854.683984 653.467389,858.532468 L722.499711,858.532468 C725.270028,853.406501 726.607186,847.58567 726.031179,841.476202" id="Fill-15" fill="#FFFFFF"></path>
                    <path d="M778.144328,844.650714 C776.631761,800.431599 729.365743,765.554025 672.57808,766.737038 C653.063908,767.142033 634.950743,771.756851 619.667653,779.43045 C619.658072,779.121374 619.667653,778.817628 619.658072,778.508552 C618.201627,736.101259 572.869779,702.64117 518.401613,703.781552 C482.021974,704.532925 450.79533,720.540905 434.484926,743.721569 C424.779172,739.88477 413.748381,737.817161 402.097506,738.06229 C367.647245,738.78169 339.914563,759.431132 336.56912,785.452094 C325.126309,782.180156 312.721203,780.490899 299.791833,780.757343 C245.695992,781.887067 202.904709,816.567472 203.369048,858.532468 L777.062945,858.532468 C777.911625,854.01357 778.308589,849.377437 778.144328,844.650714" id="Fill-16" fill="#FFFFFF"></path>
                    <path d="M1381.38684,37.3251006 C1375.25297,38.2599981 1369.5221,39.891255 1364.28303,42.088371 C1364.14642,41.3957553 1364.00298,40.6993958 1363.83222,40.0067801 C1357.15189,13.1899849 1323.96886,-4.30778678 1289.71343,0.925071704 C1269.8159,3.96562776 1253.95526,14.0173798 1245.45117,27.1572886 C1233.96894,21.5586007 1219.86376,19.2106603 1205.54,21.3992189 C1183.62062,24.7499812 1167.27501,37.7861313 1162.30234,53.7280582 C1155.94305,52.8364826 1149.29005,52.8204375 1142.57558,53.8473271 C1117.22041,57.7233007 1099.54966,74.9900222 1099.2013,94.4415584 L1452.36356,94.4415584 C1454.14634,88.2096219 1454.37175,81.5995546 1452.70509,74.9301203 C1446.27067,49.1236348 1414.34447,32.2869233 1381.38684,37.3251006" id="Fill-18" fill="#FFFFFF"></path>
                    <path d="M112.347442,423.371072 C112.570695,423.078174 112.788265,422.776252 112.993658,422.470637 C113.440571,423.017051 113.915085,423.538853 114.404213,424.039732 C113.7308,423.786216 113.041962,423.566337 112.347442,423.371072 Z M160.020939,403.650928 C158.386725,403.974593 156.837348,404.484087 155.384984,405.149466 C155.312325,404.224828 155.19461,403.296908 155.013572,402.368988 C152.476603,389.229199 139.882279,380.65558 126.880416,383.219461 C119.722511,384.632673 113.941876,389.125413 110.60769,395.068285 C105.733463,390.056205 98.5483618,387.534986 91.2122603,388.981836 C82.3056737,390.740043 75.7761252,397.839328 74.2389251,406.34608 C71.4632785,405.860789 68.5581449,405.86366 65.6314979,406.440431 C56.081536,408.323756 48.9962899,415.746705 47,424.766234 L184.9977,424.766234 C185.018808,423.322256 184.895004,421.857357 184.610863,420.385894 C182.39132,408.900527 171.382906,401.410712 160.020939,403.650928 L160.020939,403.650928 Z" id="Fill-19" fill="#FFFFFF"></path>
                    <path d="M258.144372,311.70564 C258.3169,311.482231 258.489428,311.252816 258.650155,311.020598 C258.99806,311.434586 259.370378,311.83376 259.752056,312.214917 C259.228368,312.021536 258.685963,311.85458 258.144372,311.70564 Z M295.452732,296.679962 C294.175048,296.926993 292.961249,297.314156 291.825576,297.821031 C291.768202,297.117972 291.674207,296.411711 291.535045,295.703047 C289.548939,285.690465 279.691651,279.157545 269.515755,281.111776 C263.9147,282.187183 259.391537,285.60999 256.782052,290.138233 C252.967312,286.321857 247.345097,284.400857 241.602031,285.50269 C234.632552,286.840343 229.522225,292.250212 228.320226,298.732285 C226.146129,298.363139 223.875596,298.365942 221.583904,298.803952 C214.108641,300.239697 208.565366,305.896998 207,312.766234 L314.998442,312.766234 C315.013498,311.670007 314.91991,310.55256 314.695705,309.43271 C312.961066,300.68051 304.344433,294.972762 295.452732,296.679962 L295.452732,296.679962 Z" id="Fill-20" fill="#FFFFFF"></path>
                    <g id="Group-5" stroke-width="1" fill="none" transform="translate(695.000000, 258.766234)">
                        <path d="M89.6686841,290.007517 C72.4083758,290.441215 57.6554971,309.913373 58.0061247,323.762208 C58.3567523,337.602192 92.1996853,390 92.1996853,390 C101.752078,366.010891 123.337776,335.719884 122.995988,322.112976 C122.651253,308.503117 106.931939,289.567918 89.6686841,290.007517" id="Fill-21" fill="#F05A2A"></path>
                        <path d="M88.8232697,291.006189 C74.7485767,291.361435 62.7198291,307.332717 63.004968,318.676917 C63.290107,330.035918 90.8809734,373 90.8809734,373 C98.6708515,353.328235 116.275976,328.490596 115.996716,317.332901 C115.711577,306.169286 102.895023,290.645022 88.8232697,291.006189" id="Fill-22" fill="#F8EC3A"></path>
                        <path d="M89.9752886,291.004654 C79.0849529,291.279163 69.7853735,303.54646 70.0037705,312.268756 C70.2221675,320.991053 91.5719475,354 91.5719475,354 C97.5955722,338.887257 111.212919,319.807418 110.997473,311.229755 C110.782027,302.657996 100.865624,290.730145 89.9752886,291.004654" id="Fill-23" fill="#FFFFFF"></path>
                        <path d="M76.7192757,296.306495 C65.4087785,294.057999 52.950368,304.617316 51.1545344,313.709319 C49.3616593,322.804291 63.7608719,362 63.7608719,362 C73.4885504,347.736754 91.9794233,331.118083 93.7427129,322.174594 C95.5060026,313.237045 88.0297728,298.554991 76.7192757,296.306495" id="Fill-24" fill="#F05A2A"></path>
                        <path d="M75.9308738,297.251853 C66.7249161,295.408312 56.5848072,304.043221 55.1261167,311.485775 C53.6644794,318.931303 65.3899933,351 65.3899933,351 C73.3052309,339.326221 88.3577379,325.728618 89.7899067,318.413922 C91.2279692,311.099226 85.1397783,299.092421 75.9308738,297.251853" id="Fill-25" fill="#F8EC3A"></path>
                        <path d="M76.1457946,297.19208 C69.0461756,295.788548 61.2268612,302.349109 60.0971753,307.998399 C58.9704389,313.64769 68.0138256,338 68.0138256,338 C74.1223884,329.139287 85.7319024,318.813509 86.8379918,313.257983 C87.9470307,307.702456 83.2513127,298.580962 76.1457946,297.19208" id="Fill-26" fill="#FFFFFF"></path>
                        <path d="M80.9511878,294.874557 C74.2019792,297.811348 71.4797093,307.875665 73.8304904,313.287581 C76.1782997,318.705455 97.9089087,334 97.9089087,334 C97.8524424,322.988523 101.549499,307.553988 99.2403245,302.231427 C96.9311501,296.905887 87.7003964,291.937766 80.9511878,294.874557" id="Fill-27" fill="#F05A2A"></path>
                        <path d="M81.4760558,293.720602 C75.9786529,296.14073 73.7619103,304.444325 75.6763698,308.914797 C77.5878657,313.38527 95.295134,326 95.295134,326 C95.2566078,316.911743 98.2586936,304.182771 96.3827604,299.787457 C94.5009001,295.39515 86.9764224,291.300474 81.4760558,293.720602" id="Fill-28" fill="#F8EC3A"></path>
                        <path d="M82.0055373,294.547172 C77.7561898,296.376996 76.0445645,302.670524 77.5214356,306.058211 C79.0012783,309.437029 92.6823944,319 92.6823944,319 C92.6497071,312.115252 94.9764478,302.46951 93.5203777,299.140946 C92.0672791,295.812381 86.2548848,292.711436 82.0055373,294.547172" id="Fill-29" fill="#FFFFFF"></path>
                        <path d="M46.1886879,209 C46.1886879,209 24.7106907,221.194594 14.0993567,242.773912 C0.630598481,270.152422 -2.92734392,312.093844 2.3110686,314.759087 C7.55007628,317.430233 13.8847969,297.25939 24.4506003,285.432559 C41.9248707,265.872685 57,267.041496 57,267.041496 L46.1886879,209" id="Fill-30" fill="#C6421E"></path>
                        <path d="M126.811634,209 C126.811634,209 148.286104,221.194594 158.901324,242.773912 C172.370483,270.152422 175.926746,312.093844 170.68907,314.759087 C165.448419,317.430233 159.115593,297.25939 148.547987,285.432559 C131.073197,265.872685 116,267.041496 116,267.041496 L126.811634,209" id="Fill-31" fill="#AA290B"></path>
                        <path d="M116.633532,301 C119.011373,293.610368 135,241.534985 135,176.842084 C135,123.352174 104.167524,92.9980641 85.5008829,78 C66.8312991,92.9980641 36,123.352174 36,176.842084 C36,241.534985 51.9874497,293.610368 54.3682336,301 L116.633532,301" id="Fill-32" fill="#2B2B38"></path>
                        <path d="M23,146.954733 C23,228.948435 43.3498363,277.632749 46.3780823,287 L125.619551,287 C128.651939,277.632749 149,228.948435 149,146.954733 C149,110.817457 137.849688,76.7865578 123.838578,50 L48.1590554,50 C34.1491282,76.7865578 23,110.817457 23,146.954733" id="Fill-33" fill="#FFFFFF"></path>
                        <path d="M86.5014659,0 C75.504046,8.83339501 61.1643016,26.6488084 49,50 L124,50 C111.835698,26.6488084 97.495954,8.83339501 86.5014659,0" id="Fill-34" fill="#C6421E"></path>
                        <path d="M123.83846,50 L86,50 L86,287 L125.619441,287 C128.651843,277.632749 149,228.948435 149,146.954733 C149,110.817457 137.849636,76.7865578 123.83846,50" id="Fill-35" fill="#F0F1F1"></path>
                        <path d="M87,86 C72.0902551,86 60,98.0901936 60,113.001177 C60,127.909806 72.0902551,140 87,140 C101.912688,140 114,127.909806 114,113.001177 C114,98.0901936 101.912688,86 87,86" id="Fill-36" fill="#A5DCF0"></path>
                        <path d="M107.684353,124.289654 C100.898779,136.264589 85.6893298,140.477317 73.709425,133.686599 C61.7324616,126.900292 57.5234649,111.682354 64.3149208,99.7097726 C71.1034355,87.7304259 86.3128849,83.5262279 98.2898483,90.314593 C110.269753,97.1008992 114.475809,112.314719 107.684353,124.289654 M113.834606,127.775897 C122.546729,112.404427 117.149448,92.879642 101.778227,84.1653578 C86.4040651,75.4534265 66.8797322,80.8500003 58.1646677,96.2235295 C49.4525445,111.599118 54.8527667,131.117432 70.2239875,139.836128 C85.5981496,148.546 105.122482,143.149133 113.834606,127.775897" id="Fill-37" fill="#2B2B38"></path>
                        <path d="M85.9746165,138 C81.7983662,138 77.569028,136.952705 73.6759133,134.745747 C61.6662443,127.940837 57.445754,112.681181 64.2557554,100.675778 C68.8567092,92.5572517 77.3124363,88 86.0218058,88 C90.1980561,88 94.4303437,89.0484746 98.3234584,91.2548427 C110.336077,98.0597527 114.553618,113.31528 107.743616,125.323042 C103.142663,133.439209 94.683986,138 85.9746165,138 M86.0395018,91.3038011 C81.5181799,91.3038011 76.9555675,92.6778779 73.0152635,95.5295519 C64.9488478,101.368863 61.9552785,111.614716 64.9429491,120.583229 C64.9429491,120.583229 72.643648,110.888304 79.6335585,105.830262 C86.4111173,100.923519 99.3380277,95.6964821 99.3380277,95.6964821 C95.453761,92.8079419 90.770226,91.3038011 86.0395018,91.3038011" id="Fill-38" fill="#B9DFED"></path>
                        <path d="M85.9779405,140 C81.4655813,140 76.8920078,138.867549 72.6886344,136.484883 C59.7199741,129.132548 55.1638904,112.660556 62.5125065,99.6885233 C67.4825145,90.9224466 76.6209165,86 86.0245799,86 C90.5369391,86 95.1075976,87.1318683 99.310971,89.5148257 C112.279631,96.8692005 116.83863,113.339152 109.484184,126.313226 C104.517091,135.080177 95.3816039,140 85.9779405,140 M86.0216649,88.2928859 C77.4137858,88.2928859 69.0565933,92.7970397 64.5092546,100.820975 C57.7786102,112.686499 61.949919,127.76836 73.8196392,134.493984 C77.6673874,136.675228 81.8474411,137.71032 85.9750255,137.71032 C94.5829046,137.71032 102.943012,133.202669 107.490351,125.181066 C114.220995,113.31321 110.052601,98.2354294 98.1799662,91.5098055 C94.332218,89.3291445 90.1492493,88.2928859 86.0216649,88.2928859" id="Fill-39" fill="#63636D"></path>
                        <path d="M65.1488755,121 C62.1215912,111.81077 65.1548524,101.312764 73.328221,95.3297474 C77.3207697,92.4078931 81.943878,91 86.5251483,91 C91.3185974,91 96.0642316,92.541158 100,95.5007857 C100,95.5007857 86.9016911,100.856461 80.0342683,105.88396 C72.9516783,111.066481 65.1488755,121 65.1488755,121" id="Fill-40" fill="#DCEFF6"></path>
                        <path d="M86.0223695,218 L85.9835957,218 C80.5940348,218 77,226.235261 77,237.277182 C77,248.324985 78.1960232,314 85.9835957,314 L86.0223695,314 C93.8039768,314 95,248.324985 95,237.277182 C95,226.235261 91.4119304,218 86.0223695,218" id="Fill-41" fill="#C6421E"></path>
                        <path d="M86,50 L124,50 C111.674953,26.6488084 97.1457161,8.83339501 86.0059412,0 L86,0.00440582979 L86,50" id="Fill-42" fill="#AA290B"></path>
                        <path d="M86.0208817,218 L86,218 L86,314 L86.0208817,314 C93.8037786,314 95,248.324985 95,237.277182 C95,226.235261 91.4113358,218 86.0208817,218" id="Fill-43" fill="#AA290B"></path>
                    </g>
                </g>
            </g>
        </g>
    </g>
</svg>