<?xml version="1.0" encoding="UTF-8"?>
<svg width="101px" height="100px" viewBox="0 0 101 100" version="1.1" xmlns="http://www.w3.org/2000/svg" xmlns:xlink="http://www.w3.org/1999/xlink">
    <title>20943528</title>
    <defs>
        <path d="M17.612849,8.80726433 C17.612849,13.6712156 13.6699559,17.6143187 8.80747428,17.6143187 C3.94289313,17.6143187 4.77374922e-14,13.6712156 4.77374922e-14,8.80726433 C4.77374922e-14,3.94310309 3.94289313,0 8.80747428,0 C13.6699559,0 17.612849,3.94310309 17.612849,8.80726433" id="path-1"></path>
        <linearGradient x1="234.407178%" y1="-194.848445%" x2="-242.197033%" y2="437.972752%" id="linearGradient-3">
            <stop stop-color="#E0463C" offset="0%"></stop>
            <stop stop-color="#E95F5A" offset="100%"></stop>
        </linearGradient>
        <polyline id="path-4" points="44.5895444 -4.77374922e-14 45.7673735 1.17761915 1.1778291 45.7663237 0 44.5889145 44.5895444 -4.77374922e-14"></polyline>
        <linearGradient x1="-45.7086105%" y1="107.896511%" x2="58.4892885%" y2="44.8647905%" id="linearGradient-6">
            <stop stop-color="#020039" offset="0%"></stop>
            <stop stop-color="#080055" offset="100%"></stop>
        </linearGradient>
        <path d="M9.39039311,0.0934942604 C10.0664376,-0.582130346 13.2514051,2.60262716 12.5753606,3.27825177 L0.7634773,12.563996 C0.326777741,12.9070571 -0.237992362,12.3416572 0.106328444,11.9053775 L9.39039311,0.0934942604" id="path-7"></path>
        <linearGradient x1="29.3121528%" y1="60.898538%" x2="295.735214%" y2="-160.099571%" id="linearGradient-9">
            <stop stop-color="#4042E1" offset="0%"></stop>
            <stop stop-color="#4F52FF" offset="100%"></stop>
        </linearGradient>
        <path d="M12.4984254,0 L18.4967457,0.59626286 L10.2603401,8.83098887 C7.56246063,11.5292883 3.79592694,12.8748688 0,12.4973756 L12.4984254,0" id="path-10"></path>
        <linearGradient x1="36.730647%" y1="57.2493916%" x2="285.549035%" y2="-82.8926548%" id="linearGradient-12">
            <stop stop-color="#4042E1" offset="0%"></stop>
            <stop stop-color="#4F52FF" offset="100%"></stop>
        </linearGradient>
        <path d="M12.5610654,5.99874029 L11.9648025,0 L3.72839692,8.23493596 C1.03051743,10.9330254 -0.315273034,14.6991392 0.0626400459,18.4959059 L12.5610654,5.99874029" id="path-13"></path>
        <linearGradient x1="42.7490304%" y1="63.2684798%" x2="182.916836%" y2="-185.561206%" id="linearGradient-15">
            <stop stop-color="#4042E1" offset="0%"></stop>
            <stop stop-color="#4F52FF" offset="100%"></stop>
        </linearGradient>
    </defs>
    <g id="website" stroke="none" stroke-width="1" fill="none" fill-rule="evenodd">
        <g id="20943528" transform="translate(0.040000, 0.654000)">
            <path d="M77.1719505,59.0755826 C77.1719505,79.6689062 60.4765904,96.3632165 39.8845266,96.3632165 C19.2903632,96.3632165 2.59500315,79.6689062 2.59500315,59.0755826 C2.59500315,38.4820491 19.2903632,21.7877388 39.8845266,21.7877388 C60.4765904,21.7877388 77.1719505,38.4820491 77.1719505,59.0755826" id="Fill-21" fill="#91B3FA"></path>
            <path d="M39.8845266,24.3848415 C20.7558262,24.3848415 5.19210582,39.9468822 5.19210582,59.0753727 C5.19210582,78.2040731 20.7558262,93.7661138 39.8845266,93.7661138 C59.0111274,93.7661138 74.5748478,78.2040731 74.5748478,59.0753727 C74.5748478,39.9468822 59.0111274,24.3848415 39.8845266,24.3848415 Z M39.8845266,98.9598992 C17.8920848,98.9598992 0,81.0680244 0,59.0753727 C0,37.0829309 17.8920848,19.1910561 39.8845266,19.1910561 C61.8769683,19.1910561 79.7690531,37.0829309 79.7690531,59.0753727 C79.7690531,81.0680244 61.8769683,98.9598992 39.8845266,98.9598992 L39.8845266,98.9598992 Z" id="Fill-22" fill="#FFFFFF"></path>
            <path d="M62.6159983,59.0755826 C62.6159983,71.630275 52.4375394,81.8078942 39.8845266,81.8078942 C27.3294142,81.8078942 17.1509553,71.630275 17.1509553,59.0755826 C17.1509553,46.5206802 27.3294142,36.3430611 39.8845266,36.3430611 C52.4375394,36.3430611 62.6159983,46.5206802 62.6159983,59.0755826" id="Fill-23" fill="#91B3FA"></path>
            <path d="M39.8845266,38.9401638 C28.7801806,38.9401638 19.7480579,47.9729162 19.7480579,59.0753727 C19.7480579,70.1780391 28.7801806,79.2107915 39.8845266,79.2107915 C50.986773,79.2107915 60.0188957,70.1780391 60.0188957,59.0753727 C60.0188957,47.9729162 50.986773,38.9401638 39.8845266,38.9401638 Z M39.8845266,84.4045769 C25.9164392,84.4045769 14.5538526,73.0419903 14.5538526,59.0753727 C14.5538526,45.1089649 25.9164392,33.7463783 39.8845266,33.7463783 C53.8505144,33.7463783 65.213101,45.1089649 65.213101,59.0753727 C65.213101,73.0419903 53.8505144,84.4045769 39.8845266,84.4045769 L39.8845266,84.4045769 Z" id="Fill-24" fill="#FFFFFF"></path>
            <g id="Group-27" transform="translate(31.077052, 50.268318)">
                <mask id="mask-2" fill="white">
                    <use xlink:href="#path-1"></use>
                </mask>
                <g id="Clip-26"></g>
                <path d="M17.612849,8.80726433 C17.612849,13.6712156 13.6699559,17.6143187 8.80747428,17.6143187 C3.94289313,17.6143187 4.77374922e-14,13.6712156 4.77374922e-14,8.80726433 C4.77374922e-14,3.94310309 3.94289313,0 8.80747428,0 C13.6699559,0 17.612849,3.94310309 17.612849,8.80726433" id="Fill-25" fill="url(#linearGradient-3)" mask="url(#mask-2)"></path>
            </g>
            <path d="M39.8845266,52.865211 C36.4602142,52.865211 33.6741549,55.6512702 33.6741549,59.0753727 C33.6741549,62.4996851 36.4602142,65.2857443 39.8845266,65.2857443 C43.308839,65.2857443 46.0927987,62.4996851 46.0927987,59.0753727 C46.0927987,55.6512702 43.308839,52.865211 39.8845266,52.865211 Z M39.8845266,70.4797397 C33.5964728,70.4797397 28.4799496,65.3636364 28.4799496,59.0753727 C28.4799496,52.7873189 33.5964728,47.6712156 39.8845266,47.6712156 C46.1725803,47.6712156 51.287004,52.7873189 51.287004,59.0753727 C51.287004,65.3636364 46.1725803,70.4797397 39.8845266,70.4797397 L39.8845266,70.4797397 Z" id="Fill-28" fill="#FFFFFF"></path>
            <g id="Group-31" transform="translate(48.259500, 5.973126)">
                <mask id="mask-5" fill="white">
                    <use xlink:href="#path-4"></use>
                </mask>
                <g id="Clip-30"></g>
                <polyline id="Fill-29" fill="url(#linearGradient-6)" mask="url(#mask-5)" points="44.5895444 -4.77374922e-14 45.7673735 1.17761915 1.1778291 45.7663237 0 44.5889145 44.5895444 -4.77374922e-14"></polyline>
            </g>
            <g id="Group-34" transform="translate(39.702615, 47.627270)">
                <mask id="mask-8" fill="white">
                    <use xlink:href="#path-7"></use>
                </mask>
                <g id="Clip-33"></g>
                <path d="M9.39039311,0.0934942604 C10.0664376,-0.582130346 13.2514051,2.60262716 12.5753606,3.27825177 L0.7634773,12.563996 C0.326777741,12.9070571 -0.237992362,12.3416572 0.106328444,11.9053775 L9.39039311,0.0934942604" id="Fill-32" fill="url(#linearGradient-9)" mask="url(#mask-8)"></path>
            </g>
            <g id="Group-37" transform="translate(81.503254, 7.176149)">
                <mask id="mask-11" fill="white">
                    <use xlink:href="#path-10"></use>
                </mask>
                <g id="Clip-36"></g>
                <path d="M12.4984254,0 L18.4967457,0.59626286 L10.2603401,8.83098887 C7.56246063,11.5292883 3.79592694,12.8748688 0,12.4973756 L12.4984254,0" id="Fill-35" fill="url(#linearGradient-12)" mask="url(#mask-11)"></path>
            </g>
            <g id="Group-40" transform="translate(80.262785, 0.000000)">
                <mask id="mask-14" fill="white">
                    <use xlink:href="#path-13"></use>
                </mask>
                <g id="Clip-39"></g>
                <path d="M12.5610654,5.99874029 L11.9648025,0 L3.72839692,8.23493596 C1.03051743,10.9330254 -0.315273034,14.6991392 0.0626400459,18.4959059 L12.5610654,5.99874029" id="Fill-38" fill="url(#linearGradient-15)" mask="url(#mask-14)"></path>
            </g>
        </g>
    </g>
</svg>