<?xml version="1.0" encoding="utf-8"?>
<!-- Generator: Adobe Illustrator 24.3.0, SVG Export Plug-In . SVG Version: 6.00 Build 0)  -->
<svg version="1.1" id="Warstwa_1" xmlns="http://www.w3.org/2000/svg" xmlns:xlink="http://www.w3.org/1999/xlink" x="0px" y="0px"
	 viewBox="0 0 450 450" style="enable-background:new 0 0 450 450;" xml:space="preserve">
<style type="text/css">
	.st0{fill:url(#SVGID_1_);}
	.st1{fill:#25647C;}
	.st2{fill:#999999;}
	.st3{fill:#FFFFFF;}
	.st4{fill:#FEFEFE;}
	.st5{fill:#FDFDFD;}
	.st6{fill:#FBFBFB;}
	.st7{fill:#FAFAFA;}
	.st8{fill:#F9F9F9;}
	.st9{fill:#F8F8F8;}
	.st10{fill:#F6F6F6;}
	.st11{fill:#F5F5F5;}
	.st12{fill:#F4F4F4;}
	.st13{fill:#F3F3F3;}
	.st14{fill:#F1F1F1;}
	.st15{fill:#F0F0F0;}
	.st16{fill:#EFEFEF;}
	.st17{fill:#EEEEEE;}
	.st18{fill:#ECECEC;}
	.st19{fill:#EBEBEB;}
	.st20{fill:#EAEAEA;}
	.st21{fill:#E9E9E9;}
	.st22{fill:#E7E7E7;}
	.st23{fill:#E6E6E6;}
	.st24{fill:#E5E5E5;}
	.st25{fill:#E4E4E4;}
	.st26{fill:#E2E2E2;}
	.st27{fill:#E1E1E1;}
	.st28{fill:#E0E0E0;}
	.st29{fill:#DFDFDF;}
	.st30{fill:#DDDDDD;}
	.st31{fill:#DCDCDC;}
	.st32{fill:#DBDBDB;}
	.st33{fill:#DADADA;}
	.st34{fill:#D8D8D8;}
	.st35{fill:#D7D7D7;}
	.st36{fill:#D6D6D6;}
	.st37{fill:#D5D5D5;}
	.st38{fill:#D3D3D3;}
	.st39{fill:#D2D2D2;}
	.st40{fill:#D1D1D1;}
	.st41{fill:#D0D0D0;}
	.st42{fill:#CECECE;}
	.st43{fill:#CDCDCD;}
	.st44{fill:#CCCCCC;}
	.st45{fill:#CBCBCB;}
	.st46{fill:#C9C9C9;}
	.st47{fill:#C8C8C8;}
	.st48{fill:#C7C7C7;}
	.st49{fill:#C6C6C6;}
	.st50{fill:#C4C4C4;}
	.st51{fill:#C3C3C3;}
	.st52{fill:#C2C2C2;}
	.st53{fill:#C1C1C1;}
	.st54{fill:#BFBFBF;}
	.st55{fill:#BEBEBE;}
	.st56{fill:#BDBDBD;}
	.st57{fill:#BCBCBC;}
	.st58{fill:#BABABA;}
	.st59{fill:#B9B9B9;}
	.st60{fill:#B8B8B8;}
	.st61{fill:#B7B7B7;}
	.st62{fill:#B5B5B5;}
	.st63{fill:#B4B4B4;}
	.st64{fill:#B3B3B3;}
	.st65{fill:url(#SVGID_2_);}
	.st66{fill:url(#SVGID_3_);}
	.st67{fill:#FF6629;}
	.st68{fill:url(#SVGID_4_);}
	.st69{fill:url(#SVGID_5_);}
	.st70{fill:#F7B03E;}
	.st71{fill:url(#SVGID_6_);}
	.st72{fill:url(#SVGID_7_);}
	.st73{fill:#0676AE;}
	.st74{fill:#808080;}
</style>
<radialGradient id="SVGID_1_" cx="175.2664" cy="196.7994" r="376.553" gradientUnits="userSpaceOnUse">
	<stop  offset="0.2397" style="stop-color:#FFFFFF"/>
	<stop  offset="1" style="stop-color:#DDE2E6"/>
</radialGradient>
<rect class="st0" width="450" height="450"/>
<g>
	<g>
		<g>
			<path class="st1" d="M65.59,224.6h-6.94v-33.65h6.94V224.6z"/>
			<path class="st1" d="M78.68,201.34v23.27h-6.94v-33.65h7.12l13.36,22.89v-22.89h6.94v33.65h-6.94L78.68,201.34z"/>
			<path class="st1" d="M112.37,224.6h-6.94v-33.65h23.68v5.77h-16.74v7.62h14.75v5.77h-14.75V224.6z"/>
			<path class="st1" d="M159.13,195.06c3.01,3.18,4.72,7.94,4.72,13.2c0,4.75-1.8,9.65-4.72,12.74c-2.91,3.14-6.71,4.66-11.51,4.66
				c-4.81,0-8.6-1.52-11.51-4.66c-3.01-3.18-4.72-7.94-4.72-12.97c0-5.03,1.71-9.74,4.72-12.97c2.87-3.09,6.75-4.66,11.47-4.66
				C152.47,190.4,156.17,191.88,159.13,195.06z M138.32,208.03c0,7.11,3.65,11.72,9.29,11.72c5.55,0,9.29-4.62,9.29-11.54
				c0-7.29-3.61-11.91-9.29-11.91C141.97,196.31,138.32,200.92,138.32,208.03z"/>
		</g>
		<g>
			<g>
				<path class="st2" d="M74.16,244.64h-2.09l-0.42-2.11c-1.3,1.8-2.83,2.57-5.1,2.57c-4.57,0-7.9-3.53-7.9-8.38
					c0-4.98,3.31-8.38,8.18-8.38c4.08,0,6.91,2.06,7.33,5.38h-3.27c-0.3-0.83-0.56-1.21-1.04-1.6c-0.76-0.64-1.78-0.96-2.99-0.96
					c-2.97,0-4.73,2.08-4.73,5.53c0,3.29,1.99,5.62,4.82,5.62c1.32,0,2.62-0.57,3.45-1.54c0.51-0.57,0.74-1.12,0.83-2.02h-3.85
					v-2.74h6.77V244.64z"/>
				<path class="st2" d="M81.05,244.59h-3.48v-16h9.06c1.44,0,2.5,0.35,3.27,1.1c0.81,0.79,1.27,1.95,1.27,3.23
					c0,1.95-0.95,3.25-2.85,3.95c2.16,0.88,2.25,1.1,2.34,5.82c0,0.7,0.21,1.03,0.74,1.32v0.59h-3.73
					c-0.42-0.77-0.51-1.23-0.51-2.74c0-0.24,0-0.64,0.02-1.05v-0.66c0-1.32-0.65-1.89-2.16-1.89h-3.99V244.59z M85.25,235.51
					c1,0,1.44-0.11,1.83-0.42c0.42-0.33,0.63-0.94,0.63-1.71c0-0.75-0.21-1.29-0.63-1.62c-0.44-0.33-0.84-0.42-1.83-0.42h-4.2v4.17
					H85.25z"/>
				<path class="st2" d="M97.8,241.37l-1.14,3.23h-3.55l6-16h3.85l5.84,16h-3.57l-1.11-3.23H97.8z M100.98,232.37l-2.2,6.25h4.4
					L100.98,232.37z"/>
				<path class="st2" d="M114.5,244.59h-3.48v-16h7.46c3.52,0,5.45,1.75,5.45,4.96c0,3.25-1.99,5.33-5.1,5.33h-4.33V244.59z
					 M117.74,236.15c1.85,0,2.71-0.77,2.71-2.41c0-1.62-0.86-2.39-2.71-2.39h-3.25v4.81H117.74z"/>
				<path class="st2" d="M129.55,237.33v7.26h-3.48v-16h3.48v5.99h6.68v-5.99h3.5v16h-3.48v-7.26H129.55z"/>
				<path class="st2" d="M146.46,244.59h-3.48v-16h3.48V244.59z"/>
				<path class="st2" d="M160.46,234.02c-0.46-1.95-1.6-2.87-3.62-2.87c-2.73,0-4.38,2.11-4.38,5.64c0,3.49,1.58,5.55,4.27,5.55
					c2.16,0,3.5-1.16,3.73-3.2h3.38c-0.21,3.66-2.99,5.97-7.21,5.97c-4.71,0-7.65-3.2-7.65-8.36c0-5.18,2.97-8.4,7.74-8.4
					c2.53,0,4.61,0.9,5.91,2.52c0.72,0.9,1.02,1.78,1.14,3.16H160.46z"/>
			</g>
			<g>
				<g>
					<rect x="58.65" y="248.46" class="st2" width="105.2" height="1.05"/>
				</g>
				<g>
					<path class="st2" d="M61.59,261.65l-2.94-8.16h1.12l2.4,6.91l2.26-6.91h1.11l-2.84,8.16H61.59z"/>
					<path class="st2" d="M67.64,260.73h4.82v0.92h-5.86v-8.16h5.66v0.92h-4.62v2.61h4.45v0.92h-4.45V260.73z"/>
					<path class="st2" d="M79.08,256.02c-0.12-0.62-0.29-0.95-0.59-1.23c-0.34-0.33-0.95-0.51-1.61-0.51
						c-1.59,0-2.57,1.29-2.57,3.38c0,2.04,1.03,3.33,2.66,3.33c0.87,0,1.57-0.38,1.91-1.05c0.17-0.32,0.28-0.71,0.37-1.27h1.08
						c-0.25,2.16-1.37,3.23-3.36,3.23c-1.07,0-1.87-0.3-2.51-0.95c-0.76-0.79-1.18-1.95-1.18-3.29c0-1.32,0.4-2.49,1.14-3.29
						c0.61-0.67,1.49-1.02,2.59-1.02c1.79,0,2.83,0.87,3.15,2.66H79.08z"/>
					<path class="st2" d="M84.44,261.65H83.4v-7.24h-2.69v-0.92h6.41v0.92h-2.68V261.65z"/>
					<path class="st2" d="M95.16,257.7c0,1.33-0.53,2.6-1.41,3.35c-0.66,0.56-1.54,0.86-2.53,0.86c-2.37,0-3.95-1.71-3.95-4.28
						c0-2.55,1.59-4.28,3.94-4.28C93.61,253.36,95.16,255.07,95.16,257.7z M88.31,257.63c0,2.02,1.15,3.36,2.9,3.36
						c1.73,0,2.9-1.34,2.9-3.31c0-2.07-1.14-3.4-2.92-3.4C89.47,254.27,88.31,255.62,88.31,257.63z"/>
					<path class="st2" d="M97.66,261.65h-1.04v-8.16h3.77c1.61,0,2.49,0.77,2.49,2.18c0,0.94-0.37,1.49-1.29,1.95
						c0.89,0.38,1.1,0.78,1.11,2.13c0.02,1.09,0.1,1.38,0.49,1.65v0.26h-1.27c-0.15-0.34-0.24-0.83-0.24-1.33l0.01-0.73
						c0-1.01-0.42-1.45-1.35-1.45h-2.69V261.65z M100.18,257.22c1.11,0,1.6-0.44,1.6-1.41c0-0.48-0.15-0.85-0.43-1.09
						c-0.26-0.22-0.59-0.31-1.18-0.31h-2.52v2.81H100.18z"/>
					<path class="st2" d="M110.76,261.65h-1.04v-7.24h-2.69v-0.92h6.41v0.92h-2.68V261.65z"/>
					<path class="st2" d="M115.51,260.73h4.82v0.92h-5.86v-8.16h5.66v0.92h-4.62v2.61h4.45v0.92h-4.45V260.73z"/>
					<path class="st2" d="M125.09,261.65l-2.32-6.84v6.84h-0.99v-8.16h1.45l2.42,7.11l2.38-7.11h1.45v8.16h-0.99v-6.84l-2.3,6.84
						H125.09z"/>
					<path class="st2" d="M132.35,261.65h-1.04v-8.16h3.38c1.61,0,2.52,0.86,2.52,2.4c0,0.75-0.21,1.28-0.71,1.72
						c-0.44,0.39-0.94,0.58-1.58,0.58h-2.57V261.65z M134.52,257.27c1,0,1.59-0.54,1.59-1.43c0-0.9-0.59-1.43-1.59-1.43h-2.18v2.87
						H134.52z"/>
					<path class="st2" d="M139.39,260.73h4.04v0.92h-5.08v-8.16h1.04V260.73z"/>
					<path class="st2" d="M146.03,259.2l-0.86,2.45h-1.11l2.92-8.16h1.35l2.87,8.16h-1.17l-0.84-2.45H146.03z M147.64,254.61
						l-1.35,3.72h2.6L147.64,254.61z"/>
					<path class="st2" d="M154.28,261.65h-1.04v-7.24h-2.69v-0.92h6.41v0.92h-2.68V261.65z"/>
					<path class="st2" d="M159.03,260.73h4.82v0.92h-5.86v-8.16h5.66v0.92h-4.62v2.61h4.45v0.92h-4.45V260.73z"/>
				</g>
			</g>
		</g>
	</g>
	<g>
		<g>
			<g>
				<ellipse class="st3" cx="383.57" cy="123.4" rx="41.12" ry="41.05"/>
				<ellipse class="st4" cx="383.3" cy="123.13" rx="41.12" ry="41.05"/>
				<ellipse class="st5" cx="383.03" cy="122.87" rx="41.12" ry="41.05"/>
				<ellipse class="st6" cx="382.76" cy="122.6" rx="41.12" ry="41.05"/>
				<ellipse class="st7" cx="382.49" cy="122.33" rx="41.12" ry="41.05"/>
				<ellipse class="st8" cx="382.22" cy="122.06" rx="41.12" ry="41.05"/>
				<ellipse class="st9" cx="381.95" cy="121.79" rx="41.12" ry="41.05"/>
				<ellipse class="st10" cx="381.68" cy="121.52" rx="41.12" ry="41.05"/>
				<ellipse class="st11" cx="381.41" cy="121.25" rx="41.12" ry="41.05"/>
				<ellipse class="st12" cx="381.14" cy="120.98" rx="41.12" ry="41.05"/>
				<ellipse class="st13" cx="380.87" cy="120.71" rx="41.12" ry="41.05"/>
				<ellipse class="st14" cx="380.6" cy="120.44" rx="41.12" ry="41.05"/>
				<ellipse class="st15" cx="380.33" cy="120.17" rx="41.12" ry="41.05"/>
				<ellipse class="st16" cx="380.06" cy="119.9" rx="41.12" ry="41.05"/>
				<ellipse class="st17" cx="379.79" cy="119.64" rx="41.12" ry="41.05"/>
				<ellipse class="st18" cx="379.52" cy="119.37" rx="41.12" ry="41.05"/>
				<ellipse class="st19" cx="379.25" cy="119.1" rx="41.12" ry="41.05"/>
				<ellipse class="st20" cx="378.98" cy="118.83" rx="41.12" ry="41.05"/>
				<ellipse class="st21" cx="378.71" cy="118.56" rx="41.12" ry="41.05"/>
				<ellipse class="st22" cx="378.45" cy="118.29" rx="41.12" ry="41.05"/>
				<ellipse class="st23" cx="378.18" cy="118.02" rx="41.12" ry="41.05"/>
				<ellipse class="st24" cx="377.91" cy="117.75" rx="41.12" ry="41.05"/>
				<ellipse class="st25" cx="377.64" cy="117.48" rx="41.12" ry="41.05"/>
				<ellipse class="st26" cx="377.37" cy="117.21" rx="41.12" ry="41.05"/>
				<ellipse class="st27" cx="377.1" cy="116.94" rx="41.12" ry="41.05"/>
				<ellipse class="st28" cx="376.83" cy="116.67" rx="41.12" ry="41.05"/>
				<ellipse class="st29" cx="376.56" cy="116.41" rx="41.12" ry="41.05"/>
				<ellipse class="st30" cx="376.29" cy="116.14" rx="41.12" ry="41.05"/>
				<ellipse class="st31" cx="376.02" cy="115.87" rx="41.12" ry="41.05"/>
				<ellipse class="st32" cx="375.75" cy="115.6" rx="41.12" ry="41.05"/>
				<ellipse class="st33" cx="375.48" cy="115.33" rx="41.12" ry="41.05"/>
				<ellipse class="st34" cx="375.21" cy="115.06" rx="41.12" ry="41.05"/>
				<ellipse class="st35" cx="374.94" cy="114.79" rx="41.12" ry="41.05"/>
				<ellipse class="st36" cx="374.67" cy="114.52" rx="41.12" ry="41.05"/>
				<ellipse class="st37" cx="374.4" cy="114.25" rx="41.12" ry="41.05"/>
				<ellipse class="st38" cx="374.13" cy="113.98" rx="41.12" ry="41.05"/>
				<ellipse class="st39" cx="373.86" cy="113.71" rx="41.12" ry="41.05"/>
				<ellipse class="st40" cx="373.59" cy="113.44" rx="41.12" ry="41.05"/>
				<ellipse class="st41" cx="373.32" cy="113.18" rx="41.12" ry="41.05"/>
				<ellipse class="st42" cx="373.05" cy="112.91" rx="41.12" ry="41.05"/>
				<ellipse class="st43" cx="372.78" cy="112.64" rx="41.12" ry="41.05"/>
				<ellipse class="st44" cx="372.51" cy="112.37" rx="41.12" ry="41.05"/>
				<ellipse class="st45" cx="372.24" cy="112.1" rx="41.12" ry="41.05"/>
				<ellipse class="st46" cx="371.97" cy="111.83" rx="41.12" ry="41.05"/>
				<ellipse class="st47" cx="371.7" cy="111.56" rx="41.12" ry="41.05"/>
				<ellipse class="st48" cx="371.43" cy="111.29" rx="41.12" ry="41.05"/>
				<ellipse class="st49" cx="371.16" cy="111.02" rx="41.12" ry="41.05"/>
				<ellipse class="st50" cx="370.9" cy="110.75" rx="41.12" ry="41.05"/>
				<ellipse class="st51" cx="370.63" cy="110.48" rx="41.12" ry="41.05"/>
				<ellipse class="st52" cx="370.36" cy="110.21" rx="41.12" ry="41.05"/>
				<ellipse class="st53" cx="370.09" cy="109.95" rx="41.12" ry="41.05"/>
				<ellipse class="st54" cx="369.82" cy="109.68" rx="41.12" ry="41.05"/>
				<ellipse class="st55" cx="369.55" cy="109.41" rx="41.12" ry="41.05"/>
				<ellipse class="st56" cx="369.28" cy="109.14" rx="41.12" ry="41.05"/>
				<ellipse class="st57" cx="369.01" cy="108.87" rx="41.12" ry="41.05"/>
				<ellipse class="st58" cx="368.74" cy="108.6" rx="41.12" ry="41.05"/>
				<ellipse class="st59" cx="368.47" cy="108.33" rx="41.12" ry="41.05"/>
				<ellipse class="st60" cx="368.2" cy="108.06" rx="41.12" ry="41.05"/>
				<ellipse class="st61" cx="367.93" cy="107.79" rx="41.12" ry="41.05"/>
				<ellipse class="st62" cx="367.66" cy="107.52" rx="41.12" ry="41.05"/>
				<ellipse class="st63" cx="367.39" cy="107.25" rx="41.12" ry="41.05"/>
				<ellipse class="st64" cx="367.12" cy="106.99" rx="41.12" ry="41.05"/>
			</g>
			<g>
				<linearGradient id="SVGID_2_" gradientUnits="userSpaceOnUse" x1="338.0838" y1="77.9486" x2="396.1566" y2="136.0214">
					<stop  offset="0.0717" style="stop-color:#B3B3B3"/>
					<stop  offset="0.9294" style="stop-color:#4D4D4D"/>
				</linearGradient>
				<ellipse class="st65" cx="367.12" cy="106.99" rx="41.12" ry="41.05"/>
				
					<radialGradient id="SVGID_3_" cx="-606.2351" cy="-989.977" r="110.3817" gradientTransform="matrix(0.5844 0 0 0.5834 733.4577 693.93)" gradientUnits="userSpaceOnUse">
					<stop  offset="0" style="stop-color:#808080"/>
					<stop  offset="0.3899" style="stop-color:#7C7C7C"/>
					<stop  offset="0.7931" style="stop-color:#6F6F6F"/>
					<stop  offset="1" style="stop-color:#666666"/>
				</radialGradient>
				<ellipse class="st66" cx="367.12" cy="106.99" rx="39.89" ry="39.81"/>
				<g>
					<ellipse class="st67" cx="367.12" cy="106.99" rx="41.12" ry="41.05"/>
				</g>
			</g>
		</g>
		<g>
			<g>
				<ellipse class="st3" cx="383.57" cy="240.08" rx="41.12" ry="41.05"/>
				<ellipse class="st4" cx="383.3" cy="239.81" rx="41.12" ry="41.05"/>
				<ellipse class="st5" cx="383.03" cy="239.54" rx="41.12" ry="41.05"/>
				<ellipse class="st6" cx="382.76" cy="239.27" rx="41.12" ry="41.05"/>
				<ellipse class="st7" cx="382.49" cy="239" rx="41.12" ry="41.05"/>
				<ellipse class="st8" cx="382.22" cy="238.73" rx="41.12" ry="41.05"/>
				<ellipse class="st9" cx="381.95" cy="238.46" rx="41.12" ry="41.05"/>
				<ellipse class="st10" cx="381.68" cy="238.19" rx="41.12" ry="41.05"/>
				<ellipse class="st11" cx="381.41" cy="237.92" rx="41.12" ry="41.05"/>
				<ellipse class="st12" cx="381.14" cy="237.65" rx="41.12" ry="41.05"/>
				<ellipse class="st13" cx="380.87" cy="237.38" rx="41.12" ry="41.05"/>
				<ellipse class="st14" cx="380.6" cy="237.12" rx="41.12" ry="41.05"/>
				<ellipse class="st15" cx="380.33" cy="236.85" rx="41.12" ry="41.05"/>
				<ellipse class="st16" cx="380.06" cy="236.58" rx="41.12" ry="41.05"/>
				<ellipse class="st17" cx="379.79" cy="236.31" rx="41.12" ry="41.05"/>
				<ellipse class="st18" cx="379.52" cy="236.04" rx="41.12" ry="41.05"/>
				<ellipse class="st19" cx="379.25" cy="235.77" rx="41.12" ry="41.05"/>
				<ellipse class="st20" cx="378.98" cy="235.5" rx="41.12" ry="41.05"/>
				<ellipse class="st21" cx="378.71" cy="235.23" rx="41.12" ry="41.05"/>
				<ellipse class="st22" cx="378.45" cy="234.96" rx="41.12" ry="41.05"/>
				<ellipse class="st23" cx="378.18" cy="234.69" rx="41.12" ry="41.05"/>
				<ellipse class="st24" cx="377.91" cy="234.42" rx="41.12" ry="41.05"/>
				<ellipse class="st25" cx="377.64" cy="234.15" rx="41.12" ry="41.05"/>
				<ellipse class="st26" cx="377.37" cy="233.89" rx="41.12" ry="41.05"/>
				<ellipse class="st27" cx="377.1" cy="233.62" rx="41.12" ry="41.05"/>
				<ellipse class="st28" cx="376.83" cy="233.35" rx="41.12" ry="41.05"/>
				<ellipse class="st29" cx="376.56" cy="233.08" rx="41.12" ry="41.05"/>
				<ellipse class="st30" cx="376.29" cy="232.81" rx="41.12" ry="41.05"/>
				<ellipse class="st31" cx="376.02" cy="232.54" rx="41.12" ry="41.05"/>
				<ellipse class="st32" cx="375.75" cy="232.27" rx="41.12" ry="41.05"/>
				<ellipse class="st33" cx="375.48" cy="232" rx="41.12" ry="41.05"/>
				<ellipse class="st34" cx="375.21" cy="231.73" rx="41.12" ry="41.05"/>
				<ellipse class="st35" cx="374.94" cy="231.46" rx="41.12" ry="41.05"/>
				<ellipse class="st36" cx="374.67" cy="231.19" rx="41.12" ry="41.05"/>
				<ellipse class="st37" cx="374.4" cy="230.92" rx="41.12" ry="41.05"/>
				<ellipse class="st38" cx="374.13" cy="230.66" rx="41.12" ry="41.05"/>
				<ellipse class="st39" cx="373.86" cy="230.39" rx="41.12" ry="41.05"/>
				<ellipse class="st40" cx="373.59" cy="230.12" rx="41.12" ry="41.05"/>
				<ellipse class="st41" cx="373.32" cy="229.85" rx="41.12" ry="41.05"/>
				<ellipse class="st42" cx="373.05" cy="229.58" rx="41.12" ry="41.05"/>
				<ellipse class="st43" cx="372.78" cy="229.31" rx="41.12" ry="41.05"/>
				<ellipse class="st44" cx="372.51" cy="229.04" rx="41.12" ry="41.05"/>
				<ellipse class="st45" cx="372.24" cy="228.77" rx="41.12" ry="41.05"/>
				<ellipse class="st46" cx="371.97" cy="228.5" rx="41.12" ry="41.05"/>
				<ellipse class="st47" cx="371.7" cy="228.23" rx="41.12" ry="41.05"/>
				<ellipse class="st48" cx="371.43" cy="227.96" rx="41.12" ry="41.05"/>
				<ellipse class="st49" cx="371.16" cy="227.69" rx="41.12" ry="41.05"/>
				<ellipse class="st50" cx="370.9" cy="227.43" rx="41.12" ry="41.05"/>
				<ellipse class="st51" cx="370.63" cy="227.16" rx="41.12" ry="41.05"/>
				<ellipse class="st52" cx="370.36" cy="226.89" rx="41.12" ry="41.05"/>
				<ellipse class="st53" cx="370.09" cy="226.62" rx="41.12" ry="41.05"/>
				<ellipse class="st54" cx="369.82" cy="226.35" rx="41.12" ry="41.05"/>
				<ellipse class="st55" cx="369.55" cy="226.08" rx="41.12" ry="41.05"/>
				<ellipse class="st56" cx="369.28" cy="225.81" rx="41.12" ry="41.05"/>
				<ellipse class="st57" cx="369.01" cy="225.54" rx="41.12" ry="41.05"/>
				<ellipse class="st58" cx="368.74" cy="225.27" rx="41.12" ry="41.05"/>
				<ellipse class="st59" cx="368.47" cy="225" rx="41.12" ry="41.05"/>
				<ellipse class="st60" cx="368.2" cy="224.73" rx="41.12" ry="41.05"/>
				<ellipse class="st61" cx="367.93" cy="224.46" rx="41.12" ry="41.05"/>
				<ellipse class="st62" cx="367.66" cy="224.2" rx="41.12" ry="41.05"/>
				<ellipse class="st63" cx="367.39" cy="223.93" rx="41.12" ry="41.05"/>
				<ellipse class="st64" cx="367.12" cy="223.66" rx="41.12" ry="41.05"/>
			</g>
			<g>
				<linearGradient id="SVGID_4_" gradientUnits="userSpaceOnUse" x1="338.0838" y1="194.6211" x2="396.1566" y2="252.6938">
					<stop  offset="0.0717" style="stop-color:#B3B3B3"/>
					<stop  offset="0.9294" style="stop-color:#4D4D4D"/>
				</linearGradient>
				<ellipse class="st68" cx="367.12" cy="223.66" rx="41.12" ry="41.05"/>
				
					<radialGradient id="SVGID_5_" cx="-606.2351" cy="-789.9901" r="110.3817" gradientTransform="matrix(0.5844 0 0 0.5834 733.4577 693.93)" gradientUnits="userSpaceOnUse">
					<stop  offset="0" style="stop-color:#808080"/>
					<stop  offset="0.3899" style="stop-color:#7C7C7C"/>
					<stop  offset="0.7931" style="stop-color:#6F6F6F"/>
					<stop  offset="1" style="stop-color:#666666"/>
				</radialGradient>
				<ellipse class="st69" cx="367.12" cy="223.66" rx="39.89" ry="39.81"/>
				<g>
					<ellipse class="st70" cx="367.12" cy="223.66" rx="41.12" ry="41.05"/>
				</g>
			</g>
		</g>
		<g>
			<g>
				<ellipse class="st3" cx="383.57" cy="356.75" rx="41.12" ry="41.05"/>
				<ellipse class="st4" cx="383.3" cy="356.48" rx="41.12" ry="41.05"/>
				<ellipse class="st5" cx="383.03" cy="356.21" rx="41.12" ry="41.05"/>
				<ellipse class="st6" cx="382.76" cy="355.94" rx="41.12" ry="41.05"/>
				<ellipse class="st7" cx="382.49" cy="355.67" rx="41.12" ry="41.05"/>
				<ellipse class="st8" cx="382.22" cy="355.4" rx="41.12" ry="41.05"/>
				<ellipse class="st9" cx="381.95" cy="355.13" rx="41.12" ry="41.05"/>
				<ellipse class="st10" cx="381.68" cy="354.86" rx="41.12" ry="41.05"/>
				<ellipse class="st11" cx="381.41" cy="354.59" rx="41.12" ry="41.05"/>
				<ellipse class="st12" cx="381.14" cy="354.33" rx="41.12" ry="41.05"/>
				<ellipse class="st13" cx="380.87" cy="354.06" rx="41.12" ry="41.05"/>
				<ellipse class="st14" cx="380.6" cy="353.79" rx="41.12" ry="41.05"/>
				<ellipse class="st15" cx="380.33" cy="353.52" rx="41.12" ry="41.05"/>
				<ellipse class="st16" cx="380.06" cy="353.25" rx="41.12" ry="41.05"/>
				<ellipse class="st17" cx="379.79" cy="352.98" rx="41.12" ry="41.05"/>
				<ellipse class="st18" cx="379.52" cy="352.71" rx="41.12" ry="41.05"/>
				<ellipse class="st19" cx="379.25" cy="352.44" rx="41.12" ry="41.05"/>
				<ellipse class="st20" cx="378.98" cy="352.17" rx="41.12" ry="41.05"/>
				<ellipse class="st21" cx="378.71" cy="351.9" rx="41.12" ry="41.05"/>
				<ellipse class="st22" cx="378.45" cy="351.63" rx="41.12" ry="41.05"/>
				<ellipse class="st23" cx="378.18" cy="351.37" rx="41.12" ry="41.05"/>
				<ellipse class="st24" cx="377.91" cy="351.1" rx="41.12" ry="41.05"/>
				<ellipse class="st25" cx="377.64" cy="350.83" rx="41.12" ry="41.05"/>
				<ellipse class="st26" cx="377.37" cy="350.56" rx="41.12" ry="41.05"/>
				<ellipse class="st27" cx="377.1" cy="350.29" rx="41.12" ry="41.05"/>
				<ellipse class="st28" cx="376.83" cy="350.02" rx="41.12" ry="41.05"/>
				<ellipse class="st29" cx="376.56" cy="349.75" rx="41.12" ry="41.05"/>
				<ellipse class="st30" cx="376.29" cy="349.48" rx="41.12" ry="41.05"/>
				<ellipse class="st31" cx="376.02" cy="349.21" rx="41.12" ry="41.05"/>
				<ellipse class="st32" cx="375.75" cy="348.94" rx="41.12" ry="41.05"/>
				<ellipse class="st33" cx="375.48" cy="348.67" rx="41.12" ry="41.05"/>
				<ellipse class="st34" cx="375.21" cy="348.4" rx="41.12" ry="41.05"/>
				<ellipse class="st35" cx="374.94" cy="348.14" rx="41.12" ry="41.05"/>
				<ellipse class="st36" cx="374.67" cy="347.87" rx="41.12" ry="41.05"/>
				<ellipse class="st37" cx="374.4" cy="347.6" rx="41.12" ry="41.05"/>
				<ellipse class="st38" cx="374.13" cy="347.33" rx="41.12" ry="41.05"/>
				<ellipse class="st39" cx="373.86" cy="347.06" rx="41.12" ry="41.05"/>
				<ellipse class="st40" cx="373.59" cy="346.79" rx="41.12" ry="41.05"/>
				<ellipse class="st41" cx="373.32" cy="346.52" rx="41.12" ry="41.05"/>
				<ellipse class="st42" cx="373.05" cy="346.25" rx="41.12" ry="41.05"/>
				<ellipse class="st43" cx="372.78" cy="345.98" rx="41.12" ry="41.05"/>
				<ellipse class="st44" cx="372.51" cy="345.71" rx="41.12" ry="41.05"/>
				<ellipse class="st45" cx="372.24" cy="345.44" rx="41.12" ry="41.05"/>
				<ellipse class="st46" cx="371.97" cy="345.17" rx="41.12" ry="41.05"/>
				<ellipse class="st47" cx="371.7" cy="344.91" rx="41.12" ry="41.05"/>
				<ellipse class="st48" cx="371.43" cy="344.64" rx="41.12" ry="41.05"/>
				<ellipse class="st49" cx="371.16" cy="344.37" rx="41.12" ry="41.05"/>
				<ellipse class="st50" cx="370.9" cy="344.1" rx="41.12" ry="41.05"/>
				<ellipse class="st51" cx="370.63" cy="343.83" rx="41.12" ry="41.05"/>
				<ellipse class="st52" cx="370.36" cy="343.56" rx="41.12" ry="41.05"/>
				<ellipse class="st53" cx="370.09" cy="343.29" rx="41.12" ry="41.05"/>
				<ellipse class="st54" cx="369.82" cy="343.02" rx="41.12" ry="41.05"/>
				<ellipse class="st55" cx="369.55" cy="342.75" rx="41.12" ry="41.05"/>
				<ellipse class="st56" cx="369.28" cy="342.48" rx="41.12" ry="41.05"/>
				<ellipse class="st57" cx="369.01" cy="342.21" rx="41.12" ry="41.05"/>
				<ellipse class="st58" cx="368.74" cy="341.94" rx="41.12" ry="41.05"/>
				<ellipse class="st59" cx="368.47" cy="341.68" rx="41.12" ry="41.05"/>
				<ellipse class="st60" cx="368.2" cy="341.41" rx="41.12" ry="41.05"/>
				<ellipse class="st61" cx="367.93" cy="341.14" rx="41.12" ry="41.05"/>
				<ellipse class="st62" cx="367.66" cy="340.87" rx="41.12" ry="41.05"/>
				<ellipse class="st63" cx="367.39" cy="340.6" rx="41.12" ry="41.05"/>
				<ellipse class="st64" cx="367.12" cy="340.33" rx="41.12" ry="41.05"/>
			</g>
			<g>
				<linearGradient id="SVGID_6_" gradientUnits="userSpaceOnUse" x1="338.0838" y1="311.2935" x2="396.1566" y2="369.3663">
					<stop  offset="0.0717" style="stop-color:#B3B3B3"/>
					<stop  offset="0.9294" style="stop-color:#4D4D4D"/>
				</linearGradient>
				<ellipse class="st71" cx="367.12" cy="340.33" rx="41.12" ry="41.05"/>
				
					<radialGradient id="SVGID_7_" cx="-606.2351" cy="-590.0029" r="110.3818" gradientTransform="matrix(0.5844 0 0 0.5834 733.4577 693.93)" gradientUnits="userSpaceOnUse">
					<stop  offset="0" style="stop-color:#808080"/>
					<stop  offset="0.3899" style="stop-color:#7C7C7C"/>
					<stop  offset="0.7931" style="stop-color:#6F6F6F"/>
					<stop  offset="1" style="stop-color:#666666"/>
				</radialGradient>
				<ellipse class="st72" cx="367.12" cy="340.33" rx="39.89" ry="39.81"/>
				<g>
					<ellipse class="st73" cx="367.12" cy="340.33" rx="41.12" ry="41.05"/>
				</g>
			</g>
		</g>
	</g>
	<g>
		<g>
			<g>
				<g>
					<path class="st3" d="M346.75,111.23h2.76v0.63h-3.47v-5.58h0.71V111.23z"/>
					<path class="st3" d="M353.51,109.91c0,1.32-0.68,2.12-1.82,2.12c-1.14,0-1.82-0.8-1.82-2.15c0-1.35,0.67-2.15,1.81-2.15
						C352.85,107.73,353.51,108.52,353.51,109.91z M350.55,109.88c0,0.97,0.44,1.56,1.15,1.56c0.71,0,1.15-0.59,1.15-1.54
						c0-1-0.43-1.58-1.15-1.58C350.98,108.32,350.55,108.91,350.55,109.88z"/>
					<path class="st3" d="M354.98,107.85v0.73c0.37-0.6,0.68-0.84,1.1-0.84c0.08,0,0.14,0.01,0.25,0.02v0.65
						c-0.88-0.02-1.28,0.41-1.29,1.37v2.08h-0.64v-4.01H354.98z"/>
					<path class="st3" d="M357.31,110.07c0.01,0.4,0.06,0.63,0.21,0.86c0.21,0.34,0.56,0.52,0.97,0.52c0.51,0,0.87-0.28,1.05-0.8
						h0.64c-0.16,0.87-0.8,1.39-1.72,1.39c-1.13,0-1.82-0.8-1.82-2.13s0.72-2.17,1.84-2.17c0.75,0,1.36,0.4,1.63,1.06
						c0.12,0.3,0.16,0.67,0.16,1.28H357.31z M359.58,109.54c0-0.72-0.45-1.22-1.1-1.22c-0.64,0-1.1,0.48-1.15,1.22H359.58z"/>
					<path class="st3" d="M361.73,107.85v0.57c0.34-0.48,0.7-0.68,1.23-0.68c0.52,0,0.84,0.18,1.08,0.61
						c0.38-0.45,0.7-0.61,1.23-0.61c0.75,0,1.17,0.4,1.17,1.12v3.01h-0.64v-2.76c0-0.51-0.28-0.8-0.74-0.8
						c-0.52,0-0.94,0.47-0.94,1.05v2.52h-0.64v-2.76c0-0.51-0.27-0.8-0.74-0.8c-0.52,0-0.94,0.47-0.94,1.05v2.52h-0.64v-4.01H361.73
						z"/>
					<path class="st3" d="M370.27,107.08h-0.64v-0.8h0.64V107.08z M370.27,111.86h-0.64v-4.01h0.64V111.86z"/>
					<path class="st3" d="M371.23,107.85h0.59v0.6c0.3-0.47,0.74-0.72,1.28-0.72c1.07,0,1.73,0.84,1.73,2.19
						c0,1.28-0.67,2.11-1.72,2.11c-0.52,0-0.9-0.18-1.23-0.6v2.09h-0.64V107.85z M371.87,109.88c0,0.94,0.44,1.55,1.12,1.55
						c0.7,0,1.17-0.62,1.17-1.53c0-0.96-0.46-1.58-1.17-1.58C372.31,108.33,371.87,108.94,371.87,109.88z"/>
					<path class="st3" d="M377.76,108.96c-0.02-0.42-0.29-0.64-0.8-0.64c-0.52,0-0.85,0.23-0.85,0.6c0,0.28,0.22,0.45,0.74,0.57
						l0.61,0.15c0.8,0.19,1.13,0.52,1.13,1.12c0,0.77-0.64,1.27-1.66,1.27c-1.05,0-1.57-0.44-1.6-1.37h0.67
						c0.04,0.28,0.08,0.4,0.18,0.51c0.16,0.17,0.45,0.27,0.8,0.27c0.56,0,0.94-0.25,0.94-0.64c0-0.28-0.18-0.44-0.62-0.55l-0.6-0.15
						c-0.95-0.23-1.27-0.53-1.27-1.16c0-0.74,0.61-1.22,1.54-1.22c0.93,0,1.45,0.44,1.46,1.23H377.76z"/>
					<path class="st3" d="M382.03,111.86v-0.56c-0.38,0.53-0.75,0.74-1.34,0.74c-0.78,0-1.28-0.43-1.28-1.09v-3.09h0.64v2.84
						c0,0.48,0.32,0.79,0.83,0.79c0.67,0,1.1-0.54,1.1-1.35v-2.27h0.64v4.01H382.03z"/>
					<path class="st3" d="M384.3,107.85v0.57c0.34-0.48,0.7-0.68,1.23-0.68c0.52,0,0.84,0.18,1.08,0.61
						c0.38-0.45,0.7-0.61,1.23-0.61c0.75,0,1.17,0.4,1.17,1.12v3.01h-0.64v-2.76c0-0.51-0.28-0.8-0.74-0.8
						c-0.52,0-0.94,0.47-0.94,1.05v2.52h-0.64v-2.76c0-0.51-0.27-0.8-0.74-0.8c-0.52,0-0.94,0.47-0.94,1.05v2.52h-0.64v-4.01H384.3z
						"/>
					<path class="st3" d="M347.58,121.04h-0.57v-0.53c-0.34,0.5-0.73,0.7-1.28,0.7c-1.09,0-1.75-0.83-1.75-2.19
						c0-1.28,0.68-2.11,1.73-2.11c0.54,0,0.97,0.21,1.23,0.62v-2.07h0.64V121.04z M344.65,119.06c0,0.93,0.47,1.55,1.17,1.55
						c0.67,0,1.12-0.61,1.12-1.54c0-0.96-0.44-1.57-1.13-1.57C345.12,117.51,344.65,118.13,344.65,119.06z"/>
					<path class="st3" d="M351.95,119.09c0,1.32-0.68,2.12-1.82,2.12c-1.14,0-1.82-0.8-1.82-2.15c0-1.35,0.67-2.15,1.81-2.15
						C351.3,116.91,351.95,117.7,351.95,119.09z M348.99,119.06c0,0.97,0.44,1.56,1.15,1.56c0.71,0,1.15-0.59,1.15-1.54
						c0-1-0.43-1.58-1.15-1.58C349.42,117.5,348.99,118.09,348.99,119.06z"/>
					<path class="st3" d="M353.47,121.04h-0.64v-5.58h0.64V121.04z"/>
					<path class="st3" d="M357.92,119.09c0,1.32-0.68,2.12-1.82,2.12c-1.14,0-1.82-0.8-1.82-2.15c0-1.35,0.67-2.15,1.81-2.15
						C357.26,116.91,357.92,117.7,357.92,119.09z M354.95,119.06c0,0.97,0.44,1.56,1.15,1.56c0.71,0,1.15-0.59,1.15-1.54
						c0-1-0.43-1.58-1.15-1.58C355.39,117.5,354.95,118.09,354.95,119.06z"/>
					<path class="st3" d="M359.39,117.03v0.73c0.37-0.6,0.68-0.84,1.1-0.84c0.08,0,0.14,0.01,0.25,0.02v0.65
						c-0.88-0.02-1.28,0.41-1.29,1.37v2.08h-0.64v-4.01H359.39z"/>
					<path class="st3" d="M365.63,118.14c-0.02-0.42-0.29-0.64-0.8-0.64c-0.52,0-0.85,0.23-0.85,0.6c0,0.28,0.22,0.45,0.74,0.57
						l0.61,0.15c0.8,0.19,1.13,0.52,1.13,1.12c0,0.77-0.64,1.27-1.66,1.27c-1.05,0-1.57-0.44-1.6-1.37h0.67
						c0.04,0.28,0.08,0.4,0.18,0.51c0.16,0.17,0.45,0.27,0.8,0.27c0.56,0,0.94-0.25,0.94-0.64c0-0.28-0.18-0.44-0.62-0.55l-0.6-0.15
						c-0.95-0.23-1.27-0.53-1.27-1.16c0-0.74,0.61-1.22,1.54-1.22c0.93,0,1.45,0.44,1.46,1.23H365.63z"/>
					<path class="st3" d="M367.93,116.26h-0.64v-0.8h0.64V116.26z M367.93,121.04h-0.64v-4.01h0.64V121.04z"/>
					<path class="st3" d="M370.43,117.55h-0.66v2.75c0,0.28,0.08,0.36,0.35,0.36c0.13,0,0.21-0.01,0.31-0.03v0.54
						c-0.21,0.04-0.35,0.05-0.52,0.05c-0.5,0-0.77-0.22-0.77-0.64v-3.03h-0.54v-0.52h0.54v-1.1h0.64v1.1h0.66V117.55z"/>
					<path class="st3" d="M376.85,121.14c-0.21,0.05-0.3,0.07-0.44,0.07c-0.41,0-0.61-0.18-0.66-0.59
						c-0.45,0.41-0.86,0.59-1.36,0.59c-0.81,0-1.32-0.46-1.32-1.19c0-0.52,0.24-0.87,0.71-1.07c0.25-0.1,0.38-0.13,1.29-0.25
						c0.52-0.07,0.66-0.17,0.67-0.44v-0.17c0-0.38-0.31-0.6-0.9-0.6c-0.6,0-0.89,0.22-0.94,0.71h-0.64c0.02-0.4,0.09-0.63,0.28-0.83
						c0.28-0.3,0.74-0.47,1.33-0.47c0.99,0,1.51,0.38,1.51,1.09v2.36c0,0.2,0.12,0.31,0.34,0.31c0.04,0,0.07,0,0.14-0.02V121.14z
						 M375.73,119.05c-0.21,0.1-0.35,0.13-1.03,0.22c-0.69,0.1-0.97,0.31-0.97,0.73c0,0.41,0.29,0.64,0.79,0.64
						c0.38,0,0.69-0.12,0.95-0.36c0.19-0.18,0.25-0.31,0.25-0.52V119.05z"/>
					<path class="st3" d="M378.13,117.03v0.57c0.34-0.48,0.7-0.68,1.23-0.68c0.52,0,0.84,0.18,1.08,0.61
						c0.38-0.45,0.7-0.61,1.23-0.61c0.75,0,1.17,0.4,1.17,1.12v3.01h-0.64v-2.76c0-0.51-0.28-0.8-0.74-0.8
						c-0.52,0-0.94,0.47-0.94,1.05v2.52h-0.64v-2.76c0-0.51-0.27-0.8-0.74-0.8c-0.52,0-0.94,0.47-0.94,1.05v2.52h-0.64v-4.01H378.13
						z"/>
					<path class="st3" d="M384.36,119.25c0.01,0.4,0.06,0.63,0.21,0.86c0.21,0.34,0.56,0.52,0.97,0.52c0.51,0,0.87-0.28,1.05-0.8
						h0.64c-0.16,0.87-0.8,1.39-1.72,1.39c-1.13,0-1.82-0.8-1.82-2.13c0-1.32,0.72-2.17,1.84-2.17c0.75,0,1.36,0.4,1.63,1.06
						c0.11,0.3,0.16,0.67,0.16,1.28H384.36z M386.63,118.73c0-0.72-0.45-1.22-1.1-1.22c-0.64,0-1.1,0.48-1.15,1.22H386.63z"/>
					<path class="st3" d="M389.53,117.55h-0.66v2.75c0,0.28,0.08,0.36,0.35,0.36c0.13,0,0.21-0.01,0.31-0.03v0.54
						c-0.21,0.04-0.35,0.05-0.52,0.05c-0.5,0-0.77-0.22-0.77-0.64v-3.03h-0.54v-0.52h0.54v-1.1h0.64v1.1h0.66V117.55z"/>
					<path class="st3" d="M391.06,120.24v0.92c0,0.65-0.3,1.02-0.8,1v-0.29c0.36-0.01,0.46-0.17,0.46-0.7v-0.14h-0.46v-0.8H391.06z"
						/>
					<path class="st3" d="M350.55,125.44h-0.64v-0.8h0.64V125.44z M350.55,130.22h-0.64v-4.01h0.64V130.22z"/>
					<path class="st3" d="M352.22,126.21v0.67c0.35-0.56,0.74-0.79,1.33-0.79c0.77,0,1.27,0.43,1.27,1.09v3.03h-0.64v-2.78
						c0-0.48-0.32-0.79-0.83-0.79c-0.66,0-1.09,0.54-1.09,1.35v2.21h-0.64v-4.01H352.22z"/>
					<path class="st3" d="M360.05,127.32c-0.02-0.42-0.29-0.64-0.81-0.64c-0.52,0-0.85,0.23-0.85,0.6c0,0.28,0.22,0.45,0.74,0.57
						l0.61,0.15c0.8,0.19,1.13,0.52,1.13,1.12c0,0.77-0.64,1.27-1.66,1.27c-1.05,0-1.57-0.44-1.6-1.37h0.67
						c0.04,0.28,0.08,0.4,0.18,0.51c0.16,0.17,0.45,0.27,0.8,0.27c0.56,0,0.94-0.25,0.94-0.64c0-0.28-0.18-0.44-0.62-0.55l-0.6-0.15
						c-0.95-0.23-1.27-0.53-1.27-1.16c0-0.74,0.61-1.22,1.54-1.22c0.93,0,1.45,0.44,1.46,1.23H360.05z"/>
					<path class="st3" d="M362.17,128.43c0.01,0.4,0.06,0.63,0.21,0.86c0.21,0.34,0.56,0.52,0.97,0.52c0.51,0,0.87-0.28,1.05-0.8
						h0.64c-0.16,0.87-0.8,1.39-1.72,1.39c-1.13,0-1.82-0.8-1.82-2.13c0-1.32,0.72-2.17,1.84-2.17c0.75,0,1.36,0.4,1.63,1.06
						c0.12,0.3,0.16,0.67,0.16,1.28H362.17z M364.44,127.9c0-0.72-0.45-1.22-1.1-1.22c-0.64,0-1.1,0.48-1.15,1.22H364.44z"/>
					<path class="st3" d="M369.5,130.32c-0.21,0.05-0.3,0.07-0.44,0.07c-0.41,0-0.61-0.18-0.66-0.59c-0.45,0.41-0.86,0.59-1.36,0.59
						c-0.81,0-1.32-0.46-1.32-1.19c0-0.52,0.24-0.87,0.71-1.07c0.25-0.1,0.38-0.13,1.29-0.24c0.52-0.07,0.66-0.17,0.67-0.44v-0.17
						c0-0.38-0.31-0.6-0.9-0.6c-0.6,0-0.89,0.22-0.94,0.71h-0.64c0.02-0.4,0.09-0.63,0.28-0.83c0.28-0.3,0.74-0.47,1.33-0.47
						c0.99,0,1.51,0.38,1.51,1.09v2.36c0,0.2,0.12,0.31,0.35,0.31c0.04,0,0.07,0,0.14-0.01V130.32z M368.38,128.23
						c-0.21,0.1-0.34,0.13-1.03,0.22c-0.69,0.1-0.97,0.31-0.97,0.73c0,0.41,0.29,0.64,0.79,0.64c0.38,0,0.69-0.12,0.95-0.36
						c0.19-0.18,0.25-0.31,0.25-0.52V128.23z"/>
					<path class="st3" d="M373.74,126.73h-0.66v2.75c0,0.28,0.08,0.36,0.35,0.36c0.13,0,0.21-0.01,0.31-0.03v0.54
						c-0.21,0.04-0.35,0.05-0.52,0.05c-0.5,0-0.77-0.22-0.77-0.64v-3.03h-0.54v-0.52h0.54v-1.1h0.64v1.1h0.66V126.73z"/>
					<path class="st3" d="M377.74,128.27c0,1.32-0.68,2.12-1.82,2.12c-1.14,0-1.82-0.8-1.82-2.15c0-1.35,0.67-2.15,1.81-2.15
						C377.08,126.09,377.74,126.88,377.74,128.27z M374.77,128.24c0,0.97,0.44,1.56,1.15,1.56c0.71,0,1.15-0.59,1.15-1.54
						c0-0.99-0.43-1.58-1.15-1.58C375.21,126.68,374.77,127.27,374.77,128.24z"/>
					<path class="st3" d="M379.26,130.22h-0.64v-5.58h0.64V130.22z"/>
					<path class="st3" d="M380.96,130.22h-0.64v-5.58h0.64V130.22z"/>
					<path class="st3" d="M382.65,125.44H382v-0.8h0.64V125.44z M382.65,130.22h-0.64v-4.01h0.64V130.22z"/>
					<path class="st3" d="M385.14,126.73h-0.66v2.75c0,0.28,0.08,0.36,0.35,0.36c0.13,0,0.21-0.01,0.31-0.03v0.54
						c-0.21,0.04-0.35,0.05-0.52,0.05c-0.5,0-0.77-0.22-0.77-0.64v-3.03h-0.54v-0.52h0.54v-1.1h0.64v1.1h0.66V126.73z"/>
				</g>
			</g>
			<g>
				<path class="st3" d="M369.1,89.57c1.91-1.08,3.29-3.9,3.29-6.04c0-2.69-2.18-4.86-4.87-4.86s-4.87,2.18-4.87,4.86
					c0,2.13,1.38,4.96,3.29,6.04c-3.73,0.44-6.54,2.41-6.54,4.77v0.54h16.24v-0.54C375.64,91.98,372.83,90.01,369.1,89.57z"/>
				<path class="st3" d="M362.55,87.31c-0.63-1.25-0.98-2.62-0.98-3.77c0-0.78,0.15-1.52,0.43-2.2c-0.52-0.32-1.13-0.5-1.78-0.5
					c-1.88,0-3.41,1.52-3.41,3.4c0,1.49,0.96,3.47,2.3,4.23c-2.61,0.31-4.58,1.68-4.58,3.34v0.38h4.39
					c0.82-1.39,2.41-2.53,4.51-3.18c0.05-0.02,0.1-0.04,0.16-0.05C363.19,88.45,362.84,87.89,362.55,87.31z"/>
				<path class="st3" d="M375.93,88.46c1.34-0.75,2.3-2.73,2.3-4.23c0-1.88-1.53-3.4-3.41-3.4c-0.65,0-1.26,0.19-1.78,0.5
					c0.27,0.68,0.43,1.42,0.43,2.2c0,1.15-0.35,2.52-0.98,3.77c-0.29,0.58-0.64,1.14-1.05,1.64c0.05,0.02,0.11,0.03,0.16,0.05
					c2.1,0.65,3.69,1.78,4.51,3.18h4.39V91.8C380.51,90.15,378.54,88.77,375.93,88.46z"/>
			</g>
		</g>
		<g>
			<g>
				<g>
					<path class="st3" d="M346.03,227.81h2.76v0.63h-3.47v-5.58h0.71V227.81z"/>
					<path class="st3" d="M352.8,226.5c0,1.32-0.68,2.12-1.82,2.12c-1.14,0-1.82-0.8-1.82-2.15c0-1.35,0.67-2.15,1.81-2.15
						C352.14,224.31,352.8,225.1,352.8,226.5z M349.83,226.46c0,0.97,0.44,1.56,1.15,1.56c0.71,0,1.15-0.59,1.15-1.54
						c0-0.99-0.43-1.58-1.15-1.58C350.27,224.9,349.83,225.49,349.83,226.46z"/>
					<path class="st3" d="M354.27,224.43v0.73c0.37-0.6,0.68-0.84,1.1-0.84c0.08,0,0.14,0.01,0.25,0.02v0.65
						c-0.88-0.02-1.28,0.41-1.29,1.37v2.08h-0.64v-4.01H354.27z"/>
					<path class="st3" d="M356.6,226.65c0.01,0.4,0.06,0.63,0.21,0.86c0.21,0.34,0.56,0.52,0.97,0.52c0.51,0,0.87-0.28,1.05-0.8
						h0.64c-0.16,0.87-0.8,1.39-1.72,1.39c-1.13,0-1.82-0.8-1.82-2.13s0.72-2.17,1.84-2.17c0.75,0,1.36,0.4,1.63,1.06
						c0.12,0.3,0.16,0.67,0.16,1.28H356.6z M358.86,226.13c0-0.72-0.45-1.22-1.1-1.22c-0.64,0-1.1,0.48-1.15,1.22H358.86z"/>
					<path class="st3" d="M361.01,224.43v0.57c0.34-0.48,0.7-0.68,1.23-0.68c0.52,0,0.84,0.18,1.08,0.61
						c0.38-0.45,0.7-0.61,1.23-0.61c0.75,0,1.17,0.4,1.17,1.12v3.01h-0.64v-2.76c0-0.51-0.28-0.8-0.74-0.8
						c-0.52,0-0.94,0.47-0.94,1.05v2.52h-0.64v-2.76c0-0.51-0.27-0.8-0.74-0.8c-0.52,0-0.94,0.47-0.94,1.05v2.52h-0.64v-4.01H361.01
						z"/>
					<path class="st3" d="M369.55,223.66h-0.64v-0.8h0.64V223.66z M369.55,228.44h-0.64v-4.01h0.64V228.44z"/>
					<path class="st3" d="M370.51,224.43h0.59v0.6c0.3-0.47,0.74-0.72,1.28-0.72c1.07,0,1.72,0.84,1.72,2.19
						c0,1.28-0.67,2.11-1.72,2.11c-0.52,0-0.9-0.18-1.23-0.6v2.09h-0.64V224.43z M371.16,226.46c0,0.94,0.44,1.55,1.12,1.55
						c0.7,0,1.17-0.62,1.17-1.53c0-0.96-0.46-1.58-1.17-1.58C371.59,224.91,371.16,225.52,371.16,226.46z"/>
					<path class="st3" d="M377.04,225.55c-0.02-0.42-0.29-0.64-0.8-0.64c-0.52,0-0.85,0.23-0.85,0.6c0,0.28,0.22,0.45,0.74,0.57
						l0.61,0.15c0.8,0.19,1.13,0.52,1.13,1.12c0,0.77-0.64,1.27-1.66,1.27c-1.05,0-1.57-0.44-1.6-1.37h0.67
						c0.04,0.28,0.08,0.4,0.18,0.51c0.16,0.17,0.45,0.27,0.8,0.27c0.56,0,0.94-0.25,0.94-0.64c0-0.28-0.18-0.44-0.62-0.55l-0.6-0.15
						c-0.95-0.23-1.27-0.53-1.27-1.16c0-0.74,0.61-1.22,1.54-1.22c0.93,0,1.45,0.44,1.46,1.23H377.04z"/>
					<path class="st3" d="M381.31,228.44v-0.56c-0.38,0.53-0.75,0.73-1.34,0.73c-0.78,0-1.28-0.43-1.28-1.09v-3.09h0.64v2.84
						c0,0.48,0.32,0.79,0.83,0.79c0.67,0,1.1-0.54,1.1-1.35v-2.27h0.64v4.01H381.31z"/>
					<path class="st3" d="M383.58,224.43v0.57c0.34-0.48,0.7-0.68,1.23-0.68c0.52,0,0.84,0.18,1.08,0.61
						c0.38-0.45,0.7-0.61,1.23-0.61c0.75,0,1.17,0.4,1.17,1.12v3.01h-0.64v-2.76c0-0.51-0.28-0.8-0.74-0.8
						c-0.52,0-0.94,0.47-0.94,1.05v2.52h-0.64v-2.76c0-0.51-0.27-0.8-0.74-0.8c-0.52,0-0.94,0.47-0.94,1.05v2.52h-0.64v-4.01H383.58
						z"/>
					<path class="st3" d="M346.86,237.62h-0.57v-0.53c-0.35,0.5-0.73,0.7-1.28,0.7c-1.09,0-1.75-0.83-1.75-2.19
						c0-1.28,0.68-2.11,1.73-2.11c0.54,0,0.97,0.21,1.23,0.62v-2.07h0.64V237.62z M343.93,235.64c0,0.93,0.47,1.55,1.17,1.55
						c0.67,0,1.12-0.61,1.12-1.54c0-0.96-0.44-1.57-1.13-1.57C344.4,234.09,343.93,234.71,343.93,235.64z"/>
					<path class="st3" d="M351.24,235.67c0,1.32-0.68,2.12-1.82,2.12c-1.14,0-1.82-0.8-1.82-2.15c0-1.35,0.67-2.15,1.81-2.15
						C350.58,233.49,351.24,234.28,351.24,235.67z M348.27,235.64c0,0.97,0.44,1.56,1.15,1.56c0.71,0,1.15-0.59,1.15-1.54
						c0-1-0.43-1.58-1.15-1.58C348.71,234.08,348.27,234.67,348.27,235.64z"/>
					<path class="st3" d="M352.75,237.62h-0.64v-5.58h0.64V237.62z"/>
					<path class="st3" d="M357.2,235.67c0,1.32-0.68,2.12-1.82,2.12c-1.14,0-1.82-0.8-1.82-2.15c0-1.35,0.67-2.15,1.81-2.15
						C356.54,233.49,357.2,234.28,357.2,235.67z M354.23,235.64c0,0.97,0.44,1.56,1.15,1.56c0.71,0,1.15-0.59,1.15-1.54
						c0-1-0.43-1.58-1.15-1.58C354.67,234.08,354.23,234.67,354.23,235.64z"/>
					<path class="st3" d="M358.67,233.61v0.73c0.37-0.6,0.68-0.84,1.1-0.84c0.08,0,0.14,0.01,0.25,0.02v0.65
						c-0.88-0.02-1.28,0.41-1.29,1.37v2.08h-0.64v-4.01H358.67z"/>
					<path class="st3" d="M364.92,234.73c-0.02-0.42-0.29-0.64-0.8-0.64c-0.52,0-0.85,0.23-0.85,0.6c0,0.28,0.22,0.45,0.74,0.57
						l0.61,0.15c0.8,0.19,1.13,0.52,1.13,1.12c0,0.77-0.64,1.27-1.66,1.27c-1.05,0-1.57-0.44-1.6-1.37h0.67
						c0.04,0.28,0.08,0.4,0.18,0.51c0.16,0.17,0.45,0.27,0.8,0.27c0.56,0,0.94-0.25,0.94-0.63c0-0.28-0.18-0.44-0.62-0.55l-0.6-0.15
						c-0.95-0.23-1.27-0.53-1.27-1.16c0-0.74,0.61-1.22,1.54-1.22c0.93,0,1.45,0.44,1.46,1.23H364.92z"/>
					<path class="st3" d="M367.21,232.84h-0.64v-0.8h0.64V232.84z M367.21,237.62h-0.64v-4.01h0.64V237.62z"/>
					<path class="st3" d="M369.71,234.13h-0.66v2.75c0,0.28,0.08,0.36,0.35,0.36c0.13,0,0.21-0.01,0.31-0.03v0.54
						c-0.21,0.04-0.35,0.05-0.52,0.05c-0.5,0-0.77-0.22-0.77-0.64v-3.03h-0.54v-0.52h0.54v-1.1h0.64v1.1h0.66V234.13z"/>
					<path class="st3" d="M376.13,237.73c-0.21,0.05-0.3,0.07-0.44,0.07c-0.41,0-0.61-0.18-0.66-0.59
						c-0.45,0.41-0.86,0.59-1.36,0.59c-0.81,0-1.32-0.46-1.32-1.19c0-0.52,0.24-0.87,0.71-1.07c0.25-0.1,0.38-0.13,1.29-0.25
						c0.52-0.07,0.66-0.17,0.67-0.44v-0.17c0-0.38-0.31-0.6-0.9-0.6c-0.6,0-0.89,0.22-0.94,0.71h-0.64c0.02-0.4,0.09-0.63,0.28-0.83
						c0.28-0.3,0.74-0.47,1.33-0.47c0.99,0,1.51,0.38,1.51,1.09v2.36c0,0.2,0.12,0.31,0.34,0.31c0.04,0,0.07,0,0.14-0.02V237.73z
						 M375.01,235.64c-0.21,0.1-0.35,0.13-1.03,0.22c-0.69,0.1-0.97,0.31-0.97,0.73c0,0.41,0.29,0.64,0.79,0.64
						c0.38,0,0.69-0.12,0.95-0.36c0.19-0.18,0.25-0.31,0.25-0.52V235.64z"/>
					<path class="st3" d="M377.42,233.61v0.57c0.34-0.48,0.7-0.68,1.23-0.68c0.52,0,0.84,0.18,1.08,0.61
						c0.38-0.45,0.7-0.61,1.23-0.61c0.75,0,1.17,0.4,1.17,1.12v3.01h-0.64v-2.76c0-0.51-0.28-0.8-0.74-0.8
						c-0.52,0-0.94,0.47-0.94,1.05v2.52h-0.64v-2.76c0-0.51-0.27-0.8-0.74-0.8c-0.52,0-0.94,0.47-0.94,1.05v2.52h-0.64v-4.01H377.42
						z"/>
					<path class="st3" d="M383.65,235.83c0.01,0.4,0.06,0.63,0.21,0.86c0.21,0.34,0.56,0.52,0.97,0.52c0.51,0,0.87-0.28,1.05-0.8
						h0.64c-0.16,0.87-0.8,1.39-1.72,1.39c-1.13,0-1.82-0.8-1.82-2.13c0-1.32,0.72-2.17,1.84-2.17c0.75,0,1.36,0.4,1.63,1.06
						c0.12,0.3,0.16,0.67,0.16,1.28H383.65z M385.91,235.31c0-0.72-0.45-1.22-1.1-1.22c-0.64,0-1.1,0.48-1.15,1.22H385.91z"/>
					<path class="st3" d="M388.81,234.13h-0.66v2.75c0,0.28,0.08,0.36,0.35,0.36c0.13,0,0.21-0.01,0.31-0.03v0.54
						c-0.21,0.04-0.35,0.05-0.52,0.05c-0.5,0-0.77-0.22-0.77-0.64v-3.03h-0.54v-0.52h0.54v-1.1h0.64v1.1h0.66V234.13z"/>
					<path class="st3" d="M390.34,236.82v0.92c0,0.65-0.3,1.02-0.8,1v-0.29c0.36-0.01,0.46-0.17,0.46-0.7v-0.14h-0.46v-0.8H390.34z"
						/>
					<path class="st3" d="M349.83,242.02h-0.64v-0.8h0.64V242.02z M349.83,246.8h-0.64v-4.01h0.64V246.8z"/>
					<path class="st3" d="M351.51,242.79v0.67c0.35-0.56,0.74-0.79,1.33-0.79c0.77,0,1.27,0.43,1.27,1.09v3.03h-0.64v-2.78
						c0-0.48-0.32-0.79-0.83-0.79c-0.66,0-1.09,0.54-1.09,1.35v2.21h-0.64v-4.01H351.51z"/>
					<path class="st3" d="M359.33,243.91c-0.02-0.42-0.29-0.64-0.8-0.64c-0.52,0-0.85,0.23-0.85,0.6c0,0.28,0.22,0.45,0.74,0.57
						l0.61,0.15c0.8,0.19,1.13,0.52,1.13,1.12c0,0.77-0.64,1.27-1.66,1.27c-1.05,0-1.57-0.44-1.6-1.37h0.67
						c0.04,0.28,0.08,0.4,0.18,0.51c0.16,0.17,0.45,0.27,0.8,0.27c0.56,0,0.94-0.25,0.94-0.64c0-0.28-0.18-0.44-0.62-0.55l-0.6-0.15
						c-0.95-0.23-1.27-0.53-1.27-1.16c0-0.74,0.61-1.22,1.54-1.22c0.93,0,1.45,0.44,1.46,1.23H359.33z"/>
					<path class="st3" d="M361.45,245.01c0.01,0.4,0.06,0.63,0.21,0.86c0.21,0.34,0.56,0.52,0.97,0.52c0.51,0,0.87-0.28,1.05-0.8
						h0.64c-0.16,0.87-0.8,1.39-1.72,1.39c-1.13,0-1.82-0.8-1.82-2.13s0.72-2.17,1.84-2.17c0.75,0,1.36,0.4,1.63,1.06
						c0.11,0.3,0.16,0.67,0.16,1.28H361.45z M363.72,244.49c0-0.72-0.45-1.22-1.1-1.22c-0.64,0-1.1,0.48-1.15,1.22H363.72z"/>
					<path class="st3" d="M368.79,246.91c-0.21,0.05-0.3,0.07-0.44,0.07c-0.41,0-0.61-0.18-0.66-0.59
						c-0.45,0.41-0.86,0.59-1.36,0.59c-0.81,0-1.32-0.46-1.32-1.19c0-0.52,0.24-0.87,0.71-1.07c0.25-0.1,0.38-0.13,1.29-0.24
						c0.52-0.07,0.66-0.17,0.67-0.44v-0.17c0-0.38-0.31-0.6-0.9-0.6c-0.6,0-0.89,0.22-0.94,0.71h-0.64c0.02-0.4,0.09-0.63,0.28-0.83
						c0.28-0.3,0.74-0.47,1.33-0.47c0.99,0,1.51,0.38,1.51,1.09v2.36c0,0.2,0.12,0.31,0.35,0.31c0.04,0,0.07,0,0.14-0.01V246.91z
						 M367.67,244.82c-0.21,0.1-0.34,0.13-1.03,0.22c-0.69,0.1-0.97,0.31-0.97,0.73c0,0.41,0.29,0.64,0.79,0.64
						c0.38,0,0.69-0.12,0.95-0.36c0.19-0.18,0.25-0.31,0.25-0.52V244.82z"/>
					<path class="st3" d="M373.02,243.31h-0.66v2.75c0,0.28,0.08,0.36,0.35,0.36c0.13,0,0.21-0.01,0.31-0.03v0.54
						c-0.21,0.04-0.35,0.05-0.52,0.05c-0.5,0-0.77-0.22-0.77-0.64v-3.03h-0.54v-0.52h0.54v-1.1h0.64v1.1h0.66V243.31z"/>
					<path class="st3" d="M377.02,244.86c0,1.32-0.68,2.12-1.82,2.12c-1.14,0-1.82-0.8-1.82-2.15c0-1.35,0.67-2.15,1.81-2.15
						C376.36,242.67,377.02,243.46,377.02,244.86z M374.06,244.82c0,0.97,0.44,1.56,1.15,1.56c0.71,0,1.15-0.59,1.15-1.54
						c0-1-0.43-1.58-1.15-1.58C374.49,243.26,374.06,243.85,374.06,244.82z"/>
					<path class="st3" d="M378.54,246.8h-0.64v-5.58h0.64V246.8z"/>
					<path class="st3" d="M380.24,246.8h-0.64v-5.58h0.64V246.8z"/>
					<path class="st3" d="M381.93,242.02h-0.64v-0.8h0.64V242.02z M381.93,246.8h-0.64v-4.01h0.64V246.8z"/>
					<path class="st3" d="M384.43,243.31h-0.66v2.75c0,0.28,0.08,0.36,0.35,0.36c0.13,0,0.21-0.01,0.31-0.03v0.54
						c-0.21,0.04-0.35,0.05-0.52,0.05c-0.5,0-0.77-0.22-0.77-0.64v-3.03h-0.54v-0.52h0.54v-1.1h0.64v1.1h0.66V243.31z"/>
				</g>
			</g>
			<g>
				<polygon class="st3" points="375.18,213.78 375.18,200.89 371.69,200.89 371.69,213.78 370.99,213.78 370.99,206.12 
					367.5,206.12 367.5,213.78 366.8,213.78 366.8,204.02 363.31,204.02 363.31,213.78 362.62,213.78 362.62,209.25 359.12,209.25 
					359.12,213.78 357.03,213.78 357.03,193.57 356.33,193.57 356.33,214.48 377.28,214.48 377.28,213.78 				"/>
				<polygon class="st3" points="375.53,193.57 374.89,193.84 373.61,194.39 374.16,194.81 368.46,202.4 365.34,198.24 
					358.77,205.89 359.3,206.34 365.3,199.35 368.46,203.56 374.72,195.23 374.74,195.21 375.28,195.62 375.45,194.27 
					375.45,194.26 				"/>
			</g>
		</g>
		<g>
			<g>
				<g>
					<path class="st3" d="M346.02,343.95h2.76v0.63h-3.47V339h0.71V343.95z"/>
					<path class="st3" d="M352.79,342.63c0,1.32-0.68,2.12-1.82,2.12c-1.14,0-1.82-0.8-1.82-2.15c0-1.35,0.67-2.15,1.81-2.15
						C352.13,340.45,352.79,341.24,352.79,342.63z M349.82,342.6c0,0.97,0.44,1.56,1.15,1.56c0.71,0,1.15-0.59,1.15-1.54
						c0-1-0.43-1.58-1.15-1.58C350.26,341.04,349.82,341.63,349.82,342.6z"/>
					<path class="st3" d="M354.26,340.57v0.73c0.37-0.6,0.68-0.84,1.1-0.84c0.08,0,0.14,0.01,0.25,0.02v0.65
						c-0.88-0.02-1.28,0.41-1.29,1.37v2.08h-0.64v-4.01H354.26z"/>
					<path class="st3" d="M356.59,342.79c0.01,0.4,0.06,0.63,0.21,0.86c0.21,0.34,0.56,0.52,0.97,0.52c0.51,0,0.87-0.28,1.05-0.8
						h0.64c-0.16,0.87-0.8,1.39-1.72,1.39c-1.13,0-1.82-0.8-1.82-2.13s0.72-2.17,1.84-2.17c0.75,0,1.36,0.4,1.63,1.06
						c0.12,0.3,0.16,0.67,0.16,1.28H356.59z M358.86,342.27c0-0.72-0.45-1.22-1.1-1.22c-0.64,0-1.1,0.48-1.15,1.22H358.86z"/>
					<path class="st3" d="M361.01,340.57v0.57c0.34-0.48,0.7-0.68,1.23-0.68c0.52,0,0.84,0.18,1.08,0.61
						c0.38-0.45,0.7-0.61,1.23-0.61c0.75,0,1.17,0.4,1.17,1.12v3.01h-0.64v-2.76c0-0.51-0.28-0.8-0.74-0.8
						c-0.52,0-0.94,0.47-0.94,1.05v2.52h-0.64v-2.76c0-0.51-0.27-0.8-0.74-0.8c-0.52,0-0.94,0.47-0.94,1.05v2.52h-0.64v-4.01H361.01
						z"/>
					<path class="st3" d="M369.54,339.8h-0.64V339h0.64V339.8z M369.54,344.58h-0.64v-4.01h0.64V344.58z"/>
					<path class="st3" d="M370.51,340.57h0.59v0.6c0.3-0.47,0.74-0.72,1.28-0.72c1.07,0,1.73,0.84,1.73,2.19
						c0,1.28-0.67,2.11-1.72,2.11c-0.52,0-0.9-0.18-1.23-0.6v2.09h-0.64V340.57z M371.15,342.6c0,0.94,0.44,1.55,1.12,1.55
						c0.7,0,1.17-0.62,1.17-1.53c0-0.96-0.46-1.58-1.17-1.58C371.59,341.05,371.15,341.66,371.15,342.6z"/>
					<path class="st3" d="M377.04,341.68c-0.02-0.42-0.29-0.64-0.8-0.64c-0.52,0-0.85,0.23-0.85,0.6c0,0.28,0.22,0.45,0.74,0.57
						l0.61,0.15c0.8,0.19,1.13,0.52,1.13,1.12c0,0.77-0.64,1.27-1.66,1.27c-1.05,0-1.57-0.44-1.6-1.37h0.67
						c0.04,0.28,0.08,0.4,0.18,0.51c0.16,0.17,0.45,0.27,0.8,0.27c0.56,0,0.94-0.25,0.94-0.64c0-0.28-0.18-0.44-0.62-0.55l-0.6-0.15
						c-0.95-0.23-1.27-0.53-1.27-1.16c0-0.74,0.61-1.22,1.54-1.22c0.93,0,1.45,0.44,1.46,1.23H377.04z"/>
					<path class="st3" d="M381.31,344.58v-0.56c-0.38,0.53-0.75,0.73-1.34,0.73c-0.78,0-1.28-0.43-1.28-1.09v-3.09h0.64v2.84
						c0,0.48,0.32,0.79,0.83,0.79c0.67,0,1.1-0.54,1.1-1.35v-2.27h0.64v4.01H381.31z"/>
					<path class="st3" d="M383.58,340.57v0.57c0.34-0.48,0.7-0.68,1.23-0.68c0.52,0,0.84,0.18,1.08,0.61
						c0.38-0.45,0.7-0.61,1.23-0.61c0.75,0,1.17,0.4,1.17,1.12v3.01h-0.64v-2.76c0-0.51-0.28-0.8-0.74-0.8
						c-0.52,0-0.94,0.47-0.94,1.05v2.52h-0.64v-2.76c0-0.51-0.27-0.8-0.74-0.8c-0.52,0-0.94,0.47-0.94,1.05v2.52h-0.64v-4.01H383.58
						z"/>
					<path class="st3" d="M346.86,353.76h-0.57v-0.53c-0.35,0.5-0.73,0.7-1.28,0.7c-1.09,0-1.75-0.83-1.75-2.19
						c0-1.28,0.68-2.11,1.73-2.11c0.54,0,0.97,0.21,1.23,0.62v-2.07h0.64V353.76z M343.93,351.78c0,0.93,0.47,1.55,1.17,1.55
						c0.67,0,1.12-0.61,1.12-1.54c0-0.96-0.44-1.57-1.13-1.57C344.4,350.23,343.93,350.85,343.93,351.78z"/>
					<path class="st3" d="M351.23,351.81c0,1.32-0.68,2.12-1.82,2.12c-1.14,0-1.82-0.8-1.82-2.15c0-1.35,0.67-2.15,1.81-2.15
						C350.57,349.63,351.23,350.42,351.23,351.81z M348.27,351.78c0,0.97,0.44,1.56,1.15,1.56c0.71,0,1.15-0.59,1.15-1.54
						c0-0.99-0.43-1.58-1.15-1.58C348.7,350.22,348.27,350.81,348.27,351.78z"/>
					<path class="st3" d="M352.75,353.76h-0.64v-5.58h0.64V353.76z"/>
					<path class="st3" d="M357.19,351.81c0,1.32-0.68,2.12-1.82,2.12c-1.14,0-1.82-0.8-1.82-2.15c0-1.35,0.67-2.15,1.81-2.15
						C356.54,349.63,357.19,350.42,357.19,351.81z M354.23,351.78c0,0.97,0.44,1.56,1.15,1.56c0.71,0,1.15-0.59,1.15-1.54
						c0-0.99-0.43-1.58-1.15-1.58C354.66,350.22,354.23,350.81,354.23,351.78z"/>
					<path class="st3" d="M358.67,349.75v0.73c0.37-0.6,0.68-0.84,1.1-0.84c0.08,0,0.14,0.01,0.25,0.02v0.65
						c-0.88-0.02-1.28,0.41-1.29,1.37v2.08h-0.64v-4.01H358.67z"/>
					<path class="st3" d="M364.91,350.86c-0.02-0.42-0.29-0.64-0.8-0.64c-0.52,0-0.85,0.23-0.85,0.6c0,0.28,0.22,0.45,0.74,0.57
						l0.61,0.15c0.8,0.19,1.13,0.52,1.13,1.12c0,0.77-0.64,1.27-1.66,1.27c-1.05,0-1.57-0.44-1.6-1.37h0.67
						c0.04,0.28,0.08,0.4,0.18,0.51c0.16,0.17,0.45,0.27,0.8,0.27c0.56,0,0.94-0.25,0.94-0.64c0-0.28-0.18-0.44-0.62-0.55l-0.6-0.15
						c-0.95-0.23-1.27-0.53-1.27-1.16c0-0.74,0.61-1.22,1.54-1.22c0.93,0,1.45,0.44,1.46,1.23H364.91z"/>
					<path class="st3" d="M367.21,348.98h-0.64v-0.8h0.64V348.98z M367.21,353.76h-0.64v-4.01h0.64V353.76z"/>
					<path class="st3" d="M369.71,350.27h-0.66v2.75c0,0.28,0.08,0.36,0.35,0.36c0.13,0,0.21-0.01,0.31-0.03v0.54
						c-0.21,0.04-0.35,0.05-0.52,0.05c-0.5,0-0.77-0.22-0.77-0.64v-3.03h-0.54v-0.52h0.54v-1.1h0.64v1.1h0.66V350.27z"/>
					<path class="st3" d="M376.12,353.86c-0.21,0.05-0.3,0.07-0.44,0.07c-0.41,0-0.61-0.18-0.66-0.59
						c-0.45,0.41-0.86,0.59-1.36,0.59c-0.81,0-1.32-0.46-1.32-1.19c0-0.52,0.24-0.87,0.71-1.07c0.25-0.1,0.38-0.13,1.29-0.25
						c0.52-0.07,0.66-0.17,0.67-0.44v-0.17c0-0.38-0.31-0.6-0.9-0.6c-0.6,0-0.89,0.22-0.94,0.71h-0.64c0.02-0.4,0.09-0.63,0.28-0.83
						c0.28-0.3,0.74-0.47,1.33-0.47c0.99,0,1.51,0.38,1.51,1.09v2.36c0,0.2,0.12,0.31,0.35,0.31c0.04,0,0.07,0,0.14-0.02V353.86z
						 M375.01,351.77c-0.21,0.1-0.35,0.13-1.03,0.22c-0.69,0.1-0.97,0.31-0.97,0.73c0,0.41,0.29,0.64,0.79,0.64
						c0.38,0,0.69-0.12,0.95-0.36c0.19-0.18,0.25-0.31,0.25-0.52V351.77z"/>
					<path class="st3" d="M377.41,349.75v0.57c0.34-0.48,0.7-0.68,1.23-0.68c0.52,0,0.84,0.18,1.08,0.61
						c0.38-0.45,0.7-0.61,1.23-0.61c0.75,0,1.17,0.4,1.17,1.12v3.01h-0.64v-2.76c0-0.51-0.28-0.8-0.74-0.8
						c-0.52,0-0.94,0.47-0.94,1.05v2.52h-0.64v-2.76c0-0.51-0.27-0.8-0.74-0.8c-0.52,0-0.94,0.47-0.94,1.05v2.52h-0.64v-4.01H377.41
						z"/>
					<path class="st3" d="M383.64,351.97c0.01,0.4,0.06,0.63,0.21,0.86c0.21,0.34,0.56,0.52,0.97,0.52c0.51,0,0.87-0.28,1.05-0.8
						h0.64c-0.16,0.87-0.8,1.39-1.72,1.39c-1.13,0-1.82-0.8-1.82-2.13c0-1.32,0.72-2.17,1.84-2.17c0.75,0,1.36,0.4,1.63,1.06
						c0.12,0.3,0.16,0.67,0.16,1.28H383.64z M385.91,351.45c0-0.72-0.45-1.22-1.1-1.22c-0.64,0-1.1,0.48-1.15,1.22H385.91z"/>
					<path class="st3" d="M388.81,350.27h-0.66v2.75c0,0.28,0.08,0.36,0.35,0.36c0.13,0,0.21-0.01,0.31-0.03v0.54
						c-0.21,0.04-0.35,0.05-0.52,0.05c-0.5,0-0.77-0.22-0.77-0.64v-3.03h-0.54v-0.52h0.54v-1.1h0.64v1.1h0.66V350.27z"/>
					<path class="st3" d="M390.34,352.96v0.92c0,0.65-0.3,1.02-0.8,1v-0.29c0.36-0.01,0.46-0.17,0.46-0.7v-0.14h-0.46v-0.8H390.34z"
						/>
					<path class="st3" d="M349.82,358.16h-0.64v-0.8h0.64V358.16z M349.82,362.94h-0.64v-4.01h0.64V362.94z"/>
					<path class="st3" d="M351.5,358.93v0.67c0.35-0.56,0.74-0.79,1.33-0.79c0.77,0,1.27,0.43,1.27,1.09v3.03h-0.64v-2.78
						c0-0.48-0.32-0.79-0.83-0.79c-0.66,0-1.09,0.54-1.09,1.35v2.21h-0.64v-4.01H351.5z"/>
					<path class="st3" d="M359.32,360.04c-0.02-0.42-0.29-0.64-0.8-0.64c-0.52,0-0.85,0.23-0.85,0.6c0,0.28,0.22,0.45,0.74,0.57
						l0.61,0.15c0.8,0.19,1.13,0.52,1.13,1.12c0,0.77-0.64,1.27-1.66,1.27c-1.05,0-1.57-0.44-1.6-1.37h0.67
						c0.04,0.28,0.08,0.4,0.18,0.51c0.16,0.17,0.45,0.27,0.8,0.27c0.56,0,0.94-0.25,0.94-0.64c0-0.28-0.18-0.44-0.62-0.55l-0.6-0.15
						c-0.95-0.23-1.27-0.53-1.27-1.16c0-0.74,0.61-1.22,1.54-1.22c0.93,0,1.45,0.44,1.46,1.23H359.32z"/>
					<path class="st3" d="M361.45,361.15c0.01,0.4,0.06,0.63,0.21,0.86c0.21,0.34,0.56,0.52,0.97,0.52c0.51,0,0.87-0.28,1.05-0.8
						h0.64c-0.16,0.87-0.8,1.39-1.72,1.39c-1.13,0-1.82-0.8-1.82-2.13c0-1.32,0.72-2.17,1.84-2.17c0.75,0,1.36,0.4,1.63,1.06
						c0.12,0.3,0.16,0.67,0.16,1.28H361.45z M363.71,360.63c0-0.72-0.45-1.22-1.1-1.22c-0.64,0-1.1,0.48-1.15,1.22H363.71z"/>
					<path class="st3" d="M368.78,363.04c-0.21,0.05-0.3,0.07-0.44,0.07c-0.41,0-0.61-0.18-0.66-0.59
						c-0.45,0.41-0.86,0.59-1.36,0.59c-0.81,0-1.32-0.46-1.32-1.19c0-0.52,0.24-0.87,0.71-1.07c0.25-0.1,0.38-0.13,1.29-0.24
						c0.52-0.07,0.66-0.17,0.67-0.44V360c0-0.38-0.31-0.6-0.9-0.6c-0.6,0-0.89,0.22-0.94,0.71h-0.64c0.02-0.4,0.09-0.63,0.28-0.83
						c0.28-0.3,0.74-0.47,1.33-0.47c0.99,0,1.51,0.38,1.51,1.09v2.36c0,0.2,0.12,0.31,0.34,0.31c0.04,0,0.07,0,0.14-0.02V363.04z
						 M367.66,360.95c-0.21,0.1-0.35,0.13-1.03,0.22c-0.69,0.1-0.97,0.31-0.97,0.73c0,0.41,0.29,0.64,0.79,0.64
						c0.38,0,0.69-0.12,0.95-0.36c0.19-0.18,0.25-0.31,0.25-0.52V360.95z"/>
					<path class="st3" d="M373.02,359.45h-0.66v2.75c0,0.28,0.08,0.36,0.35,0.36c0.13,0,0.21-0.01,0.31-0.03v0.54
						c-0.21,0.04-0.35,0.05-0.52,0.05c-0.5,0-0.77-0.22-0.77-0.64v-3.03h-0.54v-0.52h0.54v-1.1h0.64v1.1h0.66V359.45z"/>
					<path class="st3" d="M377.02,360.99c0,1.32-0.68,2.12-1.82,2.12c-1.14,0-1.82-0.8-1.82-2.15c0-1.35,0.67-2.15,1.81-2.15
						C376.36,358.81,377.02,359.6,377.02,360.99z M374.05,360.96c0,0.97,0.44,1.56,1.15,1.56c0.71,0,1.15-0.59,1.15-1.54
						c0-0.99-0.43-1.58-1.15-1.58C374.49,359.4,374.05,359.99,374.05,360.96z"/>
					<path class="st3" d="M378.54,362.94h-0.64v-5.58h0.64V362.94z"/>
					<path class="st3" d="M380.24,362.94h-0.64v-5.58h0.64V362.94z"/>
					<path class="st3" d="M381.92,358.16h-0.64v-0.8h0.64V358.16z M381.92,362.94h-0.64v-4.01h0.64V362.94z"/>
					<path class="st3" d="M384.42,359.45h-0.66v2.75c0,0.28,0.08,0.36,0.35,0.36c0.13,0,0.21-0.01,0.31-0.03v0.54
						c-0.21,0.04-0.35,0.05-0.52,0.05c-0.5,0-0.77-0.22-0.77-0.64v-3.03h-0.54v-0.52h0.54v-1.1h0.64v1.1h0.66V359.45z"/>
				</g>
			</g>
			<path class="st3" d="M376.9,319.63c1.55-1.41,0.71-3.51-0.98-3.53c0,0-4.56,0-5.68,0c1.55-8.11-2.92-7.34-3.03-6.89
				c-0.07,0.29,0.06,2.04,0,2.75c-0.06,0.75-0.41,2.28-1.4,3.62c-1.2,1.61-2.04,2.28-2.42,2.54v-0.48c0-0.47-0.39-0.86-0.86-0.86
				h-5.78c-0.47,0-0.86,0.39-0.86,0.86v9.86c0,0.47,0.39,0.86,0.86,0.86h5.78c0.47,0,0.86-0.39,0.86-0.86v-0.23
				c0.55,0.14,1.38,0.88,2.07,1.09c1.91,0.59,7.05,0.23,8.65,0.13c1.65-0.1,2.52-1.45,1.81-2.74c0.82-0.37,1.61-1.75,0.6-2.98
				C377.26,322.29,377.99,321.02,376.9,319.63z"/>
		</g>
	</g>
	<g>
		<path class="st73" d="M304.11,339.89c0-0.03-0.01-0.06-0.01-0.08c-0.02-0.1-0.05-0.2-0.08-0.3c0-0.01-0.01-0.02-0.01-0.03
			c-0.03-0.1-0.07-0.2-0.11-0.3c0-0.01-0.01-0.01-0.01-0.02c-0.04-0.09-0.08-0.18-0.13-0.27c-0.01-0.01-0.01-0.03-0.02-0.04
			c-0.04-0.08-0.09-0.16-0.14-0.24c-0.01-0.02-0.02-0.04-0.03-0.05c-0.05-0.08-0.11-0.15-0.16-0.22c-0.01-0.02-0.03-0.04-0.04-0.05
			c-0.07-0.09-0.15-0.18-0.23-0.26l-16.53-16.5c-1.37-1.37-3.59-1.37-4.96,0c-1.37,1.37-1.37,3.58,0,4.95l10.54,10.52h-33.61
			c-5.8,0-10.52-4.71-10.52-10.5v-77c0-9.65-7.87-17.5-17.53-17.5h-36.84c-1.94,0-3.51,1.57-3.51,3.5c0,1.93,1.57,3.5,3.51,3.5
			h36.84c5.8,0,10.52,4.71,10.52,10.5v77c0,9.65,7.87,17.5,17.53,17.5h33.61l-10.54,10.52c-1.37,1.37-1.37,3.58,0,4.95
			c0.68,0.68,1.58,1.03,2.48,1.03c0.9,0,1.79-0.34,2.48-1.03l16.53-16.5c0.08-0.08,0.16-0.17,0.23-0.26
			c0.01-0.02,0.03-0.04,0.04-0.06c0.06-0.07,0.11-0.14,0.16-0.22c0.01-0.02,0.02-0.04,0.03-0.05c0.05-0.08,0.1-0.16,0.14-0.24
			c0.01-0.01,0.01-0.02,0.02-0.04c0.05-0.09,0.09-0.18,0.13-0.27c0-0.01,0.01-0.01,0.01-0.02c0.04-0.1,0.08-0.2,0.11-0.3
			c0-0.01,0.01-0.02,0.01-0.03c0.03-0.1,0.05-0.2,0.08-0.3c0.01-0.03,0.01-0.06,0.01-0.08c0.01-0.08,0.03-0.17,0.04-0.26
			c0.01-0.12,0.02-0.23,0.02-0.35c0-0.12-0.01-0.23-0.02-0.35C304.14,340.06,304.12,339.97,304.11,339.89z"/>
		<path class="st67" d="M304.11,106.54c0-0.03-0.01-0.06-0.01-0.08c-0.02-0.1-0.05-0.2-0.08-0.3c0-0.01-0.01-0.02-0.01-0.03
			c-0.03-0.1-0.07-0.2-0.11-0.3c0-0.01-0.01-0.01-0.01-0.02c-0.04-0.09-0.08-0.18-0.13-0.27c-0.01-0.01-0.01-0.03-0.02-0.04
			c-0.04-0.08-0.09-0.16-0.14-0.24c-0.01-0.02-0.02-0.04-0.03-0.05c-0.05-0.08-0.11-0.15-0.16-0.22c-0.01-0.02-0.03-0.04-0.04-0.06
			c-0.07-0.09-0.15-0.17-0.23-0.26l-16.53-16.5c-1.37-1.37-3.59-1.37-4.96,0c-1.37,1.37-1.37,3.58,0,4.95l10.54,10.53h-33.61
			c-9.67,0-17.53,7.85-17.53,17.5v77c0,5.79-4.72,10.5-10.52,10.5h-36.62c-1.94,0-3.51,1.57-3.51,3.5s1.57,3.5,3.51,3.5h36.62
			c9.67,0,17.53-7.85,17.53-17.5v-77c0-5.79,4.72-10.5,10.52-10.5h33.61l-10.54,10.52c-1.37,1.37-1.37,3.58,0,4.95
			c0.68,0.68,1.58,1.03,2.48,1.03c0.9,0,1.79-0.34,2.48-1.03l16.53-16.5c0.08-0.08,0.16-0.17,0.23-0.26
			c0.01-0.02,0.03-0.04,0.04-0.06c0.06-0.07,0.11-0.14,0.16-0.22c0.01-0.02,0.02-0.04,0.03-0.05c0.05-0.08,0.1-0.16,0.14-0.24
			c0.01-0.01,0.01-0.03,0.02-0.04c0.05-0.09,0.09-0.18,0.13-0.27c0-0.01,0.01-0.01,0.01-0.02c0.04-0.1,0.08-0.2,0.11-0.3
			c0-0.01,0.01-0.02,0.01-0.03c0.03-0.1,0.05-0.2,0.08-0.3c0.01-0.03,0.01-0.06,0.01-0.08c0.01-0.08,0.03-0.17,0.04-0.26
			c0.01-0.12,0.02-0.23,0.02-0.35c0-0.12-0.01-0.23-0.02-0.35C304.14,106.71,304.12,106.63,304.11,106.54z"/>
		<path class="st70" d="M304.11,223.21c0-0.03-0.01-0.06-0.01-0.08c-0.02-0.1-0.05-0.2-0.08-0.3c0-0.01-0.01-0.02-0.01-0.03
			c-0.03-0.1-0.07-0.2-0.11-0.3c0-0.01-0.01-0.01-0.01-0.02c-0.04-0.09-0.08-0.18-0.13-0.27c-0.01-0.01-0.01-0.02-0.02-0.04
			c-0.04-0.08-0.09-0.16-0.14-0.24c-0.01-0.02-0.02-0.04-0.03-0.05c-0.05-0.08-0.11-0.15-0.16-0.22c-0.01-0.02-0.03-0.04-0.04-0.05
			c-0.07-0.09-0.15-0.18-0.23-0.26l-16.53-16.5c-1.37-1.37-3.59-1.37-4.96,0c-1.37,1.37-1.37,3.58,0,4.95l10.54,10.53h-97.9
			c-1.94,0-3.51,1.57-3.51,3.5c0,1.93,1.57,3.5,3.51,3.5h97.9l-10.54,10.52c-1.37,1.37-1.37,3.58,0,4.95
			c0.68,0.68,1.58,1.03,2.48,1.03c0.9,0,1.79-0.34,2.48-1.03l16.53-16.5c0.08-0.08,0.16-0.17,0.23-0.26
			c0.01-0.02,0.03-0.04,0.04-0.05c0.06-0.07,0.11-0.14,0.16-0.22c0.01-0.02,0.02-0.04,0.03-0.05c0.05-0.08,0.1-0.16,0.14-0.24
			c0.01-0.01,0.01-0.03,0.02-0.04c0.05-0.09,0.09-0.18,0.13-0.27c0-0.01,0.01-0.01,0.01-0.02c0.04-0.1,0.08-0.2,0.11-0.3
			c0-0.01,0.01-0.02,0.01-0.03c0.03-0.1,0.05-0.2,0.08-0.3c0.01-0.03,0.01-0.06,0.01-0.08c0.01-0.08,0.03-0.17,0.04-0.26
			c0.01-0.12,0.02-0.23,0.02-0.35c0-0.12-0.01-0.23-0.02-0.35C304.14,223.38,304.12,223.3,304.11,223.21z"/>
		<path class="st74" d="M367.12,278.44c-30.26,0-54.88-24.57-54.88-54.78c0-30.21,24.62-54.78,54.88-54.78S422,193.45,422,223.66
			C422,253.86,397.38,278.44,367.12,278.44z M367.12,170.63c-29.29,0-53.12,23.79-53.12,53.03c0,29.24,23.83,53.03,53.12,53.03
			s53.12-23.79,53.12-53.03C420.24,194.42,396.41,170.63,367.12,170.63z"/>
		<path class="st74" d="M367.12,161.76c-30.26,0-54.88-24.57-54.88-54.78s24.62-54.78,54.88-54.78S422,76.78,422,106.99
			S397.38,161.76,367.12,161.76z M367.12,53.96c-29.29,0-53.12,23.79-53.12,53.03c0,29.24,23.83,53.03,53.12,53.03
			s53.12-23.79,53.12-53.03C420.24,77.75,396.41,53.96,367.12,53.96z"/>
		<path class="st74" d="M367.12,395.11c-30.26,0-54.88-24.57-54.88-54.78c0-30.21,24.62-54.78,54.88-54.78S422,310.12,422,340.33
			C422,370.54,397.38,395.11,367.12,395.11z M367.12,287.3c-29.29,0-53.12,23.79-53.12,53.03c0,29.24,23.83,53.03,53.12,53.03
			s53.12-23.79,53.12-53.03C420.24,311.09,396.41,287.3,367.12,287.3z"/>
		<path class="st74" d="M110.34,308.7c-46.89,0-85.03-38.08-85.03-84.88c0-46.8,38.15-84.88,85.03-84.88
			c38.97,0,72.86,26.3,82.42,63.96c0.12,0.47-0.16,0.95-0.63,1.06c-0.47,0.12-0.95-0.16-1.06-0.63
			c-9.37-36.88-42.56-62.63-80.73-62.63c-45.92,0-83.28,37.29-83.28,83.13c0,45.84,37.36,83.13,83.28,83.13
			c38.16,0,71.36-25.76,80.73-62.63c0.12-0.47,0.6-0.75,1.06-0.63c0.47,0.12,0.75,0.6,0.63,1.06
			C183.2,282.4,149.31,308.7,110.34,308.7z"/>
	</g>
</g>
</svg>
