<?xml version="1.0" encoding="UTF-8"?>
<svg width="1389px" height="1192px" viewBox="0 0 1389 1192" version="1.1" xmlns="http://www.w3.org/2000/svg" xmlns:xlink="http://www.w3.org/1999/xlink">
    <title>6462</title>
    <defs>
        <path d="M66.2248863,34 L39.198543,34 C27.4089204,33.9850467 17.4111644,33.9514019 11.6607955,33.8803738 C1.80748186,33.7607477 0.0819808189,25.4915888 0,20.1383178 L111.778895,0 C110.615548,12.2654206 109.936278,20.0971963 109.92847,21.5850467 C109.92847,21.611215 109.92847,21.6411215 109.92847,21.6672897 C109.92847,22.5046729 110.006547,23.2859813 110.15099,24.011215 C112.020933,33.5663551 125.286211,33.8803738 127,33.8803738 C124.42346,33.8878505 95.2343846,33.9738318 66.2248863,34 L66.2248863,34 Z" id="path-1"></path>
    </defs>
    <g id="Page-1" stroke="none" stroke-width="1" fill="none" fill-rule="evenodd">
        <g id="6461">
            <polygon id="Fill-1" fill="#F6F7F9" points="0 1192 1389 1192 1389 0 0 0"></polygon>
            <g id="Group" transform="translate(127.000000, 598.000000)">
                <path d="M75.5556202,593.703807 C75.5556202,593.703807 -55.7835647,452.489706 53.344161,299.607144 C150.169419,163.956023 263.058211,173.228825 345.883384,228.275979 C381.158942,251.721245 482.864168,231.165423 569.426278,93.1373503 C687.477194,-95.0947246 1096.676,19.0687344 1022.06571,308.668324 C985.961189,448.814569 1131.95156,453.908316 1057.5631,594 L75.5556202,593.703807" id="Fill-3" fill="#EBF3FA"></path>
                <polyline id="Fill-4" fill="#DFEBFD" points="181.21201 401 267 494.211604 173.78838 580 88 486.788396 181.21201 401"></polyline>
                <polyline id="Fill-5" fill="#BED7FB" points="180.798986 401 198 419.85148 105.201403 506 88 487.14852 180.798986 401"></polyline>
                <polyline id="Fill-6" fill="#9EC3F6" points="455 36.8540359 518 46 476.192343 17 474.068877 26.2966938 458.74684 29.1202327 455 36.8540359"></polyline>
                <polyline id="Fill-7" fill="#CDE0FB" points="518 44 464.972763 17.5311242 413 15 518 44"></polyline>
                <polyline id="Fill-8" fill="#CDE0FB" points="475 16.2069502 518 45 484.713379 0 475 16.2069502"></polyline>
                <path d="M811,160.919946 L795.040683,172 L779,161.039889 C782.552973,156.200213 788.426807,153 795.040683,153 C801.615813,153 807.447027,156.120002 811,160.919946" id="Fill-9" fill="#FFFFFF"></path>
                <path d="M793.604733,125 C777.242734,125 762.773826,133.187869 754,145.70343 L764.334934,153 C770.828356,143.751477 781.542698,137.727453 793.604733,137.727453 C805.583771,137.727453 816.211166,143.666799 822.70854,152.788108 L833,145.363925 C824.1827,133.018117 809.80074,125 793.604733,125" id="Fill-10" fill="#FFFFFF"></path>
                <path d="M793.72824,71 C759.546854,71 729.317727,87.9434802 711,113.857198 L721.198624,121 C737.269064,98.3255452 763.791729,83.4585558 793.72824,83.4585558 C823.415053,83.4585558 849.769951,98.0764908 865.883309,120.460252 L876,113.192535 C857.639356,87.6527871 827.620912,71 793.72824,71" id="Fill-11" fill="#FFFFFF"></path>
                <path d="M793.664887,101 C769.48662,101 748.039659,112.828218 735,130.960216 L745.141526,138 C755.94648,123.06093 773.668933,113.278871 793.664887,113.278871 C813.497894,113.278871 831.092317,122.897161 841.939948,137.631806 L852,130.509946 C838.917664,112.623794 817.63753,101 793.664887,101" id="Fill-12" fill="#FFFFFF"></path>
                <path d="M376.934131,319.700378 C367.066454,329.595285 356.196076,338.192627 344.455134,345.43413 C316.005988,324.649774 285.607404,306.856811 253.937175,292.45539 C258.291156,284.479247 262.582177,276.05595 266.771762,267.262808 C295.760345,271.103058 323.62769,273.407596 349.072227,274.003544 C355.714157,274.195459 362.161764,274.195459 368.41505,274.147286 C384.633173,273.95537 399.071306,272.993074 411.437965,271.261563 C402.775085,289.203706 391.177942,305.462123 376.934131,319.700378 Z M196.565127,363.638894 C209.774367,356.715956 223.046178,340.822722 233.267132,326.17655 C238.538702,318.624253 243.806775,310.263892 249.007612,301.239208 C278.994234,314.81314 307.827359,331.491129 334.913918,350.919646 C290.267248,374.769208 239.9899,377.469232 196.565127,363.638894 Z M84.9546692,260.067536 C98.6951855,260.620361 124.169259,262.701127 156.708496,270.104243 C159.036864,270.634147 161.363288,271.189303 163.688935,271.756114 C162.014267,281.520099 160.778379,290.850915 160.01547,299.619194 C158.569714,316.235023 158.467112,335.39548 163.103637,349.074306 C148.992354,341.133516 136.051668,331.308538 124.43859,319.700378 C107.12721,302.396916 93.8060412,282.135083 84.9546692,260.067536 Z M168.203427,249.041338 C167.230261,253.380412 166.332882,257.656551 165.509345,261.865868 C163.319723,261.335187 161.129324,260.815384 158.936982,260.31656 C121.8988,251.888989 94.1056859,250.17496 81.2221301,249.884756 C78.0309724,240.275779 75.6843387,230.448081 74.1989405,220.416424 C99.4324436,230.119028 127.83534,239.425369 168.203427,249.041338 Z M53.9396947,202.137069 C19.8210075,185.493268 4.22937875,169.427155 11.207097,158.02645 C16.8373858,148.790426 37.3372024,142.537249 68.7128387,140.228437 C62.387654,161.568337 60.1879278,183.754375 61.4949383,205.696827 C58.8960744,204.542227 56.3939829,203.339842 53.9396947,202.137069 Z M91.1379987,113.242574 L91.1422738,113.23325 C113.197833,140.789809 145.70559,168.960575 183.688567,193.3921 C178.302735,209.777165 173.707795,225.880573 169.999351,241.312666 C138.507122,233.696656 101.903832,222.924533 72.9960866,210.699835 C70.5985404,186.738386 73.2090636,162.482072 80.4067545,139.602964 C83.2007178,130.730569 86.9072177,121.585453 91.1379987,113.242574 Z M76.2715801,37.3043077 C82.0763701,28.0931475 95.0485368,23.3391631 113.263125,23.3391631 C121.974585,23.3391631 131.892009,24.4261655 142.790758,26.6382426 C146.929042,27.4754442 151.155548,28.46105 155.454342,29.5946715 L155.465612,29.5973909 C129.46065,44.6312787 106.555515,66.3880315 89.5018065,93.6644876 L89.4928677,93.6788618 C73.3979447,69.79045 68.5593242,49.5344442 76.2715801,37.3043077 Z M250.710262,14.9675354 C263.079253,14.9675354 275.244594,16.2114889 287.136719,18.679971 C273.11016,24.7831902 258.789009,41.7700305 247.918631,57.347031 C236.792913,73.2892146 225.68274,92.8000915 215.191678,114.639593 C186.873117,99.258393 160.123902,75.6784443 147.337896,47.9012212 C177.191601,26.6755378 213.093,14.9675354 250.710262,14.9675354 Z M376.934131,67.255924 C400.089553,90.4034804 415.452659,118.20479 423.221657,147.277248 C382.064235,150.285734 344.3502,149.341309 310.6392,144.463395 C315.988888,122.613793 319.590454,102.059425 321.169904,83.9039987 C322.912585,63.8554481 322.702717,40.1084475 314.569948,26.7446895 C338.128006,35.7922944 359.169204,49.4458679 376.934131,67.255924 Z M298.194813,152.635338 C293.565671,170.046801 287.863483,188.181248 281.219999,206.491294 C278.659611,213.54904 276.007891,220.496842 273.280386,227.306341 C248.324764,218.147239 221.837106,205.047267 195.796389,188.866161 C197.141875,184.93345 198.530501,180.98753 199.965375,177.033064 C206.137434,160.021748 212.836494,143.649115 219.86085,128.316088 C244.439488,140.223775 271.064726,147.910491 298.194813,152.635338 Z M300.412416,26.8907628 C305.888413,28.8759601 308.667608,36.7320581 310.035247,42.9728037 C312.196886,52.8354661 312.587474,66.6887248 311.165813,83.0341637 C309.608905,100.926192 306.024828,121.247853 300.690686,142.885722 C274.463031,138.374939 248.253253,130.937636 224.121945,119.229634 C234.406637,97.7902793 245.28168,78.6706145 256.154779,63.0905061 C265.545589,49.6338983 274.729641,39.2522098 282.71317,33.0674071 C286.879047,29.8401988 292.48524,26.3857223 297.394205,26.3857223 C298.438492,26.3857223 299.452077,26.5422849 300.412416,26.8907628 Z M139.153049,54.0833044 C153.502182,83.470441 181.156161,107.682856 210.915037,123.743529 C203.705687,139.447567 196.839121,156.207916 190.524818,173.610444 C189.347615,176.855134 188.203058,180.093997 187.084151,183.326256 C149.370894,158.787119 117.441051,130.629561 96.4954592,103.379134 L96.486909,103.368257 C107.541117,84.5170401 121.94466,67.8744043 139.153049,54.0833044 Z M202.203577,248.508715 C194.608692,246.946586 187.124182,245.314528 179.768312,243.619535 C183.231132,229.216171 187.485232,214.200154 192.451328,198.89976 C218.266631,214.762691 244.519937,227.666474 269.377621,236.824022 C266.25914,244.265987 263.056323,251.523029 259.784716,258.546199 C240.903602,255.838794 221.585653,252.481052 202.203577,248.508715 Z M244.721643,288.380102 C222.068349,278.622721 198.777678,270.558779 175.25421,264.333574 C176.083577,260.06637 176.992615,255.724577 177.98016,251.316739 C184.521431,252.803501 191.155199,254.242477 197.872137,255.627842 C217.528985,259.64641 237.138029,263.058541 256.332778,265.819169 C252.531449,273.681872 248.650836,281.218629 244.721643,288.380102 Z M180.772958,356.634372 C175.297349,354.649175 172.517766,346.793854 171.150127,340.550777 C168.988876,330.686949 168.5979,316.837187 170.01995,300.489417 C170.738941,292.222294 171.895158,283.434202 173.451289,274.241301 C195.895104,280.220591 218.121278,287.910026 239.764098,297.175575 C234.888945,305.578671 229.95977,313.371833 225.030984,320.434629 C215.639785,333.892014 206.456122,344.272537 198.472204,350.457339 C193.420218,354.36946 186.249343,358.619569 180.772958,356.634372 Z M415.336066,262.699185 C402.487488,265.007997 386.463687,266.354901 367.742695,266.547205 C338.695426,266.90151 305.335761,264.608626 270.179783,259.977017 C273.138143,253.539694 276.037817,246.92483 278.86637,240.15962 C289.776001,243.807954 300.363059,246.697562 310.460424,248.745695 C322.026476,251.092968 332.585939,252.251841 342.006675,252.251841 C364.093326,252.251841 379.915032,245.878231 387.730667,233.477546 C389.01708,231.435241 390.066419,229.269394 390.874799,226.981561 L379.615776,226.981561 C379.429227,227.323823 379.231018,227.662589 379.025037,227.992419 C373.218692,237.203579 360.245748,241.961837 342.03388,241.957563 C333.320477,241.957563 323.402276,240.870561 312.504304,238.658484 C303.003896,236.732338 293.04139,234.026486 282.769135,230.618629 C285.479928,223.838656 288.115713,216.928926 290.660556,209.913914 C297.523624,190.998597 303.398759,172.248 308.151489,154.241755 C346.666519,159.917632 386.906742,160.088181 425.561295,157.174097 C428.005868,169.027007 429.241756,181.158078 429.241756,193.478345 C429.241756,217.482139 424.574139,240.764114 415.336066,262.699185 Z M460.617004,231.67261 L445.941798,231.335786 C450.656053,237.444833 451.717051,243.072926 448.778901,247.835068 C445.844637,252.693557 438.81795,256.686485 428.328442,259.716339 C436.268444,238.599433 440.263706,216.327539 440.263706,193.478345 C440.263706,144.064025 421.029704,95.6951386 384.730334,59.510935 C349.59301,24.3884817 302.098744,4 250.710262,4 C221.854206,4 193.971704,10.3926462 168.614223,22.6157899 L168.58935,22.6282216 C160.437149,20.1414803 152.49637,18.103448 144.834638,16.5510314 C106.159098,8.70581123 78.7126544,14.1280029 67.5640064,31.8191803 C56.9547965,48.6444076 62.7304382,73.9721846 83.7829069,103.51161 L83.775134,103.525596 C79.071373,112.21268 74.5436679,122.517058 71.2153188,132.387491 C31.6591103,134.744475 10.4853847,141.703155 2.78595413,154.306633 C-6.16491085,168.978057 6.05833844,188.668418 45.1815972,207.813335 C50.5709266,210.45897 56.345791,213.056431 62.4090295,215.653893 C67.0956901,256.817018 85.8547692,296.717154 116.642387,327.49354 C134.062587,344.85916 154.321832,358.522446 176.891179,368.094905 C246.030208,397.247392 328.450765,383.595761 384.730334,327.49354 C401.667449,310.563031 415.095107,290.83926 424.574139,269.000535 C443.870325,265.007997 456.575104,258.754819 461.627479,250.480703 C465.140823,244.756653 464.709428,238.406741 460.617004,231.67261 L460.617004,231.67261 Z" id="Fill-13" fill="#ADCBF9"></path>
                <path d="M373.621309,260.962315 L347.218699,573.968506 C347.218699,573.968506 344.45122,592.940589 358.605681,592.975715 C381.880688,593.030356 474.444442,592.975715 474.444442,592.975715 C474.444442,592.975715 456.931428,589.025962 457.142806,580.139019 C457.393327,569.663588 488,258 488,258 L373.621309,260.962315" id="Fill-14" fill="#D86713"></path>
                <path d="M481.272418,586.869037 C476.699165,586.880742 388.340323,587.157761 365.689225,586.869037 C355.815067,586.744184 354.085916,578.11369 354.003762,572.526498 C353.960729,569.849952 354.301082,567.871805 354.301082,567.871805 L380.688242,254.958637 L495,252 C495,252 482.117433,382.386405 473.006136,477.298434 C471.988988,487.875861 471.018786,498.012401 470.122913,507.477852 C469.833418,510.501647 469.555658,513.455211 469.285723,516.330742 C468.440708,525.312387 467.66611,533.556616 466.993228,540.841034 C466.641138,544.676376 466.312521,548.242503 466.019113,551.508201 C464.853306,564.30958 464.172599,572.483579 464.164775,574.036444 C464.160863,574.941632 464.235193,575.784392 464.387765,576.568628 C466.261664,586.541297 479.555003,586.869037 481.272418,586.869037" id="Fill-15" fill="#F99746"></path>
                <polyline id="Fill-16" fill="#F99746" points="96 91 198.514478 503 752 503 642.191286 91 96 91"></polyline>
                <polyline id="Fill-17" fill="#EE9849" points="96.914038 91 88 93.9495108 188.148154 511 200 502.076457 96.914038 91"></polyline>
                <polyline id="Fill-18" fill="#D86713" points="189 511 738.819109 511 754 501 200.780854 501 189 511"></polyline>
                <polygon id="Fill-19" fill="#F1A34F" points="380 593 500 593 500 587 380 587"></polygon>
                <polyline id="Fill-20" fill="#F1A34F" points="726.482142 427 636.615184 97.4296599 96 97.4296599 96 92 643.433027 92 733 426.27004 726.482142 427"></polyline>
                <polyline id="Fill-21" fill="#D86713" points="470 511 469.382791 515.493428 357 539 359.277422 511 470 511"></polyline>
                <g id="Group-24" transform="translate(354.000000, 552.000000)">
                    <mask id="mask-2" fill="white">
                        <use xlink:href="#path-1"></use>
                    </mask>
                    <g id="Clip-23"></g>
                    <polygon id="Fill-22" fill="#EC8432" mask="url(#mask-2)" points="0 34 127 34 127 0 0 0"></polygon>
                </g>
                <path d="M407.015167,587.001 C402.529828,587.001 398.157735,587 394,586.999 L422,586.999 C416.956522,587 411.917088,587.001 407.015167,587.001" id="Fill-25" fill="#E78B37"></path>
                <polyline id="Fill-26" fill="#EC8432" points="200.799152 503 200.799152 503 171 383 444 419.408354 200.80071 503"></polyline>
                <polyline id="Fill-27" fill="#699DEE" points="97 91 643.352926 91 732 422 176.600882 422 97 91"></polyline>
                <path d="M491.73008,463.498079 C490.203151,455.492251 482.594897,449 474.73404,449 C466.873182,449 461.741947,455.492251 463.268876,463.498079 C464.795805,471.507749 472.407829,478 480.264916,478 C488.125773,478 493.26078,471.507749 491.73008,463.498079" id="Fill-28" fill="#D86713"></path>
                <polyline id="Fill-29" fill="#E9F3FE" points="706 408 194.099934 408 119 109 623.520394 109 623.875036 110.282585 706 408"></polyline>
                <polyline id="Fill-30" fill="#E9F3FE" points="706 408 194.099934 408 119 109 623.520394 109 623.875036 110.282966 706 408"></polyline>
                <polyline id="Fill-31" fill="#AFCDFB" points="630 132 125.846585 132 120 109 623.394876 109 623.939468 110.265311 630 132"></polyline>
                <path d="M134.149594,121 C133.481927,118.238602 135.11182,116 137.7906,116 C140.46938,116 143.182312,118.238602 143.850406,121 C144.518073,123.761398 142.88818,126 140.2094,126 C137.53062,126 134.817688,123.761398 134.149594,121" id="Fill-32" fill="#E9F3FE"></path>
                <path d="M147.149764,121 C146.481653,118.238602 148.111589,116 150.790438,116 C153.469288,116 156.18229,118.238602 156.850402,121 C157.518087,123.761398 155.888151,126 153.209301,126 C150.530451,126 147.817449,123.761398 147.149764,121" id="Fill-33" fill="#E9F3FE"></path>
                <path d="M164.149566,121 C163.481906,118.238602 165.112208,116 167.790958,116 C170.469707,116 173.182608,118.238602 173.850268,121 C174.518354,123.761398 172.888052,126 170.209303,126 C167.530553,126 164.817653,123.761398 164.149566,121" id="Fill-34" fill="#E9F3FE"></path>
                <path d="M354,408 L302.867323,408 C302.377165,404.029218 301.945276,399.831535 301.55748,395.449983 C300.87126,387.598398 300.345669,379.148262 299.957874,370.361686 C299.864567,368.331306 299.784252,366.28919 299.708661,364.227513 C299.61063,361.606406 299.525591,358.954002 299.45,356.289862 C299.325197,351.763562 299.227165,347.186405 299.155906,342.581864 L299.151575,342.566215 C299.062205,336.694153 299.017717,330.78297 299.004331,324.89526 L299.004331,324.891348 C299,323.420398 299,321.949448 299,320.486323 L299,320.482411 C299,319.097527 299.004331,317.728292 299.009055,316.355145 C299.05315,303.679941 299.244882,291.247288 299.516929,279.685467 C300.104724,254.107766 301.058661,232.793472 301.566535,222.548464 L301.566535,222.54377 C301.77126,218.337871 301.905118,216 301.905118,216 L301.918504,216.004695 C302.034252,216.022299 302.809449,216.163917 304.030315,216.456151 C304.925984,216.673272 306.062205,216.96981 307.354331,217.363758 L307.359055,217.363758 C308.526378,217.7135 309.814173,218.147352 311.168504,218.656707 L311.18189,218.66101 C313.485433,219.542015 315.967323,220.666744 318.301969,222.079012 C318.337795,222.096617 318.373228,222.114612 318.409055,222.132217 C322.228346,224.487692 325.677165,227.609157 327.248031,231.730945 C328.598425,235.233448 331.759843,254.054562 335.57874,279.052489 C335.685039,279.765274 335.791339,280.482362 335.901575,281.208839 C337.92126,294.482594 340.102362,309.375959 342.295276,324.586204 C344.61811,340.700144 346.937008,357.16226 349.074803,372.415538 C350.893701,385.497601 352.582677,397.687704 354,408" id="Fill-35" fill="#2B478B"></path>
                <path d="M340,408 L281.30251,408 C280.177326,403.113059 279.122805,398.398553 278.186705,393.974049 C275.607479,381.786089 273.911549,371.800584 274.003567,366.431611 C274.047441,363.91564 274.987812,361.948323 276.604925,360.435605 C277.712249,359.397081 279.136006,358.5741 280.810193,357.931391 C285.762479,356.030696 292.876608,355.721098 300.324643,356.199211 C302.855725,356.359889 305.42175,356.606783 307.952832,356.916381 C321.90426,358.625046 334.855525,362.112919 334.855525,362.112919 C334.855525,362.112919 335.72135,365.647819 336.74248,371.824097 C337.511239,376.460225 338.369298,382.589475 339.006049,389.827791 C339.374898,394.032833 339.67386,398.614095 339.840812,403.497117 C339.891287,404.966726 339.941761,406.467687 340,408" id="Fill-36" fill="#233862"></path>
                <path d="M313,367.29739 L307.314949,408 L246.012811,408 C245.537339,399.647297 245.096884,391.506006 245.013229,384.410245 C245.004669,383.626098 245,382.853483 245,382.096243 C245,371.414162 245.951335,363.491971 249.051246,361.489321 C252.565542,359.225289 264.221629,359.84415 276.635282,361.347099 C277.8726,361.493165 279.118868,361.654607 280.365136,361.819893 C287.600338,362.780858 294.839819,363.96861 300.661443,364.991076 C303.681979,365.521528 306.320035,366.009698 308.371728,366.397928 C311.26931,366.947599 313,367.29739 313,367.29739" id="Fill-37" fill="#C65447"></path>
                <path d="M245,227.833309 C245,227.833309 278.674048,206.021042 302.827203,217.176021 C306.676099,218.9536 311.066557,223.914139 314.209323,227.383555 C322.940049,237.020519 340,390.105477 340,390.105477 C340,390.105477 291.572693,406.536681 245,384.532275 L245,227.833309" id="Fill-38" fill="#FFFFFF"></path>
                <path d="M306,216 C306,216 339.895873,230.028307 344.487688,240.807173 C349.079503,251.586038 364,317.776521 364,325.538773 C364,333.301025 338.019689,327.273267 333.837927,314.756783 C330.364085,304.361538 318.648961,272.42536 312.47148,252.226707 L306,216" id="Fill-39" fill="#2B478B"></path>
                <path d="M297.46888,227.462665 C290.001096,228.970188 279.031508,227.362994 271,221.913645 C274.625949,212.997515 276.112557,205.95745 276.641536,201.401925 C276.672377,201.15958 276.69541,200.925272 276.718443,200.698601 C276.958143,198.337445 276.923398,196.735475 276.811356,196 L296.117347,196 C296.117347,196 301.39543,198.48454 301.39543,200.201854 C301.39543,201.119792 301.403238,201.998343 301.418853,202.837106 C301.457502,205.122706 301.546121,207.118135 301.662067,208.83143 C302.029034,214.408583 302.650536,217.035797 302.650536,217.035797 C302.650536,217.035797 305.009667,225.940271 297.46888,227.462665" id="Fill-40" fill="#FFB27D"></path>
                <path d="M302,209.370407 C287.62097,212.344552 279.273565,203.933967 277.402594,201.77648 C277.136629,201.467974 277,201.285171 277,201.285171 C277.15198,201.203833 277.311253,201.130712 277.478201,201.057591 C282.830519,198.737429 294.977433,200.582303 301.7609,203.243423 C301.798895,205.579605 301.886015,207.619195 302,209.370407" id="Fill-41" fill="#E2915A"></path>
                <path d="M272.602213,194.047825 C275.160323,207.963507 292.925331,207.506628 300.602334,206.631878 C302.763067,206.388956 304.12217,206.110117 304.12217,206.110117 C306.558392,205.452412 307.917495,201.574157 308.549094,196.494038 C309.802357,186.440003 308.218966,171.681625 306.539287,167.907259 C304.009835,162.227365 299.24667,156.084027 281.356335,160.516484 C263.462943,164.952031 269.319657,176.217585 272.602213,194.047825" id="Fill-42" fill="#FFB27D"></path>
                <path d="M306.675355,160.683162 C304.199882,157.236613 298.951494,153.024813 294.185048,150.43105 C283.944714,144.858759 270.838247,150.606509 270.783323,150.63063 C255.990826,157.172421 252.127929,168.555487 259.970536,186.287766 C268.263756,205.038954 276.160127,202.928774 276.160127,202.928774 C276.160127,202.928774 274.484154,201.880298 274.63539,196.036065 C274.644286,195.703821 274.657437,195.426432 274.672522,195.187558 C274.74872,193.990078 274.32905,192.789096 273.439041,191.989998 C271.601776,190.340447 270.705964,185.352113 272.244625,183.963222 C274.100456,182.287606 276.708985,184.323089 277.542136,185.888217 C278.27008,186.993493 279.573958,187.380982 280.788487,186.608728 C285.392479,183.681165 282.401799,177.825649 286.801178,174.243713 C291.200557,170.661387 300.12773,173.669093 306.727572,170.814282 C315.366585,167.57665 308.540469,163.280815 306.675355,160.683162" id="Fill-43" fill="#233862"></path>
                <path d="M309,408 L236,408 C236.521376,392.750911 237.19227,374.544092 237.898026,356.110956 C238.077757,351.330983 238.266397,346.5315 238.45039,341.771037 C238.53367,339.753693 238.608042,337.748056 238.687062,335.742418 C240.300384,294.80634 241.900535,257.838615 242.237919,255.847025 C243.005264,251.342534 243.72845,247.504899 244.513226,244.174916 C246.805963,234.477229 249.655713,229.160338 255.87194,224.585222 C256.476984,224.121271 261.448262,221.599787 265.827665,219.400609 C269.404863,217.612314 272.587348,216.048775 272.683799,216.004682 L272.683799,216 L272.688447,216 C273.411633,216.353523 274.209579,217.369218 275.051295,218.875398 C275.893011,220.380796 276.778498,222.386044 277.685677,224.726475 C281.021941,233.360081 284.625478,246.573097 287.128548,256.442863 L287.137457,256.473689 L287.142105,256.491638 L287.142105,256.49593 C288.75504,262.868317 289.912448,267.827783 290.24131,269.253971 C290.802196,271.656444 291.53894,276.306479 292.411257,282.603947 L292.411257,282.621506 C293.590744,291.212581 294.997607,302.864009 296.488525,316.091852 L296.488525,316.095754 C296.641917,317.457558 296.794921,318.831069 296.948312,320.216286 C297.12417,321.800505 297.303514,323.404235 297.483246,325.023573 L297.483246,325.031377 C297.540574,325.550345 297.597515,326.073216 297.650194,326.592184 L297.650194,326.596086 C298.22425,331.836497 298.802954,337.236891 299.377398,342.734835 L299.381659,342.750444 C299.872434,347.280687 306.694093,350.562285 307.167437,355.178373 C307.202299,355.513947 307.237548,356.192898 307.281318,357.137186 C307.36886,359.092098 307.47422,362.186399 307.601271,365.768452 C307.653951,367.360475 307.710892,369.053952 307.772481,370.778644 C308.039754,378.453915 308.368616,386.862765 308.741249,390.909158 C308.75868,391.100357 308.77611,391.342282 308.78928,391.638836 C308.833439,392.446554 308.8683,393.632767 308.898901,395.12724 C308.96049,398.29568 308.991091,402.833727 309,408" id="Fill-44" fill="#2B478B"></path>
                <path d="M260.080328,273 C260.058534,273.091922 258.912409,313.800166 289.898645,318.746246 C320.884881,323.692327 300.296663,325 300.296663,325 C300.296663,325 241.996072,322.550036 241.033639,321.030828 C240.071205,319.507774 260.080328,273 260.080328,273" id="Fill-45" fill="#233862"></path>
                <path d="M285,336.368759 C285,336.368759 284.41548,336.782706 283.293391,337.50516 L283.235095,337.540307 C278.483038,340.566806 264.378277,348.822315 243.841845,354.355927 C241.686869,354.937796 239.457557,355.492329 237.162907,356 C237.344836,351.220084 237.53459,346.416736 237.72004,341.652441 C235.00754,341.441562 232.411241,341.097908 230,340.586332 C230.08177,339.957601 230.16667,339.32887 230.247658,338.696234 C232.859998,337.62622 235.456298,336.595258 237.960264,335.618968 C239.999431,334.822315 241.972869,334.064714 243.841845,333.36569 C252.277862,330.167364 258.531125,328 258.531125,328 L283.502315,335.892329 L285,336.368759" id="Fill-46" fill="#233862"></path>
                <path d="M292,336.817946 C292,336.817946 288.789038,337.611286 283.676952,338.629083 L283.622522,338.640693 C274.195609,340.509879 258.347554,343.137576 244.19152,342.994388 C242.104004,342.971168 240.051337,342.893769 238.064457,342.738971 C235.349628,342.529994 232.751098,342.189438 230.337787,341.682475 C225.163831,340.602758 220.829815,338.776141 217.994771,335.920118 C196.937519,314.724396 229.486098,238.646576 236.329363,231.243746 C244.319567,222.600985 258.901249,219.569652 266.953323,218.528635 C267.290083,218.486453 267.611571,218.44427 267.925227,218.405958 C270.756355,218.072755 272.572898,218.004257 272.673534,218 L272.67745,218 C272.67745,218 272.046222,220.005796 270.988954,223.408644 C270.578186,224.725201 270.102024,226.252671 269.579264,227.955836 C264.633599,243.963115 255.089994,275.422334 250.884418,293.164898 C249.342764,299.654806 248.517704,304.310357 248.893621,305.69967 C250.535519,311.756143 267.549701,314.875324 278.328351,316.253026 C282.824873,316.825779 286.236715,317.096676 286.999906,317.154725 C287.053944,317.154725 287.104458,317.158595 287.158496,317.166335 L287.782284,319.693413 L289.273424,325.753756 L292,336.817946" id="Fill-47" fill="#2B478B"></path>
                <polyline id="Fill-48" fill="#F99746" points="350.32632 373 278 369.991885 292.67368 281 365 284.008502 350.32632 373"></polyline>
                <path d="M288.03722,315.145634 C288.03722,315.145634 302.155573,314.102754 302.863611,317.598488 C304.51413,325.745469 290.726037,332.436589 286.259074,331.977721 C281.792503,331.523026 284.788019,314.603336 288.03722,315.145634" id="Fill-49" fill="#FFB27D"></path>
                <path d="M361.048115,301.269456 C361.048115,301.269456 347.976968,297.073935 346.574859,300.091903 C343.303273,307.122129 354.873518,316.374889 359.174837,316.983162 C363.476157,317.591434 364.220908,301.519004 361.048115,301.269456" id="Fill-50" fill="#FFB27D"></path>
                <path d="M274.87562,212 C274.87562,212 268.963622,214.812758 266,219.057841 C266,219.057841 288.098172,257.356452 287.999672,256.997492 C287.90078,256.638533 280.529641,216.905646 274.87562,212" id="Fill-51" fill="#233862"></path>
                <path d="M302,212 C304.127596,212.731385 308.208444,216.539333 309.128023,218.644739 L312,252 C312,252 305.868045,227.521389 302.746945,216.456424 C301.953423,213.643766 302.099564,212.789381 302,212" id="Fill-52" fill="#233862"></path>
                <path d="M317,280.589195 C317,280.589195 317.573544,277.690418 320.876136,278.027232 C324.179906,278.364046 342.729733,279.418518 342.729733,279.418518 C342.729733,279.418518 346.30849,279.350429 345.978506,282 L317,280.589195" id="Fill-53" fill="#C65447"></path>
                <path d="M296,196.191811 C296,196.191811 298.435836,198.603502 302.365117,197.85643 C304.695669,197.413625 306,194.121503 306,194.121503 C306,194.121503 301.521653,193.246683 296,196.191811" id="Fill-54" fill="#FFFFFF"></path>
                <polyline id="Fill-55" fill="#FFFFFF" points="637 224.804179 584.141592 225 567 159.195821 619.858408 159 637 224.804179"></polyline>
                <polyline id="Fill-56" fill="#ADCBF9" points="606 167.922341 584.250951 168 584 167.077659 605.749049 167 606 167.922341"></polyline>
                <polyline id="Fill-57" fill="#ADCBF9" points="611 170.904367 583.251138 171 583 170.095633 610.748862 170 611 170.904367"></polyline>
                <polyline id="Fill-58" fill="#ADCBF9" points="619 183.87899 582.256014 184 582 183.120659 618.740047 183 619 183.87899"></polyline>
                <polyline id="Fill-59" fill="#ADCBF9" points="619 186.879298 582.256014 187 582 186.121053 618.740047 186 619 186.879298"></polyline>
                <polyline id="Fill-60" fill="#ADCBF9" points="620 189.879298 583.259953 190 583 189.120702 619.743986 189 620 189.879298"></polyline>
                <polyline id="Fill-61" fill="#ADCBF9" points="620 192.87899 583.259953 193 583 192.120659 619.740047 192 620 192.87899"></polyline>
                <polyline id="Fill-62" fill="#ADCBF9" points="621 196.879298 584.256014 197 584 196.120702 620.740047 196 621 196.879298"></polyline>
                <polyline id="Fill-63" fill="#ADCBF9" points="624 204.87899 587.256014 205 587 204.12101 623.740047 204 624 204.87899"></polyline>
                <polyline id="Fill-64" fill="#ADCBF9" points="624 207.87899 587.259953 208 587 207.120659 623.743986 207 624 207.87899"></polyline>
                <polyline id="Fill-65" fill="#ADCBF9" points="626 210.87899 589.259953 211 589 210.120659 625.740047 210 626 210.87899"></polyline>
                <polyline id="Fill-66" fill="#ADCBF9" points="626 212.879298 589.256014 213 589 212.120702 625.740047 212 626 212.879298"></polyline>
                <polyline id="Fill-67" fill="#ADCBF9" points="627 217.879298 590.256042 218 590 217.120702 626.743958 217 627 217.879298"></polyline>
                <polyline id="Fill-68" fill="#FFFFFF" points="659 306.805729 606.141592 307 589 241.195436 641.858408 241 659 306.805729"></polyline>
                <polyline id="Fill-69" fill="#ADCBF9" points="628 248.922341 606.250951 249 606 248.077659 627.752852 248 628 248.922341"></polyline>
                <polyline id="Fill-70" fill="#ADCBF9" points="631 251.904367 603.255002 252 603 251.095633 630.748862 251 631 251.904367"></polyline>
                <polyline id="Fill-71" fill="#ADCBF9" points="639 265.87899 602.259953 266 602 265.120659 638.743986 265 639 265.87899"></polyline>
                <polyline id="Fill-72" fill="#ADCBF9" points="639 268.879298 602.256014 269 602 268.120702 638.740047 268 639 268.879298"></polyline>
                <polyline id="Fill-73" fill="#ADCBF9" points="641 270.879298 604.256042 271 604 270.120702 640.743958 270 641 270.879298"></polyline>
                <polyline id="Fill-74" fill="#ADCBF9" points="642 274.879298 605.259953 275 605 274.120702 641.743986 274 642 274.879298"></polyline>
                <polyline id="Fill-75" fill="#ADCBF9" points="642 277.879298 605.256014 278 605 277.120702 641.740047 277 642 277.879298"></polyline>
                <polyline id="Fill-76" fill="#ADCBF9" points="645 285.87899 608.256014 286 608 285.120659 644.740047 285 645 285.87899"></polyline>
                <polyline id="Fill-77" fill="#ADCBF9" points="645 288.877193 608.256042 289 608 288.119298 644.743958 288 645 288.877193"></polyline>
                <polyline id="Fill-78" fill="#ADCBF9" points="646 291.877193 609.259953 292 609 291.119298 645.743986 291 646 291.877193"></polyline>
                <polyline id="Fill-79" fill="#ADCBF9" points="648 295.880702 611.256014 296 611 295.122807 647.740047 295 648 295.880702"></polyline>
                <polyline id="Fill-80" fill="#ADCBF9" points="648 298.880702 611.256042 299 611 298.122807 647.743958 298 648 298.880702"></polyline>
                <polyline id="Fill-81" fill="#FFFFFF" points="681 388.805734 628.140643 389 611 323.198152 663.859357 323 681 388.805734"></polyline>
                <polyline id="Fill-82" fill="#ADCBF9" points="649 331.922794 627.250951 332 627 331.077206 648.752852 331 649 331.922794"></polyline>
                <polyline id="Fill-83" fill="#ADCBF9" points="653 334.902878 625.255002 335 625 334.097122 652.748862 334 653 334.902878"></polyline>
                <polyline id="Fill-84" fill="#ADCBF9" points="661 347.880702 624.259953 348 624 347.122807 660.743986 347 661 347.880702"></polyline>
                <polyline id="Fill-85" fill="#ADCBF9" points="661 350.880702 624.256014 351 624 350.119298 660.740047 350 661 350.880702"></polyline>
                <polyline id="Fill-86" fill="#ADCBF9" points="663 353.877193 626.256014 354 626 353.119298 662.740047 353 663 353.877193"></polyline>
                <polyline id="Fill-87" fill="#ADCBF9" points="663 357.877193 626.259953 358 626 357.119298 662.743986 357 663 357.877193"></polyline>
                <polyline id="Fill-88" fill="#ADCBF9" points="664 360.880702 627.259953 361 627 360.122807 663.740047 360 664 360.880702"></polyline>
                <polyline id="Fill-89" fill="#ADCBF9" points="667 368.880702 630.259953 369 630 368.119298 666.740047 368 667 368.880702"></polyline>
                <polyline id="Fill-90" fill="#ADCBF9" points="667 371.877193 630.256014 372 630 371.119298 666.740047 371 667 371.877193"></polyline>
                <polyline id="Fill-91" fill="#ADCBF9" points="668 374.877193 631.259953 375 631 374.119298 667.743986 374 668 374.877193"></polyline>
                <polyline id="Fill-92" fill="#ADCBF9" points="668 378.880702 631.259953 379 631 378.122807 667.740047 378 668 378.880702"></polyline>
                <polyline id="Fill-93" fill="#ADCBF9" points="670 381.880702 633.256014 382 633 381.122807 669.740047 381 670 381.880702"></polyline>
                <polyline id="Fill-94" fill="#FFFFFF" points="611 389.31274 424.635387 390 371 184.709441 395.274973 158.573238 550.564496 158 611 389.31274"></polyline>
                <polyline id="Fill-95" fill="#ADCBF9" points="499 193.766775 433.748898 194 433 191.233225 498.251102 191 499 193.766775"></polyline>
                <polyline id="Fill-96" fill="#ADCBF9" points="509 202.617481 426.747993 203 426 199.382519 508.248111 199 509 202.617481"></polyline>
                <polyline id="Fill-97" fill="#ADCBF9" points="532 240.516468 425.747791 241 425 237.483055 531.252209 237 532 240.516468"></polyline>
                <polyline id="Fill-98" fill="#ADCBF9" points="533 250.516887 426.747791 251 426 247.483113 532.252209 247 533 250.516887"></polyline>
                <polyline id="Fill-99" fill="#ADCBF9" points="536 259.516887 429.743944 260 429 256.483113 535.252182 256 536 259.516887"></polyline>
                <polyline id="Fill-100" fill="#ADCBF9" points="539 269.516468 432.743944 270 432 266.483055 538.252182 266 539 269.516468"></polyline>
                <polyline id="Fill-101" fill="#ADCBF9" points="541 279.516468 434.743944 280 434 276.483055 540.256056 276 541 279.516468"></polyline>
                <polyline id="Fill-102" fill="#ADCBF9" points="547 302.5179 440.743944 303 440 299.486874 546.256056 299 547 302.5179"></polyline>
                <polyline id="Fill-103" fill="#ADCBF9" points="550 312.5179 443.743944 313 443 309.4821 549.256056 309 550 312.5179"></polyline>
                <polyline id="Fill-104" fill="#ADCBF9" points="552 320.513126 445.743944 321 445 317.4821 551.256056 317 552 320.513126"></polyline>
                <polyline id="Fill-105" fill="#ADCBF9" points="555 330.5179 448.747818 331 448 327.4821 554.256056 327 555 330.5179"></polyline>
                <polyline id="Fill-106" fill="#ADCBF9" points="557 339.5179 450.747818 340 450 336.4821 556.256056 336 557 339.5179"></polyline>
                <polyline id="Fill-107" fill="#ADCBF9" points="371 186 403 185.885795 395.997486 160 371 186"></polyline>
                <path d="M819.041571,551 L667,551 L667,497 L819.526927,497 C831.386827,497 841,506.667177 841,518.589766 L841,528.918216 C841,541.112399 831.167634,551 819.041571,551" id="Fill-108" fill="#FCECDB"></path>
                <path d="M969,519.215613 L969,527.339821 C969,531.681391 967.848249,535.747431 965.828794,539.242729 C961.77821,546.272688 954.241245,551 945.610895,551 L662.392996,551 C660.51751,551 659,549.460967 659,547.571616 L659,546.35141 C659,544.46206 660.51751,542.923026 662.392996,542.923026 L835.038911,542.923026 C835.964981,541.78548 836.77821,540.553466 837.463035,539.242729 C839.081712,536.160726 839.996109,532.645747 839.996109,528.918216 L839.996109,518.589766 C839.996109,516.692543 839.750973,514.84649 839.29572,513.094905 C838.521401,510.123114 837.140078,507.3993 835.291829,505.076974 L662.392996,505.076974 C660.51751,505.076974 659,503.541876 659,501.644653 L659,500.43232 C659,498.535097 660.51751,497 662.392996,497 L947.038911,497 C957.070039,497 965.529183,503.801662 968.155642,513.094905 C968.708171,515.039361 969,517.09403 969,519.215613" id="Fill-109" fill="#699DEE"></path>
                <path d="M969,514 L839.788139,514 C839.011705,510.861091 837.626609,507.984104 835.773313,505.531181 L662.402263,505.531181 C660.521654,505.531181 659,503.909758 659,501.905845 L659,500.625336 C659,498.621423 660.521654,497 662.402263,497 L947.825595,497 C957.88412,497 966.366368,504.184153 969,514" id="Fill-110" fill="#548EE2"></path>
                <polyline id="Fill-111" fill="#F4D2B8" points="667 524 688 524.624324 667 525 667 524"></polyline>
                <polyline id="Fill-112" fill="#F4D2B8" points="667 532 717 532.624324 667 533 667 532"></polyline>
                <path d="M703.376347,591 L864,591 L864,550 L702.071159,550 C690.984825,550 682,558.890826 682,569.856433 C682,581.532846 691.567498,591 703.376347,591" id="Fill-113" fill="#2B478B"></path>
                <path d="M854.904222,591 L1038,591 L1038,550 L854.44124,550 C843.150704,550 834,559.036829 834,570.186862 L834,570.355918 C834,581.755693 843.360796,591 854.904222,591" id="Fill-114" fill="#FCECDB"></path>
                <path d="M822.10754,593 L1044.89246,593 C1046.60978,593 1048,591.434211 1048,589.5 C1048,587.565789 1046.60978,586 1044.89246,586 L822.10754,586 C820.390215,586 819,587.565789 819,589.5 C819,591.434211 820.390215,593 822.10754,593" id="Fill-115" fill="#2B478B"></path>
                <path d="M822.10754,557 L1044.89246,557 C1046.60978,557 1048,555.434211 1048,553.5 C1048,551.565789 1046.60978,550 1044.89246,550 L822.10754,550 C820.390215,550 819,551.565789 819,553.5 C819,555.434211 820.390215,557 822.10754,557" id="Fill-116" fill="#2B478B"></path>
                <polyline id="Fill-117" fill="#F4D2B8" points="1038 572 1013 572.623693 1038 573 1038 572"></polyline>
                <polyline id="Fill-118" fill="#F4D2B8" points="1038 561 979 561.623693 1038 562 1038 561"></polyline>
                <path d="M980,561 C980,561 982.590909,562.77907 983.450547,565.70155 C983.602483,566.209302 983.698443,566.75969 983.718434,567.333333 C983.862374,571.217054 983.718434,580 983.718434,580 L991.367214,575.608527 L999,580 L999,568.093023 C999,565.841085 998.344276,563.655039 997.128788,562.22093 C996.541035,561.523256 995.825337,561 995.013678,561 L980,561" id="Fill-119" fill="#699DEE"></path>
                <path d="M980,562 C980,562 982.483287,563.459459 983.307217,565.856916 L998,566 C998,566 997.425165,562.565978 994.390036,562 L980,562" id="Fill-120" fill="#568CDB"></path>
                <path d="M836.407581,498 L1001,498 L1001,437 L835.866057,437 C822.686352,437 812,447.66858 812,460.835055 L812,473.624123 C812,487.086299 822.927896,498 836.407581,498" id="Fill-121" fill="#FCECDB"></path>
                <path d="M815.567042,460.667751 L815.567042,473.795318 C815.605916,479.401965 818.708118,484.265468 823.264233,486.868414 C825.507303,488.144598 828.100246,488.872178 830.856463,488.872178 L1009.2136,488.872178 C1011.30506,488.872178 1013,490.568567 1013,492.661819 L1013,494.210358 C1013,496.30361 1011.30506,498 1009.2136,498 L701.096589,498 C692.256481,498 684.442666,493.599502 679.723277,486.868414 C676.749362,482.623549 675,477.460454 675,471.881044 L675,461.523728 C675,457.699069 675.874681,454.080623 677.433556,450.859038 C681.398776,442.653336 689.787937,437 699.502726,437 L1009.2136,437 C1011.30506,437 1013,438.692499 1013,440.785751 L1013,442.33429 C1013,444.423651 1011.30506,446.120041 1009.2136,446.120041 L830.312217,446.120041 C826.035999,446.120041 822.164079,447.944827 819.462287,450.859038 C817.067605,453.43864 815.590366,456.878109 815.567042,460.667751" id="Fill-122" fill="#B5453C"></path>
                <polyline id="Fill-123" fill="#F4D2B8" points="1000 467 977 467.623223 1000 468 1000 467"></polyline>
                <polyline id="Fill-124" fill="#F4D2B8" points="1001 452 946 452.623223 1001 453 1001 452"></polyline>
                <path d="M947,453 C947,453 950.548073,454.964057 951.719244,458.192699 C951.930439,458.75781 952.060995,459.362439 952.087875,459.998683 C952.28371,464.290365 952.087875,474 952.087875,474 L962.559297,469.147158 L973,474 L973,460.840422 C973,458.350772 972.105302,455.932254 970.438783,454.343621 C969.632403,453.576967 968.657067,453 967.547334,453 L947,453" id="Fill-125" fill="#F99746"></path>
                <path d="M947,453 C947,453 950.589422,455.187821 951.774242,458.784299 L973,459 C973,459 972.168684,453.849596 967.786792,453 L947,453" id="Fill-126" fill="#ED7D2B"></path>
                <path d="M839.462486,413.643245 C848.745416,429.771691 860.420101,436 860.420101,436 L909,436 C909,436 832.379357,401.336107 839.462486,413.643245" id="Fill-127" fill="#233862"></path>
                <path d="M877.805266,540.693691 C879.112795,542.159222 879.279208,543.795344 878.633368,545.543901 L878.617519,545.567164 C877.420932,548.800637 873.474572,552.414063 868.882372,556.019735 C868.295965,556.481106 867.776915,556.903706 867.321261,557.291413 C867.202395,557.396094 867.083529,557.496897 866.968625,557.601578 C866.877494,557.67912 866.790325,557.764415 866.699194,557.838079 C862.420009,561.699638 864.032628,562.583609 856.34198,570.415283 C847.577574,579.340291 841.54313,579.49925 839.827494,578.688943 C838.373363,577.994948 841.325209,573.26105 844.594031,567.941715 C844.752519,567.685828 844.907046,567.426065 845.069496,567.166302 C845.505339,566.456798 845.93722,565.739541 846.373063,565.030038 C850.204519,558.625124 849.217929,555.620397 848.310583,546.094445 C847.573612,538.348066 836,502.834136 836,502.834136 L852.799766,500 C852.799766,500 857.855544,528.283201 863.430372,532.637147 C866.409953,534.959509 869.746133,534.990526 872.614772,536.711943 C872.816845,536.828255 873.014955,536.952322 873.209104,537.080265 C874.837572,538.134827 876.493775,539.224283 877.805266,540.693691" id="Fill-128" fill="#FFB27D"></path>
                <path d="M876.821979,540.048782 C878.111217,541.538987 878.275302,543.202654 877.638497,544.980649 L877.622869,545.004303 C876.181267,548.288271 872.383877,551.94282 868.008283,555.597368 C867.437893,556.074391 866.933918,556.515933 866.484639,556.925937 C866.367435,557.03238 866.250232,557.13488 866.136935,557.241324 C866.047079,557.32017 865.96113,557.406902 865.871274,557.481806 C861.651951,561.408376 863.242011,562.30723 855.65895,570.270755 C847.017152,579.34602 841.067125,579.507655 839.375489,578.683707 C837.941701,577.978028 840.852252,573.164432 844.075346,567.755542 C845.759169,567.132653 853.572729,563.927531 859.483688,556.299105 C864.68752,549.597128 868.156741,540.987059 871.704097,536 C871.903343,536.11827 872.098682,536.244425 872.290114,536.374522 C873.895801,537.446838 875.528835,538.554636 876.821979,540.048782" id="Fill-129" fill="#233862"></path>
                <path d="M744.744214,531.128685 C743.720027,536.304046 736.42954,535.438191 728.282958,533.42577 C720.132467,531.41335 722.071385,533.805323 710.47697,532.508518 C698.878645,531.207758 695.368266,526.834994 695.012537,525.091423 C694.695899,523.545536 700.426652,522.999929 706.571771,522.284313 C707.345774,522.197332 708.119777,522.098491 708.89769,522.003602 C715.836357,521.121933 720.918198,516.594975 727.219681,512.874566 C733.188889,509.351841 742.097747,495 742.097747,495 L758,496.273083 C758,496.273083 749.654054,509.094852 746.429039,514.665581 C744.529213,517.943178 744.630849,522.28036 744.865396,525.625169 C744.990487,527.447813 745.107761,529.306041 744.744214,531.128685" id="Fill-130" fill="#FFB27D"></path>
                <path d="M727.290917,531.514374 C719.138477,529.61522 721.077858,531.872564 709.480671,530.648748 C697.879573,529.4212 694.368354,525.294551 694.01254,523.649115 C693.695827,522.190236 699.42795,521.675338 705.574538,521 L705.633188,521.111934 C705.633188,521.111934 712.589155,525.816912 722.243051,526.037049 C730.110058,526.219875 738.44627,524.070734 743.877319,524.15282 C744.002441,525.872879 744.119742,527.626518 743.756108,529.346577 C742.731677,534.230649 735.439447,533.413528 727.290917,531.514374" id="Fill-131" fill="#233862"></path>
                <path d="M804,428.317114 L838.554314,519.913146 C838.554314,519.913146 843.862783,520.421733 848.946618,518.977502 C853.628475,517.64586 859,514.159519 859,514.159519 C859,514.159519 853.569361,458.463479 843.433219,426.492415 C840.836128,418.285149 837.92376,411.646349 834.71188,407.911539 C819.003224,389.617956 804,428.317114 804,428.317114" id="Fill-132" fill="#233862"></path>
                <path d="M819.262812,364.932054 C828.92936,361.812009 856.504828,365.816843 884.200594,371.238114 L890.002075,361.672306 L949.829121,357 C949.829121,357 969.573559,400.781523 958.766118,428.679534 C957.175076,432.777504 954.020157,435.408586 948.63778,435.49396 L947.764647,435.49396 C947.764647,435.49396 912.156359,435.474557 900.592203,435.474557 C870.839725,435.474557 837.625761,415.023518 833.326068,414.162013 C826.29444,412.757217 823.481013,426.820702 816.449385,441.590466 C809.413876,456.360229 750.339665,507 750.339665,507 C750.339665,507 741.259086,507.08812 737.506556,505.683324 C733.474624,504.16987 732,502.206259 732,502.206259 C732,502.206259 797.457781,371.963796 819.262812,364.932054" id="Fill-133" fill="#2B478B"></path>
                <path d="M890.897888,278.559112 C912.344273,290.255814 955.850356,314.50512 956.07693,314.346476 C956.07693,314.346476 972.069917,320.316905 981.140684,314.346476 C996.262534,304.40221 1004.37231,277.630852 976.718587,254.59343 C962.924929,243.10374 953.127563,240.306576 951.639208,221.960759 C950.830574,212.00798 937.095511,179.159398 914.274057,182.197623 C912.367712,182.451454 900.624937,182.993938 892.909707,187.006856 C873.252474,197.233199 858.743935,274.031956 890.897888,278.559112" id="Fill-134" fill="#233862"></path>
                <path d="M909.72792,268.25237 C909.634392,268.31028 920.253796,271.786734 927.35808,268.771317 C934.037587,265.940837 939.099828,255.402756 938.998505,255.397152 C935.96272,255.262652 932.622966,252.71537 930.054824,236 L928.76101,236.444971 L907,243.95157 C907,243.95157 908.578297,250.645564 909.595421,257.018625 C910.456665,262.369487 910.916514,267.495434 909.72792,268.25237" id="Fill-135" fill="#FFB27D"></path>
                <path d="M905,244.027022 C905,244.027022 906.59563,251.185102 907.623926,258 C920.262894,255.69361 925.219198,242.927561 927,236 L905,244.027022" id="Fill-136" fill="#ED975D"></path>
                <path d="M902.479362,250.992389 C902.479362,250.992389 932.624857,247.025434 929.815118,228.655875 C927.009326,210.28709 929.006134,197.403868 909.637881,199.160038 C890.273574,200.916208 887.613793,208.474045 887.029746,214.828988 C886.4457,221.183545 894.56316,251.551083 902.479362,250.992389" id="Fill-137" fill="#FFB27D"></path>
                <path d="M889,204.307249 C889,204.307249 908.100992,220.443467 921.090135,221.744504 C934.083184,223.045157 939,218.956733 939,218.956733 C939,218.956733 931.341639,212.723782 926.733344,202.664681 C925.378193,199.699636 922.507772,197.664996 919.203858,197.385491 C909.928689,196.600198 892.342966,196.242203 889,204.307249" id="Fill-138" fill="#233862"></path>
                <path d="M901,203.512796 C901,203.512796 894.786387,209.593674 892.83039,214.10388 C890.942758,218.456096 890.376849,228.865741 891.880877,233 C891.880877,233 882.199643,213.947043 887.680232,204.690224 C893.491251,194.874482 901,203.512796 901,203.512796" id="Fill-139" fill="#233862"></path>
                <path d="M883.005672,312.856795 C883.907038,373.005469 883.255401,360.438192 889.853712,366.144226 C891.445735,367.517253 895.917447,368.337957 901.801689,368.723027 C920.305054,369.948249 952.828367,366.910476 954.065306,363.503192 C958.334113,351.706055 955.321756,348.042058 958.884297,329.986565 C959.254989,328.068995 959.711525,325.988062 960.250003,323.724319 C963.219438,311.324295 966.110833,307.104086 955.579289,287.181588 C946.027151,269.133096 936.104321,254.485275 935.210759,255.013871 C910.011533,269.925795 907.978582,257.391969 907.978582,257.391969 C907.978582,257.391969 882.564744,283.516424 883.005672,312.856795" id="Fill-140" fill="#FFFFFF"></path>
                <path d="M819,467.767593 L838.560721,519.912689 C838.560721,519.912689 843.867527,520.423954 848.949769,518.972118 C853.630159,517.633463 859,514.128763 859,514.128763 C859,514.128763 853.571063,458.139425 843.438097,426 L819,467.767593" id="Fill-141" fill="#2B478B"></path>
                <path d="M908,258 C908,258 882.038912,262.357511 878.991561,273.424568 C875.940303,284.491239 858,349.550666 858,349.550666 C858,349.550666 871.197375,351.898447 877.295984,345.860745 C883.394593,339.826911 898.514143,289.858257 898.514143,289.858257 L908,258" id="Fill-142" fill="#FFFFFF"></path>
                <path d="M902,367.72762 C920.476588,368.932523 952.952833,365.945129 954.187983,362.594352 C958.450612,350.99286 955.442614,347.389627 959,329.633567 L950.085105,305 C950.085105,305 951.561829,332.433532 943.31711,339.647648 C935.087976,346.861764 909.57844,353.574794 905.572971,359.603133 C903.640372,362.498725 902.370155,365.398141 902,367.72762" id="Fill-143" fill="#EBF3FF"></path>
                <path d="M924,356.76973 C924,356.76973 905.927868,352.785787 903.011139,354.374007 C900.09441,355.962226 892.966774,361.748701 892.07437,363.761721 C891.181967,365.774741 898.568439,362.230907 900.967497,361.59562 C902.524374,361.1823 906.619384,362.590649 908.647574,363.260379 C917.173695,366.077076 922.400628,364.626631 922.400628,364.626631 L924,356.76973" id="Fill-144" fill="#FFB27D"></path>
                <path d="M936.112578,255 C936.112578,255 960.520008,256.509329 968.971872,268.337475 C980.866657,284.988063 1004.46193,355.947968 990.938948,365.413449 C975.710048,376.072353 921.625888,368.202002 921.625888,368.202002 C921.625888,368.202002 919.82671,359.758341 922.329239,355.674963 C924.835654,351.591585 965.528952,344.992659 967.405849,343.108923 C969.282746,341.221287 943.931038,306.350721 943.931038,300.695613 C943.931038,295.040505 936.112578,255 936.112578,255" id="Fill-145" fill="#FFFFFF"></path>
                <path d="M901,360 C901,360 897.251366,365.774479 896.023497,366.46431 C894.791803,367.154141 894,366.980541 894,366.980541 L896.52459,361.548693 L901,360" id="Fill-146" fill="#FFB27D"></path>
                <path d="M903,354 L892,360.18283 C892,360.18283 892.467018,361.067368 893.821754,360.99589 C895.176491,360.924412 898.592281,359.476987 898.592281,359.476987 L903,354" id="Fill-147" fill="#FFB27D"></path>
                <polyline id="Fill-148" fill="#F99746" points="897 373 809.364808 373 783 307 870.503018 307 897 373"></polyline>
                <polyline id="Fill-149" fill="#ED7D2B" points="808 371 924 371 924 374 809.032618 374 808 371"></polyline>
                <path d="M831.194852,340 C830.433907,337.789376 831.969226,336 834.623584,336 C837.277941,336 840.044202,337.789376 840.805148,340 C841.566093,342.210624 840.030774,344 837.376416,344 C834.726535,344 831.955798,342.210624 831.194852,340" id="Fill-150" fill="#FFFFFF"></path>
                <path d="M99.0663195,398.899348 L97.1575161,400.206317 C95.1198952,401.607765 92.3129482,401.103874 90.9007278,399.084371 L79.7993717,383.227535 C78.3871513,381.208032 78.895662,378.428756 80.9336805,377.031244 L83.6674719,375.153461 C84.0670444,374.881832 84.6153135,374.980248 84.8916348,375.373913 C85.1687512,375.771515 85.0693551,376.310837 84.6697826,376.586402 L81.9359911,378.464186 C80.6959249,379.314502 80.3862065,381.007263 81.2457843,382.235499 L92.3467429,398.092335 C93.2063207,399.32057 94.9147416,399.627629 96.1548078,398.777312 L98.0640089,397.466407 C99.3040751,396.61609 99.6137935,394.923329 98.7542157,393.695094 L91.3849858,383.168485 C91.108267,382.770883 91.2076631,382.227625 91.606838,381.955996 C92.0064105,381.680431 92.5546796,381.778847 92.8313985,382.176449 L100.200628,392.703057 C101.612849,394.718624 101.104338,397.4979 99.0663195,398.899348" id="Fill-151" fill="#AFCDFB"></path>
                <path d="M110.209711,414.489076 L106.911828,416.835846 C103.849972,419.013586 99.5091195,418.046575 97.2354306,414.681692 L81.1510167,390.871998 C80.8843352,390.478904 80.980126,389.936434 81.3652047,389.661269 C81.7499003,389.390034 82.278282,389.488308 82.5449634,389.881401 L98.6293774,413.687164 C100.37047,416.26586 103.652644,417.036324 105.945874,415.404984 L109.243757,413.062145 C111.536987,411.430806 111.986054,408.006958 110.244962,405.428263 L91.9240259,378.31265 C90.1829335,375.733954 86.9011429,374.96349 84.6075296,376.59483 C84.222834,376.869995 83.6944523,376.771722 83.4277709,376.374697 C83.1607063,375.981603 83.256497,375.439134 83.6415758,375.163968 C86.7034308,372.986228 91.0442838,373.953239 93.3179727,377.322053 L111.638909,404.437666 C113.912598,407.802549 113.271566,412.315267 110.209711,414.489076" id="Fill-152" fill="#AFCDFB"></path>
                <path d="M133.553046,537.506191 L133.952826,540.715848 C134.379233,544.143746 131.8671,547.270621 128.352429,547.684527 L100.729,550.954389 C97.2143289,551.368295 94.0079828,548.918721 93.5815762,545.494586 L93.0093039,540.896461 C92.9255661,540.222923 93.416416,539.613351 94.1052267,539.53057 C94.7940373,539.451552 95.4203341,539.929425 95.5040719,540.599201 L96.0759583,545.197326 C96.3356612,547.285672 98.2870984,548.775735 100.426077,548.523629 L128.049507,545.253768 C130.188872,545.001661 131.717761,543.097691 131.458058,541.013108 L131.058664,537.799688 C130.798961,535.715105 128.847524,534.225042 126.708545,534.477148 L108.371132,536.648276 C107.682321,536.727294 107.056025,536.249421 106.972673,535.579645 C106.888935,534.906106 107.379785,534.296535 108.068596,534.213753 L126.406008,532.046389 C129.920293,531.628719 133.126639,534.078293 133.553046,537.506191" id="Fill-153" fill="#AFCDFB"></path>
                <path d="M161.20889,533.036038 L161.930739,539.148084 C162.600861,544.820703 158.332383,550.033919 152.415241,550.772958 L110.558482,555.990169 C109.864246,556.078055 109.233017,555.56672 109.14862,554.855645 C109.064223,554.140576 109.558938,553.493418 110.253174,553.405532 L152.109933,548.188321 C156.640937,547.625054 159.918429,543.710148 159.416712,539.459679 L158.694474,533.351627 C158.192758,529.101158 154.09813,526.105057 149.567514,526.668324 L101.890067,532.612589 C97.3590628,533.179851 94.0815714,537.094756 94.5836767,541.341231 C94.667685,542.0563 94.1729693,542.703458 93.4791228,542.791344 C92.7848873,542.875235 92.1536581,542.367895 92.0692609,541.65682 C91.3991389,535.984201 95.6676174,530.76699 101.584759,530.031947 L149.262206,524.087682 C155.179348,523.348643 160.538768,527.363419 161.20889,533.036038" id="Fill-154" fill="#AFCDFB"></path>
                <path d="M608,143.000202 C608,140.791081 609.790323,139 612,139 C614.209677,139 616,140.791081 616,143.000202 C616,145.209322 614.209677,147 612,147 C609.790323,147 608,145.209322 608,143.000202" id="Fill-155" fill="#F99746"></path>
                <path d="M1134.71813,594 L7.27992279,594 C6.57586785,594 6,593.422627 6,592.720416 L6,592.283485 C6,591.577373 6.57586785,591 7.28031242,591 L1134.71813,591 C1135.42335,591 1136,591.577373 1136,592.283485 L1136,592.720416 C1136,593.422627 1135.42335,594 1134.71813,594" id="Fill-156" fill="#2E3552"></path>
            </g>
        </g>
    </g>
</svg>