<?xml version="1.0" encoding="UTF-8"?>
<svg width="101px" height="61px" viewBox="0 0 101 61" version="1.1" xmlns="http://www.w3.org/2000/svg" xmlns:xlink="http://www.w3.org/1999/xlink">
    <title>5127313</title>
    <defs>
        <path d="M23.3832144,13.9619762 C23.3832144,20.4189204 18.1487954,25.6535021 11.6916886,25.6535021 C5.2345817,25.6535021 2.31240884e-15,20.4189204 2.31240884e-15,13.9619762 C2.31240884e-15,7.50486936 5.2345817,0 11.6916886,0 C18.1487954,0 23.3832144,7.50486936 23.3832144,13.9619762" id="path-1"></path>
    </defs>
    <g id="website" stroke="none" stroke-width="1" fill="none" fill-rule="evenodd">
        <g id="5127313" transform="translate(0.726001, 0.225000)">
            <path d="M98.2774853,49.3851028 C94.0449415,55.8055974 86.7877339,59.5795926 79.097525,59.5795926 L15.26993,59.5795926 C2.44049403,59.5795926 -4.75357763,44.5794545 3.56668819,36.1330796 C11.8867913,27.6867048 4.53780894,20.4727811 17.3713129,13.6996695 C29.8043597,7.13777009 34.0491077,21.1248054 45.5028977,11.9727083 C56.956525,2.82077384 73.631879,3.68417309 77.2955493,13.0087548 C80.9592195,22.333662 80.0958202,25.6152626 87.8664135,27.6870302 C95.6371694,29.7587979 103.234953,41.5012555 98.5726618,48.9263914 C98.4755172,49.0813021 98.3772335,49.2340974 98.2774853,49.3851028" id="Fill-2" fill="#A8BDCD"></path>
            <path d="M95.4401139,51.9878301 C88.7161441,52.5581683 84.1833794,65.1620725 67.3742685,57.5862566 C67.3742685,57.5862566 69.2200163,52.0841611 77.488374,48.6543214 C85.7564063,45.2248072 95.4401139,51.9878301 95.4401139,51.9878301" id="Fill-3" fill="#B8D1E3"></path>
            <path d="M69.6696152,56.642473 C71.4244018,55.7300947 73.2447651,54.9434999 75.1035305,54.2594195 C75.5661472,54.0815651 76.03511,53.9217728 76.5057,53.7660485 C76.974012,53.6036526 77.4485073,53.4601325 77.922189,53.3133578 C78.3942435,53.1613761 78.8747595,53.0377079 79.3536483,52.9078563 C79.5931741,52.8442323 79.8318863,52.7763775 80.0727138,52.7160079 L80.7964982,52.5423843 L81.5222352,52.3760831 L82.2530166,52.2320748 L82.9839607,52.0885546 C83.2277172,52.0418536 83.4737518,52.0055667 83.7192983,51.9683035 C84.2108793,51.8957298 84.7005077,51.8133928 85.1956687,51.7660409 C85.6901787,51.714621 86.1817598,51.6433491 86.6793615,51.6247988 C88.6595171,51.4811159 90.6618028,51.5136602 92.6142957,51.8439844 C90.6364183,51.7961444 88.6756265,51.913141 86.7307815,52.1528295 L86.3657976,52.1943234 L86.0026036,52.2501368 L85.2755648,52.3562311 C84.7901672,52.4183907 84.3093257,52.5158607 83.8275079,52.6029166 C83.5871686,52.6499431 83.3447138,52.6837891 83.1046999,52.7337445 L82.3851463,52.8831227 L81.6660808,53.0328263 L80.9510834,53.2040091 L80.2344588,53.3678695 C79.996072,53.4248219 79.7594753,53.4894223 79.5219022,53.5497919 L78.809671,53.7339924 C78.5719352,53.7941993 78.3376165,53.8679121 78.1003688,53.9300716 C77.6271753,54.0599232 77.1530054,54.1868458 76.6840426,54.3328068 C76.2144289,54.4756761 75.7415608,54.6095958 75.2735743,54.7597875 C73.396584,55.3446079 71.5361913,55.9883334 69.6696152,56.642473" id="Fill-4" fill="#9BB0BD"></path>
            <path d="M96.2631583,30.5387211 C88.05875,36.4033597 91.8540618,56.0571645 64.4747375,59.1516356 C64.4747375,59.1516356 62.6470518,50.6733674 70.6532655,39.9565422 C78.6594792,29.2398797 96.2631583,30.5387211 96.2631583,30.5387211" id="Fill-5" fill="#CAE1ED"></path>
            <path d="M66.2962398,56.7837151 C67.4904515,54.1966091 68.9643811,51.7362629 70.6225112,49.4070702 C72.2759224,47.0733212 74.1296435,44.8772344 76.1486895,42.8432181 C78.170339,40.8129444 80.3607305,38.940673 82.7310918,37.3246877 C85.0942933,35.7090279 87.643648,34.3188998 90.362721,33.4527343 C87.8389136,34.7759839 85.5004457,36.3488481 83.2792998,38.0740194 C81.0664528,39.8086285 78.9740195,41.6901749 76.9915859,43.6826973 C75.0078504,45.6745688 73.1383453,47.7800198 71.3591506,49.9666687 C69.5853256,52.1590129 67.9182458,54.4408538 66.2962398,56.7837151" id="Fill-6" fill="#B8D1E3"></path>
            <path d="M7.7588772,50.2361352 C14.42622,51.2785279 18.0599495,64.1702861 35.3608042,57.7969807 C35.3608042,57.7969807 33.9072148,52.1785395 25.9010011,48.1752699 C17.8947874,44.1720003 7.7588772,50.2361352 7.7588772,50.2361352" id="Fill-7" fill="#B8D1E3"></path>
            <path d="M33.1377057,56.6940557 C31.3218986,55.9100644 29.5114614,55.1368128 27.6801958,54.4213272 C27.2239253,54.2385912 26.7617968,54.0716391 26.3034108,53.8960628 C25.8458385,53.7175576 25.3815946,53.5574398 24.9188153,53.3947185 C24.6866119,53.3159614 24.4581512,53.2258138 24.225297,53.149172 L23.5277108,52.9153415 C23.2950193,52.8382116 23.0634669,52.7571764 22.8297991,52.6834637 L22.1265176,52.4696479 L21.4253515,52.2483469 L20.7183275,52.0485251 L20.0111407,51.8487034 C19.7753575,51.7821503 19.5358317,51.7313813 19.2995604,51.6674318 C18.8249023,51.5466926 18.3521969,51.415702 17.8723318,51.319371 L17.1545681,51.1623449 L16.7960931,51.081147 L16.4351772,51.0141058 C14.5119741,50.6380568 12.5640374,50.3830726 10.5879498,50.2916232 C12.5588303,50.099612 14.5585124,50.2079844 16.5235349,50.4909568 C17.0185331,50.5444921 17.5039308,50.6500982 17.9935592,50.7361778 C18.4841639,50.8183521 18.9667953,50.935186 19.4520303,51.0419311 C19.6943223,51.0964428 19.9372652,51.1499781 20.1771164,51.2137648 L20.8960191,51.4083795 L21.6150846,51.6034824 L22.327153,51.8203899 L23.0371061,52.0447825 C23.2728892,52.1219124 23.5062316,52.2063648 23.7408757,52.2867491 C24.2093504,52.4499586 24.6799404,52.6071474 25.1401162,52.7919988 C25.6024075,52.9718058 26.0655123,53.1483584 26.5212947,53.3432986 C26.9795179,53.5317298 27.4361139,53.7242291 27.8850619,53.9341396 C29.6911057,54.7475834 31.4515875,55.6602872 33.1377057,56.6940557" id="Fill-8" fill="#9BB0BD"></path>
            <path d="M12.1910801,29.6362661 C19.5787901,35.746942 14.6637931,54.1311951 40.4214368,58.8987667 C40.4214368,58.8987667 42.7223161,50.9809106 35.8471782,40.281822 C28.9720403,29.5827334 12.1910801,29.6362661 12.1910801,29.6362661" id="Fill-9" fill="#CAE1ED"></path>
            <path d="M38.8526407,56.5314971 C37.4603972,54.2062096 36.0269852,51.9346202 34.488618,49.7398352 C32.9442301,47.5505828 31.3118099,45.4309751 29.564834,43.4101392 C27.8191598,41.3888151 25.9631606,39.4646356 23.984795,37.6686806 C21.9976424,35.8815125 19.8905642,34.2292403 17.5914748,32.7945266 C20.1175604,33.7869638 22.4477295,35.2717957 24.5842602,36.9597039 C26.7281135,38.6484256 28.6823963,40.5704896 30.4645201,42.6323313 C32.2440403,44.6972647 33.8544931,46.9063691 35.262846,49.233772 C36.6764059,51.5564559 37.9043009,53.9925566 38.8526407,56.5314971" id="Fill-10" fill="#B8D1E3"></path>
            <path d="M55.6383197,46.7508076 C54.7135746,47.8491764 53.8752344,49.6700278 53.3550144,49.9590208 C52.8347944,50.2480139 51.9575638,50.3485756 51.1286615,53.0167169 C50.2997591,55.6848582 54.4847884,55.3195488 54.4847884,55.3195488 C54.4847884,55.3195488 56.2742346,54.2918011 56.9967172,51.8088366 L58.7887669,50.2192122 L55.6383197,46.7508076" id="Fill-11" fill="#EB948C"></path>
            <path d="M52.4009794,55.0271386 C52.4009794,55.0271386 53.7554715,54.5860012 54.9044467,53.3725884 C56.0576525,52.154294 56.2063798,49.9871716 56.2063798,49.9871716 L56.7586559,51.0193129 L57.8635336,49.8384443 L58.3961204,49.7868617 L58.7887669,50.2192122 L56.9967172,51.8088366 C56.2742346,54.2918011 54.4847884,55.3195488 54.4847884,55.3195488 C54.4847884,55.3195488 53.3310943,55.4196224 52.3552547,55.1290022 C52.3803138,55.066029 52.4009794,55.0271386 52.4009794,55.0271386" id="Fill-12" fill="#E15A62"></path>
            <path d="M61.9125279,37.1945107 C60.6306094,38.1316227 59.8658193,38.8114723 59.2284399,40.086231 C58.5910606,41.3609897 54.5965779,45.9409436 54.3417564,46.3492114 C54.0866094,46.7576419 56.5864968,51.0920493 58.587318,52.154294 C58.587318,52.154294 61.6080763,48.6697799 63.3503333,47.352551 C65.0924276,46.035322 64.4976813,41.3609897 63.6902581,39.7887765 C62.882835,38.2165632 61.9125279,37.1945107 61.9125279,37.1945107" id="Fill-13" fill="#4565A1"></path>
            <path d="M61.8658268,45.628356 L61.8658268,43.026605 C61.8658268,43.026605 62.204938,42.8908955 62.4695229,43.7689396 C62.575129,44.1202549 62.566993,44.4896323 62.5198038,44.8075897 L64.4648115,43.3450506 C64.5451959,44.9823524 64.2822382,46.647805 63.3503333,47.352551 C61.6080763,48.6697799 58.587318,52.154294 58.587318,52.154294 C58.071166,51.8802713 57.5219816,51.3875512 56.9952527,50.8017545 C58.2252631,49.5769512 60.5588493,47.2129361 61.8658268,45.628356" id="Fill-14" fill="#2A5293"></path>
            <path d="M49.4391261,54.2918011 C49.1063611,54.3956172 48.8608146,54.554596 48.8608146,54.9736033 C48.8608146,55.3927734 48.9330629,56.0574899 49.0918789,56.3175186 C49.2508576,56.57771 50.0717866,56.733597 50.0717866,56.733597 C50.0717866,56.733597 50.0169495,55.0025677 49.8434886,54.6846103 C49.6700277,54.3666529 49.4391261,54.2918011 49.4391261,54.2918011" id="Fill-15" fill="#EB948C"></path>
            <path d="M49.0918789,56.3175186 C49.0472932,56.2444567 49.0101928,56.1375488 48.9787876,56.014857 C49.1569674,56.1899451 49.2168488,56.1912469 49.4348954,56.2141906 L50.058118,56.4086425 C50.0677185,56.6034199 50.0717866,56.733597 50.0717866,56.733597 C50.0717866,56.733597 49.2508576,56.57771 49.0918789,56.3175186" id="Fill-16" fill="#E15A62"></path>
            <path d="M50.2336943,53.6584897 C49.8290064,53.7019363 49.4243185,54.0054116 49.4243185,54.4244189 C49.4243185,54.843589 49.279822,56.0142061 49.4243185,56.2019865 C49.568815,56.3899296 50.2769781,56.9246318 50.5226873,56.9679157 C50.7683965,57.0113622 51.1854512,56.939114 51.1286615,56.8089369 C51.0718717,56.6789226 50.2336943,53.6584897 50.2336943,53.6584897" id="Fill-17" fill="#EB948C"></path>
            <path d="M49.3629726,55.8874462 C49.6697022,56.2337171 50.4541817,56.2026374 50.4541817,56.2026374 C50.4541817,56.2026374 50.7989881,56.5708757 50.8416211,56.6890113 C50.8671683,56.7606087 51.0084104,56.8546616 51.0276115,56.927398 C50.8980854,56.9768653 50.6766217,56.9950901 50.5226873,56.9679157 C50.2816971,56.9254454 49.5977794,56.4114088 49.4348954,56.2141906 L49.3629726,55.8882598 C49.3629726,55.8880971 49.3629726,55.8877716 49.3629726,55.8874462" id="Fill-18" fill="#E15A62"></path>
            <path d="M51.7497687,52.9670869 C50.5082051,53.0372198 50.2769781,53.1527519 50.2336943,53.6584897 C50.1902477,54.1643903 50.2192121,55.6383199 50.3780281,56.0142061 C50.5371695,56.3899296 50.6237373,56.7223692 50.8261626,56.9246318 C51.0284251,57.1268944 51.3312495,57.127708 51.3312495,57.127708 C51.3312495,57.127708 52.0110991,56.1297382 52.0400635,55.2917235 C52.0688652,54.4533833 51.7497687,52.9670869 51.7497687,52.9670869" id="Fill-19" fill="#EB948C"></path>
            <path d="M51.0355849,56.2973412 C51.098558,55.9541619 51.2381729,55.5882017 51.2559095,54.439552 C51.2625811,54.0080151 51.6627128,56.2615425 51.4840448,56.8800461 C51.3950362,57.0336551 51.3312495,57.127708 51.3312495,57.127708 C51.3312495,57.127708 51.0284251,57.1268944 50.8261626,56.9246318 C50.6237373,56.7223692 50.5371695,56.3899296 50.3780281,56.0142061 C50.3677766,55.9897979 50.3580134,55.9601826 50.348901,55.9271502 C50.4299362,56.1378743 50.6871986,56.2761874 51.0355849,56.2973412" id="Fill-20" fill="#E15A62"></path>
            <path d="M54.4678654,55.5084683 C54.3897592,56.1990575 53.4851914,56.4476956 53.3839788,56.7944547 C53.2829288,57.1413766 53.3550144,57.459334 53.1817162,57.5459017 C53.0082553,57.6326322 52.2857727,57.228107 52.3147371,56.7656531 C52.3147371,56.7656531 52.1266312,57.1558588 51.7076239,57.228107 C51.2886165,57.3001926 51.1874039,56.9941138 51.2596521,56.5329616 C51.3319004,56.0718094 51.3175809,55.826263 51.3030987,55.2772413 C51.2886165,54.7280569 51.1584395,54.2221563 51.4041486,53.6152059 C51.6498578,53.0082554 51.9822974,52.4735532 52.647014,52.5747658 C53.3117305,52.6758158 53.7164184,53.5141559 54.0776597,53.803149 C54.438901,54.0919793 54.5544331,54.7425391 54.4678654,55.5084683" id="Fill-21" fill="#EB948C"></path>
            <path d="M52.3147371,56.7656531 C52.3552547,55.8874462 52.4009794,55.1687062 52.4009794,55.0271386 C52.4009794,54.8852457 52.3552547,53.953178 52.6865552,53.896551 C52.7366734,53.8880895 53.4655021,54.3497298 53.4796589,54.6613411 C53.4938156,54.9731152 53.4796589,55.532551 53.2529881,55.6918552 C53.0264801,55.8513221 52.3147371,56.7656531 52.3147371,56.7656531" id="Fill-22" fill="#E15A62"></path>
            <path d="M82.4297319,39.0664566 C81.1125029,37.3949834 80.6591614,37.2249396 79.2994621,36.4318359 C77.9396002,35.6385696 72.7837756,33.6273342 71.7213682,33.3721872 C70.6591235,33.1173657 66.3745088,35.114607 64.9685967,35.7519863 C63.5628473,36.389203 61.7737266,37.0164936 61.4689496,37.6376008 C60.448687,39.7171791 62.4695229,42.6642247 62.4800998,48.8398237 C62.4856323,52.0743978 63.2227598,59.3478775 63.2227598,59.3478775 C63.2227598,59.3478775 79.4127162,59.3783064 79.6392242,59.0382188 C79.8660577,58.698294 80.4324906,47.0834099 80.7159511,44.7037735 C80.9992489,42.3241372 82.4297319,39.0664566 82.4297319,39.0664566" id="Fill-23" fill="#4565A1"></path>
            <path d="M61.5285056,40.8936542 C61.4071155,40.5026349 61.3350299,40.1046185 61.2743349,39.7048123 C61.2188469,39.3043552 61.1754003,38.9021081 61.181421,38.4927013 C61.3031366,38.8837206 61.3750594,39.2817369 61.4352663,39.6815431 C61.4904288,40.082163 61.5342008,40.4842473 61.5285056,40.8936542" id="Fill-24" fill="#2A5293"></path>
            <path d="M67.5827145,38.4608079 C66.9572138,38.2271401 65.4753109,38.6334552 65.2043799,38.7278336 C64.9332862,38.8220492 65.363684,37.6639617 65.5229882,37.5207669 C65.6822924,37.3772467 65.9372766,37.0433426 66.4259287,37.1945107 C66.9145808,37.3453534 67.3254521,37.9049519 67.3962359,38.0891524 C67.4670196,38.2731902 67.5827145,38.4608079 67.5827145,38.4608079" id="Fill-25" fill="#2A5293"></path>
            <path d="M72.7946779,39.4275352 C72.571587,39.4169583 71.270142,38.8184693 70.9586934,38.6697421 C70.6470821,38.5210148 69.2353121,38.4515328 68.2874605,38.7164431 C68.2874605,38.7164431 70.1123799,37.4835037 71.1746246,37.4942433 C72.2368693,37.5048202 72.6407436,37.8872153 72.7255214,38.2271401 C72.8106246,38.5670649 72.7946779,39.4275352 72.7946779,39.4275352" id="Fill-26" fill="#2A5293"></path>
            <path d="M65.8349249,56.743523 C66.0087113,56.5734792 76.5818536,56.9135667 76.7943676,55.8086891 C77.0068817,54.7039741 77.1530054,52.6946914 77.1530054,52.6946914 C75.8801993,53.3745411 74.0321735,53.091406 74.0321735,53.091406 C75.2646246,52.6889962 77.0491892,50.667184 77.1342924,50.0721121 C77.396111,48.2395448 76.4170169,43.1867228 76.4170169,43.1867228 L77.1342924,41.7435475 L77.9736089,41.2760492 C77.9736089,41.2760492 79.5650233,42.0686647 80.9260243,43.5266476 C80.8340868,43.9300337 80.7605367,44.3278873 80.7159511,44.7037735 C80.4487627,46.9473749 79.9300072,57.3981508 79.6815318,58.8714295 C76.4066028,58.9921687 70.4702041,59.2095644 66.4978515,59.3459248 C64.5731839,59.350481 63.2227598,59.3478775 63.2227598,59.3478775 C63.2227598,59.3478775 63.1978635,58.3912389 63.1400974,57.0193356 C64.2482295,56.9544098 65.7270407,56.8489664 65.8349249,56.743523" id="Fill-27" fill="#2A5293"></path>
            <path d="M67.9820326,38.7690021 C69.1228717,38.6315026 70.9565781,37.6429706 71.6790607,37.9827327 C72.4013805,38.3226575 72.5712616,39.1938674 72.7199888,39.3425947 C72.8687161,39.4913219 73.5060955,38.7476856 73.5060955,36.920488 C73.5060955,35.0932905 73.5622343,33.2223209 72.2168546,32.9679875 C70.8716375,32.7136541 67.3871235,34.0308831 66.6859574,34.5621681 C65.9847913,35.0932905 65.6873367,35.6312471 65.4961392,36.1483754 C65.3049416,36.6655037 64.7951358,38.7476856 65.0286409,38.7690021 C65.2624714,38.7901558 65.9211672,37.4304566 66.4098193,37.3878236 C66.8984714,37.3453534 67.6730248,38.8062652 67.9820326,38.7690021" id="Fill-28" fill="#4565A1"></path>
            <path d="M67.3331,37.133002 C67.0419916,36.4425755 66.7233833,35.8369268 66.7341229,35.3588516 C66.7446998,34.8807765 66.8509568,34.5515912 67.3820791,34.4027013 C67.9132015,34.253974 68.1362924,34.5408516 68.1681858,35.2633342 C68.2000791,35.9856541 67.3331,37.133002 67.3331,37.133002" id="Fill-29" fill="#2A5293"></path>
            <path d="M71.4979518,35.8457138 C72.6085248,34.8383062 72.7343083,33.712112 72.630004,33.478607 C72.5256996,33.2447764 72.0669882,33.0747327 72.0669882,33.0747327 C72.0669882,33.0747327 71.8863676,33.8077922 71.9926246,33.9885755 C72.0988816,34.1690335 71.4979518,35.8457138 71.4979518,35.8457138" id="Fill-30" fill="#2A5293"></path>
            <path d="M69.7301476,38.2808381 C70.0007531,38.1592853 70.2830746,38.0645815 70.5710913,37.9864753 C70.8604098,37.916017 71.1575389,37.8600408 71.4663839,37.8800556 C71.618691,37.8914461 71.7823887,37.9246412 71.9185864,38.0323627 C72.0386747,38.1457795 72.1301241,38.2482939 72.2323131,38.3648023 C72.4345757,38.5945648 72.5740278,38.8734691 72.7022522,39.1357759 C72.7305657,39.1961455 72.7753141,39.2672547 72.7950034,39.2736008 C72.7974442,39.2745772 72.7963051,39.278157 72.8192488,39.2640003 C72.83845,39.2504944 72.8607428,39.2272253 72.8810829,39.2018407 C72.9639081,39.0957464 73.0317629,38.9636167 73.0979904,38.8347415 C73.2317474,38.5804081 73.3035075,38.2985748 73.3604599,38.0113717 C73.4157852,37.7241686 73.4476785,37.4309448 73.4683441,37.1369074 C73.4935659,36.8430327 73.5020274,36.5473681 73.5059328,36.2510526 C73.5643497,36.84108 73.565326,37.4385927 73.4834772,38.0320373 C73.4439359,38.3280273 73.369735,38.6267836 73.2361408,38.902759 C73.1702387,39.0379804 73.1031975,39.1714118 73.0055647,39.3007753 C72.9796921,39.3328314 72.9518667,39.3652129 72.9108609,39.3948282 C72.8911717,39.4096358 72.8641599,39.4236299 72.8319411,39.4314405 C72.7982578,39.4394138 72.7577402,39.4338813 72.7276367,39.4197246 C72.666779,39.389133 72.641069,39.3482899 72.6163354,39.3136303 C72.5929035,39.2779943 72.5743533,39.2433347 72.5569421,39.2091632 C72.4283923,38.9398594 72.3009815,38.6827598 72.113852,38.4634114 C72.024518,38.3545509 71.9195627,38.2344626 71.8274625,38.1420369 C71.7311315,38.0618153 71.5933065,38.0219485 71.4540171,38.0043746 C71.1712075,37.9708541 70.8757056,38.0100699 70.5883397,38.0640934 C70.2985331,38.1151879 70.0134454,38.193945 69.7301476,38.2808381" id="Fill-31" fill="#2A5293"></path>
            <path d="M67.1142399,37.8999076 C66.9910598,37.7908843 66.8686934,37.6820237 66.7350992,37.5915507 C66.6690344,37.5463142 66.601505,37.5028676 66.532023,37.4732523 C66.4968752,37.4597464 66.4630292,37.4493323 66.4312985,37.4452642 C66.4173045,37.4467287 66.4023341,37.445427 66.3911064,37.4488441 C66.3808549,37.4558411 66.3746715,37.4530749 66.3546568,37.4678825 C66.0806341,37.6367872 65.8674692,37.8689905 65.6861977,38.1347144 C65.5942601,38.2627761 65.5137131,38.4095507 65.405178,38.542494 C65.3508291,38.6083961 65.293063,38.6723456 65.2198384,38.7289726 C65.1815989,38.7554962 65.1428712,38.7864132 65.0743656,38.7945493 C65.0414959,38.8000818 64.9956084,38.7859251 64.9677831,38.7611914 C64.9399578,38.7358069 64.9261264,38.7070052 64.9181531,38.6822716 C64.8882124,38.5817098 64.8978129,38.4979084 64.9057863,38.4128051 C64.9162004,38.3288409 64.9310081,38.2469921 64.9498838,38.1661196 C64.9905641,38.005351 65.0354752,37.8471859 65.0932412,37.6927633 C65.0712739,37.8559728 65.0418213,38.0170669 65.0284782,38.1793 C65.0195285,38.2600098 65.0133451,38.3405569 65.0120433,38.4198021 C65.0117179,38.496932 65.0133451,38.5815471 65.0366142,38.6367096 C65.0416586,38.6507037 65.0494692,38.6580261 65.0522355,38.6599788 C65.0561408,38.6596533 65.0522355,38.6611178 65.0603715,38.6588397 C65.0740401,38.657538 65.1060962,38.6391505 65.1319689,38.6166949 C65.1861551,38.5706448 65.2372496,38.5104379 65.2837879,38.4474648 C65.3796307,38.3239593 65.4564352,38.1815781 65.5526035,38.0419633 C65.6492599,37.9054401 65.7550288,37.7731477 65.8778834,37.6555002 C66.0005752,37.5380154 66.1426309,37.4372909 66.2892428,37.3595101 C66.3027487,37.350235 66.3369202,37.3378682 66.3647455,37.3300575 C66.3928963,37.324525 66.4203962,37.3276167 66.4465943,37.3290812 C66.4960616,37.3390072 66.5388573,37.3567438 66.5783986,37.3777349 C66.6553658,37.4213442 66.7214306,37.4740659 66.784241,37.5295539 C66.9059566,37.6444351 67.0179088,37.7658252 67.1142399,37.8999076" id="Fill-32" fill="#2A5293"></path>
            <path d="M67.1770503,32.9826324 C67.1794911,33.4315805 67.1975532,33.8792268 67.2440915,34.3258968 C67.3586473,35.4213366 67.2463696,36.8663018 67.3331,37.133002 C67.4295937,37.4304566 68.0033491,38.4927013 68.0033491,38.4927013 C68.0033491,38.4927013 69.0231235,38.025203 69.4481515,37.5153971 C69.8730169,37.0055913 70.425293,36.9795559 71.1690921,36.2276207 C71.9127284,35.4756855 72.4183035,34.2813112 72.2526533,33.2872467 C72.2313368,33.1598359 72.1008343,31.8873553 72.0720326,30.5699636 C72.0432309,29.2527346 70.6591235,28.2518359 69.3417318,28.2518359 C68.0246656,28.2518359 67.2359554,30.2064442 67.1947869,31.5238359 C67.1777012,32.0642334 67.1747722,32.5720866 67.1770503,32.9826324" id="Fill-33" fill="#EB948C"></path>
            <path d="M72.0720326,30.5699636 C72.1008343,31.8873553 72.2313368,33.1598359 72.2526533,33.2872467 C72.3037477,33.5946272 72.2905673,33.9212089 72.2262924,34.2476278 C71.9348585,34.3013259 68.1831561,34.3919616 67.2112218,33.9394337 C67.1890917,33.6211508 67.1788402,33.3022171 67.1770503,32.9826324 C67.1747722,32.5720866 67.1777012,32.0642334 67.1947869,31.5238359 C67.2121981,30.9653764 67.3645052,30.2928492 67.633809,29.7028218 L70.7199813,28.6090092 C71.477449,29.0130462 72.0534824,29.7256028 72.0720326,30.5699636" id="Fill-34" fill="#E15A62"></path>
            <path d="M64.8659196,25.0847911 C62.8725836,25.0847911 62.1268318,26.6159986 62.1268318,27.7635092 C62.1268318,28.7933724 62.4569934,30.4422274 64.8659196,30.4422274 C66.0707081,30.4422274 66.8861046,29.2429714 66.8861046,27.7635092 C66.8861046,26.2840471 66.0707081,25.0847911 64.8659196,25.0847911" id="Fill-35" fill="#4B497A"></path>
            <path d="M64.7778873,25.7408834 C63.2727153,25.7408834 62.7095368,26.8970183 62.7095368,27.7635092 C62.7095368,28.5411544 62.9588259,29.7861351 64.7778873,29.7861351 C65.6876622,29.7861351 66.3033996,28.880591 66.3033996,27.7635092 C66.3033996,26.6464275 65.6876622,25.7408834 64.7778873,25.7408834" id="Fill-36" fill="#2D264D"></path>
            <path d="M62.3512245,25.9888707 C62.468872,26.6874332 62.8146548,26.9544589 62.9690773,27.8959644 C63.1234998,28.8374699 62.7116522,30.2057933 63.3259251,31.3974015 C63.9400353,32.5890096 64.9331235,34.155853 65.5068788,34.2219179 C66.0806341,34.2881455 70.6758838,33.5119648 72.2266178,30.4287215 C72.6714979,29.5436803 73.6227667,26.0729976 72.8088347,23.953878 C71.99474,21.8345957 70.6706767,19.8926797 67.6107026,19.8337746 C64.5505657,19.7748694 61.7270256,22.2874491 62.3512245,25.9888707" id="Fill-37" fill="#EB948C"></path>
            <path d="M64.9105052,29.806638 C65.0740401,29.8105433 65.253359,29.748221 65.3340688,29.6409877 C65.4046898,29.5470975 65.4341424,29.4234293 65.413314,29.3078972 C65.1741137,29.5049527 64.8807272,29.5389614 64.5863644,29.4875415 C64.5499148,29.7072152 64.7193077,29.8022445 64.9105052,29.806638" id="Fill-38" fill="#E15A62"></path>
            <path d="M70.3237549,25.9888707 C70.2074092,25.2624828 69.7218488,24.84315 69.7218488,24.84315 C69.7218488,24.84315 68.5523708,24.3577523 67.6474776,24.2695574 C66.7427471,24.1811997 65.8157238,23.9164521 65.8157238,23.9164521 C65.8157238,23.9164521 66.1027642,24.64284 66.5881619,24.9526614 C66.5881619,24.9526614 64.425433,24.84315 63.7413526,24.2031671 C63.7413526,24.2031671 63.8739705,24.7307095 64.0062629,25.0847911 C64.0062629,25.0847911 62.9469472,24.9756051 62.6159721,24.5562723 C62.6159721,24.5562723 62.3512245,25.4797157 62.3512245,25.9888707 C62.3512245,25.9888707 61.0785812,24.2474273 61.4022338,22.8644589 C61.7260492,21.4814905 62.1671867,20.9518326 62.1671867,20.9518326 C62.1671867,20.9518326 61.2551338,21.0401903 60.7549285,20.9518326 C60.7549285,20.9518326 61.9318917,19.9221322 62.8146548,19.2453743 C63.6974179,18.5686164 66.3453817,18.5391638 66.3453817,18.5391638 C66.3453817,18.5391638 66.1395392,17.8329534 66.3748342,16.7148953 C66.3748342,16.7148953 67.5077,18.3774189 68.7067933,18.8849466 C69.9057239,19.3924744 69.7443043,19.3493532 71.0154832,19.6702396 C72.2869875,19.9911261 73.4955186,20.8048953 74.0030463,21.4889757 C74.5105741,22.1730561 75.062362,22.8792665 75.3933372,22.9894288 C75.3933372,22.9894288 74.598769,22.8792665 74.2015663,22.5481287 C74.2015663,22.5481287 74.8640048,24.0526499 73.9884014,25.9888707 C73.1129608,27.9252542 70.9196403,27.3523125 70.4941241,26.9248436 C70.0689333,26.4973748 70.3237549,25.9888707 70.3237549,25.9888707" id="Fill-39" fill="#C16253"></path>
            <path d="M70.4941241,26.9248436 C70.0689333,26.4973748 70.3237549,25.9888707 70.3237549,25.9888707 C70.2534593,25.5495232 70.048105,25.2232669 69.8967742,25.0335339 C70.2150571,23.1036592 70.0853682,21.1008854 69.5200744,19.2284513 C69.8503986,19.3625337 70.0464778,19.4227405 70.5248784,19.5457578 C71.1118142,20.4286837 71.5508363,21.4222599 71.8531724,22.4288539 C72.2381711,23.710447 72.4246497,25.0948798 72.0655238,26.383958 C71.9734235,26.714445 71.8391784,27.0367959 71.6692974,27.3386439 C71.1249946,27.2932447 70.6657951,27.0973282 70.4941241,26.9248436" id="Fill-40" fill="#844139"></path>
            <path d="M71.0932639,25.2698052 C71.0932639,25.2698052 71.2445948,20.42966 68.7067933,18.8849466 C68.7067933,18.8849466 70.6706767,18.6642965 71.79622,20.6283427 C72.9216005,22.5922261 72.845447,24.2768798 72.8172962,25.2209888 C72.78882,26.1649351 71.0932639,25.2698052 71.0932639,25.2698052" id="Fill-41" fill="#4B497A"></path>
            <path d="M71.8670038,25.0847911 C73.8603398,25.0847911 74.6062542,26.6159986 74.6062542,27.7635092 C74.6062542,28.7933724 74.2760927,30.4422274 71.8670038,30.4422274 C70.6622152,30.4422274 69.8469815,29.2429714 69.8469815,27.7635092 C69.8469815,26.2840471 70.6622152,25.0847911 71.8670038,25.0847911" id="Fill-42" fill="#4B497A"></path>
            <path d="M70.7922295,27.7635092 C70.7922295,26.4501856 71.6592087,25.3855001 72.7287758,25.3855001 C73.7980175,25.3855001 74.6062542,26.4501856 74.6062542,27.7635092 C74.6062542,29.0768329 73.7980175,30.1415184 72.7287758,30.1415184 C71.6592087,30.1415184 70.7922295,29.0768329 70.7922295,27.7635092" id="Fill-43" fill="#2D264D"></path>
            <path d="M71.6665311,27.7635092 C71.6665311,26.8698438 72.2563958,26.1452459 72.9842482,26.1452459 C73.7121006,26.1452459 74.3021281,26.8698438 74.3021281,27.7635092 C74.3021281,28.6573374 73.7121006,29.3817726 72.9842482,29.3817726 C72.2563958,29.3817726 71.6665311,28.6573374 71.6665311,27.7635092" id="Fill-44" fill="#4B497A"></path>
            <path d="M66.8145072,30.4422274 C66.2758997,30.7387056 64.5163942,30.8376402 64.396794,30.8212053 C64.2770312,30.8046077 64.5227403,32.1405497 64.9536263,32.1900169 C65.3846751,32.2396469 66.2464471,32.1242775 66.605573,31.7781693 C66.9645363,31.4322238 66.8145072,30.4422274 66.8145072,30.4422274" id="Fill-45" fill="#E15A62"></path>
            <path d="M66.7020668,30.8316195 C66.6688716,30.7133211 66.6428362,30.6181291 66.6177771,30.5255407 C66.0251462,30.727966 64.8585971,30.8133947 64.4991457,30.8221816 C64.5284356,31.0006869 64.5798555,31.181633 64.6525919,31.3589992 C64.6639824,31.3516768 64.6498257,31.3762477 64.6612162,31.3689252 C65.4377222,31.4911289 66.2277342,31.2393991 66.7020668,30.8316195" id="Fill-46" fill="#FFFFFE"></path>
            <path d="M66.5770968,27.248659 C66.5770968,27.0049025 66.6973479,26.8071961 66.845587,26.8071961 C66.9939888,26.8071961 67.1142399,27.0049025 67.1142399,27.248659 C67.1142399,27.4924155 66.9939888,27.6899592 66.845587,27.6899592 C66.6973479,27.6899592 66.5770968,27.4924155 66.5770968,27.248659" id="Fill-47" fill="#311B3F"></path>
            <path d="M63.5049186,27.4545015 C63.5049186,27.210745 63.6082466,27.0132013 63.7358201,27.0132013 C63.8632309,27.0132013 63.9665589,27.210745 63.9665589,27.4545015 C63.9665589,27.698258 63.8632309,27.8959644 63.7358201,27.8959644 C63.6082466,27.8959644 63.5049186,27.698258 63.5049186,27.4545015" id="Fill-48" fill="#311B3F"></path>
            <path d="M68.0803162,25.5280439 C67.8969293,25.426994 67.6993857,25.3573493 67.4966349,25.2990951 C67.2930706,25.2444207 67.082021,25.2123646 66.8675544,25.2047167 C66.6547149,25.1941398 66.4291832,25.1881191 66.2228525,25.2678526 C66.0161965,25.3391245 65.8284161,25.4691388 65.6902657,25.6403216 L65.7060497,25.6666825 C65.9276761,25.6427625 66.1107376,25.5884135 66.3040505,25.5627036 C66.4929699,25.5343901 66.6763568,25.4653962 66.8737378,25.4494495 C67.2645943,25.4162544 67.6740011,25.4471715 68.0679494,25.556032 L68.0803162,25.5280439" id="Fill-49" fill="#311B3F"></path>
            <path d="M62.7284125,26.0983821 C62.8242553,26.0612817 62.9249798,26.0380125 63.0252162,26.0262966 C63.125127,26.0129534 63.2250379,26.0080718 63.3241352,26.00677 C63.4238834,26.0054683 63.5229806,26.0411042 63.620288,26.0173469 C63.6694298,26.0062819 63.719548,25.996844 63.7706425,25.9753648 C63.8220624,25.9579536 63.8747841,25.9351726 63.9310857,25.8956314 L63.9343401,25.8652025 C63.8383345,25.771475 63.7296367,25.7314456 63.6191489,25.7112681 C63.5078475,25.6904398 63.3975225,25.7350254 63.2904519,25.764478 C63.1827304,25.7924661 63.077287,25.8300547 62.9781897,25.8808237 C62.8807196,25.9348472 62.7853649,25.9913115 62.7095368,26.0742994 L62.7284125,26.0983821" id="Fill-50" fill="#311B3F"></path>
            <path d="M65.8349249,57.7907973 C65.836064,57.8591402 65.7403839,57.9579121 65.5068788,57.9579121 C65.2730483,57.9579121 58.9876124,57.9579121 58.137719,57.9579121 C57.2878256,57.9579121 57.0894683,57.6218926 57.3446154,57.1970273 C57.5994369,56.7718365 58.6760011,55.8370026 61.3389353,55.1854665 C64.0018694,54.5339304 65.4019235,56.0574899 65.8349249,56.743523 C66.1523942,57.24682 65.8349249,57.7907973 65.8349249,57.7907973" id="Fill-51" fill="#4B497A"></path>
            <path d="M57.2818049,57.3246008 C57.4284168,57.8119511 63.0512516,57.5577804 63.0512516,57.5577804 C63.0512516,57.5577804 62.4810761,56.7876204 61.8508565,56.7656531 C61.2204741,56.743523 60.9139072,56.9627086 60.0687327,57.1081814 C59.2233956,57.2534915 59.8500353,56.7640259 59.8500353,56.7640259 C59.8500353,56.7640259 59.2528481,56.6318962 59.0097425,56.4434649 C59.0097425,56.4434649 60.4026369,56.03178 60.9869691,55.9360999 C61.5709758,55.8407452 63.0584113,55.9043692 63.2496088,55.9360999 C63.3848302,55.9587181 64.0711887,55.5602136 64.9004165,55.7601981 C65.3635213,56.0986584 65.6697628,56.4818671 65.8349249,56.743523 C66.1523942,57.24682 65.8349249,57.7907973 65.8349249,57.7907973 C65.836064,57.8591402 65.7403839,57.9579121 65.5068788,57.9579121 C65.2730483,57.9579121 58.9876124,57.9579121 58.137719,57.9579121 C57.375207,57.9579121 57.1384475,57.6869811 57.2818049,57.3246008" id="Fill-52" fill="#2D264D"></path>
            <path d="M81.3321767,53.1833435 C81.3321767,53.1833435 76.091737,53.9938583 73.2512739,54.502037 C70.5605144,54.9835293 68.2370169,55.1926262 67.578321,55.0650527 C66.9196252,54.9376419 64.6675623,54.109065 63.9450797,53.8116105 C63.2227598,53.5141559 61.7779573,53.3441122 61.0344837,53.57778 C60.2906846,53.8116105 59.6816188,54.066432 59.3841642,54.066432 C59.0868724,54.066432 59.1433367,54.5480871 59.5400512,54.6473471 C59.936603,54.7464444 60.2906846,54.7322876 60.2906846,54.7322876 C60.2906846,54.7322876 58.9451421,55.4687643 58.7043146,55.5397107 C58.4636498,55.6104945 58.7489002,56.0495166 59.0746683,56.0212031 C59.0746683,56.0212031 58.7894178,56.1912469 58.8885151,56.3611279 C58.9876124,56.5311717 59.6957755,56.5311717 59.6957755,56.5311717 C59.6957755,56.5311717 58.8317254,56.956037 59.554208,57.1260808 C60.2765278,57.2959618 61.140578,56.4887014 61.4948223,56.4177549 C61.8487411,56.3469711 62.670321,56.3896041 63.0670355,56.6870587 C63.4635873,56.9843505 65.1633741,58.3583692 67.4862208,57.5367893 C67.4862208,57.5367893 83.2532644,58.1756332 84.8256404,58.1756332 C86.3978537,58.1756332 87.3474952,56.786156 86.8432219,54.109065 C86.3391113,51.4319741 85.3616444,49.4347328 85.3616444,49.4347328 L79.9226847,49.8171279 L81.3321767,53.1833435" id="Fill-53" fill="#EB948C"></path>
            <path d="M61.5320854,54.3067714 C61.6708867,54.2740644 61.7815372,54.2548633 61.8508565,54.2506326 C61.8508565,54.2506326 61.716286,54.2739017 61.5320854,54.3067714" id="Fill-54" fill="#E15A62"></path>
            <path d="M60.2906846,54.7322876 C60.2906846,54.7322876 59.936603,54.7464444 59.5400512,54.6473471 C59.4284244,54.6195218 59.3449484,54.5607794 59.287345,54.4917855 C59.7284825,54.6867257 60.2714835,54.5622439 60.5687753,54.4914601 C60.7565557,54.4467117 61.2172197,54.3627475 61.5320854,54.3067714 C61.2167316,54.3808096 60.7544403,54.5256316 60.2906846,54.7322876" id="Fill-55" fill="#E15A62"></path>
            <path d="M60.3601666,55.369667 C60.3941754,55.3542085 60.422977,55.3421671 60.4415273,55.3364718 C60.4415273,55.3364718 60.4107729,55.3488387 60.3601666,55.369667" id="Fill-56" fill="#E15A62"></path>
            <path d="M58.7070809,55.8550646 C58.7121252,55.8597836 58.8676868,55.9969576 59.195082,55.8544138 C59.467803,55.7357899 60.1295905,55.4640453 60.3601666,55.369667 C60.0700345,55.5014712 59.2839279,55.9450495 59.0746683,56.0212031 C58.9298463,56.0337326 58.7933231,55.9539992 58.7070809,55.8550646" id="Fill-57" fill="#E15A62"></path>
            <path d="M59.5208501,56.3754474 C59.7615149,56.3045009 60.2644865,55.9998866 60.5725179,55.8544138 C60.8805493,55.7087782 61.273684,55.6918552 61.273684,55.6918552 C61.273684,55.6918552 61.1566874,55.7025948 60.848656,55.8544138 C60.5406245,56.0062327 59.6957755,56.5311717 59.6957755,56.5311717 C59.6957755,56.5311717 59.2414576,56.5310089 59.0097425,56.4434649 C59.0121833,56.4434649 59.2809989,56.445743 59.5208501,56.3754474" id="Fill-58" fill="#E15A62"></path>
            <path d="M64.0039848,56.7223692 C64.4500039,56.99867 65.7672329,57.3597486 66.5535022,57.2110213 C67.3396089,57.062294 67.5094899,56.4037609 67.5094899,56.4037609 L67.7291637,57.111924 C67.7291637,57.111924 78.6640354,57.4235353 80.8877848,57.3236244 C83.0861497,57.2246899 86.5148503,57.1747344 86.9626593,55.8544138 C86.8398047,57.386923 86.0096006,58.1756332 84.8256404,58.1756332 C83.2532644,58.1756332 67.4862208,57.5367893 67.4862208,57.5367893 C65.1633741,58.3583692 63.4635873,56.9843505 63.0670355,56.6870587 C62.7371994,56.4395596 62.1146277,56.3689385 61.7102653,56.3926958 L61.7102653,56.3926958 C62.3136359,56.1813209 63.5576403,56.4460684 64.0039848,56.7223692" id="Fill-59" fill="#E15A62"></path>
            <path d="M81.3321767,53.1833435 C81.3321767,53.1833435 83.3808379,52.9050901 83.7915465,52.8626198 L83.4799352,51.5878611 L80.8877848,52.1119864 L81.3321767,53.1833435" id="Fill-60" fill="#E15A62"></path>
            <path d="M86.8072605,49.615028 C86.8843904,49.8145243 86.8354113,50.038917 86.6824532,50.1882952 C85.7302082,51.1180847 84.4801831,52.3843819 83.1946848,52.579322 C81.7923525,52.7916733 79.4553491,52.8767766 79.3276129,52.579322 C79.2002021,52.2817048 78.7328665,48.4998989 77.8829732,46.5875981 C77.0330798,44.67546 76.480641,43.6981559 76.2682896,42.5932782 C76.0557756,41.4884005 77.9679137,38.8964128 78.8179698,38.6838988 C79.6677005,38.4713848 81.6224715,38.343974 82.4297319,39.0664566 C83.237155,39.7887765 83.8320641,42.5509707 84.766898,44.6331525 C85.521274,46.31325 86.4692883,48.740401 86.8072605,49.615028" id="Fill-61" fill="#4565A1"></path>
            <path d="M81.5476197,38.6469611 C81.2872656,38.6170204 81.027237,38.5953784 80.7665574,38.5896832 C80.5065288,38.579269 80.2463374,38.5799199 79.9874478,38.5952157 C79.7287209,38.6109997 79.4711331,38.6368724 79.2176133,38.6824343 C79.0900398,38.7027745 78.9650699,38.7323898 78.8396117,38.7605406 C78.7231033,38.8030108 78.6026895,38.8339279 78.4952934,38.900969 C78.3810631,38.9522262 78.2818031,39.0330987 78.1768478,39.1029062 C78.0814932,39.1871958 77.9794669,39.2636748 77.8922483,39.3580532 C77.7054442,39.5336295 77.5482554,39.7394719 77.3886258,39.9428736 C77.2330643,40.1500178 77.0918222,40.3685525 76.9575771,40.5916434 C76.819264,40.8126189 76.6965721,41.0428696 76.576972,41.2760492 C76.7525483,40.7817019 76.9953284,40.3116 77.2864369,39.8706253 C77.4345132,39.6519279 77.5951192,39.4397393 77.7828996,39.2495181 C77.8710945,39.149119 77.9793042,39.0674329 78.0790523,38.9777735 C78.1903537,38.9012945 78.2949835,38.8150522 78.4197908,38.7569607 C78.5367874,38.6863396 78.6718461,38.6505409 78.8015349,38.6062808 C78.931712,38.5789436 79.0610754,38.5477011 79.192717,38.5309408 C79.4553491,38.4931894 79.7196085,38.4684558 79.9837052,38.4707339 C80.511085,38.4695949 81.0381393,38.5206893 81.5476197,38.6469611" id="Fill-62" fill="#2A5293"></path>
            <path d="M85.7463176,50.3978802 C85.7393205,49.7188442 84.3055831,43.4945915 83.0391232,40.0252105 C83.577568,41.2106353 84.0805396,43.1045485 84.766898,44.6331525 C85.521274,46.31325 86.4692883,48.740401 86.8072605,49.615028 C86.8843904,49.8145243 86.8354113,50.038917 86.6824532,50.1882952 C86.3176321,50.5444921 85.9090389,50.9496681 85.471644,51.3255544 C85.5045137,51.2934983 85.7528264,51.0318424 85.7463176,50.3978802" id="Fill-63" fill="#2A5293"></path>
            <path d="M17.3945821,43.385731 C17.3687094,43.5951533 17.4124814,43.8062028 17.5141822,43.9910542 C17.8850241,44.665534 18.0729672,45.4404129 18.0487217,46.2097592 C18.0326123,46.7166361 17.9284707,47.2353916 18.0666211,47.7235555 C18.3046823,48.5656383 19.1934661,49.0863465 19.4795302,49.9134589 C19.7330499,50.6466811 19.4972668,51.56866 20.0241584,52.1380218 C20.1548236,52.2791012 20.3575743,52.3871482 20.5362423,52.3155508 C20.625739,52.2797521 20.6929429,52.2049003 20.7567297,52.1323266 C21.3609139,51.4462936 22.0077311,50.6123469 21.8214152,49.7173797 C21.6463271,48.876436 20.7796734,48.3082132 20.6154876,47.4651541 C20.4814052,46.7761921 20.8335341,45.9817867 20.4387723,45.4013598 C20.3299117,45.241242 20.1740247,45.1188756 20.0550754,44.9659176 C19.5856244,44.3633606 19.7595735,43.4028167 19.2186879,42.8633956 C19.0424607,42.6874938 18.8218106,42.5875829 18.5813085,42.5363257 C18.0143875,42.4150984 17.465854,42.810023 17.3945821,43.3855682 L17.3945821,43.385731" id="Fill-64" fill="#C25D59"></path>
            <path d="M20.8306052,54.0695237 C20.866892,53.6210638 20.8823505,53.1722785 20.8991108,52.7223541 C20.8786079,52.2740569 20.8546879,51.8254342 20.8162857,51.377137 C20.7778835,50.9290025 20.7274398,50.4807053 20.6481946,50.0351744 C20.5676475,49.5924097 20.4612278,49.1400445 20.2750746,48.7238034 C19.949632,47.9012472 19.6866744,47.0407769 19.4209505,46.1884427 L19.0354637,44.9032699 C18.8769732,44.4834489 18.7225506,44.0628143 18.5731725,43.639088 C18.6387492,44.0847817 18.7406127,44.522502 18.8301094,44.963314 L19.2162471,46.2512532 C19.4835982,47.1081436 19.744115,47.9629186 20.077531,48.8061404 C20.2578262,49.2093638 20.3575743,49.6358563 20.4376332,50.0724376 C20.5150885,50.5086934 20.565044,50.9514581 20.6031208,51.3953618 C20.6403839,51.8394282 20.6665821,52.2851219 20.6835051,52.7313037 L20.8306052,54.0695237" id="Fill-65" fill="#EB9396"></path>
            <path d="M18.4626847,44.9786098 C18.5367229,45.0905621 18.6319149,45.1745263 18.7342666,45.2487272 C18.7868256,45.283875 18.8484969,45.3068187 18.9057748,45.3357831 C18.9638663,45.3636084 19.0146354,45.4010343 19.0618246,45.4436673 L19.0821647,45.4620548 L19.1003895,45.4342295 C19.1431852,45.3688155 19.1950933,45.3081205 19.2360991,45.2418929 C19.2756404,45.1748517 19.3171343,45.1087869 19.3522821,45.039793 C19.4207878,44.9003409 19.4715568,44.7524272 19.4974295,44.5921467 L19.4847372,44.5858006 C19.3726223,44.7032854 19.2855664,44.8332997 19.2159216,44.972101 C19.1819129,45.0417457 19.1545757,45.1148076 19.1251231,45.1867304 C19.0969724,45.2594668 19.0800493,45.3377357 19.0538512,45.4112858 L19.0925789,45.4018479 C19.0379045,45.3694664 18.9869728,45.3320405 18.9433634,45.2846886 C18.8989405,45.2386385 18.8589111,45.1867304 18.8097693,45.1470264 C18.708882,45.0711982 18.6006724,45.0051334 18.4713089,44.9672193 L18.4626847,44.9786098" id="Fill-66" fill="#EB9396"></path>
            <path d="M18.5715453,46.51177 C18.6486752,46.575394 18.7280832,46.6440624 18.8113965,46.701503 C18.8945471,46.7602454 18.9788367,46.8168724 19.0702861,46.8625971 C19.162549,46.9068573 19.2605073,46.9418424 19.3491904,46.992286 C19.4383617,47.0414278 19.5197223,47.1035874 19.599293,47.1683504 L19.6272811,47.1909687 L19.6557573,47.154031 C19.7786119,46.9929369 19.8837299,46.8217541 19.9831526,46.6473168 C20.0765546,46.4692997 20.1597052,46.2857501 20.2195867,46.0888573 L20.2072198,46.0818603 C20.0693949,46.2346556 19.9550018,46.400794 19.8508602,46.572465 C19.7527392,46.7475531 19.6603135,46.9258957 19.5856244,47.1144897 L19.6420887,47.1001702 C19.5488494,47.0567236 19.4572373,47.0111617 19.3732731,46.9530701 C19.2888208,46.8961177 19.2134808,46.8241949 19.1319574,46.7620353 C19.0496205,46.7011776 18.959961,46.6520357 18.8681862,46.606311 C18.7752723,46.5617254 18.6831721,46.5184415 18.574637,46.4981014 L18.5715453,46.51177" id="Fill-67" fill="#EB9396"></path>
            <path d="M19.1164989,48.5356976 C19.2009513,48.6208008 19.2951669,48.6836112 19.3923115,48.7402383 C19.4881544,48.7993061 19.5935978,48.8385219 19.7057128,48.8648828 C19.817665,48.8920572 19.9188777,48.9413618 20.0090253,49.0103556 C20.0991729,49.0786986 20.1872051,49.1540385 20.27719,49.2131064 L20.3452075,49.2575293 L20.3958138,49.1818639 C20.4703402,49.0700743 20.5380322,48.9547049 20.5905912,48.830874 C20.6434757,48.7073685 20.6901767,48.5802832 20.7163748,48.4421328 L20.7007536,48.4335086 C20.5979137,48.5296769 20.5157394,48.6370729 20.4395859,48.7478862 C20.3632696,48.8585366 20.3019236,48.9774859 20.2475747,49.1003405 L20.3661985,49.069098 C20.2633587,49.012471 20.15401,48.979764 20.0458003,48.94185 C19.9375906,48.9047495 19.8389815,48.8510515 19.749973,48.7770133 C19.6616153,48.701836 19.5646334,48.6426055 19.4582137,48.6037151 C19.3526075,48.5627093 19.2434215,48.5295142 19.1239841,48.5195882 L19.1164989,48.5356976" id="Fill-68" fill="#EB9396"></path>
            <path d="M21.5441381,54.1572305 C21.8944771,54.0994645 23.208777,53.6789926 23.1170022,53.3359761 C22.7230539,51.8630228 22.3291057,50.1920377 23.6933611,49.4715078 C24.3499416,49.1249114 25.1739623,48.9486842 25.5477331,48.3072369 C25.9327317,47.6465884 25.6492712,46.8067837 25.3036511,46.124656 C24.9581938,45.4423655 24.5422781,44.712235 24.6901918,43.9619271 C24.8454279,43.1763086 25.5882507,42.5966953 25.7070373,41.8047307 C25.8694331,40.7234477 24.8193925,39.8522378 23.8108459,39.4301387 C23.4676666,39.2864558 23.0906414,39.1637639 22.7290746,39.2509826 C22.4708359,39.3133048 22.2469314,39.4789551 22.0697279,39.6769869 C21.3612393,40.469277 21.3902037,41.664465 21.5519487,42.714831 C21.7136937,43.7655225 21.9611928,44.8747936 21.5652919,45.8612102 C21.2842722,46.5618881 20.6828542,47.2209094 20.8439483,47.9583624 C20.9083859,48.2538643 21.0927492,48.5116148 21.1628821,48.8056522 C21.3522897,49.5984304 20.6935938,50.312777 20.3917458,51.0699192 C20.002191,52.0468979 20.2695421,53.2407841 21.0079714,53.9821424 C21.1483999,54.1230591 21.3475707,54.1894494 21.5441381,54.1572305" id="Fill-69" fill="#E4706D"></path>
            <path d="M21.4199817,54.1735027 C21.5011797,53.5903095 21.5823776,53.0093944 21.6863565,52.4327101 C21.7109274,52.2883763 21.7411936,52.1450189 21.7644627,52.0008478 C21.7864301,51.8563513 21.7992851,51.7108784 21.8232051,51.5668701 C21.8666517,51.2780397 21.9153054,50.9905112 21.9704679,50.7044471 C22.0816066,50.1329699 22.2147126,49.5640962 22.4101409,49.0232106 C22.5079364,48.7539068 22.6242821,48.4902983 22.7777283,48.2629767 C22.8538819,48.1498854 22.9438668,48.0493236 23.0434522,47.9816315 C23.1747683,47.8952265 23.3000637,47.7842506 23.3980219,47.6517954 C23.6001218,47.3841189 23.6611423,47.0437059 23.6538198,46.737139 C23.6469855,46.4263413 23.5882431,46.1297003 23.5225037,45.8398937 C23.387445,45.2614195 23.2174013,44.7026345 23.1228602,44.1335981 C23.0268546,43.5676534 23.0081417,42.9875519 23.1576826,42.4445509 C23.2037327,42.3120958 23.2398568,42.1771998 23.2834661,42.0423039 C23.327889,41.9078961 23.3858178,41.7773936 23.4510691,41.6494946 C23.581897,41.3936967 23.7527544,41.1554727 23.9418365,40.9292901 C23.7099587,41.1110498 23.4950038,41.3212857 23.3155222,41.5643914 C23.2255373,41.6852933 23.141085,41.8127041 23.0693249,41.9477628 C22.995124,42.0815197 22.9323135,42.2237381 22.8997693,42.3739299 C22.7362344,42.9681881 22.7595035,43.5904344 22.859089,44.1778583 C22.9575353,44.7682112 23.1305081,45.3354576 23.2618242,45.8997751 C23.3260991,46.1816084 23.3806107,46.4647435 23.386306,46.7416952 C23.392164,47.0175078 23.3387914,47.2868115 23.1829044,47.4929794 C23.1057745,47.5963075 23.009118,47.6840143 22.8955385,47.7588661 C22.7518556,47.8568243 22.6454359,47.9821197 22.5574037,48.1111577 C22.3823155,48.3711863 22.261739,48.6500906 22.1587365,48.9314358 C21.9553348,49.4952651 21.820927,50.0735766 21.707673,50.6538408 C21.6518596,50.9439729 21.6027178,51.235244 21.5586203,51.5270033 C21.5386056,51.6731271 21.5112684,51.8182745 21.4936945,51.9647237 C21.4787241,52.111661 21.4722153,52.2594119 21.4627774,52.406512 C21.4310468,52.9958886 21.4090794,53.5846143 21.4199817,54.1735027" id="Fill-70" fill="#EB9396"></path>
            <path d="M23.7480355,42.6765915 C23.6471482,42.7117393 23.5625332,42.7706444 23.4841015,42.8332921 C23.4064834,42.8972416 23.3322825,42.9647709 23.2776082,43.0503623 C23.2222829,43.1353029 23.1729784,43.2249623 23.1020319,43.2947697 C23.0338516,43.367018 22.9515147,43.4259231 22.8725948,43.4892217 L22.976411,43.4957306 C22.9414259,43.4202279 22.8981421,43.3496068 22.8586008,43.2771958 C22.817595,43.2054357 22.7765893,43.1340011 22.728261,43.0674481 C22.6826991,42.9992679 22.6306282,42.9349929 22.5813237,42.869579 C22.5313682,42.8038396 22.4752294,42.7433072 22.4299929,42.6738252 L22.412419,42.6767542 C22.4086764,42.7686918 22.436339,42.853795 22.4644898,42.9341793 C22.4952441,43.0140755 22.5295783,43.0916936 22.5710722,43.1649181 C22.6097999,43.2397699 22.6589418,43.3077874 22.7085717,43.3751541 C22.759829,43.4417071 22.8086454,43.5090737 22.8673877,43.5707451 L22.9324763,43.639088 L22.9713667,43.5772539 C23.0245765,43.4929643 23.0758337,43.4052575 23.142224,43.3318702 C23.2056853,43.2557166 23.2922531,43.2008796 23.3739392,43.1424626 C23.4561134,43.0845338 23.5208765,43.0106583 23.5845005,42.9354811 C23.6476364,42.8591648 23.7063788,42.7807331 23.7592632,42.6904228 L23.7480355,42.6765915" id="Fill-71" fill="#EB9396"></path>
            <path d="M22.4737649,44.906687 C22.5154216,45.0069233 22.5700959,45.0985354 22.630791,45.1842896 C22.6929505,45.2690674 22.7573881,45.3517298 22.8315891,45.4254425 C22.9074172,45.4975281 22.9943104,45.5591994 23.075671,45.6255897 C23.1554045,45.6936072 23.2257001,45.7700863 23.2896495,45.853725 L23.309827,45.8802486 L23.3384659,45.8573049 C23.4447229,45.7728525 23.5288499,45.6958853 23.6124886,45.6059005 C23.6917339,45.5154274 23.7761862,45.4295106 23.849899,45.3354576 C23.9242626,45.2418929 23.9935819,45.1447483 24.059484,45.0450001 C24.126037,44.9454147 24.1857558,44.8414358 24.255075,44.7442911 L24.2449863,44.7294835 C24.1286406,44.7844833 24.0381675,44.8697493 23.9480199,44.9509472 C23.8596623,45.0342605 23.7776507,45.1227809 23.7014972,45.2158575 C23.6248554,45.3081205 23.5596042,45.4093331 23.4881695,45.5053387 C23.4186875,45.5992289 23.3599451,45.7160628 23.2937176,45.7983998 L23.3426967,45.8019796 C23.2621496,45.7359148 23.1892505,45.6613884 23.1267655,45.5777497 C23.065745,45.4924837 23.0110707,45.4016852 22.9469585,45.3201618 C22.8812191,45.2399402 22.8063673,45.1681801 22.7320036,45.0959319 C22.6561755,45.0249854 22.5757912,44.9582697 22.4877589,44.8957847 L22.4737649,44.906687" id="Fill-72" fill="#EB9396"></path>
            <path d="M24.8174399,46.6284411 C24.7067894,46.7582927 24.5920709,46.8780556 24.4747488,46.9924487 C24.3571013,47.1070045 24.2306668,47.2070781 24.1078123,47.3174032 C23.9823541,47.4238229 23.8402984,47.5191776 23.6793671,47.566204 C23.5197375,47.6166476 23.3503446,47.6229938 23.1871351,47.6210411 L23.260197,47.672461 C23.2313953,47.5349615 23.1885996,47.4052727 23.1435258,47.2739566 C23.0992656,47.1429659 23.0424759,47.0157179 22.9741329,46.8943278 C22.9064409,46.7724495 22.8260565,46.6561038 22.7313527,46.5511485 C22.6350217,46.4489595 22.5233949,46.3527913 22.3901262,46.3051139 L22.3811765,46.3205724 C22.4820637,46.4118591 22.5598445,46.5173025 22.6273738,46.6299056 C22.6960422,46.7415325 22.7542964,46.8595054 22.8114116,46.978292 L22.9754347,47.3401841 C23.0292954,47.4615742 23.0768101,47.5880087 23.1239992,47.7107005 L23.1469429,47.7699311 L23.1972238,47.7621205 C23.3711729,47.7347833 23.5360096,47.6760409 23.6972664,47.6192512 C23.8565706,47.5570916 24.0204309,47.5024173 24.1772943,47.4221957 C24.3356221,47.3447403 24.4690536,47.2244893 24.5808431,47.0907324 C24.6926326,46.95665 24.7835938,46.8041802 24.8333866,46.6364145 L24.8174399,46.6284411" id="Fill-73" fill="#EB9396"></path>
            <path d="M21.648117,47.9459956 C21.5945817,48.0750336 21.5760315,48.2156248 21.5796113,48.3549142 C21.5854693,48.4938782 21.6074367,48.634144 21.6560903,48.7652973 C21.7073476,48.8954744 21.7825248,49.0150745 21.866489,49.1234469 L22.1118727,49.4493777 L22.1292839,49.4726469 L22.1575974,49.4526321 C22.2902153,49.3582538 22.4412206,49.2866564 22.5850663,49.2116419 C22.7287492,49.134512 22.8778019,49.0684471 23.0268546,49.0051485 C23.1755819,48.9408736 23.3243092,48.8759478 23.4771045,48.8185072 C23.6287607,48.7561849 23.7849732,48.7067177 23.943301,48.6471617 L23.9405348,48.629425 C23.6025626,48.6221026 23.2611733,48.6938627 22.9503756,48.8307113 C22.7944886,48.8987288 22.6478767,48.9861101 22.5059837,49.0782104 C22.3645789,49.1725888 22.2384699,49.2861682 22.1149644,49.4033276 L22.1606891,49.4064193 C22.0698906,49.3107392 21.9870655,49.2048076 21.9341811,49.0832548 C21.8754387,48.9646309 21.8463115,48.8354302 21.8059567,48.7145283 C21.7276877,48.4704463 21.677895,48.2192046 21.6655282,47.9500636 L21.648117,47.9459956" id="Fill-74" fill="#EB9396"></path>
            <path d="M19.1610846,57.9579121 L22.9129497,57.9579121 C23.2610106,57.9579121 23.5571634,57.6570404 23.6095596,57.2495862 L24.2034924,52.6343218 C24.2684182,52.1295603 23.9382567,51.6747543 23.5067198,51.6747543 L18.5673145,51.6747543 C18.1357776,51.6747543 17.8056161,52.1295603 17.8705419,52.6343218 L18.4644746,57.2495862 C18.5168709,57.6570404 18.812861,57.9579121 19.1610846,57.9579121" id="Fill-75" fill="#4B497A"></path>
            <path d="M18.5673145,51.6747543 L21.0925865,51.6747543 C20.6610496,51.6747543 20.330888,52.1295603 20.3958138,52.6343218 L20.9897466,57.2495862 C21.0421429,57.6570404 21.3381329,57.9579121 21.6863565,57.9579121 L19.1610846,57.9579121 C18.812861,57.9579121 18.5168709,57.6570404 18.4644746,57.2495862 L17.8705419,52.6343218 C17.8056161,52.1295603 18.1357776,51.6747543 18.5673145,51.6747543" id="Fill-76" fill="#2D264D"></path>
            <path d="M52.7682413,56.6904758 L37.0770258,56.6904758 C36.9188607,56.6904758 36.790799,56.8185375 36.790799,56.9767026 L36.790799,57.671848 C36.790799,57.8298504 36.9188607,57.9579121 37.0770258,57.9579121 L52.7682413,57.9579121 L52.7682413,56.6904758" id="Fill-77" fill="#141029"></path>
            <path d="M56.8063333,57.5647774 L56.8063333,57.8474243 C56.8063333,57.9086075 56.7567033,57.9579121 56.6956828,57.9579121 L52.7430195,57.9579121 C52.620165,57.9579121 52.5204168,57.8583266 52.5204168,57.7353093 L52.5204168,56.9119395 C52.5204168,56.7789962 52.6361116,56.6755055 52.7682413,56.6904758 L56.7082123,57.4549405 C56.7640257,57.4614494 56.8063333,57.5086386 56.8063333,57.5647774" id="Fill-78" fill="#4B497A"></path>
            <path d="M25.3462841,30.0211046 L54.6728942,30.0211046 C55.2661761,30.0211046 55.7956712,30.3932483 55.9967948,30.9515451 L62.4104551,48.7626938 C62.6786198,49.6814183 62.0065808,50.3695667 60.9264367,50.4859124 C60.7609492,50.5038118 59.9732153,50.1497302 58.736208,49.5678388 L32.518063,49.5678388 C31.9247811,49.5678388 31.395286,49.1956952 31.1941624,48.6373984 L25.4003076,32.5478411 C24.4207253,32.036408 23.8624285,31.7443233 23.8624285,31.7443233 C23.8624285,31.7443233 23.4997227,30.0211046 25.3462841,30.0211046" id="Fill-79" fill="#4B497A"></path>
            <path d="M53.7546579,30.9391783 L24.4282105,30.9391783 C24.011644,30.9391783 23.7211864,31.3523276 23.8624285,31.7443233 L30.2760888,49.5556347 C30.4770496,50.1137688 31.0067075,50.4859124 31.5999894,50.4859124 L60.9264367,50.4859124 C61.343166,50.4859124 61.6334608,50.072763 61.4923814,49.6807674 L55.0787212,31.8696187 C54.8777604,31.3113219 54.3481025,30.9391783 53.7546579,30.9391783" id="Fill-80" fill="#2D264D"></path>
            <polyline id="Fill-81" fill="#141029" points="47.1340161 50.4859124 45.8322457 45.6576458 40.8982102 50.4859124 47.1340161 50.4859124"></polyline>
            <path d="M39.9938052,37.1945107 C40.1226805,37.9907061 40.6380189,38.3115925 41.2550581,38.3115925 C41.8720972,38.3115925 42.3363411,37.8019493 42.2282942,37.1945107 C42.1202472,36.5870721 41.5839178,36.0772662 40.9668786,36.0772662 C40.3498394,36.0772662 39.8950334,36.5852821 39.9938052,37.1945107" id="Fill-82" fill="#4B497A"></path>
            <polyline id="Fill-83" fill="#141029" points="53.7762998 47.5221066 53.3992746 46.4748322 53.8732817 46.4748322 54.250307 47.5221066 53.7762998 47.5221066"></polyline>
            <polyline id="Fill-84" fill="#141029" points="52.7780046 47.5221066 52.4009794 46.4748322 52.8749865 46.4748322 53.2520118 47.5221066 52.7780046 47.5221066"></polyline>
            <polyline id="Fill-85" fill="#141029" points="51.7798721 47.5221066 51.4026841 46.4748322 51.8766913 46.4748322 52.254042 47.5221066 51.7798721 47.5221066"></polyline>
            <polyline id="Fill-86" fill="#141029" points="50.7817396 47.5221066 50.4045517 46.4748322 50.8785588 46.4748322 51.2557468 47.5221066 50.7817396 47.5221066"></polyline>
            <polyline id="Fill-87" fill="#141029" points="36.6028559 47.5221066 36.2258306 46.4748322 36.6998378 46.4748322 37.0770258 47.5221066 36.6028559 47.5221066"></polyline>
            <polyline id="Fill-88" fill="#141029" points="35.6047234 47.5221066 35.2275354 46.4748322 35.7015426 46.4748322 36.0787306 47.5221066 35.6047234 47.5221066"></polyline>
            <polyline id="Fill-89" fill="#141029" points="34.6064282 47.5221066 34.2294029 46.4748322 34.7034101 46.4748322 35.0805981 47.5221066 34.6064282 47.5221066"></polyline>
            <polyline id="Fill-90" fill="#141029" points="33.6082957 47.5221066 33.2311077 46.4748322 33.7051149 46.4748322 34.0823029 47.5221066 33.6082957 47.5221066"></polyline>
            <path d="M37.2311229,56.2366461 C37.5204414,55.4046521 41.0298518,44.0805509 41.0298518,44.0805509 L45.5346284,44.0805509 L45.8322457,45.6576458 C45.8322457,45.6576458 42.8118128,55.4046521 42.5223316,56.2366461 C42.5003642,56.3001074 42.4793732,56.3637314 42.4596839,56.4275182 L42.4600093,56.4275182 C42.1952618,57.2411247 42.8936616,57.2377076 43.6800937,57.2377076 C44.4666885,57.2377076 51.624636,57.2377076 51.624636,57.2377076 L51.624636,57.9579121 L38.388885,57.9579121 C36.7969824,57.9579121 36.9416417,57.0686401 37.2311229,56.2366461" id="Fill-91" fill="#2D264D"></path>
            <path d="M45.5346284,44.0805509 C45.5346284,44.0805509 42.025218,55.4046521 41.7358995,56.2366461 C41.4464183,57.0686401 41.3017591,57.9579121 42.8936616,57.9579121 L37.6022902,57.9579121 C36.0103876,57.9579121 36.1550469,57.0686401 36.4445281,56.2366461 C36.7340093,55.4046521 40.243257,44.0805509 40.243257,44.0805509 L45.5346284,44.0805509" id="Fill-92" fill="#4B497A"></path>
            <path d="M44.4313779,44.0805509 C44.0823407,44.0644415 43.7334663,44.0566309 43.3844291,44.0450777 C43.0353919,44.033199 42.6863547,44.0304328 42.3373175,44.0229476 C41.988443,44.0172523 41.6394058,44.0071636 41.2903686,44.0070009 L40.2434197,44.000492 L40.1850027,44.0001666 L40.166778,44.0569563 C40.0208169,44.5129014 39.8769713,44.9696601 39.73996,45.4283715 L39.3224171,46.8028784 C39.0537642,47.7222538 38.7847859,48.6413037 38.5392395,49.5678388 C38.8615904,48.6652237 39.1606721,47.7552862 39.4600793,46.8455114 L39.8945452,45.4763743 C40.0414826,45.0205919 40.1817483,44.5628569 40.319736,44.104471 L40.2434197,44.1606098 L41.2903686,44.154101 C41.6394058,44.154101 41.988443,44.1440122 42.3373175,44.1384797 C42.6863547,44.1306691 43.0353919,44.1280656 43.3844291,44.1160242 C43.7334663,44.1047964 44.0823407,44.0966603 44.4313779,44.0805509" id="Fill-93" fill="#6F6BA2"></path>
            <path d="M13.7419769,60.7380056 L91.416016,60.7380056 C92.1835724,60.7380056 92.8059814,60.1155966 92.8059814,59.3478775 C92.8059814,58.5801584 92.1835724,57.9579121 91.416016,57.9579121 L13.7419769,57.9579121 C12.9742578,57.9579121 12.3520115,58.5801584 12.3520115,59.3478775 C12.3520115,60.1155966 12.9742578,60.7380056 13.7419769,60.7380056" id="Fill-94" fill="#8A4C51"></path>
            <path d="M13.7419769,60.7380056 L91.416016,60.7380056 C92.1835724,60.7380056 92.8059814,60.1155966 92.8059814,59.3478775 L12.3520115,59.3478775 C12.3520115,60.1155966 12.9742578,60.7380056 13.7419769,60.7380056" id="Fill-95" fill="#592D3E"></path>
            <path d="M30.1542106,13.9619762 C30.1542106,20.4189204 24.9197916,25.6535021 18.4626847,25.6535021 C12.0055778,25.6535021 6.77099615,20.4189204 6.77099615,13.9619762 C6.77099615,7.50486936 12.0055778,2.27028766 18.4626847,2.27028766 C24.9197916,2.27028766 30.1542106,7.50486936 30.1542106,13.9619762" id="Fill-96" fill="#4565A1"></path>
            <g id="Group-133" transform="translate(6.770996, 0.000000)">
                <mask id="mask-2" fill="white">
                    <use xlink:href="#path-1"></use>
                </mask>
                <g id="Clip-98"></g>
                <path d="M28.1314221,23.2922532 C28.3535367,24.4078705 27.3207446,25.3993314 26.9974173,25.5853218 C26.6739274,25.7713123 24.5037133,26.6389423 23.2001529,26.6698593 C21.8964298,26.7007764 20.1761402,23.9431384 20.8802353,23.6331543 C21.5844931,23.323333 26.3811917,22.9825945 26.9079206,22.9825945 C27.4346495,22.9825945 28.1314221,23.2922532 28.1314221,23.2922532" id="Fill-97" fill="#F0B1B4" mask="url(#mask-2)"></path>
                <path d="M24.7126475,22.7036902 C24.1437738,26.0500539 22.7923733,28.6529439 22.3707624,28.6994822 C21.9491515,28.7458578 17.8980419,27.3514989 16.7811229,26.8402286 C15.6643665,26.3289582 17.1241394,18.4748889 17.8192848,18.613202 C18.5142675,18.7515151 20.0379898,20.2604298 21.2963137,20.9838887 C22.5546375,21.7075104 24.7126475,22.7036902 24.7126475,22.7036902" id="Fill-99" fill="#FFFFFE" mask="url(#mask-2)"></path>
                <path d="M18.0400976,24.0947947 C18.4306287,24.7647183 21.6499071,26.462227 23.4229184,27.0808934 C22.9847099,28.0692626 22.571886,28.6771894 22.3707624,28.6994822 C22.0096839,28.7391862 18.9881119,27.7226662 17.4259874,27.1087187 C17.5568153,25.8652025 18.0400976,24.0947947 18.0400976,24.0947947" id="Fill-100" fill="#CAE8F1" mask="url(#mask-2)"></path>
                <path d="M28.136141,23.1375052 C28.1678717,24.4651484 26.9720328,24.6558577 25.5405735,24.3149566 C24.1091142,23.9740555 21.7716226,20.7515227 20.7311826,19.295167 C19.6907425,17.8389741 17.7493146,15.243732 17.3478812,15.0115286 C16.9464477,14.7789999 16.0257706,14.6558199 15.2380367,13.3462388 C14.4503029,12.0368205 15.4865121,9.29447828 15.8586558,8.96919839 C16.2309621,8.64375578 19.4209506,9.73008322 19.791467,10.2792676 C20.1621462,10.8282893 19.5291603,13.7797284 19.641438,14.1515465 C19.7537157,14.5233647 22.4687207,17.5600697 23.6539827,18.3037061 C24.8394074,19.0473425 28.1130346,22.1769614 28.136141,23.1375052" id="Fill-101" fill="#F0B1B4" mask="url(#mask-2)"></path>
                <path d="M17.4925404,11.1600781 C17.1174678,10.9742503 17.0266693,10.1298895 17.2627779,10.2786167 C17.4987238,10.4275067 17.9117105,10.4242523 18.47017,10.4164417 C19.0287923,10.4086311 19.2579039,10.3606283 19.2579039,10.3606283 C19.2579039,10.3606283 19.315019,10.7264258 19.31209,11.0261584 C19.31209,11.0261584 17.8677757,11.3460685 17.4925404,11.1600781" id="Fill-102" fill="#E67D82" mask="url(#mask-2)"></path>
                <path d="M15.0084369,11.3520892 C15.2359213,10.9291765 15.4114976,10.6084528 15.4114976,10.6084528 L17.6061199,12.7207381 C18.2062361,12.2003554 18.9402719,11.7255346 18.9402719,11.7255346 L19.1334221,12.0698529 C18.7783642,12.6706199 18.469031,13.9411479 18.4620339,14.2509693 C18.4620339,14.2509693 18.1250381,14.6227874 17.9369323,14.6537045 C17.9369323,14.6537045 20.2846753,18.3720491 21.7939154,20.2002229 C23.2942059,22.0176572 24.3217909,23.589545 25.0291404,24.0947947 C23.6020746,23.2720758 21.6556023,20.5889641 20.7311826,19.295167 C19.6907425,17.8389741 17.7493146,15.243732 17.3478812,15.0115286 C16.9464477,14.7789999 16.0257706,14.6558199 15.2380367,13.3462388 C14.9256118,12.8268324 14.9021799,12.0822197 15.0084369,11.3520892" id="Fill-103" fill="#E67D82" mask="url(#mask-2)"></path>
                <path d="M19.5761867,11.5641151 C19.5495004,11.7808598 17.3688722,13.6711933 17.1405742,13.8882635 C17.1234885,13.9043729 16.9529566,13.929432 16.9060928,13.8882635 C16.3261541,13.3786203 13.7937224,8.77995351 13.7486486,8.61397778 C13.7063411,8.45922982 15.3875776,6.877416 15.9008006,6.45417788 C15.9707707,6.39657454 16.2587875,6.4313969 16.3059766,6.50136706 C16.8240813,7.26859802 19.6105209,11.2842344 19.5761867,11.5641151" id="Fill-104" fill="#080A1E" mask="url(#mask-2)"></path>
                <path d="M19.3417053,11.5641151 C19.3151818,11.7808598 17.1343908,13.6711933 16.9060928,13.8882635 C16.6779575,14.105171 13.5629836,8.79345938 13.5141672,8.61397778 C13.4718597,8.45922982 15.3436428,6.90296325 15.8570286,6.47988785 C15.926836,6.42228451 16.0243061,6.4313969 16.071658,6.50136706 C16.5897626,7.26859802 19.3760395,11.2842344 19.3417053,11.5641151" id="Fill-105" fill="#2A316D" mask="url(#mask-2)"></path>
                <path d="M18.9746061,11.2534801 C18.9497097,11.4560681 16.9096727,13.224686 16.6960196,13.4275995 C16.4825293,13.6305129 13.5686788,8.66132968 13.5227914,8.49340129 C13.4834129,8.34874205 15.2342941,6.89287453 15.7146474,6.49697359 C15.7800614,6.44295011 15.871348,6.45157434 15.9154455,6.51698831 C16.4001923,7.23475199 19.0068249,10.9914988 18.9746061,11.2534801" id="Fill-106" fill="#17A2D0" mask="url(#mask-2)"></path>
                <path d="M17.6666522,8.6614924 C17.3290055,8.45792805 16.9143916,7.76847787 16.8771284,7.53611185 C16.8398652,7.30374582 16.8628089,7.09448622 17.0444059,7.04811065 C17.2258402,7.00157236 17.7847879,7.7297502 18.0633667,7.9466577 C18.3419456,8.1635652 18.6812195,8.61283873 18.5429064,8.9150122 C18.404756,9.21702294 17.7857642,9.10083993 17.7193739,9.05446436 C17.6531463,9.00792606 17.6666522,8.6614924 17.6666522,8.6614924" id="Fill-107" fill="#F0B1B4" mask="url(#mask-2)"></path>
                <path d="M16.9397761,7.10913114 C16.8327055,7.37339054 17.5304545,8.43368257 18.1421239,8.73894774 L17.9146395,8.99881367 C17.9146395,8.99881367 17.8114742,8.97603269 17.6788563,8.94462747 C17.6607942,8.82697997 17.6666522,8.6614924 17.6666522,8.6614924 C17.3291682,8.45792805 16.9143916,7.76847787 16.8771284,7.53611185 C16.8488149,7.35988467 16.8559747,7.19781425 16.9397761,7.10913114" id="Fill-108" fill="#E67D82" mask="url(#mask-2)"></path>
                <path d="M18.4517825,9.73284948 C17.8708674,9.42237723 17.4150851,9.45719959 17.0990803,9.32946336 C16.7830755,9.20156442 16.7256349,8.71356322 16.9405897,8.63220257 C17.1557073,8.55084191 18.4651257,8.76010151 18.8027724,8.91110688 C19.1402563,9.06211226 19.3016759,9.75790856 19.3016759,9.75790856 L18.4517825,9.73284948" id="Fill-109" fill="#F0B1B4" mask="url(#mask-2)"></path>
                <path d="M18.1974491,9.37079457 C18.5259834,9.43262867 18.6390747,9.37079457 18.6390747,9.37079457 C18.6296369,9.49918169 18.7508643,9.56313116 18.8873874,9.74570446 L18.4517825,9.73284948 C17.8708674,9.42237723 17.4150851,9.45719959 17.0990803,9.32946336 C16.9549092,9.27104641 16.8675279,9.13761494 16.8322173,9.00239354 C16.9729713,9.26990736 17.870542,9.30896048 18.1974491,9.37079457" id="Fill-110" fill="#E67D82" mask="url(#mask-2)"></path>
                <path d="M19.791467,10.2792676 C19.4814829,10.708201 17.9611778,10.5223733 17.6546108,10.475835 C17.3482066,10.4292967 17.15587,10.235821 17.1871125,10.0407182 C17.2502484,9.64693263 19.2592056,9.71674007 19.4251814,9.77873689 C19.5909944,9.84073371 19.791467,10.2792676 19.791467,10.2792676" id="Fill-111" fill="#F0B1B4" mask="url(#mask-2)"></path>
                <path d="M17.1981776,10.135422 C17.4058099,10.3419153 17.9052016,10.4595628 18.4501553,10.5034976 C18.9220471,10.5415744 19.1933035,10.5233496 19.2559512,10.5178171 C18.6830095,10.6091037 17.8700538,10.5085419 17.6546108,10.475835 C17.3988129,10.4371073 17.2310473,10.2947262 17.1981776,10.135422" id="Fill-112" fill="#E67D82" mask="url(#mask-2)"></path>
                <path d="M12.6766406,16.2897045 C15.9037296,17.9318879 16.4332247,17.8682639 17.8192848,18.613202 C19.2051822,19.3581402 18.7928464,27.1965882 18.7048141,28.4051194 C18.6169446,29.6134878 18.2828778,34.4162071 18.4670783,35.7178148 C18.6512788,37.0192599 19.3683916,41.853059 19.6861863,42.5965326 C20.0038183,43.340169 20.6097925,44.5952384 19.6725177,45.3387121 C18.735243,46.0825112 16.7523212,46.5937815 12.4468781,46.3150399 C8.14143511,46.0361356 3.50046074,43.3867073 3.29510645,43.0148891 C3.08975216,42.6430709 5.35320553,35.8107287 5.44790933,34.5092837 C5.54261313,33.2078387 5.79971279,32.2318363 5.93656141,31.6276521 C6.07341003,31.0233052 4.70394752,28.1882119 4.48492464,26.3754965 C4.2662272,24.5627812 2.29681124,19.5623554 2.67025663,18.6463972 C3.04370203,17.730439 6.47386716,16.7098509 8.80956879,15.5450918 C11.1452704,14.38017 12.6766406,16.2897045 12.6766406,16.2897045" id="Fill-113" fill="#FFFFFE" mask="url(#mask-2)"></path>
                <path d="M15.8760669,18.3220936 C15.3447819,20.0680932 14.2631734,21.6424219 12.8237407,22.764548 C11.0761139,22.3357774 9.2991972,21.5657801 7.86806331,20.4748965 C9.46745103,21.652836 11.2116607,22.6436461 13.0790504,23.3202413 C14.6561453,22.0285595 15.5921183,20.3408141 15.8760669,18.3220936" id="Fill-114" fill="#CAE8F1" mask="url(#mask-2)"></path>
                <path d="M15.2172084,17.4909132 C14.5974029,17.2266538 13.8010449,16.8618326 12.6766406,16.2897045 C12.6766406,16.2897045 11.1452704,14.38017 8.80956879,15.5450918 C7.99905396,15.9491288 7.05706032,16.3359174 6.15639789,16.7069219 C7.54782778,19.0741915 9.80233148,20.9261227 12.4047333,21.8066077 C13.7769621,20.7259755 14.7637041,19.1775195 15.2172084,17.4909132" id="Fill-115" fill="#F0B1B4" mask="url(#mask-2)"></path>
                <path d="M3.29510645,43.0148891 C3.08975216,42.6430709 5.35320553,35.8107287 5.44790933,34.5092837 C5.54261313,33.2080014 5.79971279,32.2318363 5.93656141,31.6276521 C6.07341003,31.0233052 4.70394752,28.1882119 4.48492464,26.3754965 C4.44701057,26.0604681 4.35539848,25.6479695 4.23319478,25.1785186 L5.68808598,24.0947947 C6.5413965,26.4749192 7.0736579,30.6579958 7.88222007,31.6805365 C8.69094496,32.7030772 10.7055974,33.121271 10.7055974,33.121271 C10.7055974,33.121271 8.7156786,33.5861657 7.84804859,33.4001753 C7.84804859,33.4001753 6.9216762,37.0721443 6.91126203,38.8846969 C6.90084787,40.6974123 7.06893898,43.4397544 7.09041819,43.8115726 C7.09839154,43.9502112 7.06779993,44.4343071 7.026306,44.986095 C4.94119518,44.1606098 3.41112674,43.2247996 3.29510645,43.0148891" id="Fill-116" fill="#CAE8F1" mask="url(#mask-2)"></path>
                <path d="M9.17601717,12.2429883 C9.1426593,14.1826263 9.01476036,15.5149884 8.58485067,15.8868066 C8.58485067,15.8868066 9.32393084,19.1052713 12.2748817,18.830435 C13.2731769,18.7373584 13.1781477,17.0642579 12.6766406,16.2897045 L12.9737697,13.910719 L9.17601717,12.2429883" id="Fill-117" fill="#F0B1B4" mask="url(#mask-2)"></path>
                <path d="M8.80956879,15.5450918 L8.80956879,15.5450918 C9.06211226,14.9501827 9.14933088,13.7909561 9.17601717,12.2429883 L12.9737697,13.910719 L12.7832231,15.4362313 C12.110045,15.738242 8.80956879,15.5450918 8.80956879,15.5450918" id="Fill-118" fill="#E67D82" mask="url(#mask-2)"></path>
                <path d="M4.91515977,26.5748301 C5.80378082,24.8278542 6.15965232,21.9909709 5.35743628,20.4978402 C4.55538296,19.0047095 3.04158665,18.4670783 2.67025663,18.6463972 C2.29876389,18.8255533 1.29314622,21.1547461 0.34887448,22.2298458 C-0.595397259,23.3049455 -3.1740418,26.3209849 -3.25214802,26.5748301 C-3.33025425,26.8286753 -1.38833818,28.8774993 2.26410425,30.3821832 C2.69889558,30.5615021 4.91515977,26.5748301 4.91515977,26.5748301" id="Fill-119" fill="#FFFFFE" mask="url(#mask-2)"></path>
                <path d="M2.20601275,27.9293223 L1.62330775,29.1241848 C1.62330775,29.1241848 4.49371159,26.2466212 5.68531971,24.0993509 C5.54098591,24.9951317 5.27217032,25.8731758 4.91515977,26.5748301 C4.91515977,26.5748301 2.6990583,30.5615021 2.26410425,30.3821832 C1.63909172,30.1247581 1.06826537,29.8510609 0.544953654,29.5734583 L2.20601275,27.9293223" id="Fill-120" fill="#CAE8F1" mask="url(#mask-2)"></path>
                <path d="M13.1932808,12.4167747 C12.9958998,11.6171622 13.0001306,10.7994876 12.9524532,9.98181308 C12.9168173,9.37063185 12.8857375,8.81103328 12.3308579,8.44523579 C11.9253564,8.1780474 11.4168523,8.12565114 10.9397534,8.18618347 C9.65750952,8.34890477 9.3816969,9.59827896 9.47981785,10.7814256 C9.55499509,11.6869696 9.90875121,12.5565523 10.2600665,13.3895227 C9.78850017,13.3686943 9.14461196,13.1215207 8.86294138,12.7290369 C8.98953855,13.2455143 9.22906432,13.7200096 9.60348604,14.085319 C8.23695251,14.0618871 6.96853993,13.1675708 6.24459284,11.9666876 C5.52080847,10.7658043 5.29137143,9.29952264 5.36850133,7.88612538 C5.4599507,6.20879415 5.98293698,4.5273949 7.02044803,3.23603861 C9.10718606,0.638518405 13.1273786,0.335694054 15.5755207,2.56790493 C16.4171153,3.33529861 17.0276456,4.36385999 17.3329108,5.47947726 C17.7343443,6.94608439 17.7260455,8.5194367 17.4132951,10.0028041 C17.2839317,10.6170771 17.2245384,11.1486876 17.1635179,11.7637741 C17.1446423,11.9544835 16.9134153,14.1684696 17.0471722,14.1603335 C16.1839357,14.2127298 15.1921493,14.0384552 14.6073289,13.3786203 C14.8694729,13.8317992 15.0958183,14.2683804 15.3579623,14.7215593 C14.2678923,14.5402877 13.4668153,13.5245814 13.1932808,12.4167747" id="Fill-121" fill="#2D264D" mask="url(#mask-2)"></path>
                <path d="M8.71372594,9.39959625 C8.32807645,9.1716237 7.86448344,9.0479555 7.50698473,9.41082402 C6.97993042,9.94520079 7.72861115,12.4319078 8.86473131,11.8277236 C8.86473131,11.8277236 10.5100064,14.1282774 11.7175613,14.7789999 C12.9252788,15.4297224 13.7854236,15.1044425 14.2376261,14.6395477 C14.6898286,14.1748157 16.2319384,12.2683729 16.5093783,10.2473743 C16.6083128,9.52684431 16.5022185,8.10937901 16.5243486,7.80720554 C16.5920407,6.87774144 16.9441696,6.1144158 16.2107847,5.38493618 C15.47024,4.64813411 14.4442822,4.20211501 13.3999368,4.16517727 C12.0846605,4.1188017 10.7697096,4.7099682 9.89882521,5.69654748 C8.93649141,6.78694296 8.76953935,8.01792964 8.71372594,9.39959625" id="Fill-122" fill="#F0B1B4" mask="url(#mask-2)"></path>
                <path d="M7.69362607,10.0903482 C7.79190974,9.63489125 8.18048822,9.54506909 8.46948126,9.86253836 C8.76579676,10.187981 8.81558948,11.218495 8.73943591,11.3704767 C8.66328234,11.5222957 8.15429009,11.5113934 8.05779636,11.1968531 C7.96146534,10.8823128 8.25778084,10.6850946 8.5438449,10.7781712 C8.5438449,10.7781712 8.62390378,10.3191343 8.38991054,10.0234697 C8.15608002,9.7276424 7.91248623,9.84089643 7.85276751,9.91672456 C7.79288607,9.99271541 7.69362607,10.0903482 7.69362607,10.0903482" id="Fill-123" fill="#E67D82" mask="url(#mask-2)"></path>
                <path d="M10.8387035,8.07504481 C10.9487031,7.97269311 11.065537,7.87750115 11.1879034,7.78719082 C11.3110834,7.69834499 11.4425622,7.61844883 11.5820144,7.55352303 C11.7204902,7.48827178 11.8654749,7.4181389 12.0189211,7.40626025 C12.1709028,7.3929171 12.3236981,7.4051212 12.4626621,7.46500264 L12.4608722,7.48583097 C12.3865085,7.51560896 12.3155621,7.53464736 12.2460801,7.5548248 L12.0410512,7.61145181 C11.9079452,7.65066765 11.7697948,7.6625463 11.6345734,7.70762011 C11.500491,7.75220574 11.3680359,7.80948364 11.2375334,7.87506033 C11.1058919,7.93917252 10.9789692,8.01532609 10.8505821,8.09147967 L10.8387035,8.07504481" id="Fill-124" fill="#311B3F" mask="url(#mask-2)"></path>
                <path d="M15.9790695,7.55336031 C15.8545877,7.48745818 15.7227835,7.43929267 15.5857721,7.410491 C15.4495744,7.38006212 15.3101222,7.36444087 15.1701819,7.36102372 C15.029428,7.35809474 14.8896504,7.38689641 14.7506864,7.38592008 C14.6105834,7.38640825 14.4699921,7.390639 14.3160578,7.37518048 L14.3116643,7.35516576 C14.4433058,7.25964835 14.5933349,7.20790297 14.744503,7.17861314 C14.8969729,7.14785881 15.0496054,7.17308061 15.1968682,7.19504799 C15.3447819,7.21668992 15.488953,7.25476671 15.6240116,7.31106828 C15.758094,7.36899707 15.8856675,7.44091988 15.9919245,7.53611185 L15.9790695,7.55336031" id="Fill-125" fill="#311B3F" mask="url(#mask-2)"></path>
                <path d="M12.2187429,8.89206849 C12.2135358,8.69550115 12.1146012,8.54547211 11.9976046,8.55702532 C11.8807707,8.56841581 11.7899722,8.73715781 11.7951793,8.93372515 C11.8003864,9.13029248 11.8993209,9.28032153 12.0163176,9.26893104 C12.1333142,9.25737782 12.2237872,9.08879855 12.2187429,8.89206849" id="Fill-126" fill="#311B3F" mask="url(#mask-2)"></path>
                <path d="M15.32314,8.6439185 C15.3179329,8.44735116 15.2362468,8.29553218 15.1405666,8.30497002 C15.0450492,8.31424513 14.9716619,8.48135992 14.9767063,8.67792725 C14.9819134,8.87449459 15.0637622,9.02615085 15.1592796,9.01687573 C15.254797,9.0074379 15.328347,8.84048584 15.32314,8.6439185" id="Fill-127" fill="#311B3F" mask="url(#mask-2)"></path>
                <path d="M13.19084,10.8029048 C13.459981,10.9900343 13.8566955,10.9859663 14.1495939,10.7931415 C14.116236,10.9444723 14.048544,11.0922233 13.9012812,11.146084 C13.7538557,11.1997821 13.5911344,11.1839981 13.4555875,11.1218385 C13.3202034,11.059679 13.2764314,10.9234813 13.19084,10.8029048" id="Fill-128" fill="#E67D82" mask="url(#mask-2)"></path>
                <path d="M12.1136249,11.9562734 C12.7620693,11.9668503 14.320614,11.8470874 14.8287926,11.7748392 C14.6284827,12.4317451 14.1028929,13.0803522 13.3691825,13.080678 C12.7083713,13.0811658 12.2719527,12.5381648 12.1136249,11.9562734" id="Fill-129" fill="#D82C36" mask="url(#mask-2)"></path>
                <path d="M12.708534,12.866211 C12.9662846,12.786803 13.2285913,12.827646 13.3340347,12.8601903 C13.3340347,12.8601903 13.6768885,12.6203391 14.1751411,12.7778533 C13.9484704,12.9609148 13.6786784,13.0805149 13.3691825,13.0806779 C13.1141982,13.0808404 12.8935481,12.9988288 12.708534,12.866211" id="Fill-130" fill="#E5787C" mask="url(#mask-2)"></path>
                <path d="M14.3889569,12.3241863 C13.7327019,12.528727 13.0164027,12.4698218 12.3982245,12.2470564 C12.3939937,12.1500745 12.3866713,12.052279 12.3791861,11.9546462 C13.0199826,11.9409776 14.0573309,11.8635223 14.612536,11.8015254 C14.5646959,11.9831224 14.4926104,12.1606514 14.3889569,12.3241863" id="Fill-131" fill="#FFFFFE" mask="url(#mask-2)"></path>
                <path d="M9.36217035,7.26046196 C10.4195334,7.21538815 11.4685977,6.98253397 12.4457391,6.57589342 C12.6317295,6.14582101 12.6380757,5.76407683 12.665901,5.29641579 C12.9316249,5.78392882 13.0894646,6.32953336 13.1168018,6.88392485 C13.7325392,6.84405813 14.3513683,6.81102571 14.9671057,6.77099627 C15.1395903,6.28299507 15.1604186,5.7806744 15.1330815,5.26370881 C15.341202,5.74926919 15.4458318,6.36045041 15.5167783,6.88376213 C15.8884338,6.75163243 16.3595119,6.94445718 16.747765,7.0141019 C17.2289319,5.94209393 17.1975267,3.99985242 16.1795422,3.18689678 C15.1880813,2.39493218 13.4660017,2.17965189 12.2545416,2.35490274 C9.67719879,2.7280227 7.65148125,4.86813331 7.8114363,7.53415919 C7.90256023,9.05527796 8.66556043,10.4934089 9.7596985,11.5540263 C9.10930144,10.2563239 8.98010072,8.66100424 9.36217035,7.26046196" id="Fill-132" fill="#2D264D" mask="url(#mask-2)"></path>
            </g>
        </g>
    </g>
</svg>