<?xml version="1.0" encoding="UTF-8"?>
<svg width="180px" height="100px" viewBox="0 0 180 100" version="1.1" xmlns="http://www.w3.org/2000/svg" xmlns:xlink="http://www.w3.org/1999/xlink">
    <title>5127313</title>
    <g id="website" stroke="none" stroke-width="1" fill="none" fill-rule="evenodd">
        <g id="5127313">
            <path d="M176.899474,78.8441684 C169.280895,90.3907702 156.217921,97.1779141 142.375545,97.1779141 L27.4858739,97.1779141 C4.39288925,97.1779141 -8.55643974,70.2017021 6.42003874,55.0117621 C21.3962243,39.8218221 8.1680561,26.8483193 31.2683632,14.6675718 C53.6478475,2.86666784 61.2883939,28.0209182 81.9052159,11.5618089 C102.521745,-4.89700773 132.537382,-3.34427262 139.131989,13.4250325 C145.726595,30.1949229 144.172476,36.0965454 158.159544,39.8224074 C172.146905,43.5482693 185.822915,64.6658766 177.430791,78.019223 C177.255931,78.297814 177.07902,78.5726007 176.899474,78.8441684" id="Fill-2" fill="#EBF3FA"></path>
            <path d="M172.269939,83.9124051 C160.099945,84.9349237 151.895905,107.531564 121.472393,93.9494243 C121.472393,93.9494243 124.813089,84.0851101 139.778335,77.9359954 C154.742992,71.7874641 172.269939,83.9124051 172.269939,83.9124051" id="Fill-3" fill="#B8D1E3"></path>
            <path d="M125.889571,91.6564417 C129.014419,90.0755825 132.256043,88.7126658 135.566052,87.5273738 C136.38986,87.2192092 137.224969,86.9423403 138.062975,86.6725201 C138.896925,86.3911401 139.741885,86.1424656 140.585397,85.8881522 C141.426012,85.6248167 142.281694,85.4105393 143.134478,85.1855481 C143.561015,85.0753081 143.986104,84.9577375 144.414959,84.8531363 L145.703843,84.5523022 L146.996204,84.2641556 L148.297548,84.0146353 L149.599182,83.7659608 C150.033253,83.6850429 150.471381,83.6221694 150.908639,83.5576043 C151.784025,83.4318573 152.655934,83.2891937 153.537696,83.207148 C154.418298,83.1180538 155.293684,82.9945624 156.179792,82.9624208 C159.705967,82.7134643 163.271551,82.7698531 166.748466,83.3421991 C163.226348,83.2593077 159.734654,83.4620253 156.271358,83.8773286 L155.621411,83.9492243 L154.974651,84.045931 L153.679971,84.2297584 C152.815596,84.337461 151.959334,84.5063454 151.101334,84.6571853 C150.673348,84.7386671 150.241595,84.7973114 149.814189,84.8838682 L148.532839,85.1426927 L147.252358,85.402081 L145.979122,85.698686 L144.702987,85.9826034 C144.278479,86.0812838 143.857157,86.1932155 143.434097,86.2978167 L142.165787,86.6169771 C141.742437,86.7212963 141.325173,86.8490169 140.902692,86.9567195 C140.06005,87.1817107 139.215668,87.4016269 138.38056,87.6545305 C137.544292,87.9020772 136.702229,88.134117 135.868859,88.3943512 C132.526396,89.4076575 129.213489,90.5230274 125.889571,91.6564417" id="Fill-4" fill="#9BB0BD"></path>
            <path d="M173.374233,45.3656018 C158.63686,55.9852989 165.454283,91.5744408 116.273489,97.1779141 C116.273489,97.1779141 112.990463,81.8254522 127.371824,62.4194075 C141.753185,43.0136575 173.374233,45.3656018 173.374233,45.3656018" id="Fill-5" fill="#CAE1ED"></path>
            <path d="M119.263804,92.7607362 C121.400871,88.1075575 124.0385,83.6823696 127.005759,79.4930747 C129.964574,75.295585 133.281848,71.3456951 136.894974,67.6873057 C140.512759,64.0356477 144.432512,60.6681734 148.674324,57.7616561 C152.903324,54.8557242 157.465449,52.3554346 162.331288,50.797546 C157.814881,53.1775478 153.630142,56.0065072 149.655354,59.1094068 C145.695417,62.2292813 141.950963,65.6134379 138.403355,69.1971962 C134.853418,72.7797838 131.507898,76.5666559 128.323991,80.4995708 C125.149693,84.4427293 122.166418,88.5468569 119.263804,92.7607362" id="Fill-6" fill="#B8D1E3"></path>
            <path d="M14.3558282,80.2222481 C26.3594084,82.118165 32.9014093,105.565857 64.0490798,93.9740091 C64.0490798,93.9740091 61.4321036,83.7551174 47.0180813,76.4739202 C32.604059,69.1927231 14.3558282,80.2222481 14.3558282,80.2222481" id="Fill-7" fill="#B8D1E3"></path>
            <path d="M59.6319018,92.7607362 C56.3417611,91.2953989 53.0613501,89.8501348 49.7431993,88.5128397 C48.9164627,88.1712926 48.0791117,87.8592469 47.248542,87.531082 C46.4194466,87.1974425 45.5782627,86.8981706 44.7397323,86.5940325 C44.3189929,86.4468297 43.9050349,86.2783372 43.4831161,86.1350882 L42.2191289,85.6980418 C41.797505,85.5538803 41.3779449,85.4024196 40.954552,85.264645 L39.6802453,84.8650076 L38.4097715,84.4513798 L37.1286835,84.0778982 L35.8473006,83.7044167 C35.4200747,83.5800242 34.9860674,83.4851331 34.557957,83.3656069 C33.6979031,83.1399364 32.8413874,82.8951053 31.9718986,82.7150555 L30.671351,82.4215623 L30.0218143,82.2697974 L29.367855,82.1444925 C25.8831186,81.4416294 22.3535662,80.965045 18.7730061,80.7941194 C22.3441312,80.4352365 25.9674433,80.6377924 29.5279541,81.1666886 C30.4248632,81.26675 31.3043766,81.4641356 32.1915559,81.6250246 C33.0805042,81.7786144 33.9550053,81.9969855 34.8342238,82.1965001 C35.2732434,82.2983863 35.7134424,82.3984478 36.1480393,82.5176699 L37.4506508,82.881419 L38.7535572,83.2460806 L40.0437854,83.6514966 L41.3301806,84.0709031 C41.7574065,84.2150645 42.1802098,84.3729122 42.6053718,84.5231564 C43.4542216,84.8282069 44.3069044,85.1220043 45.1407173,85.4675051 C45.9783631,85.8035777 46.8174832,86.1335675 47.6433353,86.4979249 C48.4736101,86.8501168 49.3009365,87.2099122 50.1144053,87.6022503 C53.3868555,89.1226365 56.5767501,90.828547 59.6319018,92.7607362" id="Fill-8" fill="#9BB0BD"></path>
            <path d="M22.0858896,43.0674847 C35.4926103,54.1363716 26.5732032,87.4376338 73.3164476,96.0736196 C73.3164476,96.0736196 77.491929,81.731204 65.0153898,62.3508598 C52.5388506,42.9705155 22.0858896,43.0674847 22.0858896,43.0674847" id="Fill-9" fill="#CAE1ED"></path>
            <path d="M70.6748466,91.6564417 C68.1439112,87.4375258 65.5381363,83.3160377 62.741565,79.3339007 C59.9340488,75.3618017 56.9665004,71.5160635 53.790703,67.8495333 C50.617272,64.1821174 47.243283,60.6909571 43.6468463,57.4324425 C40.0344358,54.1898705 36.2040147,51.1920488 32.0245399,48.5889571 C36.6166672,50.3895986 40.8526415,53.0836229 44.7366039,56.1461012 C48.6338777,59.2100557 52.1865348,62.6973779 55.4262268,66.4383074 C58.6611859,70.1848465 61.5888002,74.1929642 64.1490207,78.4157181 C66.718707,82.6299103 68.9508761,87.0498816 70.6748466,91.6564417" id="Fill-10" fill="#B8D1E3"></path>
            <path d="M100.190597,73.9877301 C98.4817714,75.9655618 96.9326128,79.2443674 95.9713046,79.7647569 C95.0099963,80.2851464 93.3889726,80.4662279 91.8572541,85.2707475 C90.3255355,90.0752671 98.0590003,89.4174549 98.0590003,89.4174549 C98.0590003,89.4174549 101.365696,87.5667904 102.700763,83.0957186 L106.01227,80.2332833 L100.190597,73.9877301" id="Fill-11" fill="#EB948C"></path>
            <path d="M95.0478103,88.8943473 C95.0478103,88.8943473 97.3727584,88.1042862 99.3449422,85.9311082 C101.324388,83.7491873 101.579674,79.8679502 101.579674,79.8679502 L102.527641,81.7164776 L104.424133,79.6015851 L105.338303,79.5092025 L106.01227,80.2835264 L102.936266,83.1304858 C101.696145,87.5773845 98.6246105,89.4180433 98.6246105,89.4180433 C98.6246105,89.4180433 96.6443268,89.5972715 94.9693252,89.0767812 C95.0123384,88.9639986 95.0478103,88.8943473 95.0478103,88.8943473" id="Fill-12" fill="#E15A62"></path>
            <path d="M111.206948,57.4233129 C108.837139,59.0835203 107.423316,60.2879562 106.245029,62.5463456 C105.066743,64.804735 97.6823731,72.9186779 97.2112992,73.6419736 C96.7396236,74.3655577 101.361021,82.0444853 105.059824,83.9263804 C105.059824,83.9263804 110.644126,77.7531418 113.864936,75.4195112 C117.085446,73.0858806 115.985972,64.804735 114.493336,62.0193688 C113.000699,59.2340027 111.206948,57.4233129 111.206948,57.4233129" id="Fill-13" fill="#4565A1"></path>
            <path d="M111.324394,72.093284 L111.324394,67.3756833 C111.324394,67.3756833 111.924906,67.1296092 112.393443,68.7217146 C112.580455,69.3587338 112.566047,70.0285039 112.482483,70.6050372 L115.926781,67.9531018 C116.069128,70.921924 115.603472,73.9417904 113.953218,75.2196645 C110.867959,77.6081177 105.518679,83.9263804 105.518679,83.9263804 C104.604657,83.4295113 103.632139,82.5360911 102.699387,81.4739007 C104.877538,79.2530376 109.009946,74.9665091 111.324394,72.093284" id="Fill-14" fill="#2A5293"></path>
            <path d="M89.3982916,88.3435583 C88.7913896,88.5313605 88.3435583,88.8189509 88.3435583,89.57693 C88.3435583,90.3352033 88.4753258,91.5376671 88.7649768,92.0080557 C89.0549245,92.4787386 90.5521472,92.7607362 90.5521472,92.7607362 C90.5521472,92.7607362 90.4521345,89.6293262 90.1357739,89.0541452 C89.8194133,88.4789642 89.3982916,88.3435583 89.3982916,88.3435583" id="Fill-15" fill="#EB948C"></path>
            <path d="M88.5720784,92.1214604 C88.4819855,92.0092059 88.4070178,91.8449493 88.3435583,91.6564417 C88.7036007,91.9254526 88.8246013,91.9274526 89.2652011,91.9627041 L90.5245275,92.2614661 C90.5439271,92.5607281 90.5521472,92.7607362 90.5521472,92.7607362 C90.5521472,92.7607362 88.8933217,92.5212265 88.5720784,92.1214604" id="Fill-16" fill="#E15A62"></path>
            <path d="M89.9751382,87.2392638 C89.2193194,87.3114744 88.4635006,87.8158671 88.4635006,88.5122806 C88.4635006,89.2089646 88.1936304,91.1545952 88.4635006,91.4666966 C88.7333708,91.7790685 90.0559777,92.6677732 90.5148786,92.7397134 C90.9737794,92.8119241 91.7526952,92.6918435 91.6466314,92.475482 C91.5405676,92.259391 89.9751382,87.2392638 89.9751382,87.2392638" id="Fill-17" fill="#EB948C"></path>
            <path d="M88.3435583,90.5521472 C88.9539967,91.2517958 90.5152295,91.1889984 90.5152295,91.1889984 C90.5152295,91.1889984 91.2014465,91.9330326 91.2862926,92.1717284 C91.3371355,92.3163926 91.6182286,92.5064287 91.6564417,92.6533944 C91.3986651,92.7533442 90.9579188,92.7901678 90.6515661,92.7352612 C90.1719591,92.649449 88.8108594,91.610826 88.4866956,91.2123419 L88.3435583,90.5537912 C88.3435583,90.5534624 88.3435583,90.5528048 88.3435583,90.5521472" id="Fill-18" fill="#E15A62"></path>
            <path d="M93.3351431,85.0306748 C91.0831275,85.1609755 90.6637155,85.3756238 90.5852048,86.3152394 C90.5063991,87.2551573 90.5589363,89.9935865 90.8470053,90.6919494 C91.1356647,91.39001 91.292686,92.0076531 91.659856,92.3834388 C92.0267309,92.7592246 92.5760102,92.7607362 92.5760102,92.7607362 C92.5760102,92.7607362 93.8091584,90.9065977 93.8616956,89.3496414 C93.9139376,87.7920805 93.3351431,85.0306748 93.3351431,85.0306748" id="Fill-19" fill="#EB948C"></path>
            <path d="M91.8362702,91.4233953 C91.9540322,90.8706907 92.2151169,90.2812963 92.248285,88.4313474 C92.2607611,87.7363389 93.0090214,91.36574 92.674906,92.3618664 C92.5084569,92.60926 92.3891734,92.7607362 92.3891734,92.7607362 C92.3891734,92.7607362 91.8228813,92.7594258 91.4446431,92.4336734 C91.0661007,92.107921 90.904216,91.5725129 90.606616,90.9673943 C90.5874454,90.9280839 90.5691877,90.8803872 90.5521472,90.8271871 C90.7036859,91.1665672 91.1847756,91.3893263 91.8362702,91.4233953" id="Fill-20" fill="#E15A62"></path>
            <path d="M98.2357651,90.2409044 C98.1033553,91.46223 96.5698842,91.9019532 96.3983032,92.515206 C96.226998,93.1287465 96.3492012,93.6910628 96.0554169,93.8441602 C95.7613568,93.9975453 94.5365661,93.2821317 94.5856681,92.4642695 C94.5856681,92.4642695 94.2667811,93.1543587 93.5564577,93.2821317 C92.8461342,93.4096169 92.6745532,92.8683084 92.7970323,92.0527484 C92.9195113,91.2371883 92.8952362,90.8029328 92.8706852,89.8319733 C92.8461342,88.8607259 92.6254512,87.9660272 93.0419904,86.892619 C93.4585296,85.8192108 94.0220988,84.8735756 95.1489615,85.0525729 C96.2758241,85.2312824 96.9618724,86.7139095 97.5742678,87.2250014 C98.1866631,87.7358056 98.3825193,88.886338 98.2357651,90.2409044" id="Fill-21" fill="#EB948C"></path>
            <path d="M93.8650307,92.7607362 C93.9415942,91.0707296 94.0279973,89.6875985 94.0279973,89.4151683 C94.0279973,89.1421118 93.9415942,87.3484566 94.5676321,87.2394845 C94.6623373,87.2232013 96.0395591,88.1115742 96.0663102,88.7112338 C96.0930613,89.3112064 96.0663102,90.3877754 95.6379847,90.6943376 C95.2099667,91.001213 93.8650307,92.7607362 93.8650307,92.7607362" id="Fill-22" fill="#E15A62"></path>
            <path d="M149.079755,60.9956595 C146.683752,58.0138378 145.859136,57.7104885 143.385881,56.2956327 C140.91233,54.8804866 131.534028,51.2925469 129.601539,50.8373779 C127.669345,50.3827894 119.87575,53.9457645 117.318435,55.0828162 C114.761416,56.2195777 111.507055,57.3386317 110.952674,58.4466548 C109.096845,62.1565147 112.772689,67.4138913 112.791928,78.43084 C112.801992,84.2011526 114.142806,97.1766635 114.142806,97.1766635 C114.142806,97.1766635 143.591887,97.230947 144.003899,96.6242485 C144.416503,96.0178403 145.446828,75.2974888 145.962435,71.0523408 C146.477746,66.8071928 149.079755,60.9956595 149.079755,60.9956595" id="Fill-23" fill="#4565A1"></path>
            <path d="M111.532159,64.0490798 C111.147114,63.3296979 110.918461,62.5974433 110.725938,61.8618956 C110.549932,61.1251505 110.412121,60.3851123 110.431219,59.6319018 C110.817296,60.3512836 111.045433,61.0835383 111.236407,61.819086 C111.41138,62.5561305 111.550224,63.2958693 111.532159,64.0490798" id="Fill-24" fill="#2A5293"></path>
            <path d="M121.472393,60.1638765 C120.351929,59.6730587 117.697385,60.5265212 117.212064,60.7247624 C116.726452,60.9226618 117.497427,58.4901057 117.78279,58.189326 C118.068152,57.8878627 118.524908,57.186499 119.400234,57.5040267 C120.27556,57.8208708 121.011557,58.9963043 121.138352,59.3832164 C121.265148,59.7697867 121.472393,60.1638765 121.472393,60.1638765" id="Fill-25" fill="#2A5293"></path>
            <path d="M131.409011,60.7361963 C131.026502,60.7180725 128.795057,59.6925405 128.261051,59.437691 C127.726765,59.1828416 125.306158,59.0637817 123.680982,59.5177149 C123.680982,59.5177149 126.80997,57.4050297 128.631284,57.4234324 C130.452598,57.4415563 131.145077,58.0968037 131.290436,58.6792769 C131.436353,59.2617501 131.409011,60.7361963 131.409011,60.7361963" id="Fill-26" fill="#2A5293"></path>
            <path d="M118.594517,92.5616932 C118.907428,92.2603761 137.944953,92.8630102 138.327596,90.9051702 C138.710239,88.9476185 138.973343,85.3871753 138.973343,85.3871753 C136.681586,86.5918669 133.354113,86.0901524 133.354113,86.0901524 C135.57321,85.3770834 138.786416,81.7944379 138.939649,80.7399724 C139.411068,77.4926683 137.648155,68.5390823 137.648155,68.5390823 L138.939649,65.9817799 L140.450885,65.1533742 C140.450885,65.1533742 143.316314,66.5578866 145.766871,69.1414281 C145.601333,69.8562271 145.468902,70.5612225 145.388623,71.2272918 C144.907535,75.202947 143.973488,93.7216918 143.526094,96.3323374 C137.629404,96.5462869 126.940592,96.9315114 119.788152,97.1731417 C116.322682,97.1812153 113.89117,97.1766018 113.89117,97.1766018 C113.89117,97.1766018 113.846342,95.4814411 113.742331,93.0504323 C115.737584,92.935384 118.400265,92.7485386 118.594517,92.5616932" id="Fill-27" fill="#2A5293"></path>
            <path d="M122.51187,59.7186243 C124.577679,59.4823099 127.898119,57.7833637 129.206376,58.3672978 C130.514338,58.9515116 130.821956,60.4488216 131.091268,60.7044326 C131.36058,60.9600436 132.514734,59.6819886 132.514734,56.5416647 C132.514734,53.4013408 132.616389,50.1857878 130.180202,49.7486762 C127.74431,49.3115646 121.434621,51.575428 120.164963,52.4885242 C118.895305,53.4013408 118.35668,54.3259032 118.010464,55.2146688 C117.664247,56.1034344 116.741101,59.6819886 117.163927,59.7186243 C117.587343,59.7549803 118.780096,57.4181252 119.664938,57.3448538 C120.549779,57.271862 121.952325,59.7826669 122.51187,59.7186243" id="Fill-28" fill="#4565A1"></path>
            <path d="M121.290263,57.4233129 C120.84228,56.0462753 120.351978,54.8383248 120.368505,53.8848163 C120.384781,52.9313078 120.548299,52.2747565 121.365636,51.9777993 C122.182973,51.6811666 122.526285,52.2533366 122.575365,53.6943093 C122.624446,55.1349574 121.290263,57.4233129 121.290263,57.4233129" id="Fill-29" fill="#2A5293"></path>
            <path d="M129.202454,55.2147239 C131.313971,53.2073579 131.553122,50.9632972 131.354809,50.4980137 C131.156497,50.0320817 130.284355,49.6932515 130.284355,49.6932515 C130.284355,49.6932515 129.940944,51.1539499 130.142969,51.5141799 C130.344994,51.8737614 129.202454,55.2147239 129.202454,55.2147239" id="Fill-30" fill="#2A5293"></path>
            <path d="M125.889571,58.7345766 C126.359246,58.5237918 126.849255,58.3595659 127.34915,58.2241218 C127.851304,58.10194 128.367015,58.0048717 128.90306,58.0395793 C129.167411,58.0593315 129.451532,58.1168952 129.687923,58.3036952 C129.896354,58.5003713 130.055078,58.6781416 130.232441,58.880179 C130.583497,59.2786103 130.825537,59.7622585 131.048089,60.2171248 C131.097231,60.3218118 131.174898,60.4451223 131.209072,60.4561272 C131.213308,60.4578202 131.211331,60.4640281 131.251153,60.4394788 C131.28448,60.4160583 131.323172,60.3757072 131.358475,60.3316879 C131.50223,60.1477097 131.620002,59.9185835 131.73495,59.6951008 C131.967104,59.2540611 132.091654,58.7653337 132.190504,58.2672946 C132.286529,57.7692555 132.341884,57.2607759 132.377752,56.7508854 C132.421528,56.2412771 132.436215,55.7285649 132.442993,55.2147239 C132.544384,56.237891 132.546078,57.2740381 132.404018,58.3031308 C132.335388,58.8164074 132.206602,59.334481 131.97473,59.81305 C131.860347,60.0475375 131.743987,60.2789212 131.574532,60.5032504 C131.529626,60.5588389 131.481331,60.6149918 131.410159,60.6663476 C131.375986,60.6920256 131.329103,60.7162926 131.273183,60.729837 C131.21472,60.7436636 131.144396,60.7340697 131.092147,60.7095204 C130.98652,60.6564715 130.941896,60.5856455 130.898968,60.5255422 C130.858298,60.4637459 130.826102,60.4036426 130.795882,60.3443858 C130.572765,59.8773859 130.351625,59.4315492 130.026835,59.0511771 C129.871783,58.862402 129.689618,58.6541567 129.529764,58.4938812 C129.362568,58.3547689 129.123353,58.285636 128.881596,58.2551611 C128.390739,58.197033 127.877852,58.2650372 127.379087,58.3587193 C126.876086,58.4473223 126.381275,58.5838951 125.889571,58.7345766" id="Fill-31" fill="#2A5293"></path>
            <path d="M121.472393,58.2849118 C121.226913,58.1209827 120.983054,57.9572983 120.71682,57.8212617 C120.585163,57.7532434 120.450586,57.6879164 120.312119,57.6433864 C120.242074,57.6230788 120.174624,57.6074199 120.111389,57.6013031 C120.083501,57.6035052 120.053668,57.6015478 120.031292,57.6066859 C120.010863,57.6172067 119.99854,57.6130473 119.958654,57.6353123 C119.412566,57.88928 118.987759,58.2384244 118.626511,58.6379709 C118.443293,58.8305264 118.282774,59.0512189 118.06648,59.2511145 C117.95817,59.350206 117.843051,59.4463614 117.697125,59.5315066 C117.620919,59.5713879 117.54374,59.6178752 117.407218,59.6301087 C117.341714,59.6384275 117.250267,59.6171412 117.194815,59.5799513 C117.139363,59.5417828 117.111799,59.4984761 117.09591,59.4612863 C117.036242,59.3100801 117.055375,59.1840749 117.071264,59.0561124 C117.092018,58.9298625 117.121528,58.8067934 117.159144,58.6851923 C117.240214,58.4434581 117.329715,58.2056386 117.444835,57.9734466 C117.401057,58.2188508 117.342362,58.4610743 117.315771,58.7050106 C117.297936,58.826367 117.285613,58.9474788 117.283019,59.0666332 C117.282371,59.1826069 117.285613,59.3098354 117.331985,59.3927786 C117.342038,59.4138202 117.357604,59.4248304 117.363116,59.4277664 C117.370899,59.4272771 117.363116,59.4294791 117.37933,59.4260537 C117.40657,59.4240964 117.470453,59.3964487 117.522013,59.3626842 C117.629999,59.2934425 117.731823,59.2029145 117.824567,59.1082271 C118.015568,58.9225224 118.168628,58.7084359 118.360277,58.4985089 C118.5529,58.2932306 118.763682,58.0943137 119.008513,57.9174171 C119.25302,57.7407652 119.536117,57.5893143 119.828293,57.4723619 C119.855208,57.4584157 119.923307,57.4398208 119.978759,57.4280766 C120.034859,57.4197578 120.089663,57.4244066 120.141872,57.4266086 C120.240453,57.4415335 120.325739,57.4682025 120.404539,57.499765 C120.557923,57.5653366 120.689581,57.6446098 120.814753,57.7280423 C121.057314,57.9007795 121.280419,58.0833035 121.472393,58.2849118" id="Fill-32" fill="#2A5293"></path>
            <path d="M121.473557,49.5311386 C121.477779,50.3541262 121.509018,51.1747275 121.58951,51.993539 C121.787644,54.0016406 121.59345,56.6504734 121.743458,57.139374 C121.910351,57.6846518 122.902707,59.6319018 122.902707,59.6319018 C122.902707,59.6319018 124.666489,58.774909 125.401609,57.8403602 C126.136448,56.9058114 127.091654,56.8580847 128.378114,55.4796774 C129.664293,54.1012701 130.538725,51.911807 130.25222,50.0895412 C130.215351,49.8559786 129.989637,47.5233353 129.939822,45.1083633 C129.890007,42.6936897 127.496082,40.8588957 125.217548,40.8588957 C122.939576,40.8588957 121.575438,44.441979 121.504234,46.856951 C121.474683,47.8475786 121.469617,48.7785479 121.473557,49.5311386" id="Fill-33" fill="#EB948C"></path>
            <path d="M129.940123,45.3919673 C129.98994,47.695459 130.215662,49.9204226 130.252532,50.1432035 C130.340907,50.680666 130.31811,51.251702 130.206937,51.8224536 C129.702861,51.9163459 123.21376,52.0748248 121.532662,51.2835685 C121.494384,50.7270431 121.476653,50.1693796 121.473557,49.610578 C121.469617,48.8927284 121.474683,48.0047346 121.504235,47.0598364 C121.53435,46.0833562 121.797787,44.9074259 122.263586,43.8757484 L127.601559,41.9631902 C128.911706,42.6696588 129.908038,43.9155815 129.940123,45.3919673" id="Fill-34" fill="#E15A62"></path>
            <path d="M116.618149,35.3374233 C112.918037,35.3374233 111.533742,38.1779864 111.533742,40.3067485 C111.533742,42.2172611 112.146602,45.2760736 116.618149,45.2760736 C118.854526,45.2760736 120.368098,43.051318 120.368098,40.3067485 C120.368098,37.5621789 118.854526,35.3374233 116.618149,35.3374233" id="Fill-35" fill="#4B497A"></path>
            <path d="M116.451318,36.4417178 C113.676332,36.4417178 112.638037,38.6509731 112.638037,40.3067485 C112.638037,41.7927486 113.097635,44.1717791 116.451318,44.1717791 C118.128609,44.1717791 119.263804,42.4413772 119.263804,40.3067485 C119.263804,38.1721197 118.128609,36.4417178 116.451318,36.4417178" id="Fill-36" fill="#2D264D"></path>
            <path d="M111.693487,37.366535 C111.908754,38.5992634 112.541454,39.070474 112.824011,40.7319151 C113.106568,42.3933561 112.352984,44.8079876 113.476958,46.9107759 C114.600635,49.0135641 116.417752,51.7785167 117.467588,51.895099 C118.517425,52.0119684 126.925647,50.6422702 129.763124,45.201381 C130.577149,43.6395805 132.317746,37.5149908 130.828443,33.7754563 C129.338842,30.0356346 126.916119,26.6088048 121.317089,26.504857 C115.717761,26.4009093 110.55135,30.8347688 111.693487,37.366535" id="Fill-37" fill="#EB948C"></path>
            <path d="M116.384374,44.1713956 C116.599753,44.1800396 116.835919,44.0420958 116.942215,43.8047459 C117.035224,43.5969297 117.074014,43.323203 117.046583,43.0674847 C116.731551,43.5036466 116.345156,43.5789214 115.957475,43.4651087 C115.90947,43.9513338 116.132563,44.1616711 116.384374,44.1713956" id="Fill-38" fill="#E15A62"></path>
            <path d="M126.649663,37.3539635 C126.439017,36.071591 125.559903,35.3312967 125.559903,35.3312967 C125.559903,35.3312967 123.442544,34.4743709 121.804221,34.3186706 C120.166192,34.1626831 118.487802,33.6952951 118.487802,33.6952951 C118.487802,33.6952951 119.007493,34.9776676 119.886313,35.5246293 C119.886313,35.5246293 115.970659,35.3312967 114.732121,34.2014646 C114.732121,34.2014646 114.972228,35.1327933 115.211745,35.7578924 C115.211745,35.7578924 113.293837,35.5651344 112.694602,34.82484 C112.694602,34.82484 112.215272,36.4550962 112.215272,37.3539635 C112.215272,37.3539635 109.911132,34.2796019 110.49711,31.8380958 C111.083383,29.3965897 111.882069,28.4615264 111.882069,28.4615264 C111.882069,28.4615264 110.230783,28.617514 109.325153,28.4615264 C109.325153,28.4615264 111.456064,26.6436831 113.05432,25.4489279 C114.652576,24.2541728 119.446756,24.202177 119.446756,24.202177 C119.446756,24.202177 119.074075,22.955426 119.50008,20.9815951 C119.50008,20.9815951 121.551152,23.9166308 123.722129,24.8126253 C125.892811,25.7086198 125.600559,25.6324933 127.902048,26.1989894 C130.204126,26.7654855 132.392191,28.2021218 133.311078,29.4098041 C134.229965,30.6174864 135.228985,31.8642374 135.828221,32.058719 C135.828221,32.058719 134.389643,31.8642374 133.670501,31.2796433 C133.670501,31.2796433 134.869856,33.93574 133.284563,37.3539635 C131.699564,40.7724742 127.728523,39.7609972 126.958119,39.0063394 C126.188305,38.2516816 126.649663,37.3539635 126.649663,37.3539635" id="Fill-39" fill="#C16253"></path>
            <path d="M127.461224,39.0221346 C126.775168,38.2654732 127.186329,37.3653716 127.186329,37.3653716 C127.072905,36.5876838 126.741561,36.0101786 126.497385,35.6743327 C127.010942,32.2582672 126.801686,28.7131631 125.889571,25.398773 C126.422557,25.6361118 126.738936,25.7426838 127.510847,25.9604364 C128.457882,27.5233008 129.166255,29.2820273 129.654082,31.0637964 C130.275287,33.3323404 130.576175,35.782921 129.996716,38.0647145 C129.84811,38.6497085 129.631502,39.2203009 129.357395,39.7546012 C128.479149,39.6742402 127.738219,39.327449 127.461224,39.0221346" id="Fill-40" fill="#844139"></path>
            <path d="M128.155089,35.7537673 C128.155089,35.7537673 128.438801,27.0769614 123.680982,24.3077928 C123.680982,24.3077928 127.362831,23.912239 129.472977,27.4331349 C131.582817,30.953739 131.440046,33.973775 131.38727,35.6662554 C131.333883,37.358444 128.155089,35.7537673 128.155089,35.7537673" id="Fill-41" fill="#4B497A"></path>
            <path d="M129.639218,35.3374233 C133.33933,35.3374233 134.723926,38.1779864 134.723926,40.3067485 C134.723926,42.2172611 134.111067,45.2760736 129.639218,45.2760736 C127.402841,45.2760736 125.889571,43.051318 125.889571,40.3067485 C125.889571,37.5621789 127.402841,35.3374233 129.639218,35.3374233" id="Fill-42" fill="#4B497A"></path>
            <path d="M128.09816,39.7546012 C128.09816,37.3150882 129.604285,35.3374233 131.46235,35.3374233 C133.319848,35.3374233 134.723926,37.3150882 134.723926,39.7546012 C134.723926,42.1941142 133.319848,44.1717791 131.46235,44.1717791 C129.604285,44.1717791 128.09816,42.1941142 128.09816,39.7546012" id="Fill-43" fill="#2D264D"></path>
            <path d="M129.202454,40.3067485 C129.202454,38.7821669 130.191049,37.5460123 131.410907,37.5460123 C132.630764,37.5460123 133.619632,38.7821669 133.619632,40.3067485 C133.619632,41.8316076 132.630764,43.0674847 131.410907,43.0674847 C130.191049,43.0674847 129.202454,41.8316076 129.202454,40.3067485" id="Fill-44" fill="#4B497A"></path>
            <path d="M120.312682,45.2760736 C119.353007,45.8345303 116.217972,46.0208869 116.004871,45.9899297 C115.791482,45.9586659 116.229279,48.4750927 116.997019,48.568271 C117.765049,48.6617558 119.300529,48.444442 119.940409,47.7925005 C120.579999,47.1408654 120.312682,45.2760736 120.312682,45.2760736" id="Fill-45" fill="#E15A62"></path>
            <path d="M120.368098,45.662642 C120.301537,45.5132347 120.249332,45.39301 120.199085,45.2760736 C119.010774,45.5317308 116.671673,45.6396247 115.95092,45.6507223 C116.009651,45.8761692 116.112755,46.1046987 116.258602,46.328707 C116.281442,46.3194589 116.253055,46.3504913 116.275895,46.3412432 C117.832903,46.4955829 119.416992,46.1776555 120.368098,45.662642" id="Fill-46" fill="#FFFFFE"></path>
            <path d="M119.263804,39.2025558 C119.263804,38.897628 119.511024,38.6503067 119.815784,38.6503067 C120.120878,38.6503067 120.368098,38.897628 120.368098,39.2025558 C120.368098,39.5074835 120.120878,39.7546012 119.815784,39.7546012 C119.511024,39.7546012 119.263804,39.5074835 119.263804,39.2025558" id="Fill-47" fill="#311B3F"></path>
            <path d="M113.742331,39.2023522 C113.742331,38.8974244 113.989503,38.6503067 114.294673,38.6503067 C114.599454,38.6503067 114.846626,38.8974244 114.846626,39.2023522 C114.846626,39.50728 114.599454,39.7546012 114.294673,39.7546012 C113.989503,39.7546012 113.742331,39.50728 113.742331,39.2023522" id="Fill-48" fill="#311B3F"></path>
            <path d="M122.576687,36.1146346 C122.23776,35.8762324 121.872669,35.711923 121.497955,35.5744866 C121.121737,35.445496 120.731685,35.3698676 120.335318,35.3518243 C119.941958,35.3268708 119.525141,35.3126665 119.143811,35.5007777 C118.761879,35.6689261 118.414832,35.9756626 118.159509,36.3795259 L118.18868,36.4417178 C118.59828,36.3852844 118.936605,36.2570617 119.293877,36.1964054 C119.643029,36.1296067 119.981956,35.9668329 120.346746,35.9292106 C121.069109,35.8508949 121.825755,35.923836 122.553831,36.1806655 L122.576687,36.1146346" id="Fill-49" fill="#311B3F"></path>
            <path d="M112.672074,37.5460123 C112.844899,37.4416233 113.026528,37.3761514 113.207276,37.3431864 C113.387437,37.305643 113.567598,37.2919077 113.746292,37.2882449 C113.92616,37.2845821 114.104854,37.3848504 114.280321,37.3180049 C114.368934,37.2868714 114.459308,37.2603163 114.551443,37.1998806 C114.644164,37.150891 114.739233,37.0867926 114.840757,36.975536 L114.846626,36.8899187 C114.673507,36.6261994 114.477501,36.5135692 114.278267,36.4567963 C114.077566,36.398192 113.878626,36.5236418 113.685554,36.606512 C113.491309,36.6852615 113.301171,36.791024 113.122477,36.933872 C112.946717,37.0858769 112.774772,37.2447495 112.638037,37.478251 L112.672074,37.5460123" id="Fill-50" fill="#311B3F"></path>
            <path d="M117.909781,94.6545058 C117.911797,94.7832537 117.742452,94.9693252 117.329172,94.9693252 C116.915315,94.9693252 105.790718,94.9693252 104.286491,94.9693252 C102.782264,94.9693252 102.431191,94.3363145 102.882776,93.5359315 C103.333785,92.7349355 105.239197,90.9738477 109.952326,89.7464507 C114.665455,88.5190538 117.143411,91.389213 117.909781,92.681597 C118.47167,93.6297336 117.909781,94.6545058 117.909781,94.6545058" id="Fill-51" fill="#4B497A"></path>
            <path d="M102.769523,93.7282466 C103.029047,94.6832903 112.982254,94.1852007 112.982254,94.1852007 C112.982254,94.1852007 111.972964,92.6759446 110.857386,92.6328959 C109.741521,92.5895283 109.198855,93.0190588 107.702777,93.304137 C106.206412,93.5888963 107.315652,92.6297071 107.315652,92.6297071 C107.315652,92.6297071 106.258547,92.370777 105.828216,92.0015147 C105.828216,92.0015147 108.293834,91.1947498 109.328184,91.0072487 C110.361958,90.8203854 112.994928,90.9450673 113.333374,91.0072487 C113.572735,91.051573 114.787686,90.2706373 116.255536,90.6625401 C117.075296,91.3258092 117.617387,92.0767702 117.909747,92.5895283 C118.471712,93.5758222 117.909747,94.641836 117.909747,94.641836 C117.911763,94.7757654 117.742396,94.9693252 117.329059,94.9693252 C116.915146,94.9693252 105.789042,94.9693252 104.284612,94.9693252 C102.934858,94.9693252 102.515761,94.438391 102.769523,93.7282466" id="Fill-52" fill="#2D264D"></path>
            <path d="M146.696796,86.1394098 C146.696796,86.1394098 137.311731,87.5729759 132.224767,88.4717968 C127.405905,89.3234174 123.24477,89.6932492 122.065117,89.4676086 C120.885463,89.2422559 116.85226,87.7767432 115.558372,87.2506322 C114.264774,86.7245212 111.677288,86.423763 110.345806,86.8370537 C109.013742,87.2506322 107.922971,87.7013378 107.390261,87.7013378 C106.857844,87.7013378 106.958965,88.5532462 107.669438,88.7288084 C108.37962,88.9040828 109.013742,88.8790436 109.013742,88.8790436 C109.013742,88.8790436 106.60402,90.1816575 106.172724,90.3071413 C105.741719,90.4323373 106.252572,91.2088403 106.835987,91.1587619 C106.835987,91.1587619 106.325134,91.4595201 106.502607,91.7599905 C106.68008,92.0607487 107.948324,92.0607487 107.948324,92.0607487 C107.948324,92.0607487 106.400903,92.8122125 107.694792,93.1129707 C108.988389,93.4134411 110.53581,91.9856311 111.170223,91.8601473 C111.804054,91.7349513 113.275415,91.8103567 113.985889,92.3364677 C114.69607,92.8622909 117.740206,95.2925323 121.900175,93.8393953 C121.900175,93.8393953 150.137258,94.9693252 152.953215,94.9693252 C155.76888,94.9693252 157.469586,92.5117421 156.566487,87.7767432 C155.663679,83.0417442 153.91314,79.5092025 153.91314,79.5092025 L144.172547,80.1855486 L146.696796,86.1394098" id="Fill-53" fill="#EB948C"></path>
            <path d="M110.429448,88.3626074 C110.910287,88.340411 111.293605,88.3273804 111.533742,88.3245092 C111.533742,88.3245092 111.06756,88.3403006 110.429448,88.3626074" id="Fill-54" fill="#E15A62"></path>
            <path d="M109.090926,89.4460414 C109.090926,89.4460414 108.394168,89.4827206 107.613837,89.2259664 C107.394179,89.1538729 107.229916,89.0016754 107.116564,88.8229171 C107.98463,89.3279935 109.053142,89.0054698 109.63815,88.8220739 C110.007663,88.706134 110.914153,88.4885886 111.533742,88.3435583 C110.913192,88.5353861 110.0035,88.9106099 109.090926,89.4460414" id="Fill-55" fill="#E15A62"></path>
            <path d="M108.193252,89.4591166 C108.216331,89.4486258 108.235877,89.440454 108.248466,89.436589 C108.248466,89.436589 108.227595,89.4449816 108.193252,89.4591166" id="Fill-56" fill="#E15A62"></path>
            <path d="M106.01227,90.2689194 C106.022379,90.2769016 106.334134,90.5089362 106.990254,90.2678184 C107.536803,90.0671622 108.863065,89.607497 109.325153,89.4478528 C108.743711,89.6708041 107.168306,90.4211319 106.748937,90.5499482 C106.458705,90.5711424 106.185105,90.4362706 106.01227,90.2689194" id="Fill-57" fill="#E15A62"></path>
            <path d="M107.009492,91.4515542 C107.479054,91.3582094 108.460402,90.9574263 109.061402,90.7660267 C109.662403,90.574413 110.429448,90.5521472 110.429448,90.5521472 C110.429448,90.5521472 110.201176,90.5662774 109.600175,90.7660267 C108.999175,90.965776 107.350789,91.6564417 107.350789,91.6564417 C107.350789,91.6564417 106.46437,91.6562276 106.01227,91.5410453 C106.017032,91.5410453 106.541519,91.5440426 107.009492,91.4515542" id="Fill-58" fill="#E15A62"></path>
            <path d="M115.646248,92.2038281 C116.445934,92.7296162 118.807649,93.4167328 120.217384,93.1337114 C121.626828,92.8506899 121.931415,91.5975305 121.931415,91.5975305 L122.325277,92.9451336 C122.325277,92.9451336 141.930866,93.5381162 145.917919,93.3479902 C149.85946,93.1597221 156.00692,93.0646591 156.809816,90.5521472 C156.589545,93.4684446 155.101037,94.9693252 152.978265,94.9693252 C150.159087,94.9693252 121.889695,93.7536336 121.889695,93.7536336 C117.724966,95.3170637 114.677347,92.7023669 113.966352,92.1366337 C113.374976,91.6656538 112.258741,91.5312651 111.533742,91.5764742 L111.533742,91.5764742 C112.615551,91.174237 114.845978,91.6780399 115.646248,92.2038281" id="Fill-59" fill="#E15A62"></path>
            <path d="M146.611878,86.1349693 C146.611878,86.1349693 150.507386,85.5571998 151.288344,85.4690139 L150.695818,82.8220859 L145.766871,83.9103875 L146.611878,86.1349693" id="Fill-60" fill="#E15A62"></path>
            <path d="M155.641641,79.4057153 C155.778352,79.7611905 155.691538,80.1610275 155.420423,80.427199 C153.732587,82.0839569 151.516942,84.3403254 149.238422,84.6876821 C146.752815,85.0660631 142.610523,85.2177054 142.384113,84.6876821 C142.15828,84.1573688 141.329936,77.4187076 139.823517,74.011249 C138.317098,70.6040803 137.337911,68.8626578 136.961522,66.8939168 C136.584845,64.9251759 139.974072,60.3066081 141.48078,59.9279371 C142.986911,59.5492662 146.451704,59.3222376 147.882558,60.6096028 C149.313699,61.8966781 150.368164,66.8185306 152.025139,70.528694 C153.362255,73.5223981 155.042592,77.8472495 155.641641,79.4057153" id="Fill-61" fill="#4565A1"></path>
            <path d="M146.871166,59.9790231 C146.408437,59.9200963 145.946287,59.8775024 145.48298,59.8662935 C145.02083,59.8457973 144.55839,59.8470783 144.098265,59.8771822 C143.638428,59.9082469 143.180616,59.9591673 142.730034,60.0488386 C142.503297,60.0888704 142.281188,60.1471567 142.05821,60.2025607 C141.851139,60.2861471 141.637127,60.3469955 141.446252,60.4789403 C141.24323,60.5798205 141.066814,60.7389869 140.880277,60.8763761 C140.710802,61.0422679 140.529471,61.1927875 140.374457,61.378535 C140.042449,61.7240896 139.763077,62.1292115 139.479366,62.5295295 C139.202886,62.9372134 138.951856,63.3673152 138.713261,63.806384 C138.467437,64.2412896 138.249376,64.6944496 138.03681,65.1533742 C138.348862,64.1804412 138.780357,63.2552261 139.297745,62.3873366 C139.560922,61.9569146 139.846368,61.5393028 140.180111,61.1649253 C140.33686,60.9673283 140.529182,60.8065606 140.706464,60.6301004 C140.904281,60.4795808 141.09024,60.309846 141.31206,60.1955151 C141.519999,60.0565247 141.760039,59.9860687 141.990536,59.8989595 C142.2219,59.8451567 142.451819,59.7836679 142.685786,59.7506817 C143.152563,59.6763827 143.622233,59.627704 144.091613,59.6321875 C145.028928,59.6299458 145.965664,59.7305057 146.871166,59.9790231" id="Fill-62" fill="#2A5293"></path>
            <path d="M154.899192,81.1903074 C154.887005,79.9958833 152.389853,69.0474251 150.184049,62.9447853 C151.121863,65.0299469 151.997892,68.3613397 153.193329,71.0501535 C154.507232,74.0054443 156.158396,78.274802 156.747045,79.8132706 C156.881382,80.1641846 156.796075,80.5588912 156.529667,80.8216474 C155.894255,81.4481976 155.182605,82.1609022 154.420791,82.8220859 C154.47804,82.7656992 154.910528,82.3054467 154.899192,81.1903074" id="Fill-63" fill="#2A5293"></path>
            <path d="M30.9328538,67.8248074 C30.8880787,68.201463 30.9638302,68.5810453 31.1398328,68.913509 C31.7816087,70.1265917 32.1068615,71.5202468 32.0649025,72.9039513 C32.0370237,73.8155925 31.856797,74.748598 32.095879,75.6265831 C32.5078659,77.1411075 34.0459878,78.0776249 34.5410479,79.5652244 C34.9797872,80.883958 34.5717428,82.5421792 35.483577,83.5662025 C35.7097052,83.8199402 36.060584,84.0142676 36.3697854,83.8854964 C36.5246676,83.8211109 36.6409702,83.6864865 36.751359,83.5559594 C37.7969552,82.3220976 38.9163318,80.8222064 38.593895,79.212567 C38.290889,77.7000913 36.7910652,76.6781166 36.5069266,75.1618364 C36.2748847,73.9227067 36.8842762,72.4939323 36.2011045,71.450008 C36.0127113,71.1620288 35.7429345,70.9419472 35.5370818,70.6668452 C34.7246538,69.5831189 35.0256887,67.8555369 34.0896364,66.8853634 C33.7846591,66.5689961 33.4028039,66.3893018 32.9865929,66.2971133 C32.005484,66.0790804 31.0561964,66.7893703 30.9328538,67.8245148 L30.9328538,67.8248074" id="Fill-64" fill="#C25D59"></path>
            <path d="M37.4159135,87.2392638 C37.4848257,86.4321124 37.5141829,85.6243753 37.5460123,84.814588 C37.5070753,84.0077295 37.4616489,83.2002852 37.3887195,82.3934267 C37.31579,81.586861 37.2199928,80.7800025 37.0694985,79.9781228 C36.916532,79.1812218 36.7144308,78.3670415 36.3609082,77.6178785 C35.7428618,76.1374176 35.2434803,74.5887178 34.7388453,73.0546615 L34.0067693,70.7415694 C33.7057807,69.9859633 33.4125177,69.2288927 33.1288344,68.4662577 C33.2533707,69.2684303 33.4468192,70.0562522 33.616782,70.8496387 L34.3500941,73.1677096 C34.8578193,74.7099662 35.3525655,76.2484155 35.985754,77.766071 C36.3281518,78.4918044 36.517583,79.2594183 36.6696224,80.0451901 C36.8167175,80.8303762 36.9115876,81.6272772 36.983899,82.4262282 C37.0546653,83.2254721 37.1044181,84.0276447 37.1365565,84.8306959 L37.4159135,87.2392638" id="Fill-65" fill="#EB9396"></path>
            <path d="M33.1288344,71.1698823 C33.2868636,71.3109695 33.4900441,71.4167849 33.7085065,71.5102962 C33.8206899,71.554591 33.952323,71.5835056 34.0745786,71.6200079 C34.1985708,71.6550746 34.3069337,71.7022404 34.4076556,71.7559684 L34.4510703,71.7791411 L34.4899698,71.7440744 C34.5813142,71.6616368 34.6921083,71.5851462 34.7796322,71.5016833 C34.8640302,71.417195 34.9525961,71.3339371 35.0276165,71.2469881 C35.173837,71.0712443 35.2821999,70.8848369 35.3374233,70.6828443 L35.3103326,70.6748466 C35.0710312,70.8229062 34.8852165,70.986756 34.7365649,71.1616795 C34.6639756,71.2494489 34.6056263,71.3415247 34.542762,71.432165 C34.4826761,71.5238307 34.4465551,71.6224687 34.3906371,71.7151597 L34.4732986,71.7032657 C34.3566,71.6624571 34.2478898,71.6152913 34.1548088,71.5556163 C34.0599913,71.4975819 33.9745513,71.432165 33.8696616,71.3821283 C33.654325,71.2865663 33.4233592,71.2033084 33.1472422,71.1555275 L33.1288344,71.1698823" id="Fill-66" fill="#EB9396"></path>
            <path d="M33.1288344,73.739523 C33.2838804,73.8662188 33.4435059,74.0029595 33.6109819,74.1173421 C33.7781307,74.2343169 33.9475693,74.3470794 34.1314003,74.4381319 C34.3168668,74.526268 34.5137819,74.5959345 34.6920522,74.6963838 C34.8713038,74.7942409 35.0348545,74.9180204 35.1948071,75.0469844 L35.2510685,75.0920245 L35.3083113,75.0184697 C35.5552729,74.6976799 35.7665804,74.3568003 35.9664394,74.0094401 C36.1541956,73.6549512 36.3213445,73.2894453 36.4417178,72.8973689 L36.4168581,72.8834356 C36.1398032,73.1876998 35.9098508,73.5185345 35.7005059,73.8603862 C35.5032637,74.2090426 35.3174701,74.5641796 35.1673306,74.9397304 L35.2808348,74.9112158 C35.0934056,74.8246997 34.9092475,74.7339713 34.7404632,74.6182926 C34.5706975,74.5048821 34.4192496,74.3616608 34.2553717,74.2378813 C34.0898584,74.116694 33.9096255,74.0188369 33.7251403,73.9277845 C33.5383654,73.8390003 33.3532259,73.7528083 33.1350493,73.7123045 L33.1288344,73.739523" id="Fill-67" fill="#EB9396"></path>
            <path d="M34.2331288,77.43756 C34.4080054,77.5516093 34.6030989,77.6357834 34.8042575,77.711671 C35.0027206,77.7908295 35.2210636,77.8433838 35.4532215,77.8787108 C35.6850425,77.9151281 35.8946248,77.9812026 36.0812946,78.0736632 C36.2679644,78.1652517 36.4502538,78.266217 36.6365867,78.3453755 L36.7774314,78.404908 L36.8822226,78.3035065 C37.0365452,78.1536941 37.1767161,77.9990841 37.2855506,77.8331346 C37.3950591,77.6676213 37.4917635,77.4973105 37.5460123,77.3121711 L37.5136652,77.3006135 C37.3007133,77.4294915 37.130554,77.5734161 36.9728619,77.7219202 C36.8148327,77.8702061 36.6878029,78.0296136 36.5752619,78.1942546 L36.8208978,78.1523857 C36.607946,78.0764981 36.3815162,78.0326665 36.1574451,77.9818568 C35.9333739,77.9321374 35.7291828,77.860175 35.5448716,77.7609543 C35.3619083,77.660207 35.1610866,77.5808304 34.9407219,77.5287122 C34.722042,77.4737592 34.4959491,77.4292734 34.2486285,77.4159713 L34.2331288,77.43756" id="Fill-68" fill="#EB9396"></path>
            <path d="M38.8382251,87.2250691 C39.4691028,87.1226175 41.8358465,86.376885 41.6705818,85.7685243 C40.961174,83.1561518 40.2517662,80.1925577 42.7084679,78.9146539 C43.8908142,78.299944 45.3746807,77.9873944 46.0477537,76.8497483 C46.7410452,75.6780479 46.2305998,74.188603 45.6082197,72.9788079 C44.9861327,71.7687242 44.2371669,70.4737931 44.5035245,69.1430762 C44.783068,67.7497339 46.1207163,66.7217544 46.3346228,65.3171568 C46.6270594,63.3994353 44.7361844,61.8542914 42.9200302,61.1056729 C42.3020455,60.8508425 41.6231121,60.633241 40.9720158,60.7879285 C40.5069889,60.8984609 40.1037898,61.1922518 39.7846882,61.5434733 C38.5088677,62.9486481 38.5610257,65.0683869 38.8522902,66.9312752 C39.1435547,68.7947406 39.5892421,70.7621007 38.876318,72.5115707 C38.370268,73.7542658 37.2872564,74.9230803 37.5773487,76.2309981 C37.6933857,76.7550888 38.0253803,77.2122251 38.1516731,77.7337184 C38.4927514,79.1397589 37.3065958,80.4066961 36.7630389,81.749534 C36.0615427,83.4822654 36.5429789,85.5996955 37.8727156,86.9145397 C38.1255941,87.1644639 38.4842538,87.2822112 38.8382251,87.2250691" id="Fill-69" fill="#E4706D"></path>
            <path d="M38.6552545,88.3435583 C38.7973182,87.2737798 38.9393819,86.2081801 39.1213031,85.1503411 C39.1642923,84.8855829 39.2172459,84.6226156 39.2579575,84.3581558 C39.2963916,84.0930991 39.3188826,83.8262514 39.360733,83.5620902 C39.4367471,83.0322752 39.5218714,82.5048482 39.6183836,81.9801075 C39.8128315,80.9318201 40.0457134,79.8883085 40.3876342,78.8961367 C40.5587369,78.4021402 40.7622951,77.9185908 41.0307642,77.501604 C41.1640022,77.2941553 41.3214395,77.1096902 41.4956739,76.9855194 C41.7254242,76.8270227 41.9446407,76.6234543 42.1160281,76.3804857 C42.4696215,75.8894741 42.5763828,75.2650386 42.5635714,74.7026886 C42.5516142,74.1325778 42.4488386,73.5884355 42.3338212,73.0568296 C42.0975229,71.9957072 41.8000148,70.9707018 41.6346059,69.9268917 C41.4666349,68.8887529 41.4338947,67.8246456 41.695531,66.8285935 C41.7761002,66.5856249 41.8393029,66.3381789 41.9156016,66.0907329 C41.9933238,65.8441824 42.0946759,65.6047956 42.2088393,65.3701846 C42.4377355,64.9009625 42.736667,64.4639771 43.0674847,64.0490798 C42.6617918,64.3824901 42.2857074,64.7681357 41.9716869,65.2140757 C41.8142496,65.4358518 41.666492,65.6695673 41.5409407,65.9173118 C41.411119,66.1626683 41.3012261,66.4235462 41.2442867,66.69905 C40.9581665,67.7891257 40.9988781,68.9305411 41.1731125,70.0080803 C41.3453541,71.0909922 41.6479867,72.1315189 41.877737,73.1666729 C41.9901922,73.6836529 42.0855656,74.2030208 42.09553,74.7110462 C42.1057791,75.2169822 42.0123985,75.7109787 41.739659,76.0891621 C41.6047128,76.2787015 41.4356029,76.4395862 41.2368846,76.5768903 C40.9854974,76.7565797 40.7993057,76.9864149 40.6452848,77.2231153 C40.3389511,77.700098 40.1279908,78.2117053 39.9477777,78.7277898 C39.5919068,79.7620483 39.3567473,80.8228722 39.1585984,81.8872779 C39.0609474,82.4194808 38.974969,82.9537731 38.8978161,83.4889608 C38.8627984,83.7570024 38.8149694,84.0232531 38.7842221,84.2918916 C38.75803,84.5614257 38.7466422,84.8324521 38.7301298,85.1022847 C38.6746139,86.1834057 38.6361798,87.2633327 38.6552545,88.3435583" id="Fill-70" fill="#EB9396"></path>
            <path d="M43.0490777,67.3682926 C42.8836823,67.4487132 42.7449635,67.5834923 42.6163819,67.7268346 C42.4891341,67.8731555 42.3674884,68.0276673 42.2778547,68.2235065 C42.187154,68.4178564 42.1063236,68.6230034 41.9900133,68.7827278 C41.878238,68.9480369 41.7432539,69.0828159 41.613872,69.2276475 L41.7840693,69.2425402 C41.7267144,69.0697848 41.6557544,68.9081989 41.5909301,68.7425174 C41.5237048,68.5783253 41.4564796,68.4148778 41.3772498,68.2625999 C41.3025551,68.1065987 41.2171897,67.9595332 41.1363593,67.8098615 C41.0544619,67.6594451 40.9624273,67.5209429 40.8882661,67.3619632 L40.8594553,67.3686649 C40.8533197,67.5790244 40.8986701,67.7737466 40.9448207,67.9576716 C40.9952397,68.1404796 41.0515275,68.3180752 41.119553,68.4856182 C41.1830435,68.6568844 41.2636071,68.8125132 41.344971,68.9666527 C41.4290026,69.1189307 41.5090326,69.2730703 41.6053355,69.4141787 L41.7120422,69.5705521 L41.7757995,69.4290714 C41.8630323,69.2362108 41.9470638,69.0355315 42.0559047,68.8676162 C42.1599438,68.6933715 42.3018638,68.5679004 42.4357807,68.4342383 C42.570498,68.3016932 42.6766712,68.132661 42.780977,67.9606501 C42.8844826,67.7860331 42.9807854,67.606576 43.0674847,67.3999396 L43.0490777,67.3682926" id="Fill-71" fill="#EB9396"></path>
            <path d="M40.8588957,71.0149418 C40.9363688,71.2073189 41.0380523,71.3831441 41.150933,71.5477265 C41.2665374,71.710435 41.3863787,71.8690836 41.5243776,72.0105558 C41.6654029,72.1489049 41.827007,72.2672667 41.9783217,72.3946853 C42.12661,72.5252269 42.2573459,72.6720082 42.3762792,72.8325306 L42.4138053,72.8834356 L42.467068,72.8394012 C42.664685,72.6773173 42.8211444,72.5295991 42.9766959,72.356897 C43.1240764,72.1832579 43.281141,72.0183633 43.4182321,71.8378536 C43.5565337,71.6582808 43.6854538,71.4718374 43.8080187,71.2803972 C43.9317941,71.0892694 44.042859,70.8897094 44.1717791,70.703266 L44.1530161,70.6748466 C43.9366361,70.7804042 43.7683742,70.9440496 43.6007176,71.0998876 C43.4363898,71.2597854 43.2838646,71.4296769 43.1422341,71.6083127 C42.9996957,71.7853871 42.8783413,71.979638 42.745487,72.1638953 C42.6162643,72.3440927 42.5070151,72.5683244 42.383845,72.7263484 L42.4749364,72.7332191 C42.3251349,72.6064251 42.1895569,72.4633914 42.0733473,72.302869 C41.9598613,72.1392236 41.8581778,71.9649599 41.7389418,71.8084973 C41.6166796,71.6545332 41.4774701,71.5168087 41.3391685,71.3781473 C41.1981432,71.2419843 41.0486443,71.1139411 40.8849218,70.9940177 L40.8588957,71.0149418" id="Fill-72" fill="#EB9396"></path>
            <path d="M44.1430543,74.4752291 C43.943739,74.6710138 43.737096,74.8515872 43.5257632,75.0240642 C43.3138442,75.1967865 43.0860972,75.3476733 42.8647986,75.5140167 C42.6388103,75.6744718 42.3829247,75.8182435 42.0930382,75.889148 C41.8054966,75.9652047 41.5003684,75.9747732 41.2063784,75.971829 L41.3379851,76.0493578 C41.2861045,75.8420419 41.2090164,75.6465025 41.1278248,75.4485097 C41.0480986,75.2510076 40.945803,75.0591484 40.8226965,74.8761216 C40.7007625,74.6923588 40.5559658,74.5169376 40.3853754,74.3586906 C40.2118539,74.2046144 40.01078,74.0596159 39.7707223,73.9877301 L39.7546012,74.0110378 C39.9363298,74.1486759 40.0764368,74.307659 40.1980777,74.4774372 C40.3217704,74.6457433 40.426704,74.8236179 40.5295859,75.0027192 L40.8250414,75.5483648 C40.9220611,75.7313917 41.0076494,75.9220241 41.0926515,76.1070137 L41.1339801,76.196319 L41.2245513,76.1845425 C41.5378866,76.1433247 41.8348077,76.0547554 42.1252804,75.9691302 C42.4122357,75.8754087 42.7073982,75.7929731 42.9899569,75.6720184 C43.2751536,75.5552345 43.5155043,75.3739251 43.7168714,75.1722521 C43.9182384,74.9700884 44.0820873,74.7402009 44.1717791,74.487251 L44.1430543,74.4752291" id="Fill-73" fill="#EB9396"></path>
            <path d="M38.7791037,77.3006135 C38.679077,77.4872913 38.6444172,77.690683 38.651106,77.8921914 C38.6620511,78.093229 38.7030956,78.2961499 38.7940013,78.485888 C38.8897716,78.6742136 39.0302347,78.8472378 39.1871156,79.0040189 L39.6455969,79.4755392 L39.6781284,79.5092025 L39.73103,79.4802474 C39.9788167,79.3437113 40.260959,79.2401322 40.5297239,79.1316095 C40.7981847,79.0200266 41.0766787,78.9244513 41.3551726,78.832878 C41.6330585,78.7398922 41.9109444,78.6459648 42.196431,78.5628661 C42.4797895,78.4727052 42.7716609,78.4011415 43.0674847,78.3149825 L43.0623161,78.2893231 C42.4308402,78.2787298 41.7929797,78.3825443 41.2122773,78.5805216 C40.9210139,78.6789218 40.6470805,78.8053354 40.381964,78.9385758 C40.1177596,79.0751119 39.8821343,79.239426 39.6513735,79.4089191 L39.7368067,79.4133918 C39.5671564,79.2749724 39.4124038,79.1217224 39.3135932,78.9458734 C39.2038374,78.7742616 39.1494155,78.5873484 39.0740154,78.412441 C38.9277757,78.0593304 38.8347417,77.6958619 38.8116352,77.3064987 L38.7791037,77.3006135" id="Fill-74" fill="#EB9396"></path>
            <path d="M34.2833169,94.9693252 L40.8087076,94.9693252 C41.4140687,94.9693252 41.9291492,94.440529 42.0202788,93.7244092 L43.0532699,85.6128654 C43.1661914,84.7257234 42.5919616,83.9263804 41.8414157,83.9263804 L33.2506088,83.9263804 C32.500063,83.9263804 31.9258331,84.7257234 32.0387546,85.6128654 L33.0717457,93.7244092 C33.1628754,94.440529 33.6776728,94.9693252 34.2833169,94.9693252" id="Fill-75" fill="#4B497A"></path>
            <path d="M33.2459887,83.9263804 L37.6214902,83.9263804 C36.8737725,83.9263804 36.3017065,84.7257234 36.4142025,85.6128654 L37.443301,93.7244092 C37.5340873,94.440529 38.0469449,94.9693252 38.6503067,94.9693252 L34.2748053,94.9693252 C33.6714434,94.9693252 33.1585858,94.440529 33.0677996,93.7244092 L32.0387011,85.6128654 C31.9262051,84.7257234 32.4982711,83.9263804 33.2459887,83.9263804" id="Fill-76" fill="#2D264D"></path>
            <path d="M94.9693252,92.7607362 L66.7720217,92.7607362 C66.4877971,92.7607362 66.2576687,92.9838919 66.2576687,93.2595047 L66.2576687,94.4708402 C66.2576687,94.7461695 66.4877971,94.9693252 66.7720217,94.9693252 L94.9693252,94.9693252 L94.9693252,92.7607362" id="Fill-77" fill="#141029"></path>
            <path d="M102.699387,94.2850414 L102.699387,94.777012 C102.699387,94.8835065 102.609874,94.9693252 102.499818,94.9693252 L95.3708106,94.9693252 C95.1492305,94.9693252 94.9693252,94.7959884 94.9693252,94.5818665 L94.9693252,93.1487225 C94.9693252,92.9173236 95.1779919,92.7371893 95.4163005,92.7632464 L102.522416,94.0938611 C102.623081,94.1051903 102.699387,94.187327 102.699387,94.2850414" id="Fill-78" fill="#4B497A"></path>
            <path d="M45.7913762,44.1717791 L98.5989733,44.1717791 C99.6672792,44.1717791 100.620726,44.8344349 100.982884,45.8285635 L112.53178,77.5439019 C113.014657,79.1798244 111.804535,80.4051726 109.85955,80.6123431 C109.561562,80.6442155 108.143112,80.0137218 105.915667,78.9775796 L58.7053955,78.9775796 C57.6370896,78.9775796 56.6836427,78.3149238 56.3214852,77.3207952 L45.8886547,48.6710005 C44.1247487,47.7603196 43.1194394,47.2402203 43.1194394,47.2402203 C43.1194394,47.2402203 42.4663253,44.1717791 45.7913762,44.1717791" id="Fill-79" fill="#4B497A"></path>
            <path d="M96.5401091,46.3803681 L44.1429097,46.3803681 C43.3986354,46.3803681 42.8796785,47.1272773 43.132034,47.8359438 L54.5912412,80.0359955 C54.9502954,81.0450142 55.8966285,81.7177914 56.9566379,81.7177914 L109.353837,81.7177914 C110.098402,81.7177914 110.617068,80.9708822 110.365004,80.2622158 L98.9057965,48.0624582 C98.5467423,47.0531453 97.6004092,46.3803681 96.5401091,46.3803681" id="Fill-80" fill="#2D264D"></path>
            <polyline id="Fill-81" fill="#141029" points="85.0306748 81.7177914 82.7253787 72.8834356 73.9877301 81.7177914 85.0306748 81.7177914"></polyline>
            <path d="M71.8055024,57.4234737 C72.0569812,58.9975216 73.0625788,59.6319018 74.2666288,59.6319018 C75.4706787,59.6319018 76.3765738,58.6243568 76.1657381,57.4234737 C75.9549024,56.2225907 74.9083442,55.2147239 73.7042943,55.2147239 C72.5002443,55.2147239 71.6127655,56.219052 71.8055024,57.4234737" id="Fill-82" fill="#4B497A"></path>
            <polyline id="Fill-83" fill="#141029" points="96.5628453 76.196319 96.0736196 73.9877301 96.6886884 73.9877301 97.1779141 76.196319 96.5628453 76.196319"></polyline>
            <polyline id="Fill-84" fill="#141029" points="95.4585508 76.196319 94.9693252 73.9877301 95.584394 73.9877301 96.0736196 76.196319 95.4585508 76.196319"></polyline>
            <polyline id="Fill-85" fill="#141029" points="93.2499859 76.196319 92.7607362 73.9877301 93.3755699 73.9877301 93.8650307 76.196319 93.2499859 76.196319"></polyline>
            <polyline id="Fill-86" fill="#141029" points="91.0414905 76.196319 90.5521472 73.9877301 91.1670985 73.9877301 91.6564417 76.196319 91.0414905 76.196319"></polyline>
            <polyline id="Fill-87" fill="#141029" points="65.6425064 76.196319 65.1533742 73.9877301 65.7683255 73.9877301 66.2576687 76.196319 65.6425064 76.196319"></polyline>
            <polyline id="Fill-88" fill="#141029" points="64.538423 76.196319 64.0490798 73.9877301 64.664031 73.9877301 65.1533742 76.196319 64.538423 76.196319"></polyline>
            <polyline id="Fill-89" fill="#141029" points="62.329623 76.196319 61.8404908 73.9877301 62.455442 73.9877301 62.9447853 76.196319 62.329623 76.196319"></polyline>
            <polyline id="Fill-90" fill="#141029" points="60.1212451 76.196319 59.6319018 73.9877301 60.2468531 73.9877301 60.7361963 76.196319 60.1212451 76.196319"></polyline>
            <path d="M66.5895707,91.8190112 C67.1156273,90.2962702 73.4966518,69.5705521 73.4966518,69.5705521 L81.6875121,69.5705521 L82.228658,72.4569997 C82.228658,72.4569997 76.7367223,90.2962702 76.2103699,91.8190112 C76.1704274,91.9351601 76.1322602,92.0516067 76.09646,92.1683512 L76.0970517,92.1683512 C75.6156715,93.6574389 76.8855448,93.6511847 78.3154837,93.6511847 C79.7457184,93.6511847 92.7607362,93.6511847 92.7607362,93.6511847 L92.7607362,94.9693252 L68.6946845,94.9693252 C65.80019,94.9693252 66.0632183,93.3417523 66.5895707,91.8190112" id="Fill-91" fill="#2D264D"></path>
            <path d="M81.7177914,69.5705521 C81.7177914,69.5705521 75.4486655,90.2962702 74.931834,91.8190112 C74.4147117,93.3417523 74.156296,94.9693252 77.0000322,94.9693252 L67.5476542,94.9693252 C64.703918,94.9693252 64.9623337,93.3417523 65.479456,91.8190112 C65.9965782,90.2962702 72.2654134,69.5705521 72.2654134,69.5705521 L81.7177914,69.5705521" id="Fill-92" fill="#4B497A"></path>
            <path d="M80.6134969,69.7140433 C79.9593374,69.685287 79.3054828,69.6713445 78.6513233,69.6507213 C77.9971638,69.6295171 77.3430043,69.6245792 76.6888447,69.6112177 C76.0349902,69.6010513 75.3808306,69.5830423 74.7266711,69.5827518 L72.7644975,69.5711331 L72.6550134,69.5705521 L72.6208569,69.6719255 C72.3472992,70.4858166 72.0777062,71.30116 71.8209219,72.1199891 L71.0383702,74.5735716 C70.5348656,76.2147153 70.0307511,77.8552781 69.5705521,79.5092025 C70.1746967,77.8979769 70.7352306,76.2736803 71.2963744,74.6496742 L72.1106429,72.2056771 C72.3860304,71.3920765 72.6489141,70.5749902 72.9075282,69.7567421 L72.7644975,69.8569535 L74.7266711,69.8453348 C75.3808306,69.8453348 76.0349902,69.8273258 76.6888447,69.8174499 C77.3430043,69.8035074 77.9971638,69.7988599 78.6513233,69.7773653 C79.3054828,69.757323 79.9593374,69.7427996 80.6134969,69.7140433" id="Fill-93" fill="#6F6BA2"></path>
            <path d="M24.5851569,99.3865031 L164.249199,99.3865031 C165.629326,99.3865031 166.748466,98.1503525 166.748466,96.6256053 C166.748466,95.100858 165.629326,93.8650307 164.249199,93.8650307 L24.5851569,93.8650307 C23.2047374,93.8650307 22.0858896,95.100858 22.0858896,96.6256053 C22.0858896,98.1503525 23.2047374,99.3865031 24.5851569,99.3865031" id="Fill-94" fill="#8A4C51"></path>
            <path d="M24.5851569,99.3865031 L164.249199,99.3865031 C165.629326,99.3865031 166.748466,98.3976405 166.748466,97.1779141 L22.0858896,97.1779141 C22.0858896,98.3976405 23.2047374,99.3865031 24.5851569,99.3865031" id="Fill-95" fill="#592D3E"></path>
        </g>
    </g>
</svg>