<?xml version="1.0" encoding="UTF-8"?>
<svg width="600px" height="509px" viewBox="0 0 600 509" version="1.1" xmlns="http://www.w3.org/2000/svg" xmlns:xlink="http://www.w3.org/1999/xlink">
    <title>file</title>
    <defs>
        <polygon id="path-1" points="0.0524017467 0.825327511 599.717031 0.825327511 599.717031 358.026201 0.0524017467 358.026201"></polygon>
    </defs>
    <g id="Page-1" stroke="none" stroke-width="1" fill="none" fill-rule="evenodd">
        <g id="file" transform="translate(0.000000, 1.000000)">
            <g id="Group-4" transform="translate(0.000000, 149.344978)">
                <mask id="mask-2" fill="white">
                    <use xlink:href="#path-1"></use>
                </mask>
                <g id="Clip-2"></g>
                <path d="M576.565939,290.276856 C576.489956,289.291703 576.363319,288.29345 576.174672,287.281223 L572.979039,270.136245 C570.117904,254.782533 570.378166,229.710044 573.558079,214.419214 L590.556332,132.664629 C593.735371,117.373799 596.336245,99.9676856 596.336245,93.9834061 C596.336245,88 594.500437,83.1039301 592.256769,83.1039301 C590.0131,83.1039301 581.08821,72.4716157 572.425328,59.4768559 L546.809607,21.0524017 C538.145852,8.05764192 524.020087,2.01572052 515.418341,7.62532751 C506.816594,13.2349345 502.284716,30.3554585 505.347598,45.669869 L507.809607,57.9790393 C510.872489,73.2934498 509.449782,97.9834061 504.648035,112.844541 L493.548472,147.200873 C488.746725,162.062882 488.681223,186.40262 493.401747,201.289956 L493.916157,202.912664 C498.635808,217.8 504.315284,242.629694 506.535371,258.089083 L510.70131,287.089083 L515.528384,358.078603 L599.717031,358.078603 L576.565939,290.276856" id="Fill-1" fill="#F3C5A2" mask="url(#mask-2)"></path>
                <path d="M126.292576,142.262882 C120.682969,131.042795 113.033188,112.98952 109.29345,102.143231 C105.553712,91.2978166 94.8436681,76.3039301 85.4934498,68.8244541 C76.1441048,61.3441048 73.390393,48.1860262 79.3737991,39.5842795 C85.3580786,30.9825328 90.2541485,18.7432314 90.2541485,12.3851528 C90.2541485,6.02707424 85.6637555,0.825327511 80.0541485,0.825327511 C74.4436681,0.825327511 62.0716157,10.9606987 52.5598253,23.3475983 L28.6689956,54.4611354 C19.1572052,66.8489083 11.3755459,80.9615721 11.3755459,85.8235808 C11.3755459,90.6855895 14.7895197,106.977293 18.9615721,122.027948 L41.8681223,204.656769 C46.041048,219.707424 45.8978166,244.294323 41.5502183,259.295197 L34.2393013,284.523144 C33.8148472,285.986026 33.5240175,287.421834 33.3519651,288.824454 L0,358.078603 L81.1755459,358.078603 L101.310917,291.662882 L100.195633,291.541485 C101.458515,289.259389 102.458515,286.863755 103.129258,284.391266 L111.378166,253.9869 C115.467249,238.913537 122.791266,222.296943 127.653275,217.061135 C132.515284,211.825328 136.492576,197.443668 136.492576,185.102183 C136.492576,172.759825 131.903057,153.482096 126.292576,142.262882" id="Fill-3" fill="#F3C5A0" mask="url(#mask-2)"></path>
            </g>
            <path d="M540.577293,336.435808 C540.577293,352.054148 527.799127,364.832314 512.181659,364.832314 L102.503057,364.832314 C86.8847162,364.832314 74.1065502,352.054148 74.1065502,336.435808 L74.1065502,28.7554585 C74.1065502,13.1371179 86.8847162,0.358951965 102.503057,0.358951965 L512.181659,0.358951965 C527.799127,0.358951965 540.577293,13.1371179 540.577293,28.7554585 L540.577293,336.435808" id="Fill-5" fill="#3A3A39"></path>
            <path d="M540.577293,336.435808 C540.577293,352.054148 527.799127,364.832314 512.181659,364.832314 L102.503057,364.832314 C86.8847162,364.832314 74.1065502,352.054148 74.1065502,336.435808 L74.1065502,28.7554585 C74.1065502,13.1371179 86.8847162,0.358951965 102.503057,0.358951965 L512.181659,0.358951965 C527.799127,0.358951965 540.577293,13.1371179 540.577293,28.7554585 L540.577293,336.435808 Z" id="Stroke-6" stroke="#3A3A39" stroke-width="1.355"></path>
            <polygon id="Fill-8" fill="#FFFFFE" points="112.186026 325.619214 502.49869 325.619214 502.49869 36.8515284 112.186026 36.8515284"></polygon>
            <polygon id="Fill-9" fill="#E67767" points="112.186026 257.283843 502.49869 257.283843 502.49869 36.8515284 112.186026 36.8515284"></polygon>
            <path d="M363.662882,150.170306 C363.662882,181.275109 338.447162,206.49083 307.342358,206.49083 C276.237555,206.49083 251.021834,181.275109 251.021834,150.170306 C251.021834,119.065502 276.237555,93.8497817 307.342358,93.8497817 C338.447162,93.8497817 363.662882,119.065502 363.662882,150.170306" id="Fill-10" fill="#FFFFFE"></path>
            <path d="M363.662882,150.170306 C363.662882,181.275109 338.447162,206.49083 307.342358,206.49083 C276.237555,206.49083 251.021834,181.275109 251.021834,150.170306 C251.021834,119.065502 276.237555,93.8497817 307.342358,93.8497817 C338.447162,93.8497817 363.662882,119.065502 363.662882,150.170306 Z" id="Stroke-11" stroke="#DE4E41" stroke-width="15.361"></path>
            <polyline id="Fill-12" fill="#DE4E41" points="298.353712 123.937991 298.353712 176.403493 332.665502 150.170306 298.353712 123.937991"></polyline>
            <polyline id="Fill-13" fill="#DE4E41" points="136.492576 275.528384 136.492576 298.142358 151.282096 286.835808 136.492576 275.528384"></polyline>
            <polygon id="Fill-14" fill="#FFFFFE" points="160.079476 298.242795 447.591266 298.242795 447.591266 274.565939 160.079476 274.565939"></polygon>
            <polygon id="Stroke-15" stroke="#AA2531" stroke-width="1.355" points="160.079476 298.242795 447.591266 298.242795 447.591266 274.565939 160.079476 274.565939"></polygon>
            <polyline id="Fill-16" fill="#DE4E41" points="466.524891 296.232314 452.623581 288.321397 452.623581 285.206114 466.524891 276.576419 466.524891 296.232314"></polyline>
            <polygon id="Fill-17" fill="#DE4E41" points="468.89083 289.719651 471.257642 289.719651 471.257642 283.951092 468.89083 283.951092"></polygon>
            <polygon id="Fill-18" fill="#DE4E41" points="472.465502 293.325764 474.832314 293.325764 474.832314 280.067249 472.465502 280.067249"></polygon>
            <polygon id="Fill-19" fill="#DE4E41" points="476.016594 295.070742 478.383406 295.070742 478.383406 278.322271 476.016594 278.322271"></polygon>
            <polygon id="Fill-20" fill="#DE4E41" points="163.469869 294.50917 353.961572 294.50917 353.961572 277.760699 163.469869 277.760699"></polygon>
            <path d="M567.379913,295.735371 C576.601747,290.027074 575.086463,276.344105 564.013974,265.330131 L562.650655,263.973799 C551.577293,252.959825 533.697817,234.702183 522.917904,223.400873 L507.439301,207.174672 C496.659389,195.873362 483.441048,191.149345 478.065502,196.675983 C472.689956,202.203493 472.764192,213.949345 478.229694,222.778166 C483.695197,231.606987 494.993886,244.045415 503.338865,250.420087 C511.682969,256.793886 520.69083,267.856769 523.356332,275.004367 C526.020961,282.151965 533.244541,292.075109 539.406987,297.056769 C545.570306,302.039301 558.158079,301.444541 567.379913,295.735371" id="Fill-21" fill="#F3C5A0"></path>
            <path d="M46.9877729,292.957205 C37.7668122,287.248035 39.2812227,273.565939 50.3537118,262.551965 L51.7170306,261.195633 C62.790393,250.181659 80.669869,231.924017 91.4497817,220.622707 L106.928384,204.396507 C117.708297,193.095197 130.926638,188.371179 136.302183,193.897817 C141.677729,199.425328 141.604367,211.171179 136.138865,220 C130.673362,228.828821 119.373799,241.267249 111.029694,247.641921 C102.684716,254.015721 93.6768559,265.078603 91.0122271,272.226201 C88.3467249,279.372926 81.1240175,289.296943 74.9606987,294.278603 C68.7973799,299.261135 56.209607,298.666376 46.9877729,292.957205" id="Fill-22" fill="#F3C5A0"></path>
            <path d="M488.242795,198.016594 C488.242795,198.016594 479.061135,203.38952 480.307424,208.270742 C480.307424,208.270742 483.853275,215.69607 488.69869,215.824454 L498.936245,204.895197 C498.936245,204.895197 491.214847,195.955459 488.242795,198.016594" id="Fill-23" fill="#F8DFC3"></path>
            <path d="M126.519651,196.282969 C126.519651,196.282969 134.614847,203.186026 132.531878,207.772052 C132.531878,207.772052 127.737118,214.459389 122.944105,213.734498 L114.785153,201.177293 C114.785153,201.177293 123.956332,193.732751 126.519651,196.282969" id="Fill-24" fill="#F8DFC3"></path>
            <path d="M112.186026,368.762445 C112.186026,368.762445 70.8838428,378.227948 67.7283843,334.844541 C67.7283843,334.844541 60.4113537,385.326638 112.186026,368.762445" id="Fill-25" fill="#F8DCBF"></path>
            <g id="Group-29" transform="translate(13.973799, 214.847162)">
                <path d="M11.1606987,0.633187773 C11.1606987,0.633187773 -9.34847162,16.1423581 7.21659389,51.5056769 C7.21659389,51.5056769 -3.82707424,17.7292576 11.1606987,0.633187773" id="Fill-26" fill="#F0D7B6"></path>
                <path d="M566.373799,8.73537118 C566.373799,8.73537118 588.046288,22.571179 574.336245,59.1353712 C574.336245,59.1353712 582.668122,24.5895197 566.373799,8.73537118" id="Fill-28" fill="#F8DFC3"></path>
            </g>
            <path d="M501.31441,368.762445 C501.31441,368.762445 542.616594,378.227948 545.772052,334.844541 C545.772052,334.844541 553.08821,385.326638 501.31441,368.762445" id="Fill-30" fill="#F8DFC3"></path>
        </g>
    </g>
</svg>