<?xml version="1.0" encoding="UTF-8"?>
<svg width="1561px" height="1201px" viewBox="0 0 1561 1201" version="1.1" xmlns="http://www.w3.org/2000/svg" xmlns:xlink="http://www.w3.org/1999/xlink">
    <title>Group</title>
    <defs>
        <rect id="path-1" x="0" y="0" width="1561" height="1201"></rect>
    </defs>
    <g id="Page-1" stroke="none" stroke-width="1" fill="none" fill-rule="evenodd">
        <g id="Group-3">
            <mask id="mask-2" fill="white">
                <use xlink:href="#path-1"></use>
            </mask>
            <use id="Rectangle" fill-opacity="0.35" fill="#FF5555" xlink:href="#path-1"></use>
            <g id="334052-P9YHDR-482-2" mask="url(#mask-2)">
                <g transform="translate(453.000000, 635.000000)" id="334052-P9YHDR-482">
                    <path d="M605.864075,293.946943 C658.512562,334.216597 668.519329,409.504492 628.22002,462.109302 C587.91504,514.712223 522.270801,520.664455 469.620423,480.392912 C416.977607,440.125146 410.922124,325.285416 451.227104,272.682495 C491.526413,220.079574 553.217479,253.679177 605.864075,293.946943" id="Fill-4" fill="#E0C097"></path>
                    <path d="M50.1378154,293.946943 C-2.50878133,334.216597 -12.5155482,409.504492 27.7856513,462.109302 C68.0868508,514.712223 133.732981,520.664455 186.381468,480.392912 C239.028065,440.125146 245.079767,325.285416 204.778567,272.682495 C164.477368,220.079574 102.786303,253.679177 50.1378154,293.946943" id="Fill-5" fill="#E0C097"></path>
                    <path d="M88.7242713,0 L564.462566,0 C582.40593,0 597.082395,14.6624007 597.082395,32.5908785 L597.082395,350.837889 C597.082395,368.760699 582.40593,383.424989 564.462566,383.424989 L88.7242713,383.424989 C70.7827982,383.424989 56.1082234,368.760699 56.1082234,350.837889 L56.1082234,32.5908785 C56.1082234,14.6624007 70.7827982,0 88.7242713,0" id="Fill-6" fill="#403B4E"></path>
                    <path d="M100.710461,358.820793 L100.710461,24.6004179 C100.710461,23.9506027 101.069669,23.4179053 101.504499,23.4179053 L545.624965,23.4179053 C546.059795,23.4179053 546.419002,23.9506027 546.419002,24.6004179 L546.419002,358.820793 C546.419002,359.470608 546.059795,360.007084 545.624965,360.007084 L101.504499,360.007084 C101.069669,360.007084 100.710461,359.470608 100.710461,358.820793" id="Fill-7" fill="#FFFFFE"></path>
                    <path d="M68.7296433,233.285557 L68.7296433,150.139432 C68.7296433,147.883968 70.5729453,146.042195 72.8302813,146.042195 L72.8340625,146.042195 C75.0876174,146.042195 76.9347005,147.883968 76.9347005,150.139432 L76.9347005,233.285557 C76.9347005,235.537243 75.0876174,237.384683 72.8340625,237.384683 L72.8302813,237.384683 C70.5729453,237.384683 68.7296433,235.537243 68.7296433,233.285557" id="Fill-8" fill="#677677"></path>
                    <path d="M556.733932,191.712495 C556.733932,184.060165 562.942551,177.858585 570.599344,177.858585 C578.256137,177.858585 584.462866,184.060165 584.462866,191.712495 C584.462866,199.368602 578.256137,205.562626 570.599344,205.562626 C562.942551,205.562626 556.733932,199.368602 556.733932,191.712495" id="Fill-9" fill="#677677"></path>
                    <polyline id="Fill-10" fill="#E0C097" points="43.0803318 425.545861 15.723839 640 179.518713 640 202.880439 456.827664 43.0803318 425.545861"></polyline>
                    <polyline id="Fill-11" fill="#403B4E" points="15.7389635 511.701161 0 640 195.280363 640 207.485858 540.321366 15.7389635 511.701161"></polyline>
                    <path d="M49.1528304,363.080483 C15.1906993,364.875031 9.72318192,396.596971 26.6853418,428.660819 C43.6437205,460.720889 76.605742,480.984168 110.564092,479.185842 C144.528114,477.389405 158.314122,449.942268 141.355743,417.878419 C124.397365,385.814571 83.116852,361.280268 49.1528304,363.080483" id="Fill-12" fill="#CBA16C"></path>
                    <path d="M36.3726029,217.95823 C29.1449684,217.077957 27.9558023,223.358874 27.0842512,230.576735 L7.5490308,364.969481 C6.03846841,377.487869 14.0601408,397.441353 26.5870323,398.97333 C39.1101428,400.503418 52.9887892,391.519345 54.4861176,379.002845 L69.6900509,260.148995 C72.2933605,239.8026 51.7844985,219.843449 36.3726029,217.95823" id="Fill-13" fill="#CBA16C"></path>
                    <path d="M36.3726029,217.95823 C29.9711458,217.178073 24.0858133,221.770227 23.3144623,228.166373 L3.49565689,378.455036 C2.15524546,389.547231 9.26188376,407.224472 20.3557262,408.580772 C31.4514591,409.931406 44.0180526,401.978725 45.3376678,390.888419 L61.0558351,254.361106 C63.1316768,236.309843 50.0243814,219.626215 36.3726029,217.95823" id="Fill-14" fill="#E0C097"></path>
                    <path d="M45.8878226,364.927923 C16.1303107,368.228002 5.39378534,398.559639 21.9040999,432.674939 C38.416305,466.792128 75.9194665,491.777901 105.675088,488.475933 C135.4326,485.179632 146.165344,454.849884 129.65692,420.728917 C113.146605,386.613617 75.6396627,361.631622 45.8878226,364.927923" id="Fill-15" fill="#E0C097"></path>
                    <path d="M26.8819607,221.103404 C24.9687077,222.913071 23.650983,225.368768 23.3144623,228.166373 L19.2705412,258.821029 C27.0218626,257.957757 32.6519687,256.609013 40.1802032,253.71129 C42.4640072,240.985112 40.0856749,221.090188 26.8819607,221.103404" id="Fill-16" fill="#F6DFC6"></path>
                    <polyline id="Fill-17" fill="#E0C097" points="612.923449 425.545861 640.281833 640 476.485069 640 453.121452 456.827664 612.923449 425.545861"></polyline>
                    <polyline id="Fill-18" fill="#403B4E" points="640.262927 511.701161 656 640 460.725309 640 448.517923 540.321366 640.262927 511.701161"></polyline>
                    <path d="M606.850951,363.080483 C640.811191,364.875031 646.276818,396.596971 629.318439,428.660819 C612.360061,460.720889 579.39993,480.984168 545.435908,479.185842 C511.471886,477.389405 497.689659,449.942268 514.649928,417.878419 C531.604526,385.814571 572.886929,361.280268 606.850951,363.080483" id="Fill-19" fill="#CBA16C"></path>
                    <path d="M619.631178,217.95823 C626.853141,217.077957 628.047979,223.358874 628.91953,230.576735 L648.45475,364.969481 C649.965313,377.487869 641.94364,397.441353 629.416749,398.97333 C616.895529,400.503418 603.011211,391.519345 601.519554,379.002845 L586.31373,260.148995 C583.710421,239.8026 604.215501,219.843449 619.631178,217.95823" id="Fill-20" fill="#CBA16C"></path>
                    <path d="M619.631178,217.95823 C626.034526,217.178073 631.917968,221.770227 632.691209,228.166373 L652.506234,378.455036 C653.846645,389.547231 646.741897,407.224472 635.646164,408.580772 C624.550431,409.931406 611.983838,401.978725 610.662332,390.888419 L594.947946,254.361106 C592.873995,236.309843 605.9794,219.626215 619.631178,217.95823" id="Fill-21" fill="#E0C097"></path>
                    <path d="M610.117849,364.927923 C639.87158,368.228002 650.608105,398.559639 634.099681,432.674939 C617.587476,466.792128 580.086205,491.777901 550.328693,488.475933 C520.576853,485.179632 509.834656,454.849884 526.346861,420.728917 C542.859066,386.613617 580.362228,361.631622 610.117849,364.927923" id="Fill-22" fill="#E0C097"></path>
                    <path d="M629.123711,221.103404 C631.035073,222.913071 632.354689,225.368768 632.691209,228.166373 L636.735131,258.821029 C628.980028,257.957757 623.351812,256.609013 615.819797,253.71129 C613.539774,240.985112 615.914325,221.090188 629.123711,221.103404" id="Fill-23" fill="#F6DFC6"></path>
                    <polygon id="Fill-24" fill="#FFFFFE" points="100.710461 356.50866 546.419002 356.50866 546.419002 23.4179053 100.710461 23.4179053"></polygon>
                    <polygon id="Fill-25" fill="#C8D2D3" points="109.384379 71.082986 537.745085 71.082986 537.745085 32.1167401 109.384379 32.1167401"></polygon>
                    <polygon id="Fill-26" fill="#FFFFFE" points="249.895039 65.6917864 463.988426 65.6917864 463.988426 37.5098287 249.895039 37.5098287"></polygon>
                    <polygon id="Fill-27" fill="#FFFFFE" points="125.308618 45.8384199 147.545457 45.8384199 147.545457 41.6694018 125.308618 41.6694018"></polygon>
                    <polygon id="Fill-28" fill="#FFFFFE" points="125.308618 53.6834276 147.545457 53.6834276 147.545457 49.5162985 125.308618 49.5162985"></polygon>
                    <polygon id="Fill-29" fill="#FFFFFE" points="125.308618 61.5303243 147.545457 61.5303243 147.545457 57.3613062 125.308618 57.3613062"></polygon>
                    <polygon id="Fill-30" fill="#C8D2D3" points="109.384379 240.867994 374.88226 240.867994 374.88226 82.7381023 109.384379 82.7381023"></polygon>
                    <polygon id="Fill-31" fill="#C8D2D3" points="386.089537 138.380421 459.940724 138.380421 459.940724 82.7381023 386.089537 82.7381023"></polygon>
                    <path d="M303.280847,274.53938 L155.761858,274.53938 C152.252967,274.53938 149.407665,271.696438 149.407665,268.188569 C149.407665,264.682589 152.252967,261.839648 155.761858,261.839648 L303.280847,261.839648 C306.791628,261.839648 309.636931,264.682589 309.636931,268.188569 C309.636931,271.696438 306.791628,274.53938 303.280847,274.53938" id="Fill-32" fill="#C8D2D3"></path>
                    <path d="M531.625322,96.6996848 L472.051691,96.6996848 C470.401227,96.6996848 469.064596,95.3641634 469.064596,93.7150683 C469.064596,92.0678622 470.401227,90.7323408 472.051691,90.7323408 L531.625322,90.7323408 C533.273896,90.7323408 534.610526,92.0678622 534.610526,93.7150683 C534.610526,95.3641634 533.273896,96.6996848 531.625322,96.6996848" id="Fill-33" fill="#C8D2D3"></path>
                    <path d="M531.625322,110.005785 L472.051691,110.005785 C470.401227,110.005785 469.064596,108.670264 469.064596,107.023058 C469.064596,105.375852 470.401227,104.04033 472.051691,104.04033 L531.625322,104.04033 C533.273896,104.04033 534.610526,105.375852 534.610526,107.023058 C534.610526,108.670264 533.273896,110.005785 531.625322,110.005785" id="Fill-34" fill="#C8D2D3"></path>
                    <path d="M495.55521,123.315663 L472.051691,123.315663 C470.401227,123.315663 469.064596,121.978253 469.064596,120.331047 C469.064596,118.683841 470.401227,117.348319 472.051691,117.348319 L495.55521,117.348319 C497.203783,117.348319 498.540414,118.683841 498.540414,120.331047 C498.540414,121.978253 497.203783,123.315663 495.55521,123.315663" id="Fill-35" fill="#C8D2D3"></path>
                    <path d="M531.625322,172.926412 L472.051691,172.926412 C470.401227,172.926412 469.064596,171.59089 469.064596,169.943684 C469.064596,168.294589 470.401227,166.959068 472.051691,166.959068 L531.625322,166.959068 C533.273896,166.959068 534.610526,168.294589 534.610526,169.943684 C534.610526,171.59089 533.273896,172.926412 531.625322,172.926412" id="Fill-36" fill="#C8D2D3"></path>
                    <path d="M531.625322,186.234401 L472.051691,186.234401 C470.401227,186.234401 469.064596,184.896991 469.064596,183.249785 C469.064596,181.602578 470.401227,180.267057 472.051691,180.267057 L531.625322,180.267057 C533.273896,180.267057 534.610526,181.602578 534.610526,183.249785 C534.610526,184.896991 533.273896,186.234401 531.625322,186.234401" id="Fill-37" fill="#C8D2D3"></path>
                    <path d="M495.55521,199.540501 L472.051691,199.540501 C470.401227,199.540501 469.064596,198.20498 469.064596,196.557774 C469.064596,194.910568 470.401227,193.575046 472.051691,193.575046 L495.55521,193.575046 C497.203783,193.575046 498.540414,194.910568 498.540414,196.557774 C498.540414,198.20498 497.203783,199.540501 495.55521,199.540501" id="Fill-38" fill="#C8D2D3"></path>
                    <path d="M531.625322,245.616935 L472.051691,245.616935 C470.401227,245.616935 469.064596,244.281413 469.064596,242.632318 C469.064596,240.985112 470.401227,239.649591 472.051691,239.649591 L531.625322,239.649591 C533.273896,239.649591 534.610526,240.985112 534.610526,242.632318 C534.610526,244.281413 533.273896,245.616935 531.625322,245.616935" id="Fill-39" fill="#C8D2D3"></path>
                    <path d="M306.649836,299.619603 L153.141533,299.619603 C151.492959,299.619603 150.156329,298.284082 150.156329,296.634987 C150.156329,294.987781 151.492959,293.652259 153.141533,293.652259 L306.649836,293.652259 C308.3003,293.652259 309.636931,294.987781 309.636931,296.634987 C309.636931,298.284082 308.3003,299.619603 306.649836,299.619603" id="Fill-40" fill="#C8D2D3"></path>
                    <path d="M306.649836,315.322842 L153.141533,315.322842 C151.492959,315.322842 150.156329,313.98732 150.156329,312.340114 C150.156329,310.692908 151.492959,309.357387 153.141533,309.357387 L306.649836,309.357387 C308.3003,309.357387 309.636931,310.692908 309.636931,312.340114 C309.636931,313.98732 308.3003,315.322842 306.649836,315.322842" id="Fill-41" fill="#C8D2D3"></path>
                    <path d="M229.826679,331.029858 L153.141533,331.029858 C151.492959,331.029858 150.156329,329.692448 150.156329,328.045241 C150.156329,326.398035 151.492959,325.062514 153.141533,325.062514 L229.826679,325.062514 C231.475253,325.062514 232.811883,326.398035 232.811883,328.045241 C232.811883,329.692448 231.475253,331.029858 229.826679,331.029858" id="Fill-42" fill="#C8D2D3"></path>
                    <path d="M531.625322,258.924924 L472.051691,258.924924 C470.401227,258.924924 469.064596,257.589403 469.064596,255.942197 C469.064596,254.293102 470.401227,252.95758 472.051691,252.95758 L531.625322,252.95758 C533.273896,252.95758 534.610526,254.293102 534.610526,255.942197 C534.610526,257.589403 533.273896,258.924924 531.625322,258.924924" id="Fill-43" fill="#C8D2D3"></path>
                    <path d="M495.55521,272.232913 L472.051691,272.232913 C470.401227,272.232913 469.064596,270.897392 469.064596,269.250186 C469.064596,267.601091 470.401227,266.265569 472.051691,266.265569 L495.55521,266.265569 C497.203783,266.265569 498.540414,267.601091 498.540414,269.250186 C498.540414,270.897392 497.203783,272.232913 495.55521,272.232913" id="Fill-44" fill="#C8D2D3"></path>
                    <path d="M531.625322,318.305569 L472.051691,318.305569 C470.401227,318.305569 469.064596,316.970048 469.064596,315.322842 C469.064596,313.675635 470.401227,312.340114 472.051691,312.340114 L531.625322,312.340114 C533.273896,312.340114 534.610526,313.675635 534.610526,315.322842 C534.610526,316.970048 533.273896,318.305569 531.625322,318.305569" id="Fill-45" fill="#C8D2D3"></path>
                    <path d="M531.625322,331.613558 L472.051691,331.613558 C470.401227,331.613558 469.064596,330.278037 469.064596,328.630831 C469.064596,326.983625 470.401227,325.648103 472.051691,325.648103 L531.625322,325.648103 C533.273896,325.648103 534.610526,326.983625 534.610526,328.630831 C534.610526,330.278037 533.273896,331.613558 531.625322,331.613558" id="Fill-46" fill="#C8D2D3"></path>
                    <path d="M495.55521,344.921548 L472.051691,344.921548 C470.401227,344.921548 469.064596,343.586026 469.064596,341.93882 C469.064596,340.291614 470.401227,338.956093 472.051691,338.956093 L495.55521,338.956093 C497.203783,338.956093 498.540414,340.291614 498.540414,341.93882 C498.540414,343.586026 497.203783,344.921548 495.55521,344.921548" id="Fill-47" fill="#C8D2D3"></path>
                    <polygon id="Fill-48" fill="#C8D2D3" points="386.089537 211.070944 459.940724 211.070944 459.940724 155.428625 386.089537 155.428625"></polygon>
                    <polygon id="Fill-49" fill="#C8D2D3" points="386.089537 283.761467 459.940724 283.761467 459.940724 228.119149 386.089537 228.119149"></polygon>
                    <polygon id="Fill-50" fill="#C8D2D3" points="386.089537 356.453879 459.940724 356.453879 459.940724 300.811561 386.089537 300.811561"></polygon>
                    <path d="M135.863649,268.188569 C135.863649,275.493324 129.936724,281.417221 122.624014,281.417221 C115.311304,281.417221 109.384379,275.493324 109.384379,268.188569 C109.384379,260.881926 115.311304,254.959918 122.624014,254.959918 C129.936724,254.959918 135.863649,260.881926 135.863649,268.188569" id="Fill-51" fill="#C8D2D3"></path>
                    <path d="M445.321637,44.2108204 C442.08954,44.2108204 439.470807,46.827381 439.470807,50.0567966 C439.470807,53.2843773 442.08954,55.9009379 445.321637,55.9009379 C448.553734,55.9009379 451.17063,53.2843773 451.17063,50.0567966 C451.17063,46.827381 448.553734,44.2108204 445.321637,44.2108204 Z M455.335921,60.0627726 C454.647895,60.7483891 453.536752,60.7483891 452.850567,60.0627726 L449.747094,56.9618743 C448.470384,57.7779969 446.963718,58.2669352 445.335637,58.2669352 C440.804603,58.2669352 437.130842,54.5980598 437.130842,50.0707851 C437.130842,45.5435104 440.804603,41.8727969 445.335637,41.8727969 C449.86667,41.8727969 453.538592,45.5435104 453.538592,50.0707851 C453.538592,51.6956778 453.049248,53.2029313 452.234287,54.4785824 L455.335921,57.5794806 C456.022106,58.2650971 456.022106,59.3771561 455.335921,60.0627726 L455.335921,60.0627726 Z" id="Fill-53" fill="#C8D2D3"></path>
                    <path d="M515.519661,51.8076038 C515.519661,53.4212704 514.208171,54.7319262 512.594705,54.7319262 C510.982995,54.7319262 509.669749,53.4212704 509.669749,51.8076038 C509.669749,50.1975232 510.982995,48.8868674 512.594705,48.8868674 C514.208171,48.8868674 515.519661,50.1975232 515.519661,51.8076038 Z M519.806969,49.0798646 L519.303699,47.9347478 C519.303699,47.9347478 520.472893,45.401889 520.36956,45.3044713 L518.821478,43.854235 C518.716231,43.7549793 516.079325,44.9111246 516.079325,44.9111246 L514.862291,44.4387409 C514.862291,44.4387409 513.786862,41.8727969 513.639517,41.8727969 L511.458041,41.8727969 C511.308782,41.8727969 510.31181,44.4442551 510.31181,44.4442551 L509.096689,44.9166388 C509.096689,44.9166388 506.406203,43.8193117 506.30287,43.9167294 L504.760528,45.3688037 C504.651455,45.4680594 505.881883,47.9494523 505.881883,47.9494523 L505.378613,49.0927311 C505.378613,49.0927311 502.649855,50.1036689 502.649855,50.239686 L502.649855,52.294647 C502.649855,52.4361782 505.386267,53.3735933 505.386267,53.3735933 L505.887624,54.5150341 C505.887624,54.5150341 504.71843,57.0460548 504.821763,57.1416344 L506.367931,58.5955468 C506.471264,58.6948025 509.110084,57.5404953 509.110084,57.5404953 L510.327118,58.012879 C510.327118,58.012879 511.400634,60.576985 511.549893,60.576985 L513.733282,60.576985 C513.882541,60.576985 514.879513,58.0055267 514.879513,58.0055267 L516.096547,57.531305 C516.096547,57.531305 518.783207,58.6304701 518.88654,58.5348905 L520.434622,57.0828162 C520.541782,56.9798843 519.30944,54.5003295 519.30944,54.5003295 L519.810796,53.3570507 C519.810796,53.3570507 522.539555,52.3461129 522.539555,52.2082577 L522.539555,50.1551349 C522.541468,50.0136036 519.806969,49.0798646 519.806969,49.0798646 L519.806969,49.0798646 Z" id="Fill-54" fill="#FFFFFE"></path>
                    <path d="M330.746993,265.377741 L328.209853,265.377741 C327.739102,265.377741 327.353426,265.761207 327.353426,266.231568 L327.353426,273.258639 C327.353426,273.729 327.739102,274.114355 328.209853,274.114355 L330.746993,274.114355 C331.215853,274.114355 331.601529,273.729 331.601529,273.258639 L331.601529,266.231568 C331.601529,265.761207 331.215853,265.377741 330.746993,265.377741" id="Fill-55" fill="#C8D2D3"></path>
                    <path d="M342.207605,266.203233 L342.05636,266.203233 C342.799352,266.203233 343.408114,265.594975 343.408114,264.854488 C343.408114,264.110223 342.799352,263.503855 342.05636,263.503855 L337.721291,263.503855 C338.256322,262.661362 338.980408,261.320173 338.980408,260.222666 C338.980408,258.488566 338.029454,257.523288 337.409348,257.411837 C336.789242,257.302275 336.331725,257.63285 336.154012,258.156102 C335.974408,258.679354 336.292023,259.671078 336.169137,260.02621 C335.98008,260.57213 335.021563,261.305061 333.726525,262.96549 C332.567608,264.450243 332.732087,266.203233 332.732087,266.203233 L332.732087,272.115796 C332.732087,272.5786 333.1102,272.9564 333.573389,272.9564 L341.627201,272.9564 C342.166012,272.9564 342.608405,272.516263 342.608405,271.977899 C342.608405,271.439534 342.166012,270.999398 341.627201,270.999398 L341.765212,270.999398 C342.426911,270.999398 342.965722,270.459145 342.965722,269.801773 C342.965722,269.140624 342.426911,268.60226 341.765212,268.60226 L342.207605,268.60226 C342.867413,268.60226 343.408114,268.062006 343.408114,267.402746 C343.408114,266.743486 342.867413,266.203233 342.207605,266.203233" id="Fill-56" fill="#C8D2D3"></path>
                    <path d="M364.979475,271.001287 L367.516615,271.001287 C367.987365,271.001287 368.37115,270.614042 368.37115,270.145571 L368.37115,263.118499 C368.37115,262.648139 367.987365,262.264672 367.516615,262.264672 L364.979475,262.264672 C364.508724,262.264672 364.124939,262.648139 364.124939,263.118499 L364.124939,270.145571 C364.124939,270.614042 364.508724,271.001287 364.979475,271.001287" id="Fill-57" fill="#C8D2D3"></path>
                    <path d="M353.516972,270.173906 L353.668217,270.173906 C352.927115,270.173906 352.316462,270.780274 352.316462,271.524539 C352.316462,272.265026 352.927115,272.875173 353.668217,272.875173 L358.005176,272.875173 C357.470146,273.715777 356.744168,275.056965 356.744168,276.154473 C356.744168,277.890462 357.697014,278.85574 358.317119,278.963412 C358.937225,279.074863 359.392852,278.744289 359.570565,278.221036 C359.752059,277.695895 359.434444,276.704171 359.557331,276.350929 C359.746387,275.805008 360.703014,275.073966 361.999942,273.411648 C363.158859,271.926896 362.99249,270.173906 362.99249,270.173906 L362.99249,264.261343 C362.99249,263.798538 362.614376,263.420739 362.151188,263.420739 L354.097376,263.420739 C353.558564,263.420739 353.118062,263.860875 353.118062,264.39924 C353.118062,264.937604 353.558564,265.377741 354.097376,265.377741 L353.959364,265.377741 C353.299557,265.377741 352.758855,265.916105 352.758855,266.577254 C352.758855,267.234625 353.299557,267.776768 353.959364,267.776768 L353.516972,267.776768 C352.859055,267.776768 352.316462,268.315132 352.316462,268.974392 C352.316462,269.633652 352.859055,270.173906 353.516972,270.173906" id="Fill-58" fill="#C8D2D3"></path>
                    <path d="M299.477028,161.803993 C299.477028,193.446594 273.803139,219.099184 242.134265,219.099184 C210.4635,219.099184 184.791502,193.446594 184.791502,161.803993 C184.791502,130.159502 210.4635,104.508802 242.134265,104.508802 C273.803139,104.508802 299.477028,130.159502 299.477028,161.803993" id="Fill-59" fill="#DD424B"></path>
                    <polyline id="Fill-60" fill="#FFFFFE" points="226.934113 131.400574 226.934113 192.207412 272.854075 161.803993 226.934113 131.400574"></polyline>
                </g>
            </g>
        </g>
    </g>
</svg>