<?xml version="1.0" encoding="UTF-8"?>
<svg width="1385px" height="1199px" viewBox="0 0 1385 1199" version="1.1" xmlns="http://www.w3.org/2000/svg" xmlns:xlink="http://www.w3.org/1999/xlink">
    <title>Group 8</title>
    <defs>
        <rect id="path-1" x="0" y="0" width="1383" height="1199"></rect>
        <polygon id="path-3" points="-0.253482277 778.267146 304.86221 778.267146 304.86221 1198.80144 -0.253482277 1198.80144"></polygon>
        <polygon id="path-5" points="1184.09393 724.035088 1382.91618 724.035088 1382.91618 919.010078 1184.09393 919.010078"></polygon>
    </defs>
    <g id="Page-1" stroke="none" stroke-width="1" fill="none" fill-rule="evenodd">
        <g id="Group-8" transform="translate(1.144351, 0.000000)">
            <mask id="mask-2" fill="white">
                <use xlink:href="#path-1"></use>
            </mask>
            <use id="Rectangle" fill="#F5FCE5" xlink:href="#path-1"></use>
            <path d="M662.371652,934.008187 C611.104653,915.846229 561.066477,888.167134 538.388169,838.568618 C516.004496,789.60609 527.158795,727.281447 565.131857,689.131414 C578.340803,675.863192 594.988323,665.198799 613.537507,662.697367 C639.739381,659.163473 665.364027,672.187575 686.66832,687.846329 C707.976155,703.505792 727.329208,722.369286 751.303621,733.523691 C778.507674,746.182143 809.408816,747.871496 838.160405,756.449354 C855.700327,761.682521 873.056102,769.965593 884.593567,784.182304 C896.053124,798.306539 900.63553,817.016262 900.851548,835.207983 C901.47127,887.377376 865.630054,937.678845 816.494902,955.160527 C784.301196,966.611844 750.574119,959.348478 718.64955,950.937145 C700.610309,946.182298 681.40599,940.750717 662.371652,934.008187" id="Fill-2" fill="#EDF2FF" mask="url(#mask-2)"></path>
            <path d="M769.166493,933.243648 L768.74877,932.592098 C749.324662,945.070689 728.778366,956.398445 707.609026,964.599472 C686.436146,972.804039 664.643762,977.881876 642.709777,977.881876 C633.049053,977.878335 623.360009,976.893929 613.681585,974.758688 C587.223451,968.919529 563.491134,954.28445 545.663576,934.380319 C527.836018,914.476187 515.917468,889.307606 513.063855,862.422687 C512.637636,858.405034 512.407534,854.333557 512.407534,850.254999 C512.40718,835.341595 515.481337,820.341437 523.230448,807.477228 C530.200754,795.90337 540.335841,786.923317 552.003758,779.870293 C563.671675,772.817977 576.868882,767.70048 589.906788,763.854567 C602.951775,760.004759 616.347223,757.032064 629.54089,753.437918 C642.731017,749.843064 655.722903,745.626051 667.953684,739.27061 C681.830576,732.057885 694.089677,722.424512 706.040796,712.351343 C717.988375,702.276757 729.631511,691.760605 742.258775,682.753287 C749.958326,677.260086 758.22074,672.276086 766.865477,668.586687 C775.510214,664.896933 784.537274,662.502134 793.780275,662.169985 C794.52014,662.143428 795.260005,662.130326 795.99987,662.130326 C804.775588,662.130326 813.360145,663.989721 821.491578,667.154694 C829.619472,670.319667 837.290703,674.79128 844.229148,680.004031 C874.588389,702.807912 891.669002,740.806354 891.669002,779.246717 C891.669002,793.303546 889.385687,807.416322 884.638515,820.864447 C878.839957,837.295536 869.108433,851.215326 857.408655,863.628408 C845.712418,876.040782 832.047928,886.939011 818.425918,897.312105 C803.026816,909.033624 786.346226,921.285589 768.74877,932.592098 L769.166493,933.243648 L769.584215,933.891657 C787.234772,922.553277 803.947222,910.276525 819.360484,898.542259 C833.003734,888.154292 846.731945,877.209322 858.534383,864.688947 C870.333281,852.169634 880.206406,838.067126 886.097005,821.379313 C890.904357,807.757323 893.212452,793.470682 893.212452,779.246717 C893.212452,740.356289 875.951298,701.911677 845.156635,678.767857 C838.122608,673.481807 830.331017,668.938665 822.050902,665.713849 C813.770787,662.489741 804.995069,660.584312 795.99987,660.584312 C795.242305,660.584312 794.48474,660.597414 793.723635,660.625034 C784.250532,660.965681 775.039391,663.417845 766.260133,667.164609 C757.477335,670.912081 749.12642,675.954862 741.359609,681.494804 C728.636765,690.572236 716.965308,701.118132 705.042509,711.168993 C693.11971,721.220561 680.94911,730.775324 667.242139,737.898814 C655.16358,744.176707 642.277894,748.364684 629.133788,751.946082 C615.989681,755.527834 602.583612,758.502653 589.467826,762.371229 C576.344959,766.243346 563.030931,771.400502 551.203713,778.54701 C539.380035,785.693517 529.036086,794.837166 521.906479,806.679434 C513.975411,819.849234 510.86196,835.133737 510.86196,850.254999 C510.86196,854.39163 511.094894,858.517285 511.526777,862.585575 C514.418976,889.821764 526.480189,915.280001 544.513069,935.410759 C562.542408,955.541516 586.547306,970.353646 613.348823,976.270708 C623.140528,978.430736 632.942853,979.425766 642.709777,979.425766 C664.884484,979.425766 686.864489,974.294813 708.16835,966.040671 C729.47221,957.786529 750.099927,946.409199 769.584215,933.891657 L769.166493,933.243648" id="Fill-3" fill="#EDF2FF" mask="url(#mask-2)"></path>
            <path d="M606.239537,847.913224 C606.239537,847.913224 601.035487,834.575958 622.508304,816.564304 L622.183487,846.365289 L606.239537,847.913224" id="Fill-4" fill="#102048" mask="url(#mask-2)"></path>
            <path d="M604.920181,785.492049 C597.282152,769.716622 591.050301,758.380419 587.121374,760.16897 C586.081569,760.643137 585.589581,761.998507 585.889659,763.199471 C587.965779,771.421787 596.357493,786.744599 596.357493,786.744599 L604.920181,785.492049" id="Fill-5" fill="#F9B384" mask="url(#mask-2)"></path>
            <path d="M615.625995,807.735526 L601.845373,816.564304 C595.795519,813.857754 590.519817,808.401333 586.874851,798.284619 C586.365918,796.866006 586.487775,795.259548 587.247591,793.985815 L590.132741,789.093998 C591.161359,787.371777 591.655956,785.345594 591.548435,783.290292 L591.272464,777.382543 C591.254544,776.95252 591.408658,776.534571 591.695381,776.239486 L593.824299,774.064871 C594.207791,773.674975 594.791989,773.638755 595.214905,773.979293 L599.666279,777.587789 L598.798942,777.529908 C598.798942,777.529908 599.533669,785.171596 605.264544,785.547999 L608.242879,789.325521 L615.625995,807.735526" id="Fill-6" fill="#F9B384" mask="url(#mask-2)"></path>
            <path d="M617.140874,806.217438 L615.305989,807.38901 L608.064874,789.214215 L605.143822,785.484956 C599.52317,785.113362 598.802573,777.569306 598.802573,777.569306 L599.653229,777.626447 L606.268656,778.012063 C608.10354,778.112324 609.832972,778.926675 611.168711,780.298417 L615.661015,784.941938 C616.525731,785.842177 617.16548,786.956608 617.520505,788.185321 C619.288603,794.22933 618.947638,800.23057 617.140874,806.217438" id="Fill-7" fill="#F9B384" mask="url(#mask-2)"></path>
            <path d="M625.567108,809.662273 L622.453627,838.710858 C622.453627,838.710858 613.540033,845.651108 613.098837,846.373919 C612.897967,846.689289 609.83829,839.565249 606.470136,831.455238 C602.126328,821.032162 597.273171,808.992024 597.273171,808.992024 L616.653513,798.213717 L623.457976,806.941415 L625.567108,809.662273" id="Fill-8" fill="#F9B384" mask="url(#mask-2)"></path>
            <path d="M625.567108,809.367128 L622.450276,838.649186 C622.450276,838.649186 613.527089,845.645218 613.085418,846.373838 C612.884332,846.691742 609.821363,839.510444 606.449583,831.33525 L623.455706,806.624402 L625.567108,809.367128" id="Fill-9" fill="#E28B6D" mask="url(#mask-2)"></path>
            <path d="M608.409278,790.567639 C607.973715,790.05258 606.027961,787.404747 605.406747,786.56143 C598.623384,786.040931 598.077144,777.619733 598.073574,777.533406 L598.037872,776.836265 L598.723349,776.819942 C609.723109,776.565678 612.050873,779.551563 613.439678,781.339758 C613.682451,781.649518 613.889522,781.916478 614.096593,782.106178 L613.211186,783.113806 C612.91843,782.845758 612.664946,782.521489 612.397182,782.177271 C611.111913,780.525095 609.173299,778.048464 599.47666,778.15873 C599.744424,780.044858 600.911876,785.041284 605.781617,785.229896 L606.099364,785.241866 L606.288585,785.501209 C607.206124,786.751494 609.037632,789.234654 609.419642,789.68805 L608.409278,790.567639" id="Fill-10" fill="#E28B6D" mask="url(#mask-2)"></path>
            <path d="M603.819191,792.861462 C603.128724,792.861462 602.516963,792.596738 602.134165,792.29964 C601.218313,791.594497 594.979068,786.968069 594.979068,786.968069 L595.801905,785.979992 C595.801905,785.979992 602.059037,790.619572 602.978467,791.32775 C603.196697,791.495015 603.708287,791.72669 604.252074,791.5284 C605.04629,791.237373 605.62943,790.135312 605.894169,788.425568 L607.214284,788.605984 C606.781401,791.397556 605.625853,792.372819 604.735043,792.700267 C604.423796,792.813576 604.116127,792.861462 603.819191,792.861462" id="Fill-11" fill="#E28B6D" mask="url(#mask-2)"></path>
            <path d="M597.690218,778.333914 C597.114861,777.7683 592.424835,777.105595 591.511238,777.363006 L591.155564,776.125358 C592.295815,775.805408 598.028457,776.400391 598.802573,777.666026 L597.690218,778.333914" id="Fill-12" fill="#E28B6D" mask="url(#mask-2)"></path>
            <path d="M603.331351,799.742932 C601.462864,799.742932 599.158168,798.218456 598.828435,797.994015 L593.449666,794.444041 L594.153784,793.369139 L599.539422,796.924292 C600.916744,797.859005 603.27983,798.922167 604.025164,798.253677 C604.286202,798.016459 604.413287,797.627312 604.402983,797.096249 C604.37207,795.500643 603.104659,793.179572 602.077679,792.322206 L602.895141,791.332246 C604.179726,792.40335 605.642916,795.085253 605.684133,797.071388 C605.701306,797.979858 605.423094,798.719134 604.880409,799.210143 C604.454504,799.593765 603.915253,799.742932 603.331351,799.742932" id="Fill-13" fill="#E28B6D" mask="url(#mask-2)"></path>
            <path d="M599.584705,804.330579 C597.89959,804.330579 595.873828,803.074678 595.377353,802.750021 L590.390863,799.584701 L591.130139,798.494456 L596.127501,801.665028 C597.381372,802.485252 599.530346,803.425602 600.186273,802.857189 C600.410955,802.661764 600.519672,802.334656 600.512424,801.886019 C600.483433,800.416482 599.218691,798.358919 598.385193,797.688592 L599.247682,796.684501 C600.450818,797.649717 601.824277,800.06836 601.860516,801.859753 C601.878636,802.692934 601.610467,803.373769 601.088625,803.827308 C600.671876,804.19049 600.14641,804.330579 599.584705,804.330579" id="Fill-14" fill="#E28B6D" mask="url(#mask-2)"></path>
            <path d="M667.223668,1173.60909 L665.79344,1180.0812 C654.655321,1180.85405 640.776815,1188.51189 633.978819,1198.1036 L687.197416,1198.1036 L689.037289,1170.57772 C681.999156,1172.28573 673.534327,1173.82436 667.223668,1173.60909" id="Fill-15" fill="#EE6F57" mask="url(#mask-2)"></path>
            <path d="M688.746172,1170.5983 L689.80199,1154.87724 L671.792839,1151.46252 L666.860961,1173.61604 C673.192331,1173.83034 681.68494,1172.29863 688.746172,1170.5983" id="Fill-16" fill="#F9B384" mask="url(#mask-2)"></path>
            <path d="M775.448501,1169.21837 L768.896309,1146.11027 L750.978069,1148.53462 L755.323911,1170.51088 C762.252625,1170.75724 769.008913,1170.32165 775.448501,1169.21837" id="Fill-17" fill="#F9B384" mask="url(#mask-2)"></path>
            <path d="M807.565942,1187.06102 C798.637081,1175.04672 787.809144,1174.69661 776.571463,1173.91424 L775.178333,1169.0485 C768.658055,1170.1524 761.817108,1170.58825 754.801574,1170.34174 L760.359844,1198.1036 L807.565942,1187.06102" id="Fill-18" fill="#EE6F57" mask="url(#mask-2)"></path>
            <path d="M718.860628,883.84979 L716.563463,948.02432 C716.510615,949.750878 716.457766,951.491588 716.394347,953.203993 C715.210532,988.442757 712.927461,1022.284 709.763575,1054.98953 C706.180422,1092.03269 701.480396,1127.6288 695.952404,1162.16703 L659.694554,1162.16703 C654.864167,1085.16538 646.725441,992.727309 661.664056,909.095392 L670.761108,886.736822 L718.860628,883.84979" id="Fill-19" fill="#1F3C88" mask="url(#mask-2)"></path>
            <path d="M768.665173,913.402853 C777.832676,989.844754 785.765068,1075.42741 782.240744,1155.23826 L742.564585,1162.93164 C731.725424,1096.37364 712.797706,1010.76268 710.387821,933.595321 L705.09601,870.851458 L764.583629,887.438582 L768.665173,913.402853" id="Fill-20" fill="#1F3C88" mask="url(#mask-2)"></path>
            <polygon id="Fill-21" fill="#F9B384" mask="url(#mask-2)" points="696.684299 759.983326 723.448834 759.983326 723.448834 727.105191 696.684299 727.105191"></polygon>
            <path d="M696.668117,746.931115 C706.3588,760.346555 718.684015,754.472475 723.307743,745.455778 L754.801574,885.190673 C725.41395,897.830906 697.160984,899.702169 670.684466,884.709046 L687.420661,752.39652 L696.668117,746.931115" id="Fill-22" fill="#FFFFFF" mask="url(#mask-2)"></path>
            <path d="M737.600406,706.313393 C743.447323,694.761887 744.759607,676.906246 731.148635,676.159755 C719.341611,664.509188 700.251585,666.10866 689.151993,678.259836 C667.706222,671.658874 664.536931,710.97737 691.833156,709.477312 L737.600406,706.313393" id="Fill-23" fill="#102048" mask="url(#mask-2)"></path>
            <path d="M696.684299,727.105191 L696.684299,744.684085 C704.489645,744.854782 711.049532,741.932227 715.037123,736.884893 C715.037123,736.884893 707.334386,731.454026 701.262775,727.105191 L696.684299,727.105191" id="Fill-24" fill="#102048" mask="url(#mask-2)"></path>
            <path d="M734.154647,694.927353 L732.054112,715.026873 C728.839441,723.93659 724.876099,730.212811 719.890875,734.195932 C714.745981,738.297208 708.082458,739.594439 701.947616,737.759889 C696.68918,736.174307 692.392308,732.309339 690.632399,727.08103 C689.667288,724.198568 689.468589,720.9096 690.316609,717.359357 C690.447893,716.795665 690.554339,716.232324 690.607562,715.655621 C690.884322,713.349862 690.632399,711.004367 690.050494,708.750652 C688.819268,704.033992 688.7554,699.120409 689.614065,694.036276 L713.38702,686.580977 L734.154647,694.927353" id="Fill-25" fill="#F9B384" mask="url(#mask-2)"></path>
            <path d="M688.439599,938.505437 C676.116444,941.194909 661.667749,940.947194 645.619567,938.505437 C649.561413,902.78218 654.964123,868.495312 663.281453,837.067069 L628.625912,833.698506 C628.952918,828.135901 629.681573,822.403788 630.829649,816.531893 C632.116347,809.918625 633.94687,803.120278 636.307001,796.182503 C636.385199,795.935143 636.477613,795.687782 636.570028,795.440775 C644.93712,771.336388 660.128687,753.18104 697.485584,746.984994 C709.186716,802.517624 708.305221,884.657619 688.439599,938.505437" id="Fill-26" fill="#708CD5" mask="url(#mask-2)"></path>
            <path d="M777.268044,891.831508 C779.364234,904.327084 781.212563,916.83432 783.099842,929.856066 C771.170681,934.096526 756.752295,935.637226 740.220015,934.902213 C733.308255,912.699872 728.623696,889.580177 725.918478,865.655856 C725.918478,865.563979 725.904314,865.484824 725.890151,865.392594 C721.630495,827.353548 718.872164,787.221128 723.726685,745.455778 C738.952387,746.535329 754.560502,751.196654 769.180718,760.544748 C774.194577,763.757957 778.255944,768.484656 780.975326,774.08065 C791.201332,795.081528 795.96379,813.554738 799.918932,832.633627 L767.927253,845.602721 C768.86204,849.50041 769.747255,853.358169 770.58998,857.163275 C773.188972,868.947513 775.341816,880.376259 777.268044,891.831508" id="Fill-27" fill="#708CD5" mask="url(#mask-2)"></path>
            <path d="M669.919765,823.729698 L665.644276,858.691865 L653.861044,874.351177 C649.879076,879.638059 644.411826,882.273511 638.916285,882.320575 C632.985768,882.366898 627.055252,879.405478 623.009628,873.451743 L605.684882,847.978552 C614.211105,836.536246 622.422589,824.907875 624.784893,809.682834 C635.96694,822.768479 639.284069,827.698855 639.284069,827.698855 L669.919765,823.729698" id="Fill-28" fill="#708CD5" mask="url(#mask-2)"></path>
            <path d="M689.109632,702.351669 C697.906195,701.919198 706.720478,700.075268 715.559571,695.548973 C718.3559,700.800354 724.958639,707.731047 734.644782,705.132037 L735.697392,699.393778 L736.44875,689.633192 L707.29463,680.464115 L684.449084,687.858667 L689.109632,702.351669" id="Fill-29" fill="#102048" mask="url(#mask-2)"></path>
            <path d="M725.784702,865.548223 L725.784702,865.548223 C725.765702,865.525923 725.743702,865.507323 725.724702,865.484923 L725.776702,865.473723 C725.780702,865.499823 725.784702,865.522223 725.784702,865.548223" id="Fill-30" fill="#A5B1CF" mask="url(#mask-2)"></path>
            <path d="M776.977903,892.260476 C758.425972,890.470089 740.834477,881.976183 725.771185,866.281799 C725.771185,866.190613 725.757061,866.112054 725.742937,866.020518 L770.318416,857.853125 C772.910178,869.548686 775.057033,880.891429 776.977903,892.260476" id="Fill-31" fill="#506CB6" mask="url(#mask-2)"></path>
            <path d="M712.469344,954.958316 C718.081643,989.370704 713.201993,1022.50216 710.054058,1055.12194 C683.748819,1013.88847 708.981376,963.730793 712.469344,954.958316" id="Fill-32" fill="#102048" mask="url(#mask-2)"></path>
            <polyline id="Fill-33" fill="#1F3C88" mask="url(#mask-2)" points="643.658408 834.150283 624.802407 809.730976 625.825141 808.918226 644.684632 833.337533 643.658408 834.150283"></polyline>
            <path d="M758.084046,836.444107 C756.177885,836.444107 754.46687,835.780657 753.431897,833.910514 C750.658031,828.890056 754.296117,812.494647 762.074092,794.390678 L768.566192,832.490161 C768.566192,832.490161 762.73968,836.444107 758.084046,836.444107" id="Fill-34" fill="#506CB6" mask="url(#mask-2)"></path>
            <path d="M693.850382,821.062684 L685.813381,821.624225 C684.938557,821.685432 684.195312,822.338071 683.946378,823.257247 L683.893036,823.458661 C683.508966,824.901656 683.78635,826.459948 684.63628,827.638898 L686.087208,829.645212 C686.318361,829.965838 686.268574,830.410658 685.969854,830.6715 C684.696736,831.297806 683.772125,832.541166 683.718782,833.960319 C683.708113,834.314395 683.733007,834.661354 683.800574,834.978422 C684.092182,836.346687 685.052355,837.426709 686.293467,837.785412 L687.07583,838.011736 C687.17896,838.041272 687.225191,838.171159 687.164735,838.267596 L686.037421,840.156834 C685.198159,841.628653 686.42149,844.391517 687.627041,845.385422 C687.872418,845.793232 688.651225,845.943759 689.095749,846.004611 L692.63772,846.489642 C694.284238,846.715255 695.856076,847.299925 697.289223,848.141168 C704.437176,852.333504 713.18186,851.898649 721.919432,851.48123 L721.236642,828.502915 C715.276459,823.921985 708.437895,820.034261 700.518248,816.998812 L681.656189,803.565971 C677.520334,805.386885 680.109244,810.495549 693.850382,821.062684" id="Fill-35" fill="#F9B384" mask="url(#mask-2)"></path>
            <path d="M799.536213,832.90643 L802.306697,844.508616 C805.900552,859.573418 794.553582,873.902863 780.333647,872.250331 L712.74302,864.082625 L717.90234,825.739597 L799.536213,832.90643" id="Fill-36" fill="#708CD5" mask="url(#mask-2)"></path>
            <polyline id="Fill-37" fill="#1F3C88" mask="url(#mask-2)" points="655.159782 873.909889 653.861044 873.754504 663.26812 793.62607 664.566858 793.7811 655.159782 873.909889"></polyline>
            <polyline id="Fill-38" fill="#1F3C88" mask="url(#mask-2)" points="768.452154 830.327244 717.331226 826.227968 717.4417 824.97499 768.566192 829.074266 768.452154 830.327244"></polyline>
            <path d="M697.308809,832.621068 C696.913398,832.575408 687.635617,831.499021 685.978485,830.988025 L686.341545,829.562636 C687.624833,829.959681 694.796152,830.843104 697.449,831.149225 L697.308809,832.621068" id="Fill-39" fill="#E28B6D" mask="url(#mask-2)"></path>
            <path d="M698.844983,841.031753 C698.448238,840.986782 689.122958,839.914242 687.507887,839.402049 L687.85899,837.973322 C689.112425,838.3705 696.310024,839.251217 698.978402,839.556463 L698.844983,841.031753" id="Fill-40" fill="#E28B6D" mask="url(#mask-2)"></path>
            <path d="M728.03704,720.058361 C745.01947,722.540226 747.27339,696.099403 729.242034,706.675803 L728.03704,720.058361" id="Fill-41" fill="#F9B384" mask="url(#mask-2)"></path>
            <path d="M732.029222,713.34225 C731.842589,712.508232 731.792598,711.6163 731.972565,710.729917 C732.145867,709.845615 732.562459,708.982119 733.212342,708.306928 C733.858893,707.645262 734.778727,707.155255 735.751886,707.233628 C736.718379,707.285299 737.611552,707.902924 737.978152,708.72966 L737.588222,709.030669 C737.021658,708.523669 736.375107,708.296178 735.758551,708.362414 C735.13533,708.412351 734.548769,708.756709 734.075521,709.228684 C733.595607,709.704473 733.249002,710.336663 732.979051,711.026418 C732.732429,711.729699 732.625781,712.496788 732.515801,713.301677 L732.029222,713.34225" id="Fill-42" fill="#E28B6D" mask="url(#mask-2)"></path>
            <path d="M700.507804,709.519036 C700.507804,711.208217 699.481046,712.577643 698.215596,712.577643 C696.946356,712.577643 695.919598,711.208217 695.919598,709.519036 C695.919598,707.830206 696.946356,706.46078 698.215596,706.46078 C699.481046,706.46078 700.507804,707.830206 700.507804,709.519036" id="Fill-43" fill="#102048" mask="url(#mask-2)"></path>
            <path d="M716.566525,707.989996 C716.566525,709.678922 715.539767,711.048427 714.270527,711.048427 C713.005077,711.048427 711.978319,709.678922 711.978319,707.989996 C711.978319,706.300717 713.005077,704.931565 714.270527,704.931565 C715.539767,704.931565 716.566525,706.300717 716.566525,707.989996" id="Fill-44" fill="#102048" mask="url(#mask-2)"></path>
            <path d="M706.625412,706.59264 C706.478025,708.155156 705.952122,709.659697 705.312329,711.039448 C704.719432,712.432279 703.828412,713.75865 703.245564,714.972959 C702.645968,716.23181 702.488532,717.411474 703.232165,718.435594 C703.96575,719.482692 705.174992,720.319805 706.333988,721.212065 L706.049264,721.752936 C704.729481,721.18732 703.315908,720.607209 702.207157,719.304876 C701.654456,718.665729 701.265891,717.712312 701.27259,716.776216 C701.285989,715.84012 701.564014,715.003361 701.909034,714.274069 C702.645968,712.805586 703.480043,711.699098 704.18683,710.396766 C704.910365,709.127663 705.590355,707.85644 706.052613,706.46078 L706.625412,706.59264" id="Fill-45" fill="#102048" mask="url(#mask-2)"></path>
            <path d="M702.037206,726.730825 L713.507721,723.282152 C713.507721,723.282152 713.4623,728.738493 707.976857,730.06956 C704.839324,730.829906 702.037206,726.730825 702.037206,726.730825" id="Fill-46" fill="#FFFFFF" mask="url(#mask-2)"></path>
            <path d="M690.656107,727.105191 L690.656107,727.105191 C690.364284,726.230473 690.140078,725.317984 689.997725,724.372667 C689.908755,723.785639 689.848255,723.186255 689.819784,722.574517 C689.809108,722.313302 689.80199,722.049263 689.80199,721.783458 C689.80199,720.360541 689.972814,718.877615 690.339372,717.346328 C690.471048,716.780479 690.577813,716.214983 690.631195,715.636074 C693.599249,715.885993 695.919598,718.358714 695.919598,721.370809 C695.919598,724.369843 693.613484,726.842211 690.656107,727.105191" id="Fill-47" fill="#FAA280" mask="url(#mask-2)"></path>
            <path d="M720.774138,723.282152 C717.606828,723.282152 715.037123,720.714985 715.037123,717.547769 C715.037123,714.380554 717.606828,711.813035 720.774138,711.813035 C723.941448,711.813035 726.507638,714.380554 726.507638,717.547769 C726.507638,720.714985 723.941448,723.282152 720.774138,723.282152" id="Fill-48" fill="#FAA280" mask="url(#mask-2)"></path>
            <path d="M639.331725,882.320575 C644.065509,862.769023 654.540711,848.028893 656.919848,844.854792 L653.4666,874.301069 L654.117364,874.378952 C650.174294,879.64776 644.768754,882.274199 639.331725,882.320575" id="Fill-49" fill="#506CB6" mask="url(#mask-2)"></path>
            <path d="M654.492636,873.909889 L654.492636,873.909889 L653.861044,873.832886 L657.212553,844.719508 C657.518162,844.305093 657.684549,844.090185 657.684549,844.090185 L655.956162,864.466889 L654.492636,873.906739 C654.492636,873.907789 654.492636,873.908839 654.492636,873.909889" id="Fill-50" fill="#1F3C88" mask="url(#mask-2)"></path>
            <path d="M639.921818,827.268813 L630.920015,815.486814 C632.164026,809.112929 633.895275,802.569697 636.096483,795.89786 C636.172506,795.650217 636.262352,795.402574 636.352197,795.155285 C638.54995,799.362028 643.335937,810.299419 643.919931,826.73987 L639.921818,827.268813" id="Fill-51" fill="#607CC6" mask="url(#mask-2)"></path>
            <path d="M643.888898,832.621068 L640.096426,827.062459 L643.866091,826.504205 C643.927995,828.469872 643.93777,830.508078 643.888898,832.621068" id="Fill-52" fill="#607CC6" mask="url(#mask-2)"></path>
            <path d="M643.887434,834.150283 L630.155314,816.595171 C630.205866,816.330133 630.260029,816.065094 630.310581,815.799696 L643.919931,833.105233 C643.91271,833.451186 643.901877,833.800015 643.887434,834.150283" id="Fill-53" fill="#1F3C88" mask="url(#mask-2)"></path>
            <path d="M637.398903,716.767533 C631.091203,714.239293 625.725585,710.34863 621.411841,704.939323 C626.430376,697.377275 629.359331,688.308981 629.359331,678.553099 C629.359331,652.000025 607.114152,630.22535 580.572938,630.774783 C553.631517,631.332717 532.169046,654.197401 533.900918,681.652734 C535.406125,705.517804 554.825057,724.848549 578.688774,726.255252 C590.447092,726.948154 601.348327,723.382687 610.004148,716.962367 C617.516013,720.17607 626.416209,720.892706 637.320986,718.006325 C637.919527,717.847623 637.976194,716.9985 637.398903,716.767533" id="Fill-54" fill="#FFFFFF" mask="url(#mask-2)"></path>
            <path d="M637.42602,716.788509 L637.702412,716.103022 C631.497758,713.615917 626.246303,709.806043 622.008286,704.493343 L621.430697,704.95376 L622.043721,705.362075 C627.142806,697.680299 630.11934,688.462735 630.11934,678.55295 C630.11934,665.227073 624.605666,653.086089 615.782371,644.283219 C606.962619,635.478932 594.819072,630 581.552238,630 C581.222693,630 580.889605,630.00319 580.556517,630.010279 C554.217741,630.555762 533.038289,652.079125 533.038289,678.552241 C533.038289,679.594649 533.07018,680.6445 533.137507,681.700731 C534.671839,705.956825 554.387828,725.584289 578.643031,727.018353 C579.628122,727.076481 580.606126,727.105191 581.577042,727.105191 C592.395324,727.105191 602.387971,723.561146 610.456502,717.576429 L610.017109,716.983451 L609.726543,717.662203 C614.109843,719.537899 618.964427,720.580661 624.371795,720.579952 C628.432637,720.579952 632.805306,719.994063 637.535868,718.741827 C637.858326,718.658179 638.138262,718.455794 638.30835,718.207686 C638.485524,717.959578 638.567025,717.674254 638.567025,717.389639 C638.567025,717.136214 638.499698,716.876764 638.354415,716.643897 C638.209132,716.411385 637.978805,716.212544 637.702412,716.103022 L637.42602,716.788509 L637.153171,717.473641 L637.19215,717.376524 L637.107106,717.430754 L637.153171,717.473641 L637.19215,717.376524 L637.107106,717.430754 L637.170889,717.389639 L637.092932,717.389639 L637.107106,717.430754 L637.170889,717.389639 L637.092932,717.389639 L637.153171,717.389639 L637.103562,717.354549 L637.092932,717.389639 L637.153171,717.389639 L637.103562,717.354549 L637.181519,717.409842 L637.156715,717.314498 L637.103562,717.354549 L637.181519,717.409842 L637.156715,717.314498 C632.536001,718.538378 628.290898,719.103356 624.371795,719.103356 C619.152232,719.102647 614.510257,718.102063 610.307676,716.304344 L609.917892,716.137757 L609.577716,716.390118 C601.750142,722.193717 592.069322,725.62824 581.577042,725.628594 C580.634474,725.628594 579.684818,725.600948 578.731618,725.544592 C555.227636,724.162985 536.089235,705.108296 534.611599,681.607867 C534.547816,680.582473 534.515925,679.563458 534.515925,678.552241 C534.515925,652.884767 555.054005,632.014636 580.584865,631.486521 C580.910866,631.479787 581.233324,631.476597 581.552238,631.476597 C594.408027,631.476242 606.179507,636.784689 614.740584,645.328462 C623.301661,653.872945 628.641703,665.639287 628.641703,678.55295 C628.641703,688.165714 625.757301,697.094764 620.81413,704.545446 L620.516476,704.993812 L620.853108,705.414178 C625.247038,710.926073 630.72882,714.902534 637.153171,717.473641 L637.42602,716.788509" id="Fill-55" fill="#708CD5" mask="url(#mask-2)"></path>
            <path d="M596.50847,678.253619 C596.50847,669.177191 588.684133,661.937731 579.449081,662.977779 C572.529864,663.757282 566.901149,669.341054 566.041993,676.287267 C565.458615,681.014758 567.014289,685.374358 569.864003,688.54 C572.11266,691.036684 573.275881,694.33171 573.275881,697.699248 L573.275881,697.716309 C573.275881,702.12354 576.829184,705.696172 581.213358,705.696172 C585.597533,705.696172 589.150835,702.12354 589.150835,697.716309 L589.150835,697.704579 C589.150835,694.206947 590.5368,690.908722 592.810207,688.259194 C595.111899,685.573055 596.50847,682.080399 596.50847,678.253619" id="Fill-56" fill="#FBC343" mask="url(#mask-2)"></path>
            <path d="M581.212716,707.989996 C583.954237,707.989996 586.209919,705.991508 586.567358,703.402349 L575.861544,703.402349 C576.215512,705.991508 578.474665,707.989996 581.212716,707.989996" id="Fill-57" fill="#102048" mask="url(#mask-2)"></path>
            <path d="M572.973765,679.699507 C572.816672,679.699507 572.666721,679.675359 572.520339,679.625339 C571.160062,679.155493 570.867299,676.582033 571.866978,673.878176 C572.759548,671.462367 574.384026,669.759606 575.690749,669.759606 C575.847841,669.759606 575.997793,669.783753 576.140604,669.833774 C577.504451,670.30362 577.797214,672.876735 576.797536,675.580592 C575.904965,677.996401 574.280488,679.699507 572.973765,679.699507" id="Fill-58" fill="#FEF3D9" mask="url(#mask-2)"></path>
            <path d="M581.403007,657.525881 L581.022403,657.525881 C580.285636,657.525881 579.685049,656.9059 579.685049,656.148065 L579.685049,647.434939 C579.685049,646.676745 580.285636,646.056764 581.022403,646.056764 L581.403007,646.056764 C582.139774,646.056764 582.743853,646.676745 582.743853,647.434939 L582.743853,656.148065 C582.743853,656.9059 582.139774,657.525881 581.403007,657.525881" id="Fill-59" fill="#FBC343" mask="url(#mask-2)"></path>
            <path d="M569.954696,660.103348 L569.600954,660.356544 C569.024859,660.767497 568.236518,660.60689 567.849085,659.999363 L563.843371,653.742477 C563.45257,653.13495 563.604174,652.301292 564.180269,651.889982 L564.534011,651.636787 C565.110107,651.225834 565.898447,651.38644 566.28588,651.993967 L570.291594,658.250854 C570.682395,658.858381 570.530791,659.692039 569.954696,660.103348" id="Fill-60" fill="#FBC343" mask="url(#mask-2)"></path>
            <path d="M592.480453,660.080432 L592.858453,660.353135 C593.439197,660.770212 594.236432,660.607246 594.631613,659.990746 L598.583425,653.792934 C598.978606,653.176434 598.82397,652.330251 598.243226,651.913175 L597.86179,651.640471 C597.281045,651.22303 596.48381,651.385996 596.092065,652.002496 L592.136817,658.200672 C591.745073,658.817172 591.899709,659.662991 592.480453,660.080432" id="Fill-61" fill="#FBC343" mask="url(#mask-2)"></path>
            <polygon id="Fill-62" fill="#102048" mask="url(#mask-2)" points="546.802906 1198.33723 882.017048 1198.33723 882.017048 1196.12482 546.802906 1196.12482"></polygon>
            <path d="M1380.07284,1212 L1221.76596,1118.4913 C1198.05604,1118.10899 1178.85724,1112.48417 1166.31181,1099.13185 C1133.57966,1109.25937 1108.47463,1086.14414 1125.28332,1070.0626 C1121.64327,1061.18465 1121.57599,1053.15981 1127.85756,1046.65002 C1123.05609,1040.28537 1122.19919,1031.88176 1127.67697,1025.69057 C1128.45951,999.796556 1150.71765,984.550418 1191.17606,995.800064 C1183.95615,964.479463 1179.05199,934.659759 1205.39988,925.12694 C1212.811,959.413936 1220.14068,994.95758 1229.02482,1006.88334 C1244.102,1017.95599 1257.52912,1028.56492 1265.18102,1037.56677 L1437,1112.93019 L1380.07284,1212" id="Fill-64" fill="#F9B384" mask="url(#mask-2)"></path>
            <path d="M1172.15601,1042.87654 C1166.70865,1042.87654 1161.27543,1041.71924 1156.29469,1039.45108 L1127.50606,1026.32787 L1128.29788,1024.55621 L1157.08298,1037.67941 C1164.43568,1041.02629 1172.80997,1041.82283 1180.6717,1039.92257 C1188.22943,1038.09732 1191.11748,1034.65757 1192.00829,1033.26453 C1193.28087,1031.26783 1193.24552,1026.52433 1191.29423,1023.15959 C1190.22667,1021.32005 1188.14812,1019.15905 1184.32331,1019.42694 L1171.79544,1020.5128 L1156.16036,1006.88239 L1157.41527,1005.41076 L1172.4388,1018.50896 L1184.18191,1017.49096 C1187.95016,1017.24807 1191.05385,1018.91259 1192.95212,1022.17731 C1195.35235,1026.31002 1195.2357,1031.78933 1193.62376,1034.31467 C1192.60569,1035.90774 1189.35354,1039.82256 1181.12064,1041.81211 C1178.17603,1042.52292 1175.16072,1042.87654 1172.15601,1042.87654" id="Fill-66" fill="#E28B6D" mask="url(#mask-2)"></path>
            <path d="M1168.96341,1063.52095 C1154.37037,1063.52095 1128.6828,1048.33771 1127.50606,1047.63939 L1128.4855,1045.99234 C1128.79202,1046.17221 1159.15838,1064.13463 1171.95812,1061.31312 C1185.18417,1058.40344 1191.94517,1050.0024 1192.78721,1047.43483 C1193.43548,1045.4492 1190.97981,1040.99474 1189.27459,1038.65289 L1190.82479,1037.52429 C1191.33566,1038.22614 1195.77135,1044.47225 1194.60517,1048.0344 C1193.34387,1051.88929 1185.5224,1060.29385 1172.37033,1063.1859 C1171.32747,1063.41515 1170.18243,1063.52095 1168.96341,1063.52095" id="Fill-67" fill="#E28B6D" mask="url(#mask-2)"></path>
            <path d="M1162.90853,1081.87154 C1144.27214,1081.87154 1125.32355,1071.57531 1124.44725,1071.09408 L1125.36612,1069.37744 C1125.60027,1069.50313 1148.68555,1082.04033 1168.30822,1079.59466 C1188.385,1077.09153 1193.68181,1074.30469 1195.45569,1070.88578 C1196.27522,1069.30561 1196.21846,1065.58144 1193.97982,1062.69045 C1192.29108,1060.51054 1188.87814,1058.26239 1182.23318,1059.93234 L1181.76843,1058.03614 C1189.82539,1056.00706 1193.82372,1059.32541 1195.49826,1061.48378 C1198.09522,1064.83446 1198.38614,1069.44567 1197.16216,1071.79438 C1194.99448,1075.97105 1189.61252,1078.90513 1168.54237,1081.53396 C1166.6798,1081.7638 1164.79594,1081.87154 1162.90853,1081.87154" id="Fill-68" fill="#E28B6D" mask="url(#mask-2)"></path>
            <path d="M1166.43469,1100.22213 L1165.7411,1098.44123 C1174.18931,1095.27907 1184.41798,1087.71024 1184.44658,1083.05115 C1184.44658,1082.53932 1184.4573,1080.98979 1181.43626,1079.82239 L1182.14772,1078.0485 C1185.6693,1079.41222 1186.39864,1081.52617 1186.38803,1083.06167 C1186.35216,1089.08098 1174.74347,1097.11256 1166.43469,1100.22213" id="Fill-69" fill="#E28B6D" mask="url(#mask-2)"></path>
            <path d="M1205.68247,1073.46085 C1194.41177,1069.8388 1192.95645,1049.33032 1191.99333,1035.76176 L1191.84107,1033.63592 L1193.76378,1033.49443 L1193.91604,1035.62381 C1194.7871,1047.88716 1196.24241,1068.40625 1206.27026,1071.6286 L1205.68247,1073.46085" id="Fill-70" fill="#E28B6D" mask="url(#mask-2)"></path>
            <path d="M1429.90303,796.220817 L1376.13954,896.05926 L1216.55563,807.613053 C1193.02857,807.868275 1173.83163,802.813751 1161.01478,789.910361 C1128.83104,800.847021 1103.30002,778.610159 1119.52997,762.192425 C1115.68492,753.492938 1115.38751,745.522301 1121.4525,738.902464 C1116.50987,732.708823 1115.43354,724.400132 1120.69482,718.118703 C1120.77271,692.39794 1142.42681,676.670827 1182.86361,686.732441 C1174.85131,655.859455 1169.1687,626.407711 1195.04315,616.225388 C1203.32808,650.036788 1211.58114,685.097393 1220.71225,696.686445 C1235.96501,707.263458 1249.5714,717.420648 1257.41376,726.142437 L1429.90303,796.220817" id="Fill-91" fill="#F9B384" mask="url(#mask-2)"></path>
            <path d="M287.577496,780.547415 C291.856326,787.302691 289.759048,795.172882 284.190266,800.513646 C289.197106,807.680649 287.896532,815.334011 283.063196,823.235683 C296.647525,841.143285 269.147084,859.348009 239.458719,844.675851 C225.431069,855.499574 206.251401,857.918994 183.555615,854.650655 L18.1436448,919.610678 L-21,816.419213 L126.051669,778.233048 L154.520193,770.838606 C163.208158,763.425063 177.644782,755.357852 193.730407,747.106709 C204.044001,737.09052 216.483909,704.317278 228.820069,672.751269 C252.500581,685.881931 243.2443,713.560949 231.554002,742.325877 C271.887391,737.794062 290.80149,755.733145 287.577496,780.547415" id="Fill-72" fill="#F9B384" mask="url(#mask-2)"></path>
            <path d="M248.851566,791.265478 C243.933058,791.265478 239.015611,790.308764 234.438932,788.417471 C226.838823,785.27609 224.308517,781.070133 223.57325,779.407565 C222.401066,776.756663 223.125728,771.532506 226.072449,767.980402 C228.409041,765.164719 231.671785,764.059386 235.266106,764.865021 L246.285204,767.600246 L262.562516,757.622735 L263.675314,759.416354 L246.638697,769.860804 L234.775104,766.915474 C231.247239,766.125649 228.982053,767.786108 227.70877,769.32184 C225.364755,772.147361 224.617116,776.529343 225.514636,778.559417 C226.147036,779.989394 228.362026,783.62301 235.253734,786.471368 C242.445912,789.442698 250.532781,789.970419 258.02154,787.950884 L287.483804,780.015393 L288.038788,782.050738 L258.576524,789.986229 C255.402153,790.840702 252.125976,791.265478 248.851566,791.265478" id="Fill-74" fill="#E28B6D" mask="url(#mask-2)"></path>
            <path d="M246.849271,811.145281 C243.925862,811.145281 241.305795,810.798567 239.2091,809.970166 C226.923732,805.114736 220.652875,795.722738 220.02554,791.774265 C219.440217,788.085023 224.72984,782.692561 225.335456,782.090185 L226.841131,783.610229 C224.855876,785.590185 221.822452,789.465811 222.135407,791.436477 C222.546985,794.030229 227.742258,803.1355 239.992023,807.977004 C251.851929,812.664969 283.870933,800.050063 284.19279,799.921875 L284.979985,801.913608 C283.856336,802.359945 261.55319,811.145281 246.849271,811.145281" id="Fill-75" fill="#E28B6D" mask="url(#mask-2)"></path>
            <path d="M254.499076,829.495868 C249.63354,829.495868 244.640624,828.98373 239.941636,827.631248 C220.281189,821.971748 215.597374,818.393446 214.151369,814.126443 C213.315453,811.657015 214.272752,807.426869 217.321783,804.622216 C219.258259,802.840437 223.609682,800.321515 231.013666,803.462796 L230.182337,805.400429 C224.192248,802.85869 220.664744,804.415114 218.758614,806.16811 C216.237809,808.487652 215.628426,811.88939 216.158416,813.453888 C217.316137,816.871422 221.903975,820.246834 240.530201,825.608669 C258.762991,830.853264 282.508456,822.67098 282.747693,822.587788 L283.450583,824.574914 C282.702174,824.836776 269.181779,829.495868 254.499076,829.495868" id="Fill-76" fill="#E28B6D" mask="url(#mask-2)"></path>
            <path d="M238.788336,845.552632 C231.299095,841.328249 221.415619,831.88152 222.334138,826.093056 C222.571914,824.590517 223.622212,822.634454 227.275518,821.84979 L227.737105,823.898517 C224.753799,824.539814 224.530704,825.95039 224.456578,826.414054 C223.780491,830.681797 232.363002,839.504712 239.862627,843.735039 L238.788336,845.552632" id="Fill-77" fill="#E28B6D" mask="url(#mask-2)"></path>
            <mask id="mask-4" fill="white">
                <use xlink:href="#path-3"></use>
            </mask>
            <g id="Clip-79"></g>
            <path d="M205.799766,814.919212 L205.47729,812.819994 C215.453866,811.290715 219.97667,791.96658 222.6786,780.42088 L223.150809,778.410162 L225.218053,778.899743 L224.746552,780.904797 C221.739845,793.754632 217.19474,813.172578 205.799766,814.919212" id="Fill-78" fill="#E28B6D" mask="url(#mask-4)"></path>
            <path d="M127.598122,778.267146 C121.131259,810.107648 122.790718,842.516674 131.290489,875.405016 L-21.4922899,938.257662 L-20.9935319,816.614517 L126.012291,778.397772 L127.598122,778.267146" id="Fill-80" fill="#EE6F57" mask="url(#mask-4)"></path>
            <path d="M183.482734,1159.06851 C183.482734,1159.06851 205.429502,1125.79254 128.969795,1061.3646 L138.173278,1144.90852 L183.482734,1159.06851" id="Fill-81" fill="#102048" mask="url(#mask-4)"></path>
            <path d="M50.4913388,1217.08906 L205.274105,1125.6297 C228.456264,1125.258 247.22606,1119.75685 259.493949,1106.69426 C291.497292,1116.60271 316.042628,1093.98921 299.609455,1078.26454 C303.165893,1069.58093 303.234919,1061.73276 297.090532,1055.3643 C301.786079,1049.13745 302.625366,1040.92111 297.267168,1034.86418 C296.501863,1009.5355 274.739519,994.628573 235.180824,1005.63088 C242.24202,974.99575 247.03668,945.829715 221.276131,936.505363 C214.02945,970.039754 206.863476,1004.80252 198.17645,1016.47035 C183.434593,1027.2992 170.306178,1037.67494 162.823746,1046.47891 L-5.1674344,1120.19226 L50.4913388,1217.08906" id="Fill-82" fill="#F9B384" mask="url(#mask-4)"></path>
            <path d="M254.347098,1051.23213 C251.406831,1051.23213 248.462325,1050.89235 245.584226,1050.20928 C237.535227,1048.30018 234.357591,1044.54504 233.364668,1043.02126 C231.788919,1040.59723 231.676592,1035.34284 234.020611,1031.37752 C235.872584,1028.2494 238.909283,1026.64506 242.5719,1026.87976 L254.066989,1027.85707 L268.749604,1015.29556 L269.976011,1016.70374 L254.695028,1029.78018 L242.432729,1028.73631 C238.714654,1028.50161 236.683595,1030.55783 235.64122,1032.31981 C233.732378,1035.54601 233.698468,1040.09631 234.943242,1042.00891 C235.813242,1043.34703 238.633412,1046.64679 246.021522,1048.39826 C253.706343,1050.22329 261.894868,1049.45965 269.074573,1046.24746 L297.207039,1033.66143 L297.979901,1035.35685 L269.847082,1047.94288 C264.979252,1050.1217 259.670593,1051.23213 254.347098,1051.23213" id="Fill-84" fill="#E28B6D" mask="url(#mask-4)"></path>
            <path d="M256.701411,1071.87654 C255.50869,1071.87654 254.39201,1071.77505 253.370734,1071.55108 C240.518707,1068.74441 232.876914,1060.59036 231.641244,1056.84579 C230.500625,1053.3882 234.838497,1047.3269 235.336989,1046.64448 L236.850421,1047.74336 C235.186315,1050.01459 232.783975,1054.33659 233.420468,1056.26836 C234.24284,1058.76007 240.849979,1066.91412 253.772415,1069.73479 C266.272046,1072.45397 295.959816,1055.04001 296.258348,1054.86503 L297.2152,1056.46434 C296.067189,1057.14326 270.965481,1071.87654 256.701411,1071.87654" id="Fill-85" fill="#E28B6D" mask="url(#mask-4)"></path>
            <path d="M262.612244,1089.46252 C260.763165,1089.46252 258.919413,1089.35935 257.096262,1089.13877 C236.46443,1086.59145 231.197786,1083.7524 229.072375,1079.70373 C227.876476,1077.4268 228.160267,1072.95832 230.703372,1069.71013 C232.341118,1067.62176 236.263397,1064.40915 244.147379,1066.36945 L243.69097,1068.20878 C237.187581,1066.58291 233.845671,1068.76378 232.1891,1070.88062 C229.995494,1073.68053 229.940085,1077.29161 230.744218,1078.82142 C232.482481,1082.13009 237.668143,1084.83394 257.326776,1087.25674 C276.557769,1089.63329 299.145945,1077.48372 299.372196,1077.3592 L300.274004,1079.02065 C299.416594,1079.48671 280.860447,1089.46252 262.612244,1089.46252" id="Fill-86" fill="#E28B6D" mask="url(#mask-4)"></path>
            <path d="M259.078171,1107.81311 C251.076243,1104.70536 239.896493,1096.66894 239.862627,1090.65059 C239.854254,1089.11643 240.556486,1087.00159 243.946209,1085.63948 L244.634009,1087.41022 C241.723705,1088.57876 241.731801,1090.13084 241.734617,1090.63984 C241.760313,1095.29967 251.608461,1102.8701 259.744852,1106.03162 L259.078171,1107.81311" id="Fill-87" fill="#E28B6D" mask="url(#mask-4)"></path>
            <path d="M221.147287,1082.01181 L220.570529,1080.21711 C230.378958,1077.06312 231.803681,1056.98167 232.654125,1044.98164 L232.804245,1042.89314 L234.682515,1043.03119 L234.532395,1045.11615 C233.590605,1058.3976 232.167298,1078.4649 221.147287,1082.01181" id="Fill-88" fill="#E28B6D" mask="url(#mask-4)"></path>
            <path d="M128.997696,1061.37106 C136.28772,1094.85077 153.781655,1130.75173 183.522405,1159.07038 L9.32658,1261.0175 L-84.1443506,1133.5836 L128.997696,1061.37106" id="Fill-90" fill="#708CD5" mask="url(#mask-4)"></path>
            <path d="M1163.77464,733.97499 C1158.68916,733.97499 1153.61077,732.979213 1148.90172,731.01142 L1119.85905,718.874506 L1120.6794,716.911678 L1149.72208,729.048591 C1157.11592,732.136988 1165.45797,732.689487 1173.2247,730.608215 C1180.66826,728.611343 1183.43474,725.171162 1184.27995,723.785302 C1185.47675,721.813962 1185.30983,717.197148 1183.29269,713.968676 C1182.19178,712.212946 1180.10715,710.185576 1176.34276,710.531332 L1163.84567,711.948398 L1147.85764,698.922095 L1149.20714,697.273815 L1164.49911,709.733434 L1176.12613,708.414597 C1179.92959,708.070969 1183.10092,709.642651 1185.10031,712.842398 C1187.62174,716.880471 1187.6537,722.332064 1186.09823,724.889238 C1185.12162,726.494608 1181.96804,730.467076 1173.77515,732.662536 C1170.50794,733.540224 1167.13774,733.97499 1163.77464,733.97499" id="Fill-93" fill="#E28B6D" mask="url(#mask-4)"></path>
            <path d="M1161.88747,754.6194 C1147.18182,754.6194 1121.80048,740.525582 1120.62375,739.866933 L1121.65871,738.006088 C1121.97061,738.178744 1152.71106,755.26455 1165.38933,752.110919 C1178.45747,748.853198 1184.95079,740.318822 1185.71637,737.744618 C1186.3012,735.77613 1183.74215,731.434515 1181.99123,729.16015 L1183.67481,727.858127 C1184.20647,728.54875 1188.83543,734.709644 1187.7544,738.353176 C1186.59184,742.262797 1178.98559,750.918316 1165.90326,754.179945 C1164.69108,754.481205 1163.34067,754.6194 1161.88747,754.6194" id="Fill-94" fill="#E28B6D" mask="url(#mask-4)"></path>
            <path d="M1156.01321,772.20538 C1138.02556,772.20538 1119.95309,763.241768 1119.09434,762.81157 L1120.05557,760.944122 C1120.28881,761.060052 1143.39712,772.518251 1162.69586,769.636067 C1182.4222,766.689982 1187.56406,763.88008 1189.21086,760.567 C1189.96359,759.046643 1189.8081,755.506593 1187.54285,752.81262 C1185.83597,750.776864 1182.43634,748.724696 1175.9728,750.502055 L1175.40384,748.48306 C1183.35516,746.296804 1187.44744,749.417482 1189.17552,751.475237 C1191.89311,754.712543 1192.29598,759.110195 1191.11211,761.490249 C1189.06597,765.6096 1183.81103,768.602476 1163.01391,771.708138 C1160.70626,772.052436 1158.35974,772.20538 1156.01321,772.20538" id="Fill-95" fill="#E28B6D" mask="url(#mask-4)"></path>
            <path d="M1161.19385,790.555967 L1160.3882,788.584946 C1168.46938,785.207576 1178.25685,777.210415 1178.15835,772.692321 C1178.14779,772.198055 1178.11613,770.692853 1175.2031,769.623602 L1175.92432,767.617733 C1179.45302,768.913849 1180.23405,771.067287 1180.26923,772.645384 C1180.40292,778.747975 1169.24689,787.190332 1161.19385,790.555967" id="Fill-96" fill="#E28B6D" mask="url(#mask-4)"></path>
            <mask id="mask-6" fill="white">
                <use xlink:href="#path-5"></use>
            </mask>
            <g id="Clip-98"></g>
            <path d="M1199.0056,763.54808 C1187.64281,760.236547 1185.6326,739.847444 1184.3031,726.355358 L1184.09393,724.249501 L1186.21049,724.035088 L1186.42321,726.14697 C1187.61799,738.283822 1189.6211,758.597438 1199.60121,761.506016 L1199.0056,763.54808" id="Fill-97" fill="#E28B6D" mask="url(#mask-6)"></path>
            <path d="M1429.96629,795.903923 L1412.69698,919.010078 L1258.46437,830.661194 C1271.76646,808.509649 1282.57972,781.988327 1282.25001,735.899405 L1429.96629,795.903923" id="Fill-99" fill="#1F3C88" mask="url(#mask-6)"></path>
        </g>
    </g>
</svg>