<svg id="Layer_1" data-name="Layer 1" xmlns="http://www.w3.org/2000/svg" viewBox="0 0 828.62 830.58"><defs><style>.cls-1{fill:#d1d3d1;}.cls-2{fill:#a2ccae;}.cls-3{fill:#fff;}.cls-4{fill:#46c777;}.cls-5{fill:#caddff;}.cls-6{fill:#5479f7;}.cls-7{fill:#99b9ff;}</style></defs><g id="Sales_growth" data-name="Sales growth"><path class="cls-1" d="M593.3,773.4c24.35,59.26,81.65,88.35,118,106.26,143.44,70.6,361,61.23,517.92-67.6C1266,781.91,1447,624,1404.86,410.14c-37.21-189-224.54-298.68-382.3-313.24-130.7-12.06-301.4,35.67-361.74,151-38,72.52,7.62,95.55-23.42,259.87C610.52,650,563.5,700.91,593.3,773.4Z" transform="translate(-583.75 -95.08)"/><path class="cls-2" d="M1402.93,836.88l-20.31,11.54c-3.43,1.73-745.09-150.41-745.09-158.59L626.46,108.12l20.16-8.92s8.48-4.09,13.46-3.17L1398.32,239.6a17.18,17.18,0,0,1,14,16.89V821.55A17.17,17.17,0,0,1,1402.93,836.88Z" transform="translate(-583.75 -95.08)"/><path class="cls-3" d="M1371,848.61,632.71,705a17.16,17.16,0,0,1-14.05-16.88V123.7A17.18,17.18,0,0,1,639,106.81L1377.2,250.38a17.18,17.18,0,0,1,14,16.89V831.73A17.17,17.17,0,0,1,1371,848.61Z" transform="translate(-583.75 -95.08)"/><path d="M618.66,335a1.5,1.5,0,0,1-1.5-1.5V123.7a18.68,18.68,0,0,1,22.07-18.36l122.64,23.85a1.5,1.5,0,1,1-.57,2.94L638.67,108.29a15.67,15.67,0,0,0-18.51,15.41V333.53A1.5,1.5,0,0,1,618.66,335Z" transform="translate(-583.75 -95.08)"/><path d="M721.5,723.81a1.43,1.43,0,0,1-.29,0l-88.79-17.27a18.66,18.66,0,0,1-15.26-18.35V432.71a1.5,1.5,0,1,1,3,0V688.16A15.69,15.69,0,0,0,633,703.57l88.8,17.27a1.49,1.49,0,0,1,1.19,1.75A1.51,1.51,0,0,1,721.5,723.81Z" transform="translate(-583.75 -95.08)"/><path d="M1374.1,850.4a18.83,18.83,0,0,1-3.42-.31L879,754.46a1.5,1.5,0,0,1,.58-3l491.71,95.63a15.68,15.68,0,0,0,18.51-15.41V267.27a15.66,15.66,0,0,0-12.82-15.41L1249.23,227a1.5,1.5,0,1,1,.57-2.94l127.69,24.83a18.67,18.67,0,0,1,15.26,18.36V831.73a18.68,18.68,0,0,1-18.65,18.67Z" transform="translate(-583.75 -95.08)"/><path class="cls-4" d="M1352.34,811.6l-42.2-7.7a9,9,0,0,1-7.4-8.88v-411a9,9,0,0,1,10.64-8.87l42.2,7.7a9,9,0,0,1,7.4,8.88v411A9,9,0,0,1,1352.34,811.6Z" transform="translate(-583.75 -95.08)"/><path class="cls-4" d="M1270.41,795.38l-42.2-7.7a9,9,0,0,1-7.4-8.87V434.58a9,9,0,0,1,10.64-8.87l42.2,7.7a9,9,0,0,1,7.4,8.87V786.51A9,9,0,0,1,1270.41,795.38Z" transform="translate(-583.75 -95.08)"/><path class="cls-4" d="M1188.48,779.17l-42.2-7.7a9,9,0,0,1-7.4-8.88V512.76a9,9,0,0,1,10.64-8.87l42.2,7.7a9,9,0,0,1,7.4,8.87V770.29A9,9,0,0,1,1188.48,779.17Z" transform="translate(-583.75 -95.08)"/><path class="cls-2" d="M1106.55,764l-42.2-7.7a9,9,0,0,1-7.4-8.87V554.9a9,9,0,0,1,10.64-8.88l42.2,7.71a9,9,0,0,1,7.4,8.87V755.08A9,9,0,0,1,1106.55,764Z" transform="translate(-583.75 -95.08)"/><path class="cls-2" d="M1024.62,747.74l-42.2-7.7a9,9,0,0,1-7.4-8.88V625.61a9,9,0,0,1,10.64-8.87l42.2,7.7a9,9,0,0,1,7.4,8.88V738.86A9,9,0,0,1,1024.62,747.74Z" transform="translate(-583.75 -95.08)"/><path class="cls-2" d="M942.69,731.52l-42.2-7.7a9,9,0,0,1-7.4-8.87V650.44a9,9,0,0,1,10.64-8.88l42.2,7.7a9,9,0,0,1,7.4,8.88v64.51A9,9,0,0,1,942.69,731.52Z" transform="translate(-583.75 -95.08)"/><path class="cls-5" d="M860.76,716.31l-42.2-7.7a9,9,0,0,1-7.4-8.88V662.8a9,9,0,0,1,10.64-8.87l42.2,7.7a9,9,0,0,1,7.41,8.87v36.93A9,9,0,0,1,860.76,716.31Z" transform="translate(-583.75 -95.08)"/><path class="cls-1" d="M778.83,700.09l-42.2-7.7a9,9,0,0,1-7.4-8.87V665.05a9,9,0,0,1,10.64-8.88l42.2,7.71a9,9,0,0,1,7.41,8.87v18.47A9,9,0,0,1,778.83,700.09Z" transform="translate(-583.75 -95.08)"/><path class="cls-1" d="M695.79,683.83l-42.21-7.7a9,9,0,0,1-7.4-8.88V655.47a9,9,0,0,1,10.64-8.87L699,654.3a9,9,0,0,1,7.4,8.87V675A9,9,0,0,1,695.79,683.83Z" transform="translate(-583.75 -95.08)"/><path d="M1119.35,450.69a1.5,1.5,0,0,1-.89-2.71l142.67-104.59a1.5,1.5,0,0,1,1.77,2.42L1120.24,450.4A1.48,1.48,0,0,1,1119.35,450.69Z" transform="translate(-583.75 -95.08)"/><path d="M987.93,503.21a1.5,1.5,0,0,1-.38-2.95l40.32-10.54a1.5,1.5,0,0,1,.76,2.9l-40.32,10.54A1.58,1.58,0,0,1,987.93,503.21Z" transform="translate(-583.75 -95.08)"/><ellipse class="cls-3" cx="1077.99" cy="474.24" rx="37.01" ry="37.06" transform="translate(-635.25 45.66) rotate(-7.3)"/><path d="M1077.94,512.81a38.56,38.56,0,1,1,10.37-1.42A38.75,38.75,0,0,1,1077.94,512.81Zm.09-74.14a35.57,35.57,0,0,0-17.5,66.52,35.23,35.23,0,0,0,27,3.31,35.59,35.59,0,0,0,24.69-43.78h0A35.55,35.55,0,0,0,1078,438.67Z" transform="translate(-583.75 -95.08)"/><path class="cls-4" d="M1080.51,491.86l-1.1-4a17.34,17.34,0,0,1-7.58.17l-.1-5.22a15.3,15.3,0,0,0,7.42-.09c2.37-.66,3.74-2,3.27-3.69s-2.05-2.22-5.42-2.4c-4.87-.26-8.48-1.5-9.61-5.54-1-3.67.77-7.27,5-9.38l-1.1-4,4.07-1.13,1,3.66a15.46,15.46,0,0,1,6.42-.3l.1,5a14.34,14.34,0,0,0-6.38.26c-2.71.75-3.26,2.16-2.94,3.33.39,1.37,2.09,1.84,6,2.19,5.44.37,8.08,2.11,9.12,5.86s-.71,7.61-5.27,9.77l1.19,4.25Z" transform="translate(-583.75 -95.08)"/><ellipse class="cls-3" cx="346.67" cy="423.08" rx="47.5" ry="47.56"/><path d="M930.39,567.25a49.14,49.14,0,1,1,17.11-3.11A48.85,48.85,0,0,1,930.39,567.25Zm.05-95.18a46.09,46.09,0,1,0,41.8,65.26h0a46.1,46.1,0,0,0-41.8-65.26Z" transform="translate(-583.75 -95.08)"/><path d="M930.4,558.9a40.74,40.74,0,1,1,40.14-47.39,1.5,1.5,0,1,1-2.95.49,37.73,37.73,0,0,0-21.5-28.14,37.65,37.65,0,0,0-49.92,18.6,37.78,37.78,0,0,0,18.57,50,37.66,37.66,0,0,0,49.93-18.6,1.49,1.49,0,0,1,2-.74,1.51,1.51,0,0,1,.74,2,40.79,40.79,0,0,1-37,23.79Z" transform="translate(-583.75 -95.08)"/><path class="cls-4" d="M918.33,537.53l2.19-4.79a22.32,22.32,0,0,1-7.58-6.1l4.22-5.22a19.4,19.4,0,0,0,7.35,6.06c2.87,1.32,5.35,1.11,6.27-.91s-.18-3.87-3.34-6.84c-4.56-4.29-7.09-8.5-4.85-13.4,2-4.44,6.75-6.49,12.63-5.08l2.19-4.8,4.94,2.27-2,4.44a19.92,19.92,0,0,1,6.55,5l-4.07,5a18.32,18.32,0,0,0-6.47-5c-3.28-1.5-5-.58-5.63.84-.76,1.66.52,3.53,4.06,7.11,5,4.87,6.19,8.76,4.11,13.3s-7,6.87-13.24,5.23l-2.36,5.15Z" transform="translate(-583.75 -95.08)"/><ellipse class="cls-3" cx="1312.26" cy="311.67" rx="47.5" ry="47.56" transform="translate(-278.79 1113.53) rotate(-55.04)"/><path d="M1312.4,360.68a49,49,0,1,1,42.12-73.83h0a49,49,0,0,1-42.12,73.83Zm-.27-95a46.08,46.08,0,1,0,39.8,22.71h0A46.13,46.13,0,0,0,1312.13,265.66Z" transform="translate(-583.75 -95.08)"/><path d="M1312.38,352.35a40.73,40.73,0,0,1-39.52-50.92A40.67,40.67,0,0,1,1329.8,275a1.5,1.5,0,1,1-1.29,2.71,37.74,37.74,0,1,0,16.24,14.91,1.5,1.5,0,0,1,2.58-1.52,40.64,40.64,0,0,1-34.95,61.28Z" transform="translate(-583.75 -95.08)"/><path class="cls-4" d="M1321.21,332.68l-2.67-4.55a22.36,22.36,0,0,1-9.34,2.72l-1.86-6.44a19.58,19.58,0,0,0,9.18-2.56c2.72-1.6,4-3.75,2.84-5.66s-3.27-2.07-7.52-1.18c-6.13,1.28-11,.94-13.76-3.7-2.48-4.21-1.45-9.25,3.07-13.26l-2.67-4.55,4.68-2.75,2.48,4.21a19.93,19.93,0,0,1,7.86-2.49l1.8,6.21a18.51,18.51,0,0,0-7.84,2.42c-3.11,1.83-3.33,3.76-2.54,5.1.93,1.58,3.19,1.6,8.16.74,6.87-1.33,10.72-.05,13.25,4.25s1.63,9.67-3.3,13.85l2.87,4.88Z" transform="translate(-583.75 -95.08)"/><path class="cls-2" d="M1022.67,303.78l-22.22-10.84a10.25,10.25,0,0,1-5.82-9.35q.11-6.27-.3-12.48a10.24,10.24,0,0,1,5.32-9.59l21.61-12a10.3,10.3,0,0,0,4.91-12l-5.63-18.85a10.42,10.42,0,0,0-10.68-7.38L985.1,213a10.41,10.41,0,0,1-9.76-5.24q-3-5.38-6.5-10.52a10.23,10.23,0,0,1-.28-11l12.71-21.12a10.26,10.26,0,0,0-1.77-12.78l-14.39-13.53a10.49,10.49,0,0,0-13-1.1l-20.58,13.65a10.45,10.45,0,0,1-11.09.3q-5.34-3.14-11-5.87a10.27,10.27,0,0,1-5.81-9.4l.34-24.56a10.34,10.34,0,0,0-8-10.19l-19.29-4.58A10.46,10.46,0,0,0,865,102.54l-11,22a10.38,10.38,0,0,1-9.43,5.77q-6.33-.1-12.59.3a10.36,10.36,0,0,1-9.68-5.27L810.24,104a10.46,10.46,0,0,0-12-4.86l-19,5.58a10.35,10.35,0,0,0-7.44,10.59l1.63,24.53a10.23,10.23,0,0,1-5.24,9.65q-5.49,3-10.72,6.51a10.42,10.42,0,0,1-11,.24L725,143.62a10.49,10.49,0,0,0-12.9,1.77l-13.66,14.26a10.26,10.26,0,0,0-1.1,12.85l13.76,20.39a10.23,10.23,0,0,1,.3,11q-3.18,5.3-5.93,10.88a10.42,10.42,0,0,1-9.49,5.76l-24.78-.34A10.41,10.41,0,0,0,661,228.1l-4.64,19.11a10.3,10.3,0,0,0,5.53,11.68l22.22,10.85a10.24,10.24,0,0,1,5.82,9.34q-.11,6.29.3,12.48a10.25,10.25,0,0,1-5.32,9.6l-21.61,12a10.3,10.3,0,0,0-4.91,11.95L664,343.93a10.41,10.41,0,0,0,10.68,7.37l24.75-1.62a10.38,10.38,0,0,1,9.74,5.18q3.06,5.44,6.57,10.62a10.18,10.18,0,0,1,.23,11l-12.7,21.12A10.26,10.26,0,0,0,705,410.34l14.39,13.53a10.49,10.49,0,0,0,13,1.09L753,411.32A10.47,10.47,0,0,1,764,411q5.34,3.15,11,5.87a10.27,10.27,0,0,1,5.81,9.41l-.34,24.55a10.34,10.34,0,0,0,8,10.19l19.29,4.59a10.46,10.46,0,0,0,11.79-5.48l11-22a10.36,10.36,0,0,1,9.43-5.77q6.33.11,12.59-.3a10.34,10.34,0,0,1,9.68,5.27l12.07,21.4a10.47,10.47,0,0,0,12.06,4.87l19-5.59a10.34,10.34,0,0,0,7.44-10.59l-1.63-24.53a10.29,10.29,0,0,1,5.29-9.68q5.44-3,10.61-6.44a10.48,10.48,0,0,1,11.11-.28l21.31,12.58a10.49,10.49,0,0,0,12.9-1.76L986,403a10.27,10.27,0,0,0,1.1-12.86l-13.76-20.38a10.25,10.25,0,0,1-.3-11q3.18-5.28,5.93-10.87a10.4,10.4,0,0,1,9.49-5.76l24.78.33a10.41,10.41,0,0,0,10.28-7.91l4.64-19.12A10.3,10.3,0,0,0,1022.67,303.78Zm-178.6,62c-47,1-86-36-87-82.56S793.41,198,840.44,197s86,36,87,82.56S891.1,364.72,844.07,365.73Z" transform="translate(-583.75 -95.08)"/><path class="cls-4" d="M1247.09,261.35l-14.74-3a6.22,6.22,0,0,1-4.85-4.61c-.59-2.47-1.29-4.91-2.08-7.3a6.24,6.24,0,0,1,1.67-6.46l10.9-10.34a6.26,6.26,0,0,0,1.07-7.79l-6.18-10.24a6.35,6.35,0,0,0-7.42-2.71l-14.33,4.73a6.32,6.32,0,0,1-6.54-1.6q-2.61-2.72-5.43-5.2a6.21,6.21,0,0,1-1.84-6.44l4.26-14.37a6.22,6.22,0,0,0-3-7.25L1188.06,173a6.4,6.4,0,0,0-7.81,1.33l-10,11.17a6.36,6.36,0,0,1-6.48,1.88c-2.41-.7-4.87-1.29-7.35-1.79a6.27,6.27,0,0,1-4.86-4.65L1148,166.42a6.29,6.29,0,0,0-6.25-4.79l-12.06.24a6.36,6.36,0,0,0-6.1,5l-3.09,14.64a6.31,6.31,0,0,1-4.67,4.83q-3.75.9-7.37,2.1a6.33,6.33,0,0,1-6.51-1.63l-10.37-10.76a6.36,6.36,0,0,0-7.84-1l-10.35,6.19a6.3,6.3,0,0,0-2.77,7.37l4.7,14.19a6.21,6.21,0,0,1-1.61,6.48q-2.78,2.63-5.32,5.47a6.35,6.35,0,0,1-6.47,1.82l-14.46-4.16a6.38,6.38,0,0,0-7.33,3l-5.87,10.47a6.24,6.24,0,0,0,1.31,7.74l11.21,9.91a6.22,6.22,0,0,1,1.85,6.43c-.71,2.39-1.32,4.83-1.83,7.3a6.34,6.34,0,0,1-4.71,4.84l-14.65,3.58a6.33,6.33,0,0,0-4.84,6.23l.18,12a6.25,6.25,0,0,0,5,6l14.74,3a6.24,6.24,0,0,1,4.85,4.62c.6,2.47,1.29,4.91,2.08,7.3a6.23,6.23,0,0,1-1.67,6.46l-10.9,10.34a6.28,6.28,0,0,0-1.07,7.79l6.19,10.24a6.34,6.34,0,0,0,7.41,2.71l14.33-4.73a6.3,6.3,0,0,1,6.52,1.57q2.64,2.75,5.49,5.25a6.21,6.21,0,0,1,1.8,6.42l-4.26,14.37a6.25,6.25,0,0,0,3,7.25l10.53,5.78a6.37,6.37,0,0,0,7.8-1.34l10-11.17a6.36,6.36,0,0,1,6.48-1.87c2.42.7,4.87,1.29,7.36,1.79a6.24,6.24,0,0,1,4.85,4.65l3.54,14.51a6.27,6.27,0,0,0,6.25,4.78l12.06-.24a6.34,6.34,0,0,0,6.1-5l3.1-14.64a6.28,6.28,0,0,1,4.67-4.83c2.5-.61,5-1.3,7.37-2.1a6.29,6.29,0,0,1,6.5,1.63l10.37,10.76a6.36,6.36,0,0,0,7.84,1l10.35-6.19a6.3,6.3,0,0,0,2.77-7.37l-4.7-14.19a6.26,6.26,0,0,1,1.64-6.51c1.83-1.73,3.59-3.54,5.27-5.41a6.37,6.37,0,0,1,6.49-1.86l14.47,4.16a6.38,6.38,0,0,0,7.32-3l5.87-10.48a6.24,6.24,0,0,0-1.3-7.74l-11.21-9.9a6.21,6.21,0,0,1-1.86-6.43c.71-2.4,1.32-4.83,1.84-7.31a6.32,6.32,0,0,1,4.71-4.83l14.64-3.58a6.34,6.34,0,0,0,4.85-6.23l-.19-12A6.26,6.26,0,0,0,1247.09,261.35Zm-95.72,63.7c-27.54,7.76-56.1-8.07-63.79-35.36s8.39-55.71,35.93-63.47,56.1,8.07,63.79,35.36S1178.91,317.28,1151.37,325.05Z" transform="translate(-583.75 -95.08)"/><path class="cls-3" d="M723.45,266.13a39.2,39.2,0,1,1,39.2,39.23,39.22,39.22,0,0,1-39.2-39.23Z" transform="translate(-583.75 -95.08)"/><path class="cls-6" d="M735.05,294.66a39.41,39.41,0,0,0,54.1,0,94.6,94.6,0,0,0-54.1,0Z" transform="translate(-583.75 -95.08)"/><path d="M762.1,306.91A40.71,40.71,0,0,1,734,295.75a1.5,1.5,0,0,1-.44-1.43,1.48,1.48,0,0,1,1-1.09,96,96,0,0,1,55,0,1.48,1.48,0,0,1,1,1.09,1.5,1.5,0,0,1-.43,1.43A40.75,40.75,0,0,1,762.1,306.91Zm-24-11.57a37.92,37.92,0,0,0,48,0,93.65,93.65,0,0,0-48,0Z" transform="translate(-583.75 -95.08)"/><path d="M774.73,243.21a11,11,0,0,0-6-1.75H756.34a11,11,0,0,0-7.49,2.94l-.68.63a11,11,0,0,0-2.87,11.8l4.09,11.35,26.23-.16,3.7-12.41A11,11,0,0,0,774.73,243.21Z" transform="translate(-583.75 -95.08)"/><path class="cls-3" d="M768.25,248.16l-.17-.07-18.83,12.22v7.38a13.26,13.26,0,0,0,5,10.4v11.24a8,8,0,0,0,16.09,0V278.38a13.23,13.23,0,0,0,5.43-10.69v-7.82A12.85,12.85,0,0,0,768.25,248.16Z" transform="translate(-583.75 -95.08)"/><path d="M762.53,282.47a1.5,1.5,0,0,1,0-3,11.79,11.79,0,0,0,11.78-11.78v-7.82A11.35,11.35,0,0,0,763,248.53H750.75v19.16a11.79,11.79,0,0,0,6.91,10.72,1.51,1.51,0,0,1,.74,2,1.49,1.49,0,0,1-2,.74,14.8,14.8,0,0,1-8.66-13.45V247a1.51,1.51,0,0,1,1.5-1.5H763a14.35,14.35,0,0,1,14.33,14.34v7.82A14.8,14.8,0,0,1,762.53,282.47Z" transform="translate(-583.75 -95.08)"/><path d="M762.09,306.86a40.92,40.92,0,1,1,27.17-71.51,1.5,1.5,0,0,1-2,2.24,37.94,37.94,0,1,0,12.67,26,1.5,1.5,0,0,1,3-.19,40.9,40.9,0,0,1-40.85,43.44Z" transform="translate(-583.75 -95.08)"/><path d="M762.34,298.87a9.55,9.55,0,0,1-9.55-9.54V278.09a1.5,1.5,0,1,1,3,0v11.24a6.55,6.55,0,0,0,13.09,0V278.66a1.5,1.5,0,1,1,3,0v10.67A9.55,9.55,0,0,1,762.34,298.87Z" transform="translate(-583.75 -95.08)"/><path class="cls-3" d="M961.29,154.45a39.41,39.41,0,0,0-3.65,65.66c.17.13.35.25.53.37l3.35,2.19a39.36,39.36,0,0,0,31.67,3.38c20.74-6.63,32.5-31.14,25.54-49.56-5.43-14.38-11.53-19.75-22.84-24.67C978.61,144.3,961.29,154.45,961.29,154.45Z" transform="translate(-583.75 -95.08)"/><path class="cls-6" d="M980.27,210.84A104.56,104.56,0,0,0,952,214.48a40,40,0,0,0,5.64,5.1c.17.13.35.25.53.37l3.35,2.19a38.12,38.12,0,0,0,47.41-7.09A101.07,101.07,0,0,0,980.27,210.84Z" transform="translate(-583.75 -95.08)"/><path d="M980.86,228.88a40.17,40.17,0,0,1-20.09-5.44l-3.42-2.24c-.21-.13-.41-.27-.61-.42a41.3,41.3,0,0,1-5.85-5.29,1.51,1.51,0,0,1,.71-2.46,105.6,105.6,0,0,1,28.68-3.69,102.11,102.11,0,0,1,29.08,4.28,1.48,1.48,0,0,1,1,1,1.53,1.53,0,0,1-.35,1.42,39.49,39.49,0,0,1-29.17,12.8Zm-26-13.6a40,40,0,0,0,3.66,3.1l.45.31,3.36,2.19a36.58,36.58,0,0,0,43.74-5.08,99.38,99.38,0,0,0-25.82-3.46A103.79,103.79,0,0,0,954.87,215.28Z" transform="translate(-583.75 -95.08)"/><path d="M1006.28,185.48c-3.87-14-11.87-32.29-26.87-30-14.38,2.16-21.15,17.95-24.26,30.18a11.85,11.85,0,0,0,11.46,14.71l28.16.14A11.85,11.85,0,0,0,1006.28,185.48Z" transform="translate(-583.75 -95.08)"/><path class="cls-3" d="M993.87,169.25l0-.09-25.56-.2,0,.06a16,16,0,0,0-.53,4l0,7.48a14.66,14.66,0,0,0,5.9,12l-.11,19.54a7,7,0,1,0,14.08.07l.1-19.25a14.59,14.59,0,0,0,6.43-12.23l0-8.44A15.24,15.24,0,0,0,993.87,169.25Z" transform="translate(-583.75 -95.08)"/><path d="M980.53,220.64h0a8.55,8.55,0,0,1-8.5-8.59l.1-19a1.53,1.53,0,0,1,1.51-1.5,1.5,1.5,0,0,1,1.49,1.51l-.1,19A5.53,5.53,0,0,0,976.6,216a5.46,5.46,0,0,0,3.9,1.65h0a5.55,5.55,0,0,0,5.54-5.51l.1-19a1.53,1.53,0,0,1,1.51-1.5,1.5,1.5,0,0,1,1.49,1.51l-.1,19A8.55,8.55,0,0,1,980.53,220.64Z" transform="translate(-583.75 -95.08)"/><path d="M980.93,187.22h0a6.56,6.56,0,0,1-4.8-2.1,1.5,1.5,0,1,1,2.19-2,3.59,3.59,0,0,0,2.63,1.14,3.39,3.39,0,0,0,2.64-1.13,1.5,1.5,0,0,1,2.18,2.07A6.67,6.67,0,0,1,980.93,187.22Z" transform="translate(-583.75 -95.08)"/><path d="M980.89,196.42h-.07a1.5,1.5,0,0,1,0-3h.06a11.16,11.16,0,0,0,8.2-3.68,13.33,13.33,0,0,0,3.51-9.1l0-8.44c0-6.81-5-12.38-11.2-12.41h-.05c-6.67,0-12.12,5.93-12.16,13.25l0,7.48A13,13,0,0,0,976,192.27,1.5,1.5,0,1,1,974.7,195a16,16,0,0,1-8.5-14.45l0-7.48c0-9,6.84-16.23,15.16-16.23h.07c7.86,0,14.22,7,14.18,15.43l0,8.44a16.35,16.35,0,0,1-4.32,11.13A14.12,14.12,0,0,1,980.89,196.42Z" transform="translate(-583.75 -95.08)"/><path d="M980.79,228.82a40.7,40.7,0,1,1,39.66-31.67,1.5,1.5,0,1,1-2.93-.67,37.7,37.7,0,1,0-4.45,11.06,1.49,1.49,0,0,1,2-.51,1.51,1.51,0,0,1,.52,2.06,40.78,40.78,0,0,1-34.85,19.73Z" transform="translate(-583.75 -95.08)"/><path class="cls-3" d="M599.15,383.83a39.53,39.53,0,1,1,39.52,39.55,39.54,39.54,0,0,1-39.52-39.55Z" transform="translate(-583.75 -95.08)"/><path d="M638.67,424.88a41.08,41.08,0,0,1-38.54-55.14,1.5,1.5,0,1,1,2.81,1,38.06,38.06,0,1,0,6.35-11.11,1.49,1.49,0,0,1-2.11.21,1.5,1.5,0,0,1-.21-2.11,41,41,0,1,1,31.7,67.12Z" transform="translate(-583.75 -95.08)"/><path class="cls-7" d="M611.56,412.6a39.48,39.48,0,0,0,54.22,0,94.55,94.55,0,0,0-54.22,0Z" transform="translate(-583.75 -95.08)"/><path class="cls-3" d="M638.91,415.32h0a6.24,6.24,0,0,1-6.24-6.25V377.23h12.47v31.84a6.24,6.24,0,0,1-6.23,6.25Z" transform="translate(-583.75 -95.08)"/><path d="M663.06,388.85c-.78-9.89,3.58-16.06-6.19-27.23-10.12-11.57-18.8-3.82-18.8-3.82s-7.23-6-16.73,6.56c-8.38,11.1,2.35,21-1.25,27.94S604.24,403,604.24,403s3.93,7.85,8.79,11.3h51.6s10.66-11.62,10.66-14.91C675.29,399.37,663.85,398.74,663.06,388.85Z" transform="translate(-583.75 -95.08)"/><path class="cls-7" d="M611.56,412.6a39.48,39.48,0,0,0,54.22,0,94.55,94.55,0,0,0-54.22,0Z" transform="translate(-583.75 -95.08)"/><path d="M638.67,424.88a40.82,40.82,0,0,1-28.14-11.19l-1.87-1.77,2.45-.76a96.25,96.25,0,0,1,55.12,0l2.45.76-1.87,1.77A40.82,40.82,0,0,1,638.67,424.88Zm-24.08-11.61a38,38,0,0,0,48.16,0,93.9,93.9,0,0,0-48.16,0Z" transform="translate(-583.75 -95.08)"/><path class="cls-3" d="M639.51,366.88h-.43l-12.7,12.77v7a12.71,12.71,0,0,0,6.29,11v11.45a6.24,6.24,0,1,0,12.47,0V397.83a12.69,12.69,0,0,0,6.65-11.18v-7.49A12.28,12.28,0,0,0,639.51,366.88Z" transform="translate(-583.75 -95.08)"/><path d="M638.91,416.81a7.75,7.75,0,0,1-7.74-7.74V398a1.5,1.5,0,1,1,3,0v11.1a4.74,4.74,0,1,0,9.47,0V398.16a1.5,1.5,0,1,1,3,0v10.91A7.74,7.74,0,0,1,638.91,416.81Z" transform="translate(-583.75 -95.08)"/><path d="M639.09,400.87a1.5,1.5,0,0,1,0-3,11.22,11.22,0,0,0,11.2-11.22v-7.49a10.75,10.75,0,0,0-10.18-10.77l-12.23,12.1v6.16a11.26,11.26,0,0,0,6.57,10.22,1.5,1.5,0,1,1-1.24,2.73,14.27,14.27,0,0,1-8.33-13v-6.79a1.47,1.47,0,0,1,.45-1.06l13.13-13a1.48,1.48,0,0,1,1-.43h.61a13.74,13.74,0,0,1,13.17,13.77v7.49A14.23,14.23,0,0,1,639.09,400.87Z" transform="translate(-583.75 -95.08)"/><circle class="cls-3" cx="821" cy="192.9" r="24.76" transform="translate(-39.88 894.34) rotate(-84.04)"/><path d="M821,219.16a26.26,26.26,0,1,1,26.26-26.26A26.3,26.3,0,0,1,821,219.16Zm0-49.52a23.26,23.26,0,1,0,23.26,23.26A23.3,23.3,0,0,0,821,169.64Z" transform="translate(-583.75 -95.08)"/><path class="cls-3" d="M815.78,186.71a5.22,5.22,0,1,1,5.22,5.22A5.22,5.22,0,0,1,815.78,186.71Z" transform="translate(-583.75 -95.08)"/><path d="M821,193.43a6.72,6.72,0,1,1,6.71-6.72A6.72,6.72,0,0,1,821,193.43ZM821,183a3.72,3.72,0,1,0,3.71,3.71A3.72,3.72,0,0,0,821,183Z" transform="translate(-583.75 -95.08)"/><path class="cls-6" d="M821,198h0a10.92,10.92,0,0,0-10.92,10.92v6.19a24.81,24.81,0,0,0,21.83,0v-6.19A10.92,10.92,0,0,0,821,198Z" transform="translate(-583.75 -95.08)"/><path d="M821,219.16a26.06,26.06,0,0,1-11.58-2.68,1.52,1.52,0,0,1-.84-1.35v-6.19a12.42,12.42,0,1,1,24.83,0v6.19a1.52,1.52,0,0,1-.84,1.35A26,26,0,0,1,821,219.16Zm-9.42-5a23.37,23.37,0,0,0,18.83,0v-5.24a9.42,9.42,0,1,0-18.83,0Zm20.33.95h0Z" transform="translate(-583.75 -95.08)"/><circle class="cls-3" cx="931.82" cy="293.13" r="24.76" transform="translate(-518.1 649.67) rotate(-45)"/><path d="M931.82,319.39a26.26,26.26,0,1,1,26.26-26.26A26.29,26.29,0,0,1,931.82,319.39Zm0-49.52a23.26,23.26,0,1,0,23.26,23.26A23.29,23.29,0,0,0,931.82,269.87Z" transform="translate(-583.75 -95.08)"/><path class="cls-3" d="M926.61,286.94a5.21,5.21,0,1,1,5.21,5.21A5.21,5.21,0,0,1,926.61,286.94Z" transform="translate(-583.75 -95.08)"/><path d="M931.82,293.65a6.71,6.71,0,1,1,6.71-6.71A6.72,6.72,0,0,1,931.82,293.65Zm0-10.42a3.71,3.71,0,1,0,3.71,3.71A3.71,3.71,0,0,0,931.82,283.23Z" transform="translate(-583.75 -95.08)"/><path class="cls-6" d="M931.82,298.25h0a10.92,10.92,0,0,0-10.92,10.91v6.2a24.81,24.81,0,0,0,21.83,0v-6.2A10.91,10.91,0,0,0,931.82,298.25Z" transform="translate(-583.75 -95.08)"/><path d="M931.82,319.39a25.94,25.94,0,0,1-11.58-2.69,1.5,1.5,0,0,1-.84-1.34v-6.2a12.42,12.42,0,0,1,24.83,0v6.2a1.48,1.48,0,0,1-.84,1.34A25.89,25.89,0,0,1,931.82,319.39Zm-9.42-5a23.27,23.27,0,0,0,18.83,0v-5.24a9.42,9.42,0,0,0-18.83,0Zm20.33,1h0Z" transform="translate(-583.75 -95.08)"/><path class="cls-3" d="M817.5,865.63l-3,31.8a1.54,1.54,0,0,0,1.29,1.77l15.8,1A1.34,1.34,0,0,0,833,898.9L835.89,870Z" transform="translate(-583.75 -95.08)"/><path d="M831.67,901.68h-.18l-15.79-1a2.75,2.75,0,0,1-2-1,3.22,3.22,0,0,1-.72-2.41l3-31.79a1.48,1.48,0,0,1,.61-1.07,1.5,1.5,0,0,1,1.23-.24l18.38,4.36a1.52,1.52,0,0,1,1.15,1.61l-2.94,28.91A2.86,2.86,0,0,1,831.67,901.68Zm-15.66-4,15.45.95,2.8-27.51-15.43-3.67L816,897.57A.29.29,0,0,0,816,897.71Zm0,0h0Z" transform="translate(-583.75 -95.08)"/><path class="cls-6" d="M812,889.2c-1,3.76-3.26,14.34-4.18,20.71a8,8,0,0,0,5.81,8.83c10.93,3,37.05,2.82,58.8,3.78,1.49.07,4.23-.66,5.45-4.27,4.14-12.24-18.72-16-41.31-28.47a1.33,1.33,0,0,0-1.4.07c-.26.19-.59.42-1,.66-3.93,2.5-10.46,2.51-14.46.11l-4.5-2.71A2.18,2.18,0,0,0,812,889.2Z" transform="translate(-583.75 -95.08)"/><path d="M872.62,924h-.25c-5.56-.24-11.49-.42-17.22-.59-17.28-.51-33.6-1-41.9-3.25a9.46,9.46,0,0,1-6.91-10.48c.93-6.36,3.13-17,4.23-20.91h0a3.67,3.67,0,0,1,5.44-2.17l4.51,2.71c3.55,2.14,9.45,2.1,12.87-.08.37-.23.68-.44.92-.62a2.83,2.83,0,0,1,3-.16c6.79,3.74,13.67,6.72,19.74,9.35,14.3,6.19,25.6,11.08,22.27,20.91C878,922.66,874.94,924,872.62,924ZM813.46,889.6c-1.06,3.81-3.26,14.44-4.15,20.53a6.47,6.47,0,0,0,4.72,7.16c8,2.15,24.86,2.65,41.21,3.14,5.74.17,11.68.35,17.26.6.47,0,2.88,0,4-3.26,2.33-6.88-5.89-10.82-20.62-17.2-6.1-2.64-13-5.64-19.9-9.42-.26.18-.58.4-.94.63-4.36,2.77-11.55,2.82-16,.12l-4.51-2.71a.67.67,0,0,0-.59-.05A.68.68,0,0,0,813.46,889.6Z" transform="translate(-583.75 -95.08)"/><path class="cls-3" d="M807.17,912.8a2.19,2.19,0,0,0,0,.22c-.58,4,3.21,6.45,6.84,8.15,10.77,5.06,54.25,2.16,55.93,2.05H870c.54,0,6.06,0,7.65-3.43a5.87,5.87,0,0,0,.4-1.59,8,8,0,0,0-.15-2.75h0a1.31,1.31,0,0,0-1.61-1c-8.08,2.06-26.92,2.75-45.75.67-12.52-1.37-18-4.1-20.86-5.84a1.33,1.33,0,0,0-2,.9C807.54,910.93,807.35,911.85,807.17,912.8Z" transform="translate(-583.75 -95.08)"/><path d="M842.57,925.67c-11.79,0-24-.67-29.24-3.14-2.33-1.09-8.52-4-7.69-9.73,0,0,0-.14.06-.29h0l.51-2.6a2.91,2.91,0,0,1,1.64-2.09,2.83,2.83,0,0,1,2.59.16c3,1.8,8.36,4.33,20.25,5.64,19.4,2.14,37.77,1.27,45.21-.63a2.8,2.8,0,0,1,2.17.32,2.88,2.88,0,0,1,1.29,1.81,9.37,9.37,0,0,1,.16,3.28,6.85,6.85,0,0,1-.52,2c-1.94,4.19-7.87,4.29-9,4.3C867.57,924.88,855.31,925.67,842.57,925.67Zm-33.93-12.59,0,.16c-.35,2.44,1.5,4.46,6,6.58,8.33,3.91,39.74,2.95,55.19,1.9H870c1.7,0,5.29-.48,6.25-2.56a4.14,4.14,0,0,0,.27-1.15,6.07,6.07,0,0,0-.09-2.07c-7.81,1.94-26.5,2.82-46.09.67-12.21-1.35-18-4-21.26-5.93Z" transform="translate(-583.75 -95.08)"/><path d="M838.13,901.17a1.5,1.5,0,0,1-.91-2.69l6.59-5a1.5,1.5,0,1,1,1.82,2.39l-6.59,5A1.47,1.47,0,0,1,838.13,901.17Z" transform="translate(-583.75 -95.08)"/><path d="M846.89,904.76a1.5,1.5,0,0,1-.9-2.7l5.77-4.33a1.5,1.5,0,0,1,1.8,2.4l-5.77,4.33A1.44,1.44,0,0,1,846.89,904.76Z" transform="translate(-583.75 -95.08)"/><path class="cls-6" d="M770.55,571.45S758,596.53,753.81,623c-3.93,24.6-18.36,125.89-53.53,207.13-4,9.21.61,18.79,10.42,20.93,3.92.85,5.57-.54,9-2.19a31.51,31.51,0,0,0,4.66-3.37s62.26-52,87.65-188.58C828.3,569.05,825.58,576,825.58,576Z" transform="translate(-583.75 -95.08)"/><path class="cls-6" d="M788,582.93s-7.31,47.66,6.52,82.92c13.29,33.9,21.78,166.83,16.83,205.23a4.42,4.42,0,0,0,3.77,5c6.05.85,17,2,24.41.61a3.56,3.56,0,0,0,2.82-2.62c4.92-19.48,45.76-195.6,17-285.86Z" transform="translate(-583.75 -95.08)"/><path class="cls-3" d="M802,712.15a1.5,1.5,0,0,1-1.5-1.43c0-.22-1.1-22-9.11-40.7A80.41,80.41,0,0,1,786,649.24a1.5,1.5,0,1,1,3-.4,77.83,77.83,0,0,0,5.17,20c8.23,19.24,9.31,40.83,9.35,41.74a1.5,1.5,0,0,1-1.43,1.57Z" transform="translate(-583.75 -95.08)"/><path class="cls-3" d="M821.16,657.58a13.37,13.37,0,0,1-7.83-2.53l-8.47-6.12a12.12,12.12,0,0,1-5-9.19l-1.44-27a4.58,4.58,0,0,1,5.24-4.79h0a156,156,0,0,0,37.3.94,4.6,4.6,0,0,1,5.08,4.41l.82,25.74a12.1,12.1,0,0,1-7.17,11.47l-13.08,5.86A13.27,13.27,0,0,1,821.16,657.58ZM803,611a1.6,1.6,0,0,0-1.59,1.68l1.45,27a9.11,9.11,0,0,0,3.77,6.92l8.47,6.12a10.34,10.34,0,0,0,10.28,1.06l13.08-5.85a9.12,9.12,0,0,0,5.4-8.64L843,613.45a1.57,1.57,0,0,0-.54-1.14,1.61,1.61,0,0,0-1.22-.39,159.42,159.42,0,0,1-38-.95h0Z" transform="translate(-583.75 -95.08)"/><path class="cls-3" d="M755.14,651.5a4.59,4.59,0,0,1-2.69-.87l-5.38-3.8a1.5,1.5,0,1,1,1.73-2.45l5.38,3.81a1.67,1.67,0,0,0,1.72.12L770.31,641a1.65,1.65,0,0,0,.9-1.31l3.25-30a1.67,1.67,0,0,0-1.41-1.83l-17.54-2.72a1.49,1.49,0,0,1-1.25-1.71,1.51,1.51,0,0,1,1.71-1.25l17.54,2.72a4.66,4.66,0,0,1,3.93,5.12l-3.25,30a4.65,4.65,0,0,1-2.53,3.66L757.26,651A4.66,4.66,0,0,1,755.14,651.5Z" transform="translate(-583.75 -95.08)"/><path class="cls-3" d="M710.63,866.43c1.92-9.6,2.75-11.57,7.36-19,3.42-5.5-4.9-13.79-9.14-14.43-7.07-1.45-5.94.78-14,11.15L688.5,852S709,874.82,710.63,866.43Z" transform="translate(-583.75 -95.08)"/><path d="M708.75,869.77c-5.86,0-17.72-12.73-21.37-16.81a1.5,1.5,0,0,1,0-2l6-7.33a65.59,65.59,0,0,0,4.81-7.11,1.5,1.5,0,1,1,2.57,1.55,67.85,67.85,0,0,1-5,7.43l-5.21,6.36c7.17,7.85,16,15.5,18.36,14.85.18,0,.27-.41.32-.62,1.73-8.69,2.34-11.21,6-17.27a1.5,1.5,0,1,1,2.57,1.54c-3.38,5.65-3.91,7.86-5.6,16.32a3.49,3.49,0,0,1-2.47,2.93A3.53,3.53,0,0,1,708.75,869.77Z" transform="translate(-583.75 -95.08)"/><path class="cls-6" d="M711.74,862.83l-8.18-12.35a11,11,0,0,0-16.88-1.78l-9.37,7.86s-1.79,5.4-1.22,8.89a73.22,73.22,0,0,0,5,17.43c4.35,9.87,16.38,29.7,20.67,36.67.89,1.46,3.14,2.91,4.7,2.21a22,22,0,0,0,5.65-4.08c2.87-2.7,1.91-15.32.88-24.1-.66-5.63-.17-20,.07-25.93A8.09,8.09,0,0,0,711.74,862.83Z" transform="translate(-583.75 -95.08)"/><path d="M705.58,923.45a6.61,6.61,0,0,1-5.07-3.11c-4.8-7.82-16.44-27-20.77-36.85a75.87,75.87,0,0,1-5.13-17.8c-.62-3.8,1.2-9.37,1.28-9.6l.13-.41,9.65-8.09a12.5,12.5,0,0,1,19.14,2.06L713,862a9.56,9.56,0,0,1,1.6,5.71c-.24,5.89-.73,20.17-.08,25.69,2.28,19.47.32,23.81-1.35,25.38a22.72,22.72,0,0,1-6,4.34A3.61,3.61,0,0,1,705.58,923.45Zm-27-66c-.51,1.68-1.42,5.43-1,7.78a72.37,72.37,0,0,0,4.92,17.07c4.37,9.91,16.85,30.43,20.57,36.48.63,1,2.18,1.91,2.82,1.63a20.35,20.35,0,0,0,5.23-3.8c.65-.61,2.62-4.08.42-22.84-.68-5.73-.18-20.21.06-26.16a6.54,6.54,0,0,0-1.1-3.93l-8.18-12.35a9.52,9.52,0,0,0-14.58-1.54l-.09.08Z" transform="translate(-583.75 -95.08)"/><path d="M712.72,878.41a1.9,1.9,0,0,1-.4,0l-8.81-2.42a1.5,1.5,0,0,1,.8-2.9l8.81,2.42a1.5,1.5,0,0,1-.4,2.95Z" transform="translate(-583.75 -95.08)"/><path d="M712.07,886.27a1.37,1.37,0,0,1-.4,0l-8.81-2.42a1.5,1.5,0,0,1,.79-2.89l8.82,2.42a1.5,1.5,0,0,1-.4,2.94Z" transform="translate(-583.75 -95.08)"/><path class="cls-3" d="M703.08,922.4a7.71,7.71,0,0,0,2.53-.41c2.63-.9,9.21-2.86,8.47-12.3-.76-9.78-8.19-14.76-13.62-21.17-4.15-4.9-3.73-25.37-5-29.39-2.34-7.18-12.84-8.26-18.12-2.57-3.33,3.59-3.73,11.4-3.4,17.15.61,10.75,6.93,32.15,14.92,42.49C692.73,921.24,698.74,922.4,703.08,922.4Z" transform="translate(-583.75 -95.08)"/><path d="M703.08,923.9h0c-3.81,0-10.88-.88-15.44-6.78-8.42-10.89-14.64-32.94-15.23-43.33-.28-5-.16-14,3.8-18.25a13.49,13.49,0,0,1,12.61-3.81,10.45,10.45,0,0,1,8,6.94c.5,1.54.75,4.79,1,8.9.51,6.82,1.28,17.12,3.7,20,1.22,1.44,2.59,2.85,3.91,4.22,4.64,4.79,9.44,9.75,10.07,17.81.8,10.32-6.5,12.81-9.25,13.75l-.23.08A9.19,9.19,0,0,1,703.08,923.9Zm-17.15-69.48a10.33,10.33,0,0,0-7.52,3.16c-2.34,2.53-3.44,8.37-3,16,.56,10,6.53,31.22,14.6,41.66,3.78,4.89,9.81,5.62,13.07,5.62a6.23,6.23,0,0,0,2-.33l.24-.08c2.74-.93,7.85-2.68,7.23-10.68-.55-7-4.77-11.34-9.24-16-1.35-1.4-2.75-2.84-4-4.36-3-3.61-3.8-13.64-4.4-21.7a56,56,0,0,0-.91-8.19,7.55,7.55,0,0,0-5.82-4.94A10.76,10.76,0,0,0,685.93,854.42Z" transform="translate(-583.75 -95.08)"/><path d="M703.08,923.9a26.51,26.51,0,0,1-3.22-.2,1.5,1.5,0,1,1,.38-3,22.33,22.33,0,0,0,2.84.18,5.35,5.35,0,0,0,4.09-1.67,4,4,0,0,0,.92-3.28c-1.29-9.29-6.27-14.07-12-19.6-5.21-5-6.4-20.38-7-28.65-.14-1.88-.3-3.82-.41-4.25-.5-1.81-3.29-4.06-6.51-4.42a5.71,5.71,0,0,0-6,3.24,1.5,1.5,0,0,1-2.65-1.4,8.7,8.7,0,0,1,9-4.82c4.2.46,8.18,3.37,9.07,6.61a36.71,36.71,0,0,1,.51,4.81c.57,7.3,1.76,22.51,6.13,26.71,5.92,5.67,11.51,11,12.94,21.36a7,7,0,0,1-1.62,5.66A8.36,8.36,0,0,1,703.08,923.9Z" transform="translate(-583.75 -95.08)"/><path class="cls-3" d="M952.49,339.76s3.11-7.42,5.3-10.16c5.49-6.87,11.52-16.39,12.66-26a18.37,18.37,0,0,0-3.18-12.86c-4.32-5.85-7.56-15-12.23-12.09-5,3.09-1.44,8.62.06,13.91,1.26,4.41,2.24,11.31-5.34,11.16-5-.1-9.48-.62-11.86,0a3.27,3.27,0,0,0-2.38,2.87c-.6,4.58,8.79,6.47,8.79,6.47,2.9,1.09,1.28,5.41.73,7.33L941.17,334Z" transform="translate(-583.75 -95.08)"/><path d="M953.25,341.84l-13.86-7.11,4.39-15.33c.67-2.24,1.15-4.38.09-4.89-1.63-.35-10.57-2.51-9.83-8.1a4.77,4.77,0,0,1,3.5-4.14c1.86-.45,4.51-.33,7.86-.17,1.38.07,2.86.14,4.39.17,1.86.05,3.16-.41,3.86-1.32s1.37-3.14,0-7.93c-.29-1-.69-2.12-1.06-3.17-1.51-4.16-3.38-9.33,1.65-12.43a4.61,4.61,0,0,1,3.59-.64c3,.72,5.17,4.39,7.51,8.27,1,1.66,2,3.38,3.12,4.84a19.87,19.87,0,0,1,3.47,13.94c-1.22,10.18-7.73,20.14-13,26.7-1.69,2.12-4.25,7.8-5.09,9.81ZM943,333.18l8.8,4.51c1-2.36,3.17-6.91,4.87-9,5-6.26,11.21-15.71,12.35-25.19a17.16,17.16,0,0,0-2.91-11.79c-1.17-1.58-2.24-3.36-3.27-5.08-1.84-3-3.91-6.48-5.65-6.9a1.63,1.63,0,0,0-1.32.28c-2.67,1.64-2.17,4-.4,8.85.39,1.1.8,2.23,1.13,3.37,1.38,4.88,1.21,8.34-.52,10.58-1.32,1.71-3.42,2.55-6.3,2.49-1.56,0-3.06-.1-4.47-.17a31.49,31.49,0,0,0-7,.08A1.82,1.82,0,0,0,937,306.8c-.32,2.38,5.09,4.29,7.6,4.8l.23.06c4,1.49,2.45,6.48,1.81,8.61l-.16.54Z" transform="translate(-583.75 -95.08)"/><path class="cls-3" d="M721.56,594.09s-11.35-3-14.28-.41c-.76.65,1.7,15.43.88,16.18-3.86,3.55-9.9,8.12-11.19,11.44-2,5.13.39,20,1.61,26.67a3.54,3.54,0,0,0,6.73.79,8.17,8.17,0,0,0,.44-3.6,45.66,45.66,0,0,1,.51-11.22,3.42,3.42,0,0,1,1.33-2.12c3.26-2.42,13.28-10.25,14.75-16.08a10.89,10.89,0,0,0-.68-4,13,13,0,0,1-.56-4.24Z" transform="translate(-583.75 -95.08)"/><path d="M702.14,652.4a5.14,5.14,0,0,1-5-4.16c-1.46-8-3.59-22.15-1.53-27.49,1.13-2.9,5-6.23,8.69-9.44.9-.79,1.77-1.54,2.57-2.26.06-1.2-.33-4.87-.6-7.37-.82-7.53-.81-8.38.06-9.14,3.36-2.91,13.62-.43,15.64.09a1.52,1.52,0,0,1,1.13,1.51l-.46,13.46a11.72,11.72,0,0,0,.49,3.76c.92,3,.86,4.14.71,4.75-1.56,6.16-11.23,13.88-15.32,16.91a2,2,0,0,0-.74,1.2,43.3,43.3,0,0,0-.49,10.84,9.69,9.69,0,0,1-.55,4.26A4.85,4.85,0,0,1,702.14,652.4Zm6.48-57.82c0,1.22.33,4.39.59,6.78.84,7.74.83,8.81,0,9.61s-1.91,1.7-3,2.6c-3.12,2.7-7,6.06-7.85,8.27-1.29,3.34-.66,13,1.68,25.86a2,2,0,0,0,1.85,1.69,1.91,1.91,0,0,0,2-1.2,6.76,6.76,0,0,0,.33-2.93,46.63,46.63,0,0,1,.54-11.59,4.89,4.89,0,0,1,1.9-3c6.16-4.57,13.12-11,14.2-15.24a10.28,10.28,0,0,0-.67-3.15,14.94,14.94,0,0,1-.62-4.73l.42-12.25C715.52,594.21,710.41,593.73,708.62,594.58Z" transform="translate(-583.75 -95.08)"/><path d="M958.37,331.51l-17.81-5a2.87,2.87,0,0,0-3.33,1.42c-12.45,23.43-58.31,82.42-86.46,89.93-4.69,1.25-18.49-.47-48.61,2.9a91.32,91.32,0,0,0-33.4,10.5l-1.56.84S682,485.38,702.85,600.71a2.7,2.7,0,0,0,2.66,2.21h17.11a2.69,2.69,0,0,0,2.69-2.52c.77-11.95,5.42-63.53,29.39-92.15a5.21,5.21,0,0,1,9,1.72c1.91,6.09,2.4,19.07-2.63,46.38-.16.83-6.49,33.06-6.49,33.06s66.66,11.43,89.89,7.26c18.37-3.3,23.91-7.82,25.43-9.57a1.86,1.86,0,0,0,.44-1.45l-2.7-23.48a333.81,333.81,0,0,1-.48-52.23A58,58,0,0,1,891,467.44c23.27-16.82,65.73-57.59,69.5-133A2.88,2.88,0,0,0,958.37,331.51Z" transform="translate(-583.75 -95.08)"/><path class="cls-3" d="M801.57,424.57c.13-1,8.43-10.13,3.46-27.33,0,0-15.21-15.5-12.43-23.69s.85-19.43,13.85-21.38S827.93,355,832,362.12a66.21,66.21,0,0,1,6.87,19c.67,3.24,1.27,10.61,1.54,14.23a2.93,2.93,0,0,1-1.75,2.9L834.9,400a2.94,2.94,0,0,0-1.72,3.17l1.15,7c3,14.68-1.18,14.53-5.13,16C819.13,430,800.93,429.81,801.57,424.57Z" transform="translate(-583.75 -95.08)"/><path d="M813.09,430.29c-4.91,0-9.29-.74-11.42-2.41a3.75,3.75,0,0,1-1.58-3.49h0a4,4,0,0,1,.74-1.59c1.67-2.74,6.71-11,2.86-24.79-2.51-2.6-15.37-16.5-12.51-24.94a43.26,43.26,0,0,0,1.41-6.07c1.27-6.88,2.71-14.68,13.63-16.32,12.3-1.84,22.17,2.06,27.09,10.7a66.64,66.64,0,0,1,7,19.47c.67,3.26,1.27,10.43,1.57,14.41a4.46,4.46,0,0,1-2.64,4.4l-3.78,1.66a1.45,1.45,0,0,0-.84,1.56l1.15,7c2.78,13.51-.33,15.7-5,17.31l-1,.37A50.31,50.31,0,0,1,813.09,430.29Zm-10-5.39c0,.14.11.34.46.62,3.18,2.49,16.45,2.58,25.15-.75.38-.15.76-.28,1.14-.41,3.09-1.06,5.53-1.89,3.05-13.93l-1.16-7.07a4.43,4.43,0,0,1,2.59-4.78l3.78-1.67a1.44,1.44,0,0,0,.86-1.42c-.24-3.15-.86-10.82-1.52-14a63.53,63.53,0,0,0-6.7-18.59c-4.35-7.62-12.89-10.89-24-9.22-8.81,1.32-9.88,7.15-11.13,13.89A45.68,45.68,0,0,1,794,374c-2,6,8,18,12.08,22.16l.26.27.11.36c4.41,15.25-1.23,24.5-3.08,27.54ZM803,425Z" transform="translate(-583.75 -95.08)"/><path d="M829.27,374.49a4.36,4.36,0,0,0,2.08-4.28c-.25-2-2.17-6.58.66-8.09,7.6-4.05,3.11-13.25-2.17-16.14s-24.82-6.14-33.54.35c0,0-3.3,3.67-2,6.66,0,0-7.49,1.29-8.46,7.12s-1,26.73,20,39.54a31,31,0,0,0,10.11-2.31,8.15,8.15,0,0,0,4.9-7.57c0-5,.89-12.85,1.93-15.28,0,0-1.36-3.37.47-4.54,1.18-.77,2.94.49,3.8,1.61l2.26,2.93Z" transform="translate(-583.75 -95.08)"/><path d="M840.09,398.27h0a12.36,12.36,0,0,1-10.9-8.3,1.5,1.5,0,0,1,2.81-1,9.45,9.45,0,0,0,8.16,6.34,1.5,1.5,0,0,1,0,3Z" transform="translate(-583.75 -95.08)"/><path d="M828.76,383.48c-1.48,0-6.8-.67-9.58-9.94a1.5,1.5,0,0,1,2.88-.86c2.4,8,6.59,7.81,6.76,7.8a1.51,1.51,0,0,1,1.63,1.34,1.49,1.49,0,0,1-1.3,1.64S829,383.48,828.76,383.48Z" transform="translate(-583.75 -95.08)"/><path d="M672.17,749.68a1.49,1.49,0,0,1-1.06-.44l-3.84-3.84a1.5,1.5,0,1,1,2.12-2.12l3.84,3.84a1.51,1.51,0,0,1,0,2.12A1.53,1.53,0,0,1,672.17,749.68Z" transform="translate(-583.75 -95.08)"/><path d="M684.3,761.81a1.51,1.51,0,0,1-1.06-.44l-3.84-3.84a1.5,1.5,0,0,1,2.12-2.12l3.84,3.84a1.49,1.49,0,0,1,0,2.12A1.51,1.51,0,0,1,684.3,761.81Z" transform="translate(-583.75 -95.08)"/><path d="M668.33,761.81a1.5,1.5,0,0,1-1.06-2.56l3.84-3.84a1.49,1.49,0,0,1,2.12,0,1.51,1.51,0,0,1,0,2.12l-3.84,3.84A1.51,1.51,0,0,1,668.33,761.81Z" transform="translate(-583.75 -95.08)"/><path d="M680.46,749.68a1.51,1.51,0,0,1-1.06-.44,1.49,1.49,0,0,1,0-2.12l3.84-3.84a1.5,1.5,0,0,1,2.12,2.12l-3.84,3.84A1.51,1.51,0,0,1,680.46,749.68Z" transform="translate(-583.75 -95.08)"/><path d="M1256.1,136.84a1.51,1.51,0,0,1-1.16-.55l-3.46-4.18a1.5,1.5,0,0,1,2.31-1.91l3.46,4.18a1.51,1.51,0,0,1-1.15,2.46Z" transform="translate(-583.75 -95.08)"/><path d="M1267,150.05a1.5,1.5,0,0,1-1.15-.54l-3.47-4.19a1.5,1.5,0,0,1,2.31-1.91l3.47,4.18a1.49,1.49,0,0,1-.2,2.11A1.51,1.51,0,0,1,1267,150.05Z" transform="translate(-583.75 -95.08)"/><path d="M1251.14,148.56A1.48,1.48,0,0,1,1250,148a1.5,1.5,0,0,1,.19-2.11l4.19-3.46a1.5,1.5,0,1,1,1.91,2.31l-4.18,3.46A1.51,1.51,0,0,1,1251.14,148.56Z" transform="translate(-583.75 -95.08)"/><path d="M1264.35,137.61a1.48,1.48,0,0,1-1.15-.54,1.51,1.51,0,0,1,.2-2.12l4.18-3.46a1.5,1.5,0,1,1,1.91,2.31l-4.18,3.47A1.5,1.5,0,0,1,1264.35,137.61Z" transform="translate(-583.75 -95.08)"/><circle class="cls-2" cx="1321.6" cy="172.87" r="9.12" transform="translate(318.07 1342.81) rotate(-79.09)"/><circle class="cls-2" cx="946.16" cy="863.4" r="9.12" transform="translate(-917.14 826.83) rotate(-45)"/><path d="M1000.75,853.08a5.87,5.87,0,1,1,5.87-5.87A5.89,5.89,0,0,1,1000.75,853.08Zm0-8.74a2.87,2.87,0,1,0,2.87,2.87A2.88,2.88,0,0,0,1000.75,844.34Z" transform="translate(-583.75 -95.08)"/></g></svg>